<?xml version="1.0" encoding="UTF-8" standalone="no"?>
<!DOCTYPE svg PUBLIC "-//W3C//DTD SVG 1.1//EN" "http://www.w3.org/Graphics/SVG/1.1/DTD/svg11.dtd">
<svg width="100%" height="100%" viewBox="0 0 806 464" version="1.1" xmlns="http://www.w3.org/2000/svg" xmlns:xlink="http://www.w3.org/1999/xlink" xml:space="preserve" style="fill-rule:evenodd;clip-rule:evenodd;stroke-linejoin:round;stroke-miterlimit:10;">
    <g transform="matrix(1.33333,0,0,1.33333,0,0)">
        <g>
            <clipPath id="_clip1">
                <rect x="0" y="0" width="604" height="348"/>
            </clipPath>
            <g clip-path="url(#_clip1)">
                <path d="M0,0L604,0L604,348L0,348L0,0Z" style="fill-opacity:0;fill-rule:nonzero;"/>
                <g transform="matrix(1,0,0,1,-50.8356,38.2468)">
                    <text x="536.469px" y="145.985px" style="font-family:'SpecialElite-Regular', 'Special Elite';font-size:30px;">Gelb</text>
                </g>
                <path d="M114.36,0L471.651,0L471.651,347.969L114.36,347.969L114.36,0Z" style="fill:white;fill-rule:nonzero;"/>
                <path d="M125.438,5.776L462.352,5.776L462.352,343.445L125.438,343.445L125.438,5.776Z" style="fill-opacity:0;fill-rule:nonzero;"/>
                <path d="M125.438,5.776L462.352,5.776L462.352,343.445L125.438,343.445L125.438,5.776Z" style="fill:none;stroke:black;stroke-width:2px;"/>
                <path d="M403.094,40.554C403.094,32.178 410.06,25.389 418.653,25.389C422.78,25.389 426.737,26.986 429.655,29.83C432.573,32.674 434.212,36.532 434.212,40.554C434.212,48.93 427.246,55.719 418.653,55.719C410.06,55.719 403.094,48.93 403.094,40.554L403.094,40.554Z" style="fill:white;fill-rule:nonzero;"/>
                <path d="M403.094,40.554C403.094,32.178 410.06,25.389 418.653,25.389C422.78,25.389 426.737,26.986 429.655,29.83C432.573,32.674 434.212,36.532 434.212,40.554C434.212,48.93 427.246,55.719 418.653,55.719C410.06,55.719 403.094,48.93 403.094,40.554L403.094,40.554Z" style="fill:none;stroke:black;stroke-width:2px;"/>
                <path d="M241.622,122.045L294.189,69.478L346.756,122.045L294.189,174.612L241.622,122.045Z" style="fill-opacity:0;fill-rule:nonzero;"/>
                <path d="M241.622,122.045L294.189,69.478L346.756,122.045L294.189,174.612L241.622,122.045Z" style="fill:none;stroke:black;stroke-width:2px;"/>
                <path d="M188.761,175.066L241.328,122.499L293.895,175.066L241.328,227.633L188.761,175.066Z" style="fill-opacity:0;fill-rule:nonzero;"/>
                <path d="M188.761,175.066L241.328,122.499L293.895,175.066L241.328,227.633L188.761,175.066Z" style="fill:none;stroke:black;stroke-width:2px;"/>
                <path d="M241.622,227.178L294.189,174.612L346.756,227.178L294.189,279.745L241.622,227.178Z" style="fill-opacity:0;fill-rule:nonzero;"/>
                <path d="M241.622,227.178L294.189,174.612L346.756,227.178L294.189,279.745L241.622,227.178Z" style="fill:none;stroke:black;stroke-width:2px;"/>
                <path d="M293.895,175.066L346.462,122.499L399.029,175.066L346.462,227.633L293.895,175.066Z" style="fill-opacity:0;fill-rule:nonzero;"/>
                <path d="M293.895,175.066L346.462,122.499L399.029,175.066L346.462,227.633L293.895,175.066Z" style="fill:none;stroke:black;stroke-width:2px;"/>
                <path d="M478.651,60.892L574.525,60.892L574.525,122.499L478.651,122.499L478.651,60.892Z" style="fill-opacity:0;fill-rule:nonzero;"/>
                <g transform="matrix(1,0,0,1,-23.0997,22.4568)">
                    <text x="509.231px" y="78.128px" style="font-family:'SpecialElite-Regular', 'Special Elite';font-size:30px;">Blau</text>
                </g>
                <path d="M2.226,142.373L107.36,142.373L107.36,207.759L2.226,207.759L2.226,142.373Z" style="fill-opacity:0;fill-rule:nonzero;"/>
                <path d="M-5,223.633L108.354,223.633L108.354,289.018L-5,289.018L-5,223.633Z" style="fill-opacity:0;fill-rule:nonzero;"/>
                <path d="M108.354,256.325L263,256.325" style="fill-opacity:0;fill-rule:nonzero;"/>
                <path d="M108.354,256.325L251,256.325" style="fill:none;stroke:black;stroke-width:2px;"/>
                <path d="M251,259.629L260.076,256.325L251,253.022L251,259.629Z" style="stroke:black;stroke-width:2px;stroke-linejoin:miter;"/>
                <path d="M478.651,91.696L332.226,91.696" style="fill-opacity:0;fill-rule:nonzero;"/>
                <path d="M478.651,91.696L344.226,91.696" style="fill:none;stroke:black;stroke-width:2px;"/>
                <path d="M344.226,88.392L335.15,91.696L344.226,94.999L344.226,88.392Z" style="stroke:black;stroke-width:2px;stroke-linejoin:miter;"/>
                <path d="M478.651,174.612L410.178,174.612" style="fill-opacity:0;fill-rule:nonzero;"/>
                <path d="M478.651,174.612L422.178,174.612" style="fill:none;stroke:black;stroke-width:2px;"/>
                <path d="M422.178,171.308L413.102,174.612L422.178,177.915L422.178,171.308Z" style="stroke:black;stroke-width:2px;stroke-linejoin:miter;"/>
                <path d="M107.36,175.066L179.549,175.066" style="fill-opacity:0;fill-rule:nonzero;"/>
                <path d="M107.36,175.066L167.549,175.066" style="fill:none;stroke:black;stroke-width:2px;"/>
                <path d="M167.549,178.369L176.625,175.066L167.549,171.762L167.549,178.369Z" style="stroke:black;stroke-width:2px;stroke-linejoin:miter;"/>
                <g transform="matrix(1,0,0,1,9.51477,130.972)">
                    <text x="38.098px" y="50.724px" style="font-family:'SpecialElite-Regular', 'Special Elite';font-size:30px;">Rot</text>
                </g>
                <g transform="matrix(1,0,0,1,-1.03141,30.5344)">
                    <text x="26.54px" y="232.131px" style="font-family:'SpecialElite-Regular', 'Special Elite';font-size:30px;">Grün</text>
                </g>
            </g>
        </g>
    </g>
</svg>
