<?xml version="1.0" encoding="UTF-8" standalone="no"?>
<svg
   xmlns:dc="http://purl.org/dc/elements/1.1/"
   xmlns:cc="http://creativecommons.org/ns#"
   xmlns:rdf="http://www.w3.org/1999/02/22-rdf-syntax-ns#"
   xmlns:svg="http://www.w3.org/2000/svg"
   xmlns="http://www.w3.org/2000/svg"
   xmlns:sodipodi="http://sodipodi.sourceforge.net/DTD/sodipodi-0.dtd"
   xmlns:inkscape="http://www.inkscape.org/namespaces/inkscape"
   version="1.1"
   viewBox="0.0 0.0 369.0 801.0"
   fill="none"
   stroke="none"
   stroke-linecap="square"
   stroke-miterlimit="10"
   id="svg2"
   inkscape:version="0.91 r13725"
   sodipodi:docname="BombSide.svg">
  <metadata
     id="metadata101">
    <rdf:RDF>
      <cc:Work
         rdf:about="">
        <dc:format>image/svg+xml</dc:format>
        <dc:type
           rdf:resource="http://purl.org/dc/dcmitype/StillImage" />
      </cc:Work>
    </rdf:RDF>
  </metadata>
  <defs
     id="defs99" />
  <sodipodi:namedview
     pagecolor="#ffffff"
     bordercolor="#666666"
     borderopacity="1"
     objecttolerance="10"
     gridtolerance="10"
     guidetolerance="10"
     inkscape:pageopacity="0"
     inkscape:pageshadow="2"
     inkscape:window-width="1920"
     inkscape:window-height="1017"
     id="namedview97"
     showgrid="false"
     inkscape:zoom="0.83334432"
     inkscape:cx="240.1921"
     inkscape:cy="526.81167"
     inkscape:window-x="-8"
     inkscape:window-y="-8"
     inkscape:window-maximized="1"
     inkscape:current-layer="svg2" />
  <clipPath
     id="p.0">
    <path
       d="m0 0l369.0 0l0 801.0l-369.0 0l0 -801.0z"
       clip-rule="nonzero"
       id="path5" />
  </clipPath>
  <g
     clip-path="url(#p.0)"
     id="g7">
    <path
       d="m0 0l369.1076 0l0 801.916l-369.1076 0z"
       id="path9"
       fill-rule="nonzero"
       fill-opacity="0.0"
       fill="#000000" />
    <path
       d="m248.5753 444.2651l101.4803 0l0 67.55905l-101.4803 0z"
       id="path11"
       fill-rule="nonzero"
       fill="#000000" />
    <path
       d="m248.5753 444.2651l101.4803 0l0 67.55905l-101.4803 0z"
       id="path13"
       stroke-linejoin="round"
       stroke-linecap="butt"
       stroke-width="2.0"
       stroke="#000000"
       fill-rule="nonzero" />
    <path
       d="m289.4047 109.25535l67.3071 0l0 208.0315l-67.3071 0z"
       id="path15"
       fill-rule="nonzero"
       fill="#ffffff" />
    <path
       d="m289.4047 109.25535l67.3071 0l0 208.0315l-67.3071 0z"
       id="path17"
       stroke-linejoin="round"
       stroke-linecap="butt"
       stroke-width="2.0"
       stroke="#000000"
       fill-rule="nonzero" />
    <path
       d="m5.589649 165.38321l47.716534 0l0 107.71652l-47.716534 0z"
       id="path19"
       fill-rule="nonzero"
       fill="#ffffff" />
    <path
       d="m5.589649 165.38321l47.716534 0l0 107.71652l-47.716534 0z"
       id="path21"
       stroke-linejoin="round"
       stroke-linecap="butt"
       stroke-width="2.0"
       stroke="#000000"
       fill-rule="nonzero" />
    <path
       d="m278.36172 66.32809l68.828064 0l0 0c9.016663 0 16.32611 7.0423126 16.32611 15.729446c0 8.687134 -7.3094482 15.729446 -16.32611 15.729446l-68.828064 0l0 0c-9.016663 0 -16.326141 -7.0423126 -16.326141 -15.729446c0 -8.687134 7.3094788 -15.729446 16.326141 -15.729446z"
       id="path23"
       fill-rule="nonzero"
       fill="#ffffff" />
    <path
       d="m278.36172 66.32809l68.828064 0l0 0c9.016663 0 16.32611 7.0423126 16.32611 15.729446c0 8.687134 -7.3094482 15.729446 -16.32611 15.729446l-68.828064 0l0 0c-9.016663 0 -16.326141 -7.0423126 -16.326141 -15.729446c0 -8.687134 7.3094788 -15.729446 16.326141 -15.729446z"
       id="path25"
       stroke-linejoin="round"
       stroke-linecap="butt"
       stroke-width="2.0"
       stroke="#000000"
       fill-rule="nonzero" />
    <path
       d="m12.574803 486.2047l67.30708 0l0 208.0315l-67.30708 0z"
       id="path27"
       fill-rule="nonzero"
       fill="#ffffff" />
    <path
       d="m12.574803 486.2047l67.30708 0l0 208.0315l-67.30708 0z"
       id="path29"
       stroke-linejoin="round"
       stroke-linecap="butt"
       stroke-width="2.0"
       stroke="#000000"
       fill-rule="nonzero" />
    <path
       d="m243.86876 46.650917l92.157486 0l0 337.6693l-92.157486 0z"
       id="path31"
       fill-rule="nonzero"
       fill="#ffffff" />
    <path
       d="m243.86876 46.650917l92.157486 0l0 337.6693l-92.157486 0z"
       id="path33"
       stroke-linejoin="round"
       stroke-linecap="butt"
       stroke-width="2.0"
       stroke="#000000"
       fill-rule="nonzero" />
    <path
       d="m22.658957 122.89764l79.08661 0l0 181.63779l-79.08661 0z"
       id="path35"
       fill-rule="nonzero"
       fill="#000000" />
    <path
       d="m22.658957 122.89764l79.08661 0l0 181.63779l-79.08661 0z"
       id="path37"
       stroke-linejoin="round"
       stroke-linecap="butt"
       stroke-width="2.0"
       stroke="#000000"
       fill-rule="nonzero" />
    <path
       d="m22.689058 66.32809l68.82809 0l0 0c9.016663 0 16.326118 7.0423126 16.326118 15.729446c0 8.687134 -7.309456 15.729446 -16.326118 15.729446l-68.82809 0l0 0c-9.0166645 0 -16.326115 -7.0423126 -16.326115 -15.729446c0 -8.687134 7.3094506 -15.729446 16.326115 -15.729446z"
       id="path39"
       fill-rule="nonzero"
       fill="#ffffff" />
    <path
       d="m22.689058 66.32809l68.82809 0l0 0c9.016663 0 16.326118 7.0423126 16.326118 15.729446c0 8.687134 -7.309456 15.729446 -16.326118 15.729446l-68.82809 0l0 0c-9.0166645 0 -16.326115 -7.0423126 -16.326115 -15.729446c0 -8.687134 7.3094506 -15.729446 16.326115 -15.729446z"
       id="path41"
       stroke-linejoin="round"
       stroke-linecap="butt"
       stroke-width="2.0"
       stroke="#000000"
       fill-rule="nonzero" />
    <path
       d="m22.689058 443.84253l68.82809 0l0 0c9.016663 0 16.326118 7.0422974 16.326118 15.729431c0 8.687134 -7.309456 15.729462 -16.326118 15.729462l-68.82809 0l0 0c-9.0166645 0 -16.326115 -7.042328 -16.326115 -15.729462c0 -8.687134 7.3094506 -15.729431 16.326115 -15.729431z"
       id="path43"
       fill-rule="nonzero"
       fill="#ffffff" />
    <path
       d="m22.689058 443.84253l68.82809 0l0 0c9.016663 0 16.326118 7.0422974 16.326118 15.729431c0 8.687134 -7.309456 15.729462 -16.326118 15.729462l-68.82809 0l0 0c-9.0166645 0 -16.326115 -7.042328 -16.326115 -15.729462c0 -8.687134 7.3094506 -15.729431 16.326115 -15.729431z"
       id="path45"
       stroke-linejoin="round"
       stroke-linecap="butt"
       stroke-width="2.0"
       stroke="#000000"
       fill-rule="nonzero" />
    <path
       d="m31.853674 46.650917l54.960632 0l0 337.6693l-54.960632 0z"
       id="path47"
       fill-rule="nonzero"
       fill="#ffffff" />
    <path
       d="m31.853674 46.650917l54.960632 0l0 337.6693l-54.960632 0z"
       id="path49"
       stroke-linejoin="round"
       stroke-linecap="butt"
       stroke-width="2.0"
       stroke="#000000"
       fill-rule="nonzero" />
    <path
       d="m278.36368 443.84253l68.828094 0l0 0c9.016663 0 16.32611 7.0422974 16.32611 15.729431c0 8.687134 -7.3094482 15.729462 -16.32611 15.729462l-68.828094 0l0 0c-9.016663 0 -16.32611 -7.042328 -16.32611 -15.729462c0 -8.687134 7.3094482 -15.729431 16.32611 -15.729431z"
       id="path51"
       fill-rule="nonzero"
       fill="#ffffff" />
    <path
       d="m278.36368 443.84253l68.828094 0l0 0c9.016663 0 16.32611 7.0422974 16.32611 15.729431c0 8.687134 -7.3094482 15.729462 -16.32611 15.729462l-68.828094 0l0 0c-9.016663 0 -16.32611 -7.042328 -16.32611 -15.729462c0 -8.687134 7.3094482 -15.729431 16.32611 -15.729431z"
       id="path53"
       stroke-linejoin="round"
       stroke-linecap="butt"
       stroke-width="2.0"
       stroke="#000000"
       fill-rule="nonzero" />
    <path
       d="m251.84662 615.33795l106.64566 0l0 44.818848l-106.64566 0z"
       id="path55"
       fill-rule="nonzero"
       fill="#ffffff" />
    <path
       d="m251.84662 615.33795l106.64566 0l0 44.818848l-106.64566 0z"
       id="path57"
       stroke-linejoin="round"
       stroke-linecap="butt"
       stroke-width="2.0"
       stroke="#000000"
       fill-rule="nonzero" />
    <path
       d="m251.84662 544.1022l106.64566 0l0 44.81891l-106.64566 0z"
       id="path59"
       fill-rule="nonzero"
       fill="#ffffff" />
    <path
       d="m251.84662 544.1022l106.64566 0l0 44.81891l-106.64566 0z"
       id="path61"
       stroke-linejoin="round"
       stroke-linecap="butt"
       stroke-width="2.0"
       stroke="#000000"
       fill-rule="nonzero" />
    <path
       d="m251.84662 689.47974l106.64566 0l0 44.81891l-106.64566 0z"
       id="path63"
       fill-rule="nonzero"
       fill="#ffffff" />
    <path
       d="m251.84662 689.47974l106.64566 0l0 44.81891l-106.64566 0z"
       id="path65"
       stroke-linejoin="round"
       stroke-linecap="butt"
       stroke-width="2.0"
       stroke="#000000"
       fill-rule="nonzero" />
    <path
       d="m6.361959 517.22833l24.88189 0"
       id="path67"
       fill-rule="nonzero"
       fill-opacity="0.0"
       fill="#000000" />
    <path
       d="m6.361959 517.22833l24.88189 0"
       id="path69"
       stroke-linejoin="round"
       stroke-linecap="butt"
       stroke-width="2.0"
       stroke="#000000"
       fill-rule="nonzero" />
    <path
       d="m6.361959 569.0379l24.88189 0"
       id="path71"
       fill-rule="nonzero"
       fill-opacity="0.0"
       fill="#000000" />
    <path
       d="m6.361959 569.0379l24.88189 0"
       id="path73"
       stroke-linejoin="round"
       stroke-linecap="butt"
       stroke-width="2.0"
       stroke="#000000"
       fill-rule="nonzero" />
    <path
       d="m6.361959 616.8954l24.88189 0"
       id="path75"
       fill-rule="nonzero"
       fill-opacity="0.0"
       fill="#000000" />
    <path
       d="m6.361959 616.8954l24.88189 0"
       id="path77"
       stroke-linejoin="round"
       stroke-linecap="butt"
       stroke-width="2.0"
       stroke="#000000"
       fill-rule="nonzero" />
    <path
       d="m6.361959 673.9764l25.637794 0"
       id="path79"
       fill-rule="nonzero"
       fill-opacity="0.0"
       fill="#000000" />
    <path
       d="m6.361959 673.9764l25.637794 0"
       id="path81"
       stroke-linejoin="round"
       stroke-linecap="butt"
       stroke-width="2.0"
       stroke="#000000"
       fill-rule="nonzero" />
    <path
       d="m31.85023 423.8084l304.1575 0l0 337.66925l-304.1575 0z"
       id="path83"
       fill-rule="nonzero"
       fill="#ffffff" />
    <path
       d="m31.85023 423.8084l304.1575 0l0 337.66925l-304.1575 0z"
       id="path85"
       stroke-linejoin="round"
       stroke-linecap="butt"
       stroke-width="2.0"
       stroke="#000000"
       fill-rule="nonzero" />
    <path
       d="m56.01132 0.9422572l256.59842 0l0 800.0315l-256.59842 0z"
       id="path87"
       fill-rule="nonzero"
       fill="#ffffff" />
    <path
       d="m56.01132 0.9422572l256.59842 0l0 800.0315l-256.59842 0z"
       id="path89"
       stroke-linejoin="round"
       stroke-linecap="butt"
       stroke-width="2.0"
       stroke="#000000"
       fill-rule="nonzero" />
    <path
       d="m289.4042 31.199474l0 315.65356l-67.55907 0l0 -315.65356z"
       id="path91"
       fill-rule="nonzero"
       fill-opacity="0.0"
       fill="#000000" />
    <path
       d="m 289.36218,31.2415 0,343.16914 -67.47503,0 0,-343.16914 z"
       id="path93"
       inkscape:connector-curvature="0"
       style="fill-rule:nonzero;stroke:#000000;stroke-width:2.08405161;stroke-linecap:butt;stroke-linejoin:round" />
  </g>
  <g
     transform="matrix(0,1,-1,0,0,6)"
     style="font-style:normal;font-weight:normal;font-size:40px;line-height:125%;font-family:sans-serif;letter-spacing:0px;word-spacing:0px;fill:#000000;fill-opacity:1;stroke:none;stroke-width:1px;stroke-linecap:butt;stroke-linejoin:miter;stroke-opacity:1"
     id="text4229">
    <path
       d="m 42.901112,-240.58057 0,-29.7229 6.300048,0 0,2.36451 -3.443603,0 0,24.99389 3.443603,0 0,2.3645 -6.300048,0 z"
       style="font-style:normal;font-variant:normal;font-weight:normal;font-stretch:normal;font-size:32.5px;font-family:Arial;-inkscape-font-specification:Arial;letter-spacing:-0.31px"
       id="path4234"
       inkscape:connector-curvature="0" />
    <path
       d="m 55.874558,-245.03931 0,-23.26416 3.157959,0 12.219239,18.26538 0,-18.26538 2.95166,0 0,23.26416 -3.157959,0 -12.219238,-18.28125 0,18.28125 -2.951661,0 z"
       style="font-style:normal;font-variant:normal;font-weight:normal;font-stretch:normal;font-size:32.5px;font-family:Arial;-inkscape-font-specification:Arial;letter-spacing:-0.31px"
       id="path4236"
       inkscape:connector-curvature="0" />
    <path
       d="m 94.348738,-268.30347 3.078613,0 0,13.44117 q 0,3.50708 -0.793457,5.57006 -0.793457,2.06299 -2.872314,3.36426 -2.062989,1.2854 -5.427247,1.2854 -3.269043,0 -5.3479,-1.12671 -2.078857,-1.12671 -2.967529,-3.25317 -0.888672,-2.14233 -0.888672,-5.83984 l 0,-13.44117 3.078613,0 0,13.4253 q 0,3.031 0.55542,4.47509 0.571289,1.42823 1.936035,2.20581 1.380615,0.77759 3.364258,0.77759 3.395996,0 4.840088,-1.5393 1.444092,-1.53931 1.444092,-5.91919 l 0,-13.4253 z"
       style="font-style:normal;font-variant:normal;font-weight:normal;font-stretch:normal;font-size:32.5px;font-family:Arial;-inkscape-font-specification:Arial;letter-spacing:-0.31px"
       id="path4238"
       inkscape:connector-curvature="0" />
    <path
       d="m 102.16374,-245.03931 0,-23.26416 4.63379,0 5.50659,16.47217 q 0.76172,2.30103 1.11084,3.4436 0.39673,-1.26953 1.23779,-3.72924 l 5.57007,-16.18653 4.14185,0 0,23.26416 -2.96753,0 0,-19.47143 -6.76026,19.47143 -2.7771,0 -6.72851,-19.80468 0,19.80468 -2.96753,0 z"
       style="font-style:normal;font-variant:normal;font-weight:normal;font-stretch:normal;font-size:32.5px;font-family:Arial;-inkscape-font-specification:Arial;letter-spacing:-0.31px"
       id="path4240"
       inkscape:connector-curvature="0" />
    <path
       d="m 129.11692,-245.03931 0,-23.26416 16.82129,0 0,2.74536 -13.74267,0 0,7.12525 12.86987,0 0,2.72949 -12.86987,0 0,7.9187 14.28222,0 0,2.74536 -17.36084,0 z"
       style="font-style:normal;font-variant:normal;font-weight:normal;font-stretch:normal;font-size:32.5px;font-family:Arial;-inkscape-font-specification:Arial;letter-spacing:-0.31px"
       id="path4242"
       inkscape:connector-curvature="0" />
    <path
       d="m 150.50003,-245.03931 0,-23.26416 10.31495,0 q 3.11035,0 4.729,0.63477 1.61865,0.6189 2.58667,2.20581 0.96802,1.58691 0.96802,3.50708 0,2.47559 -1.60279,4.17358 -1.60278,1.698 -4.95117,2.15821 1.22193,0.58715 1.85669,1.15844 1.34888,1.2378 2.55493,3.09449 l 4.04663,6.33178 -3.87207,0 -3.07861,-4.84008 q -1.34888,-2.09473 -2.22168,-3.20557 -0.8728,-1.11084 -1.57104,-1.55518 -0.68238,-0.44433 -1.39649,-0.61889 -0.52368,-0.11109 -1.71387,-0.11109 l -3.57055,0 0,10.33081 -3.07862,0 z m 3.07862,-12.99682 6.61743,0 q 2.11059,0 3.30078,-0.42847 1.19019,-0.44434 1.80908,-1.39648 0.6189,-0.96802 0.6189,-2.09473 0,-1.65039 -1.20606,-2.71362 -1.19018,-1.06324 -3.77685,-1.06324 l -7.36328,0 0,7.69654 z"
       style="font-style:normal;font-variant:normal;font-weight:normal;font-stretch:normal;font-size:32.5px;font-family:Arial;-inkscape-font-specification:Arial;letter-spacing:-0.31px"
       id="path4244"
       inkscape:connector-curvature="0" />
    <path
       d="m 172.69248,-256.36987 q 0,-5.79224 3.11035,-9.06128 3.11035,-3.28491 8.02978,-3.28491 3.22144,0 5.80811,1.5393 2.58667,1.53931 3.93555,4.30054 1.36474,2.74536 1.36474,6.23657 0,3.53882 -1.42822,6.33179 -1.42822,2.79297 -4.04663,4.23706 -2.61841,1.42822 -5.64941,1.42822 -3.28492,0 -5.87159,-1.58691 -2.58667,-1.58692 -3.91967,-4.33228 -1.33301,-2.74536 -1.33301,-5.8081 z m 3.17383,0.0476 q 0,4.20533 2.25341,6.63331 2.26929,2.4121 5.68116,2.4121 3.47534,0 5.71289,-2.44384 2.25342,-2.44385 2.25342,-6.93482 0,-2.84057 -0.96802,-4.95117 -0.95215,-2.12646 -2.80884,-3.28491 -1.84082,-1.17432 -4.14185,-1.17432 -3.26904,0 -5.63354,2.25342 -2.34863,2.23755 -2.34863,7.49023 z"
       style="font-style:normal;font-variant:normal;font-weight:normal;font-stretch:normal;font-size:32.5px;font-family:Arial;-inkscape-font-specification:Arial;letter-spacing:-0.31px"
       id="path4246"
       inkscape:connector-curvature="0" />
    <path
       d="m 206.23874,-252.51367 2.90406,-0.25391 q 0.20629,1.74561 0.95214,2.87232 0.76172,1.11084 2.34864,1.80908 1.58691,0.68237 3.57055,0.68237 1.76148,0 3.11036,-0.52368 1.34887,-0.52368 1.99951,-1.42822 0.6665,-0.92041 0.6665,-1.99951 0,-1.09498 -0.63476,-1.9043 -0.63477,-0.8252 -2.09473,-1.38062 -0.93628,-0.36499 -4.14185,-1.12671 -3.20556,-0.77758 -4.49096,-1.45996 -1.66626,-0.8728 -2.49146,-2.1582 -0.80933,-1.30127 -0.80933,-2.90405 0,-1.76148 0.99976,-3.28491 0.99976,-1.53931 2.91992,-2.33277 1.92017,-0.79346 4.2688,-0.79346 2.58667,0 4.55444,0.84107 1.98365,0.82519 3.04688,2.44385 1.06323,1.61865 1.14258,3.66577 l -2.95166,0.22217 q -0.23804,-2.20581 -1.61865,-3.33252 -1.36475,-1.12671 -4.04664,-1.12671 -2.79296,0 -4.07836,1.03149 -1.26954,1.01563 -1.26954,2.45972 0,1.25366 0.90455,2.06299 0.88867,0.80932 4.63378,1.66626 3.76099,0.84106 5.15747,1.47583 2.03125,0.93628 2.99927,2.38037 0.96802,1.42822 0.96802,3.30078 0,1.85669 -1.06323,3.50708 -1.06323,1.63452 -3.06275,2.55493 -1.98364,0.90454 -4.47509,0.90454 -3.15796,0 -5.3003,-0.92041 -2.12646,-0.92041 -3.34839,-2.76123 -1.20605,-1.85669 -1.26953,-4.18945 z"
       style="font-style:normal;font-variant:normal;font-weight:normal;font-stretch:normal;font-size:32.5px;font-family:Arial;-inkscape-font-specification:Arial;letter-spacing:-0.31px"
       id="path4248"
       inkscape:connector-curvature="0" />
    <path
       d="m 228.74857,-245.03931 0,-23.26416 16.82129,0 0,2.74536 -13.74268,0 0,7.12525 12.86988,0 0,2.72949 -12.86988,0 0,7.9187 14.28223,0 0,2.74536 -17.36084,0 z"
       style="font-style:normal;font-variant:normal;font-weight:normal;font-stretch:normal;font-size:32.5px;font-family:Arial;-inkscape-font-specification:Arial;letter-spacing:-0.31px"
       id="path4250"
       inkscape:connector-curvature="0" />
    <path
       d="m 250.13167,-245.03931 0,-23.26416 10.31494,0 q 3.11035,0 4.72901,0.63477 1.61865,0.6189 2.58667,2.20581 0.96801,1.58691 0.96801,3.50708 0,2.47559 -1.60278,4.17358 -1.60278,1.698 -4.95117,2.15821 1.22192,0.58715 1.85669,1.15844 1.34888,1.2378 2.55493,3.09449 l 4.04663,6.33178 -3.87207,0 -3.07861,-4.84008 q -1.34888,-2.09473 -2.22168,-3.20557 -0.8728,-1.11084 -1.57105,-1.55518 -0.68237,-0.44433 -1.39648,-0.61889 -0.52368,-0.11109 -1.71387,-0.11109 l -3.57055,0 0,10.33081 -3.07862,0 z m 3.07862,-12.99682 6.61743,0 q 2.11059,0 3.30078,-0.42847 1.19018,-0.44434 1.80908,-1.39648 0.6189,-0.96802 0.6189,-2.09473 0,-1.65039 -1.20606,-2.71362 -1.19018,-1.06324 -3.77685,-1.06324 l -7.36328,0 0,7.69654 z"
       style="font-style:normal;font-variant:normal;font-weight:normal;font-stretch:normal;font-size:32.5px;font-family:Arial;-inkscape-font-specification:Arial;letter-spacing:-0.31px"
       id="path4252"
       inkscape:connector-curvature="0" />
    <path
       d="m 273.78408,-245.03931 0,-23.26416 3.07861,0 0,23.26416 -3.07861,0 z"
       style="font-style:normal;font-variant:normal;font-weight:normal;font-stretch:normal;font-size:32.5px;font-family:Arial;-inkscape-font-specification:Arial;letter-spacing:-0.31px"
       id="path4254"
       inkscape:connector-curvature="0" />
    <path
       d="m 279.40914,-245.03931 8.93432,-23.26416 3.31665,0 9.52149,23.26416 -3.50708,0 -2.71362,-7.0459 -9.72779,0 -2.55493,7.0459 -3.26904,0 z m 6.71264,-9.55322 7.88697,0 -2.42798,-6.44287 q -1.11084,-2.93579 -1.65039,-4.82422 -0.44434,2.23755 -1.25366,4.44336 l -2.55494,6.82373 z"
       style="font-style:normal;font-variant:normal;font-weight:normal;font-stretch:normal;font-size:32.5px;font-family:Arial;-inkscape-font-specification:Arial;letter-spacing:-0.31px"
       id="path4256"
       inkscape:connector-curvature="0" />
    <path
       d="m 303.2361,-245.03931 0,-23.26416 3.07862,0 0,20.5188 11.45752,0 0,2.74536 -14.53614,0 z"
       style="font-style:normal;font-variant:normal;font-weight:normal;font-stretch:normal;font-size:32.5px;font-family:Arial;-inkscape-font-specification:Arial;letter-spacing:-0.31px"
       id="path4258"
       inkscape:connector-curvature="0" />
    <path
       d="m 321.20736,-245.03931 0,-23.26416 16.82128,0 0,2.74536 -13.74267,0 0,7.12525 12.86987,0 0,2.72949 -12.86987,0 0,7.9187 14.28223,0 0,2.74536 -17.36084,0 z"
       style="font-style:normal;font-variant:normal;font-weight:normal;font-stretch:normal;font-size:32.5px;font-family:Arial;-inkscape-font-specification:Arial;letter-spacing:-0.31px"
       id="path4260"
       inkscape:connector-curvature="0" />
    <path
       d="m 350.95449,-240.58057 -6.30005,0 0,-2.3645 3.4436,0 0,-24.99389 -3.4436,0 0,-2.36451 6.30005,0 0,29.7229 z"
       style="font-style:normal;font-variant:normal;font-weight:normal;font-stretch:normal;font-size:32.5px;font-family:Arial;-inkscape-font-specification:Arial;letter-spacing:-0.31px"
       id="path4262"
       inkscape:connector-curvature="0" />
  </g>
</svg>
