<?xml version="1.0" encoding="UTF-8" standalone="no"?>
<svg
   xmlns:dc="http://purl.org/dc/elements/1.1/"
   xmlns:cc="http://creativecommons.org/ns#"
   xmlns:rdf="http://www.w3.org/1999/02/22-rdf-syntax-ns#"
   xmlns:svg="http://www.w3.org/2000/svg"
   xmlns="http://www.w3.org/2000/svg"
   xmlns:sodipodi="http://sodipodi.sourceforge.net/DTD/sodipodi-0.dtd"
   xmlns:inkscape="http://www.inkscape.org/namespaces/inkscape"
   version="1.1"
   viewBox="0.0 0.0 1234.0 802.0"
   fill="none"
   stroke="none"
   stroke-linecap="square"
   stroke-miterlimit="10"
   id="svg2"
   inkscape:version="0.91 r13725"
   sodipodi:docname="Bomb.svg">
  <metadata
     id="metadata177">
    <rdf:RDF>
      <cc:Work
         rdf:about="">
        <dc:format>image/svg+xml</dc:format>
        <dc:type
           rdf:resource="http://purl.org/dc/dcmitype/StillImage" />
      </cc:Work>
    </rdf:RDF>
  </metadata>
  <defs
     id="defs175" />
  <sodipodi:namedview
     pagecolor="#ffffff"
     bordercolor="#666666"
     borderopacity="1"
     objecttolerance="10"
     gridtolerance="10"
     guidetolerance="10"
     inkscape:pageopacity="0"
     inkscape:pageshadow="2"
     inkscape:window-width="1920"
     inkscape:window-height="1017"
     id="namedview173"
     showgrid="false"
     inkscape:zoom="0.41601258"
     inkscape:cx="296.72501"
     inkscape:cy="590.56067"
     inkscape:window-x="-8"
     inkscape:window-y="-8"
     inkscape:window-maximized="1"
     inkscape:current-layer="g7" />
  <clipPath
     id="p.0">
    <path
       d="m0 0l1234.0 0l0 802.0l-1234.0 0l0 -802.0z"
       clip-rule="nonzero"
       id="path5" />
  </clipPath>
  <g
     clip-path="url(#p.0)"
     id="g7">
    <path
       fill="#000000"
       fill-opacity="0.0"
       d="m0 0l1234.0 0l0 802.0l-1234.0 0z"
       fill-rule="nonzero"
       id="path9" />
    <path
       fill="#ffffff"
       d="m0 -0.001312336l1232.0 0l0 800.03156l-1232.0 0z"
       fill-rule="nonzero"
       id="path11" />
    <path
       stroke="#000000"
       stroke-width="2.0"
       stroke-linejoin="round"
       stroke-linecap="butt"
       d="m0 -0.001312336l1232.0 0l0 800.03156l-1232.0 0z"
       fill-rule="nonzero"
       id="path13" />
    <path
       fill="#ffffff"
       d="m54.20866 40.560368l348.0 0l0 347.9685l-348.0 0z"
       fill-rule="nonzero"
       id="path15" />
    <path
       fill="#000000"
       fill-opacity="0.0"
       d="m65.2874 46.33619l336.9134 0l0 337.6693l-336.9134 0z"
       fill-rule="nonzero"
       id="path17" />
    <path
       stroke="#000000"
       stroke-width="2.0"
       stroke-linejoin="round"
       stroke-linecap="butt"
       d="m65.2874 46.33619l336.9134 0l0 337.6693l-336.9134 0z"
       fill-rule="nonzero"
       id="path19" />
    <path
       fill="#ffffff"
       d="m81.65092 139.12111l304.189 0l0 208.03148l-304.189 0z"
       fill-rule="nonzero"
       id="path21" />
    <path
       stroke="#000000"
       stroke-width="2.0"
       stroke-linejoin="round"
       stroke-linecap="butt"
       d="m81.65092 139.12111l304.189 0l0 208.03148l-304.189 0z"
       fill-rule="nonzero"
       id="path23" />
    <path
       fill="#000000"
       fill-opacity="0.0"
       d="m89.41207 150.47804l288.78738 0l0 181.6378l-288.78738 0z"
       fill-rule="nonzero"
       id="path25" />
    <path
       fill="#000000"
       d="m114.55576 263.17694l11.8125 -1.0q1.3125 8.625 6.0937576 12.96875q4.78125 4.34375 11.53125 4.34375q8.125 0 13.75 -6.125q5.625 -6.125 5.625 -16.25q0 -9.625015 -5.40625 -15.187515q-5.40625 -5.5625 -14.15625 -5.5625q-5.4375 0 -9.8125 2.46875q-4.375 2.46875 -6.8750076 6.40625l-10.5625 -1.375l8.875 -47.0625l45.562508 0l0 10.75l-36.5625 0l-4.9375 24.625q8.25 -5.75 17.3125 -5.75q12.0 0 20.25 8.3125q8.25 8.3125 8.25 21.375015q0 12.4375 -7.25 21.5q-8.8125 11.125 -24.0625 11.125q-12.5 0 -20.406258 -7.0q-7.90625 -7.0 -9.03125 -18.5625zm77.43751 -29.562515l0 -12.8125l12.8125 0l0 12.8125l-12.8125 0zm0 53.562515l0 -12.8125l12.8125 0l0 12.8125l-12.8125 0zm29.3125 -45.187515q0 -16.25 3.34375 -26.15625q3.34375 -9.90625 9.9375 -15.28125q6.59375 -5.375 16.59375 -5.375q7.3749847 0 12.937485 2.96875q5.5625 2.96875 9.1875 8.5625q3.625 5.59375 5.6875 13.625q2.0625 8.03125 2.0625 21.65625q0 16.125015 -3.3125 26.031265q-3.3125 9.90625 -9.90625 15.3125q-6.59375 5.40625 -16.656235 5.40625q-13.25 0 -20.8125 -9.5q-9.0625 -11.4375 -9.0625 -37.250015zm11.5625 0q0 22.562515 5.28125 30.031265q5.28125 7.46875 13.03125 7.46875q7.7499847 0 13.031235 -7.5q5.28125 -7.5 5.28125 -30.000015q0 -22.625 -5.28125 -30.0625q-5.28125 -7.4375 -13.156235 -7.4375q-7.75 0 -12.375 6.5625q-5.8125 8.375 -5.8125 30.9375zm59.624985 0q0 -16.25 3.34375 -26.15625q3.34375 -9.90625 9.9375 -15.28125q6.59375 -5.375 16.59375 -5.375q7.375 0 12.9375 2.96875q5.5625 2.96875 9.1875 8.5625q3.625 5.59375 5.6875 13.625q2.0625 8.03125 2.0625 21.65625q0 16.125015 -3.3125 26.031265q-3.3125 9.90625 -9.90625 15.3125q-6.59375 5.40625 -16.65625 5.40625q-13.25 0 -20.8125 -9.5q-9.0625 -11.4375 -9.0625 -37.250015zm11.5625 0q0 22.562515 5.28125 30.031265q5.28125 7.46875 13.03125 7.46875q7.75 0 13.03125 -7.5q5.28125 -7.5 5.28125 -30.000015q0 -22.625 -5.28125 -30.0625q-5.28125 -7.4375 -13.15625 -7.4375q-7.75 0 -12.375 6.5625q-5.8125 8.375 -5.8125 30.9375z"
       fill-rule="nonzero"
       id="path27" />
    <path
       fill="#000000"
       fill-opacity="0.0"
       d="m457.3281 422.8664l336.91336 0l0 337.6693l-336.91336 0z"
       fill-rule="nonzero"
       id="path29" />
    <path
       stroke="#000000"
       stroke-width="2.0"
       stroke-linejoin="round"
       stroke-linecap="butt"
       d="m457.3281 422.8664l336.91336 0l0 337.6693l-336.91336 0z"
       fill-rule="nonzero"
       id="path31" />
    <path
       fill="#000000"
       fill-opacity="0.0"
       d="m843.65356 45.708893l336.91333 0l0 337.66928l-336.91333 0z"
       fill-rule="nonzero"
       id="path33" />
    <path
       stroke="#000000"
       stroke-width="2.0"
       stroke-linejoin="round"
       stroke-linecap="butt"
       d="m843.65356 45.708893l336.91333 0l0 337.66928l-336.91333 0z"
       fill-rule="nonzero"
       id="path35" />
    <path
       fill="#000000"
       fill-opacity="0.0"
       d="m183.8924 65.91076l106.64566 0l0 63.401573l-106.64566 0z"
       fill-rule="nonzero"
       id="path37" />
    <path
       stroke="#000000"
       stroke-width="2.0"
       stroke-linejoin="round"
       stroke-linecap="butt"
       d="m183.8924 65.91076l106.64566 0l0 63.401573l-106.64566 0z"
       fill-rule="nonzero"
       id="path39" />
    <path
       fill="#000000"
       fill-opacity="0.0"
       d="m308.15222 97.61155l0 0c0 -17.507866 15.0672 -31.70079 33.653564 -31.70079l0 0c8.925476 0 17.485382 3.3398972 23.79663 9.28495c6.3112793 5.9450455 9.856903 14.00827 9.856903 22.41584l0 0c0 17.507858 -15.0672 31.700783 -33.653534 31.700783l0 0c-18.586365 0 -33.653564 -14.1929245 -33.653564 -31.700783z"
       fill-rule="nonzero"
       id="path41" />
    <path
       stroke="#000000"
       stroke-width="2.0"
       stroke-linejoin="round"
       stroke-linecap="butt"
       d="m308.15222 97.61155l0 0c0 -17.507866 15.0672 -31.70079 33.653564 -31.70079l0 0c8.925476 0 17.485382 3.3398972 23.79663 9.28495c6.3112793 5.9450455 9.856903 14.00827 9.856903 22.41584l0 0c0 17.507858 -15.0672 31.700783 -33.653534 31.700783l0 0c-18.586365 0 -33.653564 -14.1929245 -33.653564 -31.700783z"
       fill-rule="nonzero"
       id="path43" />
    <path
       fill="#000000"
       fill-opacity="0.0"
       d="m183.8924 65.91076l929.5433 0l0 108.44094l-929.5433 0z"
       fill-rule="nonzero"
       id="path45" />
    <path
       fill="#ffffff"
       d="m446.66858 40.343136l346.19043 0l0 350.0563l-346.19043 0z"
       fill-rule="nonzero"
       id="path47" />
    <path
       fill="#000000"
       fill-opacity="0.0"
       d="m457.68973 46.15361l335.1614 0l0 339.6953l-335.1614 0z"
       fill-rule="nonzero"
       id="path49" />
    <path
       stroke="#000000"
       stroke-width="2.0"
       stroke-linejoin="round"
       stroke-linecap="butt"
       d="m457.68973 46.15361l335.1614 0l0 339.6953l-335.1614 0z"
       fill-rule="nonzero"
       id="path51" />
    <path
       fill="#ffffff"
       d="m469.5857 111.94842l224.21387 0l0 236.75061l-224.21387 0z"
       fill-rule="nonzero"
       id="path53" />
    <path
       stroke="#000000"
       stroke-width="2.0"
       stroke-linejoin="round"
       stroke-linecap="butt"
       d="m469.5857 111.94842l224.21387 0l0 236.75061l-224.21387 0z"
       fill-rule="nonzero"
       id="path55" />
    <path
       fill="#000000"
       d="m724.6719 150.9634l46.0271 0l0 197.74635l-46.0271 0z"
       fill-rule="nonzero"
       id="path57" />
    <path
       stroke="#000000"
       stroke-width="2.0"
       stroke-linejoin="round"
       stroke-linecap="butt"
       d="m724.6719 150.9634l46.0271 0l0 197.74635l-46.0271 0z"
       fill-rule="nonzero"
       id="path59" />
    <path
       fill="#ffffff"
       d="m733.9016 81.14038l0 0c0 -8.425842 6.9298096 -15.25634 15.478149 -15.25634l0 0c4.1050415 0 8.041992 1.6073608 10.944702 4.4684753c2.90271 2.8611221 4.5334473 6.7416306 4.5334473 10.787865l0 0c0 8.42585 -6.9298096 15.256348 -15.478149 15.256348l0 0c-8.54834 0 -15.478149 -6.8304977 -15.478149 -15.256348z"
       fill-rule="nonzero"
       id="path61" />
    <path
       stroke="#000000"
       stroke-width="2.0"
       stroke-linejoin="round"
       stroke-linecap="butt"
       d="m733.9016 81.14038l0 0c0 -8.425842 6.9298096 -15.25634 15.478149 -15.25634l0 0c4.1050415 0 8.041992 1.6073608 10.944702 4.4684753c2.90271 2.8611221 4.5334473 6.7416306 4.5334473 10.787865l0 0c0 8.42585 -6.9298096 15.256348 -15.478149 15.256348l0 0c-8.54834 0 -15.478149 -6.8304977 -15.478149 -15.256348z"
       fill-rule="nonzero"
       id="path63" />
    <path
       fill="#ffffff"
       d="m484.02972 230.32394l0 0c0 -55.27986 43.725098 -100.09305 97.66272 -100.09305l0 0c25.901794 0 50.742676 10.545486 69.05798 29.316574c18.315308 18.771088 28.604736 44.23015 28.604736 70.776474l0 0c0 55.279846 -43.725098 100.09305 -97.66272 100.09305l0 0c-53.937622 0 -97.66272 -44.8132 -97.66272 -100.09305z"
       fill-rule="nonzero"
       id="path65" />
    <path
       stroke="#000000"
       stroke-width="2.0"
       stroke-linejoin="round"
       stroke-linecap="butt"
       d="m484.02972 230.32394l0 0c0 -55.27986 43.725098 -100.09305 97.66272 -100.09305l0 0c25.901794 0 50.742676 10.545486 69.05798 29.316574c18.315308 18.771088 28.604736 44.23015 28.604736 70.776474l0 0c0 55.279846 -43.725098 100.09305 -97.66272 100.09305l0 0c-53.937622 0 -97.66272 -44.8132 -97.66272 -100.09305z"
       fill-rule="nonzero"
       id="path67" />
    <path
       fill="#000000"
       fill-opacity="0.0"
       d="m497.82376 194.74829l201.46658 0l0 71.10123l-201.46658 0z"
       fill-rule="nonzero"
       id="path69" />
    <path
       fill="#000000"
       fill-opacity="0.0"
       d="m493.3942 136.91644l176.99606 0l0 186.815l-176.99606 0z"
       fill-rule="nonzero"
       id="path73" />
    <path
       stroke="#000000"
       stroke-width="1.0"
       stroke-linejoin="round"
       stroke-linecap="butt"
       d="m493.3942 136.91644l176.99606 0l0 186.815l-176.99606 0z"
       fill-rule="nonzero"
       id="path75" />
    <path
       fill="#000000"
       fill-opacity="0.0"
       d="m470.25397 113.67552l23.34256 23.19345"
       fill-rule="nonzero"
       id="path77" />
    <path
       stroke="#000000"
       stroke-width="1.0"
       stroke-linejoin="round"
       stroke-linecap="butt"
       d="m470.25397 113.67552l23.34256 23.19345"
       fill-rule="nonzero"
       id="path79" />
    <path
       fill="#000000"
       fill-opacity="0.0"
       d="m670.5952 323.72885l22.966553 24.429169"
       fill-rule="nonzero"
       id="path81" />
    <path
       stroke="#000000"
       stroke-width="1.0"
       stroke-linejoin="round"
       stroke-linecap="butt"
       d="m670.5952 323.72885l22.966553 24.429169"
       fill-rule="nonzero"
       id="path83" />
    <path
       fill="#000000"
       fill-opacity="0.0"
       d="m693.53564 113.67552l-22.527893 23.19345"
       fill-rule="nonzero"
       id="path85" />
    <path
       stroke="#000000"
       stroke-width="1.0"
       stroke-linejoin="round"
       stroke-linecap="butt"
       d="m693.53564 113.67552l-22.527893 23.19345"
       fill-rule="nonzero"
       id="path87" />
    <path
       fill="#000000"
       fill-opacity="0.0"
       d="m493.18918 323.73413l-22.527893 23.19345"
       fill-rule="nonzero"
       id="path89" />
    <path
       stroke="#000000"
       stroke-width="1.0"
       stroke-linejoin="round"
       stroke-linecap="butt"
       d="m493.18918 323.73413l-22.527893 23.19345"
       fill-rule="nonzero"
       id="path91" />
    <path
       fill="#000000"
       fill-opacity="0.0"
       d="m507.53677 99.588875l25.81778 0l0 12.35717l-25.81778 0z"
       fill-rule="nonzero"
       id="path93" />
    <path
       stroke="#000000"
       stroke-width="2.0"
       stroke-linejoin="round"
       stroke-linecap="butt"
       d="m507.53677 99.588875l25.81778 0l0 12.35717l-25.81778 0z"
       fill-rule="nonzero"
       id="path95" />
    <path
       fill="#000000"
       fill-opacity="0.0"
       d="m632.0356 99.588875l25.81781 0l0 12.35717l-25.81781 0z"
       fill-rule="nonzero"
       id="path97" />
    <path
       stroke="#000000"
       stroke-width="2.0"
       stroke-linejoin="round"
       stroke-linecap="butt"
       d="m632.0356 99.588875l25.81781 0l0 12.35717l-25.81781 0z"
       fill-rule="nonzero"
       id="path99" />
    <path
       fill="#000000"
       fill-opacity="0.0"
       d="m536.34155 104.14624l91.77228 0l0 7.794525l-91.77228 0z"
       fill-rule="nonzero"
       id="path101" />
    <path
       stroke="#000000"
       stroke-width="2.0"
       stroke-linejoin="round"
       stroke-linecap="butt"
       d="m536.34155 104.14624l91.77228 0l0 7.794525l-91.77228 0z"
       fill-rule="nonzero"
       id="path103" />
    <path
       fill="#ffffff"
       d="m54.209972 415.29398l348.0 0l0 347.96848l-348.0 0z"
       fill-rule="nonzero"
       id="path105" />
    <path
       fill="#000000"
       fill-opacity="0.0"
       d="m65.28871 421.0698l336.9134 0l0 337.66928l-336.9134 0z"
       fill-rule="nonzero"
       id="path107" />
    <path
       stroke="#000000"
       stroke-width="2.0"
       stroke-linejoin="round"
       stroke-linecap="butt"
       d="m65.28871 421.0698l336.9134 0l0 337.66928l-336.9134 0z"
       fill-rule="nonzero"
       id="path109" />
    <path
       fill="#000000"
       fill-opacity="0.0"
       d="m128.61154 590.35956l52.56694 -52.566895l52.566925 52.566895l-52.566925 52.566956z"
       fill-rule="nonzero"
       id="path111" />
    <path
       stroke="#000000"
       stroke-width="2.0"
       stroke-linejoin="round"
       stroke-linecap="butt"
       d="m128.61154 590.35956l52.56694 -52.566895l52.566925 52.566895l-52.566925 52.566956z"
       fill-rule="nonzero"
       id="path113" />
    <path
       fill="#000000"
       fill-opacity="0.0"
       d="m181.47244 642.4724l52.566925 -52.566895l52.566925 52.566895l-52.566925 52.566956z"
       fill-rule="nonzero"
       id="path115" />
    <path
       stroke="#000000"
       stroke-width="2.0"
       stroke-linejoin="round"
       stroke-linecap="butt"
       d="m181.47244 642.4724l52.566925 -52.566895l52.566925 52.566895l-52.566925 52.566956z"
       fill-rule="nonzero"
       id="path117" />
    <path
       fill="#000000"
       fill-opacity="0.0"
       d="m233.7454 590.35956l52.56694 -52.566895l52.566925 52.566895l-52.566925 52.566956z"
       fill-rule="nonzero"
       id="path119" />
    <path
       stroke="#000000"
       stroke-width="2.0"
       stroke-linejoin="round"
       stroke-linecap="butt"
       d="m233.7454 590.35956l52.56694 -52.566895l52.566925 52.566895l-52.566925 52.566956z"
       fill-rule="nonzero"
       id="path121" />
    <path
       fill="#000000"
       fill-opacity="0.0"
       d="m181.47244 537.33856l52.566925 -52.566895l52.566925 52.566895l-52.566925 52.566956z"
       fill-rule="nonzero"
       id="path123" />
    <path
       stroke="#000000"
       stroke-width="2.0"
       stroke-linejoin="round"
       stroke-linecap="butt"
       d="m181.47244 537.33856l52.566925 -52.566895l52.566925 52.566895l-52.566925 52.566956z"
       fill-rule="nonzero"
       id="path125" />
    <path
       fill="#ffffff"
       d="m342.9444 455.8479l0 0c0 -8.37561 6.966034 -15.165375 15.559082 -15.165375l0 0c4.1264954 0 8.084015 1.5977783 11.001892 4.4418335c2.9179077 2.8440552 4.5571594 6.701416 4.5571594 10.723541l0 0c0 8.37558 -6.966034 15.165344 -15.5590515 15.165344l0 0c-8.593048 0 -15.559082 -6.7897644 -15.559082 -15.165344z"
       fill-rule="nonzero"
       id="path127" />
    <path
       stroke="#000000"
       stroke-width="2.0"
       stroke-linejoin="round"
       stroke-linecap="butt"
       d="m342.9444 455.8479l0 0c0 -8.37561 6.966034 -15.165375 15.559082 -15.165375l0 0c4.1264954 0 8.084015 1.5977783 11.001892 4.4418335c2.9179077 2.8440552 4.5571594 6.701416 4.5571594 10.723541l0 0c0 8.37558 -6.966034 15.165344 -15.5590515 15.165344l0 0c-8.593048 0 -15.559082 -6.7897644 -15.559082 -15.165344z"
       fill-rule="nonzero"
       id="path129" />
    <path
       fill="#ffffff"
       d="m829.4068 419.04724l348.00006 0l0 347.9685l-348.00006 0z"
       fill-rule="nonzero"
       id="path131" />
    <path
       fill="#000000"
       fill-opacity="0.0"
       d="m840.48553 424.82306l336.9134 0l0 337.6693l-336.9134 0z"
       fill-rule="nonzero"
       id="path133" />
    <path
       stroke="#000000"
       stroke-width="2.0"
       stroke-linejoin="round"
       stroke-linecap="butt"
       d="m840.48553 424.82306l336.9134 0l0 337.6693l-336.9134 0z"
       fill-rule="nonzero"
       id="path135" />
    <path
       fill="#ffffff"
       d="m1118.1412 459.60117l0 0c0 -8.37558 6.9660645 -15.165344 15.559082 -15.165344l0 0c4.126465 0 8.083984 1.5977783 11.001953 4.4418335c2.9178467 2.8440552 4.557129 6.701416 4.557129 10.723511l0 0c0 8.37561 -6.9660645 15.165344 -15.559082 15.165344l0 0c-8.593018 0 -15.559082 -6.789734 -15.559082 -15.165344z"
       fill-rule="nonzero"
       id="path137" />
    <path
       stroke="#000000"
       stroke-width="2.0"
       stroke-linejoin="round"
       stroke-linecap="butt"
       d="m1118.1412 459.60117l0 0c0 -8.37558 6.9660645 -15.165344 15.559082 -15.165344l0 0c4.126465 0 8.083984 1.5977783 11.001953 4.4418335c2.9178467 2.8440552 4.557129 6.701416 4.557129 10.723511l0 0c0 8.37561 -6.9660645 15.165344 -15.559082 15.165344l0 0c-8.593018 0 -15.559082 -6.789734 -15.559082 -15.165344z"
       fill-rule="nonzero"
       id="path139" />
    <path
       fill="#000000"
       fill-opacity="0.0"
       d="m882.43304 480.79266l29.165405 0l0 225.7323l-29.165405 0z"
       fill-rule="nonzero"
       id="path141" />
    <path
       stroke="#000000"
       stroke-width="2.0"
       stroke-linejoin="round"
       stroke-linecap="butt"
       d="m882.43304 480.79266l29.165405 0l0 225.7323l-29.165405 0z"
       fill-rule="nonzero"
       id="path143" />
    <path
       fill="#000000"
       fill-opacity="0.0"
       d="m1092.9763 525.6352l29.165405 0l0 178.20471l-29.165405 0z"
       fill-rule="nonzero"
       id="path145" />
    <path
       stroke="#000000"
       stroke-width="2.0"
       stroke-linejoin="round"
       stroke-linecap="butt"
       d="m1092.9763 525.6352l29.165405 0l0 178.20471l-29.165405 0z"
       fill-rule="nonzero"
       id="path147" />
    <path
       fill="#000000"
       fill-opacity="0.0"
       d="m897.0131 513.10205c10.847107 -2.3268433 19.528015 12.0625 30.566956 13.165344c24.493225 2.4470825 49.259216 -2.8534546 73.83197 -1.4094238c11.687805 0.6868286 20.134766 12.744995 31.509216 15.519653c25.011353 6.1013184 50.6969 9.060364 76.183716 12.695557"
       fill-rule="evenodd"
       id="path149" />
    <path
       stroke="#000000"
       stroke-width="2.0"
       stroke-linejoin="round"
       stroke-linecap="butt"
       d="m897.0131 513.10205c10.847107 -2.3268433 19.528015 12.0625 30.566956 13.165344c24.493225 2.4470825 49.259216 -2.8534546 73.83197 -1.4094238c11.687805 0.6868286 20.134766 12.744995 31.509216 15.519653c25.011353 6.1013184 50.6969 9.060364 76.183716 12.695557"
       fill-rule="evenodd"
       id="path151" />
    <path
       fill="#000000"
       fill-opacity="0.0"
       d="m900.7743 549.31165c24.469177 -11.123474 52.59796 13.950012 79.47504 13.637817c23.982666 -0.27856445 49.307068 -7.9002686 71.95282 0c18.92749 6.6031494 43.667603 30.634155 57.84253 16.45929"
       fill-rule="evenodd"
       id="path153" />
    <path
       stroke="#000000"
       stroke-width="2.0"
       stroke-linejoin="round"
       stroke-linecap="butt"
       d="m900.7743 549.31165c24.469177 -11.123474 52.59796 13.950012 79.47504 13.637817c23.982666 -0.27856445 49.307068 -7.9002686 71.95282 0c18.92749 6.6031494 43.667603 30.634155 57.84253 16.45929"
       fill-rule="evenodd"
       id="path155" />
    <path
       fill="#000000"
       fill-opacity="0.0"
       d="m897.4829 582.23114c13.594299 -1.7824097 28.332642 -9.683838 40.91339 -4.2335815c8.545227 3.7019653 7.2301636 21.330505 16.45935 22.57483c30.325989 4.088562 61.216125 -1.6049805 91.70343 -4.2335815c21.870361 -1.8856812 43.415894 7.994751 65.36743 7.994751"
       fill-rule="evenodd"
       id="path157" />
    <path
       stroke="#000000"
       stroke-width="2.0"
       stroke-linejoin="round"
       stroke-linecap="butt"
       d="m897.4829 582.23114c13.594299 -1.7824097 28.332642 -9.683838 40.91339 -4.2335815c8.545227 3.7019653 7.2301636 21.330505 16.45935 22.57483c30.325989 4.088562 61.216125 -1.6049805 91.70343 -4.2335815c21.870361 -1.8856812 43.415894 7.994751 65.36743 7.994751"
       fill-rule="evenodd"
       id="path159" />
    <path
       fill="#000000"
       fill-opacity="0.0"
       d="m896.5407 609.50684c14.410095 -0.9737549 29.280518 -5.961731 43.265076 -2.3516846c11.184204 2.887146 21.443298 9.520508 32.921265 10.816284c22.413086 2.5302124 45.2865 2.3771973 67.246704 7.5249023c11.842651 2.776062 21.626831 5.8234863 29.15747 6.112854c13.792236 0.52996826 29.040283 -7.58667 41.38318 -1.4094238"
       fill-rule="evenodd"
       id="path161" />
    <path
       stroke="#000000"
       stroke-width="2.0"
       stroke-linejoin="round"
       stroke-linecap="butt"
       d="m896.5407 609.50684c14.410095 -0.9737549 29.280518 -5.961731 43.265076 -2.3516846c11.184204 2.887146 21.443298 9.520508 32.921265 10.816284c22.413086 2.5302124 45.2865 2.3771973 67.246704 7.5249023c11.842651 2.776062 21.626831 5.8234863 29.15747 6.112854c13.792236 0.52996826 29.040283 -7.58667 41.38318 -1.4094238"
       fill-rule="evenodd"
       id="path163" />
    <path
       fill="#000000"
       fill-opacity="0.0"
       d="m896.5407 681.4593c9.028687 12.403442 31.701538 12.572632 45.61676 6.112915c10.123169 -4.699402 17.996704 -16.45935 29.15747 -16.45935c9.071655 0 18.350891 1.413208 26.805786 4.7008057c6.3217163 2.45813 4.523987 16.401917 11.286072 16.931763c32.746033 2.565796 66.4223 0.9182739 98.28607 -7.0551147"
       fill-rule="evenodd"
       id="path165" />
    <path
       stroke="#000000"
       stroke-width="2.0"
       stroke-linejoin="round"
       stroke-linecap="butt"
       d="m896.5407 681.4593c9.028687 12.403442 31.701538 12.572632 45.61676 6.112915c10.123169 -4.699402 17.996704 -16.45935 29.15747 -16.45935c9.071655 0 18.350891 1.413208 26.805786 4.7008057c6.3217163 2.45813 4.523987 16.401917 11.286072 16.931763c32.746033 2.565796 66.4223 0.9182739 98.28607 -7.0551147"
       fill-rule="evenodd"
       id="path167" />
    <path
       fill="#000000"
       fill-opacity="0.0"
       d="m901.7139 646.66c46.126038 -8.542603 94.6983 5.857666 139.20209 20.690247c8.912476 2.970459 16.02478 -11.53241 25.393677 -12.225708c14.25708 -1.0549927 28.499268 2.8215332 42.795288 2.8215332"
       fill-rule="evenodd"
       id="path169" />
    <path
       stroke="#000000"
       stroke-width="2.0"
       stroke-linejoin="round"
       stroke-linecap="butt"
       d="m901.7139 646.66c46.126038 -8.542603 94.6983 5.857666 139.20209 20.690247c8.912476 2.970459 16.02478 -11.53241 25.393677 -12.225708c14.25708 -1.0549927 28.499268 2.8215332 42.795288 2.8215332"
       fill-rule="evenodd"
       id="path171" />
    <g
       style="font-style:normal;font-weight:normal;font-size:37.5px;line-height:125%;font-family:sans-serif;letter-spacing:0px;word-spacing:0px;fill:#000000;fill-opacity:1;stroke:none;stroke-width:1px;stroke-linecap:butt;stroke-linejoin:miter;stroke-opacity:1"
       id="text4305">
      <path
         d="m 504.91577,250.26434 0,-36.58203 7.75391,0 0,2.91016 -4.23828,0 0,30.76172 4.23828,0 0,2.91015 -7.75391,0 z"
         style="font-style:normal;font-variant:normal;font-weight:normal;font-stretch:normal;font-size:40px;font-family:Arial;-inkscape-font-specification:Arial;letter-spacing:-2.33999991px"
         id="path4316" />
      <path
         d="m 529.3764,246.31512 0,-25.2539 -9.4336,0 0,-3.37891 22.69531,0 0,3.37891 -9.47265,0 0,25.2539 -3.78906,0 z"
         style="font-style:normal;font-variant:normal;font-weight:normal;font-stretch:normal;font-size:40px;font-family:Arial;-inkscape-font-specification:Arial;letter-spacing:-2.33999991px"
         id="path4318"
         inkscape:connector-curvature="0" />
      <path
         d="m 544.43874,246.31512 0,-28.63281 20.70312,0 0,3.37891 -16.91406,0 0,8.76953 15.83985,0 0,3.35937 -15.83985,0 0,9.7461 17.57813,0 0,3.3789 -21.36719,0 z"
         style="font-style:normal;font-variant:normal;font-weight:normal;font-stretch:normal;font-size:40px;font-family:Arial;-inkscape-font-specification:Arial;letter-spacing:-2.33999991px"
         id="path4320"
         inkscape:connector-curvature="0" />
      <path
         d="m 567.4503,237.11591 3.57422,-0.3125 q 0.25391,2.14843 1.17188,3.53515 0.9375,1.36719 2.89062,2.22656 1.95313,0.83985 4.39453,0.83985 2.16797,0 3.82813,-0.64453 1.66015,-0.64453 2.46093,-1.75782 0.82032,-1.13281 0.82032,-2.46093 0,-1.34766 -0.78125,-2.34375 -0.78125,-1.01563 -2.57813,-1.69922 -1.15234,-0.44922 -5.09765,-1.38672 -3.94532,-0.95703 -5.52735,-1.79688 -2.05078,-1.07421 -3.0664,-2.65625 -0.9961,-1.60156 -0.9961,-3.57421 0,-2.16797 1.23047,-4.04297 1.23047,-1.89453 3.59375,-2.8711 2.36328,-0.97656 5.25391,-0.97656 3.18359,0 5.60547,1.03516 2.4414,1.01562 3.75,3.00781 1.30859,1.99219 1.40625,4.51172 l -3.63282,0.27344 q -0.29297,-2.71485 -1.99218,-4.10157 -1.67969,-1.38672 -4.98047,-1.38672 -3.4375,0 -5.01953,1.26954 -1.5625,1.25 -1.5625,3.02734 0,1.54297 1.11328,2.53906 1.09375,0.9961 5.70312,2.05078 4.62891,1.03516 6.34766,1.81641 2.5,1.15234 3.6914,2.92969 1.19141,1.75781 1.19141,4.0625 0,2.28515 -1.30859,4.3164 -1.3086,2.01172 -3.76953,3.14453 -2.44141,1.11329 -5.50782,1.11329 -3.88672,0 -6.52343,-1.13282 -2.61719,-1.13281 -4.1211,-3.39843 -1.48437,-2.28516 -1.5625,-5.15625 z"
         style="font-style:normal;font-variant:normal;font-weight:normal;font-stretch:normal;font-size:40px;font-family:Arial;-inkscape-font-specification:Arial;letter-spacing:-2.33999991px"
         id="path4322"
         inkscape:connector-curvature="0" />
      <path
         d="m 600.40327,246.31512 0,-25.2539 -9.43359,0 0,-3.37891 22.69531,0 0,3.37891 -9.47265,0 0,25.2539 -3.78907,0 z"
         style="font-style:normal;font-variant:normal;font-weight:normal;font-stretch:normal;font-size:40px;font-family:Arial;-inkscape-font-specification:Arial;letter-spacing:-2.33999991px"
         id="path4324"
         inkscape:connector-curvature="0" />
      <path
         d="m 613.53202,232.36981 q 0,-7.1289 3.82813,-11.15234 3.82812,-4.04297 9.88281,-4.04297 3.96484,0 7.14844,1.89453 3.18359,1.89453 4.84375,5.29297 1.67968,3.37891 1.67968,7.67578 0,4.35547 -1.75781,7.79297 -1.75781,3.4375 -4.98047,5.21484 -3.22265,1.75782 -6.95312,1.75782 -4.04297,0 -7.22657,-1.95313 -3.18359,-1.95312 -4.82421,-5.33203 -1.64063,-3.37891 -1.64063,-7.14844 z m 3.90625,0.0586 q 0,5.17578 2.77344,8.16406 2.79297,2.96875 6.99219,2.96875 4.27734,0 7.03125,-3.00781 2.77343,-3.00782 2.77343,-8.53516 0,-3.49609 -1.1914,-6.09375 -1.17188,-2.61719 -3.45703,-4.04297 -2.26563,-1.44531 -5.09766,-1.44531 -4.02344,0 -6.93359,2.77344 -2.89063,2.7539 -2.89063,9.21875 z"
         style="font-style:normal;font-variant:normal;font-weight:normal;font-stretch:normal;font-size:40px;font-family:Arial;-inkscape-font-specification:Arial;letter-spacing:-2.33999991px"
         id="path4326"
         inkscape:connector-curvature="0" />
      <path
         d="m 657.62155,250.26434 -7.7539,0 0,-2.91015 4.23828,0 0,-30.76172 -4.23828,0 0,-2.91016 7.7539,0 0,36.58203 z"
         style="font-style:normal;font-variant:normal;font-weight:normal;font-stretch:normal;font-size:40px;font-family:Arial;-inkscape-font-specification:Arial;letter-spacing:-2.33999991px"
         id="path4328" />
    </g>
  </g>
</svg>
