<?xml version="1.0" encoding="UTF-8" standalone="no"?>
<svg
   xmlns:dc="http://purl.org/dc/elements/1.1/"
   xmlns:cc="http://creativecommons.org/ns#"
   xmlns:rdf="http://www.w3.org/1999/02/22-rdf-syntax-ns#"
   xmlns:svg="http://www.w3.org/2000/svg"
   xmlns="http://www.w3.org/2000/svg"
   xmlns:sodipodi="http://sodipodi.sourceforge.net/DTD/sodipodi-0.dtd"
   xmlns:inkscape="http://www.inkscape.org/namespaces/inkscape"
   version="1.1"
   viewBox="0.0 0.0 348.0 348.0"
   fill="none"
   stroke="none"
   stroke-linecap="square"
   stroke-miterlimit="10"
   id="svg2"
   inkscape:version="0.91 r13725"
   sodipodi:docname="ButtonComponent.svg">
  <metadata
     id="metadata73">
    <rdf:RDF>
      <cc:Work
         rdf:about="">
        <dc:format>image/svg+xml</dc:format>
        <dc:type
           rdf:resource="http://purl.org/dc/dcmitype/StillImage" />
      </cc:Work>
    </rdf:RDF>
  </metadata>
  <defs
     id="defs71" />
  <sodipodi:namedview
     pagecolor="#ffffff"
     bordercolor="#666666"
     borderopacity="1"
     objecttolerance="10"
     gridtolerance="10"
     guidetolerance="10"
     inkscape:pageopacity="0"
     inkscape:pageshadow="2"
     inkscape:window-width="874"
     inkscape:window-height="593"
     id="namedview69"
     showgrid="false"
     inkscape:zoom="0.67816092"
     inkscape:cx="174"
     inkscape:cy="174"
     inkscape:window-x="0"
     inkscape:window-y="0"
     inkscape:window-maximized="0"
     inkscape:current-layer="g7" />
  <clipPath
     id="p.0">
    <path
       d="m0 0l348.0 0l0 348.0l-348.0 0l0 -348.0z"
       clip-rule="nonzero"
       id="path5" />
  </clipPath>
  <g
     clip-path="url(#p.0)"
     id="g7">
    <path
       fill="#000000"
       fill-opacity="0.0"
       d="m0 0l348.0 0l0 348.0l-348.0 0z"
       fill-rule="nonzero"
       id="path9" />
    <path
       fill="#ffffff"
       d="m-6.0 0l348.0 0l0 347.9685l-348.0 0z"
       fill-rule="nonzero"
       id="path11" />
    <path
       fill="#000000"
       fill-opacity="0.0"
       d="m5.07874 5.7758217l336.9134 0l0 337.6693l-336.9134 0z"
       fill-rule="nonzero"
       id="path13" />
    <path
       stroke="#000000"
       stroke-width="2.0"
       stroke-linejoin="round"
       stroke-linecap="butt"
       d="m5.07874 5.7758217l336.9134 0l0 337.6693l-336.9134 0z"
       fill-rule="nonzero"
       id="path15" />
    <path
       fill="#ffffff"
       d="m17.036913 71.17821l225.38583 0l0 235.33858l-225.38583 0z"
       fill-rule="nonzero"
       id="path17" />
    <path
       stroke="#000000"
       stroke-width="2.0"
       stroke-linejoin="round"
       stroke-linecap="butt"
       d="m17.036913 71.17821l225.38583 0l0 235.33858l-225.38583 0z"
       fill-rule="nonzero"
       id="path19" />
    <path
       fill="#000000"
       d="m273.45645 109.960495l46.2677 0l0 196.56694l-46.2677 0z"
       fill-rule="nonzero"
       id="path21" />
    <path
       stroke="#000000"
       stroke-width="2.0"
       stroke-linejoin="round"
       stroke-linecap="butt"
       d="m273.45645 109.960495l46.2677 0l0 196.56694l-46.2677 0z"
       fill-rule="nonzero"
       id="path23" />
    <path
       fill="#ffffff"
       d="m282.73444 40.553925l0 0c0 -8.375591 6.966034 -15.165352 15.5590515 -15.165352l0 0c4.126526 0 8.084015 1.5977726 11.001923 4.441828c2.9178772 2.844057 4.557129 6.7014217 4.557129 10.723524l0 0c0 8.375595 -6.9660034 15.165356 -15.5590515 15.165356l0 0c-8.593018 0 -15.5590515 -6.7897606 -15.5590515 -15.165356z"
       fill-rule="nonzero"
       id="path25" />
    <path
       stroke="#000000"
       stroke-width="2.0"
       stroke-linejoin="round"
       stroke-linecap="butt"
       d="m282.73444 40.553925l0 0c0 -8.375591 6.966034 -15.165352 15.5590515 -15.165352l0 0c4.126526 0 8.084015 1.5977726 11.001923 4.441828c2.9178772 2.844057 4.557129 6.7014217 4.557129 10.723524l0 0c0 8.375595 -6.9660034 15.165356 -15.5590515 15.165356l0 0c-8.593018 0 -15.5590515 -6.7897606 -15.5590515 -15.165356z"
       fill-rule="nonzero"
       id="path27" />
    <path
       fill="#ffffff"
       d="m31.55643 188.84772l0 0c0 -54.950165 43.953648 -99.49606 98.17323 -99.49606l0 0c26.037155 0 51.00789 10.48259 69.418945 29.141724c18.411057 18.659134 28.754272 43.96634 28.754272 70.35434l0 0c0 54.950165 -43.953644 99.49606 -98.17322 99.49606l0 0c-54.21958 0 -98.17323 -44.5459 -98.17323 -99.49606z"
       fill-rule="nonzero"
       id="path29" />
    <path
       stroke="#000000"
       stroke-width="2.0"
       stroke-linejoin="round"
       stroke-linecap="butt"
       d="m31.55643 188.84772l0 0c0 -54.950165 43.953648 -99.49606 98.17323 -99.49606l0 0c26.037155 0 51.00789 10.48259 69.418945 29.141724c18.411057 18.659134 28.754272 43.96634 28.754272 70.35434l0 0c0 54.950165 -43.953644 99.49606 -98.17322 99.49606l0 0c-54.21958 0 -98.17323 -44.5459 -98.17323 -99.49606z"
       fill-rule="nonzero"
       id="path31" />
    <path
       fill="#000000"
       fill-opacity="0.0"
       d="m45.42257 153.48425l202.51968 0l0 70.67717l-202.51968 0z"
       fill-rule="nonzero"
       id="path33" />
    <path
       fill="#000000"
       fill-opacity="0.0"
       d="m40.969852 95.99732l177.92126 0l0 185.7008l-177.92126 0z"
       fill-rule="nonzero"
       id="path37" />
    <path
       stroke="#000000"
       stroke-width="1.0"
       stroke-linejoin="round"
       stroke-linecap="butt"
       d="m40.969852 95.99732l177.92126 0l0 185.7008l-177.92126 0z"
       fill-rule="nonzero"
       id="path39" />
    <path
       fill="#000000"
       fill-opacity="0.0"
       d="m17.708662 72.89501l23.464567 23.055122"
       fill-rule="nonzero"
       id="path41" />
    <path
       stroke="#000000"
       stroke-width="1.0"
       stroke-linejoin="round"
       stroke-linecap="butt"
       d="m17.708662 72.89501l23.464567 23.055122"
       fill-rule="nonzero"
       id="path43" />
    <path
       fill="#000000"
       fill-opacity="0.0"
       d="m219.0971 281.69553l23.086624 24.283478"
       fill-rule="nonzero"
       id="path45" />
    <path
       stroke="#000000"
       stroke-width="1.0"
       stroke-linejoin="round"
       stroke-linecap="butt"
       d="m219.0971 281.69553l23.086624 24.283478"
       fill-rule="nonzero"
       id="path47" />
    <path
       fill="#000000"
       fill-opacity="0.0"
       d="m242.15749 72.89501l-22.645676 23.055122"
       fill-rule="nonzero"
       id="path49" />
    <path
       stroke="#000000"
       stroke-width="1.0"
       stroke-linejoin="round"
       stroke-linecap="butt"
       d="m242.15749 72.89501l-22.645676 23.055122"
       fill-rule="nonzero"
       id="path51" />
    <path
       fill="#000000"
       fill-opacity="0.0"
       d="m40.76378 281.70078l-22.64567 23.055145"
       fill-rule="nonzero"
       id="path53" />
    <path
       stroke="#000000"
       stroke-width="1.0"
       stroke-linejoin="round"
       stroke-linecap="butt"
       d="m40.76378 281.70078l-22.64567 23.055145"
       fill-rule="nonzero"
       id="path55" />
    <path
       fill="#000000"
       fill-opacity="0.0"
       d="m55.18635 58.892387l25.952755 0l0 12.283463l-25.952755 0z"
       fill-rule="nonzero"
       id="path57" />
    <path
       stroke="#000000"
       stroke-width="2.0"
       stroke-linejoin="round"
       stroke-linecap="butt"
       d="m55.18635 58.892387l25.952755 0l0 12.283463l-25.952755 0z"
       fill-rule="nonzero"
       id="path59" />
    <path
       fill="#000000"
       fill-opacity="0.0"
       d="m180.33595 58.892387l25.952759 0l0 12.283463l-25.952759 0z"
       fill-rule="nonzero"
       id="path61" />
    <path
       stroke="#000000"
       stroke-width="2.0"
       stroke-linejoin="round"
       stroke-linecap="butt"
       d="m180.33595 58.892387l25.952759 0l0 12.283463l-25.952759 0z"
       fill-rule="nonzero"
       id="path63" />
    <path
       fill="#000000"
       fill-opacity="0.0"
       d="m84.14173 63.422573l92.25196 0l0 7.748028l-92.25196 0z"
       fill-rule="nonzero"
       id="path65" />
    <path
       stroke="#000000"
       stroke-width="2.0"
       stroke-linejoin="round"
       stroke-linecap="butt"
       d="m84.14173 63.422573l92.25196 0l0 7.748028l-92.25196 0z"
       fill-rule="nonzero"
       id="path67" />
    <g
       transform="translate(-452.98052,-46.176715)"
       style="font-style:normal;font-weight:normal;font-size:37.5px;line-height:125%;font-family:sans-serif;letter-spacing:0px;word-spacing:0px;fill:#000000;fill-opacity:1;stroke:none;stroke-width:1px;stroke-linecap:butt;stroke-linejoin:miter;stroke-opacity:1"
       id="text4305">
      <path
         inkscape:connector-curvature="0"
         d="m 504.91577,250.26434 0,-36.58203 7.75391,0 0,2.91016 -4.23828,0 0,30.76172 4.23828,0 0,2.91015 -7.75391,0 z"
         style="font-style:normal;font-variant:normal;font-weight:normal;font-stretch:normal;font-size:40px;font-family:Arial;-inkscape-font-specification:Arial;letter-spacing:-2.33999991px"
         id="path4316" />
      <path
         d="m 529.3764,246.31512 0,-25.2539 -9.4336,0 0,-3.37891 22.69531,0 0,3.37891 -9.47265,0 0,25.2539 -3.78906,0 z"
         style="font-style:normal;font-variant:normal;font-weight:normal;font-stretch:normal;font-size:40px;font-family:Arial;-inkscape-font-specification:Arial;letter-spacing:-2.33999991px"
         id="path4318"
         inkscape:connector-curvature="0" />
      <path
         d="m 544.43874,246.31512 0,-28.63281 20.70312,0 0,3.37891 -16.91406,0 0,8.76953 15.83985,0 0,3.35937 -15.83985,0 0,9.7461 17.57813,0 0,3.3789 -21.36719,0 z"
         style="font-style:normal;font-variant:normal;font-weight:normal;font-stretch:normal;font-size:40px;font-family:Arial;-inkscape-font-specification:Arial;letter-spacing:-2.33999991px"
         id="path4320"
         inkscape:connector-curvature="0" />
      <path
         d="m 567.4503,237.11591 3.57422,-0.3125 q 0.25391,2.14843 1.17188,3.53515 0.9375,1.36719 2.89062,2.22656 1.95313,0.83985 4.39453,0.83985 2.16797,0 3.82813,-0.64453 1.66015,-0.64453 2.46093,-1.75782 0.82032,-1.13281 0.82032,-2.46093 0,-1.34766 -0.78125,-2.34375 -0.78125,-1.01563 -2.57813,-1.69922 -1.15234,-0.44922 -5.09765,-1.38672 -3.94532,-0.95703 -5.52735,-1.79688 -2.05078,-1.07421 -3.0664,-2.65625 -0.9961,-1.60156 -0.9961,-3.57421 0,-2.16797 1.23047,-4.04297 1.23047,-1.89453 3.59375,-2.8711 2.36328,-0.97656 5.25391,-0.97656 3.18359,0 5.60547,1.03516 2.4414,1.01562 3.75,3.00781 1.30859,1.99219 1.40625,4.51172 l -3.63282,0.27344 q -0.29297,-2.71485 -1.99218,-4.10157 -1.67969,-1.38672 -4.98047,-1.38672 -3.4375,0 -5.01953,1.26954 -1.5625,1.25 -1.5625,3.02734 0,1.54297 1.11328,2.53906 1.09375,0.9961 5.70312,2.05078 4.62891,1.03516 6.34766,1.81641 2.5,1.15234 3.6914,2.92969 1.19141,1.75781 1.19141,4.0625 0,2.28515 -1.30859,4.3164 -1.3086,2.01172 -3.76953,3.14453 -2.44141,1.11329 -5.50782,1.11329 -3.88672,0 -6.52343,-1.13282 -2.61719,-1.13281 -4.1211,-3.39843 -1.48437,-2.28516 -1.5625,-5.15625 z"
         style="font-style:normal;font-variant:normal;font-weight:normal;font-stretch:normal;font-size:40px;font-family:Arial;-inkscape-font-specification:Arial;letter-spacing:-2.33999991px"
         id="path4322"
         inkscape:connector-curvature="0" />
      <path
         d="m 600.40327,246.31512 0,-25.2539 -9.43359,0 0,-3.37891 22.69531,0 0,3.37891 -9.47265,0 0,25.2539 -3.78907,0 z"
         style="font-style:normal;font-variant:normal;font-weight:normal;font-stretch:normal;font-size:40px;font-family:Arial;-inkscape-font-specification:Arial;letter-spacing:-2.33999991px"
         id="path4324"
         inkscape:connector-curvature="0" />
      <path
         d="m 613.53202,232.36981 q 0,-7.1289 3.82813,-11.15234 3.82812,-4.04297 9.88281,-4.04297 3.96484,0 7.14844,1.89453 3.18359,1.89453 4.84375,5.29297 1.67968,3.37891 1.67968,7.67578 0,4.35547 -1.75781,7.79297 -1.75781,3.4375 -4.98047,5.21484 -3.22265,1.75782 -6.95312,1.75782 -4.04297,0 -7.22657,-1.95313 -3.18359,-1.95312 -4.82421,-5.33203 -1.64063,-3.37891 -1.64063,-7.14844 z m 3.90625,0.0586 q 0,5.17578 2.77344,8.16406 2.79297,2.96875 6.99219,2.96875 4.27734,0 7.03125,-3.00781 2.77343,-3.00782 2.77343,-8.53516 0,-3.49609 -1.1914,-6.09375 -1.17188,-2.61719 -3.45703,-4.04297 -2.26563,-1.44531 -5.09766,-1.44531 -4.02344,0 -6.93359,2.77344 -2.89063,2.7539 -2.89063,9.21875 z"
         style="font-style:normal;font-variant:normal;font-weight:normal;font-stretch:normal;font-size:40px;font-family:Arial;-inkscape-font-specification:Arial;letter-spacing:-2.33999991px"
         id="path4326"
         inkscape:connector-curvature="0" />
      <path
         inkscape:connector-curvature="0"
         d="m 657.62155,250.26434 -7.7539,0 0,-2.91015 4.23828,0 0,-30.76172 -4.23828,0 0,-2.91016 7.7539,0 0,36.58203 z"
         style="font-style:normal;font-variant:normal;font-weight:normal;font-stretch:normal;font-size:40px;font-family:Arial;-inkscape-font-specification:Arial;letter-spacing:-2.33999991px"
         id="path4328" />
    </g>
  </g>
</svg>
