<?xml version="1.0" encoding="UTF-8" standalone="no"?>
<svg
   xmlns:dc="http://purl.org/dc/elements/1.1/"
   xmlns:cc="http://creativecommons.org/ns#"
   xmlns:rdf="http://www.w3.org/1999/02/22-rdf-syntax-ns#"
   xmlns:svg="http://www.w3.org/2000/svg"
   xmlns="http://www.w3.org/2000/svg"
   xmlns:sodipodi="http://sodipodi.sourceforge.net/DTD/sodipodi-0.dtd"
   xmlns:inkscape="http://www.inkscape.org/namespaces/inkscape"
   version="1.1"
   viewBox="0.0 0.0 348.0 348.0"
   fill="none"
   stroke="none"
   stroke-linecap="square"
   stroke-miterlimit="10"
   id="svg2"
   inkscape:version="0.91 r13725"
   sodipodi:docname="NeedyVentComponent.svg">
  <metadata
     id="metadata97">
    <rdf:RDF>
      <cc:Work
         rdf:about="">
        <dc:format>image/svg+xml</dc:format>
        <dc:type
           rdf:resource="http://purl.org/dc/dcmitype/StillImage" />
      </cc:Work>
    </rdf:RDF>
  </metadata>
  <defs
     id="defs95" />
  <sodipodi:namedview
     pagecolor="#ffffff"
     bordercolor="#666666"
     borderopacity="1"
     objecttolerance="10"
     gridtolerance="10"
     guidetolerance="10"
     inkscape:pageopacity="0"
     inkscape:pageshadow="2"
     inkscape:window-width="1237"
     inkscape:window-height="787"
     id="namedview93"
     showgrid="false"
     inkscape:zoom="0.95906437"
     inkscape:cx="256.25428"
     inkscape:cy="141.46028"
     inkscape:window-x="263"
     inkscape:window-y="98"
     inkscape:window-maximized="0"
     inkscape:current-layer="g7" />
  <clipPath
     id="p.0">
    <path
       d="m0 0l348.0 0l0 348.0l-348.0 0l0 -348.0z"
       clip-rule="nonzero"
       id="path5" />
  </clipPath>
  <g
     clip-path="url(#p.0)"
     id="g7">
    <path
       fill="#000000"
       fill-opacity="0.0"
       d="m0 0l348.0 0l0 348.0l-348.0 0z"
       fill-rule="nonzero"
       id="path9" />
    <path
       fill="#ffffff"
       d="m-6.0 0l354.01575 0l0 347.9685l-354.01575 0z"
       fill-rule="nonzero"
       id="path11" />
    <path
       fill="#000000"
       fill-opacity="0.0"
       d="m5.07874 5.7758217l336.9134 0l0 337.6693l-336.9134 0z"
       fill-rule="nonzero"
       id="path13" />
    <path
       stroke="#000000"
       stroke-width="2.0"
       stroke-linejoin="round"
       stroke-linecap="butt"
       d="m5.07874 5.7758217l336.9134 0l0 337.6693l-336.9134 0z"
       fill-rule="nonzero"
       id="path15" />
    <path
       fill="#000000"
       d="m133.84251 15.666667l74.33072 0l0 56.881886l-74.33072 0z"
       fill-rule="nonzero"
       id="path17" />
    <path
       fill="#ffffff"
       d="m154.53912 44.089794q0 -4.0625 0.828125 -6.53125q0.84375 -2.484375 2.484375 -3.828125q1.65625 -1.34375 4.15625 -1.34375q1.84375 0 3.234375 0.75q1.390625 0.734375 2.296875 2.140625q0.90625 1.390625 1.421875 3.40625q0.515625 2.0 0.515625 5.40625q0 4.03125 -0.828125 6.515625q-0.828125 2.46875 -2.484375 3.828125q-1.640625 1.34375 -4.15625 1.34375q-3.3125 0 -5.203125 -2.375q-2.265625 -2.859375 -2.265625 -9.3125zm2.890625 0q0 5.640625 1.3125 7.515625q1.328125 1.859375 3.265625 1.859375q1.9375 0 3.25 -1.875q1.328125 -1.875 1.328125 -7.5q0 -5.65625 -1.328125 -7.515625q-1.3125 -1.859375 -3.28125 -1.859375q-1.9375 0 -3.09375 1.640625q-1.453125 2.09375 -1.453125 7.734375zm14.90625 0q0 -4.0625 0.828125 -6.53125q0.84375 -2.484375 2.484375 -3.828125q1.65625 -1.34375 4.15625 -1.34375q1.84375 0 3.234375 0.75q1.390625 0.734375 2.296875 2.140625q0.90625 1.390625 1.421875 3.40625q0.515625 2.0 0.515625 5.40625q0 4.03125 -0.828125 6.515625q-0.828125 2.46875 -2.484375 3.828125q-1.640625 1.34375 -4.15625 1.34375q-3.3125 0 -5.203125 -2.375q-2.265625 -2.859375 -2.265625 -9.3125zm2.890625 0q0 5.640625 1.3125 7.515625q1.328125 1.859375 3.265625 1.859375q1.9375 0 3.25 -1.875q1.328125 -1.875 1.328125 -7.5q0 -5.65625 -1.328125 -7.515625q-1.3125 -1.859375 -3.28125 -1.859375q-1.9375 0 -3.09375 1.640625q-1.453125 2.09375 -1.453125 7.734375z"
       fill-rule="nonzero"
       id="path19" />
    <path
       fill="#ffffff"
       d="m15.262467 17.706038l109.88976 0l0 54.83464l-109.88976 0z"
       fill-rule="nonzero"
       id="path21" />
    <path
       stroke="#000000"
       stroke-width="2.0"
       stroke-linejoin="round"
       stroke-linecap="butt"
       d="m15.262467 17.706038l109.88976 0l0 54.83464l-109.88976 0z"
       fill-rule="nonzero"
       id="path23" />
    <path
       fill="#000000"
       fill-opacity="0.0"
       d="m15.262467 72.65354l39.68504 -54.07874"
       fill-rule="nonzero"
       id="path25" />
    <path
       stroke="#000000"
       stroke-width="2.0"
       stroke-linejoin="round"
       stroke-linecap="butt"
       d="m15.262467 72.65354l39.68504 -54.07874"
       fill-rule="nonzero"
       id="path27" />
    <path
       fill="#000000"
       fill-opacity="0.0"
       d="m37.56649 72.65354l39.685043 -54.07874"
       fill-rule="nonzero"
       id="path29" />
    <path
       stroke="#000000"
       stroke-width="2.0"
       stroke-linejoin="round"
       stroke-linecap="butt"
       d="m37.56649 72.65354l39.685043 -54.07874"
       fill-rule="nonzero"
       id="path31" />
    <path
       fill="#000000"
       fill-opacity="0.0"
       d="m59.870514 72.65354l39.685043 -54.07874"
       fill-rule="nonzero"
       id="path33" />
    <path
       stroke="#000000"
       stroke-width="2.0"
       stroke-linejoin="round"
       stroke-linecap="butt"
       d="m59.870514 72.65354l39.685043 -54.07874"
       fill-rule="nonzero"
       id="path35" />
    <path
       fill="#000000"
       fill-opacity="0.0"
       d="m82.17454 72.65354l39.685043 -54.07874"
       fill-rule="nonzero"
       id="path37" />
    <path
       stroke="#000000"
       stroke-width="2.0"
       stroke-linejoin="round"
       stroke-linecap="butt"
       d="m82.17454 72.65354l39.685043 -54.07874"
       fill-rule="nonzero"
       id="path39" />
    <path
       fill="#ffffff"
       d="m32.97638 83.031494l282.04724 0l0 242.36221l-282.04724 0z"
       fill-rule="nonzero"
       id="path41" />
    <path
       stroke="#000000"
       stroke-width="2.0"
       stroke-linejoin="round"
       stroke-linecap="butt"
       d="m32.97638 83.031494l282.04724 0l0 242.36221l-282.04724 0z"
       fill-rule="nonzero"
       id="path43" />
    <path
       fill="#ffffff"
       d="m216.86351 16.633858l109.889755 0l0 54.83465l-109.889755 0z"
       fill-rule="nonzero"
       id="path45" />
    <path
       stroke="#000000"
       stroke-width="2.0"
       stroke-linejoin="round"
       stroke-linecap="butt"
       d="m216.86351 16.633858l109.889755 0l0 54.83465l-109.889755 0z"
       fill-rule="nonzero"
       id="path47" />
    <path
       fill="#000000"
       fill-opacity="0.0"
       d="m216.86351 71.58137l39.685043 -54.078743"
       fill-rule="nonzero"
       id="path49" />
    <path
       stroke="#000000"
       stroke-width="2.0"
       stroke-linejoin="round"
       stroke-linecap="butt"
       d="m216.86351 71.58137l39.685043 -54.078743"
       fill-rule="nonzero"
       id="path51" />
    <path
       fill="#000000"
       fill-opacity="0.0"
       d="m239.16754 71.58137l39.685028 -54.078743"
       fill-rule="nonzero"
       id="path53" />
    <path
       stroke="#000000"
       stroke-width="2.0"
       stroke-linejoin="round"
       stroke-linecap="butt"
       d="m239.16754 71.58137l39.685028 -54.078743"
       fill-rule="nonzero"
       id="path55" />
    <path
       fill="#000000"
       fill-opacity="0.0"
       d="m261.47156 71.58137l39.68506 -54.078743"
       fill-rule="nonzero"
       id="path57" />
    <path
       stroke="#000000"
       stroke-width="2.0"
       stroke-linejoin="round"
       stroke-linecap="butt"
       d="m261.47156 71.58137l39.68506 -54.078743"
       fill-rule="nonzero"
       id="path59" />
    <path
       fill="#000000"
       fill-opacity="0.0"
       d="m283.7756 71.58137l39.685028 -54.078743"
       fill-rule="nonzero"
       id="path61" />
    <path
       stroke="#000000"
       stroke-width="2.0"
       stroke-linejoin="round"
       stroke-linecap="butt"
       d="m283.7756 71.58137l39.685028 -54.078743"
       fill-rule="nonzero"
       id="path63" />
    <path
       d="m44.490814 88.11811l258.99213 0l0 163.93701l-258.99213 0z"
       id="path65"
       fill-rule="nonzero"
       fill="#000000" />
    <path
       fill="#000000"
       fill-opacity="0.0"
       d="m113.77165 267.51697l49.259842 0l0 45.480316l-49.259842 0z"
       fill-rule="nonzero"
       id="path69" />
    <path
       stroke="#000000"
       stroke-width="1.0"
       stroke-linejoin="round"
       stroke-linecap="butt"
       d="m113.77165 267.51697l49.259842 0l0 45.480316l-49.259842 0z"
       fill-rule="nonzero"
       id="path71" />
    <path
       fill="#000000"
       d="m137.47667 294.43695l0 -5.765625l-5.234375 -7.828125l2.1875 0l2.671875 4.09375q0.75 1.15625 1.390625 2.296875q0.609375 -1.0625 1.484375 -2.40625l2.625 -3.984375l2.109375 0l-5.4375 7.828125l0 5.765625l-1.796875 0z"
       fill-rule="nonzero"
       id="path73" />
    <path
       fill="#000000"
       fill-opacity="0.0"
       d="m182.79527 267.51697l49.259842 0l0 45.480316l-49.259842 0z"
       fill-rule="nonzero"
       id="path75" />
    <path
       stroke="#000000"
       stroke-width="1.0"
       stroke-linejoin="round"
       stroke-linecap="butt"
       d="m182.79527 267.51697l49.259842 0l0 45.480316l-49.259842 0z"
       fill-rule="nonzero"
       id="path77" />
    <path
       fill="#000000"
       d="m202.14185 294.43695l0 -13.59375l1.84375 0l7.140625 10.671875l0 -10.671875l1.71875 0l0 13.59375l-1.84375 0l-7.140625 -10.6875l0 10.6875l-1.71875 0z"
       fill-rule="nonzero"
       id="path79" />
    <path
       fill="#ffffff"
       d="m260.08136 270.74014l36.724426 0l0 25.637817l-36.724426 0z"
       fill-rule="nonzero"
       id="path81" />
    <path
       stroke="#000000"
       stroke-width="2.0"
       stroke-linejoin="round"
       stroke-linecap="butt"
       d="m260.08136 270.74014l36.724426 0l0 25.637817l-36.724426 0z"
       fill-rule="nonzero"
       id="path83" />
    <path
       fill="#ffffff"
       d="m265.46457 305.50656l0 0c0 -2.3569946 1.9107056 -4.2677307 4.2677 -4.2677307l0 0c1.131897 0 2.2174072 0.449646 3.0177307 1.25c0.800354 0.800354 1.25 1.8858643 1.25 3.0177307l0 0c0 2.3569946 -1.9107361 4.2677307 -4.2677307 4.2677307l0 0c-2.3569946 0 -4.2677 -1.9107361 -4.2677 -4.2677307z"
       fill-rule="nonzero"
       id="path85" />
    <path
       stroke="#000000"
       stroke-width="2.0"
       stroke-linejoin="round"
       stroke-linecap="butt"
       d="m265.46457 305.50656l0 0c0 -2.3569946 1.9107056 -4.2677307 4.2677 -4.2677307l0 0c1.131897 0 2.2174072 0.449646 3.0177307 1.25c0.800354 0.800354 1.25 1.8858643 1.25 3.0177307l0 0c0 2.3569946 -1.9107361 4.2677307 -4.2677307 4.2677307l0 0c-2.3569946 0 -4.2677 -1.9107361 -4.2677 -4.2677307z"
       fill-rule="nonzero"
       id="path87" />
    <path
       fill="#ffffff"
       d="m282.8084 305.50656l0 0c0 -2.3569946 1.9107056 -4.2677307 4.2677 -4.2677307l0 0c1.1318665 0 2.2173767 0.449646 3.0177307 1.25c0.800354 0.800354 1.25 1.8858643 1.25 3.0177307l0 0c0 2.3569946 -1.9107361 4.2677307 -4.2677307 4.2677307l0 0c-2.3569946 0 -4.2677 -1.9107361 -4.2677 -4.2677307z"
       fill-rule="nonzero"
       id="path89" />
    <path
       stroke="#000000"
       stroke-width="2.0"
       stroke-linejoin="round"
       stroke-linecap="butt"
       d="m282.8084 305.50656l0 0c0 -2.3569946 1.9107056 -4.2677307 4.2677 -4.2677307l0 0c1.1318665 0 2.2173767 0.449646 3.0177307 1.25c0.800354 0.800354 1.25 1.8858643 1.25 3.0177307l0 0c0 2.3569946 -1.9107361 4.2677307 -4.2677307 4.2677307l0 0c-2.3569946 0 -4.2677 -1.9107361 -4.2677 -4.2677307z"
       fill-rule="nonzero"
       id="path91" />
    <g
       style="font-style:normal;font-weight:normal;font-size:40px;line-height:125%;font-family:sans-serif;letter-spacing:0px;word-spacing:0px;fill:#000000;fill-opacity:1;stroke:none;stroke-width:1px;stroke-linecap:butt;stroke-linejoin:miter;stroke-opacity:1"
       id="text4225"
       transform="matrix(0.95,0,0,0.95,12.4265,6.1599152)">
      <path
         d="m 97.257416,142.63251 0,-38.86841 8.238524,0 0,3.09204 -4.50317,0 0,32.68433 4.50317,0 0,3.09204 -8.238524,0 z"
         style="font-style:normal;font-variant:normal;font-weight:normal;font-stretch:normal;font-size:42.5px;font-family:Arial;-inkscape-font-specification:Arial;fill:#ffffff;fill-opacity:1"
         id="path4245"
         inkscape:connector-curvature="0" />
      <path
         d="m 128.21933,136.18646 0,-26.83227 -10.02319,0 0,-3.59009 24.11377,0 0,3.59009 -10.0647,0 0,26.83227 -4.02588,0 z"
         style="font-style:normal;font-variant:normal;font-weight:normal;font-stretch:normal;font-size:42.5px;font-family:Arial;-inkscape-font-specification:Arial;fill:#ffffff;fill-opacity:1"
         id="path4247"
         inkscape:connector-curvature="0" />
      <path
         d="m 156.50424,129.08929 3.85987,0.4773 q -0.91309,3.38257 -3.38257,5.25024 -2.46949,1.86768 -6.3086,1.86768 -4.8352,0 -7.67822,-2.96753 -2.82227,-2.98828 -2.82227,-8.36304 0,-5.56152 2.86377,-8.63281 2.86377,-3.07129 7.4292,-3.07129 4.42017,0 7.22168,3.00903 2.80152,3.00904 2.80152,8.4668 0,0.33203 -0.0208,0.9961 l -16.43554,0 q 0.20752,3.63159 2.05444,5.56152 1.84693,1.92993 4.60694,1.92993 2.05444,0 3.50708,-1.0791 1.45263,-1.0791 2.30346,-3.44483 z m -12.2644,-6.03881 12.30591,0 q -0.24903,-2.78077 -1.41114,-4.17115 -1.78466,-2.1582 -4.62768,-2.1582 -2.57324,0 -4.33716,1.72241 -1.74316,1.72241 -1.92993,4.60694 z"
         style="font-style:normal;font-variant:normal;font-weight:normal;font-stretch:normal;font-size:42.5px;font-family:Arial;-inkscape-font-specification:Arial;fill:#ffffff;fill-opacity:1"
         id="path4249"
         inkscape:connector-curvature="0" />
      <path
         d="m 163.58066,129.60809 3.69385,-0.58105 q 0.31127,2.22046 1.72241,3.40332 1.43188,1.18286 3.98437,1.18286 2.57324,0 3.81836,-1.0376 1.24512,-1.05835 1.24512,-2.46948 0,-1.26587 -1.09985,-1.99219 -0.76783,-0.49804 -3.81836,-1.26587 -4.10889,-1.03759 -5.70679,-1.78466 -1.57715,-0.76783 -2.40723,-2.09595 -0.80932,-1.34888 -0.80932,-2.96753 0,-1.47339 0.66406,-2.71851 0.68481,-1.26587 1.84692,-2.09594 0.87158,-0.64331 2.36573,-1.07911 1.51489,-0.45654 3.2373,-0.45654 2.59399,0 4.54468,0.74707 1.97143,0.74707 2.90527,2.03369 0.93384,1.26587 1.28662,3.40332 l -3.65234,0.49805 q -0.24902,-1.70166 -1.45264,-2.65625 -1.18286,-0.95459 -3.36181,-0.95459 -2.57325,0 -3.6731,0.85083 -1.09985,0.85083 -1.09985,1.99219 0,0.72632 0.45654,1.30737 0.45654,0.60181 1.43188,0.99609 0.56031,0.20752 3.29956,0.95459 3.96363,1.05835 5.52002,1.74317 1.57715,0.66406 2.46949,1.95068 0.89233,1.28662 0.89233,3.1958 0,1.86768 -1.09985,3.52784 -1.0791,1.6394 -3.13355,2.55249 -2.05444,0.89233 -4.64844,0.89233 -4.29565,0 -6.55761,-1.78467 -2.24121,-1.78467 -2.86377,-5.29175 z"
         style="font-style:normal;font-variant:normal;font-weight:normal;font-stretch:normal;font-size:42.5px;font-family:Arial;-inkscape-font-specification:Arial;fill:#ffffff;fill-opacity:1"
         id="path4251"
         inkscape:connector-curvature="0" />
      <path
         d="m 194.48032,132.8454 0.53955,3.29956 q -1.57715,0.33203 -2.82227,0.33203 -2.03369,0 -3.1543,-0.64331 -1.1206,-0.64331 -1.57714,-1.68091 -0.45655,-1.05835 -0.45655,-4.42017 l 0,-12.67944 -2.73925,0 0,-2.90527 2.73925,0 0,-5.45777 3.7146,-2.24121 0,7.69898 3.75611,0 0,2.90527 -3.75611,0 0,12.88696 q 0,1.5979 0.18677,2.05445 0.20752,0.45654 0.64331,0.72632 0.45654,0.26977 1.28662,0.26977 0.62256,0 1.63941,-0.14526 z"
         style="font-style:normal;font-variant:normal;font-weight:normal;font-stretch:normal;font-size:42.5px;font-family:Arial;-inkscape-font-specification:Arial;fill:#ffffff;fill-opacity:1"
         id="path4253"
         inkscape:connector-curvature="0" />
      <path
         d="m 196.72153,125.16718 q 0,-6.12183 3.40332,-9.06861 2.84301,-2.44873 6.93115,-2.44873 4.54468,0 7.4292,2.98828 2.88452,2.96753 2.88452,8.21778 0,4.25415 -1.28662,6.70288 -1.26587,2.42798 -3.7146,3.77685 -2.42798,1.34888 -5.3125,1.34888 -4.62769,0 -7.49146,-2.96753 -2.84301,-2.96753 -2.84301,-8.5498 z m 3.83911,0 q 0,4.23339 1.84692,6.35009 1.84693,2.09595 4.64844,2.09595 2.78076,0 4.62769,-2.1167 1.84692,-2.1167 1.84692,-6.45386 0,-4.08813 -1.86768,-6.18408 -1.84692,-2.1167 -4.60693,-2.1167 -2.80151,0 -4.64844,2.09595 -1.84692,2.09595 -1.84692,6.32935 z"
         style="font-style:normal;font-variant:normal;font-weight:normal;font-stretch:normal;font-size:42.5px;font-family:Arial;-inkscape-font-specification:Arial;fill:#ffffff;fill-opacity:1"
         id="path4255"
         inkscape:connector-curvature="0" />
      <path
         d="m 239.80258,142.63251 -8.23852,0 0,-3.09204 4.50317,0 0,-32.68433 -4.50317,0 0,-3.09204 8.23852,0 0,38.86841 z"
         style="font-style:normal;font-variant:normal;font-weight:normal;font-stretch:normal;font-size:42.5px;font-family:Arial;-inkscape-font-specification:Arial;fill:#ffffff;fill-opacity:1"
         id="path4257"
         inkscape:connector-curvature="0" />
    </g>
  </g>
</svg>
