<svg xmlns:dc="http://purl.org/dc/elements/1.1/" xmlns:cc="http://creativecommons.org/ns#" xmlns:rdf="http://www.w3.org/1999/02/22-rdf-syntax-ns#" xmlns:svg="http://www.w3.org/2000/svg" xmlns="http://www.w3.org/2000/svg" xmlns:sodipodi="http://sodipodi.sourceforge.net/DTD/sodipodi-0.dtd" xmlns:inkscape="http://www.inkscape.org/namespaces/inkscape" version="1.1" viewBox="0 0 604 348" fill="none" stroke="none" stroke-linecap="square" stroke-miterlimit="10" id="svg3336" inkscape:version="0.91" sodipodi:docname="SimonComponent_ColourLegend.svg">
  <metadata id="metadata3415">
    <rdf:RDF>
      <cc:Work rdf:about="">
        <dc:format>
          image/svg+xml
        </dc:format>
        <dc:type rdf:resource="http://purl.org/dc/dcmitype/StillImage"/>
      </cc:Work>
    </rdf:RDF>
  </metadata>
  <defs id="defs3413"/>
  <sodipodi:namedview pagecolor="#ffffff" bordercolor="#666666" borderopacity="1" objecttolerance="10" gridtolerance="10" guidetolerance="10" inkscape:pageopacity="0" inkscape:pageshadow="2" inkscape:window-width="1366" inkscape:window-height="705" id="namedview3411" showgrid="false" inkscape:zoom="1.54" inkscape:cx="300.61" inkscape:cy="197.67" inkscape:window-x="-8" inkscape:window-y="-8" inkscape:window-maximized="1" inkscape:current-layer="layer1"/>
  <clipPath id="p.0">
    <path d="m0 0l604 0 0 348 -604 0 0-348z" clip-rule="nonzero" id="path3339"/>
  </clipPath>
  <g clip-path="url(#p.0)" id="g3341">
    <path fill="#000000" fill-opacity="0" d="m0 0l604 0 0 348 -604 0z" fill-rule="nonzero" id="path3343"/>
    <path fill="#ffffff" d="m114.36 0l357.29 0 0 347.97 -357.29 0z" fill-rule="nonzero" id="path3345"/>
    <path fill="#000000" fill-opacity="0" d="m125.44 5.78l336.91 0 0 337.67 -336.91 0z" fill-rule="nonzero" id="path3347"/>
    <path stroke="#000000" stroke-width="2" stroke-linejoin="round" stroke-linecap="butt" d="m125.44 5.78l336.91 0 0 337.67 -336.91 0z" fill-rule="nonzero" id="path3349"/>
    <path fill="#ffffff" d="m403.09 40.55l0 0c0-8.38 6.97-15.17 15.56-15.17l0 0c4.13 0 8.08 1.6 11 4.44 2.92 2.84 4.56 6.7 4.56 10.72l0 0c0 8.38-6.97 15.17-15.56 15.17l0 0c-8.59 0-15.56-6.79-15.56-15.17z" fill-rule="nonzero" id="path3351"/>
    <path stroke="#000000" stroke-width="2" stroke-linejoin="round" stroke-linecap="butt" d="m403.09 40.55l0 0c0-8.38 6.97-15.17 15.56-15.17l0 0c4.13 0 8.08 1.6 11 4.44 2.92 2.84 4.56 6.7 4.56 10.72l0 0c0 8.38-6.97 15.17-15.56 15.17l0 0c-8.59 0-15.56-6.79-15.56-15.17z" fill-rule="nonzero" id="path3353"/>
    <path fill="#000000" fill-opacity="0" d="m241.62 122.04l52.57-52.57 52.57 52.57 -52.57 52.57z" fill-rule="nonzero" id="path3355"/>
    <path stroke="#000000" stroke-width="2" stroke-linejoin="round" stroke-linecap="butt" d="m241.62 122.04l52.57-52.57 52.57 52.57 -52.57 52.57z" fill-rule="nonzero" id="path3357"/>
    <path fill="#000000" fill-opacity="0" d="m188.76 175.07l52.57-52.57 52.57 52.57 -52.57 52.57z" fill-rule="nonzero" id="path3359"/>
    <path stroke="#000000" stroke-width="2" stroke-linejoin="round" stroke-linecap="butt" d="m188.76 175.07l52.57-52.57 52.57 52.57 -52.57 52.57z" fill-rule="nonzero" id="path3361"/>
    <path fill="#000000" fill-opacity="0" d="m241.62 227.18l52.57-52.57 52.57 52.57 -52.57 52.57z" fill-rule="nonzero" id="path3363"/>
    <path stroke="#000000" stroke-width="2" stroke-linejoin="round" stroke-linecap="butt" d="m241.62 227.18l52.57-52.57 52.57 52.57 -52.57 52.57z" fill-rule="nonzero" id="path3365"/>
    <path fill="#000000" fill-opacity="0" d="m293.9 175.07l52.57-52.57 52.57 52.57 -52.57 52.57z" fill-rule="nonzero" id="path3367"/>
    <path stroke="#000000" stroke-width="2" stroke-linejoin="round" stroke-linecap="butt" d="m293.9 175.07l52.57-52.57 52.57 52.57 -52.57 52.57z" fill-rule="nonzero" id="path3369"/>
    <path fill="#000000" fill-opacity="0" d="m478.65 60.89l95.87 0 0 61.61 -95.87 0z" fill-rule="nonzero" id="path3371"/>
    <path fill="#000000" fill-opacity="0" d="m478.65 143.81l140.35 0 0 61.61 -140.35 0z" fill-rule="nonzero" id="path3375"/>
    <path fill="#000000" fill-opacity="0" d="m2.23 142.37l105.13 0 0 65.39 -105.13 0z" fill-rule="nonzero" id="path3379"/>
    <path fill="#000000" fill-opacity="0" d="m-5 223.63l113.35 0 0 65.39 -113.35 0z" fill-rule="nonzero" id="path3383"/>
    <path fill="#000000" fill-opacity="0" d="m108.35 256.33l154.65 0" fill-rule="nonzero" id="path3387"/>
    <path stroke="#000000" stroke-width="2" stroke-linejoin="round" stroke-linecap="butt" d="m108.35 256.33l142.65 0" fill-rule="evenodd" id="path3389"/>
    <path fill="#000000" stroke="#000000" stroke-width="2" stroke-linecap="butt" d="m251 259.63l9.08-3.3 -9.08-3.3z" fill-rule="evenodd" id="path3391"/>
    <path fill="#000000" fill-opacity="0" d="m478.65 91.7l-146.43 0" fill-rule="nonzero" id="path3393"/>
    <path stroke="#000000" stroke-width="2" stroke-linejoin="round" stroke-linecap="butt" d="m478.65 91.7l-134.43 0" fill-rule="evenodd" id="path3395"/>
    <path fill="#000000" stroke="#000000" stroke-width="2" stroke-linecap="butt" d="m344.23 88.39l-9.08 3.3 9.08 3.3z" fill-rule="evenodd" id="path3397"/>
    <path fill="#000000" fill-opacity="0" d="m478.65 174.61l-68.47 0" fill-rule="nonzero" id="path3399"/>
    <path stroke="#000000" stroke-width="2" stroke-linejoin="round" stroke-linecap="butt" d="m478.65 174.61l-56.47 0" fill-rule="evenodd" id="path3401"/>
    <path fill="#000000" stroke="#000000" stroke-width="2" stroke-linecap="butt" d="m422.18 171.31l-9.08 3.3 9.08 3.3z" fill-rule="evenodd" id="path3403"/>
    <path fill="#000000" fill-opacity="0" d="m107.36 175.07l72.19 0" fill-rule="nonzero" id="path3405"/>
    <path stroke="#000000" stroke-width="2" stroke-linejoin="round" stroke-linecap="butt" d="m107.36 175.07l60.19 0" fill-rule="evenodd" id="path3407"/>
    <path fill="#000000" stroke="#000000" stroke-width="2" stroke-linecap="butt" d="m167.55 178.37l9.08-3.3 -9.08-3.3z" fill-rule="evenodd" id="path3409"/>
  </g>
  <g inkscape:groupmode="layer" id="layer1" inkscape:label="Layer 1" display="inline">
    <g id="text3418" style="fill:#000;font-family:sans-serif;font-size:40;letter-spacing:0;line-height:125;word-spacing:0">
      <path d="m505 93.42q0 0.11 0 0.3 0.02 0.17 0 0.36 0 0.17-0.03 0.33-0.02 0.14-0.08 0.21-0.14 0.14-0.3 0.19-0.16 0.03-0.33 0.05-0.16 0-0.33 0.03-0.16 0.02-0.32 0.11 0.03 0.16 0.14 0.21 0.13 0.03 0.25 0.06 0.14 0.02 0.24 0.1 0.11 0.06 0.11 0.27 0 0.33-0.11 0.56-0.1 0.21-0.24 0.38-0.14 0.16-0.29 0.33-0.14 0.17-0.22 0.44-0.1 0.29-0.24 0.41-0.14 0.13-0.32 0.21-0.16 0.06-0.33 0.14-0.17 0.08-0.33 0.29-0.17 0.19-0.29 0.19-0.05 0-0.11-0.02-0.06-0.02-0.16-0.02-0.08 0-0.16 0.06-0.06 0.05-0.06 0.13 0 0.03 0.03 0.03 0.03 0 0.02 0.02-0.19 0.17-0.68 0.41-0.49 0.22-1.13 0.43-0.63 0.19-1.33 0.33-0.68 0.13-1.3 0.13-1.08 0-2.14-0.06-1.05-0.05-2.14-0.05l-2.11 0q-0.05 0-0.14 0.1-0.08 0.1-0.19 0.1-0.17 0-0.46-0.05-0.27-0.05-0.54-0.16-0.27-0.11-0.48-0.27-0.19-0.17-0.19-0.4 0-0.08 0.02-0.13 0.02-0.06 0.03-0.14 0.14-0.44 0.4-0.67 0.25-0.24 0.54-0.4 0.3-0.17 0.6-0.35 0.32-0.17 0.56-0.49 0.25-0.32 0.41-0.86 0.16-0.54 0.16-1.44 0-0.83-0.11-1.63-0.1-0.81-0.1-1.63 0.02-1.52 0.06-3.02 0.06-1.49 0.08-3.02l0.02-2.49q0-0.4-0.03-0.92-0.02-0.52-0.16-1-0.13-0.49-0.43-0.83-0.29-0.35-0.83-0.4-0.27-0.02-0.62-0.14-0.35-0.13-0.67-0.33-0.3-0.22-0.52-0.49-0.22-0.27-0.22-0.59 0-0.27 0.16-0.44 0.16-0.19 0.38-0.3 0.22-0.13 0.48-0.17 0.27-0.06 0.49-0.06 0.51 0 1 0.11 0.49 0.1 1.02 0.1 0.65 0 1.3-0.06 0.67-0.06 1.32-0.14 0.65-0.1 1.3-0.16 0.67-0.06 1.33-0.06 0.56 0 1.11 0.05 0.56 0.03 1.11 0.06 0.1 0.13 0.33 0.21 0.24 0.08 0.51 0.14 0.29 0.06 0.56 0.11 0.27 0.03 0.41 0.06 0.38 0.08 0.65 0.17 0.29 0.08 0.48 0.24 0.21 0.14 0.35 0.38 0.16 0.24 0.29 0.62 0.02 0.05 0.14 0.14 0.14 0.1 0.32 0.19 0.17 0.1 0.33 0.19 0.16 0.1 0.22 0.16 0.21 0.21 0.41 0.63 0.22 0.41 0.4 0.89 0.17 0.48 0.29 0.94 0.11 0.46 0.11 0.75 0 0.59-0.17 1.17-0.16 0.59-0.33 1.14-0.11 0.33-0.33 0.63-0.21 0.3-0.41 0.62-0.21 0.3-0.36 0.62-0.14 0.32-0.14 0.67 0 0.49 0.21 0.98 0.21 0.49 0.48 0.9 0.11 0.19 0.25 0.36 0.16 0.17 0.3 0.35 0.16 0.16 0.29 0.35 0.13 0.17 0.22 0.4 0.21 0.51 0.27 1.06 0.06 0.54 0.06 1.08zm-3-9.7q0-0.17-0.05-0.41-0.05-0.24-0.11-0.48-0.06-0.25-0.13-0.49-0.06-0.25-0.1-0.44-0.05-0.24-0.14-0.38-0.1-0.16-0.22-0.25-0.13-0.11-0.29-0.21-0.16-0.11-0.32-0.25-0.4-0.35-0.76-0.56-0.36-0.21-0.76-0.32-0.4-0.11-0.84-0.14-0.44-0.05-0.98-0.05-0.35 0-0.73 0.02-0.36 0.02-0.67 0.1-0.06 0.03-0.08 0.08-0.02 0.05-0.08 0.1-0.05 0.05-0.19 0.1-0.14 0.03-0.44 0.03-0.46 0-0.76 0.13-0.29 0.13-0.46 0.36-0.16 0.22-0.22 0.56-0.06 0.32-0.08 0.73-0.02 0.52-0.03 1.08 0 0.56-0.05 1.11-0.05 0.54-0.17 1.06-0.11 0.52-0.36 1.02 0.89 0.22 1.81 0.35 0.92 0.13 1.81 0.13 0.62 0 1.24-0.05 0.63-0.05 1.24-0.16 0.22-0.05 0.59-0.17 0.38-0.13 0.73-0.32 0.36-0.19 0.63-0.43 0.29-0.24 0.32-0.49 0.03-0.19 0.13-0.35 0.11-0.16 0.22-0.3 0.13-0.16 0.22-0.32 0.1-0.16 0.1-0.36zm0.52 10.6q0-0.41-0.11-0.83-0.1-0.41-0.16-0.83-0.05-0.38-0.1-0.6-0.03-0.22-0.13-0.38-0.08-0.17-0.24-0.33-0.16-0.16-0.46-0.41-0.08-0.35-0.17-0.41-0.08-0.06-0.17-0.06-0.08 0-0.17 0.02-0.08 0-0.16 0l-0.22-0.44q-0.3-0.21-0.54-0.32-0.22-0.11-0.59-0.14-0.32-0.03-0.63-0.13-0.3-0.1-0.63-0.1-0.14 0-0.22 0.11-0.08 0.11-0.13 0.11-0.1 0-0.22-0.03-0.13-0.05-0.27-0.08-0.14-0.05-0.3-0.08-0.14-0.05-0.27-0.05-0.71 0-1.4 0.16-0.67 0.14-1.35 0.32-0.13 0.33-0.25 0.73-0.11 0.4-0.21 0.81-0.1 0.41-0.16 0.83-0.06 0.4-0.06 0.75 0 0.17 0.03 0.29 0.03 0.1 0.08 0.17 0.05 0.08 0.08 0.16 0.03 0.08 0.03 0.19 0 0.63-0.14 1.25-0.13 0.6-0.13 1.24 0 0.41 0.11 0.79 0.11 0.38 0.38 0.7 0.32 0 0.6 0.13 0.29 0.11 0.6 0.11 0.22 0 0.43-0.11 0.22-0.11 0.35-0.11 0.13 0 0.19 0.11 0.08 0.11 0.25 0.11l0.06 0q0.05-0.08 0.17-0.13 0.13-0.06 0.29-0.08 0.17-0.03 0.36-0.03 0.19-0.02 0.37-0.02 0.33 0 0.51 0.02 0.19 0.02 0.43 0.02 0.67-0.14 1.27-0.35 0.51-0.17 1.03-0.44 0.54-0.27 0.84-0.63 0.16-0.16 0.35-0.4 0.21-0.24 0.36-0.49 0.17-0.27 0.29-0.54 0.13-0.29 0.13-0.56z" id="path3435" style="-inkscape-font-specification:'special elite';font-family:'special elite';font-size:32.5"/>
      <path d="m524.03 99.16q0 0.56-0.38 0.87-0.36 0.33-0.89 0.49-0.52 0.17-1.09 0.22-0.56 0.05-0.95 0.05-0.52 0-0.87-0.1-0.33-0.1-0.59-0.21-0.25-0.1-0.44-0.19-0.19-0.1-0.4-0.1-0.27 0-0.54 0.1-0.25 0.1-0.52 0.1-0.19 0-0.32-0.06-0.11-0.06-0.19-0.16-0.08-0.08-0.16-0.14-0.06-0.06-0.16-0.06-0.11 0-0.17 0.08-0.06 0.1-0.14 0.21-0.08 0.11-0.24 0.19-0.14 0.1-0.43 0.1-0.33 0-0.65-0.08-0.32-0.06-0.65-0.06-0.33 0-0.67 0.11-0.32 0.13-0.6 0.13-0.13 0-0.19-0.1-0.06-0.08-0.14-0.08-0.27 0-0.57 0.13-0.29 0.13-0.59 0.13-0.16 0-0.32-0.05-0.14-0.03-0.3-0.03-0.27 0-0.54 0.13-0.27 0.13-0.67 0.13-0.14 0-0.63-0.05-0.48-0.03-0.98-0.11-0.51-0.08-0.92-0.21-0.4-0.11-0.4-0.25 0-0.41 0.14-0.83 0.16-0.41 0.16-0.79l0-0.03q-0.21 0-0.24-0.22 0.03-0.06 0.1-0.1 0.08-0.05 0.16-0.06 0.08-0.03 0.14-0.08 0.06-0.05 0.06-0.14l0-0.06q0.63 0.06 1.24 0.08 0.62 0.02 1.29 0.02 0.62 0 1.36-0.03 0.76-0.05 1.4-0.24 0.65-0.19 1.08-0.57 0.44-0.4 0.44-1.09l0-0.11 0-0.25q-0.08-1.75-0.17-3.43-0.08-1.7-0.08-3.44 0-0.46-0.08-0.89-0.06-0.44-0.06-0.89 0-0.56 0.19-1.11 0.21-0.56 0.63-0.94-0.02-0.1-0.08-0.13-0.06-0.05-0.16-0.06-0.1-0.02-0.19-0.03-0.08-0.02-0.14-0.05-0.1-0.05-0.13-0.22-0.03-0.17-0.06-0.38-0.02-0.21-0.05-0.4-0.02-0.21-0.1-0.32 0.05-0.46 0.16-0.9 0.11-0.44 0.11-0.9 0-0.33-0.1-0.52-0.08-0.19-0.19-0.32-0.11-0.13-0.21-0.22-0.08-0.11-0.08-0.27 0-0.13 0.08-0.24l-0.13-0.02q-0.16 0-0.24 0.08-0.08 0.08-0.16 0.17-0.06 0.1-0.14 0.17-0.08 0.08-0.22 0.08-0.11 0-0.25-0.05-0.27 0.08-0.51 0.08-0.56 0-1.11-0.14-0.54-0.16-1.09-0.16-0.3 0-0.59 0.03-0.29 0.02-0.57 0.02-0.41 0-0.83-0.1-0.41-0.1-0.73-0.41l0-0.19q0-0.84 0.56-1.27 0.57-0.43 1.38-0.43 0.56 0 1.09 0.14 0.54 0.14 1.09 0.14 0.3 0 0.63-0.06 0.33-0.06 0.68-0.14 0.35-0.08 0.7-0.14 0.36-0.06 0.71-0.06 0.54 0 1.02 0.24 0.48 0.22 0.95 0.43l-0.02 0.13q0 0.14 0.06 0.27 0.08 0.11 0.17 0.24 0.1 0.11 0.16 0.24 0.08 0.11 0.08 0.25 0 0.14-0.05 0.29-0.03 0.13-0.03 0.27 0 0.35 0.13 0.67 0.14 0.32 0.14 0.68 0 0.38-0.1 0.75-0.08 0.36-0.08 0.75 0 0.46 0.11 0.92 0.11 0.46 0.11 0.92 0 0.38-0.13 0.75-0.11 0.36-0.11 0.73 0 0.27 0.06 0.54 0.08 0.25 0.17 0.51 0.1 0.25 0.16 0.52 0.08 0.25 0.08 0.54l0 0.32q0 0.25-0.05 0.49-0.03 0.22-0.21 0.43 0.08 0.3 0.16 0.65 0.1 0.35 0.1 0.67 0 0.16-0.03 0.35-0.02 0.17-0.08 0.36-0.05 0.17-0.14 0.33-0.1 0.14-0.22 0.24 0.21 0.6 0.27 1.22 0.06 0.62 0.1 1.24 0.02 0.19 0.06 0.49 0.05 0.3 0.1 0.6 0.05 0.29 0.08 0.54 0.05 0.24 0.05 0.33 0 0.27-0.1 0.52-0.1 0.25-0.1 0.52 0 0.21 0.1 0.44 0.1 0.22 0.35 0.22 0.19 0 0.32-0.08 0.14-0.1 0.3-0.19 0.16-0.11 0.36-0.19 0.22-0.1 0.59-0.1 0.41 0 0.78 0.11 0.36 0.11 0.78 0.11 0.3 0 0.6-0.05 0.32-0.06 0.6-0.13 0.3-0.08 0.6-0.14 0.3-0.06 0.62-0.06 0.63 0 1.06 0.36 0.44 0.36 0.44 1.08zm-9.11-19.76q-0.06-0.06-0.16-0.13-0.08-0.06-0.19-0.06-0.08 0-0.14 0.08-0.05 0.06-0.05 0.14l0.08 0.19q0.06 0.03 0.1 0.03 0.13 0 0.21-0.08 0.1-0.1 0.16-0.17zm0.95 4.41q0-0.13-0.08-0.25-0.06-0.14-0.22-0.14-0.05 0-0.11 0.02-0.05 0.02-0.08 0.03l0 0.68q0.13 0.06 0.19 0.06 0.16 0 0.22-0.13 0.08-0.14 0.08-0.27z" id="path3437" style="-inkscape-font-specification:'special elite';font-family:'special elite';font-size:32.5"/>
      <path d="m543.51 98.99q0 0.29-0.19 0.6-0.17 0.32-0.46 0.57-0.27 0.27-0.59 0.44-0.32 0.17-0.6 0.17-0.49 0-0.97-0.08-0.48-0.08-0.98-0.08-0.24 0-0.56-0.03-0.3-0.03-0.43-0.16-0.36-0.06-0.54-0.29-0.17-0.21-0.32-0.46-0.13-0.25-0.29-0.49-0.14-0.24-0.44-0.33-0.9 0.4-1.6 0.76-0.68 0.36-1.36 0.63-0.67 0.29-1.44 0.44-0.76 0.17-1.82 0.17-0.46 0-0.67-0.05-0.19-0.05-0.3-0.16-0.1-0.1-0.19-0.27-0.08-0.17-0.32-0.43-0.13-0.13-0.25-0.14-0.11-0.03-0.22-0.03l-0.08 0q-0.14 0-0.27-0.05-0.11-0.06-0.17-0.32-0.05-0.19-0.19-0.43-0.14-0.25-0.33-0.51-0.17-0.25-0.36-0.46-0.19-0.21-0.35-0.32l-0.02-1.57q-0.02-1.59 0.1-3.14 0.11-1.56 0.11-3.14 0-0.24-0.02-0.65-0.02-0.43-0.08-0.86-0.05-0.43-0.19-0.76-0.13-0.35-0.36-0.41-0.36-0.08-0.75-0.06-0.36 0-0.73-0.02-0.36-0.02-0.71-0.11-0.33-0.1-0.63-0.41-0.17-0.17-0.33-0.43-0.14-0.25-0.14-0.52 0-0.4 0.33-0.67 0.35-0.29 0.83-0.46 0.48-0.17 0.97-0.25 0.49-0.08 0.79-0.08 0.87 0 1.65 0.27 0.79 0.25 1.44 0.84 0.03 0.03 0.03 0.06 0 0.02-0.02 0.03 0.03 0.46 0.13 0.92 0.1 0.44 0.1 0.9 0 0.25-0.08 0.48-0.06 0.22-0.06 0.49 0 0.27 0.06 0.54 0.06 0.27 0.06 0.54 0 0.17-0.03 0.35-0.03 0.17-0.03 0.35 0 0.49 0.11 0.97 0.11 0.46 0.11 0.95 0 0.43-0.1 0.84-0.1 0.4-0.22 0.81-0.11 0.41-0.21 0.83-0.1 0.4-0.1 0.83 0 0.59 0.24 1.09 0.24 0.51 0.63 0.89 0.4 0.36 0.9 0.59 0.52 0.21 1.09 0.21 0.49 0 0.79-0.1 0.32-0.11 0.51-0.24 0.19-0.13 0.3-0.22 0.13-0.11 0.25-0.11 0.13 0 0.22 0.03 0.11 0.02 0.22 0.02 0.22 0 0.36-0.1 0.14-0.1 0.25-0.22 0.13-0.13 0.24-0.24 0.13-0.13 0.32-0.17 0.36-0.08 0.63-0.21 0.27-0.14 0.27-0.57 0-0.08 0.02-0.14 0.03-0.06 0.16-0.06 0.08 0 0.11 0.05 0.05 0.03 0.13 0.06 0.08-0.06 0.11-0.17 0.03-0.11 0.06-0.19 0.08-0.29 0.29-0.51 0.22-0.22 0.25-0.51 0.03-0.32 0.16-0.59 0.13-0.27 0.13-0.57 0-0.27-0.14-0.48-0.14-0.21-0.14-0.49 0-0.32 0.11-0.63 0.13-0.32 0.13-0.63-0.1-0.13-0.19-0.29-0.08-0.16-0.08-0.32 0-0.27 0.1-0.35 0.1-0.1 0.1-0.19 0-0.14-0.08-0.29-0.06-0.16-0.16-0.3-0.1-0.14-0.17-0.29-0.06-0.14-0.06-0.3 0-0.16 0.05-0.3 0.06-0.16 0.06-0.33 0-0.25-0.13-0.44-0.11-0.21-0.3-0.33-0.17-0.14-0.41-0.21-0.22-0.08-0.44-0.11-0.4-0.05-0.68-0.05-0.29 0-0.51-0.06-0.21-0.08-0.4-0.27-0.17-0.19-0.36-0.62-0.11-0.25-0.11-0.43 0-0.38 0.33-0.6 0.35-0.24 0.81-0.35 0.46-0.13 0.92-0.16 0.48-0.05 0.75-0.05 0.25 0 0.49 0.05 0.25 0.03 0.51 0.03 0.27 0 0.52-0.1 0.27-0.11 0.54-0.11 0.38 0 0.62 0.22 0.24 0.21 0.36 0.56 0.14 0.33 0.19 0.78 0.05 0.43 0.05 0.87 0 0.59-0.05 1.11-0.03 0.52-0.03 0.84 0 0.68 0.13 1.29 0.14 0.59 0.14 1.09 0 0.16-0.08 0.32-0.06 0.16-0.14 0.32-0.08 0.16-0.16 0.32-0.06 0.16-0.06 0.32 0 0.13 0.05 0.22l0.11 0.92q-0.08 0.06-0.1 0.16-0.02 0.1-0.02 0.17 0 0.25 0.05 0.51 0.06 0.24 0.06 0.51 0 0.3-0.06 0.6-0.06 0.29-0.06 0.59 0 0.73 0.49 1.13 0.51 0.38 1.19 0.38 0.38 0 0.76-0.13 0.11 0.24 0.3 0.43 0.21 0.17 0.4 0.35 0.19 0.17 0.32 0.4 0.14 0.22 0.14 0.54z" id="path3439" style="-inkscape-font-specification:'special elite';font-family:'special elite';font-size:32.5"/>
    </g>
    <g id="text3418-0" style="fill:#000;font-family:sans-serif;font-size:40;letter-spacing:0;line-height:125;word-spacing:0">
      <path d="m507.74 172.28q0 0.1-0.03 0.29-0.03 0.17-0.1 0.35-0.06 0.17-0.16 0.32-0.1 0.13-0.22 0.13-0.06 0-0.11-0.02-0.05-0.02-0.11-0.02-0.11 0-0.21 0.11-0.08 0.1-0.19 0.24-0.1 0.13-0.24 0.24-0.13 0.1-0.33 0.1-0.08 0-0.24-0.03 0.06 0.32 0.1 0.63 0.03 0.32 0.03 0.63 0 0.51-0.06 1-0.06 0.48-0.14 0.97-0.08 0.49-0.14 0.98-0.06 0.49-0.06 0.98 0 0.59 0.08 1.16 0.1 0.57 0.1 1.16 0 0.25-0.05 0.54-0.05 0.27-0.17 0.51-0.11 0.24-0.32 0.4-0.21 0.16-0.51 0.16-0.44 0-0.7-0.27-0.24-0.29-0.41-0.6-0.16-0.33-0.3-0.6-0.13-0.29-0.35-0.29-0.11 0-0.29 0.13-0.16 0.11-0.36 0.27-0.21 0.16-0.46 0.3-0.24 0.14-0.49 0.19-0.3 0.06-0.41 0.17-0.11 0.11-0.22 0.22-0.11 0.1-0.33 0.17-0.21 0.08-0.73 0.08-0.35 0-0.7-0.03-0.33-0.03-0.68-0.03-0.25 0-0.51 0.03-0.24 0.03-0.49 0.03-0.4 0-0.65-0.06-0.25-0.08-0.46-0.19-0.19-0.11-0.41-0.22-0.21-0.13-0.54-0.22-0.25-0.08-0.41-0.13-0.16-0.06-0.29-0.13-0.13-0.08-0.25-0.17-0.13-0.11-0.33-0.29-0.13-0.1-0.29-0.19-0.16-0.1-0.3-0.19-0.14-0.11-0.25-0.24-0.1-0.13-0.11-0.32-0.02-0.14-0.05-0.21-0.03-0.06-0.1-0.1-0.05-0.03-0.13-0.05-0.06-0.03-0.17-0.1-0.19-0.29-0.29-0.59-0.1-0.3-0.19-0.59-0.1-0.3-0.24-0.57-0.14-0.29-0.43-0.52 0.05-0.16 0.05-0.35 0-0.33-0.13-0.63-0.13-0.32-0.29-0.62-0.14-0.32-0.27-0.63-0.13-0.33-0.13-0.7 0-0.22 0.03-0.44 0.05-0.22 0.05-0.44 0-0.3-0.08-0.59-0.06-0.29-0.14-0.56-0.08-0.29-0.16-0.57-0.06-0.29-0.06-0.59 0-0.1 0-0.19 0.02-0.11 0.03-0.21 0.1-0.57 0.14-1.16 0.05-0.59 0.1-1.16 0.05-0.59 0.11-1.16 0.06-0.59 0.19-1.16 0.13-0.56 0.22-1.09 0.11-0.54 0.11-1.09 0.13-0.17 0.33-0.36 0.22-0.19 0.43-0.38 0.22-0.21 0.38-0.41 0.17-0.22 0.22-0.43 0.05-0.21 0.25-0.51 0.22-0.3 0.49-0.6 0.29-0.3 0.57-0.52 0.3-0.22 0.51-0.25 0.1-0.02 0.21-0.02 0.13 0 0.22-0.03 0.11-0.03 0.19-0.1 0.08-0.06 0.08-0.21 0-0.11-0.05-0.24 0.86-0.08 1.7-0.27 0.84-0.19 1.7-0.19 0.19 0 0.6 0.02 0.41 0.02 0.83 0.11 0.43 0.08 0.75 0.25 0.32 0.16 0.32 0.44l0 0.08q0.05-0.02 0.1-0.02 0.06 0 0.11 0 0.25 0 0.49 0.1 0.24 0.1 0.49 0.1 0.25 0 0.52-0.02 0.29-0.03 0.56-0.1 0.29-0.08 0.51-0.21 0.24-0.13 0.4-0.32 0.35 0 0.57 0.35 0.22 0.33 0.35 0.79 0.13 0.46 0.17 0.94 0.06 0.46 0.06 0.71 0 0.38-0.06 0.76-0.05 0.38-0.19 0.75 0.03 0.21 0.13 0.36 0.11 0.16 0.22 0.32 0.13 0.14 0.22 0.32 0.1 0.16 0.1 0.36-0.11 0.29-0.14 0.83-0.02 0.52-0.1 1.06-0.06 0.52-0.27 0.92-0.19 0.38-0.65 0.38-0.32 0-0.54-0.21-0.22-0.22-0.33-0.49l0.03 0.02q0.21 0 0.21-0.19 0-0.05-0.11-0.13-0.1-0.08-0.22-0.16-0.13-0.1-0.25-0.17-0.13-0.1-0.19-0.17-0.13-0.16-0.24-0.41-0.11-0.25-0.19-0.54-0.08-0.3-0.13-0.59-0.05-0.3-0.05-0.56 0-0.08 0-0.14 0-0.06 0.02-0.13l-0.02 0.02q-0.05-0.02-0.21-0.21-0.14-0.19-0.33-0.41-0.17-0.24-0.35-0.44-0.16-0.22-0.22-0.3-0.32-0.32-0.68-0.57-0.36-0.25-0.68-0.57-0.13 0.08-0.27 0.14-0.13 0.05-0.27 0.05-0.13 0-0.21-0.05-0.08-0.06-0.16-0.13-0.08-0.08-0.17-0.14-0.1-0.06-0.25-0.06-0.35 0-0.68 0.08-0.32 0.08-0.67 0.08-0.36 0-0.73-0.14-0.35-0.14-0.73-0.14-0.03 0-0.1 0.02-0.05 0.02-0.08 0.03 0.02 0.14 0.08 0.27 0.06 0.13 0.06 0.27 0 0.22-0.19 0.43-0.17 0.21-0.43 0.4-0.24 0.19-0.49 0.38-0.24 0.17-0.36 0.33-0.17 0.22-0.29 0.48-0.1 0.25-0.19 0.51-0.1 0.24-0.25 0.46-0.14 0.22-0.41 0.36 0.13 0.33 0.13 0.63 0 0.22-0.03 0.43-0.03 0.19-0.03 0.41 0 0.51 0.08 1.02 0.08 0.49 0.08 1 0 0.41-0.08 0.83-0.06 0.4-0.16 0.81-0.1 0.4-0.17 0.81-0.06 0.4-0.06 0.81 0 0.36 0.08 0.7 0.1 0.33 0.21 0.65 0.11 0.32 0.19 0.6 0.1 0.29 0.1 0.54 0 0.17-0.03 0.35-0.03 0.17-0.03 0.35 0 0.68 0.3 1.16 0.3 0.46 0.68 0.87 0.4 0.41 0.76 0.84 0.36 0.41 0.49 1 0.24-0.05 0.46-0.05 0.29 0 0.57 0.06 0.29 0.06 0.56 0.16 0.27 0.08 0.56 0.14 0.29 0.06 0.57 0.06 0.6 0 1.22-0.24 0.63-0.25 1.16-0.67 0.54-0.41 0.94-0.95 0.4-0.54 0.54-1.13 0.13-0.57 0.36-1.08 0.1-0.19 0.19-0.24 0.1-0.05 0.17-0.06 0.08-0.02 0.13-0.03 0.05-0.02 0.05-0.11 0-0.1-0.11-0.17-0.1-0.08-0.1-0.21 0-0.05 0.06-0.11 0.06-0.08 0.14-0.17 0.1-0.1 0.16-0.22 0.06-0.14 0.06-0.3 0-0.33-0.19-0.54-0.19-0.21-0.48-0.35-0.29-0.16-0.62-0.27-0.32-0.13-0.6-0.3-0.29-0.17-0.48-0.43-0.19-0.27-0.19-0.7 0-0.35 0.17-0.57 0.19-0.24 0.46-0.38 0.29-0.14 0.6-0.21 0.32-0.08 0.6-0.13 0.19-0.03 0.41-0.11 0.22-0.1 0.44-0.17 0.22-0.1 0.41-0.16 0.21-0.08 0.36-0.08 0.22 0 0.44 0.1 0.22 0.08 0.44 0.11 0.3 0.05 0.75 0.13 0.46 0.08 0.87 0.24 0.41 0.16 0.7 0.43 0.3 0.25 0.3 0.68z" id="path3442" style="-inkscape-font-specification:'special elite';font-family:'special elite';font-size:32.5"/>
      <path d="m519.45 163.11q0 0.46-0.16 0.95-0.14 0.48-0.43 0.89-0.29 0.4-0.7 0.67-0.4 0.25-0.89 0.25-0.33 0-0.83-0.1-0.49-0.11-0.95-0.3-0.44-0.21-0.78-0.52-0.32-0.32-0.32-0.75 0-0.38 0.08-0.78 0.1-0.41 0.11-0.83 0.16-0.08 0.32-0.29 0.16-0.21 0.3-0.41 0.16-0.22 0.3-0.4 0.16-0.17 0.32-0.19l-0.08 0.03q0.22-0.1 0.46-0.16 0.25-0.06 0.51-0.06 0.33 0 0.79 0.17 0.48 0.16 0.9 0.43 0.43 0.27 0.73 0.63 0.3 0.36 0.3 0.75zm7.68 19.31q0 0.27-0.11 0.51-0.1 0.24-0.29 0.41-0.17 0.19-0.41 0.3-0.24 0.11-0.52 0.11-0.11 0-0.14-0.03-0.03-0.03-0.11-0.11-0.22-0.24-0.54-0.29-0.32-0.03-0.67-0.08-0.33-0.03-0.65-0.17-0.3-0.13-0.49-0.54-0.13-0.27-0.27-0.35-0.14-0.08-0.44-0.08-0.7 0-1.33 0.22-0.63 0.22-1.25 0.51-0.62 0.27-1.27 0.49-0.63 0.22-1.32 0.22-0.38 0-0.76-0.08-0.36-0.06-0.71-0.22-0.08 0.08-0.19 0.11-0.1 0.03-0.22 0.03-0.11 0-0.22-0.02-0.1-0.02-0.17-0.02-0.02 0-0.17 0.05-0.16 0.06-0.19 0.08l0.1 0.16q-0.1 0.14-0.43 0.27-0.33 0.14-0.73 0.24-0.38 0.1-0.75 0.16-0.36 0.06-0.56 0.06-0.51 0-0.84-0.17-0.32-0.16-0.63-0.57-0.11-0.16-0.29-0.32-0.16-0.16-0.32-0.32-0.14-0.17-0.25-0.36-0.1-0.19-0.1-0.4 0-0.24 0.25-0.4 0.25-0.16 0.6-0.25 0.35-0.11 0.7-0.14 0.35-0.05 0.54-0.05 0.38 0 0.76 0.11 0.38 0.1 0.76 0.1 0.35 0 0.67-0.1 0.32-0.1 0.67-0.1 0.3 0 0.59 0.05 0.3 0.03 0.6 0.03 0.38 0 0.73-0.13 0.37-0.14 0.68-0.36 0.13-0.78 0.17-1.56 0.06-0.78 0.06-1.57 0-0.78-0.13-1.56-0.13-0.78-0.13-1.54 0-0.06 0.03-0.06 0.03-0.02 0.06-0.02 0.05-0.02 0.08-0.03 0.03-0.03 0.03-0.13 0-0.33-0.1-0.65-0.1-0.32-0.1-0.65 0-0.41 0.11-0.81 0.11-0.4 0.11-0.81 0-0.29-0.13-0.57-0.13-0.29-0.33-0.51-0.21-0.22-0.48-0.35-0.27-0.14-0.57-0.14-0.33 0-0.67 0.08-0.32 0.08-0.67 0.19-0.35 0.1-0.71 0.17-0.35 0.08-0.75 0.08-0.46 0-0.9-0.06-0.44-0.06-0.9-0.14-0.22-0.03-0.51-0.06-0.27-0.03-0.52-0.11-0.25-0.08-0.43-0.24-0.17-0.16-0.17-0.46 0-0.56 0.19-0.84 0.21-0.3 0.49-0.44 0.3-0.14 0.67-0.17 0.36-0.03 0.7-0.06 0.6-0.05 1.19-0.08 0.6-0.05 1.21-0.05 0.75 0 1.46 0.1 0.73 0.08 1.48 0.08 0.52 0 1 0.16 0.48 0.16 0.83 0.49 0.36 0.32 0.57 0.81 0.21 0.49 0.21 1.14 0 0.43-0.19 0.84-0.17 0.4-0.46 0.71 0.11 0.21 0.22 0.29 0.11 0.06 0.21 0.13 0.1 0.05 0.16 0.14 0.06 0.08 0.06 0.32 0 0.13 0.03 0.3 0.05 0.16 0.22 0.17 0 0.86-0.02 1.7-0.02 0.83-0.02 1.67 0 0.71 0 1.43 0.02 0.71 0.13 1.43 0.06 0.44 0.25 0.68 0.19 0.24 0.68 0.24 0.71 0 1.41-0.14 0.7-0.16 1.41-0.16 0.41 0 0.78 0.21 0.38 0.21 0.71 0.44 0.35 0.24 0.67 0.44 0.32 0.21 0.6 0.21 0.13 0 0.21 0.1 0.08 0.08 0.11 0.21 0.05 0.11 0.05 0.24 0.02 0.13 0.02 0.22z" id="path3444" style="-inkscape-font-specification:'special elite';font-family:'special elite';font-size:32.5"/>
      <path d="m545.38 180.25q0 0.27-0.1 0.51-0.1 0.24-0.17 0.49-0.06 0.22-0.1 0.36-0.02 0.14-0.06 0.25-0.05 0.1-0.16 0.19-0.1 0.08-0.32 0.19-0.48 0.25-1.02 0.52-0.52 0.25-1.06 0.25-0.46 0-0.87-0.21-0.4-0.22-0.75-0.48-0.33-0.27-0.62-0.49-0.27-0.22-0.46-0.22-0.21 0-0.36 0.11-0.14 0.11-0.3 0.24-0.14 0.13-0.33 0.24-0.17 0.11-0.44 0.11-0.22 0-0.46 0.08-0.24 0.08-0.48 0.19-0.24 0.1-0.49 0.21-0.24 0.1-0.44 0.16-0.71 0.19-1.44 0.22-0.71 0.03-1.44 0.03-0.19 0-0.59-0.02-0.4 0-0.81-0.08-0.4-0.06-0.71-0.22-0.3-0.16-0.3-0.44 0-0.06 0.02-0.11-0.11 0.13-0.25 0.21-0.14 0.08-0.32 0.08-0.25 0-0.62-0.35-0.36-0.35-0.7-0.81-0.33-0.46-0.57-0.9-0.24-0.46-0.24-0.68 0-0.17 0.1-0.32 0.11-0.14 0.11-0.32 0-0.22-0.06-0.41-0.05-0.21-0.05-0.43 0-0.29 0.11-0.6 0.11-0.33 0.27-0.65 0.16-0.33 0.33-0.63 0.17-0.32 0.32-0.59 0.16-0.32 0.44-0.51 0.29-0.19 0.6-0.33 0.32-0.14 0.63-0.29 0.32-0.14 0.56-0.38 0.24 0.27 0.62 0.27 0.4 0 0.78-0.11 0.38-0.13 0.78-0.13 0.32 0 0.6 0.06 0.3 0.06 0.62 0.06 0.35 0 0.51-0.08 0.17-0.1 0.43-0.32 0.25-0.22 0.63-0.33 0.4-0.13 0.81-0.19 0.43-0.08 0.84-0.16 0.43-0.08 0.76-0.22 0.33-0.16 0.54-0.41 0.21-0.27 0.21-0.73 0-0.51-0.3-1.06-0.29-0.57-0.75-1.03-0.46-0.48-1.02-0.78-0.56-0.3-1.06-0.3-0.06 0-0.13 0.02-0.06 0.02-0.11 0.02-0.38 0.06-0.86 0.1-0.48 0.02-0.89 0.14-0.41 0.11-0.7 0.4-0.29 0.27-0.29 0.81 0 0.32 0.05 0.63 0.06 0.3 0.06 0.62 0 0.48-0.24 0.79-0.22 0.32-0.59 0.51-0.35 0.19-0.78 0.27-0.43 0.06-0.83 0.06-0.48 0-0.83-0.13-0.35-0.13-0.57-0.59-0.17-0.33-0.38-0.71-0.19-0.4-0.19-0.79 0-0.43 0.14-0.79 0.16-0.38 0.35-0.73 0.19-0.36 0.36-0.71 0.19-0.36 0.27-0.78 0.11-0.06 0.3-0.13 0.21-0.06 0.43-0.13 0.24-0.06 0.44-0.11 0.22-0.06 0.36-0.11 0.38-0.11 0.73-0.25 0.36-0.16 0.73-0.29 0.38-0.13 0.75-0.22 0.38-0.1 0.78-0.11l0.49-0.02q0.68 0 1.4 0.13 0.71 0.11 1.4 0.36 0.68 0.25 1.29 0.63 0.62 0.36 1.09 0.87 0.35 0.38 0.57 0.9 0.24 0.51 0.36 1.08 0.14 0.57 0.19 1.16 0.06 0.57 0.06 1.06 0 0.67-0.05 1.32-0.03 0.63-0.03 1.3 0 0.63 0.06 1.27 0.08 0.62 0.17 1.25 0.1 0.62 0.16 1.25 0.08 0.62 0.08 1.24 0.03 0.38 0.1 0.48 0.08 0.08 0.16 0.08 0.35 0 0.56-0.21 0.22-0.22 0.4-0.48 0.17-0.27 0.38-0.49 0.21-0.22 0.52-0.22 0.14 0 0.29 0.02 0.16 0.02 0.29 0.08 0.13 0.05 0.21 0.16 0.08 0.1 0.08 0.27zm-5.22-3.95q0-0.1-0.02-0.33 0-0.24-0.03-0.48-0.03-0.25-0.11-0.44-0.06-0.19-0.21-0.19-0.03 0-0.08 0.03-0.05 0.02-0.08 0.02-0.6 0.33-1.03 0.56-0.43 0.21-0.86 0.35-0.41 0.13-0.89 0.17-0.48 0.05-1.19 0.05-0.1 0-0.52 0.08-0.43 0.08-0.94 0.19-0.51 0.1-0.95 0.21-0.44 0.1-0.56 0.13-0.21 0.08-0.3 0.16-0.08 0.08-0.13 0.17-0.05 0.1-0.1 0.21-0.05 0.1-0.17 0.21-0.16 0.13-0.35 0.21-0.17 0.08-0.33 0.24-0.24 0.24-0.44 0.63-0.21 0.38-0.21 0.73 0 0.43 0.22 0.76 0.22 0.33 0.59 0.57 0.36 0.24 0.83 0.41 0.46 0.17 0.92 0.27 0.48 0.1 0.9 0.14 0.44 0.05 0.76 0.05 0.38 0 0.9-0.05 0.52-0.06 1.05-0.17 0.52-0.13 0.98-0.33 0.46-0.21 0.73-0.52 0.11-0.13 0.16-0.22 0.05-0.11 0.1-0.21 0.06-0.11 0.13-0.22 0.08-0.11 0.24-0.24 0.36-0.3 0.56-0.67 0.21-0.36 0.3-0.76 0.1-0.4 0.11-0.83 0.02-0.43 0.02-0.87z" id="path3446" style="-inkscape-font-specification:'special elite';font-family:'special elite';font-size:32.5"/>
      <path d="m563.04 182.2q0 0.56-0.38 0.87-0.36 0.33-0.89 0.49-0.52 0.17-1.09 0.22-0.56 0.05-0.95 0.05-0.52 0-0.87-0.1-0.33-0.1-0.59-0.21-0.25-0.1-0.44-0.19-0.19-0.1-0.4-0.1-0.27 0-0.54 0.1-0.25 0.1-0.52 0.1-0.19 0-0.32-0.06-0.11-0.06-0.19-0.16-0.08-0.08-0.16-0.14-0.06-0.06-0.16-0.06-0.11 0-0.17 0.08-0.06 0.1-0.14 0.21-0.08 0.11-0.24 0.19-0.14 0.1-0.43 0.1-0.33 0-0.65-0.08-0.32-0.06-0.65-0.06-0.33 0-0.67 0.11-0.32 0.13-0.6 0.13-0.13 0-0.19-0.1-0.06-0.08-0.14-0.08-0.27 0-0.57 0.13-0.29 0.13-0.59 0.13-0.16 0-0.32-0.05-0.14-0.03-0.3-0.03-0.27 0-0.54 0.13-0.27 0.13-0.67 0.13-0.14 0-0.63-0.05-0.48-0.03-0.98-0.11-0.51-0.08-0.92-0.21-0.4-0.11-0.4-0.25 0-0.41 0.14-0.83 0.16-0.41 0.16-0.79l0-0.03q-0.21 0-0.24-0.22 0.03-0.06 0.1-0.1 0.08-0.05 0.16-0.06 0.08-0.03 0.14-0.08 0.06-0.05 0.06-0.14l0-0.06q0.63 0.06 1.24 0.08 0.62 0.02 1.29 0.02 0.62 0 1.36-0.03 0.76-0.05 1.4-0.24 0.65-0.19 1.08-0.57 0.44-0.4 0.44-1.09l0-0.11 0-0.25q-0.08-1.75-0.17-3.43-0.08-1.7-0.08-3.44 0-0.46-0.08-0.89-0.06-0.44-0.06-0.89 0-0.56 0.19-1.11 0.21-0.56 0.63-0.94-0.02-0.1-0.08-0.13-0.06-0.05-0.16-0.06-0.1-0.02-0.19-0.03-0.08-0.02-0.14-0.05-0.1-0.05-0.13-0.22-0.03-0.17-0.06-0.38-0.02-0.21-0.05-0.4-0.02-0.21-0.1-0.32 0.05-0.46 0.16-0.9 0.11-0.44 0.11-0.9 0-0.33-0.1-0.52-0.08-0.19-0.19-0.32-0.11-0.13-0.21-0.22-0.08-0.11-0.08-0.27 0-0.13 0.08-0.24l-0.13-0.02q-0.16 0-0.24 0.08-0.08 0.08-0.16 0.17-0.06 0.1-0.14 0.17-0.08 0.08-0.22 0.08-0.11 0-0.25-0.05-0.27 0.08-0.51 0.08-0.56 0-1.11-0.14-0.54-0.16-1.09-0.16-0.3 0-0.59 0.03-0.29 0.02-0.57 0.02-0.41 0-0.83-0.1-0.41-0.1-0.73-0.41l0-0.19q0-0.84 0.56-1.27 0.57-0.43 1.38-0.43 0.56 0 1.09 0.14 0.54 0.14 1.09 0.14 0.3 0 0.63-0.06 0.33-0.06 0.68-0.14 0.35-0.08 0.7-0.14 0.36-0.06 0.71-0.06 0.54 0 1.02 0.24 0.48 0.22 0.95 0.43l-0.02 0.13q0 0.14 0.06 0.27 0.08 0.11 0.17 0.24 0.1 0.11 0.16 0.24 0.08 0.11 0.08 0.25 0 0.14-0.05 0.29-0.03 0.13-0.03 0.27 0 0.35 0.13 0.67 0.14 0.32 0.14 0.68 0 0.38-0.1 0.75-0.08 0.36-0.08 0.75 0 0.46 0.11 0.92 0.11 0.46 0.11 0.92 0 0.38-0.13 0.75-0.11 0.36-0.11 0.73 0 0.27 0.06 0.54 0.08 0.25 0.17 0.51 0.1 0.25 0.16 0.52 0.08 0.25 0.08 0.54l0 0.32q0 0.25-0.05 0.49-0.03 0.22-0.21 0.43 0.08 0.3 0.16 0.65 0.1 0.35 0.1 0.67 0 0.16-0.03 0.35-0.02 0.17-0.08 0.36-0.05 0.17-0.14 0.33-0.1 0.14-0.22 0.24 0.21 0.6 0.27 1.22 0.06 0.62 0.1 1.24 0.02 0.19 0.06 0.49 0.05 0.3 0.1 0.6 0.05 0.29 0.08 0.54 0.05 0.24 0.05 0.33 0 0.27-0.1 0.52-0.1 0.25-0.1 0.52 0 0.21 0.1 0.44 0.1 0.22 0.35 0.22 0.19 0 0.32-0.08 0.14-0.1 0.3-0.19 0.16-0.11 0.36-0.19 0.22-0.1 0.59-0.1 0.41 0 0.78 0.11 0.36 0.11 0.78 0.11 0.3 0 0.6-0.05 0.32-0.06 0.6-0.13 0.3-0.08 0.6-0.14 0.3-0.06 0.62-0.06 0.63 0 1.06 0.36 0.44 0.36 0.44 1.08zm-9.11-19.76q-0.06-0.06-0.16-0.13-0.08-0.06-0.19-0.06-0.08 0-0.14 0.08-0.05 0.06-0.05 0.14l0.08 0.19q0.06 0.03 0.1 0.03 0.13 0 0.21-0.08 0.1-0.1 0.16-0.17zm0.95 4.41q0-0.13-0.08-0.25-0.06-0.14-0.22-0.14-0.05 0-0.11 0.02-0.05 0.02-0.08 0.03l0 0.68q0.13 0.06 0.19 0.06 0.16 0 0.22-0.13 0.08-0.14 0.08-0.27z" id="path3448" style="-inkscape-font-specification:'special elite';font-family:'special elite';font-size:32.5"/>
      <path d="m580.62 182.2q0 0.56-0.38 0.87-0.36 0.33-0.89 0.49-0.52 0.17-1.09 0.22-0.56 0.05-0.95 0.05-0.52 0-0.87-0.1-0.33-0.1-0.59-0.21-0.25-0.1-0.44-0.19-0.19-0.1-0.4-0.1-0.27 0-0.54 0.1-0.25 0.1-0.52 0.1-0.19 0-0.32-0.06-0.11-0.06-0.19-0.16-0.08-0.08-0.16-0.14-0.06-0.06-0.16-0.06-0.11 0-0.17 0.08-0.06 0.1-0.14 0.21-0.08 0.11-0.24 0.19-0.14 0.1-0.43 0.1-0.33 0-0.65-0.08-0.32-0.06-0.65-0.06-0.33 0-0.67 0.11-0.32 0.13-0.6 0.13-0.13 0-0.19-0.1-0.06-0.08-0.14-0.08-0.27 0-0.57 0.13-0.29 0.13-0.59 0.13-0.16 0-0.32-0.05-0.14-0.03-0.3-0.03-0.27 0-0.54 0.13-0.27 0.13-0.67 0.13-0.14 0-0.63-0.05-0.48-0.03-0.98-0.11-0.51-0.08-0.92-0.21-0.4-0.11-0.4-0.25 0-0.41 0.14-0.83 0.16-0.41 0.16-0.79l0-0.03q-0.21 0-0.24-0.22 0.03-0.06 0.1-0.1 0.08-0.05 0.16-0.06 0.08-0.03 0.14-0.08 0.06-0.05 0.06-0.14l0-0.06q0.63 0.06 1.24 0.08 0.62 0.02 1.29 0.02 0.62 0 1.36-0.03 0.76-0.05 1.4-0.24 0.65-0.19 1.08-0.57 0.44-0.4 0.44-1.09l0-0.11 0-0.25q-0.08-1.75-0.17-3.43-0.08-1.7-0.08-3.44 0-0.46-0.08-0.89-0.06-0.44-0.06-0.89 0-0.56 0.19-1.11 0.21-0.56 0.63-0.94-0.02-0.1-0.08-0.13-0.06-0.05-0.16-0.06-0.1-0.02-0.19-0.03-0.08-0.02-0.14-0.05-0.1-0.05-0.13-0.22-0.03-0.17-0.06-0.38-0.02-0.21-0.05-0.4-0.02-0.21-0.1-0.32 0.05-0.46 0.16-0.9 0.11-0.44 0.11-0.9 0-0.33-0.1-0.52-0.08-0.19-0.19-0.32-0.11-0.13-0.21-0.22-0.08-0.11-0.08-0.27 0-0.13 0.08-0.24l-0.13-0.02q-0.16 0-0.24 0.08-0.08 0.08-0.16 0.17-0.06 0.1-0.14 0.17-0.08 0.08-0.22 0.08-0.11 0-0.25-0.05-0.27 0.08-0.51 0.08-0.56 0-1.11-0.14-0.54-0.16-1.09-0.16-0.3 0-0.59 0.03-0.29 0.02-0.57 0.02-0.41 0-0.83-0.1-0.41-0.1-0.73-0.41l0-0.19q0-0.84 0.56-1.27 0.57-0.43 1.38-0.43 0.56 0 1.09 0.14 0.54 0.14 1.09 0.14 0.3 0 0.63-0.06 0.33-0.06 0.68-0.14 0.35-0.08 0.7-0.14 0.36-0.06 0.71-0.06 0.54 0 1.02 0.24 0.48 0.22 0.95 0.43l-0.02 0.13q0 0.14 0.06 0.27 0.08 0.11 0.17 0.24 0.1 0.11 0.16 0.24 0.08 0.11 0.08 0.25 0 0.14-0.05 0.29-0.03 0.13-0.03 0.27 0 0.35 0.13 0.67 0.14 0.32 0.14 0.68 0 0.38-0.1 0.75-0.08 0.36-0.08 0.75 0 0.46 0.11 0.92 0.11 0.46 0.11 0.92 0 0.38-0.13 0.75-0.11 0.36-0.11 0.73 0 0.27 0.06 0.54 0.08 0.25 0.17 0.51 0.1 0.25 0.16 0.52 0.08 0.25 0.08 0.54l0 0.32q0 0.25-0.05 0.49-0.03 0.22-0.21 0.43 0.08 0.3 0.16 0.65 0.1 0.35 0.1 0.67 0 0.16-0.03 0.35-0.02 0.17-0.08 0.36-0.05 0.17-0.14 0.33-0.1 0.14-0.22 0.24 0.21 0.6 0.27 1.22 0.06 0.62 0.1 1.24 0.02 0.19 0.06 0.49 0.05 0.3 0.1 0.6 0.05 0.29 0.08 0.54 0.05 0.24 0.05 0.33 0 0.27-0.1 0.52-0.1 0.25-0.1 0.52 0 0.21 0.1 0.44 0.1 0.22 0.35 0.22 0.19 0 0.32-0.08 0.14-0.1 0.3-0.19 0.16-0.11 0.36-0.19 0.22-0.1 0.59-0.1 0.41 0 0.78 0.11 0.36 0.11 0.78 0.11 0.3 0 0.6-0.05 0.32-0.06 0.6-0.13 0.3-0.08 0.6-0.14 0.3-0.06 0.62-0.06 0.63 0 1.06 0.36 0.44 0.36 0.44 1.08zm-9.11-19.76q-0.06-0.06-0.16-0.13-0.08-0.06-0.19-0.06-0.08 0-0.14 0.08-0.05 0.06-0.05 0.14l0.08 0.19q0.06 0.03 0.1 0.03 0.13 0 0.21-0.08 0.1-0.1 0.16-0.17zm0.95 4.41q0-0.13-0.08-0.25-0.06-0.14-0.22-0.14-0.05 0-0.11 0.02-0.05 0.02-0.08 0.03l0 0.68q0.13 0.06 0.19 0.06 0.16 0 0.22-0.13 0.08-0.14 0.08-0.27z" id="path3450" style="-inkscape-font-specification:'special elite';font-family:'special elite';font-size:32.5"/>
      <path d="m598.38 176.08q0 0.22-0.08 0.43-0.06 0.19-0.16 0.33-0.08 0.14-0.16 0.24-0.06 0.1-0.06 0.11 0 0.16 0.1 0.33 0.11 0.17 0.11 0.38 0 0.1-0.08 0.13-0.06 0.03-0.14 0.03-0.14 0-0.24-0.03 0.02 0.3 0.05 0.59 0.05 0.29 0.05 0.59 0 0.46-0.1 0.6-0.08 0.13-0.17 0.16-0.1 0.03-0.19 0.08-0.08 0.03-0.08 0.29 0 0.14-0.21 0.36-0.19 0.22-0.48 0.44-0.27 0.22-0.57 0.38-0.29 0.16-0.46 0.16-0.05 0-0.11-0.03 0 0.13 0.02 0.27 0.02 0.14 0.02 0.27 0 0.21-0.13 0.29-0.13 0.06-0.29 0.13-0.24 0.11-0.49 0.33-0.25 0.21-0.52 0.43-0.27 0.22-0.56 0.38-0.27 0.17-0.57 0.17-0.25 0-0.48-0.13-0.21-0.13-0.49-0.13-0.25 0-0.43 0.06-0.17 0.08-0.33 0.16-0.14 0.1-0.3 0.16-0.16 0.08-0.36 0.08-0.41 0-0.83-0.22-0.41-0.21-0.79-0.33-0.22-0.08-0.48-0.13-0.25-0.03-0.49-0.08-0.24-0.05-0.46-0.16-0.21-0.1-0.36-0.29-0.33-0.41-0.78-0.68-0.44-0.27-0.9-0.51-0.46-0.24-0.89-0.49-0.43-0.27-0.75-0.7-0.24-0.33-0.54-0.71-0.3-0.4-0.57-0.83-0.25-0.43-0.43-0.87-0.17-0.44-0.17-0.87 0-0.32 0.06-0.62 0.06-0.3 0.13-0.6 0.08-0.32 0.14-0.62 0.06-0.3 0.06-0.62l0-0.17q0-0.06-0.05-0.14-0.05-0.08-0.11-0.14-0.05-0.08-0.11-0.13-0.05-0.06-0.06-0.06-0.03 0-0.03 0.02 0.02-0.14 0.08-0.43 0.08-0.3 0.17-0.6 0.1-0.32 0.19-0.57 0.1-0.27 0.17-0.35 0.1-0.08 0.17-0.16 0.1-0.1 0.1-0.24 0-0.14-0.02-0.27-0.02-0.14-0.02-0.29 0-0.19 0.05-0.22 0.05-0.05 0.13-0.05 0.08 0 0.16-0.02 0.08-0.03 0.16-0.17 0.14-0.29 0.27-0.52 0.14-0.25 0.3-0.46 0.16-0.21 0.36-0.38 0.21-0.17 0.51-0.33 0.25-0.14 0.49-0.35 0.25-0.21 0.51-0.41 0.25-0.21 0.51-0.35 0.27-0.14 0.57-0.14 0.43 0 0.83-0.14 0.41-0.16 0.83-0.24 0.65-0.1 1.29-0.17 0.65-0.1 1.32-0.1 0.36 0 0.89 0.13 0.52 0.11 1.06 0.3 0.56 0.19 1.03 0.43 0.49 0.24 0.78 0.48l0 0.05q0 0.22-0.08 0.46-0.08 0.22-0.08 0.44 0 0.03 0 0.06 0 0.03 0.03 0.03 0.27 0 0.51-0.06 0.25-0.08 0.52-0.08 0.03 0.27 0.24 0.36 0.21 0.1 0.41 0.17 0.19 0.1 0.35 0.35 0.17 0.24 0.32 0.56 0.14 0.3 0.27 0.6 0.14 0.3 0.27 0.49 0.13 0.19 0.22 0.46 0.11 0.25 0.17 0.54 0.08 0.29 0.11 0.57 0.03 0.27 0.03 0.51 0 0.32-0.13 0.54-0.11 0.21-0.25 0.38-0.14 0.16-0.27 0.32-0.11 0.14-0.11 0.33 0 0.11 0.05 0.21 0.05 0.1 0.13 0.17 0.03-0.02 0.13-0.03 0.11-0.02 0.11-0.1l0-0.02q0-0.13-0.11-0.24-0.1-0.11-0.1-0.27 0-0.03 0.03-0.1 0.03-0.08 0.08-0.08 0.1 0 0.19 0.13 0.1 0.11 0.17 0.25 0.1 0.13 0.14 0.22 0.05 0.1 0.05 0.06l-0.02-0.02q0.02 0.08 0.02 0.14 0.02 0.05 0.02 0.11zm-1.59 0.13q0-0.25-0.19-0.3-0.19-0.06-0.43-0.08-0.24-0.02-0.48-0.05-0.22-0.03-0.3-0.24l0-0.16q0-0.35-0.1-0.81-0.08-0.48-0.21-0.95-0.13-0.49-0.27-0.95-0.14-0.48-0.27-0.84-0.13-0.36-0.21-0.59-0.08-0.22-0.08-0.22-0.13 0.03-0.21 0.03-0.27 0-0.48-0.11-0.19-0.11-0.44-0.24-0.24-0.13-0.6-0.24-0.35-0.11-0.94-0.11-0.65 0-1.29-0.08-0.63-0.1-1.29-0.1-0.89 0-1.67 0.41-0.78 0.4-1.36 1.06-0.59 0.65-0.92 1.48-0.33 0.83-0.33 1.67 0 0.35 0.02 0.83 0.02 0.46 0.08 0.94 0.06 0.46 0.21 0.87 0.14 0.4 0.4 0.6l0 0.44q0.06 0.06 0.16 0.08 0.11 0 0.21 0 0.11 0 0.19 0.03 0.08 0.02 0.13 0.13 0.21 0.59 0.54 0.9 0.33 0.3 0.71 0.52 0.38 0.21 0.76 0.43 0.38 0.21 0.7 0.62 0.13-0.02 0.27-0.02 0.14-0.02 0.27-0.02 0.51 0 0.98 0.08 0.49 0.06 0.98 0.06 0.52 0 0.94-0.27 0.43-0.27 0.73-0.68 0.19-0.27 0.35-0.46 0.16-0.19 0.32-0.35 0.17-0.17 0.36-0.32 0.21-0.16 0.48-0.35 0.1-0.06 0.22-0.16 0.14-0.1 0.27-0.21 0.14-0.13 0.24-0.24 0.1-0.13 0.1-0.24 0-0.14-0.05-0.29-0.03-0.14-0.03-0.29 0-0.16 0.05-0.38 0.05-0.22 0.14-0.43 0.11-0.21 0.25-0.33 0.16-0.14 0.38-0.14 0.17 0 0.35 0.08 0.17 0.08 0.32 0.19 0.03-0.16 0.03-0.24z" id="path3452" style="-inkscape-font-specification:'special elite';font-family:'special elite';font-size:32.5"/>
    </g>
    <g id="text3418-0-5" style="fill:#000;font-family:sans-serif;font-size:40;letter-spacing:0;line-height:125;word-spacing:0">
      <path d="m26.41 179.76q0 0.14-0.02 0.38-0.02 0.24-0.16 0.32-0.16 0.08-0.21 0.27-0.03 0.19-0.03 0.38 0 0.19-0.02 0.35-0.02 0.14-0.13 0.14-0.08 0-0.13-0.03-0.05-0.05-0.13-0.05-0.08 0-0.16 0.08-0.08 0.08-0.08 0.16 0 0.08 0.05 0.13 0.06 0.03 0.06 0.11 0 0.06-0.24 0.16-0.24 0.08-0.54 0.16-0.3 0.1-0.59 0.14-0.29 0.06-0.38 0.06-0.57 0-1.14-0.21-0.57-0.21-1.11-0.38-0.65-0.22-0.97-0.73-0.3-0.51-0.44-1.14-0.14-0.63-0.22-1.3-0.06-0.67-0.25-1.19-0.08-0.24-0.08-0.4 0-0.16 0.03-0.25 0.05-0.11 0.1-0.17 0.06-0.08 0.1-0.13 0.05-0.06 0.05-0.13 0-0.19-0.11-0.38-0.11-0.19-0.11-0.51 0-0.17 0-0.33 0.02-0.17 0.02-0.35 0-0.59-0.11-0.97-0.1-0.38-0.29-0.7-0.17-0.32-0.43-0.63-0.24-0.32-0.54-0.76-0.14 0.03-0.3 0.03-0.14 0-0.3 0-0.32 0-0.63-0.03-0.3-0.03-0.62-0.03-0.33 0-0.68 0.06-0.33 0.06-0.68 0.06-0.22 0-0.44-0.06-0.22-0.08-0.44-0.08-0.27 0-0.54 0.11-0.27 0.1-0.49 0.29-0.22 0.17-0.36 0.43-0.13 0.24-0.13 0.52l0 0.51q0 1.38-0.24 2.71-0.03 0.21-0.06 0.41-0.03 0.19-0.03 0.41 0 0.65 0.25 1.05 0.27 0.4 0.65 0.65 0.38 0.24 0.84 0.4 0.46 0.16 0.84 0.33 0.38 0.16 0.63 0.4 0.27 0.24 0.27 0.65 0 0.16-0.06 0.3-0.05 0.13-0.13 0.25-0.21 0.33-0.4 0.51-0.17 0.16-0.4 0.25-0.21 0.1-0.46 0.14-0.25 0.05-0.6 0.13-0.27 0.06-0.57 0.08-0.29 0.03-0.57 0.03-0.44 0-0.87-0.11-0.43-0.1-0.87-0.1-0.33 0-0.68 0.06-0.33 0.05-0.67 0.11-0.33 0.08-0.67 0.13-0.33 0.06-0.67 0.06-0.22 0-0.49-0.05-0.25-0.05-0.48-0.17-0.22-0.11-0.38-0.3-0.14-0.19-0.14-0.46 0-0.22 0.11-0.4 0.11-0.17 0.29-0.3 0.19-0.13 0.4-0.21 0.21-0.08 0.4-0.1 0.17-0.02 0.29-0.02 0.13 0 0.21-0.03 0.1-0.03 0.19-0.1 0.1-0.06 0.22-0.19 0.08-0.08 0.14-0.13 0.08-0.05 0.19-0.05 0.08 0 0.16 0.02 0.08 0.02 0.16 0.02 0.13 0 0.25-0.08 0.33-0.19 0.48-0.49 0.14-0.3 0.19-0.65 0.05-0.36 0.05-0.75 0.02-0.38 0.1-0.7 0.08-0.35 0.08-0.65 0-0.56-0.14-1.09-0.13-0.54-0.13-1.09 0-0.67 0.1-1.33 0.1-0.67 0.1-1.33 0-0.17-0.02-0.33 0-0.16 0-0.33 0-1.14 0.14-2.25 0.14-1.11 0.14-2.25 0-0.32-0.02-0.62-0.02-0.3-0.05-0.62-0.03-0.25-0.06-0.62-0.03-0.38-0.1-0.78-0.06-0.4-0.17-0.79-0.1-0.4-0.29-0.7-0.17-0.32-0.44-0.51-0.25-0.21-0.62-0.21-0.08 0-0.17 0.02-0.08 0.02-0.16 0.02-0.17 0-0.29-0.1-0.11-0.11-0.17-0.25-0.06-0.16-0.1-0.33-0.02-0.17-0.02-0.3 0-0.54 0.27-0.79 0.29-0.25 0.68-0.35 0.41-0.1 0.87-0.08 0.48 0 0.84-0.03 0.41-0.03 0.81-0.14 0.41-0.11 0.84-0.11 0.62 0 1.22 0.16 0.6 0.16 1.22 0.16 0.51 0 0.98-0.08 0.48-0.1 0.95-0.25 0.24-0.08 0.43-0.08 0.62 0 1.22 0.16 0.6 0.16 1.21 0.19 0.41 0.03 0.86 0.16 0.44 0.11 0.83 0.33 0.4 0.21 0.68 0.54 0.29 0.33 0.36 0.78 0.05 0.27 0.22 0.52 0.17 0.24 0.36 0.44 0.21 0.19 0.35 0.36 0.16 0.16 0.16 0.27 0 0.11-0.11 0.17-0.1 0.05-0.1 0.17 0 0.08 0.1 0.17 0.11 0.1 0.24 0.22 0.13 0.13 0.22 0.29 0.11 0.14 0.11 0.32 0 0.24-0.16 0.43-0.14 0.17-0.14 0.41l0.03 0.05 0.22-0.06 0.03 0.03q0.06 0.25 0.05 0.54 0 0.27 0 0.49 0 0.3-0.02 0.67-0.02 0.36-0.08 0.71-0.06 0.35-0.19 0.65-0.13 0.3-0.36 0.48-0.14 0.11-0.3 0.17-0.14 0.05-0.29 0.13-0.14 0.06-0.25 0.17-0.11 0.11-0.17 0.3-0.08 0.27-0.27 0.51-0.19 0.24-0.4 0.48-0.19 0.22-0.35 0.46-0.14 0.24-0.14 0.52 0 0.46 0.21 0.86 0.22 0.4 0.4 0.81 0.17 0.43 0.25 0.87 0.08 0.43 0.11 0.87 0.05 0.44 0.06 0.89 0.03 0.44 0.1 0.89 0.03 0.19 0.14 0.63 0.13 0.43 0.3 0.87 0.17 0.44 0.4 0.78 0.22 0.33 0.46 0.33 0.21 0 0.33-0.22 0.13-0.22 0.24-0.51 0.13-0.29 0.27-0.56 0.16-0.27 0.41-0.36 0.49 0.05 0.81 0.19 0.33 0.14 0.51 0.4 0.17 0.24 0.24 0.6 0.08 0.35 0.08 0.83zm-4.74-14.6q0-0.22-0.1-0.51-0.1-0.3-0.24-0.6-0.14-0.3-0.32-0.57-0.16-0.27-0.32-0.44-0.33 0-0.44-0.05-0.11-0.05-0.14-0.11-0.03-0.08-0.08-0.17-0.03-0.1-0.22-0.19-0.56-0.27-1-0.41-0.44-0.14-1.06-0.14-0.17 0-0.35 0.1-0.16 0.1-0.29 0.1-0.36 0-0.71-0.08-0.35-0.1-0.71-0.1-0.52 0-1.08 0.13-0.36 0.1-0.73 0.17-0.36 0.08-0.65 0.24-0.29 0.16-0.48 0.43-0.17 0.27-0.17 0.75 0 0.49 0.1 0.97 0.11 0.48 0.11 0.97 0 0.24-0.08 0.46-0.06 0.22-0.14 0.44-0.08 0.21-0.16 0.43-0.06 0.22-0.06 0.46 0 0.29 0.05 0.59 0.06 0.29 0.21 0.52 0.14 0.22 0.36 0.36 0.24 0.14 0.59 0.14 0.33 0 0.63-0.13 0.3-0.14 0.63-0.14 0.17 0 0.33 0.1 0.16 0.08 0.32 0.17 0.16 0.1 0.33 0.19 0.17 0.08 0.38 0.08 0.16 0 0.3-0.03 0.14-0.05 0.27-0.11 0.6-0.27 1.27-0.48 0.68-0.22 1.35-0.22 0.17 0 0.41-0.19 0.24-0.21 0.49-0.51 0.25-0.32 0.51-0.68 0.25-0.38 0.44-0.75 0.21-0.38 0.32-0.68 0.13-0.32 0.13-0.49z" id="path3455" style="-inkscape-font-specification:'special elite';font-family:'special elite';font-size:32.5"/>
      <path d="m44.48 175.31q0 0.22-0.08 0.43-0.06 0.19-0.16 0.33-0.08 0.14-0.16 0.24-0.06 0.1-0.06 0.11 0 0.16 0.1 0.33 0.11 0.17 0.11 0.38 0 0.1-0.08 0.13-0.06 0.03-0.14 0.03-0.14 0-0.24-0.03 0.02 0.3 0.05 0.59 0.05 0.29 0.05 0.59 0 0.46-0.1 0.6-0.08 0.13-0.17 0.16-0.1 0.03-0.19 0.08-0.08 0.03-0.08 0.29 0 0.14-0.21 0.36-0.19 0.22-0.48 0.44-0.27 0.22-0.57 0.38-0.29 0.16-0.46 0.16-0.05 0-0.11-0.03 0 0.13 0.02 0.27 0.02 0.14 0.02 0.27 0 0.21-0.13 0.29-0.13 0.06-0.29 0.13-0.24 0.11-0.49 0.33-0.25 0.21-0.52 0.43-0.27 0.22-0.56 0.38-0.27 0.17-0.57 0.17-0.25 0-0.48-0.13-0.21-0.13-0.49-0.13-0.25 0-0.43 0.06-0.17 0.08-0.33 0.16-0.14 0.1-0.3 0.16-0.16 0.08-0.36 0.08-0.41 0-0.83-0.22-0.41-0.21-0.79-0.33-0.22-0.08-0.48-0.13-0.25-0.03-0.49-0.08-0.24-0.05-0.46-0.16-0.21-0.1-0.36-0.29-0.33-0.41-0.78-0.68-0.44-0.27-0.9-0.51-0.46-0.24-0.89-0.49-0.43-0.27-0.75-0.7-0.24-0.33-0.54-0.71-0.3-0.4-0.57-0.83-0.25-0.43-0.43-0.87-0.17-0.44-0.17-0.87 0-0.32 0.06-0.62 0.06-0.3 0.13-0.6 0.08-0.32 0.14-0.62 0.06-0.3 0.06-0.62l0-0.17q0-0.06-0.05-0.14-0.05-0.08-0.11-0.14-0.05-0.08-0.11-0.13-0.05-0.06-0.06-0.06-0.03 0-0.03 0.02 0.02-0.14 0.08-0.43 0.08-0.3 0.17-0.6 0.1-0.32 0.19-0.57 0.1-0.27 0.17-0.35 0.1-0.08 0.17-0.16 0.1-0.1 0.1-0.24 0-0.14-0.02-0.27-0.02-0.14-0.02-0.29 0-0.19 0.05-0.22 0.05-0.05 0.13-0.05 0.08 0 0.16-0.02 0.08-0.03 0.16-0.17 0.14-0.29 0.27-0.52 0.14-0.25 0.3-0.46 0.16-0.21 0.36-0.38 0.21-0.17 0.51-0.33 0.25-0.14 0.49-0.35 0.25-0.21 0.51-0.41 0.25-0.21 0.51-0.35 0.27-0.14 0.57-0.14 0.43 0 0.83-0.14 0.41-0.16 0.83-0.24 0.65-0.1 1.29-0.17 0.65-0.1 1.32-0.1 0.36 0 0.89 0.13 0.52 0.11 1.06 0.3 0.56 0.19 1.03 0.43 0.49 0.24 0.78 0.48l0 0.05q0 0.22-0.08 0.46-0.08 0.22-0.08 0.44 0 0.03 0 0.06 0 0.03 0.03 0.03 0.27 0 0.51-0.06 0.25-0.08 0.52-0.08 0.03 0.27 0.24 0.36 0.21 0.1 0.41 0.17 0.19 0.1 0.35 0.35 0.17 0.24 0.32 0.56 0.14 0.3 0.27 0.6 0.14 0.3 0.27 0.49 0.13 0.19 0.22 0.46 0.11 0.25 0.17 0.54 0.08 0.29 0.11 0.57 0.03 0.27 0.03 0.51 0 0.32-0.13 0.54-0.11 0.21-0.25 0.38-0.14 0.16-0.27 0.32-0.11 0.14-0.11 0.33 0 0.11 0.05 0.21 0.05 0.1 0.13 0.17 0.03-0.02 0.13-0.03 0.11-0.02 0.11-0.1l0-0.02q0-0.13-0.11-0.24-0.1-0.11-0.1-0.27 0-0.03 0.03-0.1 0.03-0.08 0.08-0.08 0.1 0 0.19 0.13 0.1 0.11 0.17 0.25 0.1 0.13 0.14 0.22 0.05 0.1 0.05 0.06l-0.02-0.02q0.02 0.08 0.02 0.14 0.02 0.05 0.02 0.11zm-1.59 0.13q0-0.25-0.19-0.3-0.19-0.06-0.43-0.08-0.24-0.02-0.48-0.05-0.22-0.03-0.3-0.24l0-0.16q0-0.35-0.1-0.81-0.08-0.48-0.21-0.95-0.13-0.49-0.27-0.95-0.14-0.48-0.27-0.84-0.13-0.36-0.21-0.59-0.08-0.22-0.08-0.22-0.13 0.03-0.21 0.03-0.27 0-0.48-0.11-0.19-0.11-0.44-0.24-0.24-0.13-0.6-0.24-0.35-0.11-0.94-0.11-0.65 0-1.29-0.08-0.63-0.1-1.29-0.1-0.89 0-1.67 0.41-0.78 0.4-1.36 1.06-0.59 0.65-0.92 1.48-0.33 0.83-0.33 1.67 0 0.35 0.02 0.83 0.02 0.46 0.08 0.94 0.06 0.46 0.21 0.87 0.14 0.4 0.4 0.6l0 0.44q0.06 0.06 0.16 0.08 0.11 0 0.21 0 0.11 0 0.19 0.03 0.08 0.02 0.13 0.13 0.21 0.59 0.54 0.9 0.33 0.3 0.71 0.52 0.38 0.21 0.76 0.43 0.38 0.21 0.7 0.62 0.13-0.02 0.27-0.02 0.14-0.02 0.27-0.02 0.51 0 0.98 0.08 0.49 0.06 0.98 0.06 0.52 0 0.94-0.27 0.43-0.27 0.73-0.68 0.19-0.27 0.35-0.46 0.16-0.19 0.32-0.35 0.17-0.17 0.36-0.32 0.21-0.16 0.48-0.35 0.1-0.06 0.22-0.16 0.14-0.1 0.27-0.21 0.14-0.13 0.24-0.24 0.1-0.13 0.1-0.24 0-0.14-0.05-0.29-0.03-0.14-0.03-0.29 0-0.16 0.05-0.38 0.05-0.22 0.14-0.43 0.11-0.21 0.25-0.33 0.16-0.14 0.38-0.14 0.17 0 0.35 0.08 0.17 0.08 0.32 0.19 0.03-0.16 0.03-0.24z" id="path3457" style="-inkscape-font-specification:'special elite';font-family:'special elite';font-size:32.5"/>
      <path d="m61.43 177.41q0 0.21-0.08 0.41-0.06 0.19-0.16 0.4-0.1 0.19-0.19 0.38-0.08 0.19-0.11 0.4-0.08 0.43-0.33 0.78-0.24 0.33-0.56 0.63-0.32 0.3-0.67 0.59-0.35 0.27-0.62 0.56-0.24 0.24-0.51 0.24-0.16 0-0.3-0.03-0.14-0.03-0.3-0.03-0.22 0-0.36 0.08-0.13 0.08-0.25 0.17-0.11 0.08-0.29 0.16-0.16 0.08-0.44 0.08-0.21 0-0.4 0.11-0.19 0.11-0.38 0.11-0.27 0-0.63-0.16-0.35-0.16-0.78-0.16-0.27 0-0.54 0.03-0.27 0.02-0.54 0.02-0.24 0-0.48-0.06-0.22-0.08-0.44-0.16-0.21-0.1-0.43-0.16-0.22-0.08-0.46-0.08-0.48 0-0.81 0.24-0.33 0.24-0.6 0.52-0.25 0.3-0.52 0.54-0.25 0.24-0.59 0.24-0.3 0-0.41-0.11-0.1-0.1-0.13-0.24-0.02-0.14-0.03-0.32-0.02-0.16-0.14-0.29-0.24-0.25-0.32-0.46-0.08-0.22-0.08-0.57 0-0.76 0.13-1.48 0.14-0.73 0.14-1.49 0-0.27-0.06-0.52-0.06-0.25-0.16-0.46-0.08-0.21-0.14-0.35-0.06-0.14-0.06-0.21 0-0.14 0.08-0.3 0.08-0.16 0.17-0.29 0.11-0.14 0.22-0.22 0.13-0.1 0.21-0.1 0.16 0 0.27 0.08 0.13 0.08 0.24 0.17 0.13 0.08 0.24 0.16 0.13 0.08 0.3 0.08 0.03 0 0.05 0 0.02-0.02 0.05-0.02 0.22 0.36 0.35 0.79 0.13 0.41 0.25 0.83 0.14 0.4 0.33 0.78 0.21 0.36 0.57 0.65 0.1 0.08 0.22 0.17 0.13 0.1 0.25 0.19 0.14 0.1 0.27 0.16 0.14 0.06 0.25 0.06 0.17 0 0.33-0.03 0.17-0.03 0.35-0.03 0.24 0 0.24 0.16 0 0.03-0.03 0.13l0.19 0 0.11 0q0.6 0 1.21-0.14 0.6-0.14 1.22-0.14 0.29 0 0.57 0.06 0.3 0.05 0.54 0.22 0.3-0.14 0.51-0.36 0.21-0.22 0.41-0.43 0.21-0.22 0.46-0.38 0.25-0.17 0.65-0.19 0.08-0.1 0.08-0.22 0.02-0.13 0.02-0.24 0-0.13 0.02-0.24 0.03-0.11 0.13-0.21 0.16-0.14 0.24-0.29 0.1-0.16 0.1-0.38 0-0.43-0.24-0.79-0.24-0.38-0.62-0.68-0.36-0.32-0.86-0.56-0.48-0.25-0.98-0.43-0.49-0.17-0.95-0.25-0.46-0.1-0.81-0.1-0.4 0-0.79 0.08-0.38 0.06-0.75 0.24 0-0.35-0.16-0.46-0.16-0.11-0.38-0.16-0.22-0.05-0.46-0.13-0.22-0.1-0.35-0.4-0.27 0.35-0.68 0.51-0.4 0.16-0.81 0.16-0.41 0-0.76-0.16-0.35-0.16-0.63-0.43-0.27-0.27-0.44-0.62-0.16-0.35-0.17-0.75-0.02-0.27-0.11-0.48-0.1-0.21-0.21-0.4-0.11-0.19-0.21-0.4-0.08-0.21-0.08-0.49 0-0.71 0.06-1.11 0.08-0.41 0.19-0.62 0.11-0.22 0.24-0.3 0.14-0.1 0.29-0.17 0.14-0.1 0.27-0.25 0.13-0.16 0.21-0.51 0.05-0.24 0.14-0.32 0.1-0.08 0.33-0.11 0.21-0.03 0.27-0.1 0.06-0.06 0.08-0.14 0.03-0.08 0.06-0.16 0.03-0.1 0.16-0.17 0.33-0.22 0.65-0.27 0.33-0.06 0.68-0.06 0.21 0 0.4 0.02 0.19 0 0.41 0 0.67 0 1.3-0.06 0.63-0.06 1.3-0.06 0.51 0 0.92 0.11 0.43 0.1 0.75 0.22 0.32 0.13 0.54 0.24 0.24 0.1 0.38 0.1 0.27 0 0.51-0.1 0.25-0.11 0.52-0.13 0.13 0.11 0.29 0.21 0.17 0.08 0.35 0.08 0.13 0 0.19-0.08 0.06-0.08 0.08-0.21 0.22 0.06 0.43 0.22 0.21 0.16 0.36 0.38 0.17 0.21 0.27 0.46 0.1 0.24 0.1 0.46 0 0.59-0.1 1.17-0.08 0.57-0.08 1.16 0 0.6 0.16 1.13-0.22 0.17-0.49 0.32-0.25 0.13-0.43 0.36l-0.02-0.02q-0.11-0.1-0.29-0.24-0.16-0.16-0.35-0.3-0.17-0.14-0.35-0.24-0.17-0.11-0.32-0.11l-0.03 0q-0.08-0.05-0.14-0.11-0.05-0.06-0.05-0.16 0-0.16 0.1-0.29 0.1-0.13 0.1-0.29 0-0.05-0.14-0.22-0.14-0.17-0.33-0.35-0.17-0.19-0.35-0.33-0.17-0.16-0.25-0.17-0.16-0.03-0.33-0.11-0.17-0.08-0.35-0.16-0.17-0.08-0.33-0.14-0.14-0.06-0.24-0.06-0.21 0-0.41 0.06-0.21 0.05-0.43 0.06l0.02 0-0.71-0.08q-0.52-0.06-1.03-0.25-0.51-0.19-1.05-0.19-0.48 0-0.7 0.22-0.22 0.22-0.36 0.51-0.14 0.27-0.29 0.49-0.14 0.22-0.48 0.22-0.1 0-0.14-0.02 0.16 0.51 0.29 0.86 0.14 0.35 0.33 0.63 0.19 0.27 0.48 0.52 0.29 0.24 0.73 0.52 0.05 0.03 0.13 0.11 0.1 0.08 0.19 0.17 0.1 0.08 0.17 0.14 0.1 0.06 0.14 0.06 0.27 0 0.51-0.13 0.25-0.13 0.52-0.13 0.19 0 0.35 0.1 0.17 0.08 0.36 0.08 0.19 0 0.36-0.06 0.17-0.08 0.38-0.08 0.08 0 0.16 0.02 0.1 0.02 0.17 0.03 0.48 0.13 0.95 0.13 0.48-0.02 0.97 0 0.35 0 0.7 0.13 0.36 0.13 0.7 0.33 0.33 0.19 0.62 0.44 0.29 0.25 0.49 0.52 0.16 0.22 0.35 0.4 0.19 0.17 0.36 0.36 0.19 0.17 0.33 0.38 0.14 0.21 0.21 0.48 0.08 0.32 0.21 0.7 0.14 0.38 0.14 0.68z" id="path3459" style="-inkscape-font-specification:'special elite';font-family:'special elite';font-size:32.5"/>
      <path d="m78.31 177.41q0 0.21-0.08 0.41-0.06 0.19-0.16 0.4-0.1 0.19-0.19 0.38-0.08 0.19-0.11 0.4-0.08 0.43-0.33 0.78-0.24 0.33-0.56 0.63-0.32 0.3-0.67 0.59-0.35 0.27-0.62 0.56-0.24 0.24-0.51 0.24-0.16 0-0.3-0.03-0.14-0.03-0.3-0.03-0.22 0-0.36 0.08-0.13 0.08-0.25 0.17-0.11 0.08-0.29 0.16-0.16 0.08-0.44 0.08-0.21 0-0.4 0.11-0.19 0.11-0.38 0.11-0.27 0-0.63-0.16-0.35-0.16-0.78-0.16-0.27 0-0.54 0.03-0.27 0.02-0.54 0.02-0.24 0-0.48-0.06-0.22-0.08-0.44-0.16-0.21-0.1-0.43-0.16-0.22-0.08-0.46-0.08-0.48 0-0.81 0.24-0.33 0.24-0.6 0.52-0.25 0.3-0.52 0.54-0.25 0.24-0.59 0.24-0.3 0-0.41-0.11-0.1-0.1-0.13-0.24-0.02-0.14-0.03-0.32-0.02-0.16-0.14-0.29-0.24-0.25-0.32-0.46-0.08-0.22-0.08-0.57 0-0.76 0.13-1.48 0.14-0.73 0.14-1.49 0-0.27-0.06-0.52-0.06-0.25-0.16-0.46-0.08-0.21-0.14-0.35-0.06-0.14-0.06-0.21 0-0.14 0.08-0.3 0.08-0.16 0.17-0.29 0.11-0.14 0.22-0.22 0.13-0.1 0.21-0.1 0.16 0 0.27 0.08 0.13 0.08 0.24 0.17 0.13 0.08 0.24 0.16 0.13 0.08 0.3 0.08 0.03 0 0.05 0 0.02-0.02 0.05-0.02 0.22 0.36 0.35 0.79 0.13 0.41 0.25 0.83 0.14 0.4 0.33 0.78 0.21 0.36 0.57 0.65 0.1 0.08 0.22 0.17 0.13 0.1 0.25 0.19 0.14 0.1 0.27 0.16 0.14 0.06 0.25 0.06 0.17 0 0.33-0.03 0.17-0.03 0.35-0.03 0.24 0 0.24 0.16 0 0.03-0.03 0.13l0.19 0 0.11 0q0.6 0 1.21-0.14 0.6-0.14 1.22-0.14 0.29 0 0.57 0.06 0.3 0.05 0.54 0.22 0.3-0.14 0.51-0.36 0.21-0.22 0.41-0.43 0.21-0.22 0.46-0.38 0.25-0.17 0.65-0.19 0.08-0.1 0.08-0.22 0.02-0.13 0.02-0.24 0-0.13 0.02-0.24 0.03-0.11 0.13-0.21 0.16-0.14 0.24-0.29 0.1-0.16 0.1-0.38 0-0.43-0.24-0.79-0.24-0.38-0.62-0.68-0.36-0.32-0.86-0.56-0.48-0.25-0.98-0.43-0.49-0.17-0.95-0.25-0.46-0.1-0.81-0.1-0.4 0-0.79 0.08-0.38 0.06-0.75 0.24 0-0.35-0.16-0.46-0.16-0.11-0.38-0.16-0.22-0.05-0.46-0.13-0.22-0.1-0.35-0.4-0.27 0.35-0.68 0.51-0.4 0.16-0.81 0.16-0.41 0-0.76-0.16-0.35-0.16-0.63-0.43-0.27-0.27-0.44-0.62-0.16-0.35-0.17-0.75-0.02-0.27-0.11-0.48-0.1-0.21-0.21-0.4-0.11-0.19-0.21-0.4-0.08-0.21-0.08-0.49 0-0.71 0.06-1.11 0.08-0.41 0.19-0.62 0.11-0.22 0.24-0.3 0.14-0.1 0.29-0.17 0.14-0.1 0.27-0.25 0.13-0.16 0.21-0.51 0.05-0.24 0.14-0.32 0.1-0.08 0.33-0.11 0.21-0.03 0.27-0.1 0.06-0.06 0.08-0.14 0.03-0.08 0.06-0.16 0.03-0.1 0.16-0.17 0.33-0.22 0.65-0.27 0.33-0.06 0.68-0.06 0.21 0 0.4 0.02 0.19 0 0.41 0 0.67 0 1.3-0.06 0.63-0.06 1.3-0.06 0.51 0 0.92 0.11 0.43 0.1 0.75 0.22 0.32 0.13 0.54 0.24 0.24 0.1 0.38 0.1 0.27 0 0.51-0.1 0.25-0.11 0.52-0.13 0.13 0.11 0.29 0.21 0.17 0.08 0.35 0.08 0.13 0 0.19-0.08 0.06-0.08 0.08-0.21 0.22 0.06 0.43 0.22 0.21 0.16 0.36 0.38 0.17 0.21 0.27 0.46 0.1 0.24 0.1 0.46 0 0.59-0.1 1.17-0.08 0.57-0.08 1.16 0 0.6 0.16 1.13-0.22 0.17-0.49 0.32-0.25 0.13-0.43 0.36l-0.02-0.02q-0.11-0.1-0.29-0.24-0.16-0.16-0.35-0.3-0.17-0.14-0.35-0.24-0.17-0.11-0.32-0.11l-0.03 0q-0.08-0.05-0.14-0.11-0.05-0.06-0.05-0.16 0-0.16 0.1-0.29 0.1-0.13 0.1-0.29 0-0.05-0.14-0.22-0.14-0.17-0.33-0.35-0.17-0.19-0.35-0.33-0.17-0.16-0.25-0.17-0.16-0.03-0.33-0.11-0.17-0.08-0.35-0.16-0.17-0.08-0.33-0.14-0.14-0.06-0.24-0.06-0.21 0-0.41 0.06-0.21 0.05-0.43 0.06l0.02 0-0.71-0.08q-0.52-0.06-1.03-0.25-0.51-0.19-1.05-0.19-0.48 0-0.7 0.22-0.22 0.22-0.36 0.51-0.14 0.27-0.29 0.49-0.14 0.22-0.48 0.22-0.1 0-0.14-0.02 0.16 0.51 0.29 0.86 0.14 0.35 0.33 0.63 0.19 0.27 0.48 0.52 0.29 0.24 0.73 0.52 0.05 0.03 0.13 0.11 0.1 0.08 0.19 0.17 0.1 0.08 0.17 0.14 0.1 0.06 0.14 0.06 0.27 0 0.51-0.13 0.25-0.13 0.52-0.13 0.19 0 0.35 0.1 0.17 0.08 0.36 0.08 0.19 0 0.36-0.06 0.17-0.08 0.38-0.08 0.08 0 0.16 0.02 0.1 0.02 0.17 0.03 0.48 0.13 0.95 0.13 0.48-0.02 0.97 0 0.35 0 0.7 0.13 0.36 0.13 0.7 0.33 0.33 0.19 0.62 0.44 0.29 0.25 0.49 0.52 0.16 0.22 0.35 0.4 0.19 0.17 0.36 0.36 0.19 0.17 0.33 0.38 0.14 0.21 0.21 0.48 0.08 0.32 0.21 0.7 0.14 0.38 0.14 0.68z" id="path3461" style="-inkscape-font-specification:'special elite';font-family:'special elite';font-size:32.5"/>
      <path d="m97.23 175.31q0 0.22-0.08 0.43-0.06 0.19-0.16 0.33-0.08 0.14-0.16 0.24-0.06 0.1-0.06 0.11 0 0.16 0.1 0.33 0.11 0.17 0.11 0.38 0 0.1-0.08 0.13-0.06 0.03-0.14 0.03-0.14 0-0.24-0.03 0.02 0.3 0.05 0.59 0.05 0.29 0.05 0.59 0 0.46-0.1 0.6-0.08 0.13-0.17 0.16-0.1 0.03-0.19 0.08-0.08 0.03-0.08 0.29 0 0.14-0.21 0.36-0.19 0.22-0.48 0.44-0.27 0.22-0.57 0.38-0.29 0.16-0.46 0.16-0.05 0-0.11-0.03 0 0.13 0.02 0.27 0.02 0.14 0.02 0.27 0 0.21-0.13 0.29-0.13 0.06-0.29 0.13-0.24 0.11-0.49 0.33-0.25 0.21-0.52 0.43-0.27 0.22-0.56 0.38-0.27 0.17-0.57 0.17-0.25 0-0.48-0.13-0.21-0.13-0.49-0.13-0.25 0-0.43 0.06-0.17 0.08-0.33 0.16-0.14 0.1-0.3 0.16-0.16 0.08-0.36 0.08-0.41 0-0.83-0.22-0.41-0.21-0.79-0.33-0.22-0.08-0.48-0.13-0.25-0.03-0.49-0.08-0.24-0.05-0.46-0.16-0.21-0.1-0.36-0.29-0.33-0.41-0.78-0.68-0.44-0.27-0.9-0.51-0.46-0.24-0.89-0.49-0.43-0.27-0.75-0.7-0.24-0.33-0.54-0.71-0.3-0.4-0.57-0.83-0.25-0.43-0.43-0.87-0.17-0.44-0.17-0.87 0-0.32 0.06-0.62 0.06-0.3 0.13-0.6 0.08-0.32 0.14-0.62 0.06-0.3 0.06-0.62l0-0.17q0-0.06-0.05-0.14-0.05-0.08-0.11-0.14-0.05-0.08-0.11-0.13-0.05-0.06-0.06-0.06-0.03 0-0.03 0.02 0.02-0.14 0.08-0.43 0.08-0.3 0.17-0.6 0.1-0.32 0.19-0.57 0.1-0.27 0.17-0.35 0.1-0.08 0.17-0.16 0.1-0.1 0.1-0.24 0-0.14-0.02-0.27-0.02-0.14-0.02-0.29 0-0.19 0.05-0.22 0.05-0.05 0.13-0.05 0.08 0 0.16-0.02 0.08-0.03 0.16-0.17 0.14-0.29 0.27-0.52 0.14-0.25 0.3-0.46 0.16-0.21 0.36-0.38 0.21-0.17 0.51-0.33 0.25-0.14 0.49-0.35 0.25-0.21 0.51-0.41 0.25-0.21 0.51-0.35 0.27-0.14 0.57-0.14 0.43 0 0.83-0.14 0.41-0.16 0.83-0.24 0.65-0.1 1.29-0.17 0.65-0.1 1.32-0.1 0.36 0 0.89 0.13 0.52 0.11 1.06 0.3 0.56 0.19 1.03 0.43 0.49 0.24 0.78 0.48l0 0.05q0 0.22-0.08 0.46-0.08 0.22-0.08 0.44 0 0.03 0 0.06 0 0.03 0.03 0.03 0.27 0 0.51-0.06 0.25-0.08 0.52-0.08 0.03 0.27 0.24 0.36 0.21 0.1 0.41 0.17 0.19 0.1 0.35 0.35 0.17 0.24 0.32 0.56 0.14 0.3 0.27 0.6 0.14 0.3 0.27 0.49 0.13 0.19 0.22 0.46 0.11 0.25 0.17 0.54 0.08 0.29 0.11 0.57 0.03 0.27 0.03 0.51 0 0.32-0.13 0.54-0.11 0.21-0.25 0.38-0.14 0.16-0.27 0.32-0.11 0.14-0.11 0.33 0 0.11 0.05 0.21 0.05 0.1 0.13 0.17 0.03-0.02 0.13-0.03 0.11-0.02 0.11-0.1l0-0.02q0-0.13-0.11-0.24-0.1-0.11-0.1-0.27 0-0.03 0.03-0.1 0.03-0.08 0.08-0.08 0.1 0 0.19 0.13 0.1 0.11 0.17 0.25 0.1 0.13 0.14 0.22 0.05 0.1 0.05 0.06l-0.02-0.02q0.02 0.08 0.02 0.14 0.02 0.05 0.02 0.11zm-1.59 0.13q0-0.25-0.19-0.3-0.19-0.06-0.43-0.08-0.24-0.02-0.48-0.05-0.22-0.03-0.3-0.24l0-0.16q0-0.35-0.1-0.81-0.08-0.48-0.21-0.95-0.13-0.49-0.27-0.95-0.14-0.48-0.27-0.84-0.13-0.36-0.21-0.59-0.08-0.22-0.08-0.22-0.13 0.03-0.21 0.03-0.27 0-0.48-0.11-0.19-0.11-0.44-0.24-0.24-0.13-0.6-0.24-0.35-0.11-0.94-0.11-0.65 0-1.29-0.08-0.63-0.1-1.29-0.1-0.89 0-1.67 0.41-0.78 0.4-1.36 1.06-0.59 0.65-0.92 1.48-0.33 0.83-0.33 1.67 0 0.35 0.02 0.83 0.02 0.46 0.08 0.94 0.06 0.46 0.21 0.87 0.14 0.4 0.4 0.6l0 0.44q0.06 0.06 0.16 0.08 0.11 0 0.21 0 0.11 0 0.19 0.03 0.08 0.02 0.13 0.13 0.21 0.59 0.54 0.9 0.33 0.3 0.71 0.52 0.38 0.21 0.76 0.43 0.38 0.21 0.7 0.62 0.13-0.02 0.27-0.02 0.14-0.02 0.27-0.02 0.51 0 0.98 0.08 0.49 0.06 0.98 0.06 0.52 0 0.94-0.27 0.43-0.27 0.73-0.68 0.19-0.27 0.35-0.46 0.16-0.19 0.32-0.35 0.17-0.17 0.36-0.32 0.21-0.16 0.48-0.35 0.1-0.06 0.22-0.16 0.14-0.1 0.27-0.21 0.14-0.13 0.24-0.24 0.1-0.13 0.1-0.24 0-0.14-0.05-0.29-0.03-0.14-0.03-0.29 0-0.16 0.05-0.38 0.05-0.22 0.14-0.43 0.11-0.21 0.25-0.33 0.16-0.14 0.38-0.14 0.17 0 0.35 0.08 0.17 0.08 0.32 0.19 0.03-0.16 0.03-0.24z" id="path3463" style="-inkscape-font-specification:'special elite';font-family:'special elite';font-size:32.5"/>
    </g>
    <g id="text3418-0-5-5" style="fill:#000;font-family:sans-serif;font-size:40;letter-spacing:0;line-height:125;word-spacing:0">
      <path d="m26.69 241.36q0 0.57-0.19 0.9-0.17 0.32-0.48 0.52-0.29 0.19-0.67 0.32-0.38 0.11-0.78 0.25-0.38 0.13-0.76 0.35-0.38 0.21-0.68 0.59-0.27 0.35-0.41 0.78-0.14 0.41-0.25 0.86-0.11 0.44-0.25 0.89-0.13 0.43-0.41 0.81-0.08 0.11-0.14 0.22-0.05 0.1-0.05 0.24 0 0.19 0.05 0.38 0.05 0.17 0.05 0.35 0 0.16-0.06 0.56-0.05 0.38-0.14 0.87-0.1 0.48-0.24 1-0.13 0.52-0.29 0.97-0.14 0.44-0.32 0.75-0.16 0.3-0.32 0.35 0.25 0.71 0.25 1.56 0 0.51-0.05 0.7-0.03 0.17-0.11 0.24-0.06 0.06-0.16 0.13-0.08 0.06-0.16 0.32-0.19 0.6-0.44 1.19-0.24 0.59-0.24 1.22 0 0.16-0.08 0.48-0.06 0.3-0.19 0.62-0.13 0.32-0.29 0.56-0.16 0.24-0.35 0.24 0.02 0.16 0.08 0.3 0.08 0.14 0.16 0.29 0.1 0.13 0.16 0.29 0.08 0.14 0.08 0.3 0 0.05-0.1 0.29-0.08 0.24-0.22 0.52-0.14 0.29-0.32 0.56-0.17 0.27-0.36 0.38-0.13 0.08-0.32 0.16-0.17 0.1-0.36 0.16-0.19 0.08-0.4 0.13-0.19 0.05-0.35 0.05-0.08 0-0.33-0.1-0.24-0.08-0.52-0.21-0.27-0.11-0.52-0.22-0.24-0.13-0.29-0.17-0.13-0.13-0.27-0.51-0.13-0.4-0.27-0.86-0.13-0.48-0.24-0.9-0.11-0.44-0.19-0.67-0.21-0.56-0.4-1.09-0.19-0.56-0.35-1.11-0.08-0.25-0.14-0.49-0.06-0.25-0.17-0.48l0-0.1q0-0.24 0.08-0.44 0.1-0.22 0.1-0.46 0-0.16-0.08-0.35-0.19-0.6-0.35-1.21-0.16-0.6-0.33-1.21-0.08-0.29-0.22-0.59-0.13-0.3-0.25-0.6-0.13-0.32-0.22-0.62-0.08-0.32-0.08-0.6 0-0.46 0.24-0.84-0.14-0.38-0.3-0.75-0.14-0.38-0.25-0.78-0.16-0.59-0.21-1.14-0.05-0.56-0.13-1.09-0.06-0.54-0.22-1.06-0.14-0.54-0.51-1.08-0.25-0.36-0.46-0.52-0.21-0.17-0.43-0.24-0.22-0.08-0.49-0.1-0.27-0.02-0.65-0.08-0.52-0.1-0.95-0.43-0.43-0.33-0.43-0.92 0-0.3 0.19-0.49 0.21-0.19 0.52-0.3 0.32-0.11 0.71-0.16 0.4-0.06 0.78-0.1 0.38-0.05 0.71-0.08 0.33-0.03 0.52-0.11 0.24-0.08 0.46-0.14 0.24-0.06 0.51-0.06 0.33 0 0.65 0.05 0.32 0.05 0.65 0.08 0.38 0.03 0.73 0.06 0.36 0.03 0.67 0.14 0.32 0.11 0.56 0.35 0.24 0.22 0.36 0.65 0.08 0.24 0.08 0.44 0 0.33-0.19 0.57-0.17 0.22-0.44 0.4-0.25 0.16-0.56 0.3-0.3 0.13-0.54 0.25l0.02 0.14q0 0.29-0.1 0.56-0.1 0.27-0.36 0.43 0.27 0.17 0.33 0.46 0.06 0.27 0.06 0.59 0.02 0.32 0.05 0.65 0.03 0.32 0.24 0.57 0.27 0.33 0.33 0.7 0.08 0.36 0.08 0.76l0 0.59q0 0.27 0.02 0.54 0.03 0.25 0.13 0.51 0.05 0.14 0.11 0.29 0.06 0.13 0.06 0.29 0 0.14-0.08 0.24-0.08 0.1-0.21 0.16 0.17 0.41 0.35 0.87 0.17 0.44 0.56 0.71-0.02 0.08-0.02 0.17 0 0.1 0 0.17 0 0.22 0.03 0.48 0.03 0.25 0.08 0.51 0.06 0.25 0.14 0.49 0.08 0.24 0.19 0.43l0.03 0.02 0 0.08q0 0.21-0.13 0.38-0.11 0.16-0.11 0.36 0 0.16 0.1 0.36 0.11 0.19 0.25 0.4 0.14 0.19 0.3 0.38 0.16 0.17 0.25 0.29l0.1 0q0.35 0 0.59-0.14 0.24-0.16 0.38-0.4 0.16-0.24 0.24-0.54 0.1-0.3 0.17-0.6 0.05-0.16 0.13-0.62 0.08-0.46 0.21-0.95 0.13-0.49 0.29-0.87 0.17-0.4 0.36-0.4l0.03 0q-0.03-0.14-0.11-0.27-0.08-0.13-0.17-0.25-0.08-0.14-0.14-0.27-0.06-0.13-0.06-0.27 0-0.13 0.03-0.24 0.05-0.13 0.11-0.24 0.19-0.41 0.3-0.7 0.13-0.3 0.19-0.57 0.08-0.29 0.13-0.59 0.05-0.32 0.1-0.76 0.02-0.13 0.14-0.48 0.13-0.36 0.29-0.75 0.17-0.4 0.33-0.73 0.16-0.35 0.24-0.46l0 0.02q0.02-0.08 0.02-0.13 0.02-0.06 0.02-0.14 0-0.1-0.05-0.19-0.03-0.1-0.03-0.19 0-0.22 0.14-0.38 0.14-0.17 0.14-0.4 0-0.22-0.13-0.43-0.13-0.22-0.3-0.41-0.17-0.19-0.38-0.36-0.19-0.17-0.33-0.32l-0.46 0q-0.17-0.21-0.27-0.44-0.08-0.25-0.25-0.46-0.1-0.1-0.19-0.21-0.1-0.11-0.1-0.25 0-0.17 0.08-0.4 0.1-0.22 0.14-0.4 0.06-0.27 0.11-0.38 0.06-0.13 0.14-0.17 0.1-0.06 0.22-0.08 0.14-0.03 0.38-0.11 0.25-0.1 0.51-0.1 0.14 0 0.27 0.02 0.14 0.02 0.27 0.02 0.17 0 0.43-0.06 0.25-0.08 0.54-0.16 0.3-0.1 0.63-0.16 0.33-0.08 0.67-0.08 0.38 0 0.73 0.13 0.35 0.13 0.73 0.13 0.13 0 0.25-0.02 0.14-0.02 0.27-0.02 0.22 0 0.41 0.06 0.21 0.06 0.4 0.16 0.24 0.11 0.49 0.19 0.25 0.06 0.51 0.14 0.27 0.06 0.52 0.16 0.25 0.1 0.48 0.24l0 0.27 0 0z" id="path3466" style="-inkscape-font-specification:'special elite';font-family:'special elite';font-size:32.5"/>
      <path d="m41.25 260.16q0 0.43-0.14 0.73-0.13 0.3-0.35 0.54-0.21 0.24-0.49 0.44-0.27 0.21-0.56 0.44-0.22 0.19-0.4 0.29-0.17 0.1-0.35 0.16-0.16 0.06-0.35 0.13-0.17 0.06-0.41 0.17-0.32 0.16-0.54 0.3-0.21 0.13-0.43 0.24-0.21 0.11-0.46 0.17-0.25 0.08-0.63 0.13-0.63 0.08-1.29 0.19-0.63 0.11-1.27 0.11-0.13 0-0.27-0.06-0.13-0.05-0.3-0.11-0.17-0.05-0.4-0.11-0.21-0.05-0.51-0.05-0.32 0-0.51-0.1-0.19-0.1-0.35-0.22-0.14-0.13-0.3-0.27-0.16-0.16-0.41-0.27-0.95-0.43-1.62-1.03-0.67-0.6-1.14-1.35-0.48-0.75-0.79-1.62-0.32-0.87-0.54-1.82-0.17-0.67-0.17-1.33 0-0.87 0.41-1.62-0.16-0.44-0.16-0.86 0-0.3 0.17-0.89 0.17-0.6 0.44-1.21 0.29-0.6 0.6-1.08 0.33-0.49 0.62-0.6 0.22-0.08 0.3-0.13 0.1-0.06 0.1-0.32 0-0.19 0.14-0.32 0.16-0.13 0.36-0.21 0.22-0.08 0.43-0.14 0.22-0.06 0.36-0.13 0.59-0.29 1.11-0.48 0.54-0.21 1.06-0.33 0.54-0.14 1.11-0.21 0.57-0.06 1.22-0.06 0.35 0 0.68 0.1 0.33 0.1 0.63 0.25 0.32 0.14 0.62 0.33 0.3 0.17 0.59 0.35l-0.02 0q0.24 0.03 0.44 0.14 0.22 0.1 0.46 0.13 0.22 0.27 0.57 0.52 0.36 0.24 0.7 0.51 0.35 0.27 0.59 0.59 0.25 0.3 0.25 0.7 0 0.06-0.02 0.13 0 0.06-0.02 0.14l0.06-0.08q0.06 0.05 0.11 0.16 0.06 0.11 0.11 0.25 0.05 0.13 0.08 0.27 0.03 0.13 0.05 0.21 0.13 0.21 0.33 0.33 0.22 0.13 0.35 0.35-0.16 0.16-0.16 0.41 0 0.27 0.11 0.54 0.11 0.25 0.11 0.52 0 0.32-0.03 0.62-0.03 0.29-0.03 0.6 0 0.24-0.19 0.36-0.17 0.13-0.4 0.22-0.21 0.1-0.38 0.19-0.17 0.1-0.17 0.27 0 0.13-0.16 0.13-0.14-0.02-0.24-0.02-0.7 0-1.4-0.17-0.68-0.17-1.36-0.17-0.75 0-1.48 0.11-0.73 0.1-1.48 0.1-0.56 0-1.11-0.03-0.54-0.03-1.09-0.03-0.14 0-0.54 0.06-0.4 0.05-0.84 0.14-0.43 0.08-0.83 0.21-0.4 0.11-0.56 0.22-0.02 0.08-0.02 0.22 0 0.75 0.43 1.54 0.44 0.79 1.16 1.44 0.71 0.65 1.6 1.08 0.89 0.43 1.79 0.43 0.52 0 1.03 0.05 0.52 0.03 1.02 0.22 0.43-0.21 0.78-0.48 0.36-0.27 0.7-0.57 0.33-0.3 0.65-0.62 0.32-0.32 0.65-0.63 0.06-0.06 0.3-0.11 0.25-0.06 0.54-0.1 0.29-0.05 0.54-0.06 0.27-0.03 0.36-0.03 0.36 0 0.68 0.11 0.1 0.36 0.1 0.71zm-2.38-6.44q0-0.24-0.08-0.46-0.08-0.22-0.13-0.46-0.08-0.44-0.08-0.86 0-0.43-0.13-0.86l-0.02 0q0 0.1-0.06 0.19-0.06 0.08-0.17 0.08-0.19 0-0.36-0.1-0.17-0.1-0.3-0.24-0.6-0.27-1.09-0.51-0.48-0.24-0.97-0.41-0.48-0.19-1.03-0.29-0.54-0.11-1.25-0.11-0.06 0-0.13 0.02-0.05 0-0.1 0.05l0.08 0.17-0.13 0.03q-0.43 0.08-0.71 0.16-0.27 0.06-0.49 0.19-0.22 0.13-0.44 0.32-0.21 0.17-0.54 0.46-0.16 0.14-0.35 0.22-0.17 0.06-0.36 0.13-0.17 0.05-0.35 0.11-0.16 0.06-0.27 0.21-0.11 0.4-0.33 0.78-0.21 0.36-0.21 0.78 0 0.24 0.19 0.43 0.21 0.17 0.51 0.3 0.32 0.13 0.68 0.22 0.38 0.1 0.75 0.14 0.36 0.05 0.67 0.08 0.32 0.02 0.49 0.02 0.6 0 1.19-0.11 0.59-0.13 1.19-0.13 0.62 0 1.24 0.06 0.62 0.05 1.24 0.05 0.16 0 0.48-0.02 0.32-0.02 0.62-0.08 0.32-0.08 0.54-0.21 0.24-0.14 0.24-0.36z" id="path3468" style="-inkscape-font-specification:'special elite';font-family:'special elite';font-size:32.5"/>
      <path d="m61.06 251.89q0 0.32-0.13 0.54-0.13 0.22-0.29 0.43-0.14 0.19-0.3 0.4-0.14 0.21-0.19 0.49-0.14-0.06-0.3-0.08-0.14-0.02-0.3-0.02-0.38 0-0.76 0.06-0.36 0.05-0.73 0.05-0.43 0-0.71-0.25-0.27-0.27-0.44-0.65-0.16-0.38-0.22-0.81-0.06-0.44-0.06-0.79 0-0.44 0.14-0.9-0.13-0.05-0.22-0.05-0.21 0-0.3 0.13-0.08 0.13-0.24 0.13-0.14 0-0.25-0.1-0.11-0.11-0.27-0.11-0.24 0-0.6 0.16-0.35 0.14-0.68 0.38-0.33 0.24-0.59 0.52-0.24 0.27-0.24 0.52-0.33 0.03-0.63 0.19-0.29 0.14-0.56 0.32-0.21 0.13-0.35 0.4-0.14 0.27-0.27 0.59-0.11 0.3-0.24 0.62-0.11 0.32-0.27 0.52-0.27 0.35-0.48 0.71-0.19 0.35-0.19 0.79 0 0.56 0.17 1.13 0.17 0.57 0.17 1.16 0 0.38-0.06 0.76-0.05 0.38-0.05 0.75 0 0.44 0.16 0.71 0.16 0.27 0.43 0.43 0.27 0.14 0.62 0.19 0.35 0.05 0.71 0.05 0.4 0 0.76-0.02 0.38-0.03 0.7-0.03 0.11 0.13 0.13 0.24 0.02 0.11-0.02 0.24-0.02 0.11-0.06 0.24-0.03 0.11-0.03 0.27 0 0.06 0.03 0.16 0.24 0 0.41-0.11 0.17-0.11 0.25-0.35 0.11 0.03 0.19 0.1 0.1 0.06 0.1 0.19 0 0.1-0.05 0.19-0.05 0.08-0.11 0.16-0.06 0.08-0.11 0.17-0.05 0.08-0.05 0.19 0 0.06 0.02 0.14 0.02 0.06 0.05 0.11-0.08 0.13-0.22 0.17-0.14 0.05-0.29 0.05-0.25 0-0.43-0.08-0.16-0.08-0.3-0.17-0.13-0.1-0.24-0.17-0.11-0.08-0.27-0.08-0.06 0-0.19 0.03-0.13 0.03-0.25 0.08-0.13 0.05-0.22 0.13-0.1 0.06-0.1 0.13 0 0.13 0.08 0.22 0.1 0.1 0.1 0.22 0 0.11-0.08 0.17-0.08 0.06-0.19 0.08-0.11 0.03-0.24 0.03-0.11 0.02-0.19 0.02-0.62 0-1.24-0.14-0.6-0.13-1.22-0.13-0.29 0-0.57 0.13-0.29 0.13-0.6 0.13-0.17 0-0.27-0.08-0.08-0.06-0.14-0.16-0.06-0.1-0.14-0.17-0.08-0.06-0.24-0.06-0.3 0-0.6 0.06-0.29 0.06-0.59 0.13-0.29 0.08-0.59 0.13-0.29 0.06-0.59 0.06-0.16 0-0.38-0.05-0.22-0.03-0.43-0.13-0.21-0.1-0.35-0.24-0.14-0.14-0.14-0.35 0-0.13 0.14-0.33 0.16-0.21 0.35-0.4 0.19-0.21 0.38-0.35 0.19-0.14 0.29-0.14 0.25 0 0.49 0.02 0.25 0.02 0.52 0.02 0.43 0 0.86-0.13 0.44-0.14 0.79-0.4 0.36-0.25 0.59-0.63 0.22-0.38 0.22-0.86 0-0.21-0.03-0.4-0.03-0.21-0.03-0.41 0-0.41 0.1-0.83 0.1-0.41 0.1-0.83 0-0.56-0.13-1.13-0.11-0.59-0.11-1.17 0-0.52 0.02-1.03 0.03-0.52 0.03-1.05 0-0.24-0.02-0.7-0.02-0.46-0.11-0.92-0.08-0.46-0.27-0.81-0.17-0.35-0.49-0.35-0.35 0-0.7 0.08-0.35 0.08-0.71 0.08-0.27 0-0.63-0.03-0.36-0.05-0.7-0.16-0.33-0.13-0.57-0.35-0.24-0.22-0.24-0.59 0-0.4 0.11-0.63 0.11-0.25 0.29-0.38 0.19-0.13 0.43-0.17 0.25-0.05 0.54-0.05 0.25 0 0.52 0.02 0.27 0.02 0.52 0.02 0.51 0 1-0.05 0.51-0.06 1.02-0.06 0.35 0 0.7 0.03 0.35 0.03 0.68 0.14 0.3 0.1 0.44 0.36 0.14 0.25 0.25 0.52 0.13 0.27 0.29 0.49 0.16 0.21 0.51 0.21 0.16 0 0.29-0.08 0.14-0.1 0.27-0.21 0.13-0.11 0.25-0.21 0.13-0.1 0.3-0.13 0.35-0.05 0.63-0.22 0.3-0.17 0.59-0.35 0.29-0.17 0.57-0.32 0.3-0.14 0.65-0.14 0.21 0 0.51-0.05 0.32-0.05 0.62-0.13 0.32-0.1 0.59-0.22 0.29-0.13 0.44-0.29 0.43 0.03 1 0.21 0.59 0.17 1.11 0.48 0.54 0.29 0.94 0.68 0.4 0.4 0.46 0.89 0.05 0.3 0.17 0.57 0.13 0.27 0.25 0.54 0.14 0.25 0.25 0.54 0.11 0.27 0.11 0.57z" id="path3470" style="-inkscape-font-specification:'special elite';font-family:'special elite';font-size:32.5"/>
      <path d="m80.93 262.8q0 0.21-0.11 0.41-0.1 0.21-0.33 0.21-0.17 0-0.32-0.03-0.14-0.05-0.32-0.05-0.25 0-0.27 0.1 0 0.1-0.03 0.21-0.03 0.13-0.24 0.22-0.19 0.1-0.83 0.1-0.36 0-0.73-0.06-0.35-0.06-0.71-0.06-0.27 0-0.59 0.08-0.13-0.16-0.29-0.24-0.14-0.08-0.29-0.17-0.13-0.08-0.22-0.21-0.1-0.13-0.1-0.38 0-0.17-0.22-0.17-0.08 0-0.16 0.02-0.06 0.02-0.14 0.02-0.08 0-0.14-0.03-0.05-0.05-0.05-0.13 0-0.03 0.02-0.05-0.33 0.02-0.51 0.22-0.17 0.21-0.38 0.43-0.14 0.14-0.3 0.22-0.16 0.06-0.33 0.11-0.16 0.06-0.35 0.14-0.17 0.08-0.35 0.24-0.14 0.14-0.48 0.21-0.33 0.08-0.71 0.11-0.36 0.05-0.73 0.05-0.35 0.02-0.56 0.02-0.48 0-0.78-0.08-0.29-0.08-0.52-0.21-0.22-0.11-0.48-0.25-0.25-0.13-0.65-0.25-0.43-0.13-1.03-0.48-0.6-0.35-1.16-0.81-0.54-0.46-0.92-0.98-0.38-0.54-0.38-1.03 0-0.22-0.11-0.44-0.1-0.24-0.25-0.44-0.14-0.22-0.3-0.43-0.16-0.22-0.25-0.41-0.3-0.6-0.4-1.27-0.08-0.67-0.08-1.33 0-0.62 0.1-1.17 0.1-0.57 0.24-1.11 0.14-0.56 0.29-1.09 0.16-0.54 0.29-1.13 0.08-0.41 0.22-0.62 0.14-0.22 0.32-0.38 0.19-0.16 0.4-0.3 0.22-0.14 0.44-0.41 0.1-0.11 0.11-0.19 0.03-0.1 0.05-0.14 0.03-0.06 0.1-0.08 0.08-0.03 0.29-0.03 0.13 0 0.19-0.08 0.08-0.08 0.14-0.19 0.06-0.11 0.11-0.22 0.06-0.13 0.16-0.19 0.1-0.06 0.24-0.1 0.14-0.03 0.3-0.05 0.16-0.02 0.3-0.03 0.16-0.02 0.29-0.06 0.33-0.14 0.54-0.25 0.22-0.11 0.41-0.19 0.21-0.1 0.46-0.14 0.25-0.05 0.67-0.05 0.54 0 1.06 0.14 0.54 0.13 1.06 0.29 0.52 0.16 1.05 0.3 0.52 0.13 1.08 0.13 0.44 0 0.7-0.19 0.27-0.19 0.4-0.49 0.14-0.3 0.17-0.67 0.05-0.36 0.05-0.71 0-0.62-0.08-1.22-0.08-0.62-0.11-1.22l-0.14 0.06q-0.16 0-0.29-0.08-0.13-0.1-0.24-0.19-0.11-0.11-0.24-0.19-0.13-0.1-0.29-0.1-0.17 0-0.22 0.1-0.05 0.08-0.16 0.16-0.17 0.02-0.36 0.03-0.17 0-0.35 0l-0.7 0q-0.22 0-0.51-0.13-0.27-0.14-0.52-0.35-0.25-0.22-0.43-0.46-0.16-0.25-0.16-0.49 0-0.21 0.13-0.43 0.14-0.24 0.33-0.43 0.21-0.19 0.44-0.3 0.24-0.13 0.46-0.13 0.21 0 0.38 0.11 0.17 0.1 0.38 0.1 0.35 0 0.67-0.11 0.33-0.11 0.7-0.11 0.36 0 0.68 0.13 0.33 0.11 0.7 0.11 0.27 0 0.54-0.02 0.29-0.02 0.56-0.02 0.29 0 0.57 0.05 0.3 0.05 0.56 0.19l0 0.1q0 0.22 0.05 0.44 0.06 0.21 0.13 0.43 0.08 0.21 0.13 0.41 0.06 0.21 0.06 0.43 0 0.29-0.14 0.56-0.13 0.25-0.13 0.56 0 0.56 0.13 1.11 0.13 0.54 0.13 1.09 0 1.4-0.02 2.79-0.02 1.38-0.02 2.79 0 1.43-0.1 2.84-0.1 1.4-0.1 2.82 0 0.52 0.05 1.19 0.05 0.65 0.25 1.24 0.21 0.57 0.6 0.97 0.41 0.4 1.13 0.4 0.14 0 0.27-0.02 0.14-0.03 0.29-0.03 0.21 0 0.36 0.11 0.16 0.11 0.27 0.29 0.11 0.17 0.16 0.38 0.06 0.21 0.06 0.38zm-5.76-7.87q0-0.59-0.11-1.25-0.1-0.67-0.36-1.24-0.25-0.59-0.71-0.98-0.44-0.4-1.13-0.43-0.14-0.02-0.35-0.13-0.19-0.11-0.4-0.24-0.21-0.13-0.41-0.22-0.19-0.11-0.35-0.11-0.14 0-0.27 0.06-0.13 0.05-0.25 0.13-0.13 0.06-0.25 0.13-0.13 0.05-0.29 0.05-0.27 0-0.52-0.03-0.24-0.03-0.51-0.03-0.79 0-1.44 0.48-0.63 0.48-1.09 1.19-0.46 0.7-0.71 1.52-0.25 0.81-0.25 1.49 0 0.29 0.03 0.57 0.05 0.29 0.05 0.57 0 0.19-0.11 0.32-0.1 0.11-0.24 0.24-0.13 0.11-0.24 0.25-0.1 0.13-0.1 0.32l0.13 0q0.41 0 0.63 0.16 0.24 0.14 0.35 0.4 0.13 0.24 0.19 0.56 0.08 0.32 0.17 0.65 0.1 0.32 0.27 0.62 0.19 0.3 0.54 0.54 0.25 0.17 0.56 0.38 0.32 0.21 0.65 0.38 0.35 0.17 0.68 0.3 0.35 0.11 0.67 0.11 0.51 0 1-0.14 0.49-0.16 1-0.16 0.19 0 0.41 0.05 0.36-0.57 0.84-1.08 0.49-0.52 1.19-0.73l-0.02-0.35q0-0.52 0.11-1.02 0.13-0.51 0.27-1.03 0.14-0.52 0.25-1.08 0.13-0.56 0.13-1.21z" id="path3472" style="-inkscape-font-specification:'special elite';font-family:'special elite';font-size:32.5"/>
      <path d="m97.43 260.16q0 0.43-0.14 0.73-0.13 0.3-0.35 0.54-0.21 0.24-0.49 0.44-0.27 0.21-0.56 0.44-0.22 0.19-0.4 0.29-0.17 0.1-0.35 0.16-0.16 0.06-0.35 0.13-0.17 0.06-0.41 0.17-0.32 0.16-0.54 0.3-0.21 0.13-0.43 0.24-0.21 0.11-0.46 0.17-0.25 0.08-0.63 0.13-0.63 0.08-1.29 0.19-0.63 0.11-1.27 0.11-0.13 0-0.27-0.06-0.13-0.05-0.3-0.11-0.17-0.05-0.4-0.11-0.21-0.05-0.51-0.05-0.32 0-0.51-0.1-0.19-0.1-0.35-0.22-0.14-0.13-0.3-0.27-0.16-0.16-0.41-0.27-0.95-0.43-1.62-1.03-0.67-0.6-1.14-1.35-0.48-0.75-0.79-1.62-0.32-0.87-0.54-1.82-0.17-0.67-0.17-1.33 0-0.87 0.41-1.62-0.16-0.44-0.16-0.86 0-0.3 0.17-0.89 0.17-0.6 0.44-1.21 0.29-0.6 0.6-1.08 0.33-0.49 0.62-0.6 0.22-0.08 0.3-0.13 0.1-0.06 0.1-0.32 0-0.19 0.14-0.32 0.16-0.13 0.36-0.21 0.22-0.08 0.43-0.14 0.22-0.06 0.36-0.13 0.59-0.29 1.11-0.48 0.54-0.21 1.06-0.33 0.54-0.14 1.11-0.21 0.57-0.06 1.22-0.06 0.35 0 0.68 0.1 0.33 0.1 0.63 0.25 0.32 0.14 0.62 0.33 0.3 0.17 0.59 0.35l-0.02 0q0.24 0.03 0.44 0.14 0.22 0.1 0.46 0.13 0.22 0.27 0.57 0.52 0.36 0.24 0.7 0.51 0.35 0.27 0.59 0.59 0.25 0.3 0.25 0.7 0 0.06-0.02 0.13 0 0.06-0.02 0.14l0.06-0.08q0.06 0.05 0.11 0.16 0.06 0.11 0.11 0.25 0.05 0.13 0.08 0.27 0.03 0.13 0.05 0.21 0.13 0.21 0.33 0.33 0.22 0.13 0.35 0.35-0.16 0.16-0.16 0.41 0 0.27 0.11 0.54 0.11 0.25 0.11 0.52 0 0.32-0.03 0.62-0.03 0.29-0.03 0.6 0 0.24-0.19 0.36-0.17 0.13-0.4 0.22-0.21 0.1-0.38 0.19-0.17 0.1-0.17 0.27 0 0.13-0.16 0.13-0.14-0.02-0.24-0.02-0.7 0-1.4-0.17-0.68-0.17-1.36-0.17-0.75 0-1.48 0.11-0.73 0.1-1.48 0.1-0.56 0-1.11-0.03-0.54-0.03-1.09-0.03-0.14 0-0.54 0.06-0.4 0.05-0.84 0.14-0.43 0.08-0.83 0.21-0.4 0.11-0.56 0.22-0.02 0.08-0.02 0.22 0 0.75 0.43 1.54 0.44 0.79 1.16 1.44 0.71 0.65 1.6 1.08 0.89 0.43 1.79 0.43 0.52 0 1.03 0.05 0.52 0.03 1.02 0.22 0.43-0.21 0.78-0.48 0.36-0.27 0.7-0.57 0.33-0.3 0.65-0.62 0.32-0.32 0.65-0.63 0.06-0.06 0.3-0.11 0.25-0.06 0.54-0.1 0.29-0.05 0.54-0.06 0.27-0.03 0.36-0.03 0.36 0 0.68 0.11 0.1 0.36 0.1 0.71zm-2.38-6.44q0-0.24-0.08-0.46-0.08-0.22-0.13-0.46-0.08-0.44-0.08-0.86 0-0.43-0.13-0.86l-0.02 0q0 0.1-0.06 0.19-0.06 0.08-0.17 0.08-0.19 0-0.36-0.1-0.17-0.1-0.3-0.24-0.6-0.27-1.09-0.51-0.48-0.24-0.97-0.41-0.48-0.19-1.03-0.29-0.54-0.11-1.25-0.11-0.06 0-0.13 0.02-0.05 0-0.1 0.05l0.08 0.17-0.13 0.03q-0.43 0.08-0.71 0.16-0.27 0.06-0.49 0.19-0.22 0.13-0.44 0.32-0.21 0.17-0.54 0.46-0.16 0.14-0.35 0.22-0.17 0.06-0.36 0.13-0.17 0.05-0.35 0.11-0.16 0.06-0.27 0.21-0.11 0.4-0.33 0.78-0.21 0.36-0.21 0.78 0 0.24 0.19 0.43 0.21 0.17 0.51 0.3 0.32 0.13 0.68 0.22 0.38 0.1 0.75 0.14 0.36 0.05 0.67 0.08 0.32 0.02 0.49 0.02 0.6 0 1.19-0.11 0.59-0.13 1.19-0.13 0.62 0 1.24 0.06 0.62 0.05 1.24 0.05 0.16 0 0.48-0.02 0.32-0.02 0.62-0.08 0.32-0.08 0.54-0.21 0.24-0.14 0.24-0.36z" id="path3474" style="-inkscape-font-specification:'special elite';font-family:'special elite';font-size:32.5"/>
    </g>
  </g>
</svg>
