<?xml version="1.0" encoding="UTF-8" standalone="no"?>
<svg
   xmlns:dc="http://purl.org/dc/elements/1.1/"
   xmlns:cc="http://creativecommons.org/ns#"
   xmlns:rdf="http://www.w3.org/1999/02/22-rdf-syntax-ns#"
   xmlns:svg="http://www.w3.org/2000/svg"
   xmlns="http://www.w3.org/2000/svg"
   xmlns:sodipodi="http://sodipodi.sourceforge.net/DTD/sodipodi-0.dtd"
   xmlns:inkscape="http://www.inkscape.org/namespaces/inkscape"
   version="1.1"
   viewBox="0.0 0.0 348.0 348.0"
   fill="none"
   stroke="none"
   stroke-linecap="square"
   stroke-miterlimit="10"
   id="svg2"
   inkscape:version="0.91 r13725"
   sodipodi:docname="WhosOnFirstComponent.svg">
  <metadata
     id="metadata83">
    <rdf:RDF>
      <cc:Work
         rdf:about="">
        <dc:format>image/svg+xml</dc:format>
        <dc:type
           rdf:resource="http://purl.org/dc/dcmitype/StillImage" />
      </cc:Work>
    </rdf:RDF>
  </metadata>
  <defs
     id="defs81" />
  <sodipodi:namedview
     pagecolor="#ffffff"
     bordercolor="#666666"
     borderopacity="1"
     objecttolerance="10"
     gridtolerance="10"
     guidetolerance="10"
     inkscape:pageopacity="0"
     inkscape:pageshadow="2"
     inkscape:window-width="1022"
     inkscape:window-height="727"
     id="namedview79"
     showgrid="false"
     inkscape:zoom="0.67816092"
     inkscape:cx="131.65176"
     inkscape:cy="174"
     inkscape:window-x="0"
     inkscape:window-y="0"
     inkscape:window-maximized="0"
     inkscape:current-layer="g7" />
  <clipPath
     id="p.0">
    <path
       d="m0 0l348.0 0l0 348.0l-348.0 0l0 -348.0z"
       clip-rule="nonzero"
       id="path5" />
  </clipPath>
  <g
     clip-path="url(#p.0)"
     id="g7">
    <path
       fill="#000000"
       fill-opacity="0.0"
       d="m0 0l348.0 0l0 348.0l-348.0 0z"
       fill-rule="nonzero"
       id="path9" />
    <path
       fill="#ffffff"
       d="m-6.0 0l348.0 0l0 347.9685l-348.0 0z"
       fill-rule="nonzero"
       id="path11" />
    <path
       fill="#000000"
       fill-opacity="0.0"
       d="m5.07874 5.7758217l336.9134 0l0 337.6693l-336.9134 0z"
       fill-rule="nonzero"
       id="path13" />
    <path
       stroke="#000000"
       stroke-width="2.0"
       stroke-linejoin="round"
       stroke-linecap="butt"
       d="m5.07874 5.7758217l336.9134 0l0 337.6693l-336.9134 0z"
       fill-rule="nonzero"
       id="path15" />
    <path
       fill="#ffffff"
       d="m282.73444 40.553925l0 0c0 -8.375591 6.966034 -15.165352 15.5590515 -15.165352l0 0c4.126526 0 8.084015 1.5977726 11.001923 4.441828c2.9178772 2.844057 4.557129 6.7014217 4.557129 10.723524l0 0c0 8.375595 -6.9660034 15.165356 -15.5590515 15.165356l0 0c-8.593018 0 -15.5590515 -6.7897606 -15.5590515 -15.165356z"
       fill-rule="nonzero"
       id="path17" />
    <path
       stroke="#000000"
       stroke-width="2.0"
       stroke-linejoin="round"
       stroke-linecap="butt"
       d="m282.73444 40.553925l0 0c0 -8.375591 6.966034 -15.165352 15.5590515 -15.165352l0 0c4.126526 0 8.084015 1.5977726 11.001923 4.441828c2.9178772 2.844057 4.557129 6.7014217 4.557129 10.723524l0 0c0 8.375595 -6.9660034 15.165356 -15.5590515 15.165356l0 0c-8.593018 0 -15.5590515 -6.7897606 -15.5590515 -15.165356z"
       fill-rule="nonzero"
       id="path19" />
    <path
       fill="#000000"
       d="m34.771652 25.389738l232.40947 0l0 67.55905l-232.40947 0z"
       fill-rule="nonzero"
       id="path21" />
    <path
       stroke="#000000"
       stroke-width="2.0"
       stroke-linejoin="round"
       stroke-linecap="butt"
       d="m34.771652 25.389738l232.40947 0l0 67.55905l-232.40947 0z"
       fill-rule="nonzero"
       id="path23" />
    <path
       fill="#ffffff"
       d="m67.78107 77.24864l0 -29.265625l6.203125 0l0 2.328125l-3.390625 0l0 24.609375l3.390625 0l0 2.328125l-6.203125 0zm18.078125 -6.359375l0 -22.90625l7.890625 0q2.671875 0 4.078125 0.328125q1.96875 0.453125 3.359375 1.640625q1.8125 1.53125 2.703125 3.921875q0.90625 2.375 0.90625 5.4375q0 2.609375 -0.609375 4.625q-0.609375 2.015625 -1.5625 3.34375q-0.953125 1.3125 -2.09375 2.078125q-1.125 0.75 -2.734375 1.140625q-1.59375 0.390625 -3.671875 0.390625l-8.265625 0zm3.03125 -2.703125l4.890625 0q2.265625 0 3.546875 -0.421875q1.296875 -0.421875 2.0625 -1.1875q1.078125 -1.078125 1.671875 -2.890625q0.609375 -1.828125 0.609375 -4.421875q0 -3.59375 -1.1875 -5.515625q-1.171875 -1.9375 -2.859375 -2.59375q-1.21875 -0.46875 -3.921875 -0.46875l-4.8125 0l0 17.5zm20.59375 2.703125l0 -22.90625l3.03125 0l0 22.90625l-3.03125 0zm7.34375 -7.359375l2.859375 -0.25q0.203125 1.71875 0.9375 2.828125q0.75 1.09375 2.3125 1.78125q1.5625 0.671875 3.515625 0.671875q1.734375 0 3.0625 -0.515625q1.328125 -0.515625 1.96875 -1.40625q0.65625 -0.90625 0.65625 -1.96875q0 -1.078125 -0.625 -1.875q-0.625 -0.8125 -2.0625 -1.359375q-0.921875 -0.359375 -4.078125 -1.109375q-3.15625 -0.765625 -4.421875 -1.4375q-1.640625 -0.859375 -2.453125 -2.125q-0.796875 -1.28125 -0.796875 -2.859375q0 -1.734375 0.984375 -3.234375q0.984375 -1.515625 2.875 -2.296875q1.890625 -0.78125 4.203125 -0.78125q2.546875 0 4.484375 0.828125q1.953125 0.8125 3.0 2.40625q1.046875 1.59375 1.125 3.609375l-2.90625 0.21875q-0.234375 -2.171875 -1.59375 -3.28125q-1.34375 -1.109375 -3.984375 -1.109375q-2.75 0 -4.015625 1.015625q-1.25 1.0 -1.25 2.421875q0 1.234375 0.890625 2.03125q0.875 0.796875 4.5625 1.640625q3.703125 0.828125 5.078125 1.453125q2.0 0.921875 2.953125 2.34375q0.953125 1.40625 0.953125 3.25q0 1.828125 -1.046875 3.453125q-1.046875 1.609375 -3.015625 2.515625q-1.953125 0.890625 -4.40625 0.890625q-3.109375 0 -5.21875 -0.90625q-2.09375 -0.90625 -3.296875 -2.71875q-1.1875 -1.828125 -1.25 -4.125zm22.375 7.359375l0 -22.90625l8.640625 0q2.28125 0 3.484375 0.21875q1.6875 0.28125 2.828125 1.078125q1.140625 0.78125 1.828125 2.203125q0.703125 1.421875 0.703125 3.125q0 2.921875 -1.859375 4.953125q-1.859375 2.015625 -6.71875 2.015625l-5.875 0l0 9.3125l-3.03125 0zm3.03125 -12.015625l5.921875 0q2.9375 0 4.171875 -1.09375q1.234375 -1.09375 1.234375 -3.078125q0 -1.4375 -0.734375 -2.453125q-0.71875 -1.03125 -1.90625 -1.359375q-0.765625 -0.203125 -2.828125 -0.203125l-5.859375 0l0 8.1875zm18.1875 12.015625l0 -22.90625l3.03125 0l0 20.203125l11.28125 0l0 2.703125l-14.3125 0zm15.40625 0l8.796875 -22.90625l3.265625 0l9.375 22.90625l-3.453125 0l-2.671875 -6.9375l-9.578125 0l-2.515625 6.9375l-3.21875 0zm6.609375 -9.40625l7.765625 0l-2.390625 -6.34375q-1.09375 -2.890625 -1.625 -4.75q-0.4375 2.203125 -1.234375 4.375l-2.515625 6.71875zm23.703125 9.40625l0 -9.703125l-8.828125 -13.203125l3.6875 0l4.515625 6.90625q1.25 1.9375 2.328125 3.875q1.03125 -1.796875 2.5 -4.046875l4.4375 -6.734375l3.53125 0l-9.140625 13.203125l0 9.703125l-3.03125 0zm28.125 6.359375l-6.203125 0l0 -2.328125l3.390625 0l0 -24.609375l-3.390625 0l0 -2.328125l6.203125 0l0 29.265625z"
       fill-rule="nonzero"
       id="path25" />
    <path
       d="m34.771652 202.31795l106.645676 0l0 44.81891l-106.645676 0z"
       id="path27"
       fill-rule="nonzero"
       fill-opacity="0.0"
       fill="#000000" />
    <path
       d="m34.771652 202.31795l106.645676 0l0 44.81891l-106.645676 0z"
       id="path29"
       stroke-linejoin="round"
       stroke-linecap="butt"
       stroke-width="1.0"
       stroke="#000000"
       fill-rule="nonzero" />
    <path
       d="m34.771652 125.22639l106.645676 0l0 44.8189l-106.645676 0z"
       id="path33"
       fill-rule="nonzero"
       fill-opacity="0.0"
       fill="#000000" />
    <path
       d="m34.771652 125.22639l106.645676 0l0 44.8189l-106.645676 0z"
       id="path35"
       stroke-linejoin="round"
       stroke-linecap="butt"
       stroke-width="1.0"
       stroke="#000000"
       fill-rule="nonzero" />
    <path
       d="m34.771652 270.60397l106.645676 0l0 44.81891l-106.645676 0z"
       id="path39"
       fill-rule="nonzero"
       fill-opacity="0.0"
       fill="#000000" />
    <path
       d="m34.771652 270.60397l106.645676 0l0 44.81891l-106.645676 0z"
       id="path41"
       stroke-linejoin="round"
       stroke-linecap="butt"
       stroke-width="1.0"
       stroke="#000000"
       fill-rule="nonzero" />
    <path
       d="m157.40683 202.31795l106.64566 0l0 44.81891l-106.64566 0z"
       id="path45"
       fill-rule="nonzero"
       fill-opacity="0.0"
       fill="#000000" />
    <path
       d="m157.40683 202.31795l106.64566 0l0 44.81891l-106.64566 0z"
       id="path47"
       stroke-linejoin="round"
       stroke-linecap="butt"
       stroke-width="1.0"
       stroke="#000000"
       fill-rule="nonzero" />
    <path
       d="m157.40683 125.22639l106.64566 0l0 44.8189l-106.64566 0z"
       id="path51"
       fill-rule="nonzero"
       fill-opacity="0.0"
       fill="#000000" />
    <path
       d="m157.40683 125.22639l106.64566 0l0 44.8189l-106.64566 0z"
       id="path53"
       stroke-linejoin="round"
       stroke-linecap="butt"
       stroke-width="1.0"
       stroke="#000000"
       fill-rule="nonzero" />
    <path
       d="m157.40683 270.60397l106.64566 0l0 44.81891l-106.64566 0z"
       id="path57"
       fill-rule="nonzero"
       fill-opacity="0.0"
       fill="#000000" />
    <path
       d="m157.40683 270.60397l106.64566 0l0 44.81891l-106.64566 0z"
       id="path59"
       stroke-linejoin="round"
       stroke-linecap="butt"
       stroke-width="1.0"
       stroke="#000000"
       fill-rule="nonzero" />
    <path
       fill="#000000"
       d="m277.46194 106.3832l52.661407 0l0 209.03937l-52.661407 0z"
       fill-rule="nonzero"
       id="path63" />
    <path
       stroke="#000000"
       stroke-width="2.0"
       stroke-linejoin="round"
       stroke-linecap="butt"
       d="m277.46194 106.3832l52.661407 0l0 209.03937l-52.661407 0z"
       fill-rule="nonzero"
       id="path65" />
    <path
       fill="#ffffff"
       d="m290.06036 245.11285l27.46457 0l0 16.472443l-27.46457 0z"
       fill-rule="nonzero"
       id="path67" />
    <path
       stroke="#000000"
       stroke-width="2.0"
       stroke-linejoin="round"
       stroke-linecap="butt"
       d="m290.06036 245.11285l27.46457 0l0 16.472443l-27.46457 0z"
       fill-rule="nonzero"
       id="path69" />
    <path
       fill="#ffffff"
       d="m290.06036 208.9029l27.46457 0l0 16.472427l-27.46457 0z"
       fill-rule="nonzero"
       id="path71" />
    <path
       stroke="#000000"
       stroke-width="2.0"
       stroke-linejoin="round"
       stroke-linecap="butt"
       d="m290.06036 208.9029l27.46457 0l0 16.472427l-27.46457 0z"
       fill-rule="nonzero"
       id="path73" />
    <path
       fill="#ffffff"
       d="m290.06036 281.32285l27.46457 0l0 16.472443l-27.46457 0z"
       fill-rule="nonzero"
       id="path75" />
    <path
       stroke="#000000"
       stroke-width="2.0"
       stroke-linejoin="round"
       stroke-linecap="butt"
       d="m290.06036 281.32285l27.46457 0l0 16.472443l-27.46457 0z"
       fill-rule="nonzero"
       id="path77" />
    <g
       transform="matrix(0.55,0,0,0.55,-231.01132,20.397722)"
       style="font-style:normal;font-weight:normal;font-size:37.5px;line-height:125%;font-family:sans-serif;letter-spacing:0px;word-spacing:0px;fill:#000000;fill-opacity:1;stroke:none;stroke-width:1px;stroke-linecap:butt;stroke-linejoin:miter;stroke-opacity:1"
       id="text4305">
      <path
         inkscape:connector-curvature="0"
         d="m 504.91577,250.26434 0,-36.58203 7.75391,0 0,2.91016 -4.23828,0 0,30.76172 4.23828,0 0,2.91015 -7.75391,0 z"
         style="font-style:normal;font-variant:normal;font-weight:normal;font-stretch:normal;font-size:40px;font-family:Arial;-inkscape-font-specification:Arial;letter-spacing:-2.33999991px"
         id="path4316" />
      <path
         d="m 529.3764,246.31512 0,-25.2539 -9.4336,0 0,-3.37891 22.69531,0 0,3.37891 -9.47265,0 0,25.2539 -3.78906,0 z"
         style="font-style:normal;font-variant:normal;font-weight:normal;font-stretch:normal;font-size:40px;font-family:Arial;-inkscape-font-specification:Arial;letter-spacing:-2.33999991px"
         id="path4318"
         inkscape:connector-curvature="0" />
      <path
         d="m 544.43874,246.31512 0,-28.63281 20.70312,0 0,3.37891 -16.91406,0 0,8.76953 15.83985,0 0,3.35937 -15.83985,0 0,9.7461 17.57813,0 0,3.3789 -21.36719,0 z"
         style="font-style:normal;font-variant:normal;font-weight:normal;font-stretch:normal;font-size:40px;font-family:Arial;-inkscape-font-specification:Arial;letter-spacing:-2.33999991px"
         id="path4320"
         inkscape:connector-curvature="0" />
      <path
         d="m 567.4503,237.11591 3.57422,-0.3125 q 0.25391,2.14843 1.17188,3.53515 0.9375,1.36719 2.89062,2.22656 1.95313,0.83985 4.39453,0.83985 2.16797,0 3.82813,-0.64453 1.66015,-0.64453 2.46093,-1.75782 0.82032,-1.13281 0.82032,-2.46093 0,-1.34766 -0.78125,-2.34375 -0.78125,-1.01563 -2.57813,-1.69922 -1.15234,-0.44922 -5.09765,-1.38672 -3.94532,-0.95703 -5.52735,-1.79688 -2.05078,-1.07421 -3.0664,-2.65625 -0.9961,-1.60156 -0.9961,-3.57421 0,-2.16797 1.23047,-4.04297 1.23047,-1.89453 3.59375,-2.8711 2.36328,-0.97656 5.25391,-0.97656 3.18359,0 5.60547,1.03516 2.4414,1.01562 3.75,3.00781 1.30859,1.99219 1.40625,4.51172 l -3.63282,0.27344 q -0.29297,-2.71485 -1.99218,-4.10157 -1.67969,-1.38672 -4.98047,-1.38672 -3.4375,0 -5.01953,1.26954 -1.5625,1.25 -1.5625,3.02734 0,1.54297 1.11328,2.53906 1.09375,0.9961 5.70312,2.05078 4.62891,1.03516 6.34766,1.81641 2.5,1.15234 3.6914,2.92969 1.19141,1.75781 1.19141,4.0625 0,2.28515 -1.30859,4.3164 -1.3086,2.01172 -3.76953,3.14453 -2.44141,1.11329 -5.50782,1.11329 -3.88672,0 -6.52343,-1.13282 -2.61719,-1.13281 -4.1211,-3.39843 -1.48437,-2.28516 -1.5625,-5.15625 z"
         style="font-style:normal;font-variant:normal;font-weight:normal;font-stretch:normal;font-size:40px;font-family:Arial;-inkscape-font-specification:Arial;letter-spacing:-2.33999991px"
         id="path4322"
         inkscape:connector-curvature="0" />
      <path
         d="m 600.40327,246.31512 0,-25.2539 -9.43359,0 0,-3.37891 22.69531,0 0,3.37891 -9.47265,0 0,25.2539 -3.78907,0 z"
         style="font-style:normal;font-variant:normal;font-weight:normal;font-stretch:normal;font-size:40px;font-family:Arial;-inkscape-font-specification:Arial;letter-spacing:-2.33999991px"
         id="path4324"
         inkscape:connector-curvature="0" />
      <path
         d="m 613.53202,232.36981 q 0,-7.1289 3.82813,-11.15234 3.82812,-4.04297 9.88281,-4.04297 3.96484,0 7.14844,1.89453 3.18359,1.89453 4.84375,5.29297 1.67968,3.37891 1.67968,7.67578 0,4.35547 -1.75781,7.79297 -1.75781,3.4375 -4.98047,5.21484 -3.22265,1.75782 -6.95312,1.75782 -4.04297,0 -7.22657,-1.95313 -3.18359,-1.95312 -4.82421,-5.33203 -1.64063,-3.37891 -1.64063,-7.14844 z m 3.90625,0.0586 q 0,5.17578 2.77344,8.16406 2.79297,2.96875 6.99219,2.96875 4.27734,0 7.03125,-3.00781 2.77343,-3.00782 2.77343,-8.53516 0,-3.49609 -1.1914,-6.09375 -1.17188,-2.61719 -3.45703,-4.04297 -2.26563,-1.44531 -5.09766,-1.44531 -4.02344,0 -6.93359,2.77344 -2.89063,2.7539 -2.89063,9.21875 z"
         style="font-style:normal;font-variant:normal;font-weight:normal;font-stretch:normal;font-size:40px;font-family:Arial;-inkscape-font-specification:Arial;letter-spacing:-2.33999991px"
         id="path4326"
         inkscape:connector-curvature="0" />
      <path
         inkscape:connector-curvature="0"
         d="m 657.62155,250.26434 -7.7539,0 0,-2.91015 4.23828,0 0,-30.76172 -4.23828,0 0,-2.91016 7.7539,0 0,36.58203 z"
         style="font-style:normal;font-variant:normal;font-weight:normal;font-stretch:normal;font-size:40px;font-family:Arial;-inkscape-font-specification:Arial;letter-spacing:-2.33999991px"
         id="path4328" />
    </g>
    <g
       transform="matrix(0.55,0,0,0.55,-109.57064,20.397722)"
       style="font-style:normal;font-weight:normal;font-size:37.5px;line-height:125%;font-family:sans-serif;letter-spacing:0px;word-spacing:0px;fill:#000000;fill-opacity:1;stroke:none;stroke-width:1px;stroke-linecap:butt;stroke-linejoin:miter;stroke-opacity:1"
       id="text4305-5">
      <path
         inkscape:connector-curvature="0"
         d="m 504.91577,250.26434 0,-36.58203 7.75391,0 0,2.91016 -4.23828,0 0,30.76172 4.23828,0 0,2.91015 -7.75391,0 z"
         style="font-style:normal;font-variant:normal;font-weight:normal;font-stretch:normal;font-size:40px;font-family:Arial;-inkscape-font-specification:Arial;letter-spacing:-2.33999991px"
         id="path4316-8" />
      <path
         d="m 529.3764,246.31512 0,-25.2539 -9.4336,0 0,-3.37891 22.69531,0 0,3.37891 -9.47265,0 0,25.2539 -3.78906,0 z"
         style="font-style:normal;font-variant:normal;font-weight:normal;font-stretch:normal;font-size:40px;font-family:Arial;-inkscape-font-specification:Arial;letter-spacing:-2.33999991px"
         id="path4318-4"
         inkscape:connector-curvature="0" />
      <path
         d="m 544.43874,246.31512 0,-28.63281 20.70312,0 0,3.37891 -16.91406,0 0,8.76953 15.83985,0 0,3.35937 -15.83985,0 0,9.7461 17.57813,0 0,3.3789 -21.36719,0 z"
         style="font-style:normal;font-variant:normal;font-weight:normal;font-stretch:normal;font-size:40px;font-family:Arial;-inkscape-font-specification:Arial;letter-spacing:-2.33999991px"
         id="path4320-9"
         inkscape:connector-curvature="0" />
      <path
         d="m 567.4503,237.11591 3.57422,-0.3125 q 0.25391,2.14843 1.17188,3.53515 0.9375,1.36719 2.89062,2.22656 1.95313,0.83985 4.39453,0.83985 2.16797,0 3.82813,-0.64453 1.66015,-0.64453 2.46093,-1.75782 0.82032,-1.13281 0.82032,-2.46093 0,-1.34766 -0.78125,-2.34375 -0.78125,-1.01563 -2.57813,-1.69922 -1.15234,-0.44922 -5.09765,-1.38672 -3.94532,-0.95703 -5.52735,-1.79688 -2.05078,-1.07421 -3.0664,-2.65625 -0.9961,-1.60156 -0.9961,-3.57421 0,-2.16797 1.23047,-4.04297 1.23047,-1.89453 3.59375,-2.8711 2.36328,-0.97656 5.25391,-0.97656 3.18359,0 5.60547,1.03516 2.4414,1.01562 3.75,3.00781 1.30859,1.99219 1.40625,4.51172 l -3.63282,0.27344 q -0.29297,-2.71485 -1.99218,-4.10157 -1.67969,-1.38672 -4.98047,-1.38672 -3.4375,0 -5.01953,1.26954 -1.5625,1.25 -1.5625,3.02734 0,1.54297 1.11328,2.53906 1.09375,0.9961 5.70312,2.05078 4.62891,1.03516 6.34766,1.81641 2.5,1.15234 3.6914,2.92969 1.19141,1.75781 1.19141,4.0625 0,2.28515 -1.30859,4.3164 -1.3086,2.01172 -3.76953,3.14453 -2.44141,1.11329 -5.50782,1.11329 -3.88672,0 -6.52343,-1.13282 -2.61719,-1.13281 -4.1211,-3.39843 -1.48437,-2.28516 -1.5625,-5.15625 z"
         style="font-style:normal;font-variant:normal;font-weight:normal;font-stretch:normal;font-size:40px;font-family:Arial;-inkscape-font-specification:Arial;letter-spacing:-2.33999991px"
         id="path4322-1"
         inkscape:connector-curvature="0" />
      <path
         d="m 600.40327,246.31512 0,-25.2539 -9.43359,0 0,-3.37891 22.69531,0 0,3.37891 -9.47265,0 0,25.2539 -3.78907,0 z"
         style="font-style:normal;font-variant:normal;font-weight:normal;font-stretch:normal;font-size:40px;font-family:Arial;-inkscape-font-specification:Arial;letter-spacing:-2.33999991px"
         id="path4324-2"
         inkscape:connector-curvature="0" />
      <path
         d="m 613.53202,232.36981 q 0,-7.1289 3.82813,-11.15234 3.82812,-4.04297 9.88281,-4.04297 3.96484,0 7.14844,1.89453 3.18359,1.89453 4.84375,5.29297 1.67968,3.37891 1.67968,7.67578 0,4.35547 -1.75781,7.79297 -1.75781,3.4375 -4.98047,5.21484 -3.22265,1.75782 -6.95312,1.75782 -4.04297,0 -7.22657,-1.95313 -3.18359,-1.95312 -4.82421,-5.33203 -1.64063,-3.37891 -1.64063,-7.14844 z m 3.90625,0.0586 q 0,5.17578 2.77344,8.16406 2.79297,2.96875 6.99219,2.96875 4.27734,0 7.03125,-3.00781 2.77343,-3.00782 2.77343,-8.53516 0,-3.49609 -1.1914,-6.09375 -1.17188,-2.61719 -3.45703,-4.04297 -2.26563,-1.44531 -5.09766,-1.44531 -4.02344,0 -6.93359,2.77344 -2.89063,2.7539 -2.89063,9.21875 z"
         style="font-style:normal;font-variant:normal;font-weight:normal;font-stretch:normal;font-size:40px;font-family:Arial;-inkscape-font-specification:Arial;letter-spacing:-2.33999991px"
         id="path4326-2"
         inkscape:connector-curvature="0" />
      <path
         inkscape:connector-curvature="0"
         d="m 657.62155,250.26434 -7.7539,0 0,-2.91015 4.23828,0 0,-30.76172 -4.23828,0 0,-2.91016 7.7539,0 0,36.58203 z"
         style="font-style:normal;font-variant:normal;font-weight:normal;font-stretch:normal;font-size:40px;font-family:Arial;-inkscape-font-specification:Arial;letter-spacing:-2.33999991px"
         id="path4328-2" />
    </g>
    <g
       transform="matrix(0.55,0,0,0.55,-231.01132,95.812975)"
       style="font-style:normal;font-weight:normal;font-size:37.5px;line-height:125%;font-family:sans-serif;letter-spacing:0px;word-spacing:0px;fill:#000000;fill-opacity:1;stroke:none;stroke-width:1px;stroke-linecap:butt;stroke-linejoin:miter;stroke-opacity:1"
       id="text4305-6">
      <path
         inkscape:connector-curvature="0"
         d="m 504.91577,250.26434 0,-36.58203 7.75391,0 0,2.91016 -4.23828,0 0,30.76172 4.23828,0 0,2.91015 -7.75391,0 z"
         style="font-style:normal;font-variant:normal;font-weight:normal;font-stretch:normal;font-size:40px;font-family:Arial;-inkscape-font-specification:Arial;letter-spacing:-2.33999991px"
         id="path4316-6" />
      <path
         d="m 529.3764,246.31512 0,-25.2539 -9.4336,0 0,-3.37891 22.69531,0 0,3.37891 -9.47265,0 0,25.2539 -3.78906,0 z"
         style="font-style:normal;font-variant:normal;font-weight:normal;font-stretch:normal;font-size:40px;font-family:Arial;-inkscape-font-specification:Arial;letter-spacing:-2.33999991px"
         id="path4318-2"
         inkscape:connector-curvature="0" />
      <path
         d="m 544.43874,246.31512 0,-28.63281 20.70312,0 0,3.37891 -16.91406,0 0,8.76953 15.83985,0 0,3.35937 -15.83985,0 0,9.7461 17.57813,0 0,3.3789 -21.36719,0 z"
         style="font-style:normal;font-variant:normal;font-weight:normal;font-stretch:normal;font-size:40px;font-family:Arial;-inkscape-font-specification:Arial;letter-spacing:-2.33999991px"
         id="path4320-7"
         inkscape:connector-curvature="0" />
      <path
         d="m 567.4503,237.11591 3.57422,-0.3125 q 0.25391,2.14843 1.17188,3.53515 0.9375,1.36719 2.89062,2.22656 1.95313,0.83985 4.39453,0.83985 2.16797,0 3.82813,-0.64453 1.66015,-0.64453 2.46093,-1.75782 0.82032,-1.13281 0.82032,-2.46093 0,-1.34766 -0.78125,-2.34375 -0.78125,-1.01563 -2.57813,-1.69922 -1.15234,-0.44922 -5.09765,-1.38672 -3.94532,-0.95703 -5.52735,-1.79688 -2.05078,-1.07421 -3.0664,-2.65625 -0.9961,-1.60156 -0.9961,-3.57421 0,-2.16797 1.23047,-4.04297 1.23047,-1.89453 3.59375,-2.8711 2.36328,-0.97656 5.25391,-0.97656 3.18359,0 5.60547,1.03516 2.4414,1.01562 3.75,3.00781 1.30859,1.99219 1.40625,4.51172 l -3.63282,0.27344 q -0.29297,-2.71485 -1.99218,-4.10157 -1.67969,-1.38672 -4.98047,-1.38672 -3.4375,0 -5.01953,1.26954 -1.5625,1.25 -1.5625,3.02734 0,1.54297 1.11328,2.53906 1.09375,0.9961 5.70312,2.05078 4.62891,1.03516 6.34766,1.81641 2.5,1.15234 3.6914,2.92969 1.19141,1.75781 1.19141,4.0625 0,2.28515 -1.30859,4.3164 -1.3086,2.01172 -3.76953,3.14453 -2.44141,1.11329 -5.50782,1.11329 -3.88672,0 -6.52343,-1.13282 -2.61719,-1.13281 -4.1211,-3.39843 -1.48437,-2.28516 -1.5625,-5.15625 z"
         style="font-style:normal;font-variant:normal;font-weight:normal;font-stretch:normal;font-size:40px;font-family:Arial;-inkscape-font-specification:Arial;letter-spacing:-2.33999991px"
         id="path4322-2"
         inkscape:connector-curvature="0" />
      <path
         d="m 600.40327,246.31512 0,-25.2539 -9.43359,0 0,-3.37891 22.69531,0 0,3.37891 -9.47265,0 0,25.2539 -3.78907,0 z"
         style="font-style:normal;font-variant:normal;font-weight:normal;font-stretch:normal;font-size:40px;font-family:Arial;-inkscape-font-specification:Arial;letter-spacing:-2.33999991px"
         id="path4324-5"
         inkscape:connector-curvature="0" />
      <path
         d="m 613.53202,232.36981 q 0,-7.1289 3.82813,-11.15234 3.82812,-4.04297 9.88281,-4.04297 3.96484,0 7.14844,1.89453 3.18359,1.89453 4.84375,5.29297 1.67968,3.37891 1.67968,7.67578 0,4.35547 -1.75781,7.79297 -1.75781,3.4375 -4.98047,5.21484 -3.22265,1.75782 -6.95312,1.75782 -4.04297,0 -7.22657,-1.95313 -3.18359,-1.95312 -4.82421,-5.33203 -1.64063,-3.37891 -1.64063,-7.14844 z m 3.90625,0.0586 q 0,5.17578 2.77344,8.16406 2.79297,2.96875 6.99219,2.96875 4.27734,0 7.03125,-3.00781 2.77343,-3.00782 2.77343,-8.53516 0,-3.49609 -1.1914,-6.09375 -1.17188,-2.61719 -3.45703,-4.04297 -2.26563,-1.44531 -5.09766,-1.44531 -4.02344,0 -6.93359,2.77344 -2.89063,2.7539 -2.89063,9.21875 z"
         style="font-style:normal;font-variant:normal;font-weight:normal;font-stretch:normal;font-size:40px;font-family:Arial;-inkscape-font-specification:Arial;letter-spacing:-2.33999991px"
         id="path4326-29"
         inkscape:connector-curvature="0" />
      <path
         inkscape:connector-curvature="0"
         d="m 657.62155,250.26434 -7.7539,0 0,-2.91015 4.23828,0 0,-30.76172 -4.23828,0 0,-2.91016 7.7539,0 0,36.58203 z"
         style="font-style:normal;font-variant:normal;font-weight:normal;font-stretch:normal;font-size:40px;font-family:Arial;-inkscape-font-specification:Arial;letter-spacing:-2.33999991px"
         id="path4328-8" />
    </g>
    <g
       transform="matrix(0.55,0,0,0.55,-109.57064,95.812975)"
       style="font-style:normal;font-weight:normal;font-size:37.5px;line-height:125%;font-family:sans-serif;letter-spacing:0px;word-spacing:0px;fill:#000000;fill-opacity:1;stroke:none;stroke-width:1px;stroke-linecap:butt;stroke-linejoin:miter;stroke-opacity:1"
       id="text4305-8">
      <path
         inkscape:connector-curvature="0"
         d="m 504.91577,250.26434 0,-36.58203 7.75391,0 0,2.91016 -4.23828,0 0,30.76172 4.23828,0 0,2.91015 -7.75391,0 z"
         style="font-style:normal;font-variant:normal;font-weight:normal;font-stretch:normal;font-size:40px;font-family:Arial;-inkscape-font-specification:Arial;letter-spacing:-2.33999991px"
         id="path4316-4" />
      <path
         d="m 529.3764,246.31512 0,-25.2539 -9.4336,0 0,-3.37891 22.69531,0 0,3.37891 -9.47265,0 0,25.2539 -3.78906,0 z"
         style="font-style:normal;font-variant:normal;font-weight:normal;font-stretch:normal;font-size:40px;font-family:Arial;-inkscape-font-specification:Arial;letter-spacing:-2.33999991px"
         id="path4318-0"
         inkscape:connector-curvature="0" />
      <path
         d="m 544.43874,246.31512 0,-28.63281 20.70312,0 0,3.37891 -16.91406,0 0,8.76953 15.83985,0 0,3.35937 -15.83985,0 0,9.7461 17.57813,0 0,3.3789 -21.36719,0 z"
         style="font-style:normal;font-variant:normal;font-weight:normal;font-stretch:normal;font-size:40px;font-family:Arial;-inkscape-font-specification:Arial;letter-spacing:-2.33999991px"
         id="path4320-2"
         inkscape:connector-curvature="0" />
      <path
         d="m 567.4503,237.11591 3.57422,-0.3125 q 0.25391,2.14843 1.17188,3.53515 0.9375,1.36719 2.89062,2.22656 1.95313,0.83985 4.39453,0.83985 2.16797,0 3.82813,-0.64453 1.66015,-0.64453 2.46093,-1.75782 0.82032,-1.13281 0.82032,-2.46093 0,-1.34766 -0.78125,-2.34375 -0.78125,-1.01563 -2.57813,-1.69922 -1.15234,-0.44922 -5.09765,-1.38672 -3.94532,-0.95703 -5.52735,-1.79688 -2.05078,-1.07421 -3.0664,-2.65625 -0.9961,-1.60156 -0.9961,-3.57421 0,-2.16797 1.23047,-4.04297 1.23047,-1.89453 3.59375,-2.8711 2.36328,-0.97656 5.25391,-0.97656 3.18359,0 5.60547,1.03516 2.4414,1.01562 3.75,3.00781 1.30859,1.99219 1.40625,4.51172 l -3.63282,0.27344 q -0.29297,-2.71485 -1.99218,-4.10157 -1.67969,-1.38672 -4.98047,-1.38672 -3.4375,0 -5.01953,1.26954 -1.5625,1.25 -1.5625,3.02734 0,1.54297 1.11328,2.53906 1.09375,0.9961 5.70312,2.05078 4.62891,1.03516 6.34766,1.81641 2.5,1.15234 3.6914,2.92969 1.19141,1.75781 1.19141,4.0625 0,2.28515 -1.30859,4.3164 -1.3086,2.01172 -3.76953,3.14453 -2.44141,1.11329 -5.50782,1.11329 -3.88672,0 -6.52343,-1.13282 -2.61719,-1.13281 -4.1211,-3.39843 -1.48437,-2.28516 -1.5625,-5.15625 z"
         style="font-style:normal;font-variant:normal;font-weight:normal;font-stretch:normal;font-size:40px;font-family:Arial;-inkscape-font-specification:Arial;letter-spacing:-2.33999991px"
         id="path4322-14"
         inkscape:connector-curvature="0" />
      <path
         d="m 600.40327,246.31512 0,-25.2539 -9.43359,0 0,-3.37891 22.69531,0 0,3.37891 -9.47265,0 0,25.2539 -3.78907,0 z"
         style="font-style:normal;font-variant:normal;font-weight:normal;font-stretch:normal;font-size:40px;font-family:Arial;-inkscape-font-specification:Arial;letter-spacing:-2.33999991px"
         id="path4324-7"
         inkscape:connector-curvature="0" />
      <path
         d="m 613.53202,232.36981 q 0,-7.1289 3.82813,-11.15234 3.82812,-4.04297 9.88281,-4.04297 3.96484,0 7.14844,1.89453 3.18359,1.89453 4.84375,5.29297 1.67968,3.37891 1.67968,7.67578 0,4.35547 -1.75781,7.79297 -1.75781,3.4375 -4.98047,5.21484 -3.22265,1.75782 -6.95312,1.75782 -4.04297,0 -7.22657,-1.95313 -3.18359,-1.95312 -4.82421,-5.33203 -1.64063,-3.37891 -1.64063,-7.14844 z m 3.90625,0.0586 q 0,5.17578 2.77344,8.16406 2.79297,2.96875 6.99219,2.96875 4.27734,0 7.03125,-3.00781 2.77343,-3.00782 2.77343,-8.53516 0,-3.49609 -1.1914,-6.09375 -1.17188,-2.61719 -3.45703,-4.04297 -2.26563,-1.44531 -5.09766,-1.44531 -4.02344,0 -6.93359,2.77344 -2.89063,2.7539 -2.89063,9.21875 z"
         style="font-style:normal;font-variant:normal;font-weight:normal;font-stretch:normal;font-size:40px;font-family:Arial;-inkscape-font-specification:Arial;letter-spacing:-2.33999991px"
         id="path4326-8"
         inkscape:connector-curvature="0" />
      <path
         inkscape:connector-curvature="0"
         d="m 657.62155,250.26434 -7.7539,0 0,-2.91015 4.23828,0 0,-30.76172 -4.23828,0 0,-2.91016 7.7539,0 0,36.58203 z"
         style="font-style:normal;font-variant:normal;font-weight:normal;font-stretch:normal;font-size:40px;font-family:Arial;-inkscape-font-specification:Arial;letter-spacing:-2.33999991px"
         id="path4328-1" />
    </g>
    <g
       transform="matrix(0.55,0,0,0.55,-231.01132,163.64348)"
       style="font-style:normal;font-weight:normal;font-size:37.5px;line-height:125%;font-family:sans-serif;letter-spacing:0px;word-spacing:0px;fill:#000000;fill-opacity:1;stroke:none;stroke-width:1px;stroke-linecap:butt;stroke-linejoin:miter;stroke-opacity:1"
       id="text4305-7">
      <path
         inkscape:connector-curvature="0"
         d="m 504.91577,250.26434 0,-36.58203 7.75391,0 0,2.91016 -4.23828,0 0,30.76172 4.23828,0 0,2.91015 -7.75391,0 z"
         style="font-style:normal;font-variant:normal;font-weight:normal;font-stretch:normal;font-size:40px;font-family:Arial;-inkscape-font-specification:Arial;letter-spacing:-2.33999991px"
         id="path4316-45" />
      <path
         d="m 529.3764,246.31512 0,-25.2539 -9.4336,0 0,-3.37891 22.69531,0 0,3.37891 -9.47265,0 0,25.2539 -3.78906,0 z"
         style="font-style:normal;font-variant:normal;font-weight:normal;font-stretch:normal;font-size:40px;font-family:Arial;-inkscape-font-specification:Arial;letter-spacing:-2.33999991px"
         id="path4318-03"
         inkscape:connector-curvature="0" />
      <path
         d="m 544.43874,246.31512 0,-28.63281 20.70312,0 0,3.37891 -16.91406,0 0,8.76953 15.83985,0 0,3.35937 -15.83985,0 0,9.7461 17.57813,0 0,3.3789 -21.36719,0 z"
         style="font-style:normal;font-variant:normal;font-weight:normal;font-stretch:normal;font-size:40px;font-family:Arial;-inkscape-font-specification:Arial;letter-spacing:-2.33999991px"
         id="path4320-3"
         inkscape:connector-curvature="0" />
      <path
         d="m 567.4503,237.11591 3.57422,-0.3125 q 0.25391,2.14843 1.17188,3.53515 0.9375,1.36719 2.89062,2.22656 1.95313,0.83985 4.39453,0.83985 2.16797,0 3.82813,-0.64453 1.66015,-0.64453 2.46093,-1.75782 0.82032,-1.13281 0.82032,-2.46093 0,-1.34766 -0.78125,-2.34375 -0.78125,-1.01563 -2.57813,-1.69922 -1.15234,-0.44922 -5.09765,-1.38672 -3.94532,-0.95703 -5.52735,-1.79688 -2.05078,-1.07421 -3.0664,-2.65625 -0.9961,-1.60156 -0.9961,-3.57421 0,-2.16797 1.23047,-4.04297 1.23047,-1.89453 3.59375,-2.8711 2.36328,-0.97656 5.25391,-0.97656 3.18359,0 5.60547,1.03516 2.4414,1.01562 3.75,3.00781 1.30859,1.99219 1.40625,4.51172 l -3.63282,0.27344 q -0.29297,-2.71485 -1.99218,-4.10157 -1.67969,-1.38672 -4.98047,-1.38672 -3.4375,0 -5.01953,1.26954 -1.5625,1.25 -1.5625,3.02734 0,1.54297 1.11328,2.53906 1.09375,0.9961 5.70312,2.05078 4.62891,1.03516 6.34766,1.81641 2.5,1.15234 3.6914,2.92969 1.19141,1.75781 1.19141,4.0625 0,2.28515 -1.30859,4.3164 -1.3086,2.01172 -3.76953,3.14453 -2.44141,1.11329 -5.50782,1.11329 -3.88672,0 -6.52343,-1.13282 -2.61719,-1.13281 -4.1211,-3.39843 -1.48437,-2.28516 -1.5625,-5.15625 z"
         style="font-style:normal;font-variant:normal;font-weight:normal;font-stretch:normal;font-size:40px;font-family:Arial;-inkscape-font-specification:Arial;letter-spacing:-2.33999991px"
         id="path4322-6"
         inkscape:connector-curvature="0" />
      <path
         d="m 600.40327,246.31512 0,-25.2539 -9.43359,0 0,-3.37891 22.69531,0 0,3.37891 -9.47265,0 0,25.2539 -3.78907,0 z"
         style="font-style:normal;font-variant:normal;font-weight:normal;font-stretch:normal;font-size:40px;font-family:Arial;-inkscape-font-specification:Arial;letter-spacing:-2.33999991px"
         id="path4324-0"
         inkscape:connector-curvature="0" />
      <path
         d="m 613.53202,232.36981 q 0,-7.1289 3.82813,-11.15234 3.82812,-4.04297 9.88281,-4.04297 3.96484,0 7.14844,1.89453 3.18359,1.89453 4.84375,5.29297 1.67968,3.37891 1.67968,7.67578 0,4.35547 -1.75781,7.79297 -1.75781,3.4375 -4.98047,5.21484 -3.22265,1.75782 -6.95312,1.75782 -4.04297,0 -7.22657,-1.95313 -3.18359,-1.95312 -4.82421,-5.33203 -1.64063,-3.37891 -1.64063,-7.14844 z m 3.90625,0.0586 q 0,5.17578 2.77344,8.16406 2.79297,2.96875 6.99219,2.96875 4.27734,0 7.03125,-3.00781 2.77343,-3.00782 2.77343,-8.53516 0,-3.49609 -1.1914,-6.09375 -1.17188,-2.61719 -3.45703,-4.04297 -2.26563,-1.44531 -5.09766,-1.44531 -4.02344,0 -6.93359,2.77344 -2.89063,2.7539 -2.89063,9.21875 z"
         style="font-style:normal;font-variant:normal;font-weight:normal;font-stretch:normal;font-size:40px;font-family:Arial;-inkscape-font-specification:Arial;letter-spacing:-2.33999991px"
         id="path4326-6"
         inkscape:connector-curvature="0" />
      <path
         inkscape:connector-curvature="0"
         d="m 657.62155,250.26434 -7.7539,0 0,-2.91015 4.23828,0 0,-30.76172 -4.23828,0 0,-2.91016 7.7539,0 0,36.58203 z"
         style="font-style:normal;font-variant:normal;font-weight:normal;font-stretch:normal;font-size:40px;font-family:Arial;-inkscape-font-specification:Arial;letter-spacing:-2.33999991px"
         id="path4328-4" />
    </g>
    <g
       transform="matrix(0.55,0,0,0.55,-109.57064,163.64348)"
       style="font-style:normal;font-weight:normal;font-size:37.5px;line-height:125%;font-family:sans-serif;letter-spacing:0px;word-spacing:0px;fill:#000000;fill-opacity:1;stroke:none;stroke-width:1px;stroke-linecap:butt;stroke-linejoin:miter;stroke-opacity:1"
       id="text4305-0">
      <path
         inkscape:connector-curvature="0"
         d="m 504.91577,250.26434 0,-36.58203 7.75391,0 0,2.91016 -4.23828,0 0,30.76172 4.23828,0 0,2.91015 -7.75391,0 z"
         style="font-style:normal;font-variant:normal;font-weight:normal;font-stretch:normal;font-size:40px;font-family:Arial;-inkscape-font-specification:Arial;letter-spacing:-2.33999991px"
         id="path4316-83" />
      <path
         d="m 529.3764,246.31512 0,-25.2539 -9.4336,0 0,-3.37891 22.69531,0 0,3.37891 -9.47265,0 0,25.2539 -3.78906,0 z"
         style="font-style:normal;font-variant:normal;font-weight:normal;font-stretch:normal;font-size:40px;font-family:Arial;-inkscape-font-specification:Arial;letter-spacing:-2.33999991px"
         id="path4318-42"
         inkscape:connector-curvature="0" />
      <path
         d="m 544.43874,246.31512 0,-28.63281 20.70312,0 0,3.37891 -16.91406,0 0,8.76953 15.83985,0 0,3.35937 -15.83985,0 0,9.7461 17.57813,0 0,3.3789 -21.36719,0 z"
         style="font-style:normal;font-variant:normal;font-weight:normal;font-stretch:normal;font-size:40px;font-family:Arial;-inkscape-font-specification:Arial;letter-spacing:-2.33999991px"
         id="path4320-0"
         inkscape:connector-curvature="0" />
      <path
         d="m 567.4503,237.11591 3.57422,-0.3125 q 0.25391,2.14843 1.17188,3.53515 0.9375,1.36719 2.89062,2.22656 1.95313,0.83985 4.39453,0.83985 2.16797,0 3.82813,-0.64453 1.66015,-0.64453 2.46093,-1.75782 0.82032,-1.13281 0.82032,-2.46093 0,-1.34766 -0.78125,-2.34375 -0.78125,-1.01563 -2.57813,-1.69922 -1.15234,-0.44922 -5.09765,-1.38672 -3.94532,-0.95703 -5.52735,-1.79688 -2.05078,-1.07421 -3.0664,-2.65625 -0.9961,-1.60156 -0.9961,-3.57421 0,-2.16797 1.23047,-4.04297 1.23047,-1.89453 3.59375,-2.8711 2.36328,-0.97656 5.25391,-0.97656 3.18359,0 5.60547,1.03516 2.4414,1.01562 3.75,3.00781 1.30859,1.99219 1.40625,4.51172 l -3.63282,0.27344 q -0.29297,-2.71485 -1.99218,-4.10157 -1.67969,-1.38672 -4.98047,-1.38672 -3.4375,0 -5.01953,1.26954 -1.5625,1.25 -1.5625,3.02734 0,1.54297 1.11328,2.53906 1.09375,0.9961 5.70312,2.05078 4.62891,1.03516 6.34766,1.81641 2.5,1.15234 3.6914,2.92969 1.19141,1.75781 1.19141,4.0625 0,2.28515 -1.30859,4.3164 -1.3086,2.01172 -3.76953,3.14453 -2.44141,1.11329 -5.50782,1.11329 -3.88672,0 -6.52343,-1.13282 -2.61719,-1.13281 -4.1211,-3.39843 -1.48437,-2.28516 -1.5625,-5.15625 z"
         style="font-style:normal;font-variant:normal;font-weight:normal;font-stretch:normal;font-size:40px;font-family:Arial;-inkscape-font-specification:Arial;letter-spacing:-2.33999991px"
         id="path4322-69"
         inkscape:connector-curvature="0" />
      <path
         d="m 600.40327,246.31512 0,-25.2539 -9.43359,0 0,-3.37891 22.69531,0 0,3.37891 -9.47265,0 0,25.2539 -3.78907,0 z"
         style="font-style:normal;font-variant:normal;font-weight:normal;font-stretch:normal;font-size:40px;font-family:Arial;-inkscape-font-specification:Arial;letter-spacing:-2.33999991px"
         id="path4324-4"
         inkscape:connector-curvature="0" />
      <path
         d="m 613.53202,232.36981 q 0,-7.1289 3.82813,-11.15234 3.82812,-4.04297 9.88281,-4.04297 3.96484,0 7.14844,1.89453 3.18359,1.89453 4.84375,5.29297 1.67968,3.37891 1.67968,7.67578 0,4.35547 -1.75781,7.79297 -1.75781,3.4375 -4.98047,5.21484 -3.22265,1.75782 -6.95312,1.75782 -4.04297,0 -7.22657,-1.95313 -3.18359,-1.95312 -4.82421,-5.33203 -1.64063,-3.37891 -1.64063,-7.14844 z m 3.90625,0.0586 q 0,5.17578 2.77344,8.16406 2.79297,2.96875 6.99219,2.96875 4.27734,0 7.03125,-3.00781 2.77343,-3.00782 2.77343,-8.53516 0,-3.49609 -1.1914,-6.09375 -1.17188,-2.61719 -3.45703,-4.04297 -2.26563,-1.44531 -5.09766,-1.44531 -4.02344,0 -6.93359,2.77344 -2.89063,2.7539 -2.89063,9.21875 z"
         style="font-style:normal;font-variant:normal;font-weight:normal;font-stretch:normal;font-size:40px;font-family:Arial;-inkscape-font-specification:Arial;letter-spacing:-2.33999991px"
         id="path4326-293"
         inkscape:connector-curvature="0" />
      <path
         inkscape:connector-curvature="0"
         d="m 657.62155,250.26434 -7.7539,0 0,-2.91015 4.23828,0 0,-30.76172 -4.23828,0 0,-2.91016 7.7539,0 0,36.58203 z"
         style="font-style:normal;font-variant:normal;font-weight:normal;font-stretch:normal;font-size:40px;font-family:Arial;-inkscape-font-specification:Arial;letter-spacing:-2.33999991px"
         id="path4328-5" />
    </g>
  </g>
</svg>
