<?xml version="1.0" standalone="yes"?>

<svg version="1.1" viewBox="0.0 0.0 1234.0 802.0" fill="none" stroke="none" stroke-linecap="square" stroke-miterlimit="10" xmlns="http://www.w3.org/2000/svg" xmlns:xlink="http://www.w3.org/1999/xlink"><clipPath id="p.0"><path d="m0 0l1234.0 0l0 802.0l-1234.0 0l0 -802.0z" clip-rule="nonzero"></path></clipPath><g clip-path="url(#p.0)"><path fill="#000000" fill-opacity="0.0" d="m0 0l1234.0 0l0 802.0l-1234.0 0z" fill-rule="nonzero"></path><path fill="#ffffff" d="m0 -0.001312336l1232.0 0l0 800.03156l-1232.0 0z" fill-rule="nonzero"></path><path stroke="#000000" stroke-width="2.0" stroke-linejoin="round" stroke-linecap="butt" d="m0 -0.001312336l1232.0 0l0 800.03156l-1232.0 0z" fill-rule="nonzero"></path><path fill="#ffffff" d="m54.20866 40.560368l348.0 0l0 347.9685l-348.0 0z" fill-rule="nonzero"></path><path fill="#000000" fill-opacity="0.0" d="m65.2874 46.33619l336.9134 0l0 337.6693l-336.9134 0z" fill-rule="nonzero"></path><path stroke="#000000" stroke-width="2.0" stroke-linejoin="round" stroke-linecap="butt" d="m65.2874 46.33619l336.9134 0l0 337.6693l-336.9134 0z" fill-rule="nonzero"></path><path fill="#ffffff" d="m81.65092 139.12111l304.189 0l0 208.03148l-304.189 0z" fill-rule="nonzero"></path><path stroke="#000000" stroke-width="2.0" stroke-linejoin="round" stroke-linecap="butt" d="m81.65092 139.12111l304.189 0l0 208.03148l-304.189 0z" fill-rule="nonzero"></path><path fill="#000000" fill-opacity="0.0" d="m89.41207 150.47804l288.78738 0l0 181.6378l-288.78738 0z" fill-rule="nonzero"></path><path fill="#000000" d="m114.55576 263.17694l11.8125 -1.0q1.3125 8.625 6.0937576 12.96875q4.78125 4.34375 11.53125 4.34375q8.125 0 13.75 -6.125q5.625 -6.125 5.625 -16.25q0 -9.625015 -5.40625 -15.187515q-5.40625 -5.5625 -14.15625 -5.5625q-5.4375 0 -9.8125 2.46875q-4.375 2.46875 -6.8750076 6.40625l-10.5625 -1.375l8.875 -47.0625l45.562508 0l0 10.75l-36.5625 0l-4.9375 24.625q8.25 -5.75 17.3125 -5.75q12.0 0 20.25 8.3125q8.25 8.3125 8.25 21.375015q0 12.4375 -7.25 21.5q-8.8125 11.125 -24.0625 11.125q-12.5 0 -20.406258 -7.0q-7.90625 -7.0 -9.03125 -18.5625zm77.43751 -29.562515l0 -12.8125l12.8125 0l0 12.8125l-12.8125 0zm0 53.562515l0 -12.8125l12.8125 0l0 12.8125l-12.8125 0zm29.3125 -45.187515q0 -16.25 3.34375 -26.15625q3.34375 -9.90625 9.9375 -15.28125q6.59375 -5.375 16.59375 -5.375q7.3749847 0 12.937485 2.96875q5.5625 2.96875 9.1875 8.5625q3.625 5.59375 5.6875 13.625q2.0625 8.03125 2.0625 21.65625q0 16.125015 -3.3125 26.031265q-3.3125 9.90625 -9.90625 15.3125q-6.59375 5.40625 -16.656235 5.40625q-13.25 0 -20.8125 -9.5q-9.0625 -11.4375 -9.0625 -37.250015zm11.5625 0q0 22.562515 5.28125 30.031265q5.28125 7.46875 13.03125 7.46875q7.7499847 0 13.031235 -7.5q5.28125 -7.5 5.28125 -30.000015q0 -22.625 -5.28125 -30.0625q-5.28125 -7.4375 -13.156235 -7.4375q-7.75 0 -12.375 6.5625q-5.8125 8.375 -5.8125 30.9375zm59.624985 0q0 -16.25 3.34375 -26.15625q3.34375 -9.90625 9.9375 -15.28125q6.59375 -5.375 16.59375 -5.375q7.375 0 12.9375 2.96875q5.5625 2.96875 9.1875 8.5625q3.625 5.59375 5.6875 13.625q2.0625 8.03125 2.0625 21.65625q0 16.125015 -3.3125 26.031265q-3.3125 9.90625 -9.90625 15.3125q-6.59375 5.40625 -16.65625 5.40625q-13.25 0 -20.8125 -9.5q-9.0625 -11.4375 -9.0625 -37.250015zm11.5625 0q0 22.562515 5.28125 30.031265q5.28125 7.46875 13.03125 7.46875q7.75 0 13.03125 -7.5q5.28125 -7.5 5.28125 -30.000015q0 -22.625 -5.28125 -30.0625q-5.28125 -7.4375 -13.15625 -7.4375q-7.75 0 -12.375 6.5625q-5.8125 8.375 -5.8125 30.9375z" fill-rule="nonzero"></path><path fill="#000000" fill-opacity="0.0" d="m457.3281 422.8664l336.91336 0l0 337.6693l-336.91336 0z" fill-rule="nonzero"></path><path stroke="#000000" stroke-width="2.0" stroke-linejoin="round" stroke-linecap="butt" d="m457.3281 422.8664l336.91336 0l0 337.6693l-336.91336 0z" fill-rule="nonzero"></path><path fill="#000000" fill-opacity="0.0" d="m843.65356 45.708893l336.91333 0l0 337.66928l-336.91333 0z" fill-rule="nonzero"></path><path stroke="#000000" stroke-width="2.0" stroke-linejoin="round" stroke-linecap="butt" d="m843.65356 45.708893l336.91333 0l0 337.66928l-336.91333 0z" fill-rule="nonzero"></path><path fill="#000000" fill-opacity="0.0" d="m183.8924 65.91076l106.64566 0l0 63.401573l-106.64566 0z" fill-rule="nonzero"></path><path stroke="#000000" stroke-width="2.0" stroke-linejoin="round" stroke-linecap="butt" d="m183.8924 65.91076l106.64566 0l0 63.401573l-106.64566 0z" fill-rule="nonzero"></path><path fill="#000000" fill-opacity="0.0" d="m308.15222 97.61155l0 0c0 -17.507866 15.0672 -31.70079 33.653564 -31.70079l0 0c8.925476 0 17.485382 3.3398972 23.79663 9.28495c6.3112793 5.9450455 9.856903 14.00827 9.856903 22.41584l0 0c0 17.507858 -15.0672 31.700783 -33.653534 31.700783l0 0c-18.586365 0 -33.653564 -14.1929245 -33.653564 -31.700783z" fill-rule="nonzero"></path><path stroke="#000000" stroke-width="2.0" stroke-linejoin="round" stroke-linecap="butt" d="m308.15222 97.61155l0 0c0 -17.507866 15.0672 -31.70079 33.653564 -31.70079l0 0c8.925476 0 17.485382 3.3398972 23.79663 9.28495c6.3112793 5.9450455 9.856903 14.00827 9.856903 22.41584l0 0c0 17.507858 -15.0672 31.700783 -33.653534 31.700783l0 0c-18.586365 0 -33.653564 -14.1929245 -33.653564 -31.700783z" fill-rule="nonzero"></path><path fill="#000000" fill-opacity="0.0" d="m183.8924 65.91076l929.5433 0l0 108.44094l-929.5433 0z" fill-rule="nonzero"></path><path fill="#ffffff" d="m446.66858 40.343136l346.19043 0l0 350.0563l-346.19043 0z" fill-rule="nonzero"></path><path fill="#000000" fill-opacity="0.0" d="m457.68973 46.15361l335.1614 0l0 339.6953l-335.1614 0z" fill-rule="nonzero"></path><path stroke="#000000" stroke-width="2.0" stroke-linejoin="round" stroke-linecap="butt" d="m457.68973 46.15361l335.1614 0l0 339.6953l-335.1614 0z" fill-rule="nonzero"></path><path fill="#ffffff" d="m469.5857 111.94842l224.21387 0l0 236.75061l-224.21387 0z" fill-rule="nonzero"></path><path stroke="#000000" stroke-width="2.0" stroke-linejoin="round" stroke-linecap="butt" d="m469.5857 111.94842l224.21387 0l0 236.75061l-224.21387 0z" fill-rule="nonzero"></path><path fill="#000000" d="m724.6719 150.9634l46.0271 0l0 197.74635l-46.0271 0z" fill-rule="nonzero"></path><path stroke="#000000" stroke-width="2.0" stroke-linejoin="round" stroke-linecap="butt" d="m724.6719 150.9634l46.0271 0l0 197.74635l-46.0271 0z" fill-rule="nonzero"></path><path fill="#ffffff" d="m733.9016 81.14038l0 0c0 -8.425842 6.9298096 -15.25634 15.478149 -15.25634l0 0c4.1050415 0 8.041992 1.6073608 10.944702 4.4684753c2.90271 2.8611221 4.5334473 6.7416306 4.5334473 10.787865l0 0c0 8.42585 -6.9298096 15.256348 -15.478149 15.256348l0 0c-8.54834 0 -15.478149 -6.8304977 -15.478149 -15.256348z" fill-rule="nonzero"></path><path stroke="#000000" stroke-width="2.0" stroke-linejoin="round" stroke-linecap="butt" d="m733.9016 81.14038l0 0c0 -8.425842 6.9298096 -15.25634 15.478149 -15.25634l0 0c4.1050415 0 8.041992 1.6073608 10.944702 4.4684753c2.90271 2.8611221 4.5334473 6.7416306 4.5334473 10.787865l0 0c0 8.42585 -6.9298096 15.256348 -15.478149 15.256348l0 0c-8.54834 0 -15.478149 -6.8304977 -15.478149 -15.256348z" fill-rule="nonzero"></path><path fill="#ffffff" d="m484.02972 230.32394l0 0c0 -55.27986 43.725098 -100.09305 97.66272 -100.09305l0 0c25.901794 0 50.742676 10.545486 69.05798 29.316574c18.315308 18.771088 28.604736 44.23015 28.604736 70.776474l0 0c0 55.279846 -43.725098 100.09305 -97.66272 100.09305l0 0c-53.937622 0 -97.66272 -44.8132 -97.66272 -100.09305z" fill-rule="nonzero"></path><path stroke="#000000" stroke-width="2.0" stroke-linejoin="round" stroke-linecap="butt" d="m484.02972 230.32394l0 0c0 -55.27986 43.725098 -100.09305 97.66272 -100.09305l0 0c25.901794 0 50.742676 10.545486 69.05798 29.316574c18.315308 18.771088 28.604736 44.23015 28.604736 70.776474l0 0c0 55.279846 -43.725098 100.09305 -97.66272 100.09305l0 0c-53.937622 0 -97.66272 -44.8132 -97.66272 -100.09305z" fill-rule="nonzero"></path><path fill="#000000" fill-opacity="0.0" d="m497.82376 194.74829l201.46658 0l0 71.10123l-201.46658 0z" fill-rule="nonzero"></path><path fill="#000000" d="m509.5425 250.10141l0 -36.59375l7.7499695 0l0 2.921875l-4.234375 0l0 30.765625l4.234375 0l0 2.90625l-7.7499695 0zm29.882782 -7.953125l0 -25.25l-9.4375 0l0 -3.390625l22.703125 0l0 3.390625l-9.484375 0l0 25.25l-3.78125 0zm17.230469 0l0 -28.640625l20.703125 0l0 3.390625l-16.921875 0l0 8.765625l15.84375 0l0 3.359375l-15.84375 0l0 9.75l17.578125 0l0 3.375l-21.359375 0zm23.679688 0l11.078125 -14.921875l-9.765625 -13.71875l4.515625 0l5.1875 7.34375q1.625 2.296875 2.3125 3.515625q0.953125 -1.5625 2.265625 -3.25l5.765625 -7.609375l4.109375 0l-10.046875 13.5l10.828125 15.140625l-4.6875 0l-7.203125 -10.21875q-0.609375 -0.875 -1.25 -1.90625q-0.953125 1.5625 -1.359375 2.140625l-7.1875 9.984375l-4.5625 0zm36.882812 0l0 -25.25l-9.4375 0l0 -3.390625l22.703125 0l0 3.390625l-9.484375 0l0 25.25l-3.78125 0zm33.6875 7.953125l-7.75 0l0 -2.90625l4.234375 0l0 -30.765625l-4.234375 0l0 -2.921875l7.75 0l0 36.59375z" fill-rule="nonzero"></path><path fill="#000000" fill-opacity="0.0" d="m493.3942 136.91644l176.99606 0l0 186.815l-176.99606 0z" fill-rule="nonzero"></path><path stroke="#000000" stroke-width="1.0" stroke-linejoin="round" stroke-linecap="butt" d="m493.3942 136.91644l176.99606 0l0 186.815l-176.99606 0z" fill-rule="nonzero"></path><path fill="#000000" fill-opacity="0.0" d="m470.25397 113.67552l23.34256 23.19345" fill-rule="nonzero"></path><path stroke="#000000" stroke-width="1.0" stroke-linejoin="round" stroke-linecap="butt" d="m470.25397 113.67552l23.34256 23.19345" fill-rule="nonzero"></path><path fill="#000000" fill-opacity="0.0" d="m670.5952 323.72885l22.966553 24.429169" fill-rule="nonzero"></path><path stroke="#000000" stroke-width="1.0" stroke-linejoin="round" stroke-linecap="butt" d="m670.5952 323.72885l22.966553 24.429169" fill-rule="nonzero"></path><path fill="#000000" fill-opacity="0.0" d="m693.53564 113.67552l-22.527893 23.19345" fill-rule="nonzero"></path><path stroke="#000000" stroke-width="1.0" stroke-linejoin="round" stroke-linecap="butt" d="m693.53564 113.67552l-22.527893 23.19345" fill-rule="nonzero"></path><path fill="#000000" fill-opacity="0.0" d="m493.18918 323.73413l-22.527893 23.19345" fill-rule="nonzero"></path><path stroke="#000000" stroke-width="1.0" stroke-linejoin="round" stroke-linecap="butt" d="m493.18918 323.73413l-22.527893 23.19345" fill-rule="nonzero"></path><path fill="#000000" fill-opacity="0.0" d="m507.53677 99.588875l25.81778 0l0 12.35717l-25.81778 0z" fill-rule="nonzero"></path><path stroke="#000000" stroke-width="2.0" stroke-linejoin="round" stroke-linecap="butt" d="m507.53677 99.588875l25.81778 0l0 12.35717l-25.81778 0z" fill-rule="nonzero"></path><path fill="#000000" fill-opacity="0.0" d="m632.0356 99.588875l25.81781 0l0 12.35717l-25.81781 0z" fill-rule="nonzero"></path><path stroke="#000000" stroke-width="2.0" stroke-linejoin="round" stroke-linecap="butt" d="m632.0356 99.588875l25.81781 0l0 12.35717l-25.81781 0z" fill-rule="nonzero"></path><path fill="#000000" fill-opacity="0.0" d="m536.34155 104.14624l91.77228 0l0 7.794525l-91.77228 0z" fill-rule="nonzero"></path><path stroke="#000000" stroke-width="2.0" stroke-linejoin="round" stroke-linecap="butt" d="m536.34155 104.14624l91.77228 0l0 7.794525l-91.77228 0z" fill-rule="nonzero"></path><path fill="#ffffff" d="m54.209972 415.29398l348.0 0l0 347.96848l-348.0 0z" fill-rule="nonzero"></path><path fill="#000000" fill-opacity="0.0" d="m65.28871 421.0698l336.9134 0l0 337.66928l-336.9134 0z" fill-rule="nonzero"></path><path stroke="#000000" stroke-width="2.0" stroke-linejoin="round" stroke-linecap="butt" d="m65.28871 421.0698l336.9134 0l0 337.66928l-336.9134 0z" fill-rule="nonzero"></path><path fill="#000000" fill-opacity="0.0" d="m128.61154 590.35956l52.56694 -52.566895l52.566925 52.566895l-52.566925 52.566956z" fill-rule="nonzero"></path><path stroke="#000000" stroke-width="2.0" stroke-linejoin="round" stroke-linecap="butt" d="m128.61154 590.35956l52.56694 -52.566895l52.566925 52.566895l-52.566925 52.566956z" fill-rule="nonzero"></path><path fill="#000000" fill-opacity="0.0" d="m181.47244 642.4724l52.566925 -52.566895l52.566925 52.566895l-52.566925 52.566956z" fill-rule="nonzero"></path><path stroke="#000000" stroke-width="2.0" stroke-linejoin="round" stroke-linecap="butt" d="m181.47244 642.4724l52.566925 -52.566895l52.566925 52.566895l-52.566925 52.566956z" fill-rule="nonzero"></path><path fill="#000000" fill-opacity="0.0" d="m233.7454 590.35956l52.56694 -52.566895l52.566925 52.566895l-52.566925 52.566956z" fill-rule="nonzero"></path><path stroke="#000000" stroke-width="2.0" stroke-linejoin="round" stroke-linecap="butt" d="m233.7454 590.35956l52.56694 -52.566895l52.566925 52.566895l-52.566925 52.566956z" fill-rule="nonzero"></path><path fill="#000000" fill-opacity="0.0" d="m181.47244 537.33856l52.566925 -52.566895l52.566925 52.566895l-52.566925 52.566956z" fill-rule="nonzero"></path><path stroke="#000000" stroke-width="2.0" stroke-linejoin="round" stroke-linecap="butt" d="m181.47244 537.33856l52.566925 -52.566895l52.566925 52.566895l-52.566925 52.566956z" fill-rule="nonzero"></path><path fill="#ffffff" d="m342.9444 455.8479l0 0c0 -8.37561 6.966034 -15.165375 15.559082 -15.165375l0 0c4.1264954 0 8.084015 1.5977783 11.001892 4.4418335c2.9179077 2.8440552 4.5571594 6.701416 4.5571594 10.723541l0 0c0 8.37558 -6.966034 15.165344 -15.5590515 15.165344l0 0c-8.593048 0 -15.559082 -6.7897644 -15.559082 -15.165344z" fill-rule="nonzero"></path><path stroke="#000000" stroke-width="2.0" stroke-linejoin="round" stroke-linecap="butt" d="m342.9444 455.8479l0 0c0 -8.37561 6.966034 -15.165375 15.559082 -15.165375l0 0c4.1264954 0 8.084015 1.5977783 11.001892 4.4418335c2.9179077 2.8440552 4.5571594 6.701416 4.5571594 10.723541l0 0c0 8.37558 -6.966034 15.165344 -15.5590515 15.165344l0 0c-8.593048 0 -15.559082 -6.7897644 -15.559082 -15.165344z" fill-rule="nonzero"></path><path fill="#ffffff" d="m829.4068 419.04724l348.00006 0l0 347.9685l-348.00006 0z" fill-rule="nonzero"></path><path fill="#000000" fill-opacity="0.0" d="m840.48553 424.82306l336.9134 0l0 337.6693l-336.9134 0z" fill-rule="nonzero"></path><path stroke="#000000" stroke-width="2.0" stroke-linejoin="round" stroke-linecap="butt" d="m840.48553 424.82306l336.9134 0l0 337.6693l-336.9134 0z" fill-rule="nonzero"></path><path fill="#ffffff" d="m1118.1412 459.60117l0 0c0 -8.37558 6.9660645 -15.165344 15.559082 -15.165344l0 0c4.126465 0 8.083984 1.5977783 11.001953 4.4418335c2.9178467 2.8440552 4.557129 6.701416 4.557129 10.723511l0 0c0 8.37561 -6.9660645 15.165344 -15.559082 15.165344l0 0c-8.593018 0 -15.559082 -6.789734 -15.559082 -15.165344z" fill-rule="nonzero"></path><path stroke="#000000" stroke-width="2.0" stroke-linejoin="round" stroke-linecap="butt" d="m1118.1412 459.60117l0 0c0 -8.37558 6.9660645 -15.165344 15.559082 -15.165344l0 0c4.126465 0 8.083984 1.5977783 11.001953 4.4418335c2.9178467 2.8440552 4.557129 6.701416 4.557129 10.723511l0 0c0 8.37561 -6.9660645 15.165344 -15.559082 15.165344l0 0c-8.593018 0 -15.559082 -6.789734 -15.559082 -15.165344z" fill-rule="nonzero"></path><path fill="#000000" fill-opacity="0.0" d="m882.43304 480.79266l29.165405 0l0 225.7323l-29.165405 0z" fill-rule="nonzero"></path><path stroke="#000000" stroke-width="2.0" stroke-linejoin="round" stroke-linecap="butt" d="m882.43304 480.79266l29.165405 0l0 225.7323l-29.165405 0z" fill-rule="nonzero"></path><path fill="#000000" fill-opacity="0.0" d="m1092.9763 525.6352l29.165405 0l0 178.20471l-29.165405 0z" fill-rule="nonzero"></path><path stroke="#000000" stroke-width="2.0" stroke-linejoin="round" stroke-linecap="butt" d="m1092.9763 525.6352l29.165405 0l0 178.20471l-29.165405 0z" fill-rule="nonzero"></path><path fill="#000000" fill-opacity="0.0" d="m897.0131 513.10205c10.847107 -2.3268433 19.528015 12.0625 30.566956 13.165344c24.493225 2.4470825 49.259216 -2.8534546 73.83197 -1.4094238c11.687805 0.6868286 20.134766 12.744995 31.509216 15.519653c25.011353 6.1013184 50.6969 9.060364 76.183716 12.695557" fill-rule="evenodd"></path><path stroke="#000000" stroke-width="2.0" stroke-linejoin="round" stroke-linecap="butt" d="m897.0131 513.10205c10.847107 -2.3268433 19.528015 12.0625 30.566956 13.165344c24.493225 2.4470825 49.259216 -2.8534546 73.83197 -1.4094238c11.687805 0.6868286 20.134766 12.744995 31.509216 15.519653c25.011353 6.1013184 50.6969 9.060364 76.183716 12.695557" fill-rule="evenodd"></path><path fill="#000000" fill-opacity="0.0" d="m900.7743 549.31165c24.469177 -11.123474 52.59796 13.950012 79.47504 13.637817c23.982666 -0.27856445 49.307068 -7.9002686 71.95282 0c18.92749 6.6031494 43.667603 30.634155 57.84253 16.45929" fill-rule="evenodd"></path><path stroke="#000000" stroke-width="2.0" stroke-linejoin="round" stroke-linecap="butt" d="m900.7743 549.31165c24.469177 -11.123474 52.59796 13.950012 79.47504 13.637817c23.982666 -0.27856445 49.307068 -7.9002686 71.95282 0c18.92749 6.6031494 43.667603 30.634155 57.84253 16.45929" fill-rule="evenodd"></path><path fill="#000000" fill-opacity="0.0" d="m897.4829 582.23114c13.594299 -1.7824097 28.332642 -9.683838 40.91339 -4.2335815c8.545227 3.7019653 7.2301636 21.330505 16.45935 22.57483c30.325989 4.088562 61.216125 -1.6049805 91.70343 -4.2335815c21.870361 -1.8856812 43.415894 7.994751 65.36743 7.994751" fill-rule="evenodd"></path><path stroke="#000000" stroke-width="2.0" stroke-linejoin="round" stroke-linecap="butt" d="m897.4829 582.23114c13.594299 -1.7824097 28.332642 -9.683838 40.91339 -4.2335815c8.545227 3.7019653 7.2301636 21.330505 16.45935 22.57483c30.325989 4.088562 61.216125 -1.6049805 91.70343 -4.2335815c21.870361 -1.8856812 43.415894 7.994751 65.36743 7.994751" fill-rule="evenodd"></path><path fill="#000000" fill-opacity="0.0" d="m896.5407 609.50684c14.410095 -0.9737549 29.280518 -5.961731 43.265076 -2.3516846c11.184204 2.887146 21.443298 9.520508 32.921265 10.816284c22.413086 2.5302124 45.2865 2.3771973 67.246704 7.5249023c11.842651 2.776062 21.626831 5.8234863 29.15747 6.112854c13.792236 0.52996826 29.040283 -7.58667 41.38318 -1.4094238" fill-rule="evenodd"></path><path stroke="#000000" stroke-width="2.0" stroke-linejoin="round" stroke-linecap="butt" d="m896.5407 609.50684c14.410095 -0.9737549 29.280518 -5.961731 43.265076 -2.3516846c11.184204 2.887146 21.443298 9.520508 32.921265 10.816284c22.413086 2.5302124 45.2865 2.3771973 67.246704 7.5249023c11.842651 2.776062 21.626831 5.8234863 29.15747 6.112854c13.792236 0.52996826 29.040283 -7.58667 41.38318 -1.4094238" fill-rule="evenodd"></path><path fill="#000000" fill-opacity="0.0" d="m896.5407 681.4593c9.028687 12.403442 31.701538 12.572632 45.61676 6.112915c10.123169 -4.699402 17.996704 -16.45935 29.15747 -16.45935c9.071655 0 18.350891 1.413208 26.805786 4.7008057c6.3217163 2.45813 4.523987 16.401917 11.286072 16.931763c32.746033 2.565796 66.4223 0.9182739 98.28607 -7.0551147" fill-rule="evenodd"></path><path stroke="#000000" stroke-width="2.0" stroke-linejoin="round" stroke-linecap="butt" d="m896.5407 681.4593c9.028687 12.403442 31.701538 12.572632 45.61676 6.112915c10.123169 -4.699402 17.996704 -16.45935 29.15747 -16.45935c9.071655 0 18.350891 1.413208 26.805786 4.7008057c6.3217163 2.45813 4.523987 16.401917 11.286072 16.931763c32.746033 2.565796 66.4223 0.9182739 98.28607 -7.0551147" fill-rule="evenodd"></path><path fill="#000000" fill-opacity="0.0" d="m901.7139 646.66c46.126038 -8.542603 94.6983 5.857666 139.20209 20.690247c8.912476 2.970459 16.02478 -11.53241 25.393677 -12.225708c14.25708 -1.0549927 28.499268 2.8215332 42.795288 2.8215332" fill-rule="evenodd"></path><path stroke="#000000" stroke-width="2.0" stroke-linejoin="round" stroke-linecap="butt" d="m901.7139 646.66c46.126038 -8.542603 94.6983 5.857666 139.20209 20.690247c8.912476 2.970459 16.02478 -11.53241 25.393677 -12.225708c14.25708 -1.0549927 28.499268 2.8215332 42.795288 2.8215332" fill-rule="evenodd"></path></g></svg>

