<?xml version="1.0" standalone="yes"?>

<svg version="1.1" viewBox="0.0 0.0 369.0 801.0" fill="none" stroke="none" stroke-linecap="square" stroke-miterlimit="10" xmlns="http://www.w3.org/2000/svg" xmlns:xlink="http://www.w3.org/1999/xlink"><clipPath id="p.0"><path d="m0 0l369.0 0l0 801.0l-369.0 0l0 -801.0z" clip-rule="nonzero"></path></clipPath><g clip-path="url(#p.0)"><path fill="#000000" fill-opacity="0.0" d="m0 0l369.1076 0l0 801.916l-369.1076 0z" fill-rule="nonzero"></path><path fill="#000000" d="m248.5753 444.2651l101.4803 0l0 67.55905l-101.4803 0z" fill-rule="nonzero"></path><path stroke="#000000" stroke-width="2.0" stroke-linejoin="round" stroke-linecap="butt" d="m248.5753 444.2651l101.4803 0l0 67.55905l-101.4803 0z" fill-rule="nonzero"></path><path fill="#ffffff" d="m289.4047 109.25535l67.3071 0l0 208.0315l-67.3071 0z" fill-rule="nonzero"></path><path stroke="#000000" stroke-width="2.0" stroke-linejoin="round" stroke-linecap="butt" d="m289.4047 109.25535l67.3071 0l0 208.0315l-67.3071 0z" fill-rule="nonzero"></path><path fill="#ffffff" d="m5.589649 165.38321l47.716534 0l0 107.71652l-47.716534 0z" fill-rule="nonzero"></path><path stroke="#000000" stroke-width="2.0" stroke-linejoin="round" stroke-linecap="butt" d="m5.589649 165.38321l47.716534 0l0 107.71652l-47.716534 0z" fill-rule="nonzero"></path><path fill="#ffffff" d="m278.36172 66.32809l68.828064 0l0 0c9.016663 0 16.32611 7.0423126 16.32611 15.729446c0 8.687134 -7.3094482 15.729446 -16.32611 15.729446l-68.828064 0l0 0c-9.016663 0 -16.326141 -7.0423126 -16.326141 -15.729446c0 -8.687134 7.3094788 -15.729446 16.326141 -15.729446z" fill-rule="nonzero"></path><path stroke="#000000" stroke-width="2.0" stroke-linejoin="round" stroke-linecap="butt" d="m278.36172 66.32809l68.828064 0l0 0c9.016663 0 16.32611 7.0423126 16.32611 15.729446c0 8.687134 -7.3094482 15.729446 -16.32611 15.729446l-68.828064 0l0 0c-9.016663 0 -16.326141 -7.0423126 -16.326141 -15.729446c0 -8.687134 7.3094788 -15.729446 16.326141 -15.729446z" fill-rule="nonzero"></path><path fill="#ffffff" d="m12.574803 486.2047l67.30708 0l0 208.0315l-67.30708 0z" fill-rule="nonzero"></path><path stroke="#000000" stroke-width="2.0" stroke-linejoin="round" stroke-linecap="butt" d="m12.574803 486.2047l67.30708 0l0 208.0315l-67.30708 0z" fill-rule="nonzero"></path><path fill="#ffffff" d="m243.86876 46.650917l92.157486 0l0 337.6693l-92.157486 0z" fill-rule="nonzero"></path><path stroke="#000000" stroke-width="2.0" stroke-linejoin="round" stroke-linecap="butt" d="m243.86876 46.650917l92.157486 0l0 337.6693l-92.157486 0z" fill-rule="nonzero"></path><path fill="#000000" d="m22.658957 122.89764l79.08661 0l0 181.63779l-79.08661 0z" fill-rule="nonzero"></path><path stroke="#000000" stroke-width="2.0" stroke-linejoin="round" stroke-linecap="butt" d="m22.658957 122.89764l79.08661 0l0 181.63779l-79.08661 0z" fill-rule="nonzero"></path><path fill="#ffffff" d="m22.689058 66.32809l68.82809 0l0 0c9.016663 0 16.326118 7.0423126 16.326118 15.729446c0 8.687134 -7.309456 15.729446 -16.326118 15.729446l-68.82809 0l0 0c-9.0166645 0 -16.326115 -7.0423126 -16.326115 -15.729446c0 -8.687134 7.3094506 -15.729446 16.326115 -15.729446z" fill-rule="nonzero"></path><path stroke="#000000" stroke-width="2.0" stroke-linejoin="round" stroke-linecap="butt" d="m22.689058 66.32809l68.82809 0l0 0c9.016663 0 16.326118 7.0423126 16.326118 15.729446c0 8.687134 -7.309456 15.729446 -16.326118 15.729446l-68.82809 0l0 0c-9.0166645 0 -16.326115 -7.0423126 -16.326115 -15.729446c0 -8.687134 7.3094506 -15.729446 16.326115 -15.729446z" fill-rule="nonzero"></path><path fill="#ffffff" d="m22.689058 443.84253l68.82809 0l0 0c9.016663 0 16.326118 7.0422974 16.326118 15.729431c0 8.687134 -7.309456 15.729462 -16.326118 15.729462l-68.82809 0l0 0c-9.0166645 0 -16.326115 -7.042328 -16.326115 -15.729462c0 -8.687134 7.3094506 -15.729431 16.326115 -15.729431z" fill-rule="nonzero"></path><path stroke="#000000" stroke-width="2.0" stroke-linejoin="round" stroke-linecap="butt" d="m22.689058 443.84253l68.82809 0l0 0c9.016663 0 16.326118 7.0422974 16.326118 15.729431c0 8.687134 -7.309456 15.729462 -16.326118 15.729462l-68.82809 0l0 0c-9.0166645 0 -16.326115 -7.042328 -16.326115 -15.729462c0 -8.687134 7.3094506 -15.729431 16.326115 -15.729431z" fill-rule="nonzero"></path><path fill="#ffffff" d="m31.853674 46.650917l54.960632 0l0 337.6693l-54.960632 0z" fill-rule="nonzero"></path><path stroke="#000000" stroke-width="2.0" stroke-linejoin="round" stroke-linecap="butt" d="m31.853674 46.650917l54.960632 0l0 337.6693l-54.960632 0z" fill-rule="nonzero"></path><path fill="#ffffff" d="m278.36368 443.84253l68.828094 0l0 0c9.016663 0 16.32611 7.0422974 16.32611 15.729431c0 8.687134 -7.3094482 15.729462 -16.32611 15.729462l-68.828094 0l0 0c-9.016663 0 -16.32611 -7.042328 -16.32611 -15.729462c0 -8.687134 7.3094482 -15.729431 16.32611 -15.729431z" fill-rule="nonzero"></path><path stroke="#000000" stroke-width="2.0" stroke-linejoin="round" stroke-linecap="butt" d="m278.36368 443.84253l68.828094 0l0 0c9.016663 0 16.32611 7.0422974 16.32611 15.729431c0 8.687134 -7.3094482 15.729462 -16.32611 15.729462l-68.828094 0l0 0c-9.016663 0 -16.32611 -7.042328 -16.32611 -15.729462c0 -8.687134 7.3094482 -15.729431 16.32611 -15.729431z" fill-rule="nonzero"></path><path fill="#ffffff" d="m251.84662 615.33795l106.64566 0l0 44.818848l-106.64566 0z" fill-rule="nonzero"></path><path stroke="#000000" stroke-width="2.0" stroke-linejoin="round" stroke-linecap="butt" d="m251.84662 615.33795l106.64566 0l0 44.818848l-106.64566 0z" fill-rule="nonzero"></path><path fill="#ffffff" d="m251.84662 544.1022l106.64566 0l0 44.81891l-106.64566 0z" fill-rule="nonzero"></path><path stroke="#000000" stroke-width="2.0" stroke-linejoin="round" stroke-linecap="butt" d="m251.84662 544.1022l106.64566 0l0 44.81891l-106.64566 0z" fill-rule="nonzero"></path><path fill="#ffffff" d="m251.84662 689.47974l106.64566 0l0 44.81891l-106.64566 0z" fill-rule="nonzero"></path><path stroke="#000000" stroke-width="2.0" stroke-linejoin="round" stroke-linecap="butt" d="m251.84662 689.47974l106.64566 0l0 44.81891l-106.64566 0z" fill-rule="nonzero"></path><path fill="#000000" fill-opacity="0.0" d="m6.361959 517.22833l24.88189 0" fill-rule="nonzero"></path><path stroke="#000000" stroke-width="2.0" stroke-linejoin="round" stroke-linecap="butt" d="m6.361959 517.22833l24.88189 0" fill-rule="nonzero"></path><path fill="#000000" fill-opacity="0.0" d="m6.361959 569.0379l24.88189 0" fill-rule="nonzero"></path><path stroke="#000000" stroke-width="2.0" stroke-linejoin="round" stroke-linecap="butt" d="m6.361959 569.0379l24.88189 0" fill-rule="nonzero"></path><path fill="#000000" fill-opacity="0.0" d="m6.361959 616.8954l24.88189 0" fill-rule="nonzero"></path><path stroke="#000000" stroke-width="2.0" stroke-linejoin="round" stroke-linecap="butt" d="m6.361959 616.8954l24.88189 0" fill-rule="nonzero"></path><path fill="#000000" fill-opacity="0.0" d="m6.361959 673.9764l25.637794 0" fill-rule="nonzero"></path><path stroke="#000000" stroke-width="2.0" stroke-linejoin="round" stroke-linecap="butt" d="m6.361959 673.9764l25.637794 0" fill-rule="nonzero"></path><path fill="#ffffff" d="m31.85023 423.8084l304.1575 0l0 337.66925l-304.1575 0z" fill-rule="nonzero"></path><path stroke="#000000" stroke-width="2.0" stroke-linejoin="round" stroke-linecap="butt" d="m31.85023 423.8084l304.1575 0l0 337.66925l-304.1575 0z" fill-rule="nonzero"></path><path fill="#ffffff" d="m56.01132 0.9422572l256.59842 0l0 800.0315l-256.59842 0z" fill-rule="nonzero"></path><path stroke="#000000" stroke-width="2.0" stroke-linejoin="round" stroke-linecap="butt" d="m56.01132 0.9422572l256.59842 0l0 800.0315l-256.59842 0z" fill-rule="nonzero"></path><path fill="#000000" fill-opacity="0.0" d="m289.4042 31.199474l0 315.65356l-67.55907 0l0 -315.65356z" fill-rule="nonzero"></path><path stroke="#000000" stroke-width="2.0" stroke-linejoin="round" stroke-linecap="butt" d="m289.4042 31.199474l0 315.65356l-67.55907 0l0 -315.65356z" fill-rule="nonzero"></path><path fill="#000000" d="m237.5453 51.61218l29.26561 0l0 6.203125l-2.328125 0l0 -3.390625l-24.60936 0l0 3.390625l-2.328125 0l0 -6.203125zm13.71875 8.15625l0.25 2.859375q-1.71875 0.203125 -2.828125 0.9375q-1.09375 0.7500038 -1.78125 2.3125038q-0.671875 1.5625 -0.671875 3.515625q0 1.734375 0.515625 3.0625q0.515625 1.328125 1.40625 1.96875q0.90625 0.65625 1.96875 0.65625q1.078125 0 1.875 -0.625q0.8125 -0.625 1.359375 -2.0625q0.359375 -0.921875 1.109375 -4.078125q0.765625 -3.15625 1.4375 -4.421879q0.85935974 -1.640625 2.1249847 -2.453125q1.28125 -0.796875 2.859375 -0.796875q1.734375 0 3.234375 0.984375q1.515625 0.984375 2.296875 2.8750038q0.78125 1.890625 0.78125 4.203125q0 2.546875 -0.828125 4.484375q-0.8125 1.953125 -2.40625 3.0q-1.59375 1.046875 -3.609375 1.125l-0.21875 -2.90625q2.171875 -0.234375 3.28125 -1.59375q1.109375 -1.34375 1.109375 -3.984375q0 -2.75 -1.015625 -4.015625q-1.0 -1.2500038 -2.421875 -1.2500038q-1.234375 0 -2.03125 0.8906288q-0.796875 0.875 -1.640625 4.5625q-0.828125 3.703125 -1.4531097 5.078125q-0.921875 2.0 -2.34375 2.953125q-1.40625 0.953125 -3.25 0.953125q-1.828125 0 -3.453125 -1.046875q-1.609375 -1.046875 -2.515625 -3.015625q-0.890625 -1.953125 -0.890625 -4.40625q0 -3.109375 0.90625 -5.21875q0.90625 -2.0937538 2.71875 -3.2968788q1.828125 -1.1875 4.125 -1.25zm-7.359375 22.437504l22.906235 0l0 16.5625l-2.703125 0l0 -13.53125l-7.015625 0l0 12.671875l-2.6874847 0l0 -12.671875l-7.796875 0l0 14.0625l-2.703125 0l0 -17.09375zm0 21.328125l22.906235 0l0 10.15625q0 3.0625 -0.625 4.65625q-0.609375 1.59375 -2.171875 2.546875q-1.5625 0.953125 -3.453125 0.953125q-2.4375 0 -4.109375 -1.578125q-1.6718597 -1.578125 -2.1249847 -4.875q-0.578125 1.203125 -1.140625 1.828125q-1.21875 1.328125 -3.046875 2.515625l-6.234375 3.984375l0 -3.8125l4.765625 -3.03125q2.0625 -1.328125 3.15625 -2.1875q1.09375 -0.859375 1.53125 -1.546875q0.4375 -0.671875 0.609375 -1.375q0.109375 -0.515625 0.109375 -1.6875l0 -3.515625l-10.171875 0l0 -3.03125zm12.79686 3.03125l0 6.515625q0 2.078125 0.421875 3.25q0.4375 1.171875 1.375 1.78125q0.953125 0.609375 2.0625 0.609375q1.625 0 2.671875 -1.1875q1.046875 -1.171875 1.046875 -3.71875l0 -7.25l-7.578125 0zm-12.79686 20.546875l22.906235 0l0 3.03125l-22.906235 0l0 -3.03125zm0 5.859375l22.906235 8.796875l0 3.265625l-22.906235 9.375l0 -3.453125l6.9375 -2.671875l0 -9.578125l-6.9375 -2.515625l0 -3.21875zm9.40625 6.609375l0 7.765625l6.3437347 -2.390625q2.890625 -1.09375 4.75 -1.625q-2.203125 -0.4375 -4.375 -1.234375l-6.7187347 -2.515625zm-9.40625 17.125l22.906235 0l0 3.03125l-20.20311 0l0 11.28125l-2.703125 0l0 -14.3125zm0 26.78125l22.906235 0l0 3.109375l-17.98436 12.03125l17.98436 0l0 2.90625l-22.906235 0l0 -3.109375l17.999985 -12.03125l-17.999985 0l0 -2.90625zm22.906235 38.171875l0 3.03125l-13.23436 0q-3.453125 0 -5.484375 -0.78125q-2.03125 -0.78125 -3.3125 -2.828125q-1.265625 -2.03125 -1.265625 -5.34375q0 -3.21875 1.109375 -5.265625q1.109375 -2.046875 3.203125 -2.921875q2.109375 -0.875 5.75 -0.875l13.23436 0l0 3.03125l-13.218735 0q-2.984375 0 -4.40625 0.546875q-1.40625 0.5625 -2.171875 1.90625q-0.765625 1.359375 -0.765625 3.3125q0 3.34375 1.515625 4.765625q1.515625 1.421875 5.828125 1.421875l13.218735 0zm-22.906235 7.984375l22.906235 0l0 4.5625l-16.218735 5.421875q-2.265625 0.75 -3.390625 1.09375q1.25 0.390625 3.671875 1.21875l15.937485 5.484375l0 4.078125l-22.906235 0l0 -2.921875l19.17186 0l-19.17186 -6.65625l0 -2.734375l19.499985 -6.625l-19.499985 0l0 -2.921875zm0 26.625l22.906235 0l0 8.59375q0 2.625 -0.703125 4.203125q-0.6875 1.59375 -2.140625 2.484375q-1.4375 0.90625 -3.015625 0.90625q-1.46875 0 -2.765625 -0.796875q-1.296875 -0.796875 -2.09375 -2.40625q-0.60935974 2.078125 -2.0781097 3.1875q-1.46875 1.125 -3.46875 1.125q-1.609375 0 -3.0 -0.6875q-1.375 -0.671875 -2.125 -1.671875q-0.75 -1.0 -1.140625 -2.515625q-0.375 -1.5 -0.375 -3.6875l0 -8.734375zm13.281235 3.03125l0 4.953125q0 2.015625 0.265625 2.890625q0.34375 1.15625 1.140625 1.734375q0.796875 0.59375 2.0 0.59375q1.140625 0 2.0 -0.546875q0.875 -0.546875 1.1875 -1.5625q0.328125 -1.015625 0.328125 -3.484375l0 -4.578125l-6.921875 0zm-10.57811 0l0 5.703125q0 1.46875 0.109375 2.0625q0.1875 1.046875 0.625 1.75q0.4375 0.703125 1.265625 1.15625q0.84375 0.453125 1.9375 0.453125q1.28125 0 2.21875 -0.65625q0.953125 -0.65625 1.328125 -1.828125q0.390625 -1.15625 0.390625 -3.34375l0 -5.296875l-7.875 0zm-2.703125 18.5l22.906235 0l0 16.5625l-2.703125 0l0 -13.53125l-7.015625 0l0 12.671875l-2.6874847 0l0 -12.671875l-7.796875 0l0 14.0625l-2.703125 0l0 -17.09375zm0 21.328125l22.906235 0l0 10.15625q0 3.0625 -0.625 4.65625q-0.609375 1.59375 -2.171875 2.546875q-1.5625 0.953125 -3.453125 0.953125q-2.4375 0 -4.109375 -1.578125q-1.6718597 -1.578125 -2.1249847 -4.875q-0.578125 1.203125 -1.140625 1.828125q-1.21875 1.328125 -3.046875 2.515625l-6.234375 3.984375l0 -3.8125l4.765625 -3.03125q2.0625 -1.328125 3.15625 -2.1875q1.09375 -0.859375 1.53125 -1.546875q0.4375 -0.671875 0.609375 -1.375q0.109375 -0.515625 0.109375 -1.6875l0 -3.515625l-10.171875 0l0 -3.03125zm12.79686 3.03125l0 6.515625q0 2.078125 0.421875 3.25q0.4375 1.171875 1.375 1.78125q0.953125 0.609375 2.0625 0.609375q1.625 0 2.671875 -1.1875q1.046875 -1.171875 1.046875 -3.71875l0 -7.25l-7.578125 0zm-19.156235 24.375l0 -6.203125l2.328125 0l0 3.390625l24.60936 0l0 -3.390625l2.328125 0l0 6.203125l-29.26561 0z" fill-rule="nonzero"></path></g></svg>

