<svg viewBox="0.0 0.0 100.0 151.0" fill="none" stroke-linecap="square" stroke-miterlimit="10" xmlns="http://www.w3.org/2000/svg"><clipPath id="a"><path d="M0 0h100v151H0V0z"/></clipPath><g clip-path="url(#a)"><path fill="none" d="M0 0h100v151.56H0z"/><path fill="#fff" d="M36.045 7.562c0-1.192.966-2.158 2.158-2.158H61.1a2.158 2.158 0 0 1 2.158 2.158v8.63a2.158 2.158 0 0 1-2.158 2.157H38.203a2.158 2.158 0 0 1-2.158-2.157z"/><path stroke="#000" stroke-width="2" stroke-linejoin="round" stroke-linecap="butt" d="M36.045 7.562c0-1.192.966-2.158 2.158-2.158H61.1a2.158 2.158 0 0 1 2.158 2.158v8.63a2.158 2.158 0 0 1-2.158 2.157H38.203a2.158 2.158 0 0 1-2.158-2.157z"/><path fill="#fff" d="M26 19.54a8 8 0 0 1 8-8h32a8 8 0 0 1 8 8v118.613a8 8 0 0 1-8 8H34a8 8 0 0 1-8-8z"/><path stroke="#000" stroke-width="2" stroke-linejoin="round" stroke-linecap="butt" d="M26 19.54a8 8 0 0 1 8-8h32a8 8 0 0 1 8 8v118.613a8 8 0 0 1-8 8H34a8 8 0 0 1-8-8z"/><path fill="none" d="M26.504 33.72h46.992"/><path stroke="#000" stroke-width="2" stroke-linejoin="round" stroke-linecap="butt" d="M26.504 33.72h46.992"/></g></svg>