<svg viewBox="0.0 0.0 115.0 156.0" fill="none" stroke-linecap="square" stroke-miterlimit="10" xmlns="http://www.w3.org/2000/svg"><clipPath id="a"><path d="M0 0h115v156H0V0z"/></clipPath><g clip-path="url(#a)"><path fill="none" d="M0 0h115.28v156.076H0z"/><path fill="#fff" d="M38.302 6.576c0-1.191.966-2.157 2.157-2.157h33.638a2.158 2.158 0 0 1 2.157 2.157v8.63a2.158 2.158 0 0 1-2.157 2.158H40.459a2.158 2.158 0 0 1-2.157-2.158z"/><path stroke="#000" stroke-width="2" stroke-linejoin="round" stroke-linecap="butt" d="M38.302 6.576c0-1.191.966-2.157 2.157-2.157h33.638a2.158 2.158 0 0 1 2.157 2.157v8.63a2.158 2.158 0 0 1-2.157 2.158H40.459a2.158 2.158 0 0 1-2.157-2.158z"/><path fill="#fff" d="M6.488 27.607c0-9.417 7.634-17.05 17.05-17.05h68.2a17.05 17.05 0 0 1 17.05 17.05v107.002c0 9.416-7.634 17.05-17.05 17.05h-68.2c-9.416 0-17.05-7.634-17.05-17.05z"/><path stroke="#000" stroke-width="2" stroke-linejoin="round" stroke-linecap="butt" d="M6.488 27.607c0-9.417 7.634-17.05 17.05-17.05h68.2a17.05 17.05 0 0 1 17.05 17.05v107.002c0 9.416-7.634 17.05-17.05 17.05h-68.2c-9.416 0-17.05-7.634-17.05-17.05z"/><path fill="none" d="M6.488 46.215h102.488"/><path stroke="#000" stroke-width="2" stroke-linejoin="round" stroke-linecap="butt" d="M6.488 46.215h102.488"/></g></svg>