<svg viewBox="0.0 0.0 1234.0 802.0" fill="none" stroke-linecap="square" stroke-miterlimit="10" xmlns="http://www.w3.org/2000/svg"><clipPath id="a"><path d="M0 0h1234v802H0V0z"/></clipPath><g clip-path="url(#a)"><path d="M0 0h1234v802H0z"/><path fill="#fff" d="M0-.001h1232V800.03H0z"/><path stroke="#000" stroke-width="2" stroke-linejoin="round" stroke-linecap="butt" d="M0-.001h1232V800.03H0z"/><path fill="#fff" d="M54.209 40.56h348v347.97h-348z"/><path d="M65.287 46.336h336.914v337.67H65.287z"/><path stroke="#000" stroke-width="2" stroke-linejoin="round" stroke-linecap="butt" d="M65.287 46.336h336.914v337.67H65.287z"/><path fill="#fff" d="M81.65 139.121h304.19v208.032H81.65z"/><path stroke="#000" stroke-width="2" stroke-linejoin="round" stroke-linecap="butt" d="M81.65 139.121h304.19v208.032H81.65z"/><path d="M89.412 150.478H378.2v181.638H89.412z"/><path fill="#000" d="M114.556 263.177l11.812-1q1.313 8.625 6.094 12.969 4.781 4.343 11.531 4.343 8.125 0 13.75-6.125t5.625-16.25q0-9.625-5.406-15.187-5.406-5.563-14.156-5.563-5.438 0-9.813 2.47-4.375 2.468-6.875 6.405l-10.562-1.375 8.875-47.062h45.562v10.75h-36.562l-4.938 24.625q8.25-5.75 17.313-5.75 12 0 20.25 8.312 8.25 8.313 8.25 21.375 0 12.438-7.25 21.5-8.813 11.125-24.063 11.125-12.5 0-20.406-7-7.906-7-9.031-18.562zm77.437-29.563v-12.812h12.813v12.812h-12.813zm0 53.563v-12.813h12.813v12.813h-12.813zm29.313-45.188q0-16.25 3.344-26.156 3.343-9.906 9.937-15.281 6.594-5.375 16.594-5.375 7.375 0 12.937 2.969 5.563 2.968 9.188 8.562 3.625 5.594 5.687 13.625 2.063 8.031 2.063 21.656 0 16.125-3.313 26.032-3.312 9.906-9.906 15.312-6.594 5.406-16.656 5.406-13.25 0-20.813-9.5-9.062-11.437-9.062-37.25zm11.562 0q0 22.563 5.282 30.032 5.28 7.468 13.03 7.468 7.75 0 13.032-7.5 5.281-7.5 5.281-30 0-22.625-5.281-30.062-5.281-7.438-13.156-7.438-7.75 0-12.375 6.563-5.813 8.375-5.813 30.937zm59.625 0q0-16.25 3.344-26.156 3.344-9.906 9.938-15.281 6.593-5.375 16.593-5.375 7.375 0 12.938 2.969 5.562 2.968 9.187 8.562 3.625 5.594 5.688 13.625 2.062 8.031 2.062 21.656 0 16.125-3.312 26.032-3.313 9.906-9.906 15.312-6.594 5.406-16.657 5.406-13.25 0-20.812-9.5-9.063-11.437-9.063-37.25zm11.563 0q0 22.563 5.281 30.032 5.281 7.468 13.031 7.468 7.75 0 13.032-7.5 5.28-7.5 5.28-30 0-22.625-5.28-30.062-5.282-7.438-13.157-7.438-7.75 0-12.375 6.563-5.812 8.375-5.812 30.937z"/><path d="M457.328 422.866h336.913v337.67H457.328z"/><path stroke="#000" stroke-width="2" stroke-linejoin="round" stroke-linecap="butt" d="M457.328 422.866h336.913v337.67H457.328z"/><path d="M843.654 45.709h336.913v337.67H843.654z"/><path stroke="#000" stroke-width="2" stroke-linejoin="round" stroke-linecap="butt" d="M843.654 45.709h336.913v337.67H843.654z"/><path d="M183.892 65.91h106.646v63.402H183.892z"/><path stroke="#000" stroke-width="2" stroke-linejoin="round" stroke-linecap="butt" d="M183.892 65.91h106.646v63.402H183.892z"/><path d="M308.152 97.612c0-17.508 15.067-31.701 33.654-31.701 8.925 0 17.485 3.34 23.796 9.285 6.312 5.945 9.857 14.008 9.857 22.416 0 17.507-15.067 31.7-33.653 31.7-18.587 0-33.654-14.193-33.654-31.7z"/><path stroke="#000" stroke-width="2" stroke-linejoin="round" stroke-linecap="butt" d="M308.152 97.612c0-17.508 15.067-31.701 33.654-31.701 8.925 0 17.485 3.34 23.796 9.285 6.312 5.945 9.857 14.008 9.857 22.416 0 17.507-15.067 31.7-33.653 31.7-18.587 0-33.654-14.193-33.654-31.7z"/><path d="M183.892 65.91h929.544v108.442H183.892z"/><path fill="#fff" d="M446.669 40.343h346.19V390.4h-346.19z"/><path d="M457.69 46.154h335.16v339.695H457.69z"/><path stroke="#000" stroke-width="2" stroke-linejoin="round" stroke-linecap="butt" d="M457.69 46.154h335.16v339.695H457.69z"/><path fill="#fff" d="M469.586 111.948H693.8V348.7H469.586z"/><path stroke="#000" stroke-width="2" stroke-linejoin="round" stroke-linecap="butt" d="M469.586 111.948H693.8V348.7H469.586z"/><path fill="#000" d="M724.672 150.963h46.027V348.71h-46.027z"/><path stroke="#000" stroke-width="2" stroke-linejoin="round" stroke-linecap="butt" d="M724.672 150.963h46.027V348.71h-46.027z"/><path fill="#fff" d="M733.902 81.14c0-8.425 6.93-15.256 15.478-15.256 4.105 0 8.042 1.607 10.944 4.469a15.146 15.146 0 0 1 4.534 10.787c0 8.426-6.93 15.257-15.478 15.257-8.549 0-15.478-6.83-15.478-15.257z"/><path stroke="#000" stroke-width="2" stroke-linejoin="round" stroke-linecap="butt" d="M733.902 81.14c0-8.425 6.93-15.256 15.478-15.256 4.105 0 8.042 1.607 10.944 4.469a15.146 15.146 0 0 1 4.534 10.787c0 8.426-6.93 15.257-15.478 15.257-8.549 0-15.478-6.83-15.478-15.257z"/><path fill="#fff" d="M484.03 230.324c0-55.28 43.725-100.093 97.662-100.093 25.902 0 50.743 10.545 69.058 29.316 18.316 18.772 28.605 44.23 28.605 70.777 0 55.28-43.725 100.093-97.663 100.093-53.937 0-97.662-44.813-97.662-100.093z"/><path stroke="#000" stroke-width="2" stroke-linejoin="round" stroke-linecap="butt" d="M484.03 230.324c0-55.28 43.725-100.093 97.662-100.093 25.902 0 50.743 10.545 69.058 29.316 18.316 18.772 28.605 44.23 28.605 70.777 0 55.28-43.725 100.093-97.663 100.093-53.937 0-97.662-44.813-97.662-100.093z"/><path d="M497.824 194.748H699.29v71.102H497.824z"/><path fill="#000" d="M509.543 250.101v-36.593h7.75v2.922h-4.235v30.765h4.234v2.906h-7.75zm29.882-7.953v-25.25h-9.437v-3.39h22.703v3.39h-9.484v25.25h-3.782zm17.23 0v-28.64h20.704v3.39h-16.922v8.766h15.844v3.36h-15.844v9.75h17.578v3.374h-21.36zm23.68 0l11.079-14.922-9.766-13.718h4.516l5.187 7.343q1.625 2.297 2.313 3.516.953-1.562 2.265-3.25l5.766-7.61h4.11l-10.048 13.5 10.828 15.141h-4.687l-7.203-10.218q-.61-.875-1.25-1.907-.953 1.563-1.36 2.14l-7.187 9.985h-4.563zm36.883 0v-25.25h-9.437v-3.39h22.703v3.39H621v25.25h-3.782zm33.688 7.953h-7.75v-2.906h4.234V216.43h-4.234v-2.922h7.75V250.1z"/><path d="M493.394 136.916H670.39v186.815H493.394z"/><path stroke="#000" stroke-linejoin="round" stroke-linecap="butt" d="M493.394 136.916H670.39v186.815H493.394z"/><path d="M470.254 113.676l23.343 23.193"/><path stroke="#000" stroke-linejoin="round" stroke-linecap="butt" d="M470.254 113.676l23.343 23.193"/><path d="M670.595 323.729l22.967 24.429"/><path stroke="#000" stroke-linejoin="round" stroke-linecap="butt" d="M670.595 323.729l22.967 24.429"/><path d="M693.536 113.676l-22.528 23.193"/><path stroke="#000" stroke-linejoin="round" stroke-linecap="butt" d="M693.536 113.676l-22.528 23.193"/><path d="M493.19 323.734l-22.529 23.194"/><path stroke="#000" stroke-linejoin="round" stroke-linecap="butt" d="M493.19 323.734l-22.529 23.194"/><path d="M507.537 99.589h25.818v12.357h-25.818z"/><path stroke="#000" stroke-width="2" stroke-linejoin="round" stroke-linecap="butt" d="M507.537 99.589h25.818v12.357h-25.818z"/><path d="M632.036 99.589h25.817v12.357h-25.817z"/><path stroke="#000" stroke-width="2" stroke-linejoin="round" stroke-linecap="butt" d="M632.036 99.589h25.817v12.357h-25.817z"/><path d="M536.342 104.146h91.772v7.795h-91.772z"/><path stroke="#000" stroke-width="2" stroke-linejoin="round" stroke-linecap="butt" d="M536.342 104.146h91.772v7.795h-91.772z"/><path fill="#fff" d="M54.21 415.294h348v347.968h-348z"/><path d="M65.289 421.07h336.913v337.67H65.29z"/><path stroke="#000" stroke-width="2" stroke-linejoin="round" stroke-linecap="butt" d="M65.289 421.07h336.913v337.67H65.29z"/><path d="M128.612 590.36l52.566-52.567 52.567 52.567-52.567 52.567z"/><path stroke="#000" stroke-width="2" stroke-linejoin="round" stroke-linecap="butt" d="M128.612 590.36l52.566-52.567 52.567 52.567-52.567 52.567z"/><path d="M181.472 642.472l52.567-52.566 52.567 52.566-52.567 52.567z"/><path stroke="#000" stroke-width="2" stroke-linejoin="round" stroke-linecap="butt" d="M181.472 642.472l52.567-52.566 52.567 52.566-52.567 52.567z"/><path d="M233.745 590.36l52.567-52.567 52.567 52.567-52.567 52.567z"/><path stroke="#000" stroke-width="2" stroke-linejoin="round" stroke-linecap="butt" d="M233.745 590.36l52.567-52.567 52.567 52.567-52.567 52.567z"/><path d="M181.472 537.339l52.567-52.567 52.567 52.567-52.567 52.567z"/><path stroke="#000" stroke-width="2" stroke-linejoin="round" stroke-linecap="butt" d="M181.472 537.339l52.567-52.567 52.567 52.567-52.567 52.567z"/><path fill="#fff" d="M342.944 455.848c0-8.376 6.966-15.165 15.56-15.165 4.126 0 8.083 1.597 11.001 4.441 2.918 2.844 4.558 6.702 4.558 10.724 0 8.375-6.967 15.165-15.56 15.165s-15.559-6.79-15.559-15.165z"/><path stroke="#000" stroke-width="2" stroke-linejoin="round" stroke-linecap="butt" d="M342.944 455.848c0-8.376 6.966-15.165 15.56-15.165 4.126 0 8.083 1.597 11.001 4.441 2.918 2.844 4.558 6.702 4.558 10.724 0 8.375-6.967 15.165-15.56 15.165s-15.559-6.79-15.559-15.165z"/><path fill="#fff" d="M829.407 419.047h348v347.969h-348z"/><path d="M840.486 424.823h336.913v337.67H840.486z"/><path stroke="#000" stroke-width="2" stroke-linejoin="round" stroke-linecap="butt" d="M840.486 424.823h336.913v337.67H840.486z"/><path fill="#fff" d="M1118.141 459.601c0-8.375 6.966-15.165 15.56-15.165 4.126 0 8.083 1.598 11.001 4.442 2.918 2.844 4.557 6.701 4.557 10.723 0 8.376-6.966 15.166-15.559 15.166s-15.559-6.79-15.559-15.166z"/><path stroke="#000" stroke-width="2" stroke-linejoin="round" stroke-linecap="butt" d="M1118.141 459.601c0-8.375 6.966-15.165 15.56-15.165 4.126 0 8.083 1.598 11.001 4.442 2.918 2.844 4.557 6.701 4.557 10.723 0 8.376-6.966 15.166-15.559 15.166s-15.559-6.79-15.559-15.166z"/><path d="M882.433 480.793h29.165v225.732h-29.165z"/><path stroke="#000" stroke-width="2" stroke-linejoin="round" stroke-linecap="butt" d="M882.433 480.793h29.165v225.732h-29.165z"/><path d="M1092.976 525.635h29.166V703.84h-29.166z"/><path stroke="#000" stroke-width="2" stroke-linejoin="round" stroke-linecap="butt" d="M1092.976 525.635h29.166V703.84h-29.166z"/><path d="M897.013 513.102c10.847-2.327 19.528 12.063 30.567 13.165 24.493 2.447 49.26-2.853 73.832-1.409 11.688.687 20.135 12.745 31.51 15.52 25.01 6.1 50.696 9.06 76.183 12.695"/><path stroke="#000" stroke-width="2" stroke-linejoin="round" stroke-linecap="butt" d="M897.013 513.102c10.847-2.327 19.528 12.063 30.567 13.165 24.493 2.447 49.26-2.853 73.832-1.409 11.688.687 20.135 12.745 31.51 15.52 25.01 6.1 50.696 9.06 76.183 12.695"/><path d="M900.774 549.312c24.47-11.124 52.598 13.95 79.475 13.637 23.983-.278 49.307-7.9 71.953 0 18.928 6.604 43.668 30.635 57.843 16.46"/><path stroke="#000" stroke-width="2" stroke-linejoin="round" stroke-linecap="butt" d="M900.774 549.312c24.47-11.124 52.598 13.95 79.475 13.637 23.983-.278 49.307-7.9 71.953 0 18.928 6.604 43.668 30.635 57.843 16.46"/><path d="M897.483 582.231c13.594-1.782 28.333-9.684 40.913-4.233 8.546 3.702 7.23 21.33 16.46 22.574 30.326 4.089 61.216-1.605 91.703-4.233 21.87-1.886 43.416 7.995 65.368 7.995"/><path stroke="#000" stroke-width="2" stroke-linejoin="round" stroke-linecap="butt" d="M897.483 582.231c13.594-1.782 28.333-9.684 40.913-4.233 8.546 3.702 7.23 21.33 16.46 22.574 30.326 4.089 61.216-1.605 91.703-4.233 21.87-1.886 43.416 7.995 65.368 7.995"/><path d="M896.54 609.507c14.41-.974 29.281-5.962 43.266-2.352 11.184 2.887 21.443 9.52 32.921 10.816 22.413 2.53 45.287 2.378 67.247 7.525 11.842 2.776 21.627 5.824 29.157 6.113 13.792.53 29.04-7.586 41.383-1.41"/><path stroke="#000" stroke-width="2" stroke-linejoin="round" stroke-linecap="butt" d="M896.54 609.507c14.41-.974 29.281-5.962 43.266-2.352 11.184 2.887 21.443 9.52 32.921 10.816 22.413 2.53 45.287 2.378 67.247 7.525 11.842 2.776 21.627 5.824 29.157 6.113 13.792.53 29.04-7.586 41.383-1.41"/><path d="M896.54 681.46c9.03 12.403 31.702 12.572 45.617 6.112 10.124-4.7 17.997-16.46 29.158-16.46 9.072 0 18.35 1.414 26.806 4.702 6.321 2.458 4.524 16.402 11.286 16.931 32.746 2.566 66.422.919 98.286-7.055"/><path stroke="#000" stroke-width="2" stroke-linejoin="round" stroke-linecap="butt" d="M896.54 681.46c9.03 12.403 31.702 12.572 45.617 6.112 10.124-4.7 17.997-16.46 29.158-16.46 9.072 0 18.35 1.414 26.806 4.702 6.321 2.458 4.524 16.402 11.286 16.931 32.746 2.566 66.422.919 98.286-7.055"/><path d="M901.714 646.66c46.126-8.543 94.698 5.858 139.202 20.69 8.912 2.97 16.025-11.532 25.394-12.225 14.257-1.055 28.499 2.821 42.795 2.821"/><path stroke="#000" stroke-width="2" stroke-linejoin="round" stroke-linecap="butt" d="M901.714 646.66c46.126-8.543 94.698 5.858 139.202 20.69 8.912 2.97 16.025-11.532 25.394-12.225 14.257-1.055 28.499 2.821 42.795 2.821"/></g></svg>