<svg viewBox="0.0 0.0 369.0 801.0" fill="none" stroke-linecap="square" stroke-miterlimit="10" xmlns="http://www.w3.org/2000/svg"><clipPath id="a"><path d="M0 0h369v801H0V0z"/></clipPath><g clip-path="url(#a)"><path d="M0 0h369.108v801.916H0z"/><path fill="#000" d="M248.575 444.265h101.48v67.56h-101.48z"/><path stroke="#000" stroke-width="2" stroke-linejoin="round" stroke-linecap="butt" d="M248.575 444.265h101.48v67.56h-101.48z"/><path fill="#fff" d="M289.405 109.255h67.307v208.032h-67.307z"/><path stroke="#000" stroke-width="2" stroke-linejoin="round" stroke-linecap="butt" d="M289.405 109.255h67.307v208.032h-67.307z"/><path fill="#fff" d="M5.59 165.383h47.716V273.1H5.59z"/><path stroke="#000" stroke-width="2" stroke-linejoin="round" stroke-linecap="butt" d="M5.59 165.383h47.716V273.1H5.59z"/><path fill="#fff" d="M278.362 66.328h68.828c9.016 0 16.326 7.042 16.326 15.73 0 8.687-7.31 15.729-16.326 15.729h-68.828c-9.017 0-16.326-7.042-16.326-15.73 0-8.687 7.31-15.729 16.326-15.729z"/><path stroke="#000" stroke-width="2" stroke-linejoin="round" stroke-linecap="butt" d="M278.362 66.328h68.828c9.016 0 16.326 7.042 16.326 15.73 0 8.687-7.31 15.729-16.326 15.729h-68.828c-9.017 0-16.326-7.042-16.326-15.73 0-8.687 7.31-15.729 16.326-15.729z"/><path fill="#fff" d="M12.575 486.205h67.307v208.031H12.575z"/><path stroke="#000" stroke-width="2" stroke-linejoin="round" stroke-linecap="butt" d="M12.575 486.205h67.307v208.031H12.575z"/><path fill="#fff" d="M243.869 46.65h92.157v337.67H243.87z"/><path stroke="#000" stroke-width="2" stroke-linejoin="round" stroke-linecap="butt" d="M243.869 46.65h92.157v337.67H243.87z"/><path fill="#000" d="M22.659 122.898h79.087v181.637H22.659z"/><path stroke="#000" stroke-width="2" stroke-linejoin="round" stroke-linecap="butt" d="M22.659 122.898h79.087v181.637H22.659z"/><path fill="#fff" d="M22.69 66.328h68.827c9.017 0 16.326 7.042 16.326 15.73 0 8.687-7.31 15.729-16.326 15.729H22.69c-9.017 0-16.326-7.042-16.326-15.73 0-8.687 7.31-15.729 16.326-15.729z"/><path stroke="#000" stroke-width="2" stroke-linejoin="round" stroke-linecap="butt" d="M22.69 66.328h68.827c9.017 0 16.326 7.042 16.326 15.73 0 8.687-7.31 15.729-16.326 15.729H22.69c-9.017 0-16.326-7.042-16.326-15.73 0-8.687 7.31-15.729 16.326-15.729z"/><path fill="#fff" d="M22.69 443.843h68.827c9.017 0 16.326 7.042 16.326 15.729s-7.31 15.73-16.326 15.73H22.69c-9.017 0-16.326-7.043-16.326-15.73 0-8.687 7.31-15.73 16.326-15.73z"/><path stroke="#000" stroke-width="2" stroke-linejoin="round" stroke-linecap="butt" d="M22.69 443.843h68.827c9.017 0 16.326 7.042 16.326 15.729s-7.31 15.73-16.326 15.73H22.69c-9.017 0-16.326-7.043-16.326-15.73 0-8.687 7.31-15.73 16.326-15.73z"/><path fill="#fff" d="M31.854 46.65h54.96v337.67h-54.96z"/><path stroke="#000" stroke-width="2" stroke-linejoin="round" stroke-linecap="butt" d="M31.854 46.65h54.96v337.67h-54.96z"/><path fill="#fff" d="M278.364 443.843h68.828c9.016 0 16.326 7.042 16.326 15.729s-7.31 15.73-16.326 15.73h-68.828c-9.017 0-16.326-7.043-16.326-15.73 0-8.687 7.309-15.73 16.326-15.73z"/><path stroke="#000" stroke-width="2" stroke-linejoin="round" stroke-linecap="butt" d="M278.364 443.843h68.828c9.016 0 16.326 7.042 16.326 15.729s-7.31 15.73-16.326 15.73h-68.828c-9.017 0-16.326-7.043-16.326-15.73 0-8.687 7.309-15.73 16.326-15.73z"/><path fill="#fff" d="M251.847 615.338h106.645v44.819H251.847z"/><path stroke="#000" stroke-width="2" stroke-linejoin="round" stroke-linecap="butt" d="M251.847 615.338h106.645v44.819H251.847z"/><path fill="#fff" d="M251.847 544.102h106.645v44.82H251.847z"/><path stroke="#000" stroke-width="2" stroke-linejoin="round" stroke-linecap="butt" d="M251.847 544.102h106.645v44.82H251.847z"/><path fill="#fff" d="M251.847 689.48h106.645v44.819H251.847z"/><path stroke="#000" stroke-width="2" stroke-linejoin="round" stroke-linecap="butt" d="M251.847 689.48h106.645v44.819H251.847z"/><path d="M6.362 517.228h24.882"/><path stroke="#000" stroke-width="2" stroke-linejoin="round" stroke-linecap="butt" d="M6.362 517.228h24.882"/><path d="M6.362 569.038h24.882"/><path stroke="#000" stroke-width="2" stroke-linejoin="round" stroke-linecap="butt" d="M6.362 569.038h24.882"/><path d="M6.362 616.895h24.882"/><path stroke="#000" stroke-width="2" stroke-linejoin="round" stroke-linecap="butt" d="M6.362 616.895h24.882"/><path d="M6.362 673.976H32"/><path stroke="#000" stroke-width="2" stroke-linejoin="round" stroke-linecap="butt" d="M6.362 673.976H32"/><path fill="#fff" d="M31.85 423.808h304.158v337.67H31.85z"/><path stroke="#000" stroke-width="2" stroke-linejoin="round" stroke-linecap="butt" d="M31.85 423.808h304.158v337.67H31.85z"/><path fill="#fff" d="M56.011.942H312.61v800.032H56.01z"/><path stroke="#000" stroke-width="2" stroke-linejoin="round" stroke-linecap="butt" d="M56.011.942H312.61v800.032H56.01z"/><path d="M289.404 31.2v315.653h-67.559V31.199z"/><path stroke="#000" stroke-width="2" stroke-linejoin="round" stroke-linecap="butt" d="M289.404 31.2v315.653h-67.559V31.199z"/><path fill="#000" d="M237.545 51.612h29.266v6.203h-2.328v-3.39h-24.61v3.39h-2.328v-6.203zm13.72 8.156l.25 2.86q-1.72.203-2.83.937-1.093.75-1.78 2.313-.672 1.562-.672 3.515 0 1.735.515 3.063.516 1.328 1.407 1.969.906.656 1.968.656 1.079 0 1.875-.625.813-.625 1.36-2.063.36-.921 1.11-4.078.765-3.156 1.437-4.422.859-1.64 2.125-2.453 1.28-.797 2.859-.797 1.734 0 3.234.985 1.516.984 2.297 2.875.782 1.89.782 4.203 0 2.547-.829 4.484-.812 1.953-2.406 3t-3.61 1.125l-.218-2.906q2.172-.234 3.281-1.594 1.11-1.343 1.11-3.984 0-2.75-1.016-4.016-1-1.25-2.422-1.25-1.234 0-2.031.89-.797.876-1.64 4.563-.829 3.704-1.454 5.079-.922 2-2.344 2.953-1.406.953-3.25.953-1.828 0-3.453-1.047-1.61-1.047-2.515-3.016-.89-1.953-.89-4.406 0-3.11.905-5.219.907-2.093 2.72-3.297 1.827-1.187 4.124-1.25zm-7.36 22.438h22.906v16.562h-2.703v-13.53h-7.016v12.671h-2.687V85.237h-7.797V99.3h-2.703V82.206zm0 21.328h22.906v10.156q0 3.063-.625 4.657-.61 1.593-2.172 2.546-1.562.954-3.453.954-2.438 0-4.11-1.579-1.671-1.578-2.124-4.875-.579 1.204-1.141 1.829-1.219 1.328-3.047 2.515l-6.234 3.985v-3.813l4.765-3.031q2.063-1.328 3.157-2.188 1.093-.86 1.53-1.547.438-.671.61-1.375.11-.515.11-1.687v-3.516h-10.172v-3.03zm12.797 3.031v6.516q0 2.078.421 3.25.438 1.172 1.375 1.781.954.61 2.063.61 1.625 0 2.672-1.188 1.047-1.172 1.047-3.719v-7.25h-7.578zm-12.797 20.547h22.906v3.031h-22.906v-3.03zm0 5.86l22.906 8.796v3.266l-22.906 9.375v-3.453l6.937-2.672v-9.578l-6.937-2.516v-3.218zm9.406 6.609v7.766l6.344-2.391q2.89-1.094 4.75-1.625-2.203-.438-4.375-1.234l-6.72-2.516zm-9.406 17.125h22.906v3.031h-20.203v11.281h-2.703v-14.312zm0 26.781h22.906v3.11l-17.984 12.03h17.984v2.907h-22.906v-3.11l18-12.03h-18v-2.907zm22.906 38.172v3.031h-13.234q-3.454 0-5.485-.78-2.031-.782-3.312-2.83-1.266-2.03-1.266-5.343 0-3.219 1.11-5.265 1.109-2.047 3.203-2.922 2.109-.875 5.75-.875h13.234v3.03h-13.219q-2.984 0-4.406.548-1.406.562-2.172 1.906-.766 1.36-.766 3.313 0 3.343 1.516 4.765 1.516 1.422 5.828 1.422h13.219zm-22.906 7.984h22.906v4.563l-16.219 5.422q-2.265.75-3.39 1.094 1.25.39 3.671 1.218l15.938 5.485v4.078h-22.906v-2.922h19.172l-19.172-6.656v-2.735l19.5-6.625h-19.5v-2.922zm0 26.625h22.906v8.594q0 2.625-.703 4.203-.688 1.594-2.14 2.485-1.438.906-3.016.906-1.47 0-2.766-.797-1.297-.797-2.094-2.406-.61 2.078-2.078 3.187-1.469 1.125-3.469 1.125-1.61 0-3-.687-1.375-.672-2.125-1.672-.75-1-1.14-2.516-.375-1.5-.375-3.687v-8.735zm13.28 3.032v4.953q0 2.015.267 2.89.343 1.157 1.14 1.735.797.594 2 .594 1.14 0 2-.547.875-.547 1.188-1.563.328-1.015.328-3.484V259.3h-6.922zm-10.577 0v5.703q0 1.469.11 2.062.187 1.047.624 1.75.438.703 1.266 1.157.844.453 1.937.453 1.282 0 2.219-.657.953-.656 1.328-1.828.39-1.156.39-3.343V259.3h-7.874zm-2.703 18.5h22.906v16.562h-2.703v-13.531h-7.016v12.672h-2.687V280.83h-7.797v14.062h-2.703V277.8zm0 21.328h22.906v10.156q0 3.063-.625 4.656-.61 1.594-2.172 2.547-1.562.953-3.453.953-2.438 0-4.11-1.578-1.671-1.578-2.124-4.875-.579 1.203-1.141 1.828-1.219 1.328-3.047 2.516l-6.234 3.984v-3.812l4.765-3.031q2.063-1.329 3.157-2.188 1.093-.86 1.53-1.547.438-.672.61-1.375.11-.515.11-1.687v-3.516h-10.172v-3.031zm12.797 3.031v6.516q0 2.078.421 3.25.438 1.172 1.375 1.78.954.61 2.063.61 1.625 0 2.672-1.187 1.047-1.172 1.047-3.719v-7.25h-7.578zm-19.157 24.375v-6.203h2.328v3.39h24.61v-3.39h2.328v6.203h-29.266z"/></g></svg>