<?xml version="1.0" encoding="UTF-8" standalone="no"?>
<svg
   xmlns:dc="http://purl.org/dc/elements/1.1/"
   xmlns:cc="http://creativecommons.org/ns#"
   xmlns:rdf="http://www.w3.org/1999/02/22-rdf-syntax-ns#"
   xmlns:svg="http://www.w3.org/2000/svg"
   xmlns="http://www.w3.org/2000/svg"
   xmlns:sodipodi="http://sodipodi.sourceforge.net/DTD/sodipodi-0.dtd"
   xmlns:inkscape="http://www.inkscape.org/namespaces/inkscape"
   viewBox="0.0 0.0 348.0 348.0"
   fill="none"
   stroke-linecap="square"
   stroke-miterlimit="10"
   version="1.1"
   id="svg67"
   sodipodi:docname="ButtonComponent-NL.svg"
   inkscape:version="0.92.0 r15299">
  <metadata
     id="metadata73">
    <rdf:RDF>
      <cc:Work
         rdf:about="">
        <dc:format>image/svg+xml</dc:format>
        <dc:type
           rdf:resource="http://purl.org/dc/dcmitype/StillImage" />
      </cc:Work>
    </rdf:RDF>
  </metadata>
  <defs
     id="defs71" />
  <sodipodi:namedview
     pagecolor="#ffffff"
     bordercolor="#666666"
     borderopacity="1"
     objecttolerance="10"
     gridtolerance="10"
     guidetolerance="10"
     inkscape:pageopacity="0"
     inkscape:pageshadow="2"
     inkscape:window-width="1028"
     inkscape:window-height="692"
     id="namedview69"
     showgrid="false"
     inkscape:zoom="0.67816092"
     inkscape:cx="-51.321579"
     inkscape:cy="166.11129"
     inkscape:window-x="0"
     inkscape:window-y="0"
     inkscape:window-maximized="0"
     inkscape:current-layer="svg67" />
  <clipPath
     id="a">
    <path
       d="M0 0h348v348H0V0z"
       id="path2" />
  </clipPath>
  <g
     clip-path="url(#a)"
     id="g65">
    <path
       d="M0 0h348v348H0z"
       id="path5" />
    <path
       d="M-6 0h348v347.969H-6z"
       id="path7"
       fill="#fff" />
    <path
       d="M5.079 5.776h336.913v337.67H5.08z"
       id="path9" />
    <path
       d="M5.079 5.776h336.913v337.67H5.08z"
       id="path11"
       stroke-linejoin="round"
       stroke-linecap="butt"
       stroke-width="2"
       stroke="#000" />
    <path
       d="M17.037 71.178h225.386v235.339H17.037z"
       id="path13"
       fill="#fff" />
    <path
       d="M17.037 71.178h225.386v235.339H17.037z"
       id="path15"
       stroke-linejoin="round"
       stroke-linecap="butt"
       stroke-width="2"
       stroke="#000" />
    <path
       d="M273.456 109.96h46.268v196.567h-46.268z"
       id="path17"
       fill="#000" />
    <path
       d="M273.456 109.96h46.268v196.567h-46.268z"
       id="path19"
       stroke-linejoin="round"
       stroke-linecap="butt"
       stroke-width="2"
       stroke="#000" />
    <path
       d="M282.734 40.554c0-8.376 6.966-15.165 15.56-15.165 4.126 0 8.084 1.597 11.001 4.441 2.918 2.844 4.558 6.702 4.558 10.724 0 8.376-6.966 15.165-15.56 15.165-8.593 0-15.559-6.79-15.559-15.165z"
       id="path21"
       fill="#fff" />
    <path
       d="M282.734 40.554c0-8.376 6.966-15.165 15.56-15.165 4.126 0 8.084 1.597 11.001 4.441 2.918 2.844 4.558 6.702 4.558 10.724 0 8.376-6.966 15.165-15.56 15.165-8.593 0-15.559-6.79-15.559-15.165z"
       id="path23"
       stroke-linejoin="round"
       stroke-linecap="butt"
       stroke-width="2"
       stroke="#000" />
    <path
       d="M31.556 188.848c0-54.95 43.954-99.496 98.174-99.496 26.037 0 51.008 10.482 69.419 29.141 18.41 18.66 28.754 43.967 28.754 70.355 0 54.95-43.954 99.496-98.173 99.496-54.22 0-98.174-44.546-98.174-99.496z"
       id="path25"
       fill="#fff" />
    <path
       d="M31.556 188.848c0-54.95 43.954-99.496 98.174-99.496 26.037 0 51.008 10.482 69.419 29.141 18.41 18.66 28.754 43.967 28.754 70.355 0 54.95-43.954 99.496-98.173 99.496-54.22 0-98.174-44.546-98.174-99.496z"
       id="path27"
       stroke-linejoin="round"
       stroke-linecap="butt"
       stroke-width="2"
       stroke="#000" />
    <path
       d="M45.423 153.484h202.52v70.677H45.422z"
       id="path29" />
    <path
       d="m 57.141,208.837 v -36.593 h 7.75 v 2.921 h -4.234 v 30.766 h 4.234 v 2.906 z m 141.364,0 h -7.75 v -2.906 h 4.234 v -30.766 h -4.234 v -2.921 h 7.75 z"
       id="path31"
       style="fill:#000000"
       inkscape:connector-curvature="0"
       sodipodi:nodetypes="cccccccccccccccccc" />
    <path
       d="M40.97 95.997h177.92v185.701H40.97z"
       id="path33" />
    <path
       d="M40.97 95.997h177.92v185.701H40.97z"
       id="path35"
       stroke-linejoin="round"
       stroke-linecap="butt"
       stroke="#000" />
    <path
       d="M17.709 72.895L41.173 95.95"
       id="path37" />
    <path
       d="M17.709 72.895L41.173 95.95"
       id="path39"
       stroke-linejoin="round"
       stroke-linecap="butt"
       stroke="#000" />
    <path
       d="M219.097 281.696l23.087 24.283"
       id="path41" />
    <path
       d="M219.097 281.696l23.087 24.283"
       id="path43"
       stroke-linejoin="round"
       stroke-linecap="butt"
       stroke="#000" />
    <path
       d="M242.157 72.895L219.512 95.95"
       id="path45" />
    <path
       d="M242.157 72.895L219.512 95.95"
       id="path47"
       stroke-linejoin="round"
       stroke-linecap="butt"
       stroke="#000" />
    <path
       d="M40.764 281.7l-22.646 23.056"
       id="path49" />
    <path
       d="M40.764 281.7l-22.646 23.056"
       id="path51"
       stroke-linejoin="round"
       stroke-linecap="butt"
       stroke="#000" />
    <path
       d="M55.186 58.892H81.14v12.284H55.186z"
       id="path53" />
    <path
       d="M55.186 58.892H81.14v12.284H55.186z"
       id="path55"
       stroke-linejoin="round"
       stroke-linecap="butt"
       stroke-width="2"
       stroke="#000" />
    <path
       d="M180.336 58.892h25.953v12.284h-25.953z"
       id="path57" />
    <path
       d="M180.336 58.892h25.953v12.284h-25.953z"
       id="path59"
       stroke-linejoin="round"
       stroke-linecap="butt"
       stroke-width="2"
       stroke="#000" />
    <path
       d="M84.142 63.423h92.252v7.748H84.142z"
       id="path61" />
    <path
       d="M84.142 63.423h92.252v7.748H84.142z"
       id="path63"
       stroke-linejoin="round"
       stroke-linecap="butt"
       stroke-width="2"
       stroke="#000" />
  </g>
  <g
     aria-label="TEKST"
     transform="scale(0.93523755,1.0692471)"
     style="font-style:normal;font-weight:normal;font-size:39.73965836px;line-height:24.86510086px;font-family:sans-serif;letter-spacing:0px;word-spacing:0px;fill:#000000;fill-opacity:1;stroke:none;stroke-width:0.99349135"
     id="text3747">
    <path
       d="m 99.388299,164.39365 h -9.634797 v 23.77911 h -3.585883 v -23.77911 h -9.634797 v -3.18746 h 22.855477 z"
       style="font-size:37.09034729px;line-height:24.86709023px;stroke-width:0.99349135"
       id="path62" />
    <path
       d="m 120.81305,188.17276 h -17.76643 v -26.96657 h 17.76643 v 3.18746 h -14.18054 v 7.38909 h 14.18054 v 3.18745 h -14.18054 v 10.01512 h 14.18054 z"
       style="font-size:37.09034729px;line-height:24.86709023px;stroke-width:0.99349135"
       id="path64" />
    <path
       d="m 148.19615,188.17276 h -4.6544 l -10.6671,-12.00728 -2.68035,2.86147 v 9.14581 h -3.58589 v -26.96657 h 3.58589 v 14.07188 l 13.0939,-14.07188 h 4.34653 l -12.0435,12.67737 z"
       style="font-size:37.09034729px;line-height:24.86709023px;stroke-width:0.99349135"
       id="path66" />
    <path
       d="m 171.83038,180.47579 q 0,1.57561 -0.74253,3.11501 -0.72442,1.53939 -2.04649,2.60791 -1.44884,1.15908 -3.38667,1.81106 -1.91971,0.65197 -4.63629,0.65197 -2.91579,0 -5.25205,-0.54331 -2.31815,-0.54332 -4.72685,-1.61184 v -4.49141 h 0.25355 q 2.04649,1.70239 4.72685,2.62603 2.68035,0.92363 5.03472,0.92363 3.33234,0 5.17961,-1.24962 1.86538,-1.24963 1.86538,-3.33234 0,-1.79294 -0.88741,-2.64413 -0.86931,-0.8512 -2.66225,-1.32207 -1.35829,-0.36221 -2.95201,-0.59765 -1.57562,-0.23543 -3.35045,-0.59765 -3.58588,-0.76064 -5.32449,-2.5898 -1.7205,-1.84727 -1.7205,-4.79929 0,-3.38667 2.86146,-5.54182 2.86146,-2.17326 7.26232,-2.17326 2.84335,0 5.21583,0.54332 2.37248,0.54331 4.20164,1.34017 v 4.23787 h -0.25355 q -1.53939,-1.30396 -4.05675,-2.15516 -2.49926,-0.8693 -5.12528,-0.8693 -2.87957,0 -4.63629,1.19529 -1.73861,1.1953 -1.73861,3.07879 0,1.68428 0.8693,2.64414 0.86931,0.95986 3.06068,1.46695 1.15907,0.25355 3.29611,0.61576 2.13705,0.36221 3.62211,0.74253 3.00634,0.79686 4.52763,2.4087 1.52128,1.61184 1.52128,4.50952 z"
       style="font-size:37.09034729px;line-height:24.86709023px;stroke-width:0.99349135"
       id="path68" />
    <path
       d="m 196.8229,164.39365 h -9.6348 v 23.77911 h -3.58588 v -23.77911 h -9.6348 v -3.18746 h 22.85548 z"
       style="font-size:37.09034729px;line-height:24.86709023px;stroke-width:0.99349135"
       id="path70" />
  </g>
</svg>
