<svg viewBox="0.0 0.0 348.0 348.0" fill="none" stroke-linecap="square" stroke-miterlimit="10" xmlns="http://www.w3.org/2000/svg"><clipPath id="a"><path d="M0 0h348v348H0V0z"/></clipPath><g clip-path="url(#a)"><path d="M0 0h348v348H0z"/><path fill="#fff" d="M-6 0h348v347.969H-6z"/><path d="M5.079 5.776h336.913v337.67H5.08z"/><path stroke="#000" stroke-width="2" stroke-linejoin="round" stroke-linecap="butt" d="M5.079 5.776h336.913v337.67H5.08z"/><path fill="#fff" d="M17.037 71.178h225.386v235.339H17.037z"/><path stroke="#000" stroke-width="2" stroke-linejoin="round" stroke-linecap="butt" d="M17.037 71.178h225.386v235.339H17.037z"/><path fill="#000" d="M273.456 109.96h46.268v196.567h-46.268z"/><path stroke="#000" stroke-width="2" stroke-linejoin="round" stroke-linecap="butt" d="M273.456 109.96h46.268v196.567h-46.268z"/><path fill="#fff" d="M282.734 40.554c0-8.376 6.966-15.165 15.56-15.165 4.126 0 8.084 1.597 11.001 4.441 2.918 2.844 4.558 6.702 4.558 10.724 0 8.376-6.966 15.165-15.56 15.165-8.593 0-15.559-6.79-15.559-15.165z"/><path stroke="#000" stroke-width="2" stroke-linejoin="round" stroke-linecap="butt" d="M282.734 40.554c0-8.376 6.966-15.165 15.56-15.165 4.126 0 8.084 1.597 11.001 4.441 2.918 2.844 4.558 6.702 4.558 10.724 0 8.376-6.966 15.165-15.56 15.165-8.593 0-15.559-6.79-15.559-15.165z"/><path fill="#fff" d="M31.556 188.848c0-54.95 43.954-99.496 98.174-99.496 26.037 0 51.008 10.482 69.419 29.141 18.41 18.66 28.754 43.967 28.754 70.355 0 54.95-43.954 99.496-98.173 99.496-54.22 0-98.174-44.546-98.174-99.496z"/><path stroke="#000" stroke-width="2" stroke-linejoin="round" stroke-linecap="butt" d="M31.556 188.848c0-54.95 43.954-99.496 98.174-99.496 26.037 0 51.008 10.482 69.419 29.141 18.41 18.66 28.754 43.967 28.754 70.355 0 54.95-43.954 99.496-98.173 99.496-54.22 0-98.174-44.546-98.174-99.496z"/><path d="M45.423 153.484h202.52v70.677H45.422z"/><path fill="#000" d="M57.141 208.837v-36.593h7.75v2.921h-4.234v30.766h4.234v2.906h-7.75zm29.883-7.953v-25.25h-9.437v-3.39h22.703v3.39h-9.485v25.25h-3.78zm17.23 0v-28.64h20.704v3.39h-16.922v8.766h15.844v3.36h-15.844v9.75h17.578v3.374h-21.36zm23.68 0l11.078-14.922-9.765-13.718h4.515l5.188 7.343q1.625 2.297 2.312 3.516.954-1.563 2.266-3.25l5.766-7.61h4.109l-10.047 13.5 10.828 15.141h-4.687l-7.203-10.219q-.61-.875-1.25-1.906-.953 1.563-1.36 2.14l-7.187 9.985h-4.563zm36.883 0v-25.25h-9.437v-3.39h22.703v3.39h-9.485v25.25h-3.78zm33.688 7.953h-7.75v-2.906h4.234v-30.766h-4.234v-2.921h7.75v36.593z"/><path d="M40.97 95.997h177.92v185.701H40.97z"/><path stroke="#000" stroke-linejoin="round" stroke-linecap="butt" d="M40.97 95.997h177.92v185.701H40.97z"/><path d="M17.709 72.895L41.173 95.95"/><path stroke="#000" stroke-linejoin="round" stroke-linecap="butt" d="M17.709 72.895L41.173 95.95"/><path d="M219.097 281.696l23.087 24.283"/><path stroke="#000" stroke-linejoin="round" stroke-linecap="butt" d="M219.097 281.696l23.087 24.283"/><path d="M242.157 72.895L219.512 95.95"/><path stroke="#000" stroke-linejoin="round" stroke-linecap="butt" d="M242.157 72.895L219.512 95.95"/><path d="M40.764 281.7l-22.646 23.056"/><path stroke="#000" stroke-linejoin="round" stroke-linecap="butt" d="M40.764 281.7l-22.646 23.056"/><path d="M55.186 58.892H81.14v12.284H55.186z"/><path stroke="#000" stroke-width="2" stroke-linejoin="round" stroke-linecap="butt" d="M55.186 58.892H81.14v12.284H55.186z"/><path d="M180.336 58.892h25.953v12.284h-25.953z"/><path stroke="#000" stroke-width="2" stroke-linejoin="round" stroke-linecap="butt" d="M180.336 58.892h25.953v12.284h-25.953z"/><path d="M84.142 63.423h92.252v7.748H84.142z"/><path stroke="#000" stroke-width="2" stroke-linejoin="round" stroke-linecap="butt" d="M84.142 63.423h92.252v7.748H84.142z"/></g></svg>