<?xml version="1.0" standalone="yes"?>

<svg version="1.1" viewBox="0.0 0.0 348.0 348.0" fill="none" stroke="none" stroke-linecap="square" stroke-miterlimit="10" xmlns="http://www.w3.org/2000/svg" xmlns:xlink="http://www.w3.org/1999/xlink"><clipPath id="p.0"><path d="m0 0l348.0 0l0 348.0l-348.0 0l0 -348.0z" clip-rule="nonzero"></path></clipPath><g clip-path="url(#p.0)"><path fill="#000000" fill-opacity="0.0" d="m0 0l348.0 0l0 348.0l-348.0 0z" fill-rule="nonzero"></path><path fill="#ffffff" d="m-6.0 0l348.0 0l0 347.9685l-348.0 0z" fill-rule="nonzero"></path><path fill="#000000" fill-opacity="0.0" d="m5.07874 5.7758217l336.9134 0l0 337.6693l-336.9134 0z" fill-rule="nonzero"></path><path stroke="#000000" stroke-width="2.0" stroke-linejoin="round" stroke-linecap="butt" d="m5.07874 5.7758217l336.9134 0l0 337.6693l-336.9134 0z" fill-rule="nonzero"></path><path fill="#ffffff" d="m17.036913 71.17821l225.38583 0l0 235.33858l-225.38583 0z" fill-rule="nonzero"></path><path stroke="#000000" stroke-width="2.0" stroke-linejoin="round" stroke-linecap="butt" d="m17.036913 71.17821l225.38583 0l0 235.33858l-225.38583 0z" fill-rule="nonzero"></path><path fill="#000000" d="m273.45645 109.960495l46.2677 0l0 196.56694l-46.2677 0z" fill-rule="nonzero"></path><path stroke="#000000" stroke-width="2.0" stroke-linejoin="round" stroke-linecap="butt" d="m273.45645 109.960495l46.2677 0l0 196.56694l-46.2677 0z" fill-rule="nonzero"></path><path fill="#ffffff" d="m282.73444 40.553925l0 0c0 -8.375591 6.966034 -15.165352 15.5590515 -15.165352l0 0c4.126526 0 8.084015 1.5977726 11.001923 4.441828c2.9178772 2.844057 4.557129 6.7014217 4.557129 10.723524l0 0c0 8.375595 -6.9660034 15.165356 -15.5590515 15.165356l0 0c-8.593018 0 -15.5590515 -6.7897606 -15.5590515 -15.165356z" fill-rule="nonzero"></path><path stroke="#000000" stroke-width="2.0" stroke-linejoin="round" stroke-linecap="butt" d="m282.73444 40.553925l0 0c0 -8.375591 6.966034 -15.165352 15.5590515 -15.165352l0 0c4.126526 0 8.084015 1.5977726 11.001923 4.441828c2.9178772 2.844057 4.557129 6.7014217 4.557129 10.723524l0 0c0 8.375595 -6.9660034 15.165356 -15.5590515 15.165356l0 0c-8.593018 0 -15.5590515 -6.7897606 -15.5590515 -15.165356z" fill-rule="nonzero"></path><path fill="#ffffff" d="m31.55643 188.84772l0 0c0 -54.950165 43.953648 -99.49606 98.17323 -99.49606l0 0c26.037155 0 51.00789 10.48259 69.418945 29.141724c18.411057 18.659134 28.754272 43.96634 28.754272 70.35434l0 0c0 54.950165 -43.953644 99.49606 -98.17322 99.49606l0 0c-54.21958 0 -98.17323 -44.5459 -98.17323 -99.49606z" fill-rule="nonzero"></path><path stroke="#000000" stroke-width="2.0" stroke-linejoin="round" stroke-linecap="butt" d="m31.55643 188.84772l0 0c0 -54.950165 43.953648 -99.49606 98.17323 -99.49606l0 0c26.037155 0 51.00789 10.48259 69.418945 29.141724c18.411057 18.659134 28.754272 43.96634 28.754272 70.35434l0 0c0 54.950165 -43.953644 99.49606 -98.17322 99.49606l0 0c-54.21958 0 -98.17323 -44.5459 -98.17323 -99.49606z" fill-rule="nonzero"></path><path fill="#000000" fill-opacity="0.0" d="m45.42257 153.48425l202.51968 0l0 70.67717l-202.51968 0z" fill-rule="nonzero"></path><path fill="#000000" d="m57.14132 208.83737l0 -36.59375l7.75 0l0 2.921875l-4.234375 0l0 30.765625l4.234375 0l0 2.90625l-7.75 0zm29.882812 -7.953125l0 -25.25l-9.4375 0l0 -3.390625l22.703125 0l0 3.390625l-9.484375 0l0 25.25l-3.78125 0zm17.230469 0l0 -28.640625l20.703125 0l0 3.390625l-16.921875 0l0 8.765625l15.84375 0l0 3.359375l-15.84375 0l0 9.75l17.578125 0l0 3.375l-21.359375 0zm23.679688 0l11.078133 -14.921875l-9.765625 -13.71875l4.515625 0l5.1875 7.34375q1.625 2.296875 2.3125 3.515625q0.953125 -1.5625 2.265625 -3.25l5.765625 -7.609375l4.109375 0l-10.046875 13.5l10.828125 15.140625l-4.6875 0l-7.203125 -10.21875q-0.609375 -0.875 -1.25 -1.90625q-0.953125 1.5625 -1.359375 2.140625l-7.1875 9.984375l-4.5625076 0zm36.88282 0l0 -25.25l-9.4375 0l0 -3.390625l22.703125 0l0 3.390625l-9.484375 0l0 25.25l-3.78125 0zm33.6875 7.953125l-7.75 0l0 -2.90625l4.234375 0l0 -30.765625l-4.234375 0l0 -2.921875l7.75 0l0 36.59375z" fill-rule="nonzero"></path><path fill="#000000" fill-opacity="0.0" d="m40.969852 95.99732l177.92126 0l0 185.7008l-177.92126 0z" fill-rule="nonzero"></path><path stroke="#000000" stroke-width="1.0" stroke-linejoin="round" stroke-linecap="butt" d="m40.969852 95.99732l177.92126 0l0 185.7008l-177.92126 0z" fill-rule="nonzero"></path><path fill="#000000" fill-opacity="0.0" d="m17.708662 72.89501l23.464567 23.055122" fill-rule="nonzero"></path><path stroke="#000000" stroke-width="1.0" stroke-linejoin="round" stroke-linecap="butt" d="m17.708662 72.89501l23.464567 23.055122" fill-rule="nonzero"></path><path fill="#000000" fill-opacity="0.0" d="m219.0971 281.69553l23.086624 24.283478" fill-rule="nonzero"></path><path stroke="#000000" stroke-width="1.0" stroke-linejoin="round" stroke-linecap="butt" d="m219.0971 281.69553l23.086624 24.283478" fill-rule="nonzero"></path><path fill="#000000" fill-opacity="0.0" d="m242.15749 72.89501l-22.645676 23.055122" fill-rule="nonzero"></path><path stroke="#000000" stroke-width="1.0" stroke-linejoin="round" stroke-linecap="butt" d="m242.15749 72.89501l-22.645676 23.055122" fill-rule="nonzero"></path><path fill="#000000" fill-opacity="0.0" d="m40.76378 281.70078l-22.64567 23.055145" fill-rule="nonzero"></path><path stroke="#000000" stroke-width="1.0" stroke-linejoin="round" stroke-linecap="butt" d="m40.76378 281.70078l-22.64567 23.055145" fill-rule="nonzero"></path><path fill="#000000" fill-opacity="0.0" d="m55.18635 58.892387l25.952755 0l0 12.283463l-25.952755 0z" fill-rule="nonzero"></path><path stroke="#000000" stroke-width="2.0" stroke-linejoin="round" stroke-linecap="butt" d="m55.18635 58.892387l25.952755 0l0 12.283463l-25.952755 0z" fill-rule="nonzero"></path><path fill="#000000" fill-opacity="0.0" d="m180.33595 58.892387l25.952759 0l0 12.283463l-25.952759 0z" fill-rule="nonzero"></path><path stroke="#000000" stroke-width="2.0" stroke-linejoin="round" stroke-linecap="butt" d="m180.33595 58.892387l25.952759 0l0 12.283463l-25.952759 0z" fill-rule="nonzero"></path><path fill="#000000" fill-opacity="0.0" d="m84.14173 63.422573l92.25196 0l0 7.748028l-92.25196 0z" fill-rule="nonzero"></path><path stroke="#000000" stroke-width="2.0" stroke-linejoin="round" stroke-linecap="butt" d="m84.14173 63.422573l92.25196 0l0 7.748028l-92.25196 0z" fill-rule="nonzero"></path></g></svg>

