<svg viewBox="0.0 0.0 288.0 115.0" fill="none" stroke-linecap="square" stroke-miterlimit="10" xmlns="http://www.w3.org/2000/svg"><clipPath id="a"><path d="M0 0h288v115H0V0z"/></clipPath><g clip-path="url(#a)"><path d="M0 0h288v115H0z"/><path fill="#fff" d="M12 8.504h264v98.992H12z"/><path stroke="#000" stroke-width="2" stroke-linejoin="round" stroke-linecap="butt" d="M12 8.504h264v98.992H12z"/><path fill="#000" d="M114 32h145.008v53.984H114z"/><path stroke="#000" stroke-width="2" stroke-linejoin="round" stroke-linecap="butt" d="M114 32h145.008v53.984H114z"/><path fill="#fff" d="M149.566 77.071V47.806h6.204v2.328h-3.391v24.61h3.39v2.327h-6.203zm15.016-6.359V50.51h-7.547v-2.703h18.156v2.703h-7.578v20.203h-3.03zm11.39 0l8.86-11.937-7.812-10.97h3.609l4.156 5.876q1.297 1.828 1.844 2.812.766-1.25 1.812-2.609l4.61-6.078h3.297L188.3 58.603l8.672 12.11h-3.75l-5.766-8.173q-.484-.703-1-1.531-.766 1.25-1.094 1.719l-5.75 7.984h-3.64zm29.5 0V50.51h-7.546v-2.703h18.156v2.703h-7.578v20.203h-3.031zm18.063 6.36h-6.203v-2.329h3.39V50.134h-3.39v-2.328h6.203V77.07zM36 58c0-14.907 12.085-26.992 26.992-26.992A26.992 26.992 0 0 1 89.984 58c0 14.907-12.085 26.992-26.992 26.992S36 72.907 36 58z"/><path stroke="#000" stroke-width="2" stroke-linejoin="round" stroke-linecap="butt" d="M36 58c0-14.907 12.085-26.992 26.992-26.992A26.992 26.992 0 0 1 89.984 58c0 14.907-12.085 26.992-26.992 26.992S36 72.907 36 58z"/></g></svg>