<svg viewBox="0.0 0.0 348.0 348.0" fill="none" stroke-linecap="square" stroke-miterlimit="10" xmlns="http://www.w3.org/2000/svg"><clipPath id="a"><path d="M0 0h348v348H0V0z"/></clipPath><g clip-path="url(#a)"><path d="M0 0h348v348H0z"/><path fill="#fff" d="M-6 0h348v347.969H-6z"/><path d="M5.079 5.776h336.913v337.67H5.08z"/><path stroke="#000" stroke-width="2" stroke-linejoin="round" stroke-linecap="butt" d="M5.079 5.776h336.913v337.67H5.08z"/><path fill="#fff" d="M282.734 40.554c0-8.376 6.966-15.165 15.56-15.165 4.126 0 8.084 1.597 11.001 4.441 2.918 2.844 4.558 6.702 4.558 10.724 0 8.376-6.966 15.165-15.56 15.165-8.593 0-15.559-6.79-15.559-15.165z"/><path stroke="#000" stroke-width="2" stroke-linejoin="round" stroke-linecap="butt" d="M282.734 40.554c0-8.376 6.966-15.165 15.56-15.165 4.126 0 8.084 1.597 11.001 4.441 2.918 2.844 4.558 6.702 4.558 10.724 0 8.376-6.966 15.165-15.56 15.165-8.593 0-15.559-6.79-15.559-15.165z"/><path d="M38.37 95.737h107.213v100.189H38.37z"/><path stroke="#000" stroke-linejoin="round" stroke-linecap="butt" d="M38.37 95.737h107.213v100.189H38.37z"/><path fill="#000" d="M111.96 161.614l-.655 4.906q-1.313.157-2.344.157-1.125 0-2.438-.188-7.75-1.094-7.75-8.656 0-.969.125-1.875l2.032-14.813-23.813 15.407-.75-.094 3.75-26.594q.125-.875.125-1.469 0-4.156-4.187-4.156-1.782 0-4.063.375l.719-4.906q1.375-.156 2.344-.156 1.062 0 2.406.187 7.781 1.094 7.781 8.656 0 .97-.125 1.875l-2.125 15.157 23.844-15.47.719.063-3.688 26.313q-.125.906-.125 1.469 0 4.218 4.188 4.218 1.843 0 4.03-.406z"/><path d="M152.48 95.737h107.213v100.189H152.48z"/><path stroke="#000" stroke-linejoin="round" stroke-linecap="butt" d="M152.48 95.737h107.213v100.189H152.48z"/><path fill="#000" d="M229.15 164.99q-3.345 1.968-7.532 1.968-5.125 0-9.094-1.813-4 1.813-9.125 1.813-9.812 0-14.875-6.875-4.594-6.25-4.594-17.156 0-10.313 4.5-16.829 4.5-6.515 11.688-6.515 4.187 0 6.906 1.75l-2.5 4.531q-1.812-1.094-4.406-1.094-4.469 0-7.281 5.563-2.657 5.187-2.657 12.562 0 8.094 2.907 13.032 3.406 5.843 10.312 5.843 2.063 0 3.875-.437-5.594-6.094-5.594-18 0-18.563 11.282-18.563 5.156 0 8.03 5.625 2.563 5.094 2.563 12.938 0 11.875-5.718 18 1.843.437 3.843.437 2.594 0 4.97-1.5l2.5 4.72zm-11.282-21.657q0-5.313-1.156-9-1.344-4.281-3.75-4.281-5.438 0-5.438 13 0 10.937 5.063 15.562 5.28-4.719 5.28-15.281z"/><path d="M38.37 206.52h107.213v100.19H38.37z"/><path stroke="#000" stroke-linejoin="round" stroke-linecap="butt" d="M38.37 206.52h107.213v100.19H38.37z"/><path fill="#000" d="M111.898 254.398q0 14.813-10.5 20.563-5.062 2.781-11.125 2.781-6.781 0-11.5-3.437-4.718-3.438-6.593-9.907l5.968-1.406q3.063 9.563 12.25 9.563 10.657 0 13.813-9.344 1.437-4.281 1.437-8.781 0-12.532-7-16.72-3.593-2.155-7.781-2.155-10.875 0-13.406 11.656l-6.063-1.531q1.844-7.25 6.657-11.22 4.937-4.093 12.312-4.093 14.156 0 19.125 11.75 2.406 5.688 2.406 12.281zm-24.312-3.062h6.406v6.406h-6.406v-6.406z"/><path d="M152.48 206.52h107.213v100.19H152.48z"/><path stroke="#000" stroke-linejoin="round" stroke-linecap="butt" d="M152.48 206.52h107.213v100.19H152.48z"/><path fill="#000" d="M210.477 257.742h-6.406v-6.406h6.406v6.406zm16.188 4.688q-1.844 7.25-6.657 11.218-4.937 4.094-12.312 4.094-14.125 0-19.094-11.75-2.437-5.75-2.437-12.281 0-14.813 10.531-20.594 5.031-2.75 11.094-2.75 6.781 0 11.5 3.438 4.718 3.437 6.593 9.906l-5.968 1.406q-3.063-9.562-12.25-9.562-4.938 0-8.5 2.312-3.782 2.469-5.313 7-1.437 4.281-1.437 8.813 0 12.53 7 16.718 3.593 2.157 7.781 2.157 10.875 0 13.406-11.657l6.063 1.532zM82.102 102.05h19.748v5.638H82.102z"/><path stroke="#000" stroke-width="2" stroke-linejoin="round" stroke-linecap="butt" d="M82.102 102.05h19.748v5.638H82.102z"/><path fill="#000" d="M196.213 102.05h19.748v5.638h-19.748z"/><path stroke="#000" stroke-width="2" stroke-linejoin="round" stroke-linecap="butt" d="M196.213 102.05h19.748v5.638h-19.748z"/><path fill="#000" d="M82.102 213.525h19.748v5.638H82.102z"/><path stroke="#000" stroke-width="2" stroke-linejoin="round" stroke-linecap="butt" d="M82.102 213.525h19.748v5.638H82.102z"/><path fill="#000" d="M196.213 213.525h19.748v5.638h-19.748z"/><path stroke="#000" stroke-width="2" stroke-linejoin="round" stroke-linecap="butt" d="M196.213 213.525h19.748v5.638h-19.748z"/></g></svg>