<svg viewBox="0.0 0.0 348.0 348.0" fill="none" stroke-linecap="square" stroke-miterlimit="10" xmlns="http://www.w3.org/2000/svg"><clipPath id="a"><path d="M0 0h348v348H0V0z"/></clipPath><g clip-path="url(#a)"><path fill="none" d="M0 0h348v348H0z"/><path fill="#fff" d="M-6 0h354.016v347.969H-6z"/><path fill="none" d="M5.079 5.776h336.913v337.67H5.08z"/><path stroke="#000" stroke-width="2" stroke-linejoin="round" stroke-linecap="butt" d="M5.079 5.776h336.913v337.67H5.08z"/><path fill="#fff" d="M282.734 40.554c0-8.376 6.966-15.165 15.56-15.165 4.126 0 8.084 1.597 11.001 4.441 2.918 2.844 4.558 6.702 4.558 10.724 0 8.376-6.966 15.165-15.56 15.165-8.593 0-15.559-6.79-15.559-15.165z"/><path stroke="#000" stroke-width="2" stroke-linejoin="round" stroke-linecap="butt" d="M282.734 40.554c0-8.376 6.966-15.165 15.56-15.165 4.126 0 8.084 1.597 11.001 4.441 2.918 2.844 4.558 6.702 4.558 10.724 0 8.376-6.966 15.165-15.56 15.165-8.593 0-15.559-6.79-15.559-15.165z"/><path fill="#000" d="M42.723 62.129h263.15v246.078H42.723z"/><path stroke="#000" stroke-width="2" stroke-linejoin="round" stroke-linecap="butt" d="M42.723 62.129h263.15v246.078H42.723z"/><path fill="#000" d="M32.885 147.934l-22.867 26.678 22.867 26.677z"/><path stroke="#000" stroke-width="2" stroke-linejoin="round" stroke-linecap="butt" d="M32.885 147.934l-22.867 26.678 22.867 26.677z"/><path fill="#000" d="M313.853 201.289l22.866-26.677-22.866-26.678z"/><path stroke="#000" stroke-width="2" stroke-linejoin="round" stroke-linecap="butt" d="M313.853 201.289l22.866-26.677-22.866-26.678z"/><path fill="#000" d="M146.69 316.95l26.677 22.866 26.678-22.866z"/><path stroke="#000" stroke-width="2" stroke-linejoin="round" stroke-linecap="butt" d="M146.69 316.95l26.677 22.866 26.678-22.866z"/><path fill="#000" d="M146.69 53.386l26.677-22.866 26.678 22.866z"/><path stroke="#000" stroke-width="2" stroke-linejoin="round" stroke-linecap="butt" d="M146.69 53.386l26.677-22.866 26.678 22.866z"/><path fill="#fff" d="M67.73 81.814h17.7v16.472h-17.7z"/><path stroke="#fff" stroke-width="2" stroke-linejoin="round" stroke-linecap="butt" d="M67.73 81.814h17.7v16.472h-17.7z"/><path fill="#fff" d="M106.817 81.814h17.701v16.472h-17.7z"/><path stroke="#fff" stroke-width="2" stroke-linejoin="round" stroke-linecap="butt" d="M106.817 81.814h17.701v16.472h-17.7z"/><path fill="#fff" d="M145.905 81.814h17.7v16.472h-17.7z"/><path stroke="#fff" stroke-width="2" stroke-linejoin="round" stroke-linecap="butt" d="M145.905 81.814h17.7v16.472h-17.7z"/><path fill="#fff" d="M184.992 81.814h17.701v16.472h-17.7z"/><path stroke="#fff" stroke-width="2" stroke-linejoin="round" stroke-linecap="butt" d="M184.992 81.814h17.701v16.472h-17.7z"/><path fill="#fff" d="M224.08 81.814h17.7v16.472h-17.7z"/><path stroke="#fff" stroke-width="2" stroke-linejoin="round" stroke-linecap="butt" d="M224.08 81.814h17.7v16.472h-17.7z"/><path fill="#fff" d="M263.168 81.814h17.7v16.472h-17.7z"/><path stroke="#fff" stroke-width="2" stroke-linejoin="round" stroke-linecap="butt" d="M263.168 81.814h17.7v16.472h-17.7z"/><path fill="#fff" d="M67.73 117.595h17.7v16.472h-17.7z"/><path stroke="#fff" stroke-width="2" stroke-linejoin="round" stroke-linecap="butt" d="M67.73 117.595h17.7v16.472h-17.7z"/><path fill="#fff" d="M106.817 117.595h17.701v16.472h-17.7z"/><path stroke="#fff" stroke-width="2" stroke-linejoin="round" stroke-linecap="butt" d="M106.817 117.595h17.701v16.472h-17.7z"/><path fill="#fff" d="M145.905 117.595h17.7v16.472h-17.7z"/><path stroke="#fff" stroke-width="2" stroke-linejoin="round" stroke-linecap="butt" d="M145.905 117.595h17.7v16.472h-17.7z"/><path fill="#fff" d="M184.992 117.595h17.701v16.472h-17.7z"/><path stroke="#fff" stroke-width="2" stroke-linejoin="round" stroke-linecap="butt" d="M184.992 117.595h17.701v16.472h-17.7z"/><path fill="#fff" d="M224.08 117.595h17.7v16.472h-17.7z"/><path stroke="#fff" stroke-width="2" stroke-linejoin="round" stroke-linecap="butt" d="M224.08 117.595h17.7v16.472h-17.7z"/><path fill="#fff" d="M263.168 117.595h17.7v16.472h-17.7z"/><path stroke="#fff" stroke-width="2" stroke-linejoin="round" stroke-linecap="butt" d="M263.168 117.595h17.7v16.472h-17.7z"/><path fill="#fff" d="M67.73 153.376h17.7v16.472h-17.7z"/><path stroke="#fff" stroke-width="2" stroke-linejoin="round" stroke-linecap="butt" d="M67.73 153.376h17.7v16.472h-17.7z"/><path fill="#fff" d="M106.817 153.376h17.701v16.472h-17.7z"/><path stroke="#fff" stroke-width="2" stroke-linejoin="round" stroke-linecap="butt" d="M106.817 153.376h17.701v16.472h-17.7z"/><path fill="#fff" d="M145.905 153.376h17.7v16.472h-17.7z"/><path stroke="#fff" stroke-width="2" stroke-linejoin="round" stroke-linecap="butt" d="M145.905 153.376h17.7v16.472h-17.7z"/><path fill="#fff" d="M184.992 153.376h17.701v16.472h-17.7z"/><path stroke="#fff" stroke-width="2" stroke-linejoin="round" stroke-linecap="butt" d="M184.992 153.376h17.701v16.472h-17.7z"/><path fill="#fff" d="M224.08 153.376h17.7v16.472h-17.7z"/><path stroke="#fff" stroke-width="2" stroke-linejoin="round" stroke-linecap="butt" d="M224.08 153.376h17.7v16.472h-17.7z"/><path fill="#fff" d="M263.168 153.376h17.7v16.472h-17.7z"/><path stroke="#fff" stroke-width="2" stroke-linejoin="round" stroke-linecap="butt" d="M263.168 153.376h17.7v16.472h-17.7z"/><path fill="#fff" d="M67.73 189.157h17.7v16.472h-17.7z"/><path stroke="#fff" stroke-width="2" stroke-linejoin="round" stroke-linecap="butt" d="M67.73 189.157h17.7v16.472h-17.7z"/><path fill="#fff" d="M106.817 189.157h17.701v16.472h-17.7z"/><path stroke="#fff" stroke-width="2" stroke-linejoin="round" stroke-linecap="butt" d="M106.817 189.157h17.701v16.472h-17.7z"/><path fill="#fff" d="M145.905 189.157h17.7v16.472h-17.7z"/><path stroke="#fff" stroke-width="2" stroke-linejoin="round" stroke-linecap="butt" d="M145.905 189.157h17.7v16.472h-17.7z"/><path fill="#fff" d="M184.992 189.157h17.701v16.472h-17.7z"/><path stroke="#fff" stroke-width="2" stroke-linejoin="round" stroke-linecap="butt" d="M184.992 189.157h17.701v16.472h-17.7z"/><path fill="#fff" d="M263.168 189.157h17.7v16.472h-17.7z"/><path stroke="#fff" stroke-width="2" stroke-linejoin="round" stroke-linecap="butt" d="M263.168 189.157h17.7v16.472h-17.7z"/><path fill="#fff" d="M67.73 224.938h17.7v16.472h-17.7z"/><path stroke="#fff" stroke-width="2" stroke-linejoin="round" stroke-linecap="butt" d="M67.73 224.938h17.7v16.472h-17.7z"/><path fill="#fff" d="M106.817 224.938h17.701v16.472h-17.7z"/><path stroke="#fff" stroke-width="2" stroke-linejoin="round" stroke-linecap="butt" d="M106.817 224.938h17.701v16.472h-17.7z"/><path fill="#fff" d="M145.905 224.938h17.7v16.472h-17.7z"/><path stroke="#fff" stroke-width="2" stroke-linejoin="round" stroke-linecap="butt" d="M145.905 224.938h17.7v16.472h-17.7z"/><path fill="#fff" d="M184.992 224.938h17.701v16.472h-17.7z"/><path stroke="#fff" stroke-width="2" stroke-linejoin="round" stroke-linecap="butt" d="M184.992 224.938h17.701v16.472h-17.7z"/><path fill="#fff" d="M224.08 224.938h17.7v16.472h-17.7z"/><path stroke="#fff" stroke-width="2" stroke-linejoin="round" stroke-linecap="butt" d="M224.08 224.938h17.7v16.472h-17.7z"/><path fill="#fff" d="M263.168 224.938h17.7v16.472h-17.7z"/><path stroke="#fff" stroke-width="2" stroke-linejoin="round" stroke-linecap="butt" d="M263.168 224.938h17.7v16.472h-17.7z"/><path fill="#fff" d="M67.73 260.72h17.7v16.472h-17.7z"/><path stroke="#fff" stroke-width="2" stroke-linejoin="round" stroke-linecap="butt" d="M67.73 260.72h17.7v16.472h-17.7z"/><path fill="#fff" d="M106.817 260.72h17.701v16.472h-17.7z"/><path stroke="#fff" stroke-width="2" stroke-linejoin="round" stroke-linecap="butt" d="M106.817 260.72h17.701v16.472h-17.7z"/><path fill="#fff" d="M145.905 260.72h17.7v16.472h-17.7z"/><path stroke="#fff" stroke-width="2" stroke-linejoin="round" stroke-linecap="butt" d="M145.905 260.72h17.7v16.472h-17.7z"/><path fill="#fff" d="M184.992 260.72h17.701v16.472h-17.7z"/><path stroke="#fff" stroke-width="2" stroke-linejoin="round" stroke-linecap="butt" d="M184.992 260.72h17.701v16.472h-17.7z"/><path fill="#fff" d="M224.08 260.72h17.7v16.472h-17.7z"/><path stroke="#fff" stroke-width="2" stroke-linejoin="round" stroke-linecap="butt" d="M224.08 260.72h17.7v16.472h-17.7z"/><path fill="#fff" d="M263.168 260.72h17.7v16.472h-17.7z"/><path stroke="#fff" stroke-width="2" stroke-linejoin="round" stroke-linecap="butt" d="M263.168 260.72h17.7v16.472h-17.7z"/><path fill="none" d="M95.241 161.613c0-10.959 9.018-19.843 20.142-19.843 5.342 0 10.465 2.09 14.243 5.812 3.777 3.721 5.899 8.768 5.899 14.03 0 10.96-9.018 19.843-20.142 19.843-11.124 0-20.142-8.883-20.142-19.842z"/><path stroke="#fff" stroke-width="2" stroke-linejoin="round" stroke-linecap="butt" d="M95.241 161.613c0-10.959 9.018-19.843 20.142-19.843 5.342 0 10.465 2.09 14.243 5.812 3.777 3.721 5.899 8.768 5.899 14.03 0 10.96-9.018 19.843-20.142 19.843-11.124 0-20.142-8.883-20.142-19.842z"/><path fill="none" d="M212.59 125.83c0-10.96 9.018-19.843 20.142-19.843 5.342 0 10.465 2.09 14.243 5.812 3.777 3.72 5.899 8.768 5.899 14.03 0 10.96-9.018 19.843-20.142 19.843-11.124 0-20.141-8.884-20.141-19.843z"/><path stroke="#fff" stroke-width="2" stroke-linejoin="round" stroke-linecap="butt" d="M212.59 125.83c0-10.96 9.018-19.843 20.142-19.843 5.342 0 10.465 2.09 14.243 5.812 3.777 3.72 5.899 8.768 5.899 14.03 0 10.96-9.018 19.843-20.142 19.843-11.124 0-20.141-8.884-20.141-19.843z"/><path fill="#fff" d="M212.59 208.33l34.992 4.141-12.315-32.96z"/><path stroke="#000" stroke-width="2" stroke-linejoin="round" stroke-linecap="butt" d="M212.59 208.33l34.992 4.141-12.315-32.96z"/></g></svg>