<svg viewBox="0.0 0.0 348.0 348.0" fill="none" stroke-linecap="square" stroke-miterlimit="10" xmlns="http://www.w3.org/2000/svg"><clipPath id="a"><path d="M0 0h348v348H0V0z"/></clipPath><g clip-path="url(#a)"><path d="M0 0h348v348H0z"/><path fill="#fff" d="M-6 0h348v347.969H-6z"/><path d="M5.079 5.776h336.913v337.67H5.08z"/><path stroke="#000" stroke-width="2" stroke-linejoin="round" stroke-linecap="butt" d="M5.079 5.776h336.913v337.67H5.08z"/><path fill="#fff" d="M282.734 40.554c0-8.376 6.966-15.165 15.56-15.165 4.126 0 8.084 1.597 11.001 4.441 2.918 2.844 4.558 6.702 4.558 10.724 0 8.376-6.966 15.165-15.56 15.165-8.593 0-15.559-6.79-15.559-15.165z"/><path stroke="#000" stroke-width="2" stroke-linejoin="round" stroke-linecap="butt" d="M282.734 40.554c0-8.376 6.966-15.165 15.56-15.165 4.126 0 8.084 1.597 11.001 4.441 2.918 2.844 4.558 6.702 4.558 10.724 0 8.376-6.966 15.165-15.56 15.165-8.593 0-15.559-6.79-15.559-15.165z"/><path fill="#000" d="M29.352 71.953h225.323V207.26H29.352z"/><path fill="#fff" d="M151.083 173.113h-8.437v-53.766q-3.047 2.907-8 5.813-4.938 2.906-8.875 4.36v-8.157q7.078-3.328 12.375-8.063 5.297-4.734 7.5-9.187h5.437v69z"/><path d="M29.352 211.622h49.26v70.3h-49.26z"/><path stroke="#000" stroke-linejoin="round" stroke-linecap="butt" d="M29.352 211.622h49.26v70.3h-49.26z"/><path fill="#000" d="M57.005 251.342h-2.812V233.42q-1.016.969-2.672 1.938-1.64.968-2.953 1.453v-2.719q2.359-1.11 4.125-2.687 1.765-1.579 2.5-3.063h1.812v23z"/><path d="M85.341 211.622h49.26v70.3h-49.26z"/><path stroke="#000" stroke-linejoin="round" stroke-linecap="butt" d="M85.341 211.622h49.26v70.3h-49.26z"/><path fill="#000" d="M102.416 245.295l2.813-.375q.484 2.39 1.64 3.453 1.172 1.047 2.844 1.047 1.985 0 3.344-1.375 1.375-1.375 1.375-3.406 0-1.938-1.266-3.188-1.265-1.265-3.218-1.265-.797 0-1.985.312l.313-2.468q.281.03.453.03 1.797 0 3.234-.937 1.438-.937 1.438-2.89 0-1.547-1.047-2.563-1.047-1.015-2.703-1.015-1.64 0-2.735 1.03-1.093 1.032-1.406 3.095l-2.812-.5q.515-2.829 2.343-4.375 1.829-1.563 4.547-1.563 1.875 0 3.453.813 1.579.796 2.407 2.187.843 1.39.843 2.953 0 1.485-.796 2.703-.797 1.22-2.36 1.938 2.031.469 3.156 1.953 1.125 1.469 1.125 3.687 0 3-2.187 5.094-2.188 2.078-5.531 2.078-3.016 0-5.016-1.797-1.984-1.796-2.266-4.656z"/><path d="M146.546 211.622h49.26v70.3h-49.26z"/><path stroke="#000" stroke-linejoin="round" stroke-linecap="butt" d="M146.546 211.622h49.26v70.3h-49.26z"/><path fill="#000" d="M172.621 251.342v-5.484h-9.937v-2.578l10.453-14.844h2.297v14.844h3.093v2.578h-3.093v5.484h-2.813zm0-8.062v-10.33l-7.172 10.329h7.172z"/><path d="M205.43 211.622h49.26v70.3h-49.26z"/><path stroke="#000" stroke-linejoin="round" stroke-linecap="butt" d="M205.43 211.622h49.26v70.3h-49.26z"/><path fill="#000" d="M237.271 248.639v2.703h-15.14q-.032-1.016.328-1.953.578-1.547 1.844-3.047 1.28-1.5 3.687-3.469 3.734-3.062 5.047-4.843 1.312-1.797 1.312-3.391 0-1.672-1.203-2.813-1.187-1.156-3.11-1.156-2.03 0-3.25 1.219-1.218 1.219-1.233 3.375l-2.891-.297q.297-3.234 2.234-4.922 1.938-1.703 5.203-1.703 3.297 0 5.22 1.828 1.921 1.828 1.921 4.531 0 1.375-.562 2.704-.563 1.328-1.875 2.796-1.297 1.47-4.329 4.032-2.53 2.125-3.25 2.89-.718.75-1.187 1.516h11.234zM276.52 72.892h52.661v209.04H276.52z"/><path stroke="#000" stroke-width="2" stroke-linejoin="round" stroke-linecap="butt" d="M276.52 72.892h52.661v209.04H276.52z"/><path fill="#fff" d="M289.118 247.832h27.465v16.472h-27.465z"/><path stroke="#000" stroke-width="2" stroke-linejoin="round" stroke-linecap="butt" d="M289.118 247.832h27.465v16.472h-27.465z"/><path fill="#fff" d="M289.118 211.622h27.465v16.472h-27.465z"/><path stroke="#000" stroke-width="2" stroke-linejoin="round" stroke-linecap="butt" d="M289.118 211.622h27.465v16.472h-27.465z"/><path fill="#fff" d="M289.118 175.412h27.465v16.473h-27.465z"/><path stroke="#000" stroke-width="2" stroke-linejoin="round" stroke-linecap="butt" d="M289.118 175.412h27.465v16.473h-27.465z"/></g></svg>