<svg viewBox="0.0 0.0 348.0 348.0" fill="none" stroke-linecap="square" stroke-miterlimit="10" xmlns="http://www.w3.org/2000/svg"><clipPath id="a"><path d="M0 0h348v348H0V0z"/></clipPath><g clip-path="url(#a)"><path d="M0 0h348v348H0z"/><path fill="#fff" d="M-6 0h348v347.969H-6z"/><path d="M5.079 5.776h336.913v337.67H5.08z"/><path stroke="#000" stroke-width="2" stroke-linejoin="round" stroke-linecap="butt" d="M5.079 5.776h336.913v337.67H5.08z"/><path fill="#fff" d="M282.734 40.554c0-8.376 6.966-15.165 15.56-15.165 4.126 0 8.084 1.597 11.001 4.441 2.918 2.844 4.558 6.702 4.558 10.724 0 8.376-6.966 15.165-15.56 15.165-8.593 0-15.559-6.79-15.559-15.165z"/><path stroke="#000" stroke-width="2" stroke-linejoin="round" stroke-linecap="butt" d="M282.734 40.554c0-8.376 6.966-15.165 15.56-15.165 4.126 0 8.084 1.597 11.001 4.441 2.918 2.844 4.558 6.702 4.558 10.724 0 8.376-6.966 15.165-15.56 15.165-8.593 0-15.559-6.79-15.559-15.165z"/><path fill="#fff" d="M117.832 290.612h87.906v34.803h-87.906z"/><path stroke="#000" stroke-width="2" stroke-linejoin="round" stroke-linecap="butt" d="M117.832 290.612h87.906v34.803h-87.906z"/><path fill="#000" d="M154.787 314.933v-12h-4.469v-1.594h10.766v1.594h-4.5v12h-1.797zm6.552 0l5.266-7.094-4.64-6.5h2.14l2.468 3.485q.782 1.078 1.094 1.672.453-.75 1.078-1.547l2.735-3.61h1.968l-4.78 6.407 5.14 7.187h-2.219l-3.422-4.86q-.297-.405-.594-.905-.453.75-.656 1.03l-3.406 4.735h-2.172z"/><path fill="#fff" d="M16.483 118.441h302.835v157.543H16.483z"/><path stroke="#000" stroke-width="2" stroke-linejoin="round" stroke-linecap="butt" d="M16.483 118.441h302.835v157.543H16.483z"/><path fill="#000" d="M58.661 187.43H277.34v72.032H58.66z"/><path fill="#fff" d="M72.979 230.284l3.515-.47q.594 2.985 2.047 4.313 1.469 1.313 3.547 1.313 2.484 0 4.187-1.719 1.72-1.719 1.72-4.25 0-2.422-1.595-4-1.578-1.578-4.015-1.578-1 0-2.485.39l.391-3.077q.36.03.578.03 2.235 0 4.031-1.171 1.797-1.172 1.797-3.61 0-1.937-1.312-3.203-1.297-1.265-3.375-1.265-2.047 0-3.422 1.297-1.36 1.28-1.75 3.86l-3.516-.626q.64-3.531 2.922-5.469 2.297-1.953 5.688-1.953 2.343 0 4.312 1.016 1.985 1 3.031 2.734 1.047 1.735 1.047 3.688 0 1.86-1 3.39-1 1.516-2.953 2.407 2.547.593 3.953 2.437 1.407 1.844 1.407 4.625 0 3.75-2.735 6.36-2.734 2.609-6.922 2.609-3.765 0-6.265-2.25-2.485-2.25-2.828-5.828zm24.199 7.562v-4h4v4h-4zm9.129-7.5l3.703-.312q.406 2.687 1.89 4.047 1.5 1.359 3.61 1.359 2.547 0 4.297-1.906 1.765-1.922 1.765-5.078 0-3.016-1.703-4.75-1.687-1.735-4.422-1.735-1.687 0-3.062.766-1.36.765-2.14 2l-3.313-.422 2.78-14.719h14.235v3.36h-11.422l-1.546 7.703q2.578-1.797 5.406-1.797 3.75 0 6.328 2.594 2.578 2.593 2.578 6.687 0 3.875-2.266 6.719-2.75 3.469-7.515 3.469-3.906 0-6.375-2.188-2.469-2.187-2.828-5.797zm22.246-6.625q0-5.078 1.047-8.172 1.046-3.093 3.109-4.765 2.062-1.688 5.187-1.688 2.297 0 4.032.938 1.75.922 2.875 2.672 1.14 1.734 1.781 4.25.64 2.515.64 6.765 0 5.047-1.03 8.14-1.032 3.095-3.094 4.782-2.063 1.688-5.204 1.688-4.14 0-6.5-2.97-2.843-3.577-2.843-11.64zm3.625 0q0 7.047 1.64 9.39 1.657 2.329 4.078 2.329 2.422 0 4.063-2.344 1.656-2.344 1.656-9.375 0-7.062-1.656-9.39-1.64-2.329-4.11-2.329-2.421 0-3.859 2.047-1.812 2.625-1.812 9.672zm18.62 0q0-5.078 1.048-8.172 1.047-3.093 3.11-4.765 2.062-1.688 5.187-1.688 2.296 0 4.03.938 1.75.922 2.876 2.672 1.14 1.734 1.781 4.25.64 2.515.64 6.765 0 5.047-1.03 8.14-1.032 3.095-3.094 4.782-2.063 1.688-5.203 1.688-4.141 0-6.5-2.97-2.844-3.577-2.844-11.64zm3.626 0q0 7.047 1.64 9.39 1.657 2.329 4.079 2.329 2.421 0 4.062-2.344 1.656-2.344 1.656-9.375 0-7.062-1.656-9.39-1.64-2.329-4.11-2.329-2.421 0-3.859 2.047-1.812 2.625-1.812 9.672zm31.047 14.125v-28.64h5.703l6.781 20.28q.938 2.829 1.36 4.235.5-1.562 1.53-4.594l6.86-19.921h5.094v28.64h-3.656v-23.969l-8.313 23.97h-3.422l-8.281-24.376v24.375h-3.656zm33.554 0v-28.64h3.797v11.765h14.875v-11.765h3.797v28.64h-3.797v-13.5h-14.875v13.5h-3.797zm26.465 0v-2.86l13.203-15.155q-2.25.125-3.968.125h-8.453v-2.86h16.953v2.328l-11.235 13.172-2.156 2.39q2.36-.171 4.422-.171h9.594v3.031h-18.36z"/><path fill="#000" d="M48.307 196.769l-22.866 26.677 22.866 26.677z"/><path stroke="#000" stroke-width="2" stroke-linejoin="round" stroke-linecap="butt" d="M48.307 196.769l-22.866 26.677 22.866 26.677z"/><path fill="#000" d="M287.693 196.769l22.866 26.677-22.866 26.677z"/><path stroke="#000" stroke-width="2" stroke-linejoin="round" stroke-linecap="butt" d="M287.693 196.769l22.866 26.677-22.866 26.677z"/><path fill="#fff" d="M36.633 50.575c0-8.376 26.376-15.166 58.913-15.166 32.537 0 58.913 6.79 58.913 15.166 0 8.375-26.376 15.165-58.913 15.165-32.537 0-58.913-6.79-58.913-15.165z"/><path stroke="#000" stroke-width="2" stroke-linejoin="round" stroke-linecap="butt" d="M36.633 50.575c0-8.376 26.376-15.166 58.913-15.166 32.537 0 58.913 6.79 58.913 15.166 0 8.375-26.376 15.165-58.913 15.165-32.537 0-58.913-6.79-58.913-15.165z"/><path d="M154.46 50.575l119.054.094"/><path stroke="#000" stroke-width="2" stroke-linejoin="round" stroke-linecap="butt" d="M154.46 50.575l119.054.094"/><path d="M36.633 50.575L6.113 6.7"/><path stroke="#000" stroke-width="2" stroke-linejoin="round" stroke-linecap="butt" d="M36.633 50.575L6.113 6.7"/><path fill="#000" d="M45.79 23.2h12.882v53.354H45.79z"/><path stroke="#000" stroke-width="2" stroke-linejoin="round" stroke-linecap="butt" d="M45.79 23.2h12.882v53.354H45.79z"/><path fill="#000" d="M132.357 23.2h12.882v53.354h-12.882z"/><path stroke="#000" stroke-width="2" stroke-linejoin="round" stroke-linecap="butt" d="M132.357 23.2h12.882v53.354h-12.882z"/><path fill="#fff" d="M43.346 139.811h252.756v30.33H43.346z"/><path stroke="#000" stroke-width="2" stroke-linejoin="round" stroke-linecap="butt" d="M43.346 139.811h252.756v30.33H43.346z"/><path d="M59.22 170.948v-9.764"/><path stroke="#000" stroke-width="2" stroke-linejoin="round" stroke-linecap="butt" d="M59.22 170.948v-9.764"/><path d="M84.055 139.811v12.819"/><path stroke="#000" stroke-width="2" stroke-linejoin="round" stroke-linecap="butt" d="M84.055 139.811v12.819"/><path d="M133.725 139.408v12.819"/><path stroke="#000" stroke-width="2" stroke-linejoin="round" stroke-linecap="butt" d="M133.725 139.408v12.819"/><path d="M108.89 170.545v-9.764"/><path stroke="#000" stroke-width="2" stroke-linejoin="round" stroke-linecap="butt" d="M108.89 170.545v-9.764"/><path d="M233.065 139.407v12.819"/><path stroke="#000" stroke-width="2" stroke-linejoin="round" stroke-linecap="butt" d="M233.065 139.407v12.819"/><path d="M208.23 170.543v-9.763"/><path stroke="#000" stroke-width="2" stroke-linejoin="round" stroke-linecap="butt" d="M208.23 170.543v-9.763"/><path d="M282.735 139.407v12.819"/><path stroke="#000" stroke-width="2" stroke-linejoin="round" stroke-linecap="butt" d="M282.735 139.407v12.819"/><path d="M257.9 170.543v-9.763"/><path stroke="#000" stroke-width="2" stroke-linejoin="round" stroke-linecap="butt" d="M257.9 170.543v-9.763"/><path d="M158.56 170.545v-9.764"/><path stroke="#000" stroke-width="2" stroke-linejoin="round" stroke-linecap="butt" d="M158.56 170.545v-9.764"/><path d="M183.395 139.408v12.819"/><path stroke="#000" stroke-width="2" stroke-linejoin="round" stroke-linecap="butt" d="M183.395 139.408v12.819"/><path fill="#000" d="M64.105 136.147h8.535v40.283h-8.535z"/><path stroke="#000" stroke-width="2" stroke-linejoin="round" stroke-linecap="butt" d="M64.105 136.147h8.535v40.283h-8.535z"/></g></svg>