<svg viewBox="0.0 0.0 348.0 348.0" fill="none" stroke-linecap="square" stroke-miterlimit="10" xmlns="http://www.w3.org/2000/svg"><clipPath id="a"><path d="M0 0h348v348H0V0z"/></clipPath><g clip-path="url(#a)"><path fill="none" d="M0 0h348v348H0z"/><path fill="#fff" d="M-6 0h354.016v347.969H-6z"/><path fill="none" d="M5.079 5.776h336.913v337.67H5.08z"/><path stroke="#000" stroke-width="2" stroke-linejoin="round" stroke-linecap="butt" d="M5.079 5.776h336.913v337.67H5.08z"/><path fill="#000" d="M133.843 20.551h74.33v56.882h-74.33z"/><path fill="#fff" d="M154.54 48.974q0-4.062.827-6.53.844-2.485 2.485-3.83 1.656-1.343 4.156-1.343 1.844 0 3.234.75 1.39.735 2.297 2.14.906 1.391 1.422 3.407.516 2 .516 5.406 0 4.032-.829 6.516-.828 2.469-2.484 3.828-1.64 1.344-4.156 1.344-3.313 0-5.203-2.375-2.266-2.86-2.266-9.313zm2.89 0q0 5.64 1.312 7.516 1.328 1.86 3.266 1.86 1.937 0 3.25-1.876 1.328-1.875 1.328-7.5 0-5.656-1.328-7.515-1.313-1.86-3.281-1.86-1.938 0-3.094 1.64-1.453 2.095-1.453 7.735zm14.906 0q0-4.062.828-6.53.844-2.485 2.484-3.83 1.657-1.343 4.157-1.343 1.843 0 3.234.75 1.39.735 2.297 2.14.906 1.391 1.422 3.407.515 2 .515 5.406 0 4.032-.828 6.516-.828 2.469-2.484 3.828-1.64 1.344-4.156 1.344-3.313 0-5.203-2.375-2.266-2.86-2.266-9.313zm2.89 0q0 5.64 1.313 7.516 1.328 1.86 3.266 1.86 1.937 0 3.25-1.876 1.328-1.875 1.328-7.5 0-5.656-1.328-7.515-1.313-1.86-3.282-1.86-1.937 0-3.093 1.64-1.453 2.095-1.453 7.735z"/></g></svg>