<svg viewBox="0.0 0.0 348.0 348.0" fill="none" stroke-linecap="square" stroke-miterlimit="10" xmlns="http://www.w3.org/2000/svg"><clipPath id="a"><path d="M0 0h348v348H0V0z"/></clipPath><g clip-path="url(#a)"><path fill="none" d="M0 0h348v348H0z"/><path fill="#fff" d="M-6 0h354.016v347.969H-6z"/><path fill="none" d="M5.079 5.776h336.913v337.67H5.08z"/><path stroke="#000" stroke-width="2" stroke-linejoin="round" stroke-linecap="butt" d="M5.079 5.776h336.913v337.67H5.08z"/><path fill="#000" d="M133.843 15.667h74.33v56.882h-74.33z"/><path fill="#fff" d="M154.54 44.09q0-4.063.827-6.531.844-2.485 2.485-3.829 1.656-1.343 4.156-1.343 1.844 0 3.234.75 1.39.734 2.297 2.14.906 1.39 1.422 3.407.516 2 .516 5.406 0 4.031-.829 6.515-.828 2.47-2.484 3.829-1.64 1.343-4.156 1.343-3.313 0-5.203-2.375-2.266-2.86-2.266-9.312zm2.89 0q0 5.64 1.312 7.515 1.328 1.86 3.266 1.86 1.937 0 3.25-1.875 1.328-1.875 1.328-7.5 0-5.656-1.328-7.516-1.313-1.86-3.281-1.86-1.938 0-3.094 1.641-1.453 2.094-1.453 7.735zm14.906 0q0-4.063.828-6.531.844-2.485 2.484-3.829 1.657-1.343 4.157-1.343 1.843 0 3.234.75 1.39.734 2.297 2.14.906 1.39 1.422 3.407.515 2 .515 5.406 0 4.031-.828 6.515-.828 2.47-2.484 3.829-1.64 1.343-4.156 1.343-3.313 0-5.203-2.375-2.266-2.86-2.266-9.312zm2.89 0q0 5.64 1.313 7.515 1.328 1.86 3.266 1.86 1.937 0 3.25-1.875 1.328-1.875 1.328-7.5 0-5.656-1.328-7.516-1.313-1.86-3.282-1.86-1.937 0-3.093 1.641-1.453 2.094-1.453 7.735zM145.803 164.96c0-15.707 12.416-28.44 27.732-28.44 7.355 0 14.41 2.996 19.61 8.33 5.2 5.334 8.123 12.568 8.123 20.11 0 15.708-12.416 28.442-27.733 28.442-15.316 0-27.732-12.734-27.732-28.441z"/><path stroke="#000" stroke-width="2" stroke-linejoin="round" stroke-linecap="butt" d="M145.803 164.96c0-15.707 12.416-28.44 27.732-28.44 7.355 0 14.41 2.996 19.61 8.33 5.2 5.334 8.123 12.568 8.123 20.11 0 15.708-12.416 28.442-27.733 28.442-15.316 0-27.732-12.734-27.732-28.441z"/><path fill="none" d="M148.85 82.887h52.41v48h-52.41z"/><path fill="#000" d="M168.241 96.213h1.797v7.844q0 2.063-.469 3.266-.453 1.203-1.672 1.969-1.203.75-3.172.75-1.906 0-3.125-.657-1.218-.656-1.734-1.906t-.516-3.422v-7.844h1.797v7.844q0 1.766.328 2.61.329.843 1.125 1.296.813.454 1.97.454 1.984 0 2.827-.891.844-.906.844-3.469v-7.844zm4.551 13.594V96.213h5.125q1.36 0 2.078.125 1 .172 1.672.641.672.469 1.078 1.313.422.843.422 1.843 0 1.735-1.11 2.938-1.093 1.203-3.984 1.203h-3.484v5.531h-1.797zm1.797-7.14h3.516q1.75 0 2.468-.641.735-.656.735-1.828 0-.86-.438-1.469-.422-.61-1.125-.797-.453-.125-1.672-.125h-3.484v4.86z"/><path fill="#fff" d="M39.766 202.433c0-8.019 6.79-14.52 15.166-14.52 4.022 0 7.88 1.53 10.723 4.253 2.844 2.723 4.442 6.416 4.442 10.267 0 8.02-6.79 14.52-15.165 14.52-8.376 0-15.166-6.5-15.166-14.52z"/><path stroke="#000" stroke-width="2" stroke-linejoin="round" stroke-linecap="butt" d="M39.766 202.433c0-8.019 6.79-14.52 15.166-14.52 4.022 0 7.88 1.53 10.723 4.253 2.844 2.723 4.442 6.416 4.442 10.267 0 8.02-6.79 14.52-15.165 14.52-8.376 0-15.166-6.5-15.166-14.52z"/><path fill="#fff" d="M85.021 242.138c0-8.02 6.79-14.52 15.165-14.52 4.022 0 7.88 1.53 10.724 4.253 2.844 2.723 4.442 6.416 4.442 10.267 0 8.019-6.79 14.52-15.166 14.52-8.375 0-15.165-6.501-15.165-14.52z"/><path stroke="#000" stroke-width="2" stroke-linejoin="round" stroke-linecap="butt" d="M85.021 242.138c0-8.02 6.79-14.52 15.165-14.52 4.022 0 7.88 1.53 10.724 4.253 2.844 2.723 4.442 6.416 4.442 10.267 0 8.019-6.79 14.52-15.166 14.52-8.375 0-15.165-6.501-15.165-14.52z"/><path fill="#fff" d="M132.694 280.23c0-8.02 6.79-14.52 15.166-14.52 4.022 0 7.879 1.53 10.723 4.253 2.844 2.723 4.442 6.416 4.442 10.267 0 8.019-6.79 14.52-15.165 14.52-8.376 0-15.166-6.501-15.166-14.52z"/><path stroke="#000" stroke-width="2" stroke-linejoin="round" stroke-linecap="butt" d="M132.694 280.23c0-8.02 6.79-14.52 15.166-14.52 4.022 0 7.879 1.53 10.723 4.253 2.844 2.723 4.442 6.416 4.442 10.267 0 8.019-6.79 14.52-15.165 14.52-8.376 0-15.166-6.501-15.166-14.52z"/><path fill="#fff" d="M41.597 247.714c0-8.02 6.79-14.52 15.165-14.52 4.023 0 7.88 1.53 10.724 4.253 2.844 2.723 4.442 6.416 4.442 10.267 0 8.019-6.79 14.52-15.166 14.52-8.375 0-15.165-6.501-15.165-14.52z"/><path stroke="#000" stroke-width="2" stroke-linejoin="round" stroke-linecap="butt" d="M41.597 247.714c0-8.02 6.79-14.52 15.165-14.52 4.023 0 7.88 1.53 10.724 4.253 2.844 2.723 4.442 6.416 4.442 10.267 0 8.019-6.79 14.52-15.166 14.52-8.375 0-15.165-6.501-15.165-14.52z"/><path fill="#fff" d="M86.852 287.419c0-8.02 6.79-14.52 15.165-14.52 4.022 0 7.88 1.53 10.724 4.253 2.844 2.723 4.441 6.416 4.441 10.267 0 8.019-6.79 14.52-15.165 14.52-8.376 0-15.165-6.501-15.165-14.52z"/><path stroke="#000" stroke-width="2" stroke-linejoin="round" stroke-linecap="butt" d="M86.852 287.419c0-8.02 6.79-14.52 15.165-14.52 4.022 0 7.88 1.53 10.724 4.253 2.844 2.723 4.441 6.416 4.441 10.267 0 8.019-6.79 14.52-15.165 14.52-8.376 0-15.165-6.501-15.165-14.52z"/><path fill="#fff" d="M134.525 325.51c0-8.019 6.79-14.52 15.165-14.52 4.022 0 7.88 1.53 10.724 4.254 2.844 2.722 4.442 6.416 4.442 10.266 0 8.02-6.79 14.52-15.166 14.52-8.375 0-15.165-6.5-15.165-14.52z"/><path stroke="#000" stroke-width="2" stroke-linejoin="round" stroke-linecap="butt" d="M134.525 325.51c0-8.019 6.79-14.52 15.165-14.52 4.022 0 7.88 1.53 10.724 4.254 2.844 2.722 4.442 6.416 4.442 10.266 0 8.02-6.79 14.52-15.166 14.52-8.375 0-15.165-6.5-15.165-14.52z"/><path fill="#fff" d="M182.214 280.23c0-8.02 6.79-14.52 15.165-14.52 4.022 0 7.88 1.53 10.724 4.253 2.844 2.723 4.442 6.416 4.442 10.267 0 8.019-6.79 14.52-15.166 14.52-8.375 0-15.165-6.501-15.165-14.52z"/><path stroke="#000" stroke-width="2" stroke-linejoin="round" stroke-linecap="butt" d="M182.214 280.23c0-8.02 6.79-14.52 15.165-14.52 4.022 0 7.88 1.53 10.724 4.253 2.844 2.723 4.442 6.416 4.442 10.267 0 8.019-6.79 14.52-15.166 14.52-8.375 0-15.165-6.501-15.165-14.52z"/><path fill="#fff" d="M184.045 325.51c0-8.019 6.79-14.52 15.165-14.52 4.022 0 7.88 1.53 10.724 4.254 2.844 2.722 4.441 6.416 4.441 10.266 0 8.02-6.79 14.52-15.165 14.52-8.376 0-15.165-6.5-15.165-14.52z"/><path stroke="#000" stroke-width="2" stroke-linejoin="round" stroke-linecap="butt" d="M184.045 325.51c0-8.019 6.79-14.52 15.165-14.52 4.022 0 7.88 1.53 10.724 4.254 2.844 2.722 4.441 6.416 4.441 10.266 0 8.02-6.79 14.52-15.165 14.52-8.376 0-15.165-6.5-15.165-14.52z"/><path fill="#fff" d="M226.042 242.138c0-8.02 6.79-14.52 15.165-14.52 4.022 0 7.88 1.53 10.724 4.253 2.844 2.723 4.442 6.416 4.442 10.267 0 8.019-6.79 14.52-15.166 14.52-8.375 0-15.165-6.501-15.165-14.52z"/><path stroke="#000" stroke-width="2" stroke-linejoin="round" stroke-linecap="butt" d="M226.042 242.138c0-8.02 6.79-14.52 15.165-14.52 4.022 0 7.88 1.53 10.724 4.253 2.844 2.723 4.442 6.416 4.442 10.267 0 8.019-6.79 14.52-15.166 14.52-8.375 0-15.165-6.501-15.165-14.52z"/><path fill="#fff" d="M227.873 287.419c0-8.02 6.79-14.52 15.165-14.52 4.022 0 7.88 1.53 10.724 4.253 2.844 2.723 4.441 6.416 4.441 10.267 0 8.019-6.79 14.52-15.165 14.52-8.376 0-15.165-6.501-15.165-14.52z"/><path stroke="#000" stroke-width="2" stroke-linejoin="round" stroke-linecap="butt" d="M227.873 287.419c0-8.02 6.79-14.52 15.165-14.52 4.022 0 7.88 1.53 10.724 4.253 2.844 2.723 4.441 6.416 4.441 10.267 0 8.019-6.79 14.52-15.165 14.52-8.376 0-15.165-6.501-15.165-14.52z"/><path fill="#fff" d="M272.417 202.433c0-8.019 6.79-14.52 15.166-14.52 4.022 0 7.88 1.53 10.723 4.253 2.844 2.723 4.442 6.416 4.442 10.267 0 8.02-6.79 14.52-15.165 14.52-8.376 0-15.166-6.5-15.166-14.52z"/><path stroke="#000" stroke-width="2" stroke-linejoin="round" stroke-linecap="butt" d="M272.417 202.433c0-8.019 6.79-14.52 15.166-14.52 4.022 0 7.88 1.53 10.723 4.253 2.844 2.723 4.442 6.416 4.442 10.267 0 8.02-6.79 14.52-15.165 14.52-8.376 0-15.166-6.5-15.166-14.52z"/><path fill="#fff" d="M274.248 247.714c0-8.02 6.79-14.52 15.165-14.52 4.022 0 7.88 1.53 10.724 4.253 2.844 2.723 4.442 6.416 4.442 10.267 0 8.019-6.79 14.52-15.166 14.52-8.375 0-15.165-6.501-15.165-14.52z"/><path stroke="#000" stroke-width="2" stroke-linejoin="round" stroke-linecap="butt" d="M274.248 247.714c0-8.02 6.79-14.52 15.165-14.52 4.022 0 7.88 1.53 10.724 4.253 2.844 2.723 4.442 6.416 4.442 10.267 0 8.019-6.79 14.52-15.166 14.52-8.375 0-15.165-6.501-15.165-14.52z"/><path fill="#fff" d="M195.969 149.795l31.905 15.166-31.905 15.165z"/><path stroke="#000" stroke-width="2" stroke-linejoin="round" stroke-linecap="butt" d="M195.969 149.795l31.905 15.166-31.905 15.165z"/><path fill="none" d="M101.354 159.383c0-40.764 32.997-73.81 73.701-73.81a73.645 73.645 0 0 1 52.114 21.618 73.867 73.867 0 0 1 21.587 52.192c0 40.765-32.997 73.811-73.7 73.811-40.705 0-73.702-33.046-73.702-73.81z"/><path stroke="#000" stroke-width="2" stroke-linejoin="round" stroke-linecap="butt" d="M101.354 159.383c0-40.764 32.997-73.81 73.701-73.81a73.645 73.645 0 0 1 52.114 21.618 73.867 73.867 0 0 1 21.587 52.192c0 40.765-32.997 73.811-73.7 73.811-40.705 0-73.702-33.046-73.702-73.81z"/><path fill="#fff" d="M15.262 17.706h109.89v54.835H15.262z"/><path stroke="#000" stroke-width="2" stroke-linejoin="round" stroke-linecap="butt" d="M15.262 17.706h109.89v54.835H15.262z"/><path fill="none" d="M15.262 72.654l39.686-54.08"/><path stroke="#000" stroke-width="2" stroke-linejoin="round" stroke-linecap="butt" d="M15.262 72.654l39.686-54.08"/><path fill="none" d="M37.566 72.654l39.686-54.08"/><path stroke="#000" stroke-width="2" stroke-linejoin="round" stroke-linecap="butt" d="M37.566 72.654l39.686-54.08"/><path fill="none" d="M59.87 72.654l39.686-54.08"/><path stroke="#000" stroke-width="2" stroke-linejoin="round" stroke-linecap="butt" d="M59.87 72.654l39.686-54.08"/><path fill="none" d="M82.175 72.654l39.685-54.08"/><path stroke="#000" stroke-width="2" stroke-linejoin="round" stroke-linecap="butt" d="M82.175 72.654l39.685-54.08"/><path fill="#fff" d="M216.864 16.634h109.89v54.835h-109.89z"/><path stroke="#000" stroke-width="2" stroke-linejoin="round" stroke-linecap="butt" d="M216.864 16.634h109.89v54.835h-109.89z"/><path fill="none" d="M216.864 71.581l39.685-54.078"/><path stroke="#000" stroke-width="2" stroke-linejoin="round" stroke-linecap="butt" d="M216.864 71.581l39.685-54.078"/><path fill="none" d="M239.168 71.581l39.685-54.078"/><path stroke="#000" stroke-width="2" stroke-linejoin="round" stroke-linecap="butt" d="M239.168 71.581l39.685-54.078"/><path fill="none" d="M261.472 71.581l39.685-54.078"/><path stroke="#000" stroke-width="2" stroke-linejoin="round" stroke-linecap="butt" d="M261.472 71.581l39.685-54.078"/><path fill="none" d="M283.776 71.581l39.685-54.078"/><path stroke="#000" stroke-width="2" stroke-linejoin="round" stroke-linecap="butt" d="M283.776 71.581l39.685-54.078"/></g></svg>