<svg viewBox="0.0 0.0 346.0 347.0" fill="none" stroke-linecap="square" stroke-miterlimit="10" xmlns="http://www.w3.org/2000/svg"><clipPath id="a"><path d="M0 0h346v347H0V0z"/></clipPath><g clip-path="url(#a)"><path fill="none" d="M0 0h346.105v347.367H0z"/><path fill="#fff" d="M-6 0h354.016v347.969H-6z"/><path fill="none" d="M5.079 5.776h336.913v337.67H5.08z"/><path stroke="#000" stroke-width="2" stroke-linejoin="round" stroke-linecap="butt" d="M5.079 5.776h336.913v337.67H5.08z"/><path fill="#000" d="M133.843 15.667h74.33v56.882h-74.33z"/><path fill="#fff" d="M154.54 44.09q0-4.063.827-6.531.844-2.485 2.485-3.829 1.656-1.343 4.156-1.343 1.844 0 3.234.75 1.39.734 2.297 2.14.906 1.39 1.422 3.407.516 2 .516 5.406 0 4.031-.829 6.515-.828 2.47-2.484 3.829-1.64 1.343-4.156 1.343-3.313 0-5.203-2.375-2.266-2.86-2.266-9.312zm2.89 0q0 5.64 1.312 7.515 1.328 1.86 3.266 1.86 1.937 0 3.25-1.875 1.328-1.875 1.328-7.5 0-5.656-1.328-7.516-1.313-1.86-3.281-1.86-1.938 0-3.094 1.641-1.453 2.094-1.453 7.735zm14.906 0q0-4.063.828-6.531.844-2.485 2.484-3.829 1.657-1.343 4.157-1.343 1.843 0 3.234.75 1.39.734 2.297 2.14.906 1.39 1.422 3.407.515 2 .515 5.406 0 4.031-.828 6.515-.828 2.47-2.484 3.829-1.64 1.343-4.156 1.343-3.313 0-5.203-2.375-2.266-2.86-2.266-9.312zm2.89 0q0 5.64 1.313 7.515 1.328 1.86 3.266 1.86 1.937 0 3.25-1.875 1.328-1.875 1.328-7.5 0-5.656-1.328-7.516-1.313-1.86-3.282-1.86-1.937 0-3.093 1.641-1.453 2.094-1.453 7.735zM216.864 16.634h109.89v54.835h-109.89z"/><path stroke="#000" stroke-width="2" stroke-linejoin="round" stroke-linecap="butt" d="M216.864 16.634h109.89v54.835h-109.89z"/><path fill="none" d="M216.864 71.581l39.685-54.078"/><path stroke="#000" stroke-width="2" stroke-linejoin="round" stroke-linecap="butt" d="M216.864 71.581l39.685-54.078"/><path fill="none" d="M239.168 71.581l39.685-54.078"/><path stroke="#000" stroke-width="2" stroke-linejoin="round" stroke-linecap="butt" d="M239.168 71.581l39.685-54.078"/><path fill="none" d="M261.472 71.581l39.685-54.078"/><path stroke="#000" stroke-width="2" stroke-linejoin="round" stroke-linecap="butt" d="M261.472 71.581l39.685-54.078"/><path fill="none" d="M283.776 71.581l39.685-54.078"/><path stroke="#000" stroke-width="2" stroke-linejoin="round" stroke-linecap="butt" d="M283.776 71.581l39.685-54.078"/><path fill="#fff" d="M22.173 18.504h85.418v51.213H22.173z"/><path stroke="#000" stroke-width="2" stroke-linejoin="round" stroke-linecap="butt" d="M22.173 18.504h85.418v51.213H22.173z"/><path fill="#fff" d="M47.795 44.11c0-9.436 7.65-17.086 17.087-17.086A17.087 17.087 0 0 1 81.969 44.11c0 9.437-7.65 17.087-17.087 17.087s-17.087-7.65-17.087-17.087z"/><path stroke="#000" stroke-width="2" stroke-linejoin="round" stroke-linecap="butt" d="M47.795 44.11c0-9.436 7.65-17.086 17.087-17.086A17.087 17.087 0 0 1 81.969 44.11c0 9.437-7.65 17.087-17.087 17.087s-17.087-7.65-17.087-17.087z"/><path fill="#fff" d="M241.068 84.152h67.071v235.376h-67.07z"/><path stroke="#000" stroke-width="2" stroke-linejoin="round" stroke-linecap="butt" d="M241.068 84.152h67.071v235.376h-67.07z"/><path fill="#000" d="M258.152 84.785h34.173v234.11h-34.173z"/><path stroke="#000" stroke-width="2" stroke-linejoin="round" stroke-linecap="butt" d="M258.152 84.785h34.173v234.11h-34.173z"/><path fill="#fff" d="M243.601 105.667h60.74v18.981h-60.74z"/><path stroke="#000" stroke-width="2" stroke-linejoin="round" stroke-linecap="butt" d="M243.601 105.667h60.74v18.981h-60.74z"/><path fill="none" d="M77.824 69.717v62.015"/><path stroke="#000" stroke-width="2" stroke-linejoin="round" stroke-linecap="butt" d="M77.824 69.717v62.015"/><path fill="none" d="M78.46 131.606l60.094.63"/><path stroke="#000" stroke-width="2" stroke-linejoin="round" stroke-linecap="butt" d="M78.46 131.606l60.094.63"/><path fill="none" d="M138.56 130.974v49.354"/><path stroke="#000" stroke-width="2" stroke-linejoin="round" stroke-linecap="butt" d="M138.56 130.974v49.354"/><path fill="none" d="M139.21 179.698l101.858 22.142"/><path stroke="#000" stroke-width="2" stroke-linejoin="round" stroke-linecap="butt" d="M139.21 179.698l101.858 22.142"/><path fill="none" d="M92.378 123.38l54.394 1.103"/><path stroke="#000" stroke-width="2" stroke-linejoin="round" stroke-linecap="butt" d="M92.378 123.38l54.394 1.103"/><path fill="none" d="M146.804 123.381v43.182"/><path stroke="#000" stroke-width="2" stroke-linejoin="round" stroke-linecap="butt" d="M146.804 123.381v43.182"/><path fill="none" d="M147.403 166.016l93.669 19.37"/><path stroke="#000" stroke-width="2" stroke-linejoin="round" stroke-linecap="butt" d="M147.403 166.016l93.669 19.37"/><path fill="none" d="M92.52 69.717v54.267"/><path stroke="#000" stroke-width="2" stroke-linejoin="round" stroke-linecap="butt" d="M92.52 69.717v54.267"/><path fill="#fff" d="M231.577 161.346h10.124v56.882h-10.124z"/><path stroke="#000" stroke-width="2" stroke-linejoin="round" stroke-linecap="butt" d="M231.577 161.346h10.124v56.882h-10.124z"/><path fill="none" d="M231.577 205.003l-80.976-5.701"/><path stroke="#000" stroke-width="2" stroke-linejoin="round" stroke-linecap="butt" d="M231.577 205.003l-80.976-5.701"/><path fill="none" d="M232.217 211.887L164.5 210.69"/><path stroke="#000" stroke-width="2" stroke-linejoin="round" stroke-linecap="butt" d="M232.217 211.887L164.5 210.69"/><path fill="none" d="M150.598 198.627l-17.732 61.418"/><path stroke="#000" stroke-width="2" stroke-linejoin="round" stroke-linecap="butt" d="M150.598 198.627l-17.732 61.418"/><path fill="none" d="M165.774 210.698l-16.472 49.354"/><path stroke="#000" stroke-width="2" stroke-linejoin="round" stroke-linecap="butt" d="M165.774 210.698l-16.472 49.354"/><path fill="none" d="M110.094 260.05h85.418v51.212h-85.418z"/><path stroke="#000" stroke-width="2" stroke-linejoin="round" stroke-linecap="butt" d="M110.094 260.05h85.418v51.212h-85.418z"/><path fill="none" d="M116.969 285.656c0-11.924 9.666-21.59 21.59-21.59a21.59 21.59 0 0 1 21.59 21.59c0 11.924-9.666 21.59-21.59 21.59s-21.59-9.666-21.59-21.59z"/><path stroke="#000" stroke-width="2" stroke-linejoin="round" stroke-linecap="butt" d="M116.969 285.656c0-11.924 9.666-21.59 21.59-21.59a21.59 21.59 0 0 1 21.59 21.59c0 11.924-9.666 21.59-21.59 21.59s-21.59-9.666-21.59-21.59z"/><path fill="none" d="M22.165 105.667H63.27V313.16H22.165z"/><path stroke="#000" stroke-width="2" stroke-linejoin="round" stroke-linecap="butt" d="M22.165 105.667H63.27V313.16H22.165z"/><path fill="#000" d="M23.412 260.685H63.27v51.213H23.412z"/><path stroke="#000" stroke-width="2" stroke-linejoin="round" stroke-linecap="butt" d="M23.412 260.685H63.27v51.213H23.412z"/><path fill="none" d="M62.64 246.131H48.72"/><path stroke="#000" stroke-width="2" stroke-linejoin="round" stroke-linecap="butt" d="M62.64 246.131H48.72"/><path fill="none" d="M62.64 230.32H44.278"/><path stroke="#000" stroke-width="2" stroke-linejoin="round" stroke-linecap="butt" d="M62.64 230.32H44.278"/><path fill="none" d="M62.64 214.508H48.72"/><path stroke="#000" stroke-width="2" stroke-linejoin="round" stroke-linecap="butt" d="M62.64 214.508H48.72"/><path fill="none" d="M62.64 198.697H44.278"/><path stroke="#000" stroke-width="2" stroke-linejoin="round" stroke-linecap="butt" d="M62.64 198.697H44.278"/><path fill="none" d="M62.64 182.886H48.72"/><path stroke="#000" stroke-width="2" stroke-linejoin="round" stroke-linecap="butt" d="M62.64 182.886H48.72"/><path fill="none" d="M62.64 167.074H44.278"/><path stroke="#000" stroke-width="2" stroke-linejoin="round" stroke-linecap="butt" d="M62.64 167.074H44.278"/><path fill="none" d="M62.64 151.263H48.72"/><path stroke="#000" stroke-width="2" stroke-linejoin="round" stroke-linecap="butt" d="M62.64 151.263H48.72"/><path fill="none" d="M62.64 135.451H44.278"/><path stroke="#000" stroke-width="2" stroke-linejoin="round" stroke-linecap="butt" d="M62.64 135.451H44.278"/><path fill="none" d="M63.129 119.64H49.207"/><path stroke="#000" stroke-width="2" stroke-linejoin="round" stroke-linecap="butt" d="M63.129 119.64H49.207"/></g></svg>