<svg viewBox="0.0 0.0 348.0 348.0" fill="none" stroke-linecap="square" stroke-miterlimit="10" xmlns="http://www.w3.org/2000/svg"><clipPath id="a"><path d="M0 0h348v348H0V0z"/></clipPath><g clip-path="url(#a)"><path fill="none" d="M0 0h348v348H0z"/><path fill="#fff" d="M-6 0h354.016v347.969H-6z"/><path fill="none" d="M5.079 5.776h336.913v337.67H5.08z"/><path stroke="#000" stroke-width="2" stroke-linejoin="round" stroke-linecap="butt" d="M5.079 5.776h336.913v337.67H5.08z"/><path fill="#000" d="M133.843 15.667h74.33v56.882h-74.33z"/><path fill="#fff" d="M154.54 44.09q0-4.063.827-6.531.844-2.485 2.485-3.829 1.656-1.343 4.156-1.343 1.844 0 3.234.75 1.39.734 2.297 2.14.906 1.39 1.422 3.407.516 2 .516 5.406 0 4.031-.829 6.515-.828 2.47-2.484 3.829-1.64 1.343-4.156 1.343-3.313 0-5.203-2.375-2.266-2.86-2.266-9.312zm2.89 0q0 5.64 1.312 7.515 1.328 1.86 3.266 1.86 1.937 0 3.25-1.875 1.328-1.875 1.328-7.5 0-5.656-1.328-7.516-1.313-1.86-3.281-1.86-1.938 0-3.094 1.641-1.453 2.094-1.453 7.735zm14.906 0q0-4.063.828-6.531.844-2.485 2.484-3.829 1.657-1.343 4.157-1.343 1.843 0 3.234.75 1.39.734 2.297 2.14.906 1.39 1.422 3.407.515 2 .515 5.406 0 4.031-.828 6.515-.828 2.47-2.484 3.829-1.64 1.343-4.156 1.343-3.313 0-5.203-2.375-2.266-2.86-2.266-9.312zm2.89 0q0 5.64 1.313 7.515 1.328 1.86 3.266 1.86 1.937 0 3.25-1.875 1.328-1.875 1.328-7.5 0-5.656-1.328-7.516-1.313-1.86-3.282-1.86-1.937 0-3.093 1.641-1.453 2.094-1.453 7.735zM15.262 17.706h109.89v54.835H15.262z"/><path stroke="#000" stroke-width="2" stroke-linejoin="round" stroke-linecap="butt" d="M15.262 17.706h109.89v54.835H15.262z"/><path fill="none" d="M15.262 72.654l39.686-54.08"/><path stroke="#000" stroke-width="2" stroke-linejoin="round" stroke-linecap="butt" d="M15.262 72.654l39.686-54.08"/><path fill="none" d="M37.566 72.654l39.686-54.08"/><path stroke="#000" stroke-width="2" stroke-linejoin="round" stroke-linecap="butt" d="M37.566 72.654l39.686-54.08"/><path fill="none" d="M59.87 72.654l39.686-54.08"/><path stroke="#000" stroke-width="2" stroke-linejoin="round" stroke-linecap="butt" d="M59.87 72.654l39.686-54.08"/><path fill="none" d="M82.175 72.654l39.685-54.08"/><path stroke="#000" stroke-width="2" stroke-linejoin="round" stroke-linecap="butt" d="M82.175 72.654l39.685-54.08"/><path fill="#fff" d="M32.976 83.031h282.048v242.363H32.976z"/><path stroke="#000" stroke-width="2" stroke-linejoin="round" stroke-linecap="butt" d="M32.976 83.031h282.048v242.363H32.976z"/><path fill="#fff" d="M216.864 16.634h109.89v54.835h-109.89z"/><path stroke="#000" stroke-width="2" stroke-linejoin="round" stroke-linecap="butt" d="M216.864 16.634h109.89v54.835h-109.89z"/><path fill="none" d="M216.864 71.581l39.685-54.078"/><path stroke="#000" stroke-width="2" stroke-linejoin="round" stroke-linecap="butt" d="M216.864 71.581l39.685-54.078"/><path fill="none" d="M239.168 71.581l39.685-54.078"/><path stroke="#000" stroke-width="2" stroke-linejoin="round" stroke-linecap="butt" d="M239.168 71.581l39.685-54.078"/><path fill="none" d="M261.472 71.581l39.685-54.078"/><path stroke="#000" stroke-width="2" stroke-linejoin="round" stroke-linecap="butt" d="M261.472 71.581l39.685-54.078"/><path fill="none" d="M283.776 71.581l39.685-54.078"/><path stroke="#000" stroke-width="2" stroke-linejoin="round" stroke-linecap="butt" d="M283.776 71.581l39.685-54.078"/><path fill="#000" d="M44.49 88.118h258.993v163.937H44.49z"/><path fill="#fff" d="M115.583 143.471v-36.594h7.75v2.922h-4.235v30.766h4.235v2.906h-7.75zm29.882-7.953v-25.25h-9.437v-3.39h22.703v3.39h-9.484v25.25h-3.782zm30.903-6.687l3.625.453q-.86 3.187-3.188 4.953-2.312 1.75-5.937 1.75-4.547 0-7.219-2.797-2.656-2.813-2.656-7.875 0-5.234 2.687-8.125 2.703-2.89 7-2.89 4.156 0 6.797 2.843 2.64 2.828 2.64 7.969 0 .312-.03.937h-15.47q.204 3.407 1.938 5.235 1.735 1.812 4.344 1.812 1.922 0 3.281-1.015 1.375-1.016 2.188-3.25zm-11.547-5.672h11.578q-.234-2.625-1.328-3.938-1.672-2.031-4.36-2.031-2.421 0-4.078 1.625-1.64 1.625-1.812 4.344zm17.246 12.36l7.578-10.782-7.016-9.969h4.391l3.188 4.875q.906 1.375 1.453 2.313.86-1.282 1.578-2.282l3.5-4.906h4.187l-7.156 9.766 7.703 10.984h-4.312l-4.25-6.453-1.14-1.734-5.454 8.187h-4.25zm30.016-3.142l.515 3.094q-1.484.328-2.656.328-1.922 0-2.984-.609-1.047-.61-1.485-1.594-.422-.984-.422-4.156v-11.938h-2.578v-2.734h2.578v-5.125l3.5-2.11v7.235h3.532v2.734h-3.532v12.141q0 1.5.188 1.938.187.421.594.671.421.25 1.203.25.593 0 1.547-.125zm20.43 11.094h-7.75v-2.906h4.234v-30.766h-4.235v-2.922h7.75v36.594z"/><path fill="none" d="M113.772 267.517h49.26v45.48h-49.26z"/><path stroke="#000" stroke-linejoin="round" stroke-linecap="butt" d="M113.772 267.517h49.26v45.48h-49.26z"/><path fill="#000" d="M137.477 294.437v-5.766l-5.235-7.828h2.188l2.672 4.094q.75 1.156 1.39 2.297.61-1.063 1.485-2.406l2.625-3.985h2.109l-5.437 7.828v5.766h-1.797z"/><path fill="none" d="M182.795 267.517h49.26v45.48h-49.26z"/><path stroke="#000" stroke-linejoin="round" stroke-linecap="butt" d="M182.795 267.517h49.26v45.48h-49.26z"/><path fill="#000" d="M202.142 294.437v-13.594h1.844l7.14 10.672v-10.672h1.719v13.594h-1.844l-7.14-10.688v10.688h-1.72z"/><path fill="#fff" d="M260.081 270.74h36.725v25.638H260.08z"/><path stroke="#000" stroke-width="2" stroke-linejoin="round" stroke-linecap="butt" d="M260.081 270.74h36.725v25.638H260.08z"/><path fill="#fff" d="M265.465 305.507a4.268 4.268 0 1 1 8.535 0 4.268 4.268 0 1 1-8.535 0z"/><path stroke="#000" stroke-width="2" stroke-linejoin="round" stroke-linecap="butt" d="M265.465 305.507a4.268 4.268 0 1 1 8.535 0 4.268 4.268 0 1 1-8.535 0z"/><path fill="#fff" d="M282.808 305.507a4.268 4.268 0 1 1 8.535 0 4.268 4.268 0 1 1-8.535 0z"/><path stroke="#000" stroke-width="2" stroke-linejoin="round" stroke-linecap="butt" d="M282.808 305.507a4.268 4.268 0 1 1 8.535 0 4.268 4.268 0 1 1-8.535 0z"/></g></svg>