<svg viewBox="0.0 0.0 348.0 348.0" fill="none" stroke-linecap="square" stroke-miterlimit="10" xmlns="http://www.w3.org/2000/svg"><clipPath id="a"><path d="M0 0h348v348H0V0z"/></clipPath><g clip-path="url(#a)"><path d="M0 0h348v348H0z"/><path fill="#fff" d="M-6 0h354.016v347.969H-6z"/><path d="M5.079 5.776h336.913v337.67H5.08z"/><path stroke="#000" stroke-width="2" stroke-linejoin="round" stroke-linecap="butt" d="M5.079 5.776h336.913v337.67H5.08z"/><path fill="#fff" d="M282.734 40.554c0-8.376 6.966-15.165 15.56-15.165 4.126 0 8.084 1.597 11.001 4.441 2.918 2.844 4.558 6.702 4.558 10.724 0 8.376-6.966 15.165-15.56 15.165-8.593 0-15.559-6.79-15.559-15.165z"/><path stroke="#000" stroke-width="2" stroke-linejoin="round" stroke-linecap="butt" d="M282.734 40.554c0-8.376 6.966-15.165 15.56-15.165 4.126 0 8.084 1.597 11.001 4.441 2.918 2.844 4.558 6.702 4.558 10.724 0 8.376-6.966 15.165-15.56 15.165-8.593 0-15.559-6.79-15.559-15.165z"/><path d="M110.604 279.346h97.92v41.89h-97.92z"/><path stroke="#000" stroke-width="2" stroke-linejoin="round" stroke-linecap="butt" d="M110.604 279.346h97.92v41.89h-97.92z"/><path fill="#000" d="M125.184 302.836l1.687-.14q.125 1.015.563 1.672.437.656 1.359 1.062.937.406 2.094.406 1.031 0 1.812-.312.797-.313 1.188-.844.39-.531.39-1.156 0-.64-.375-1.11-.375-.484-1.234-.812-.547-.219-2.422-.656-1.875-.453-2.625-.86-.969-.515-1.453-1.265-.469-.75-.469-1.688 0-1.031.578-1.922.594-.906 1.703-1.359 1.125-.469 2.5-.469 1.516 0 2.672.485 1.157.484 1.766 1.437.625.938.672 2.14l-1.719.126q-.14-1.282-.953-1.938-.797-.672-2.36-.672-1.624 0-2.374.61-.75.593-.75 1.437 0 .735.53 1.203.516.47 2.704.97 2.203.5 3.016.874 1.187.547 1.75 1.39.578.829.578 1.923 0 1.093-.625 2.062-.625.953-1.797 1.484-1.156.532-2.61.532-1.843 0-3.093-.532-1.25-.546-1.969-1.625-.703-1.078-.734-2.453zm21.974-9.218h1.797v7.843q0 2.063-.468 3.266-.454 1.203-1.672 1.969-1.203.75-3.172.75-1.906 0-3.125-.657-1.219-.656-1.735-1.906-.515-1.25-.515-3.422v-7.843h1.797v7.843q0 1.766.328 2.61.328.843 1.125 1.297.812.453 1.969.453 1.984 0 2.828-.89.843-.907.843-3.47v-7.843zm4.473 13.593v-13.593h5.11q1.547 0 2.484.406.953.406 1.484 1.265.532.86.532 1.797 0 .875-.469 1.657-.469.765-1.438 1.234 1.235.36 1.891 1.234.672.875.672 2.063 0 .953-.406 1.781-.39.813-.985 1.266-.593.437-1.5.672-.89.218-2.187.218h-5.188zm1.797-7.89h2.938q1.203 0 1.718-.157.688-.203 1.032-.671.36-.47.36-1.188 0-.672-.329-1.187-.328-.516-.938-.704-.593-.203-2.062-.203h-2.719v4.11zm0 6.281h3.39q.876 0 1.22-.063.625-.109 1.046-.359.422-.266.688-.766.266-.5.266-1.14 0-.766-.391-1.328-.39-.563-1.078-.782-.688-.234-1.985-.234h-3.156v4.672zm10.663 1.61v-13.594h2.718l3.22 9.625q.437 1.343.64 2.015.234-.75.734-2.187l3.25-9.453h2.422v13.593h-1.734v-11.39l-3.954 11.39h-1.625l-3.937-11.578v11.578h-1.734zm15.9 0v-13.594h1.812v13.593h-1.812zm8.34 0v-12h-4.47v-1.594h10.766v1.593h-4.5v12h-1.797z"/><path fill="#fff" d="M50.505 84.806c0-5.567 4.513-10.079 10.079-10.079a10.079 10.079 0 0 1 10.079 10.079c0 5.566-4.513 10.079-10.079 10.079-5.566 0-10.079-4.513-10.079-10.08z"/><path stroke="#000" stroke-width="2" stroke-linejoin="round" stroke-linecap="butt" d="M50.505 84.806c0-5.567 4.513-10.079 10.079-10.079a10.079 10.079 0 0 1 10.079 10.079c0 5.566-4.513 10.079-10.079 10.079-5.566 0-10.079-4.513-10.079-10.08z"/><path fill="#000" d="M56.537 88.511l4.047-7.402 4.048 7.402z"/><path stroke="#000" stroke-width="2" stroke-linejoin="round" stroke-linecap="butt" d="M56.537 88.511l4.047-7.402 4.048 7.402z"/><path fill="#fff" d="M99.996 84.806c0-5.567 4.512-10.079 10.079-10.079a10.079 10.079 0 0 1 10.079 10.079c0 5.566-4.513 10.079-10.08 10.079-5.566 0-10.078-4.513-10.078-10.08z"/><path stroke="#000" stroke-width="2" stroke-linejoin="round" stroke-linecap="butt" d="M99.996 84.806c0-5.567 4.512-10.079 10.079-10.079a10.079 10.079 0 0 1 10.079 10.079c0 5.566-4.513 10.079-10.08 10.079-5.566 0-10.078-4.513-10.078-10.08z"/><path fill="#000" d="M106.028 88.511l4.047-7.402 4.047 7.402z"/><path stroke="#000" stroke-width="2" stroke-linejoin="round" stroke-linecap="butt" d="M106.028 88.511l4.047-7.402 4.047 7.402z"/><path fill="#fff" d="M149.486 84.806c0-5.567 4.512-10.079 10.078-10.079a10.079 10.079 0 0 1 10.08 10.079c0 5.566-4.513 10.079-10.08 10.079-5.566 0-10.078-4.513-10.078-10.08z"/><path stroke="#000" stroke-width="2" stroke-linejoin="round" stroke-linecap="butt" d="M149.486 84.806c0-5.567 4.512-10.079 10.078-10.079a10.079 10.079 0 0 1 10.08 10.079c0 5.566-4.513 10.079-10.08 10.079-5.566 0-10.078-4.513-10.078-10.08z"/><path fill="#000" d="M155.517 88.511l4.048-7.402 4.047 7.402z"/><path stroke="#000" stroke-width="2" stroke-linejoin="round" stroke-linecap="butt" d="M155.517 88.511l4.048-7.402 4.047 7.402z"/><path fill="#fff" d="M198.891 84.806c0-5.567 4.512-10.079 10.079-10.079a10.079 10.079 0 0 1 10.079 10.079c0 5.566-4.513 10.079-10.08 10.079-5.566 0-10.078-4.513-10.078-10.08z"/><path stroke="#000" stroke-width="2" stroke-linejoin="round" stroke-linecap="butt" d="M198.891 84.806c0-5.567 4.512-10.079 10.079-10.079a10.079 10.079 0 0 1 10.079 10.079c0 5.566-4.513 10.079-10.08 10.079-5.566 0-10.078-4.513-10.078-10.08z"/><path fill="#000" d="M204.923 88.511l4.047-7.402 4.047 7.402z"/><path stroke="#000" stroke-width="2" stroke-linejoin="round" stroke-linecap="butt" d="M204.923 88.511l4.047-7.402 4.047 7.402z"/><path fill="#fff" d="M248.466 84.806c0-5.567 4.512-10.079 10.079-10.079a10.079 10.079 0 0 1 10.078 10.079c0 5.566-4.512 10.079-10.078 10.079-5.567 0-10.08-4.513-10.08-10.08z"/><path stroke="#000" stroke-width="2" stroke-linejoin="round" stroke-linecap="butt" d="M248.466 84.806c0-5.567 4.512-10.079 10.079-10.079a10.079 10.079 0 0 1 10.078 10.079c0 5.566-4.512 10.079-10.078 10.079-5.567 0-10.08-4.513-10.08-10.08z"/><path fill="#000" d="M254.498 88.511l4.047-7.402 4.047 7.402z"/><path stroke="#000" stroke-width="2" stroke-linejoin="round" stroke-linecap="butt" d="M254.498 88.511l4.047-7.402 4.047 7.402z"/><path fill="#fff" d="M50.504 259.302c0 5.566 4.512 10.079 10.079 10.079A10.079 10.079 0 0 0 70.66 259.3c0-5.565-4.512-10.078-10.078-10.078-5.567 0-10.08 4.513-10.08 10.079z"/><path stroke="#000" stroke-width="2" stroke-linejoin="round" stroke-linecap="butt" d="M50.504 259.302c0 5.566 4.512 10.079 10.079 10.079A10.079 10.079 0 0 0 70.66 259.3c0-5.565-4.512-10.078-10.078-10.078-5.567 0-10.08 4.513-10.08 10.079z"/><path fill="#000" d="M56.536 255.597l4.047 7.401 4.047-7.401z"/><path stroke="#000" stroke-width="2" stroke-linejoin="round" stroke-linecap="butt" d="M56.536 255.597l4.047 7.401 4.047-7.401z"/><path fill="#fff" d="M99.995 259.302a10.079 10.079 0 1 0 20.157 0c0-5.566-4.512-10.079-10.079-10.079-5.566 0-10.078 4.513-10.078 10.079z"/><path stroke="#000" stroke-width="2" stroke-linejoin="round" stroke-linecap="butt" d="M99.995 259.302a10.079 10.079 0 1 0 20.157 0c0-5.566-4.512-10.079-10.079-10.079-5.566 0-10.078 4.513-10.078 10.079z"/><path fill="#000" d="M106.027 255.597l4.047 7.401 4.047-7.401z"/><path stroke="#000" stroke-width="2" stroke-linejoin="round" stroke-linecap="butt" d="M106.027 255.597l4.047 7.401 4.047-7.401z"/><path fill="#fff" d="M149.484 259.302c0 5.566 4.513 10.079 10.079 10.079a10.079 10.079 0 0 0 10.079-10.08c0-5.565-4.513-10.078-10.079-10.078-5.566 0-10.079 4.513-10.079 10.079z"/><path stroke="#000" stroke-width="2" stroke-linejoin="round" stroke-linecap="butt" d="M149.484 259.302c0 5.566 4.513 10.079 10.079 10.079a10.079 10.079 0 0 0 10.079-10.08c0-5.565-4.513-10.078-10.079-10.078-5.566 0-10.079 4.513-10.079 10.079z"/><path fill="#000" d="M155.516 255.597l4.047 7.401 4.048-7.401z"/><path stroke="#000" stroke-width="2" stroke-linejoin="round" stroke-linecap="butt" d="M155.516 255.597l4.047 7.401 4.048-7.401z"/><path fill="#000" d="M29.517 98.304h260.095v146.993H29.517z"/><path stroke="#000" stroke-width="2" stroke-linejoin="round" stroke-linecap="butt" d="M29.517 98.304h260.095v146.993H29.517z"/><path fill="#fff" d="M198.89 259.302c0 5.566 4.512 10.079 10.079 10.079a10.079 10.079 0 0 0 10.078-10.08c0-5.565-4.512-10.078-10.078-10.078-5.567 0-10.08 4.513-10.08 10.079z"/><path stroke="#000" stroke-width="2" stroke-linejoin="round" stroke-linecap="butt" d="M198.89 259.302c0 5.566 4.512 10.079 10.079 10.079a10.079 10.079 0 0 0 10.078-10.08c0-5.565-4.512-10.078-10.078-10.078-5.567 0-10.08 4.513-10.08 10.079z"/><path fill="#000" d="M204.922 255.597l4.047 7.401 4.047-7.401z"/><path stroke="#000" stroke-width="2" stroke-linejoin="round" stroke-linecap="butt" d="M204.922 255.597l4.047 7.401 4.047-7.401z"/><path fill="#fff" d="M248.465 259.302a10.079 10.079 0 1 0 20.157 0c0-5.566-4.512-10.079-10.079-10.079-5.566 0-10.078 4.513-10.078 10.079z"/><path stroke="#000" stroke-width="2" stroke-linejoin="round" stroke-linecap="butt" d="M248.465 259.302a10.079 10.079 0 1 0 20.157 0c0-5.566-4.512-10.079-10.079-10.079-5.566 0-10.078 4.513-10.078 10.079z"/><path fill="#000" d="M254.496 255.597l4.048 7.401 4.047-7.401z"/><path stroke="#000" stroke-width="2" stroke-linejoin="round" stroke-linecap="butt" d="M254.496 255.597l4.048 7.401 4.047-7.401z"/><path fill="#fff" d="M35.627 105.079h49.575v132.567H35.627z"/><path stroke="#000" stroke-linejoin="round" stroke-linecap="butt" d="M35.627 105.079h49.575v132.567H35.627z"/><path fill="#000" d="M47.012 185.762l11-28.64h4.078l11.72 28.64h-4.313l-3.344-8.672H54.184l-3.14 8.672h-4.032zm8.266-11.765h9.703l-2.984-7.922q-1.36-3.61-2.032-5.938-.546 2.75-1.546 5.469l-3.141 8.39z"/><path fill="#fff" d="M85.201 105.079h49.575v132.567H85.201z"/><path stroke="#000" stroke-linejoin="round" stroke-linecap="butt" d="M85.201 105.079h49.575v132.567H85.201z"/><path fill="#000" d="M96.586 185.762l11-28.64h4.079l11.718 28.64h-4.312l-3.344-8.672h-11.969l-3.14 8.672h-4.032zm8.266-11.765h9.703l-2.984-7.922q-1.36-3.61-2.031-5.938-.547 2.75-1.547 5.469l-3.14 8.39z"/><path fill="#fff" d="M134.778 105.079h49.575v132.567h-49.575z"/><path stroke="#000" stroke-linejoin="round" stroke-linecap="butt" d="M134.778 105.079h49.575v132.567h-49.575z"/><path fill="#000" d="M146.163 185.762l11-28.64h4.078l11.72 28.64h-4.313l-3.344-8.672h-11.969l-3.14 8.672h-4.032zm8.266-11.765h9.703l-2.984-7.922q-1.36-3.61-2.032-5.938-.547 2.75-1.547 5.469l-3.14 8.39z"/><path fill="#fff" d="M184.352 105.079h49.575v132.567h-49.575z"/><path stroke="#000" stroke-linejoin="round" stroke-linecap="butt" d="M184.352 105.079h49.575v132.567h-49.575z"/><path fill="#000" d="M195.737 185.762l11-28.64h4.079l11.718 28.64h-4.312l-3.344-8.672h-11.969l-3.14 8.672h-4.032zm8.266-11.765h9.703l-2.984-7.922q-1.36-3.61-2.031-5.938-.547 2.75-1.547 5.469l-3.141 8.39z"/><path fill="#fff" d="M233.926 105.079h49.575v132.567h-49.575z"/><path stroke="#000" stroke-linejoin="round" stroke-linecap="butt" d="M233.926 105.079h49.575v132.567h-49.575z"/><path fill="#000" d="M245.312 185.762l11-28.64h4.078l11.718 28.64h-4.312l-3.344-8.672h-11.969l-3.14 8.672h-4.031zm8.265-11.765h9.703l-2.984-7.922q-1.36-3.61-2.031-5.938-.547 2.75-1.547 5.469l-3.14 8.39z"/></g></svg>