<svg viewBox="0.0 0.0 348.0 348.0" fill="none" stroke-linecap="square" stroke-miterlimit="10" xmlns="http://www.w3.org/2000/svg"><clipPath id="a"><path d="M0 0h348v348H0V0z"/></clipPath><g clip-path="url(#a)"><path d="M0 0h348v348H0z"/><path fill="#fff" d="M-6 0h348v347.969H-6z"/><path d="M5.079 5.776h336.913v337.67H5.08z"/><path stroke="#000" stroke-width="2" stroke-linejoin="round" stroke-linecap="butt" d="M5.079 5.776h336.913v337.67H5.08z"/><path fill="#fff" d="M282.734 40.554c0-8.376 6.966-15.165 15.56-15.165 4.126 0 8.084 1.597 11.001 4.441 2.918 2.844 4.558 6.702 4.558 10.724 0 8.376-6.966 15.165-15.56 15.165-8.593 0-15.559-6.79-15.559-15.165z"/><path stroke="#000" stroke-width="2" stroke-linejoin="round" stroke-linecap="butt" d="M282.734 40.554c0-8.376 6.966-15.165 15.56-15.165 4.126 0 8.084 1.597 11.001 4.441 2.918 2.844 4.558 6.702 4.558 10.724 0 8.376-6.966 15.165-15.56 15.165-8.593 0-15.559-6.79-15.559-15.165z"/><path d="M68.402 175.066l52.567-52.567 52.566 52.567-52.566 52.567z"/><path stroke="#000" stroke-width="2" stroke-linejoin="round" stroke-linecap="butt" d="M68.402 175.066l52.567-52.567 52.566 52.567-52.566 52.567z"/><path d="M121.262 227.178l52.567-52.566 52.567 52.566-52.567 52.567z"/><path stroke="#000" stroke-width="2" stroke-linejoin="round" stroke-linecap="butt" d="M121.262 227.178l52.567-52.566 52.567 52.566-52.567 52.567z"/><path d="M173.535 175.066l52.567-52.567 52.567 52.567-52.567 52.567z"/><path stroke="#000" stroke-width="2" stroke-linejoin="round" stroke-linecap="butt" d="M173.535 175.066l52.567-52.567 52.567 52.567-52.567 52.567z"/><path d="M121.262 122.045l52.567-52.567 52.567 52.567-52.567 52.567z"/><path stroke="#000" stroke-width="2" stroke-linejoin="round" stroke-linecap="butt" d="M121.262 122.045l52.567-52.567 52.567 52.567-52.567 52.567z"/></g></svg>