<svg xmlns="http://www.w3.org/2000/svg" viewBox="0.0 0.0 604.0 348.0" fill="none" stroke-linecap="square" stroke-miterlimit="10"><clipPath id="a"><path d="M0 0h604v348H0V0z"/></clipPath><g clip-path="url(#a)"><path fill="none" d="M0 0h604v348H0z"/><path fill="#fff" d="M114.36 0h357.29v347.969H114.36z"/><path fill="none" d="M125.438 5.776h336.914v337.67H125.438z"/><path stroke="#000" stroke-width="2" stroke-linejoin="round" stroke-linecap="butt" d="M125.438 5.776h336.914v337.67H125.438z"/><path fill="#fff" d="M403.094 40.554c0-8.376 6.966-15.165 15.56-15.165 4.126 0 8.083 1.597 11.001 4.441 2.918 2.844 4.557 6.702 4.557 10.724 0 8.376-6.966 15.165-15.559 15.165s-15.559-6.79-15.559-15.165z"/><path stroke="#000" stroke-width="2" stroke-linejoin="round" stroke-linecap="butt" d="M403.094 40.554c0-8.376 6.966-15.165 15.56-15.165 4.126 0 8.083 1.597 11.001 4.441 2.918 2.844 4.557 6.702 4.557 10.724 0 8.376-6.966 15.165-15.559 15.165s-15.559-6.79-15.559-15.165z"/><path fill="none" d="M241.622 122.045l52.567-52.567 52.567 52.567-52.567 52.567z"/><path stroke="#000" stroke-width="2" stroke-linejoin="round" stroke-linecap="butt" d="M241.622 122.045l52.567-52.567 52.567 52.567-52.567 52.567z"/><path fill="none" d="M188.761 175.066l52.567-52.567 52.567 52.567-52.567 52.567z"/><path stroke="#000" stroke-width="2" stroke-linejoin="round" stroke-linecap="butt" d="M188.761 175.066l52.567-52.567 52.567 52.567-52.567 52.567z"/><path fill="none" d="M241.622 227.178l52.567-52.566 52.567 52.566-52.567 52.567z"/><path stroke="#000" stroke-width="2" stroke-linejoin="round" stroke-linecap="butt" d="M241.622 227.178l52.567-52.566 52.567 52.566-52.567 52.567z"/><path fill="none" d="M293.895 175.066l52.567-52.567 52.567 52.567-52.567 52.567z"/><path stroke="#000" stroke-width="2" stroke-linejoin="round" stroke-linecap="butt" d="M293.895 175.066l52.567-52.567 52.567 52.567-52.567 52.567z"/><path fill="none" d="M478.65 60.892h95.875V122.5h-95.874zM478.65 143.808h140.347v61.607H478.651zM2.226 142.373H107.36v65.386H2.226zM-5 223.633h113.354v65.385H-5zM108.354 256.325H263"/><path stroke="#000" stroke-width="2" stroke-linejoin="round" stroke-linecap="butt" d="M108.354 256.325H251"/><path fill="#000" stroke="#000" stroke-width="2" stroke-linecap="butt" d="M251 259.629l9.076-3.304-9.076-3.303z" fill-rule="evenodd"/><path fill="none" d="M478.65 91.696H332.227"/><path stroke="#000" stroke-width="2" stroke-linejoin="round" stroke-linecap="butt" d="M478.65 91.696H344.227"/><path fill="#000" stroke="#000" stroke-width="2" stroke-linecap="butt" d="M344.226 88.392l-9.076 3.304 9.076 3.303z" fill-rule="evenodd"/><path fill="none" d="M478.65 174.612h-68.472"/><path stroke="#000" stroke-width="2" stroke-linejoin="round" stroke-linecap="butt" d="M478.65 174.612h-56.472"/><path fill="#000" stroke="#000" stroke-width="2" stroke-linecap="butt" d="M422.178 171.308l-9.076 3.304 9.076 3.303z" fill-rule="evenodd"/><path fill="none" d="M107.36 175.066h72.189"/><path stroke="#000" stroke-width="2" stroke-linejoin="round" stroke-linecap="butt" d="M107.36 175.066h60.189"/><path fill="#000" stroke="#000" stroke-width="2" stroke-linecap="butt" d="M167.549 178.37l9.076-3.304-9.076-3.304z" fill-rule="evenodd"/><text style="line-height:125%" x="485.9" y="101.811" font-weight="400" font-size="31.011" font-family="sans-serif" letter-spacing="0" word-spacing="0" fill="#000" stroke-linecap="butt"><tspan x="485.9" y="101.811" style="-inkscape-font-specification:'Special Elite'" font-size="31.25" font-family="Special Elite">Blauw</tspan></text><text style="line-height:125%" x="485.381" y="185.245" font-weight="400" font-size="31.25" font-family="sans-serif" letter-spacing="0" word-spacing="0" fill="#000" stroke-linecap="butt"><tspan x="485.381" y="185.245" style="-inkscape-font-specification:'Special Elite'" font-family="Special Elite">Geel</tspan></text><text style="line-height:125%" x="24.983" y="184.874" font-weight="400" font-size="40" font-family="sans-serif" letter-spacing="0" word-spacing="0" fill="#000" stroke-linecap="butt"><tspan x="24.983" y="184.874" style="-inkscape-font-specification:'Special Elite'" font-size="31.25" font-family="Special Elite">Rood</tspan></text><text style="line-height:125%" x="8.29" y="265.325" font-weight="400" font-size="40" font-family="sans-serif" letter-spacing="0" word-spacing="0" fill="#000" stroke-linecap="butt"><tspan x="8.29" y="265.325" style="-inkscape-font-specification:'Special Elite'" font-size="31.25" font-family="Special Elite">Groen</tspan></text></g></svg>