<svg viewBox="0.0 0.0 604.0 348.0" fill="none" stroke-linecap="square" stroke-miterlimit="10" xmlns="http://www.w3.org/2000/svg"><clipPath id="a"><path d="M0 0h604v348H0V0z"/></clipPath><g clip-path="url(#a)"><path fill="none" d="M0 0h604v348H0z"/><path fill="#fff" d="M114.36 0h357.29v347.969H114.36z"/><path fill="none" d="M125.438 5.776h336.914v337.67H125.438z"/><path stroke="#000" stroke-width="2" stroke-linejoin="round" stroke-linecap="butt" d="M125.438 5.776h336.914v337.67H125.438z"/><path fill="#fff" d="M403.094 40.554c0-8.376 6.966-15.165 15.56-15.165 4.126 0 8.083 1.597 11.001 4.441 2.918 2.844 4.557 6.702 4.557 10.724 0 8.376-6.966 15.165-15.559 15.165s-15.559-6.79-15.559-15.165z"/><path stroke="#000" stroke-width="2" stroke-linejoin="round" stroke-linecap="butt" d="M403.094 40.554c0-8.376 6.966-15.165 15.56-15.165 4.126 0 8.083 1.597 11.001 4.441 2.918 2.844 4.557 6.702 4.557 10.724 0 8.376-6.966 15.165-15.559 15.165s-15.559-6.79-15.559-15.165z"/><path fill="none" d="M241.622 122.045l52.567-52.567 52.567 52.567-52.567 52.567z"/><path stroke="#000" stroke-width="2" stroke-linejoin="round" stroke-linecap="butt" d="M241.622 122.045l52.567-52.567 52.567 52.567-52.567 52.567z"/><path fill="none" d="M188.761 175.066l52.567-52.567 52.567 52.567-52.567 52.567z"/><path stroke="#000" stroke-width="2" stroke-linejoin="round" stroke-linecap="butt" d="M188.761 175.066l52.567-52.567 52.567 52.567-52.567 52.567z"/><path fill="none" d="M241.622 227.178l52.567-52.566 52.567 52.566-52.567 52.567z"/><path stroke="#000" stroke-width="2" stroke-linejoin="round" stroke-linecap="butt" d="M241.622 227.178l52.567-52.566 52.567 52.566-52.567 52.567z"/><path fill="none" d="M293.895 175.066l52.567-52.567 52.567 52.567-52.567 52.567z"/><path stroke="#000" stroke-width="2" stroke-linejoin="round" stroke-linecap="butt" d="M293.895 175.066l52.567-52.567 52.567 52.567-52.567 52.567z"/><path fill="none" d="M478.65 60.892h95.875V122.5h-95.874z"/><path fill="#000" d="M505.432 94.144v.297q.016.171 0 .359 0 .172-.031.328-.016.14-.078.203-.14.14-.297.188-.156.03-.328.047-.156 0-.328.03-.157.016-.313.11.031.156.14.203l.25.063q.141.015.235.094.11.062.11.265 0 .328-.11.547-.094.203-.234.375-.14.156-.281.328-.141.172-.22.438-.093.28-.234.406-.14.125-.312.203-.156.063-.328.14-.172.079-.328.282-.172.187-.282.187-.046 0-.109-.015-.062-.016-.156-.016-.078 0-.156.063-.063.047-.063.125 0 .03.031.03.032 0 .016.017-.188.171-.672.406-.484.219-1.11.422-.624.187-1.312.328-.672.125-1.281.125-1.063 0-2.11-.063-1.03-.047-2.109-.047h-2.078q-.047 0-.14.094-.079.094-.188.094-.172 0-.453-.047-.266-.047-.531-.156-.266-.11-.47-.266-.187-.172-.187-.39 0-.079.016-.125.016-.063.031-.141.14-.438.39-.656.25-.235.532-.391l.594-.344q.312-.172.547-.484.25-.313.406-.844.156-.531.156-1.422 0-.812-.11-1.61-.093-.796-.093-1.608.016-1.5.063-2.97.062-1.468.078-2.968l.015-2.453q0-.39-.031-.906-.016-.516-.156-.985-.125-.484-.422-.812-.281-.344-.813-.39-.265-.016-.609-.141-.344-.125-.656-.329-.297-.218-.516-.484-.219-.266-.219-.578 0-.266.157-.438.156-.187.375-.296.218-.125.468-.172.266-.063.485-.063.5 0 .984.11.485.093 1 .093.64 0 1.281-.062.657-.063 1.297-.14.64-.095 1.282-.157.656-.063 1.312-.063.547 0 1.094.047l1.094.063q.093.125.328.203.234.078.5.14.28.063.547.11.265.031.406.062.375.079.64.172.282.078.47.235.202.14.343.375.156.234.281.609.016.047.14.14.141.094.313.188.172.094.328.188.157.093.22.156.202.203.405.625.22.406.391.875.172.469.281.922.11.453.11.734 0 .578-.172 1.156-.156.579-.328 1.125-.11.329-.328.625-.204.297-.407.61-.203.297-.36.61-.14.312-.14.655 0 .485.203.97.204.484.47.89.109.187.25.36.155.171.296.343.156.156.281.344.125.172.219.39.203.5.266 1.047.062.531.062 1.063zm-2.953-9.547q0-.172-.047-.406-.047-.235-.11-.47-.062-.25-.124-.484-.063-.25-.094-.437-.047-.234-.14-.375-.094-.156-.22-.25-.124-.11-.28-.203-.157-.11-.313-.25-.39-.344-.75-.547-.36-.203-.75-.313-.39-.109-.828-.14-.438-.047-.969-.047-.344 0-.719.016-.36.015-.656.093-.062.032-.078.078-.016.047-.078.094-.047.047-.188.094-.14.031-.437.031-.453 0-.75.125-.281.125-.453.36-.157.218-.22.546-.062.313-.077.72l-.031 1.062q0 .547-.047 1.093-.047.532-.172 1.047-.11.516-.36 1 .875.219 1.782.344.906.125 1.78.125.61 0 1.22-.047.625-.047 1.218-.156.22-.047.579-.172.375-.125.718-.312.36-.188.625-.422.282-.235.313-.485.031-.187.125-.343.11-.157.219-.297.125-.157.218-.313.094-.156.094-.36zm.516 10.437q0-.406-.11-.812-.093-.406-.156-.813-.047-.375-.094-.593-.031-.22-.125-.375-.078-.172-.234-.329-.156-.156-.453-.406-.078-.344-.172-.406-.078-.063-.172-.063-.078 0-.172.016h-.156l-.219-.437q-.297-.204-.531-.313-.219-.11-.578-.14-.313-.032-.625-.126-.297-.093-.625-.093-.14 0-.219.109-.078.11-.125.11-.094 0-.219-.032-.125-.047-.265-.078-.141-.047-.297-.078-.14-.047-.266-.047-.703 0-1.375.156-.656.14-1.328.313-.125.328-.25.719-.11.39-.203.796-.094.407-.156.813-.063.39-.063.734 0 .172.031.282.032.093.079.171.046.079.078.157.03.078.03.187 0 .625-.14 1.235-.125.593-.125 1.218 0 .407.11.782.109.375.375.687.312 0 .593.125.282.11.594.11.219 0 .422-.11.219-.11.344-.11.125 0 .187.11.078.11.25.11h.063q.047-.079.172-.126.125-.062.28-.078.173-.031.36-.031.188-.016.36-.016.328 0 .5.016.187.016.422.016.656-.141 1.25-.344.5-.172 1.015-.438.531-.265.828-.625.157-.156.344-.39.203-.235.36-.485.171-.265.28-.53.126-.282.126-.548zm21.187 4.766q0 .547-.375.86-.36.327-.875.484-.515.172-1.078.218-.547.047-.937.047-.516 0-.86-.093-.328-.094-.578-.204-.25-.093-.437-.187-.188-.094-.391-.094-.266 0-.531.094-.25.094-.516.094-.187 0-.312-.063-.11-.062-.188-.156-.078-.078-.156-.14-.063-.063-.156-.063-.11 0-.172.078-.063.094-.14.203-.08.11-.235.188-.14.093-.422.093-.328 0-.64-.078-.313-.062-.641-.062-.329 0-.657.109-.312.125-.593.125-.125 0-.188-.094-.062-.078-.14-.078-.266 0-.563.125-.281.125-.578.125-.156 0-.313-.047-.14-.031-.297-.031-.265 0-.53.125-.266.125-.657.125-.14 0-.625-.047-.469-.031-.969-.11-.5-.077-.906-.202-.39-.11-.39-.25 0-.407.14-.813.156-.406.156-.781v-.031q-.203 0-.234-.22.031-.062.094-.093.078-.047.156-.062.078-.032.14-.078.063-.047.063-.141v-.063q.625.063 1.219.079.609.015 1.265.015.61 0 1.344-.031.75-.047 1.375-.234.64-.188 1.063-.563.437-.39.437-1.078v-.36q-.078-1.718-.172-3.374-.078-1.672-.078-3.391 0-.453-.078-.875-.063-.438-.063-.875 0-.547.188-1.094.203-.547.625-.922-.016-.093-.078-.125-.063-.047-.156-.062l-.188-.031q-.078-.016-.14-.047-.094-.047-.126-.22-.03-.171-.062-.374-.016-.203-.047-.39-.016-.204-.094-.313.047-.453.157-.89.109-.438.109-.891 0-.329-.094-.516-.078-.188-.187-.313-.11-.125-.203-.218-.079-.11-.079-.266 0-.125.079-.234l-.125-.016q-.157 0-.235.078-.078.078-.156.172-.063.094-.14.172-.079.078-.22.078-.109 0-.25-.047-.265.078-.5.078-.546 0-1.093-.14-.531-.157-1.078-.157-.297 0-.578.032-.282.015-.563.015-.406 0-.812-.093-.407-.094-.72-.407v-.187q0-.828.548-1.25.562-.422 1.359-.422.547 0 1.078.14.531.141 1.078.141.297 0 .625-.062.328-.063.672-.141.344-.078.688-.14.36-.063.703-.063.531 0 1 .234.469.219.937.422l-.015.125q0 .14.062.266.078.11.172.234.094.11.156.235.078.109.078.25 0 .14-.046.28-.032.126-.032.266 0 .344.125.657.14.312.14.672 0 .375-.093.734-.078.36-.078.734 0 .453.11.907.109.453.109.906 0 .375-.125.734-.11.36-.11.719 0 .266.063.531.078.25.172.5.094.25.156.516.078.25.078.531v.313q0 .25-.047.484-.03.219-.203.422.078.297.156.64.094.344.094.657 0 .156-.031.343-.016.172-.078.36-.047.172-.14.328-.095.14-.22.234.204.594.266 1.203.063.61.094 1.22.015.187.062.484l.094.593q.047.282.078.532.047.234.047.328 0 .265-.094.515-.093.25-.093.516 0 .203.093.437.094.22.344.22.188 0 .313-.079.14-.094.296-.187.157-.11.36-.188.219-.094.578-.094.406 0 .766.11.359.109.765.109.297 0 .594-.047.312-.062.594-.125.297-.078.593-.14.297-.063.61-.063.625 0 1.047.36.437.359.437 1.062zm-8.969-19.453q-.062-.063-.156-.125-.078-.063-.187-.063-.078 0-.14.078-.048.063-.048.141l.078.188q.063.03.094.03.125 0 .203-.077.094-.094.156-.172zm.938 4.344q0-.125-.078-.25-.063-.141-.219-.141-.047 0-.11.016-.046.015-.077.03v.673q.125.062.187.062.156 0 .219-.125.078-.14.078-.265zm28.078 14.937q0 .281-.187.594-.172.312-.454.562-.265.266-.578.438-.312.172-.593.172-.485 0-.954-.078-.468-.079-.968-.079-.235 0-.547-.03-.297-.032-.422-.157-.36-.063-.531-.281-.172-.203-.313-.453-.125-.25-.281-.485-.14-.234-.438-.328-.89.39-1.578.75-.672.36-1.343.625-.657.281-1.422.438-.75.171-1.797.171-.453 0-.656-.046-.188-.047-.297-.157-.094-.093-.188-.265-.078-.172-.312-.422-.125-.125-.25-.14-.11-.032-.22-.032h-.077q-.14 0-.266-.047-.11-.062-.172-.312-.047-.188-.187-.422-.14-.25-.328-.5-.172-.25-.36-.453-.187-.204-.343-.313l-.016-1.547q-.016-1.562.094-3.094.11-1.53.11-3.093 0-.235-.017-.641-.015-.422-.078-.844-.047-.422-.187-.75-.125-.343-.36-.406-.359-.078-.734-.062-.36 0-.719-.016-.36-.016-.703-.11-.328-.093-.625-.406-.172-.172-.328-.422-.14-.25-.14-.515 0-.39.328-.656.343-.282.812-.454.469-.171.953-.25.485-.078.781-.078.86 0 1.625.266.782.25 1.422.828.032.031.032.063 0 .015-.016.03.031.454.125.907.094.438.094.89 0 .25-.078.47-.063.218-.063.484 0 .265.063.531.062.266.062.531 0 .172-.031.344t-.031.344q0 .484.109.953.11.453.11.937 0 .422-.094.829-.094.39-.22.796-.109.407-.202.813-.094.39-.094.812 0 .579.234 1.079.235.5.625.875.39.359.89.578.517.203 1.08.203.483 0 .78-.094.313-.11.5-.234.188-.125.297-.22.125-.108.25-.108t.219.03q.11.016.219.016.218 0 .36-.093.14-.094.25-.22l.233-.233q.125-.125.313-.172.36-.078.625-.203.266-.141.266-.563 0-.078.015-.14.031-.063.156-.063.079 0 .11.047.047.031.125.062.078-.062.11-.172.03-.109.062-.187.078-.281.28-.5.22-.219.25-.5.032-.313.157-.578.125-.266.125-.563 0-.265-.14-.468-.141-.204-.141-.485 0-.312.11-.625.124-.312.124-.625-.093-.125-.187-.281-.078-.156-.078-.313 0-.265.093-.343.094-.094.094-.188 0-.14-.078-.281-.062-.156-.156-.297-.094-.14-.172-.281-.063-.14-.063-.297 0-.156.047-.297.063-.156.063-.328 0-.25-.125-.438-.11-.203-.297-.328-.172-.14-.406-.203-.22-.078-.438-.11-.39-.046-.672-.046-.28 0-.5-.063-.203-.078-.39-.265-.172-.188-.36-.61-.11-.25-.11-.421 0-.375.33-.594.343-.235.796-.344.453-.125.906-.156.469-.047.735-.047.25 0 .484.047.25.031.5.031.266 0 .516-.094.265-.11.53-.11.376 0 .61.22.235.203.36.547.14.328.187.765.047.422.047.86 0 .578-.047 1.093-.031.516-.031.828 0 .672.125 1.266.14.578.14 1.078 0 .156-.078.313-.062.156-.14.312l-.157.313q-.062.156-.062.312 0 .125.047.219l.11.906q-.079.063-.095.156-.015.094-.015.172 0 .25.047.5.062.235.062.5 0 .297-.062.594-.063.281-.063.578 0 .719.485 1.11.5.375 1.171.375.375 0 .75-.125.11.234.297.421.203.172.39.344.188.172.313.39.141.22.141.532zm16.516-2.281q0 .422-.14.719-.126.296-.345.53-.203.235-.484.438-.266.203-.547.438-.219.187-.39.281-.172.094-.344.156-.157.063-.344.125-.172.063-.406.172-.313.156-.532.297-.203.125-.421.234-.204.11-.454.172-.25.078-.625.125-.625.078-1.265.188-.625.11-1.25.11-.125 0-.266-.063l-.297-.11q-.172-.047-.39-.11-.203-.046-.5-.046-.313 0-.5-.094-.188-.093-.344-.218l-.297-.266q-.156-.156-.406-.266-.938-.422-1.594-1.015-.656-.594-1.125-1.328-.469-.735-.781-1.594-.313-.86-.531-1.797-.172-.656-.172-1.313 0-.859.406-1.593-.156-.438-.156-.844 0-.297.172-.875.171-.594.437-1.188.281-.593.594-1.062.328-.484.61-.594.218-.078.296-.125.094-.062.094-.312 0-.188.14-.313.157-.125.36-.203.219-.078.422-.14.218-.063.36-.126.577-.28 1.093-.468.531-.203 1.047-.328.53-.141 1.093-.204.563-.062 1.204-.062.343 0 .671.094.329.093.625.25.313.14.61.328.297.172.578.344h-.016q.235.03.438.14.219.094.453.125.219.266.562.516.36.234.688.5.344.265.578.578.25.297.25.687 0 .063-.016.125 0 .063-.015.141l.062-.078q.063.047.11.156.062.11.11.25.046.125.077.266.031.125.047.203.125.203.328.328.219.125.344.344-.156.156-.156.406 0 .266.11.531.108.25.108.516 0 .312-.03.61-.032.28-.032.593 0 .234-.188.36-.171.124-.39.218-.203.094-.375.188-.172.093-.172.265 0 .125-.156.125-.14-.015-.235-.015-.687 0-1.375-.172-.672-.172-1.343-.172-.735 0-1.454.11-.718.093-1.453.093-.547 0-1.093-.031-.532-.031-1.079-.031-.14 0-.53.062-.391.047-.829.14-.422.079-.812.204-.391.11-.547.219-.016.078-.016.218 0 .735.422 1.516.437.781 1.14 1.422.704.64 1.579 1.062.875.422 1.765.422.516 0 1.016.047.516.031 1 .219.422-.203.766-.469.359-.266.687-.562.328-.297.64-.61.313-.312.641-.625.063-.062.297-.11.25-.062.531-.093.282-.047.532-.062.265-.032.36-.032.358 0 .67.11.095.359.095.703zm-2.344-6.344q0-.234-.078-.453t-.125-.453q-.078-.438-.078-.844 0-.422-.125-.844h-.016q0 .094-.062.188-.063.078-.172.078-.188 0-.36-.094t-.297-.234q-.593-.266-1.078-.5-.468-.235-.953-.406-.469-.188-1.015-.282-.532-.11-1.235-.11-.062 0-.125.017-.047 0-.094.046l.079.172-.125.032q-.422.078-.704.156-.265.062-.484.187-.219.125-.437.313-.204.172-.532.453-.156.14-.343.219-.172.062-.36.125-.172.047-.344.109-.156.063-.265.203-.11.39-.328.766-.203.36-.203.765 0 .235.187.422.203.172.5.297.313.125.672.219.375.094.734.14.36.047.657.079.312.015.484.015.594 0 1.172-.11.578-.124 1.172-.124.61 0 1.218.062.61.047 1.22.047.155 0 .468-.015.312-.016.61-.078.312-.079.53-.204.235-.14.235-.359z"/><path fill="none" d="M478.65 143.808h140.347v61.607H478.651z"/><path fill="#000" d="M495.76 163.185q-.187.047-.328.14-.14.078-.281.203-.14.11-.313.266-.156.156-.39.36-.047.312-.047.624 0 .329.078.532.078.187.172.328.094.125.172.25.078.11.078.265 0 .344.187.72.204.374.485.734.281.343.578.671.297.313.516.547h.046q.141 0 .313-.125.187-.125.36-.297.171-.187.28-.39.126-.203.126-.344 0-.156.109-.281.11-.14.25-.266.156-.14.297-.25.156-.125.234-.265v-.672l.172-.172q.094-.078.156-.172.063-.094.094-.219t.031-.328q0-.125-.015-.219v-.234q.109-.172.218-.328.11-.172.235-.328.14-.328 0-.47-.125-.14-.39-.187-.25-.046-.548-.046-.297-.016-.484-.063l-.188-.031q-.187-.031-.421-.11-.235-.093-.407-.453-.187-.375-.125-.656.078-.297.282-.5.203-.203.484-.328.281-.125.516-.188.406-.125.796-.218.407-.094.813-.094.469 0 .922.094.469.078.937.078.5 0 .985-.094.5-.094 1-.094.328 0 .625.047t.53.172q.25.11.423.344.172.219.25.562.078.36.031.578-.047.22 0 .344-.219.563-.594.813-.36.25-.781.359-.422.11-.86.188-.437.062-.78.265-.344.203-.579.64-.218.438-.218 1.266-.22.141-.454.391-.234.234-.453.516-.203.28-.39.578-.172.281-.266.515.172.063.188.188-.125.219-.204.469-.078.25-.203.468-.093.172-.203.266-.094.078-.187.188-.078.093-.141.265-.047.156-.047.469 0 .14-.031.281-.031.125-.172.235-.39.312-.64.796-.235.47-.376 1.016-.125.531-.171 1.094-.047.547-.047 1.015 0 .422.125.829.14.406.14.828 0 .422-.062.859-.063.422-.063.844 0 .219.032.422.03.187.03.39 0 .219-.015.36v.25q0 .172.078.297t.344.437q.063.078.172.25.125.172.219.172.265 0 .515-.063.266-.078.516-.156.266-.094.516-.156.265-.078.546-.078.032 0 .172.031.157.031.328.078.188.047.36.094.187.031.297.047.062.11.109.219.063.093.11.218l.312.14q.187.063.344.173.156.094.265.234.11.14.11.328 0 .235-.078.469-.063.219-.063.453 0 .203-.36.313-.359.109-.827.172-.47.046-.907.062-.437.016-.593.016-1.063 0-2.11-.078-1.031-.079-2.094-.079-.671 0-1.328.125-.64.11-1.297.11-.359 0-.703-.094-.343-.094-.703-.094-.406 0-.797.14-.375.126-.781.126-.234 0-.422-.063 0-.203-.094-.375-.078-.171-.187-.328l-.188-.343q-.078-.172-.078-.375 0-.375.328-.61.344-.25.86-.39.515-.157 1.14-.235.641-.078 1.25-.11.61-.046 1.11-.062.5-.015.765-.062.157-.297.25-.735.094-.437.141-.937.063-.516.078-1.063.016-.546.016-1.078 0-.718.015-1.328.016-.625-.03-1.187-.032-.563-.141-1.078-.094-.532-.329-1.063-.203-.453-.546-.797-.329-.344-.579-.765-.265-.454-.421-.954-.157-.515-.422-.984-.547-.984-1.016-1.984-.453-1.016-.812-2.094-.22-.031-.329-.11-.109-.078-.187-.171-.063-.094-.14-.188-.079-.11-.235-.187-.188-.094-.531-.141-.344-.062-.75-.11-.407-.062-.828-.14-.407-.078-.75-.187-.344-.125-.563-.313-.219-.203-.219-.5 0-.328.219-.656t.438-.563q.25-.265.656-.422.422-.156.875-.234.469-.094.937-.11.485-.03.875-.03h.328l1 .015q.407 0 .766.078.36.063.703.156.344.094.688.204.359.093.765.156.297.015.485.297.187.265.25.609.062.344 0 .672-.047.328-.235.469zm25.875 17.078q0 .422-.14.719-.125.296-.344.53-.203.235-.484.438-.266.203-.547.438-.22.187-.39.281-.173.094-.345.156-.156.063-.343.125-.172.063-.407.172-.312.156-.53.297-.204.125-.423.234-.203.11-.453.172-.25.078-.625.125-.625.078-1.266.188-.625.11-1.25.11-.125 0-.265-.063l-.297-.11q-.172-.047-.39-.11-.204-.046-.5-.046-.313 0-.5-.094-.188-.093-.344-.218l-.297-.266q-.157-.156-.407-.266-.937-.422-1.593-1.015-.657-.594-1.125-1.328-.47-.735-.782-1.594-.312-.86-.53-1.797-.173-.656-.173-1.313 0-.859.407-1.593-.157-.438-.157-.844 0-.297.172-.875.172-.594.438-1.188.28-.593.593-1.062.329-.484.61-.594.219-.078.297-.125.093-.062.093-.312 0-.188.141-.313.156-.125.36-.203.218-.078.421-.14.219-.063.36-.126.578-.28 1.093-.468.532-.203 1.047-.328.532-.141 1.094-.204.563-.062 1.203-.062.344 0 .672.094.328.093.625.25.313.14.61.328.296.172.578.344h-.016q.234.03.437.14.22.094.454.125.218.266.562.516.36.234.688.5.343.265.578.578.25.297.25.687 0 .063-.016.125 0 .063-.016.141l.063-.078q.062.047.11.156.062.11.109.25.047.125.078.266.031.125.047.203.125.203.328.328.219.125.344.344-.157.156-.157.406 0 .266.11.531.11.25.11.516 0 .312-.032.61-.031.28-.031.593 0 .234-.188.36-.172.124-.39.218-.204.094-.376.188-.171.093-.171.265 0 .125-.157.125-.14-.015-.234-.015-.688 0-1.375-.172-.672-.172-1.344-.172-.734 0-1.453.11-.719.093-1.453.093-.547 0-1.094-.031-.531-.031-1.078-.031-.14 0-.531.062-.39.047-.828.14-.422.079-.813.204-.39.11-.547.219-.015.078-.015.218 0 .735.422 1.516.437.781 1.14 1.422.703.64 1.578 1.062.875.422 1.766.422.516 0 1.016.047.515.031 1 .219.421-.203.765-.469.36-.266.688-.562.328-.297.64-.61.313-.312.64-.625.063-.062.298-.11.25-.062.531-.093.281-.047.531-.062.266-.032.36-.032.36 0 .672.11.093.359.093.703zm-2.343-6.344q0-.234-.079-.453-.078-.219-.125-.453-.078-.438-.078-.844 0-.422-.125-.844h-.015q0 .094-.063.188-.062.078-.172.078-.187 0-.36-.094-.17-.094-.296-.234-.594-.266-1.078-.5-.469-.235-.953-.406-.469-.188-1.016-.282-.531-.11-1.234-.11-.063 0-.125.017-.047 0-.094.046l.078.172-.125.032q-.422.078-.703.156-.266.062-.484.187-.22.125-.438.313l-.531.453q-.156.14-.344.219-.172.062-.36.125-.171.047-.343.109-.156.063-.266.203-.109.39-.328.766-.203.36-.203.765 0 .235.188.422.203.172.5.297.312.125.672.219.375.094.734.14.36.047.656.079.313.015.485.015.593 0 1.171-.11.579-.124 1.172-.124.61 0 1.22.062.608.047 1.218.047.156 0 .469-.015.312-.016.609-.078.312-.079.531-.204.235-.14.235-.359zm20.921 8.797q0 .547-.375.86-.359.327-.875.484-.515.172-1.078.218-.547.047-.937.047-.516 0-.86-.093-.328-.094-.578-.204-.25-.093-.437-.187-.188-.094-.39-.094-.266 0-.532.094-.25.094-.516.094-.187 0-.312-.063-.11-.062-.188-.156-.078-.078-.156-.14-.062-.063-.156-.063-.11 0-.172.078-.063.094-.14.203-.079.11-.235.188-.14.093-.422.093-.328 0-.64-.078-.313-.062-.641-.062t-.656.109q-.313.125-.594.125-.125 0-.188-.094-.062-.078-.14-.078-.266 0-.563.125-.281.125-.578.125-.156 0-.312-.047-.141-.031-.297-.031-.266 0-.532.125-.265.125-.656.125-.14 0-.625-.047-.469-.031-.969-.11-.5-.077-.906-.202-.39-.11-.39-.25 0-.407.14-.813.156-.406.156-.781v-.031q-.203 0-.234-.22.031-.062.094-.093.078-.047.156-.062.078-.032.14-.078.063-.047.063-.141v-.063q.625.063 1.219.079.61.015 1.266.015.609 0 1.343-.031.75-.047 1.375-.234.64-.188 1.063-.563.437-.39.437-1.078v-.36q-.078-1.718-.172-3.374-.078-1.672-.078-3.391 0-.453-.078-.875-.062-.438-.062-.875 0-.547.187-1.094.203-.547.625-.922-.015-.093-.078-.125-.062-.047-.156-.062l-.188-.031q-.078-.016-.14-.047-.094-.047-.125-.22-.032-.171-.063-.374-.015-.203-.047-.39-.015-.204-.093-.313.046-.453.156-.89.11-.438.11-.891 0-.329-.095-.516-.078-.188-.187-.313-.11-.125-.203-.218-.078-.11-.078-.266 0-.125.078-.234l-.125-.016q-.156 0-.235.078-.078.078-.156.172-.062.094-.14.172-.079.078-.22.078-.109 0-.25-.047-.265.078-.5.078-.546 0-1.093-.14-.531-.157-1.078-.157-.297 0-.578.032-.281.015-.563.015-.406 0-.812-.093-.406-.094-.719-.407v-.187q0-.828.547-1.25.562-.422 1.36-.422.546 0 1.077.14.532.141 1.079.141.296 0 .625-.062.328-.063.671-.141.344-.078.688-.14.36-.063.703-.063.531 0 1 .234.469.219.938.422l-.016.125q0 .14.062.266.079.11.172.234.094.11.157.235.078.109.078.25 0 .14-.047.28-.031.126-.031.266 0 .344.125.657.14.312.14.672 0 .375-.094.734-.078.36-.078.734 0 .453.11.907.11.453.11.906 0 .375-.126.734-.11.36-.11.719 0 .266.063.531.078.25.172.5.094.25.156.516.078.25.078.531v.313q0 .25-.046.484-.032.219-.204.422.079.297.157.64.093.344.093.657 0 .156-.03.343-.016.172-.079.36-.047.172-.14.328-.094.14-.22.234.204.594.266 1.203.063.61.094 1.22.016.187.063.484l.093.593q.047.282.078.532.047.234.047.328 0 .265-.093.515-.094.25-.094.516 0 .203.094.437.093.22.343.22.188 0 .313-.079.14-.094.297-.187.156-.11.36-.188.218-.094.577-.094.406 0 .766.11.36.109.765.109.297 0 .594-.047.313-.062.594-.125.297-.078.594-.14.297-.063.61-.063.624 0 1.046.36.437.359.437 1.062zm-8.968-19.453q-.063-.063-.157-.125-.078-.063-.187-.063-.078 0-.14.078-.048.063-.048.141l.079.188q.062.03.093.03.125 0 .203-.077.094-.094.157-.172zm.937 4.344q0-.125-.078-.25-.062-.141-.219-.141-.047 0-.11.016-.046.015-.077.03v.673q.125.062.187.062.157 0 .22-.125.077-.14.077-.265zm25.328 15.109q0 .547-.375.86-.36.327-.875.484-.515.172-1.078.218-.547.047-.937.047-.516 0-.86-.093-.328-.094-.578-.204-.25-.093-.437-.187-.188-.094-.39-.094-.267 0-.532.094-.25.094-.516.094-.187 0-.312-.063-.11-.062-.188-.156-.078-.078-.156-.14-.063-.063-.156-.063-.11 0-.172.078-.063.094-.14.203-.079.11-.235.188-.14.093-.422.093-.328 0-.64-.078-.313-.062-.641-.062t-.657.109q-.312.125-.593.125-.125 0-.188-.094-.062-.078-.14-.078-.266 0-.563.125-.281.125-.578.125-.156 0-.313-.047-.14-.031-.296-.031-.266 0-.532.125-.265.125-.656.125-.14 0-.625-.047-.469-.031-.969-.11-.5-.077-.906-.202-.39-.11-.39-.25 0-.407.14-.813.156-.406.156-.781v-.031q-.203 0-.234-.22.031-.062.094-.093.078-.047.156-.062.078-.032.14-.078.063-.047.063-.141v-.063q.625.063 1.219.079.61.015 1.265.015.61 0 1.344-.031.75-.047 1.375-.234.64-.188 1.063-.563.437-.39.437-1.078v-.36q-.078-1.718-.172-3.374-.078-1.672-.078-3.391 0-.453-.078-.875-.062-.438-.062-.875 0-.547.187-1.094.203-.547.625-.922-.016-.093-.078-.125-.063-.047-.156-.062l-.188-.031q-.078-.016-.14-.047-.094-.047-.125-.22-.032-.171-.063-.374-.016-.203-.047-.39-.015-.204-.094-.313.047-.453.157-.89.11-.438.11-.891 0-.329-.095-.516-.078-.188-.187-.313-.11-.125-.203-.218-.078-.11-.078-.266 0-.125.078-.234l-.125-.016q-.157 0-.235.078-.078.078-.156.172-.062.094-.14.172-.079.078-.22.078-.109 0-.25-.047-.265.078-.5.078-.546 0-1.093-.14-.531-.157-1.078-.157-.297 0-.578.032-.282.015-.563.015-.406 0-.812-.093-.407-.094-.72-.407v-.187q0-.828.548-1.25.562-.422 1.36-.422.546 0 1.077.14.532.141 1.078.141.297 0 .625-.062.329-.063.672-.141.344-.078.688-.14.36-.063.703-.063.531 0 1 .234.469.219.937.422l-.015.125q0 .14.062.266.078.11.172.234.094.11.156.235.079.109.079.25 0 .14-.047.28-.032.126-.032.266 0 .344.125.657.141.312.141.672 0 .375-.094.734-.078.36-.078.734 0 .453.11.907.109.453.109.906 0 .375-.125.734-.11.36-.11.719 0 .266.063.531.078.25.172.5.094.25.156.516.078.25.078.531v.313q0 .25-.047.484-.03.219-.203.422.078.297.157.64.093.344.093.657 0 .156-.03.343-.017.172-.08.36-.046.172-.14.328-.093.14-.218.234.203.594.265 1.203.063.61.094 1.22.016.187.062.484l.094.593q.047.282.078.532.047.234.047.328 0 .265-.094.515-.093.25-.093.516 0 .203.093.437.094.22.344.22.188 0 .313-.079.14-.094.297-.187.156-.11.359-.188.219-.094.578-.094.406 0 .766.11.36.109.765.109.297 0 .594-.047.313-.062.594-.125.297-.078.594-.14.296-.063.609-.063.625 0 1.047.36.437.359.437 1.062zm-8.968-19.453q-.063-.063-.157-.125-.078-.063-.187-.063-.078 0-.14.078-.048.063-.048.141l.078.188q.063.03.094.03.125 0 .203-.077.094-.094.157-.172zm.937 4.344q0-.125-.078-.25-.063-.141-.219-.141-.047 0-.11.016-.046.015-.077.03v.673q.125.062.187.062.156 0 .219-.125.078-.14.078-.265zm25.5 9.078q0 .218-.078.422-.063.187-.156.328-.078.14-.157.234-.062.094-.062.11 0 .156.094.328.11.171.11.375 0 .093-.08.125-.062.03-.14.03-.14 0-.234-.03.016.296.047.578.047.28.047.578 0 .453-.094.594-.078.125-.172.156-.094.031-.187.078-.079.031-.079.281 0 .14-.203.36-.187.218-.468.437-.266.219-.563.375-.281.156-.453.156-.047 0-.11-.031 0 .125.016.266.016.14.016.265 0 .203-.125.282-.125.062-.281.125-.235.109-.485.328-.25.203-.515.422-.266.218-.547.375-.266.171-.563.171-.25 0-.469-.125-.203-.125-.484-.125-.25 0-.422.063-.172.078-.328.156-.14.094-.297.156-.156.079-.36.079-.405 0-.812-.22-.406-.202-.78-.327-.22-.078-.47-.125-.25-.032-.484-.078-.234-.047-.453-.157-.203-.093-.36-.281-.328-.406-.765-.672-.438-.265-.89-.5-.454-.234-.876-.484-.422-.266-.734-.688-.235-.328-.531-.703-.297-.39-.563-.812-.25-.422-.422-.86-.172-.437-.172-.86 0-.312.063-.608l.125-.594q.078-.313.14-.61.063-.296.063-.609v-.172q0-.062-.047-.14-.047-.079-.11-.141-.046-.078-.109-.125-.047-.063-.062-.063-.031 0-.031.016.015-.14.078-.422.078-.297.172-.594.093-.312.187-.562.094-.266.172-.344.094-.078.172-.156.094-.094.094-.234 0-.141-.016-.266-.016-.14-.016-.281 0-.188.047-.22.047-.046.125-.046t.156-.016q.079-.03.157-.171.14-.282.265-.516.14-.25.297-.453.156-.203.36-.375.203-.172.5-.328.25-.141.484-.344l.5-.406q.25-.203.5-.344.266-.14.562-.14.422 0 .813-.141.406-.157.812-.235.641-.093 1.266-.172.64-.093 1.297-.093.36 0 .875.125.516.109 1.047.297.547.187 1.015.421.485.235.766.47v.046q0 .219-.078.453-.078.219-.078.438v.062q0 .031.031.031.266 0 .5-.062.25-.078.516-.078.03.265.234.36.203.093.406.171.188.094.344.344.172.234.313.547.14.297.265.593.14.297.266.485.125.187.219.453.109.25.171.531.079.281.11.563.031.265.031.5 0 .312-.125.53-.11.204-.25.376-.14.156-.266.312-.109.141-.109.329 0 .109.047.203.047.093.125.172.031-.016.125-.032.11-.015.11-.093v-.016q0-.125-.11-.234-.094-.11-.094-.266 0-.031.031-.094.032-.078.079-.078.093 0 .187.125.094.11.172.25.094.125.14.219.047.094.047.062l-.015-.015q.015.078.015.14.016.047.016.11zm-1.562.125q0-.25-.188-.297-.187-.063-.422-.078-.234-.016-.469-.047-.218-.031-.296-.235v-.156q0-.344-.094-.797-.078-.468-.203-.937-.125-.485-.266-.938-.14-.468-.266-.828-.125-.36-.203-.578l-.078-.219q-.125.032-.203.032-.266 0-.469-.11-.187-.11-.437-.234-.235-.125-.594-.235-.344-.109-.922-.109-.64 0-1.265-.078-.625-.094-1.266-.094-.875 0-1.64.406-.766.391-1.344 1.047-.579.64-.907 1.453-.328.813-.328 1.641 0 .344.016.813.015.453.078.921.062.454.203.86.14.39.39.594v.437q.063.063.157.078h.203q.11 0 .188.031.078.016.125.125.203.579.53.891.329.297.704.516.375.203.75.422.375.203.687.609.125-.016.266-.016.14-.015.266-.015.5 0 .968.078.485.062.97.062.515 0 .921-.265.422-.266.719-.672.187-.266.344-.453.156-.188.312-.344.172-.172.36-.313.203-.156.468-.343.094-.063.219-.157.14-.093.266-.203.14-.125.234-.234.094-.125.094-.234 0-.141-.047-.282-.031-.14-.031-.281 0-.156.046-.375.047-.219.141-.422.11-.203.25-.328.156-.14.375-.14.172 0 .344.078t.312.187q.032-.156.032-.234zm24.406-7.641q0 .5-.328.781-.313.282-.75.485-.438.203-.907.406-.453.187-.718.516-.453.546-.657 1.28-.187.735-.296 1.532-.094.797-.172 1.594-.063.797-.266 1.469-.078.234-.078.546 0 .297-.031.594-.016.281-.125.531-.11.235-.39.344-.08.031-.188.078-.11.047-.11.14 0 .11.094.173l.187.125q.11.047.204.14.093.079.093.235 0 .312-.093.625-.079.312-.188.625-.094.312-.187.656-.079.328-.079.703 0 .235-.062.344-.047.11-.14.172-.094.062-.235.11-.14.03-.313.14-.156.094-.328.172-.156.078-.36.078-.17 0-.343-.078-.172-.078-.36-.172-.171-.11-.359-.203-.171-.11-.343-.157-.125-.484-.25-.796-.11-.313-.22-.547-.093-.235-.17-.438-.08-.203-.142-.469-.062-.28-.093-.656-.032-.375-.032-.969 0-.265-.046-.515-.047-.266-.188-.485-.266-.406-.422-.843-.14-.438-.219-.875-.078-.453-.125-.907-.03-.468-.078-.937-.015-.11-.03-.313-.017-.203-.08-.406-.046-.203-.155-.344-.094-.14-.266-.14-.172 0-.375.156l-.437.328q-.25.172-.579.328-.328.14-.765.14.156.188.312.25.157.063.375.095.22.047.313.125.11.078.156.187.063.11.094.25.047.14.14.297.157.266.157.578 0 .438-.188.875-.187.422-.422.781-.156.25-.218.532-.047.28-.079.562-.015.281-.046.563-.032.28-.157.547-.047.109-.14.312-.094.188-.094.313 0 .046.031.125.047.078.094.187.062.094.094.219.047.11.047.203 0 .156-.079.36-.078.187-.187.406-.094.203-.203.406-.094.203-.14.375-.095.297-.266.469-.157.156-.391.234-.219.078-.484.094-.25.015-.5.015-.454 0-.704-.047-.25-.03-.39-.171-.125-.125-.203-.375-.063-.25-.157-.657-.093-.375-.203-.75-.093-.375-.093-.765 0-.422.187-.797-.125-.203-.219-.469-.093-.266-.234-.422-.156-.172-.328-.328-.172-.172-.328-.344.015-.172.015-.312v-.328q0-1.266-.265-2.594-.266-1.344-.64-2.563-.173-.5-.376-.984t-.297-1.016h-.328q-.156-.015-.328-.015-.14 0-.234.078l-.204.172q-.093.094-.218.172-.11.078-.266.078-.234 0-.469-.156-.218-.157-.406-.375-.172-.235-.281-.485-.11-.265-.11-.484 0-.297.157-.594.172-.297.422-.531.265-.25.578-.39.312-.157.593-.157.36 0 .688.14.328.141.687.141.282 0 .563-.031.281-.047.578-.047.422 0 .844.031.422.032.844.032.218 0 .421.109.204.094.391.234.188.125.375.282.188.14.375.234-.016.344-.172.531-.14.172-.375.297-.219.11-.484.219-.25.11-.469.312-.203.188-.36.532-.14.328-.14.89 0 .688.328 1.219.078.14.078.36 0 .171-.03.359-.032.172-.032.328 0 .187.094.297.234.28.28.734.063.438.095.906.046.469.125.89.093.407.39.595h.11q.421 0 .609-.313.203-.312.281-.734.078-.438.078-.89.016-.454.047-.735.25-.219.39-.64.141-.438.22-.923.078-.484.093-.953.032-.484.032-.797 0-.484-.125-.781-.11-.312-.266-.531-.14-.219-.266-.406-.11-.204-.11-.485 0-.328.36-.562.375-.25.89-.391.517-.156 1.048-.219.531-.078.86-.078.234 0 .312.016.093 0 .125.015 0-.125.297-.125.234 0 .578.063.343.062.687.14.344.063.64.126.298.062.438.062.453 0 .922-.125.485-.125.89-.312.626-.282 1.25-.375.641-.11 1.313-.11.36 0 .844.078t.922.25q.453.157.75.39.312.235.312.532 0 .063-.015.11v.062zm-8.781.484q0-.14-.141-.203-.125-.078-.234-.11-.016.173-.11.282-.078.094-.11.235.032.03.032.109 0 .031.078.031.094-.015.203-.047.11-.047.188-.125.094-.078.094-.172zm3.625 1.704q-.204-.25-.532-.485-.328-.25-.687-.437-.344-.188-.656-.297-.313-.11-.5-.11-.032 0-.11.094-.078.078-.187.203-.094.11-.22.219-.124.094-.218.14 0 .766-.031 1.532-.016.75-.016 1.516 0 .39.063.734.078.328.344.64.125.157.234.5.125.329.25.672.14.344.312.61.172.25.391.25.281 0 .469-.36.203-.359.344-.921.14-.563.234-1.25.094-.688.172-1.329.078-.64.156-1.156.078-.531.188-.765z"/><path fill="none" d="M2.226 142.373H107.36v65.386H2.226z"/><path fill="#000" d="M61.235 179.624q0 .14-.016.375-.016.234-.156.312-.157.079-.203.266-.032.188-.032.375 0 .188-.015.344-.016.14-.125.14-.078 0-.125-.03-.047-.048-.125-.048t-.157.078q-.078.079-.078.157t.047.125q.063.031.063.11 0 .062-.235.155-.234.078-.53.157-.298.093-.579.14-.281.063-.375.063-.563 0-1.125-.203-.563-.204-1.094-.375-.64-.22-.953-.72-.297-.5-.437-1.124-.141-.625-.22-1.281-.062-.657-.25-1.172-.077-.235-.077-.39 0-.157.031-.25.047-.11.094-.173.062-.078.093-.125.047-.062.047-.125 0-.187-.109-.375-.11-.187-.11-.5v-.328q.016-.172.016-.344 0-.578-.11-.953-.093-.375-.28-.687-.172-.313-.422-.625-.235-.313-.532-.75-.14.031-.296.031h-.297q-.313 0-.625-.031-.297-.032-.61-.032-.328 0-.672.063-.328.062-.671.062-.22 0-.438-.062-.219-.078-.437-.078-.266 0-.532.11-.265.093-.484.28-.219.172-.36.422-.124.235-.124.516v.5q0 1.36-.235 2.672l-.062.406q-.032.188-.032.406 0 .641.25 1.032.266.39.641.64.375.235.828.39.453.157.828.329.375.156.625.39.266.235.266.641 0 .156-.063.297-.046.125-.125.25-.203.328-.39.5-.172.156-.39.25-.204.094-.454.14-.25.048-.594.126-.265.062-.562.078-.281.031-.563.031-.437 0-.859-.11-.422-.093-.86-.093-.328 0-.671.062-.328.047-.657.11-.328.078-.656.125-.328.062-.656.062-.219 0-.484-.047-.25-.046-.47-.171-.218-.11-.374-.297-.14-.188-.14-.453 0-.22.109-.391.109-.172.28-.297.188-.125.391-.203.204-.078.391-.094.172-.015.281-.015.125 0 .203-.032.094-.03.188-.093t.219-.188q.078-.078.14-.125.078-.047.188-.047.078 0 .156.016.078.015.156.015.125 0 .25-.078.328-.187.47-.484.14-.297.187-.64.046-.36.046-.735.016-.375.094-.688.078-.343.078-.64 0-.547-.14-1.078-.125-.532-.125-1.078 0-.657.093-1.313.094-.656.094-1.312 0-.172-.015-.329v-.328q0-1.125.14-2.218.14-1.094.14-2.22 0-.312-.015-.609-.015-.296-.047-.609-.03-.25-.062-.61-.031-.374-.094-.765-.062-.39-.172-.781-.094-.39-.281-.688-.172-.312-.438-.5-.25-.203-.609-.203-.078 0-.172.016-.078.015-.156.015-.172 0-.281-.093-.11-.11-.172-.25-.063-.157-.094-.328-.016-.172-.016-.297 0-.532.266-.782.281-.25.672-.343.406-.094.86-.078.468 0 .827-.032.407-.03.797-.14.407-.11.828-.11.61 0 1.204.157.593.156 1.203.156.5 0 .968-.078.47-.094.938-.25.234-.078.422-.078.61 0 1.203.156.594.156 1.187.187.407.032.844.157.438.109.813.328.39.203.672.531.28.328.359.766.047.265.219.515.172.235.36.438.202.187.343.36.156.155.156.265 0 .11-.11.172-.093.046-.093.171 0 .079.094.172.11.094.234.22.125.124.219.28.11.141.11.313 0 .234-.157.422-.14.172-.14.406l.03.047.22-.063.03.032q.063.25.047.53v.485q0 .297-.015.656-.016.36-.078.704-.063.343-.188.64t-.36.469q-.14.11-.296.172-.14.047-.281.125-.14.062-.25.172-.11.11-.172.297-.078.265-.266.5-.187.234-.39.468-.188.22-.344.453-.14.235-.14.516 0 .453.202.844.22.39.391.797.172.422.25.86.078.421.11.858.046.438.062.875.031.438.094.875.03.188.14.625.125.422.297.86.172.437.39.765.22.329.454.329.203 0 .328-.22.125-.218.234-.5.125-.28.266-.546.156-.266.406-.36.485.047.797.188.328.14.5.39.172.235.234.594.079.344.079.813zm-4.672-14.375q0-.219-.094-.5-.094-.297-.234-.594-.141-.297-.313-.562-.156-.266-.312-.438-.329 0-.438-.047-.11-.047-.14-.109-.032-.078-.079-.172-.03-.094-.218-.187-.547-.266-.985-.407-.437-.14-1.047-.14-.172 0-.343.093-.157.094-.282.094-.359 0-.703-.078-.344-.094-.703-.094-.516 0-1.062.125-.36.094-.72.172-.359.078-.64.235-.281.156-.469.421-.171.266-.171.735 0 .484.093.953.11.469.11.953 0 .234-.078.453-.063.219-.141.438-.078.203-.156.422-.063.218-.063.453 0 .281.047.578.063.281.203.515.14.22.36.36.234.14.578.14.328 0 .625-.125.297-.14.625-.14.172 0 .328.094.156.078.312.171.157.094.328.188.172.078.375.078.157 0 .297-.031.141-.047.266-.11.594-.265 1.25-.468.672-.219 1.328-.219.172 0 .406-.188.235-.203.485-.5.25-.312.5-.671.25-.375.437-.735.203-.375.313-.672.125-.312.125-.484zm21.125 13.578q0 .422-.14.719-.126.297-.345.531-.203.234-.484.438-.266.203-.547.437-.219.188-.39.281-.172.094-.344.157-.157.062-.344.125-.172.062-.406.171-.313.157-.532.297-.203.125-.421.235-.204.11-.454.172-.25.078-.625.125-.625.078-1.265.187-.625.11-1.25.11-.125 0-.266-.063l-.297-.11q-.172-.046-.39-.109-.203-.047-.5-.047-.313 0-.5-.093-.188-.094-.344-.22l-.297-.265q-.156-.156-.406-.265-.938-.422-1.594-1.016-.656-.594-1.125-1.328-.469-.735-.781-1.594-.313-.86-.531-1.797-.172-.656-.172-1.312 0-.86.406-1.594-.156-.438-.156-.844 0-.297.172-.875.171-.594.437-1.187.281-.594.594-1.063.328-.484.61-.594.218-.078.296-.125.094-.062.094-.312 0-.188.14-.313.157-.125.36-.203.219-.078.422-.14.218-.063.36-.125.577-.282 1.093-.469.531-.203 1.047-.328.531-.14 1.093-.203.563-.063 1.204-.063.343 0 .671.094.329.094.625.25.313.14.61.328.297.172.578.344h-.016q.235.031.438.14.219.094.453.125.219.266.562.516.36.234.688.5.344.266.578.578.25.297.25.688 0 .062-.016.125 0 .062-.015.14l.062-.078q.063.047.11.156.062.11.11.25.046.125.077.266.031.125.047.203.125.203.328.328.219.125.344.344-.156.156-.156.406 0 .266.11.532.108.25.108.515 0 .313-.03.61-.032.28-.032.593 0 .235-.188.36-.171.125-.39.218-.203.094-.375.188t-.172.266q0 .125-.156.125-.14-.016-.235-.016-.687 0-1.375-.172-.672-.172-1.343-.172-.735 0-1.454.11-.718.093-1.453.093-.547 0-1.093-.03-.532-.032-1.079-.032-.14 0-.53.062-.391.047-.829.141-.422.078-.812.203-.391.11-.547.219-.016.078-.016.219 0 .734.422 1.515.437.781 1.14 1.422.704.64 1.579 1.063.875.421 1.765.421.516 0 1.016.047.516.032 1 .22.422-.204.766-.47.359-.265.687-.562.328-.297.64-.61.313-.312.641-.625.063-.062.297-.109.25-.062.531-.094.282-.047.532-.062.265-.031.36-.031.358 0 .671.109.094.36.094.703zm-2.344-6.344q0-.234-.078-.453t-.125-.453q-.078-.437-.078-.844 0-.422-.125-.843h-.016q0 .093-.062.187-.063.078-.172.078-.188 0-.36-.094-.172-.093-.297-.234-.593-.266-1.078-.5-.468-.234-.953-.406-.469-.188-1.015-.281-.532-.11-1.235-.11-.062 0-.125.016-.047 0-.094.047l.079.172-.125.03q-.422.079-.704.157-.265.063-.484.188-.219.125-.437.312-.204.172-.532.453-.156.14-.343.219-.172.062-.36.125-.172.047-.344.11-.156.062-.265.202-.11.391-.328.766-.203.36-.203.766 0 .234.187.422.203.171.5.296.313.125.672.22.375.093.734.14.36.047.657.078.312.016.484.016.594 0 1.172-.11.578-.125 1.172-.125.61 0 1.218.063.61.047 1.22.047.155 0 .468-.016.312-.016.61-.078.312-.078.53-.203.235-.14.235-.36zm22.812 8.938q0 .203-.109.406-.094.203-.328.203-.172 0-.313-.031-.14-.047-.312-.047-.25 0-.266.094 0 .094-.03.203-.032.125-.235.219-.188.093-.813.093-.36 0-.719-.062-.343-.063-.703-.063-.265 0-.578.079-.125-.157-.281-.235-.14-.078-.281-.172-.125-.078-.219-.203t-.094-.375q0-.172-.219-.172-.078 0-.156.016-.062.016-.14.016-.079 0-.141-.032-.047-.047-.047-.125 0-.03.016-.047-.328.016-.5.22-.172.202-.375.421-.14.14-.297.219-.156.062-.328.11-.157.062-.344.14-.172.078-.344.234-.14.14-.469.203-.328.078-.703.11-.359.047-.718.047-.344.015-.547.015-.469 0-.766-.078-.281-.078-.516-.203-.218-.11-.468-.25-.25-.125-.64-.25-.423-.125-1.017-.469-.593-.344-1.14-.797-.531-.453-.906-.968-.375-.532-.375-1.016 0-.219-.11-.438-.094-.234-.25-.437-.14-.219-.297-.422-.156-.219-.25-.406-.297-.594-.39-1.25-.078-.656-.078-1.313 0-.609.093-1.156.094-.562.235-1.094.14-.547.281-1.078.156-.531.281-1.11.078-.405.219-.609.14-.218.312-.375.188-.156.391-.296.219-.141.438-.407.093-.109.109-.187l.047-.14q.031-.063.094-.079.078-.031.28-.031.126 0 .188-.078.078-.078.141-.188.062-.11.11-.219.062-.125.156-.187.093-.063.234-.094.14-.031.297-.047l.297-.03q.156-.017.281-.063.328-.141.531-.25.219-.11.406-.188.204-.094.454-.14.25-.047.656-.047.531 0 1.047.14.531.125 1.047.281.515.157 1.03.297.516.125 1.063.125.438 0 .688-.187.265-.188.39-.485.141-.296.172-.656.047-.36.047-.703 0-.61-.078-1.203-.078-.61-.11-1.203l-.14.062q-.156 0-.281-.078-.125-.094-.235-.187-.109-.11-.234-.188-.125-.094-.281-.094-.172 0-.219.094-.047.078-.156.156l-.36.032H89.25q-.219 0-.5-.125-.265-.14-.515-.344-.25-.219-.422-.453-.157-.25-.157-.485 0-.203.125-.421.141-.235.329-.422.203-.188.437-.297.234-.125.453-.125.203 0 .375.11.172.093.375.093.344 0 .656-.11.329-.109.688-.109.36 0 .672.125.328.11.687.11.266 0 .532-.016.28-.016.546-.016.282 0 .563.047.297.047.547.188v.093q0 .22.047.438.062.203.125.422.078.203.125.406.062.203.062.422 0 .281-.14.547-.125.25-.125.547 0 .547.125 1.093.125.532.125 1.079 0 1.375-.016 2.75-.016 1.359-.016 2.75 0 1.406-.093 2.796-.094 1.375-.094 2.782 0 .515.047 1.172.047.64.25 1.218.203.563.593.953.407.391 1.11.391.14 0 .265-.016.141-.03.282-.03.203 0 .36.109.155.109.265.28.11.173.156.376.062.203.062.375zm-5.671-7.75q0-.578-.11-1.235-.094-.656-.36-1.218-.25-.578-.702-.969-.438-.39-1.11-.422-.14-.016-.343-.125-.188-.11-.391-.234-.203-.125-.406-.219-.188-.11-.344-.11-.14 0-.266.063-.125.047-.25.125l-.25.125q-.125.047-.28.047-.267 0-.517-.031-.234-.032-.5-.032-.78 0-1.421.47-.625.468-1.079 1.171-.453.688-.703 1.5-.25.797-.25 1.469 0 .281.032.562.046.282.046.563 0 .187-.109.312-.094.11-.234.235-.125.11-.235.25-.093.125-.093.312h.125q.406 0 .625.156.234.141.343.391.125.234.188.547.078.312.172.64.093.313.265.61.188.297.532.531l.546.375q.313.203.641.375.344.172.672.297.344.11.656.11.5 0 .985-.141.484-.156.984-.156.187 0 .406.046.36-.562.828-1.062.485-.516 1.172-.719l-.015-.344q0-.515.109-1 .125-.5.266-1.015.14-.516.25-1.063.125-.547.125-1.187z"/><path fill="none" d="M-5 223.633h113.354v65.385H-5z"/><path fill="#000" d="M24.839 252.774q0 .094-.032.282-.03.172-.093.343-.063.172-.157.313-.093.125-.218.125-.063 0-.11-.016-.047-.015-.109-.015-.11 0-.203.11-.078.093-.188.233-.093.125-.234.235-.125.094-.328.094-.078 0-.235-.032.063.313.094.625.031.313.031.625 0 .5-.062.985-.063.468-.14.953-.079.484-.141.969-.063.484-.063.968 0 .578.078 1.14.094.563.094 1.142 0 .25-.047.53-.047.266-.172.5-.109.235-.312.391-.203.157-.5.157-.438 0-.688-.266-.234-.281-.406-.594-.156-.328-.297-.593-.125-.282-.344-.282-.109 0-.28.125-.157.11-.36.266-.203.156-.453.297-.235.14-.485.187-.297.063-.406.172l-.219.219q-.109.094-.328.172-.203.078-.719.078-.343 0-.687-.031-.328-.032-.672-.032-.25 0-.5.032-.234.03-.484.03-.39 0-.64-.062-.25-.078-.454-.187-.188-.11-.406-.219-.203-.125-.532-.219l-.406-.125q-.156-.062-.281-.125-.125-.078-.25-.171-.125-.11-.328-.282-.125-.093-.281-.187-.157-.094-.297-.188-.14-.11-.25-.234-.094-.125-.11-.313-.015-.14-.047-.203-.03-.062-.093-.093-.047-.032-.125-.047-.063-.032-.172-.094-.188-.281-.281-.578-.094-.297-.188-.578-.094-.297-.234-.563-.14-.281-.422-.515.047-.157.047-.344 0-.328-.125-.625-.125-.313-.282-.61-.14-.312-.265-.625-.125-.328-.125-.687 0-.219.031-.438.047-.218.047-.437 0-.297-.078-.578-.063-.281-.14-.547l-.157-.563q-.063-.28-.063-.578v-.187q.016-.11.032-.203.093-.563.14-1.14l.094-1.142q.047-.578.11-1.14.062-.578.187-1.14.125-.548.219-1.079.11-.531.11-1.078.124-.172.327-.36.219-.187.422-.374.219-.204.375-.407.172-.218.219-.422.047-.203.25-.5.219-.296.484-.593.281-.297.563-.516.297-.219.5-.25.093-.016.203-.016.125 0 .219-.03.109-.032.187-.095.078-.062.078-.203 0-.11-.047-.234.844-.078 1.672-.266.828-.187 1.672-.187.188 0 .594.015.406.016.812.11.422.078.735.25.312.156.312.437v.078q.047-.015.094-.015h.11q.25 0 .484.094.234.093.484.093.25 0 .516-.015.281-.032.547-.094.28-.078.5-.203.234-.125.39-.313.344 0 .563.344.218.328.343.781.125.453.172.922.063.453.063.703 0 .375-.063.75-.047.375-.187.735.031.203.125.36l.219.312q.125.14.218.312.094.156.094.36-.11.28-.14.812-.016.516-.094 1.047-.063.515-.266.906-.187.375-.64.375-.313 0-.532-.203-.219-.219-.328-.484l.031.015q.203 0 .203-.187 0-.047-.109-.125-.094-.078-.219-.157-.125-.093-.25-.171-.125-.094-.187-.172-.125-.157-.235-.407-.109-.25-.187-.53-.078-.298-.125-.579-.047-.297-.047-.547v-.14q0-.063.016-.125l-.016.015q-.047-.015-.203-.203-.14-.187-.328-.406-.172-.235-.344-.438-.156-.218-.219-.297-.312-.312-.672-.562-.359-.25-.671-.563-.125.079-.266.141-.125.047-.266.047-.125 0-.203-.047l-.156-.125q-.078-.078-.172-.14-.094-.063-.25-.063-.344 0-.672.078-.312.078-.656.078-.36 0-.719-.14-.344-.141-.719-.141-.03 0-.093.016-.047.015-.078.03.015.141.078.266.062.125.062.266 0 .219-.187.422-.172.203-.422.39-.235.188-.485.376-.234.171-.359.328-.172.218-.281.468l-.188.5q-.093.235-.25.454-.14.218-.406.359.125.328.125.625 0 .219-.031.422-.031.187-.031.406 0 .5.078 1 .078.484.078.984 0 .407-.078.813-.063.39-.157.797-.093.39-.171.797-.063.39-.063.797 0 .359.078.687.094.328.203.64.11.313.188.594.094.282.094.532 0 .172-.032.343-.03.172-.03.344 0 .672.296 1.14.297.454.672.86.39.406.75.828.36.407.484.985.235-.047.453-.047.282 0 .563.062.281.063.547.157.265.078.547.14.28.063.562.063.594 0 1.203-.235.625-.25 1.14-.656.532-.406.923-.937.39-.532.531-1.11.125-.562.36-1.062.093-.188.187-.235.094-.047.172-.062.078-.016.125-.031.047-.016.047-.11t-.11-.172q-.094-.078-.094-.203 0-.047.063-.11l.14-.171q.094-.094.157-.219.062-.14.062-.297 0-.328-.187-.53-.188-.204-.469-.345-.281-.156-.61-.265-.312-.125-.593-.297-.281-.172-.469-.422-.187-.266-.187-.688 0-.343.172-.562.187-.234.453-.375.281-.14.593-.203.313-.078.594-.125.188-.031.406-.11.22-.093.438-.171.219-.094.406-.157.203-.078.36-.078.218 0 .437.094.219.078.438.11.296.046.734.124.453.078.86.235.406.156.687.422.297.25.297.671zm19.031-.828q0 .313-.125.532-.125.218-.281.421-.14.188-.297.391-.14.203-.188.484-.14-.062-.297-.078-.14-.015-.296-.015-.375 0-.75.062-.36.047-.72.047-.421 0-.702-.25-.266-.266-.438-.64-.156-.376-.219-.797-.062-.438-.062-.782 0-.437.14-.89-.124-.047-.218-.047-.203 0-.297.125-.078.125-.234.125-.141 0-.25-.094-.11-.11-.266-.11-.234 0-.594.157-.344.14-.672.375-.328.234-.578.516-.234.265-.234.515-.328.031-.625.188-.281.14-.547.312-.203.125-.344.39-.14.266-.265.579-.11.297-.235.61-.11.312-.265.515-.266.344-.47.703-.187.344-.187.781 0 .547.172 1.11.172.562.172 1.14 0 .375-.062.75-.047.375-.047.735 0 .437.156.703.156.265.422.422.265.14.61.187.343.047.702.047.391 0 .75-.016.375-.03.688-.03.11.124.125.234.015.109-.016.234-.015.11-.062.234-.032.11-.032.266 0 .062.032.156.234 0 .406-.11.172-.109.25-.343.11.031.187.094.094.062.094.187 0 .094-.047.188-.047.078-.109.156-.063.078-.11.172-.046.078-.046.187 0 .063.015.141.016.063.047.11-.078.124-.219.171-.14.047-.28.047-.25 0-.423-.078-.156-.078-.297-.172-.125-.094-.234-.172-.11-.078-.266-.078-.062 0-.187.031-.125.032-.25.079-.125.046-.219.125-.094.062-.094.125 0 .125.079.218.093.094.093.219 0 .11-.078.172-.078.062-.187.078-.11.031-.235.031-.109.016-.187.016-.61 0-1.219-.14-.594-.126-1.203-.126-.281 0-.563.125-.28.125-.593.125-.172 0-.266-.078-.078-.062-.14-.156-.063-.094-.141-.172-.078-.062-.235-.062-.296 0-.593.062-.282.063-.578.125-.282.078-.579.125-.28.063-.578.063-.156 0-.375-.047-.218-.032-.422-.125-.203-.094-.343-.235-.14-.14-.14-.343 0-.125.14-.329.156-.203.343-.39.188-.203.375-.344.188-.14.282-.14.25 0 .484.015.25.016.516.016.422 0 .843-.125.438-.141.782-.391.36-.25.578-.625.219-.375.219-.844 0-.203-.032-.39-.03-.203-.03-.407 0-.406.093-.812.094-.406.094-.813 0-.546-.125-1.109-.11-.578-.11-1.156 0-.516.016-1.016.031-.515.031-1.031 0-.234-.016-.688-.015-.453-.109-.906-.078-.453-.266-.797-.171-.343-.484-.343-.344 0-.687.078-.344.078-.704.078-.265 0-.625-.031-.359-.047-.687-.157-.328-.125-.563-.343-.234-.22-.234-.579 0-.39.11-.625.109-.25.28-.375.188-.125.423-.171.25-.047.53-.047.25 0 .516.015.266.016.516.016.5 0 .984-.047.5-.062 1-.062.344 0 .688.03.344.032.672.141.297.094.437.36.141.25.25.515.125.266.282.485.156.203.5.203.156 0 .28-.078.141-.094.266-.203.125-.11.25-.203.125-.094.297-.125.344-.047.625-.22.297-.171.578-.343.282-.172.563-.312.297-.141.64-.141.204 0 .5-.047.313-.047.61-.125.312-.094.578-.219.281-.125.438-.28.421.03.984.202.578.172 1.094.469.531.281.922.672.39.39.453.875.047.297.172.562l.25.532q.14.25.25.53.109.266.109.563zm16.469 8.14q0 .423-.14.72-.126.297-.345.53-.203.235-.484.438-.266.204-.547.438-.219.187-.39.281-.172.094-.344.156-.157.063-.344.125-.172.063-.406.172-.313.157-.532.297-.203.125-.421.235-.204.109-.454.171-.25.079-.625.125-.625.079-1.265.188-.625.11-1.25.11-.125 0-.266-.063l-.297-.11q-.172-.046-.39-.109-.203-.047-.5-.047-.313 0-.5-.094-.188-.093-.344-.218l-.297-.266q-.156-.156-.406-.266-.938-.421-1.594-1.015-.656-.594-1.125-1.328-.469-.735-.781-1.594-.313-.86-.531-1.797-.172-.656-.172-1.312 0-.86.406-1.594-.156-.438-.156-.844 0-.297.172-.875.171-.594.437-1.187.281-.594.594-1.063.328-.484.61-.594.218-.078.296-.125.094-.062.094-.312 0-.188.14-.313.157-.125.36-.203.219-.078.422-.14.218-.063.36-.125.577-.282 1.093-.47.531-.202 1.047-.327.531-.14 1.093-.203.563-.063 1.204-.063.343 0 .671.094.329.094.625.25.313.14.61.328.297.172.578.344h-.016q.235.03.438.14.219.094.453.125.219.266.562.516.36.234.688.5.344.266.578.578.25.297.25.688 0 .062-.016.125 0 .062-.015.14l.062-.078q.063.047.11.156.062.11.11.25.046.125.077.266.031.125.047.203.125.203.328.328.219.125.344.344-.156.156-.156.406 0 .266.11.531.108.25.108.516 0 .313-.03.61-.032.28-.032.593 0 .235-.188.36-.171.125-.39.218-.203.094-.375.188t-.172.265q0 .125-.156.125-.14-.015-.235-.015-.687 0-1.375-.172-.672-.172-1.343-.172-.735 0-1.454.11-.718.093-1.453.093-.547 0-1.093-.031-.532-.031-1.079-.031-.14 0-.53.062-.391.047-.829.14-.422.079-.812.204-.391.11-.547.219-.016.078-.016.218 0 .735.422 1.516.437.781 1.14 1.422.704.64 1.579 1.062.875.422 1.765.422.516 0 1.016.047.516.031 1 .219.422-.203.766-.469.359-.265.687-.562.328-.297.64-.61.313-.312.641-.625.063-.062.297-.11.25-.062.531-.093.282-.047.532-.062.265-.032.36-.032.358 0 .671.11.094.36.094.703zm-2.344-6.343q0-.234-.078-.453t-.125-.453q-.078-.438-.078-.844 0-.422-.125-.844h-.016q0 .094-.062.188-.063.078-.172.078-.188 0-.36-.094-.172-.093-.297-.234-.593-.266-1.078-.5-.468-.234-.953-.406-.469-.188-1.015-.282-.532-.109-1.235-.109-.062 0-.125.016-.047 0-.094.047l.079.171-.125.032q-.422.078-.704.156-.265.062-.484.187-.219.125-.437.313-.204.172-.532.453-.156.14-.343.219-.172.062-.36.125-.172.047-.344.11-.156.062-.265.202-.11.39-.328.766-.203.36-.203.766 0 .234.187.421.203.172.5.297.313.125.672.22.375.093.734.14.36.047.657.078.312.015.484.015.594 0 1.172-.109.578-.125 1.172-.125.61 0 1.218.063.61.046 1.22.046.155 0 .468-.015.312-.016.61-.078.312-.078.53-.203.235-.141.235-.36zm19.75 6.344q0 .422-.14.719-.126.297-.344.53-.204.235-.485.438-.265.204-.547.438-.218.187-.39.281-.172.094-.344.156-.156.063-.344.125-.172.063-.406.172-.313.157-.531.297-.203.125-.422.235-.203.109-.453.171-.25.079-.625.125-.625.079-1.266.188-.625.11-1.25.11-.125 0-.266-.063l-.296-.11q-.172-.046-.391-.109-.203-.047-.5-.047-.313 0-.5-.094-.188-.093-.344-.218l-.297-.266q-.156-.156-.406-.266-.937-.421-1.594-1.015-.656-.594-1.125-1.328-.468-.735-.78-1.594-.313-.86-.532-1.797-.172-.656-.172-1.312 0-.86.406-1.594-.156-.438-.156-.844 0-.297.172-.875.172-.594.437-1.187.282-.594.594-1.063.328-.484.61-.594.218-.078.296-.125.094-.062.094-.312 0-.188.14-.313.157-.125.36-.203.219-.078.422-.14.219-.063.36-.125.577-.282 1.093-.47.531-.202 1.047-.327.531-.14 1.094-.203.562-.063 1.203-.063.344 0 .672.094.328.094.625.25.312.14.61.328.296.172.577.344h-.015q.234.03.437.14.219.094.453.125.219.266.563.516.36.234.687.5.344.266.578.578.25.297.25.688 0 .062-.015.125 0 .062-.016.14l.063-.078q.062.047.109.156.062.11.11.25.046.125.077.266.032.125.047.203.125.203.328.328.22.125.344.344-.156.156-.156.406 0 .266.11.531.109.25.109.516 0 .313-.032.61-.03.28-.03.593 0 .235-.188.36-.172.125-.39.218-.204.094-.376.188-.172.094-.172.265 0 .125-.156.125-.14-.015-.234-.015-.688 0-1.375-.172-.672-.172-1.344-.172-.735 0-1.453.11-.719.093-1.453.093-.547 0-1.094-.031-.531-.031-1.078-.031-.14 0-.532.062-.39.047-.828.14-.422.079-.812.204-.39.11-.547.219-.016.078-.016.218 0 .735.422 1.516.438.781 1.14 1.422.704.64 1.579 1.062.875.422 1.766.422.515 0 1.015.047.516.031 1 .219.422-.203.766-.469.36-.265.687-.562.328-.297.641-.61.312-.312.64-.625.063-.062.297-.11.25-.062.532-.093.281-.047.531-.062.266-.032.36-.032.359 0 .671.11.094.36.094.703zm-2.344-6.344q0-.234-.078-.453t-.125-.453q-.078-.438-.078-.844 0-.422-.125-.844h-.016q0 .094-.062.188-.063.078-.172.078-.188 0-.36-.094-.171-.093-.296-.234-.594-.266-1.078-.5-.47-.234-.954-.406-.468-.188-1.015-.282-.531-.109-1.235-.109-.062 0-.125.016-.046 0-.093.047l.078.171-.125.032q-.422.078-.703.156-.266.062-.485.187-.218.125-.437.313l-.531.453q-.157.14-.344.219-.172.062-.36.125-.171.047-.343.11-.157.062-.266.202-.11.39-.328.766-.203.36-.203.766 0 .234.187.421.203.172.5.297.313.125.672.22.375.093.735.14.359.047.656.078.312.015.484.015.594 0 1.172-.109.578-.125 1.172-.125.61 0 1.219.063.61.046 1.218.046.157 0 .47-.015.312-.016.609-.078.312-.078.53-.203.235-.141.235-.36zm23.281 9.203q0 .219-.109.36-.11.14-.281.218-.156.079-.36.094-.187.031-.359.031-.234 0-.469-.03l-.468-.063q-.313.109-.75.218-.422.125-.766.125-.094 0-.188-.03-.078-.032-.156-.032-.265 0-.547.094-.265.109-.53.109-.454 0-.876-.125-.406-.11-.86-.14-.734-.063-1.14-.563-.39-.516-.422-1.219.485-.297 1.016-.406.547-.11 1.094-.11.312 0 .609.016.312.016.625.047-.047-1.172-.203-2.344-.156-1.172-.156-2.36 0-.405.015-.812.031-.406.11-.812.078-.406.203-.797.125-.406.125-.812 0-.266-.078-.485-.079-.234-.204-.469-.109-.187-.14-.421-.031-.235-.078-.47-.047-.25-.14-.484-.095-.234-.313-.421-.204-.188-.579-.297-.375-.11-.984-.11-.187 0-.562.063-.36.047-.75.14-.375.079-.72.204-.327.109-.452.234-.078.078-.203.219-.11.14-.25.297-.125.14-.25.265-.125.11-.22.125-.234.047-.359.078-.109.032-.187.094-.063.063-.11.188-.046.109-.156.328l-.125.25q-.093.172-.187.172-.078 0-.11-.063-.03-.062-.109-.062-.031 0-.094.046-.047.032-.078.063v.437q-.11.125-.203.141-.078 0-.14.016-.047.015-.079.078-.015.062-.015.297 0 .172-.078.312-.079.14-.172.281-.078.141-.157.297-.078.14-.078.328 0 .313.078.61.094.281.094.594 0 .203-.062.343-.063.14-.157.266-.078.11-.14.219-.063.109-.063.265 0 .219.078.407.094.171.188.359.094.187.172.39.094.204.094.438 0 .266-.063.547-.062.266-.062.547 0 .328.093.515.11.172.266.266.172.094.39.14.22.048.438.141.234.078.469.235.234.14.437.437l.094-.015q.266 0 .39.218.126.219.126.453 0 .22-.094.391-.094.156-.094.422 0 .187-.406.312t-.922.188q-.516.078-1 .094-.469.03-.625.03-.187 0-.578-.015-.375 0-.86-.031-.468-.016-.984-.062-.515-.047-.953-.141-.437-.078-.75-.219-.297-.125-.375-.312-.078-.188-.156-.407-.078-.234-.078-.453 0-.234.11-.422.124-.187.296-.343.234-.22.516-.25.28-.047.546-.047.282-.016.532-.047.265-.047.453-.25.203-.203.312-.64.125-.438.125-1.235 0-.203-.03-.406-.032-.22-.079-.407-.047-.203-.078-.359-.031-.156-.031-.234 0-.094.046-.203l.125-.22q.079-.124.125-.265.063-.14.063-.312 0-.266-.11-.516-.093-.25-.093-.516 0-.218.078-.421.078-.204.078-.422 0-.172-.094-.328-.093-.157-.093-.344 0-.172.062-.344.063-.187.063-.375 0-.406-.094-.828-.094-.438-.172-.844-.094-.484-.36-.719-.25-.25-.578-.375-.328-.125-.687-.203-.36-.078-.656-.234-.297-.172-.5-.469-.188-.312-.188-.906 0-.406.235-.625.25-.219.593-.313.344-.109.72-.125.39-.015.671-.015.453 0 .89.14.454.125.907.157.203.015.39.14.188.11.344.282.156.156.25.359.094.203.11.406 0 .094.062.344.063.234.14.484.094.25.188.453.11.188.219.188.094-.078.125-.172.047-.11.078-.203.016-.094.203-.25.203-.156.438-.328.25-.172.468-.328.235-.157.329-.25.093-.11.14-.22l.11-.218q.062-.11.14-.172.094-.062.281-.062h.079q.171 0 .328-.14.156-.157.406-.345.25-.187.656-.328.406-.156 1.078-.156.578 0 1.157.031.578.016 1.093.157.532.14.985.437.468.297.812.828.266.422.438.625t.281.39q.11.188.14.454.047.266.047.797 0 .219.079.406.078.188.171.39.11.188.188.407.078.219.078.5 0 .547-.062 1.094-.063.53-.063 1.078 0 .39-.156.765-.14.375-.14.766 0 .188.093.36.094.171.094.39 0 .266-.063.547-.062.266-.062.531 0 .25.11.438.124.187.124.422 0 .125-.062.203-.047.078-.125.156-.063.078-.125.172-.047.078-.047.203 0 .234.11.484.124.235.312.438.187.187.421.312.235.11.47.11.202 0 .343-.078.156-.094.328-.094.219 0 .39.187.188.172.313.422.14.25.203.516.078.265.078.437zm-3.375-5.89q0-.157-.109-.297-.094-.156-.266-.156-.171 0-.234.171-.062.157-.062.297 0 .172.062.328.063.157.25.157.156 0 .234-.094.094-.11.125-.375v-.031zm.266 3q0-.11-.094-.172-.078-.078-.172-.125-.03.094-.109.187-.078.094-.156.203l-.156.22q-.063.109-.063.218 0 .125.078.187.078.063.188.11.015-.094.093-.188.094-.093.172-.203.078-.11.141-.203.078-.11.078-.234zm-10.39-3.36q0-.11-.047-.265-.032-.157-.11-.297-.062-.156-.172-.25-.093-.11-.234-.11-.172 0-.297.11-.125.094-.312.094h-.063q-.047.171-.047.328l.016.093.015-.046q.047.171.188.265.14.094.297.172l.344.125q.171.063.296.172.125-.14.125-.39z"/><path fill="none" d="M108.354 256.325H263"/><path stroke="#000" stroke-width="2" stroke-linejoin="round" stroke-linecap="butt" d="M108.354 256.325H251"/><path fill="#000" stroke="#000" stroke-width="2" stroke-linecap="butt" d="M251 259.629l9.076-3.304-9.076-3.303z" fill-rule="evenodd"/><path fill="none" d="M478.65 91.696H332.227"/><path stroke="#000" stroke-width="2" stroke-linejoin="round" stroke-linecap="butt" d="M478.65 91.696H344.227"/><path fill="#000" stroke="#000" stroke-width="2" stroke-linecap="butt" d="M344.226 88.392l-9.076 3.304 9.076 3.303z" fill-rule="evenodd"/><path fill="none" d="M478.65 174.612h-68.472"/><path stroke="#000" stroke-width="2" stroke-linejoin="round" stroke-linecap="butt" d="M478.65 174.612h-56.472"/><path fill="#000" stroke="#000" stroke-width="2" stroke-linecap="butt" d="M422.178 171.308l-9.076 3.304 9.076 3.303z" fill-rule="evenodd"/><path fill="none" d="M107.36 175.066h72.189"/><path stroke="#000" stroke-width="2" stroke-linejoin="round" stroke-linecap="butt" d="M107.36 175.066h60.189"/><path fill="#000" stroke="#000" stroke-width="2" stroke-linecap="butt" d="M167.549 178.37l9.076-3.304-9.076-3.304z" fill-rule="evenodd"/></g></svg>