<svg xmlns="http://www.w3.org/2000/svg" width="696.13" height="371.2" viewBox="0 0 652.62168 348"><g fill="none" stroke-linecap="square" stroke-miterlimit="10"><g clip-path="url(#p.0)" transform="translate(5)"><path d="M0 0h604v348H0z" fill="none"/><path d="M114.36 0h357.29v347.969H114.36z" fill="#fff"/><path d="M125.438 5.776h336.914v337.67H125.438z" fill="none"/><path d="M125.438 5.776h336.914v337.67H125.438z" stroke="#000" stroke-width="2" stroke-linecap="butt" stroke-linejoin="round"/><path d="M403.094 40.554c0-8.376 6.966-15.165 15.56-15.165 4.126 0 8.083 1.597 11.001 4.441 2.918 2.844 4.557 6.702 4.557 10.724 0 8.376-6.966 15.165-15.559 15.165s-15.559-6.79-15.559-15.165z" fill="#fff"/><path d="M403.094 40.554c0-8.376 6.966-15.165 15.56-15.165 4.126 0 8.083 1.597 11.001 4.441 2.918 2.844 4.557 6.702 4.557 10.724 0 8.376-6.966 15.165-15.559 15.165s-15.559-6.79-15.559-15.165z" stroke="#000" stroke-width="2" stroke-linecap="butt" stroke-linejoin="round"/><path d="M241.622 122.045l52.567-52.567 52.567 52.567-52.567 52.567z" fill="none"/><path d="M241.622 122.045l52.567-52.567 52.567 52.567-52.567 52.567z" stroke="#000" stroke-width="2" stroke-linecap="butt" stroke-linejoin="round"/><path d="M188.761 175.066l52.567-52.567 52.567 52.567-52.567 52.567z" fill="none"/><path d="M188.761 175.066l52.567-52.567 52.567 52.567-52.567 52.567z" stroke="#000" stroke-width="2" stroke-linecap="butt" stroke-linejoin="round"/><path d="M241.622 227.178l52.567-52.566 52.567 52.566-52.567 52.567z" fill="none"/><path d="M241.622 227.178l52.567-52.566 52.567 52.566-52.567 52.567z" stroke="#000" stroke-width="2" stroke-linecap="butt" stroke-linejoin="round"/><path d="M293.895 175.066l52.567-52.567 52.567 52.567-52.567 52.567z" fill="none"/><path d="M293.895 175.066l52.567-52.567 52.567 52.567-52.567 52.567z" stroke="#000" stroke-width="2" stroke-linecap="butt" stroke-linejoin="round"/><path d="M478.65 60.892h95.875V122.5H478.65zM478.65 143.808h140.347v61.607H478.651zM2.226 142.373H107.36v65.386H2.226zM-5 223.633h113.354v65.385H-5zM108.354 256.325H263" fill="none"/><path d="M108.354 256.325H251" stroke="#000" stroke-width="2" stroke-linecap="butt" stroke-linejoin="round"/><path d="M251 259.629l9.076-3.304-9.076-3.303z" fill="#000" fill-rule="evenodd" stroke="#000" stroke-width="2" stroke-linecap="butt"/><path d="M478.65 91.696H332.227" fill="none"/><path d="M478.65 91.696H344.227" stroke="#000" stroke-width="2" stroke-linecap="butt" stroke-linejoin="round"/><path d="M344.226 88.392l-9.076 3.304 9.076 3.303z" fill="#000" fill-rule="evenodd" stroke="#000" stroke-width="2" stroke-linecap="butt"/><path d="M478.65 174.612h-68.472" fill="none"/><path d="M478.65 174.612h-56.472" stroke="#000" stroke-width="2" stroke-linecap="butt" stroke-linejoin="round"/><path d="M422.178 171.308l-9.076 3.304 9.076 3.303z" fill="#000" fill-rule="evenodd" stroke="#000" stroke-width="2" stroke-linecap="butt"/><path d="M107.36 175.066h72.189" fill="none"/><path d="M107.36 175.066h60.189" stroke="#000" stroke-width="2" stroke-linecap="butt" stroke-linejoin="round"/><path d="M167.549 178.37l9.076-3.304-9.076-3.304z" fill="#000" fill-rule="evenodd" stroke="#000" stroke-width="2" stroke-linecap="butt"/></g><text style="line-height:125%" x="544.776" y="41.352" font-weight="400" font-size="40" font-family="sans-serif" letter-spacing="0" word-spacing="0" fill="#000" stroke-linecap="butt" transform="translate(-51.569 60.61)"><tspan x="544.776" y="41.352" style="-inkscape-font-specification:'Special Elite'" font-size="35" font-family="Special Elite">Blau</tspan></text><text style="line-height:125%" x="544.776" y="125.195" font-weight="400" font-size="40" font-family="sans-serif" letter-spacing="0" word-spacing="0" fill="#000" stroke-linecap="butt" transform="translate(-51.569 60.61)"><tspan x="544.776" y="125.195" style="-inkscape-font-specification:'Special Elite'" font-size="35" font-family="Special Elite">Groc</tspan></text><text style="line-height:125%" x="77.076" y="122.164" font-weight="400" font-size="40" font-family="sans-serif" letter-spacing="0" word-spacing="0" fill="#000" stroke-linecap="butt" transform="translate(-51.569 60.61)"><tspan x="52.076" y="122.164" style="-inkscape-font-specification:'Special Elite'" font-size="35" font-family="Special Elite">Vermell</tspan></text><text style="line-height:125%" x="57.883" y="201.966" font-weight="400" font-size="40" font-family="sans-serif" letter-spacing="0" word-spacing="0" fill="#000" stroke-linecap="butt" transform="translate(-51.569 60.61)"><tspan x="87.883" y="201.966" style="-inkscape-font-specification:'Special Elite'" font-size="35" font-family="Special Elite">Verd</tspan></text></g></svg>