<svg xmlns="http://www.w3.org/2000/svg" viewBox="0 0 704 348" stroke-miterlimit="10" width="704" height="348" fill="none" stroke-linecap="square"><path d="M60 0h604v348H60z" fill="none"/><path d="M185.438 5.776h336.914v337.67H185.438z" fill="none"/><path d="M185.438 5.776h336.914v337.67H185.438z" stroke="#000" stroke-width="2" stroke-linecap="butt" stroke-linejoin="round"/><path d="M463.094 40.554c0-8.376 6.966-15.165 15.56-15.165 4.126 0 8.083 1.597 11.001 4.441 2.918 2.844 4.557 6.702 4.557 10.724 0 8.376-6.966 15.165-15.559 15.165s-15.559-6.79-15.559-15.165z" fill="#fff"/><path d="M463.094 40.554c0-8.376 6.966-15.165 15.56-15.165 4.126 0 8.083 1.597 11.001 4.441 2.918 2.844 4.557 6.702 4.557 10.724 0 8.376-6.966 15.165-15.559 15.165s-15.559-6.79-15.559-15.165z" stroke="#000" stroke-width="2" stroke-linecap="butt" stroke-linejoin="round"/><path d="M301.622 122.045l52.567-52.567 52.567 52.567-52.567 52.567z" fill="none"/><path d="M301.622 122.045l52.567-52.567 52.567 52.567-52.567 52.567z" stroke="#000" stroke-width="2" stroke-linecap="butt" stroke-linejoin="round"/><path d="M248.761 175.066l52.567-52.567 52.567 52.567-52.567 52.567z" fill="none"/><path d="M248.761 175.066l52.567-52.567 52.567 52.567-52.567 52.567z" stroke="#000" stroke-width="2" stroke-linecap="butt" stroke-linejoin="round"/><path d="M301.622 227.178l52.567-52.566 52.567 52.566-52.567 52.567z" fill="none"/><path d="M301.622 227.178l52.567-52.566 52.567 52.566-52.567 52.567z" stroke="#000" stroke-width="2" stroke-linecap="butt" stroke-linejoin="round"/><path d="M353.895 175.066l52.567-52.567 52.567 52.567-52.567 52.567z" fill="none"/><path d="M353.895 175.066l52.567-52.567 52.567 52.567-52.567 52.567z" stroke="#000" stroke-width="2" stroke-linecap="butt" stroke-linejoin="round"/><path d="M168.354 256.325H323" fill="none"/><path d="M168.354 256.325H311" stroke="#000" stroke-width="2" stroke-linecap="butt" stroke-linejoin="round"/><path d="M311 259.629l9.076-3.304-9.076-3.303z" fill="#000" fill-rule="evenodd" stroke="#000" stroke-width="2" stroke-linecap="butt"/><path d="M538.65 91.696H392.227" fill="none"/><path d="M538.65 91.696H404.227" stroke="#000" stroke-width="2" stroke-linecap="butt" stroke-linejoin="round"/><path d="M404.226 88.392l-9.076 3.304 9.076 3.303z" fill="#000" fill-rule="evenodd" stroke="#000" stroke-width="2" stroke-linecap="butt"/><path d="M538.65 174.612h-68.472" fill="none"/><path d="M538.65 174.612h-56.472" stroke="#000" stroke-width="2" stroke-linecap="butt" stroke-linejoin="round"/><path d="M482.178 171.308l-9.076 3.304 9.076 3.303z" fill="#000" fill-rule="evenodd" stroke="#000" stroke-width="2" stroke-linecap="butt"/><path d="M167.36 175.066h72.189" fill="none"/><path d="M167.36 175.066h60.189" stroke="#000" stroke-width="2" stroke-linecap="butt" stroke-linejoin="round"/><path d="M227.549 178.37l9.076-3.304-9.076-3.304z" fill="#000" fill-rule="evenodd" stroke="#000" stroke-width="2" stroke-linecap="butt"/><g style="line-height:125%;-inkscape-font-specification:'Cronos Pro'" font-weight="400" font-size="30" font-family="Special Elite" letter-spacing="0" word-spacing="0" fill="#000" stroke-linecap="butt"><path d="M566.855 99.522q-.088.307-.308.498-.205.176-.483.278-.278.103-.6.147-.308.029-.587.029-.424 0-.834-.044-.41-.059-.82-.132-.22-.03-.557-.044-.323-.014-.645-.073-.322-.058-.557-.205-.22-.161-.22-.483 0-.367.147-.528.147-.175.366-.234.22-.073.484-.088.263-.015.483-.088.22-.088.366-.264.147-.19.147-.6 0-.264-.059-.527-.044-.264-.102-.513-.059-.264-.117-.513-.044-.264-.044-.527 0-.176.102-.366.117-.205.117-.455 0-.454-.073-.85-.073-.395-.234-.82-.103-.278-.103-.512 0-.22.088-.425.103-.205.103-.44 0-.307-.103-.585-.102-.293-.102-.6 0-.411.087-.807.088-.395.088-.805 0-.279-.058-.615-.059-.337-.161-.674-.088-.352-.19-.674-.103-.337-.191-.6-.293.131-.484.35-.175.206-.293.47-.102.263-.175.556-.059.293-.103.572-.102.57-.322 1.113-.205.542-.293 1.113-.117.703-.147 1.392-.014.688-.073 1.377-.044.673-.16 1.347-.118.674-.426 1.348-.117.249-.146.469-.03.22-.03.454 0 .205.015.41t.015.425q0 .454-.103.688-.088.22-.205.366l-.234.293q-.117.132-.176.41-.044.235-.249.367-.19.117-.454.205-.264.073-.527.132-.264.044-.44.132-.161-.337-.395-.63-.22-.293-.41-.616-.206-.336-.264-.717-.044-.381-.176-.762-.059-.176-.147-.308l-.146-.263-.117-.293q-.044-.147-.044-.352 0-.161.015-.293.014-.146.014-.307 0-.352-.117-.748-.234-.747-.41-1.464-.176-.718-.25-1.51-.072-.717-.116-1.45-.044-.732-.308-1.42-.132-.337-.308-.645-.175-.307-.293-.644-.029-.074-.058-.235-.015-.16-.059-.337-.03-.175-.088-.307-.044-.147-.102-.161-.073.058-.103.175-.102.264-.16.367-.06.102-.118.175-.044.059-.117.132-.073.073-.205.264-.118.161-.118.351 0 .337.147.66.146.307.146.644 0 .161-.058.337-.059.161-.059.322 0 .425.117.85.132.41.132.835 0 .337-.102.66-.103.307-.103.644 0 .351.073.703.088.337.088.688 0 .293-.058.572-.059.263-.132.542l-.117.556q-.059.278-.059.571 0 .601.234.85.235.25.557.38.337.133.689.265.351.117.6.454-.132.22-.205.483-.059.25-.19.469-.118.19-.25.264-.117.073-.248.102-.118.015-.264.044-.147.015-.308.103-.16.087-.234.175-.059.074-.117.132-.059.073-.176.103-.103.044-.337.044-.249 0-.498-.059t-.498-.059q-.264 0-.513.074-.249.087-.512.087-.308 0-.616-.117-.307-.102-.556-.293-.235-.205-.396-.468-.146-.279-.146-.616 0-.498.205-.761.205-.264.512-.41.323-.162.689-.264.366-.117.688-.293.074-.25.088-.498.015-.264.015-.528 0-.424-.044-.85-.03-.424-.03-.849 0-.278.06-.542.058-.278.058-.571 0-.147-.044-.278-.205-.542-.264-1.04-.044-.498-.044-1.084 0-.25.059-.484l.146-.469q.088-.234.147-.468.073-.235.073-.484 0-.454-.058-.893-.06-.44-.06-.894 0-.293.06-.571.058-.278.058-.571 0-.293-.117-.557-.117-.278-.117-.571 0-.205.102-.367.117-.16.117-.366 0-.117-.117-.234t-.117-.381q0-.22.015-.44.03-.22.03-.439 0-.44-.147-.688-.147-.264-.367-.396-.205-.146-.454-.205-.249-.059-.468-.117-.205-.073-.352-.161-.146-.088-.146-.293 0-.19.205-.381.22-.205.542-.396.322-.19.703-.366.38-.19.703-.337.322-.146.542-.249.234-.102.264-.146.058.102.16.146.103.03.22.044h.25q.131 0 .22.03.146.043.219.117.073.073.132.146.073.073.19.147.117.073.352.131.556.147.835.425.293.264.293.88 0 .16-.03.321-.029.147-.029.308l.366 1.04q.044.161.088.337.059.161.088.322.161.132.25.396.087.263.116.571.044.293.059.586t.044.498q.044.337.146.66.117.307.117.644 0 .205-.073.41-.058.205-.058.425 0 .38.102.747.103.366.235.732.131.352.234.718.117.366.132.747 0 .176.03.542.043.366.102.82.073.44.16.923.103.469.235.864.147.396.322.645.19.249.41.249.264 0 .337-.146.074-.162.088-.367.015-.205.044-.41.03-.205.205-.293.147-.088.25-.337.117-.263.19-.571.073-.322.102-.615.044-.308.059-.469.044-.762.044-1.567 0-.806.03-1.612.028-.82.13-1.596.103-.791.338-1.524.044-.117.117-.22l.147-.205q.073-.117.117-.22.058-.117.058-.248 0-.088-.044-.147-.043-.073-.102-.117l-.088-.088q-.044-.044-.044-.102 0-.074.044-.103l.088-.088q.205-.234.249-.644.059-.425.073-.894l.03-.937q.029-.47.19-.791.176.073.337.073.205 0 .395-.073.19-.088.366-.176.19-.088.381-.161.205-.088.425-.088.073 0 .161.014h.161q.293 0 .528-.131.234-.132.483-.132.103 0 .147.044t.058.088l.059.087q.03.044.088.044.249 0 .498-.058.263-.059.512-.059.162 0 .264.044.103.03.205.176.117.176.322.234.206.044.41.103.206.044.352.146.161.088.161.337 0 .513-.249.703-.249.19-.586.264l-.644.117q-.308.044-.44.279-.146.249-.175.542-.03.292-.147.57-.044.118-.073.22-.03.103-.03.22 0 .235.06.454.058.22.131.44.088.205.161.425.073.22.103.44.088.79.088 1.581 0 .469-.059.938-.044.468-.103.937l-.117.938q-.044.454-.044.908 0 .351-.22.571l-.014.337q0 .425.059.85.058.424.131.85.074.41.132.834.059.425.059.85 0 .571-.161 1.128-.161.556-.161 1.128 0 .424.175.673.176.25.645.25.205 0 .41-.015.22-.03.425-.03t.425.045q.22.043.38.205 0 .058.015.175.03.118.03.235.014.102 0 .176-.015.073-.074.029zM553.32 85.078q0-.278-.088-.556-.073-.293-.337-.44 0 .132-.015.279v.263q0 .235.059.47.073.219.366.233.015-.058.015-.117v-.132zm11.426 13.58q0-.088-.118-.147-.117-.059-.19-.059-.044 0-.132.015-.073.015-.161.044-.073.03-.132.073-.058.044-.058.103 0 .088.131.117.147.015.22.015.073 0 .25-.03.19-.029.19-.131zm-6.431-2.051h-.117q-.044-.015-.103-.015-.249 0-.44.103-.175.088-.175.38v.162q.059 0 .103.014h.117q.249 0 .44-.088.19-.102.19-.395l-.015-.161zM584.506 94.16q0 .206-.073.396-.058.176-.146.308-.074.131-.147.22-.058.087-.058.102 0 .146.088.307.102.162.102.352 0 .088-.073.117-.059.03-.132.03-.132 0-.22-.03.015.279.044.542.044.264.044.542 0 .425-.088.557-.073.117-.16.146-.089.03-.177.074-.073.029-.073.263 0 .132-.19.337-.176.205-.44.41-.249.205-.527.352-.264.146-.425.146-.044 0-.102-.029 0 .117.014.25.015.13.015.248 0 .19-.117.264-.118.058-.264.117-.22.103-.454.308-.235.19-.484.395-.249.205-.512.352-.25.16-.528.16-.234 0-.44-.116-.19-.118-.453-.118-.235 0-.396.059-.16.073-.307.147-.132.087-.279.146-.146.073-.337.073-.38 0-.761-.205-.381-.19-.733-.307-.205-.074-.44-.118-.233-.029-.453-.073t-.425-.146q-.19-.088-.337-.264-.308-.38-.718-.63-.41-.249-.835-.469-.424-.22-.82-.454-.395-.249-.688-.644-.22-.308-.499-.66-.278-.366-.527-.761-.234-.396-.395-.806-.161-.41-.161-.806 0-.292.058-.57l.117-.557q.074-.293.132-.572.059-.278.059-.571v-.161q0-.059-.044-.132-.044-.073-.103-.132-.044-.073-.102-.117-.044-.059-.059-.059-.03 0-.03.015.015-.132.074-.395.073-.279.161-.557.088-.293.176-.527.088-.25.161-.323.088-.073.161-.146.088-.088.088-.22t-.015-.249q-.014-.132-.014-.264 0-.175.044-.205.044-.044.117-.044.073 0 .146-.014.074-.03.147-.161.132-.264.249-.484.132-.234.278-.425.147-.19.337-.351.19-.161.469-.308.234-.132.454-.322l.469-.38q.234-.191.469-.323.249-.132.527-.132.395 0 .762-.132.38-.146.761-.22.6-.087 1.187-.16.6-.089 1.216-.089.337 0 .82.118.483.102.981.278.513.176.953.395.454.22.717.44v.044q0 .205-.073.425-.073.205-.073.41v.058q0 .03.03.03.248 0 .468-.059.234-.073.483-.073.03.249.22.337.19.088.38.16.177.089.323.323.161.22.293.513.132.278.25.556.131.279.248.455.117.175.205.424.103.235.161.498.074.264.103.528.03.249.03.469 0 .292-.118.498-.102.19-.234.351-.132.147-.25.293-.102.132-.102.308 0 .102.044.19.044.088.117.161.03-.014.117-.029.103-.015.103-.088v-.015q0-.117-.103-.22-.087-.102-.087-.248 0-.03.029-.088.03-.073.073-.073.088 0 .176.117.088.102.161.234.088.117.132.205.044.088.044.059l-.015-.015q.015.073.015.132.014.044.014.103zm-1.464.118q0-.235-.176-.279-.176-.058-.396-.073-.22-.015-.44-.044-.204-.03-.278-.22v-.146q0-.322-.087-.747-.074-.44-.19-.879-.118-.454-.25-.879-.132-.44-.249-.776-.117-.337-.19-.542l-.074-.205q-.117.029-.19.029-.249 0-.44-.103-.175-.102-.41-.22-.22-.117-.556-.22-.322-.102-.864-.102-.601 0-1.187-.073-.586-.088-1.187-.088-.82 0-1.538.381-.717.366-1.26.982-.541.6-.849 1.362-.308.762-.308 1.538 0 .322.015.762.015.424.073.864.059.425.19.806.133.366.367.556v.41q.059.059.146.074h.19q.103 0 .177.029.073.015.117.117.19.542.498.835.308.278.66.483.35.19.702.396.352.19.645.571.117-.014.249-.014.132-.015.249-.015.469 0 .908.073.454.059.908.059.484 0 .864-.25.396-.248.674-.63.176-.248.323-.424.146-.176.292-.322.162-.161.337-.293.19-.147.44-.322.088-.059.205-.147.132-.088.249-.19.132-.117.22-.22.088-.117.088-.22 0-.132-.044-.263-.03-.132-.03-.264 0-.147.044-.352t.132-.395q.103-.19.234-.308.147-.132.352-.132.161 0 .322.074.161.073.293.175.03-.146.03-.22zM603.637 99.947q0 .19-.102.38-.088.19-.308.19-.161 0-.293-.028-.132-.044-.293-.044-.234 0-.249.088 0 .088-.03.19-.028.117-.219.205-.176.088-.762.088-.337 0-.673-.059-.323-.058-.66-.058-.249 0-.542.073-.117-.146-.263-.22-.132-.073-.264-.16-.117-.074-.205-.191-.088-.117-.088-.352 0-.161-.205-.161-.073 0-.147.015-.058.014-.131.014-.074 0-.132-.029-.044-.044-.044-.117 0-.03.015-.044-.308.015-.47.205-.16.19-.35.395-.133.132-.28.206-.146.058-.307.102l-.322.132q-.161.073-.322.22-.132.131-.44.19-.307.073-.659.103-.337.044-.674.044-.322.014-.512.014-.44 0-.718-.073-.264-.073-.484-.19-.205-.103-.439-.235-.234-.117-.6-.234-.396-.117-.953-.44-.556-.322-1.07-.747-.497-.424-.849-.908-.351-.498-.351-.952 0-.205-.103-.41-.088-.22-.234-.41-.132-.205-.279-.396-.146-.205-.234-.38-.278-.557-.366-1.172-.073-.616-.073-1.231 0-.571.088-1.084.087-.527.22-1.025.131-.513.263-1.011.146-.498.264-1.04.073-.381.205-.571.132-.205.293-.352.176-.146.366-.278.205-.132.41-.381.088-.103.103-.176l.044-.132q.029-.058.087-.073.074-.03.264-.03.117 0 .176-.073.073-.073.132-.175.058-.103.102-.205.059-.118.147-.176.088-.059.22-.088.131-.03.278-.044l.278-.03q.147-.014.264-.058.307-.132.498-.234.205-.103.38-.176.191-.088.425-.132.235-.044.616-.044.498 0 .981.132.498.117.982.264.483.146.966.278.484.117.997.117.41 0 .644-.176.25-.175.366-.454.132-.278.161-.615.044-.337.044-.66 0-.57-.073-1.127-.073-.571-.102-1.128l-.132.059q-.147 0-.264-.074-.117-.088-.22-.175-.102-.103-.22-.176-.117-.088-.263-.088-.161 0-.205.088-.044.073-.147.146l-.337.03h-.966q-.205 0-.47-.118-.248-.131-.483-.322-.234-.205-.395-.425-.147-.234-.147-.454 0-.19.118-.395.132-.22.307-.396.19-.176.41-.278.22-.117.425-.117.19 0 .352.102.161.088.351.088.323 0 .616-.102.307-.103.644-.103t.63.117q.308.103.645.103.249 0 .498-.015.263-.015.512-.015.264 0 .528.044.278.044.512.176v.088q0 .205.044.41.059.19.117.396.074.19.118.38.058.191.058.396 0 .264-.132.513-.117.234-.117.513 0 .512.117 1.025.118.498.118 1.01 0 1.29-.015 2.579-.015 1.274-.015 2.578 0 1.318-.088 2.622-.087 1.289-.087 2.607 0 .484.043 1.099.044.6.235 1.143.19.527.556.893.381.366 1.04.366.132 0 .25-.014.131-.03.263-.03.19 0 .337.103.147.103.25.264.102.16.146.351.058.19.058.352zm-5.317-7.266q0-.542-.103-1.157-.088-.615-.337-1.143-.234-.542-.659-.908-.41-.366-1.04-.396-.132-.014-.322-.117-.176-.102-.366-.22-.19-.117-.381-.205-.176-.102-.322-.102-.132 0-.25.059-.117.043-.234.117l-.234.117q-.117.044-.264.044-.249 0-.483-.03-.22-.029-.469-.029-.732 0-1.333.44-.586.44-1.01 1.098-.426.645-.66 1.407-.234.747-.234 1.377 0 .263.029.527.044.264.044.527 0 .176-.103.293-.088.103-.22.22-.117.102-.22.234-.087.117-.087.293h.117q.381 0 .586.147.22.132.322.366.118.22.176.513.073.293.161.6.088.293.25.572.175.278.497.498l.513.351q.293.19.6.352.323.16.63.278.323.103.616.103.469 0 .923-.132.454-.147.922-.147.176 0 .381.044.337-.527.777-.996.454-.483 1.098-.674l-.014-.322q0-.483.102-.938.117-.468.25-.952.131-.483.234-.996.117-.512.117-1.113zM620.805 89.883q0 .293-.117.498-.117.205-.264.396-.131.175-.278.366-.132.19-.176.454-.132-.059-.278-.073-.132-.015-.278-.015-.352 0-.704.059-.336.044-.673.044-.396 0-.66-.235-.249-.249-.41-.6-.146-.352-.205-.747-.058-.41-.058-.733 0-.41.131-.835-.117-.044-.205-.044-.19 0-.278.117-.073.118-.22.118-.131 0-.234-.088-.103-.103-.249-.103-.22 0-.557.147-.322.132-.63.351-.307.22-.542.484-.22.249-.22.483-.307.03-.585.176-.264.132-.513.293-.19.117-.322.366-.132.25-.25.542-.102.278-.219.571-.102.293-.249.484-.249.322-.44.659-.175.322-.175.732 0 .513.16 1.04.162.528.162 1.07 0 .351-.059.703-.043.351-.043.688 0 .41.146.66.147.248.396.395.249.132.57.176.323.044.66.044.366 0 .703-.015.352-.03.645-.03.102.118.117.22.015.103-.015.22-.014.103-.058.22-.03.102-.03.249 0 .059.03.146.22 0 .38-.102.162-.103.235-.322.102.029.176.088.088.058.088.175 0 .088-.044.176-.044.073-.103.147-.058.073-.102.16-.044.074-.044.176 0 .06.014.132.015.059.044.103-.073.117-.205.161t-.263.044q-.235 0-.396-.073-.146-.073-.278-.161-.117-.088-.22-.162-.103-.073-.249-.073-.059 0-.176.03-.117.029-.234.073t-.205.117q-.088.059-.088.117 0 .117.073.205.088.088.088.205 0 .103-.073.161-.073.059-.176.074-.103.029-.22.029-.102.015-.176.015-.57 0-1.142-.132-.557-.117-1.128-.117-.264 0-.527.117-.264.117-.557.117-.161 0-.25-.073-.072-.059-.13-.147-.06-.088-.133-.16-.073-.06-.22-.06-.278 0-.556.06-.264.058-.542.116-.264.074-.542.118-.264.058-.542.058-.147 0-.352-.044-.205-.029-.395-.117-.19-.088-.322-.22-.132-.131-.132-.322 0-.117.132-.307.146-.19.322-.367.176-.19.351-.322.176-.132.264-.132.234 0 .454.015.235.014.484.014.395 0 .79-.117.41-.132.733-.366.337-.234.542-.586.205-.351.205-.79 0-.191-.03-.367-.029-.19-.029-.38 0-.382.088-.763.088-.38.088-.761 0-.513-.117-1.04-.102-.542-.102-1.084 0-.484.014-.953.03-.483.03-.966 0-.22-.015-.645-.015-.425-.103-.85-.073-.424-.249-.747-.16-.322-.454-.322-.322 0-.644.073-.323.074-.66.074-.249 0-.585-.03-.337-.044-.645-.146-.308-.117-.527-.322-.22-.205-.22-.542 0-.367.102-.586.103-.235.264-.352.176-.117.396-.161.234-.044.498-.044.234 0 .483.015.25.014.484.014.468 0 .922-.044.47-.058.938-.058.322 0 .644.03.323.028.63.131.279.088.41.337.132.234.235.483.117.25.263.454.147.19.47.19.146 0 .263-.072.132-.088.249-.19.117-.103.234-.191.117-.088.279-.117.322-.044.586-.206.278-.16.542-.322.263-.161.527-.293.278-.132.6-.132.19 0 .47-.044.292-.044.57-.117.293-.088.543-.205.263-.117.41-.264.395.03.923.19.542.162 1.025.44.498.264.864.63t.425.82q.044.279.161.528l.234.498q.132.234.235.498.102.249.102.527zM638.061 98.013q0 .249-.088.469-.088.22-.161.454-.059.205-.088.337-.014.132-.058.234-.044.088-.147.176-.088.073-.293.176-.44.234-.937.483-.484.235-.982.235-.425 0-.806-.19-.366-.206-.688-.44-.308-.25-.571-.454-.25-.206-.425-.206-.19 0-.337.103-.132.103-.278.22-.132.117-.308.22-.161.102-.41.102-.205 0-.425.073t-.44.176q-.22.088-.453.19-.22.088-.41.147-.66.176-1.334.205-.659.03-1.333.03-.175 0-.542-.015-.366 0-.747-.074-.366-.058-.659-.205-.278-.146-.278-.41 0-.058.014-.102-.102.117-.234.19t-.293.073q-.234 0-.571-.322-.337-.322-.645-.747-.307-.425-.527-.835-.22-.425-.22-.63 0-.161.088-.293.103-.132.103-.293 0-.205-.059-.38-.044-.191-.044-.396 0-.264.103-.557.102-.308.249-.6.146-.308.307-.586.161-.293.293-.542.147-.293.41-.47.264-.175.557-.307l.586-.263q.293-.132.513-.352.22.249.571.249.366 0 .718-.103.351-.117.718-.117.292 0 .556.059.278.058.571.058.323 0 .47-.073.16-.088.395-.293.234-.205.586-.307.366-.118.747-.176.395-.073.776-.147.396-.073.703-.205.308-.146.498-.38.19-.25.19-.674 0-.47-.278-.982-.263-.527-.688-.952-.425-.44-.938-.718-.512-.278-.981-.278-.059 0-.117.015-.059.014-.103.014-.351.059-.79.088-.44.015-.821.132-.381.102-.645.366-.263.25-.263.747 0 .293.044.586.058.278.058.571 0 .44-.22.733-.205.293-.542.469-.322.175-.717.249-.396.058-.762.058-.44 0-.762-.117t-.527-.542q-.161-.308-.352-.66-.175-.365-.175-.732 0-.395.131-.732.147-.352.323-.674.175-.337.337-.659.175-.337.249-.718.102-.058.278-.117.19-.059.395-.117.22-.059.41-.103.206-.058.338-.102.351-.103.673-.235.337-.146.674-.263.352-.117.689-.205.351-.088.717-.103l.454-.015q.63 0 1.29.118.659.102 1.289.337.63.234 1.186.586.571.336 1.01.805.323.352.528.835.22.469.337.996.132.528.176 1.07.059.527.059.981 0 .615-.044 1.216-.03.586-.03 1.201 0 .586.059 1.172.073.571.161 1.157.088.571.147 1.157.073.572.073 1.143.029.351.088.44.073.073.146.073.322 0 .513-.19.205-.206.366-.44.161-.25.352-.454.19-.205.483-.205.132 0 .264.014.146.015.263.073.118.044.19.147.074.088.074.249zm-4.82-3.647q0-.088-.014-.308 0-.22-.03-.44-.028-.234-.102-.41-.058-.175-.19-.175-.03 0-.073.029-.044.015-.074.015-.556.307-.952.512-.395.19-.79.322-.382.118-.821.162-.44.044-1.099.044-.088 0-.483.073-.396.073-.864.176-.469.087-.88.19-.41.088-.512.117-.19.073-.278.147-.073.073-.117.16-.044.089-.088.191-.044.088-.161.19-.147.118-.323.191-.16.073-.307.22-.22.22-.41.586-.19.351-.19.674 0 .395.204.703.205.307.542.527.337.22.762.38.425.162.85.25.439.088.834.132.41.044.704.044.351 0 .835-.044.483-.059.966-.161.484-.118.909-.308.424-.19.673-.483.103-.118.147-.205.044-.103.088-.19l.117-.206q.073-.102.22-.22.337-.278.512-.615.19-.337.279-.703.088-.366.102-.762.015-.395.015-.805zm-5.009-10.328q0-.16.19-.395.205-.234.47-.469.263-.234.526-.425.279-.19.425-.263.557-.293.82-.44.279-.146.484-.293.205-.16.44-.38l.747-.66q.19-.16.292-.41.118-.264.279-.38.19-.133.498-.191.322-.073.527-.073.22 0 .366.102.162.088.264.234.103.147.147.337.058.19.058.381 0 .176-.044.381-.029.205-.117.41-.073.19-.19.366-.103.176-.25.279-.175.102-.38.146-.205.044-.425.073-.22.015-.425.06-.205.028-.38.116-.426.22-.63.337-.191.103-.352.205-.147.088-.337.205-.176.103-.571.323-.103.044-.176.175-.073.132-.19.22-.118.088-.279.132-.146.044-.264.132-.205.19-.366.38-.146.191-.44.191-.131 0-.263-.073-.117-.088-.22-.205-.102-.117-.175-.25-.059-.146-.059-.278z" style="-inkscape-font-specification:'Special Elite'"/></g><g style="line-height:125%;-inkscape-font-specification:'Cronos Pro'" font-weight="400" font-size="30" font-family="Special Elite" letter-spacing="0" word-spacing="0" fill="#000" stroke-linecap="butt"><path d="M562.113 177.019q0 .249-.103.468-.088.22-.088.47 0 .277.088.541.088.25.088.527 0 .235-.088.425-.088.176-.205.337-.102.147-.19.293-.088.132-.088.278 0 .088.014.147.03.044.06.103.028.043.043.146.03.088.03.264v.468q0 .176-.015.367 0 .19-.015.351-.015.161-.03.19-.117.176-.131.352-.015.176-.059.337-.03.147-.146.25-.103.087-.396.087-.337 0-.674-.044-.322-.058-.659-.058-.556 0-1.113.146-.542.132-1.113.132-.791 0-1.582-.073-.791-.088-1.582-.088-.176 0-.337-.059-.161-.073-.337-.073-.22 0-.498.161-.279.161-.674.161-.25 0-.483-.073l-.47-.147q-.234-.087-.468-.16-.234-.074-.498-.074-.571 0-1.128.117-.557.103-1.128.103-.38-.117-.513-.381-.131-.278-.131-.615 0-.337.043-.704.06-.366.044-.673-.014-.279-.058-.381-.044-.103-.088-.147t-.088-.073q-.044-.03-.044-.161-.176-.293-.205-.63.161 0 .22-.073.058-.088.058-.234 0-.235.161-.557.162-.337.425-.689.279-.366.615-.717.352-.367.704-.645.351-.278.673-.454.337-.176.601-.176h.088q.03-.117.03-.19 0-.147-.103-.19-.088-.06-.205-.074l-.205-.058q-.088-.03-.088-.147 0-.176.131-.38.132-.22.323-.426.19-.205.395-.366.205-.176.352-.263v-.118q0-.322.16-.673.162-.352.396-.674.235-.337.513-.63.278-.308.513-.528.146-.146.249-.366.102-.234.19-.469.088-.234.19-.424.118-.205.294-.293l.322-.161q.088-.059.117-.103.044-.059.059-.161.03-.117.117-.352.088-.22.161-.22.088-.014.132-.014.059-.015.088-.103.044-.087.044-.454 0-.22.029-.351.03-.147.088-.25.059-.116.146-.219.103-.117.235-.278.132-.147.278-.352.147-.205.264-.425.117-.22.19-.454.088-.234.088-.44 0-.395-.249-.527-.234-.131-.557-.16l-.644-.089q-.322-.058-.483-.307-.176 0-.337.102-.147.103-.293.22l-.293.205q-.132.088-.293.088-.161 0-.367-.117-.19-.117-.483-.117-.264 0-.527.029-.25.015-.513.015-.249 0-.483-.059-.235-.058-.484-.058-.293 0-.469.175-.175.176-.278.425-.088.25-.117.542-.03.293-.03.513 0 .337.03.688.03.352.03.703 0 .176-.015.513-.015.322-.088.66-.059.322-.205.57-.147.25-.396.25-.102 0-.19-.03-.088-.044-.161-.088-.381-.22-.47-.498-.087-.278-.087-.615v-.205q.015-.117.015-.234 0-.059-.03-.337-.029-.293-.058-.616-.03-.336-.073-.6-.03-.264-.03-.293-.029.03-.073.059-.03.029-.073.029-.044 0-.073-.073-.03-.074-.044-.176-.015-.103-.03-.19v-.132q0-.337.044-.645.044-.322.044-.66 0-.248.088-.41.103-.16.235-.292l.263-.264q.147-.146.25-.337.087-.044.175-.044.176 0 .337.073.161.06.337.06.073 0 .161-.074.103-.088.249-.19.146-.103.337-.176.205-.088.483-.088.557 0 1.084.16.542.162 1.099.162.44 0 .762-.205.366-.22.703-.293.351-.073.776-.073.381 0 .762.044.395.029.79.029.587 0 1.158-.073.571-.088 1.157-.088.22 0 .454.014.235.015.455.074.146.044.19.102.044.044.059.117.029.06.043.132.03.059.118.132.131.103.307.132.176.03.337.146.176.118.293.41.117.294.117.923 0 .19-.175.455-.162.263-.25.44-.117.248-.19.512-.058.249-.19.498-.074.132-.19.278-.103.147-.22.293-.103.147-.19.308-.074.16-.074.322v.044q.015.014.015.044-.323 0-.528.22-.19.205-.337.498-.131.278-.249.556-.102.279-.234.396-.22.19-.44.366t-.512.249q-.088.278-.25.542-.146.249-.307.513-.161.249-.307.512-.132.25-.176.528-.03.175-.103.22-.073.043-.146.073-.059.014-.117.102-.044.073-.044.322 0 .118-.074.162-.073.029-.175.043l-.22.03q-.103.014-.161.088.015.073.015.131.014.06.014.132 0 .22-.102.41-.088.19-.25.352-.146.146-.35.264-.191.117-.382.175l.015.176q0 .22-.132.396-.132.16-.293.337-.146.16-.278.351-.132.19-.132.469 0 .117-.073.22-.073.088-.176.175-.103.088-.22.162-.102.073-.176.131-.205.162-.278.293-.073.132-.117.25-.044.117-.088.263-.03.132-.132.322-.088.147-.234.323-.147.175-.278.366-.132.19-.235.38-.102.191-.102.352 0 .161.088.279.102.117.234.205.132.073.293.117.161.044.293.044.263 0 .527-.059.264-.073.542-.073.835 0 1.64.117.821.103 1.656.103.308 0 .791-.059.483-.073.938-.22.468-.16.805-.425.337-.278.337-.673 0-.074-.014-.132v-.147q0-.249.029-.556.044-.323.073-.586.044-.264.073-.425.044-.161.044-.103 0-.102-.088-.16-.073-.074-.073-.191 0-.161.073-.352.088-.205.088-.351 0-.103-.014-.205v-.264q0-.161.058-.234.059-.088.132-.132.088-.044.147-.088.058-.044.058-.132 0-.117-.088-.22-.073-.102-.073-.234 0-.176.176-.22.176-.044.307-.044.308 0 .425.103.132.088.176.22.059.131.088.293.044.16.176.292.088.103.205.147l.263.059q.132.014.264.043.132.03.22.132-.059.161-.059.367 0 .307.117.6.132.293.132.6zm-13.404-10.078q0-.132-.117-.19-.117-.06-.234-.074-.03.073-.03.146v.132q0 .073.015.19.03.103.118.103.102 0 .175-.102.074-.103.074-.206zm11.558 13.725q0-.088-.073-.146-.059-.074-.147-.074-.146 0-.19.162-.03.16-.03.278.118 0 .279-.03.161-.043.161-.19zm-1.567-23.481q0 .058-.088.234-.073.176-.176.366-.102.176-.205.337-.103.161-.161.205-.176.132-.41.176-.22.044-.396.176-.117.073-.19.176-.073.102-.147.22-.058.116-.132.219-.058.103-.16.176-.294.16-.616.527-.322.366-.674.747-.337.381-.688.674-.337.293-.66.293-.351 0-.615-.264-.249-.263-.468-.6l-.44-.703q-.205-.352-.469-.528-.131-.205-.22-.395-.087-.205-.248-.381-.19-.25-.454-.396-.264-.16-.425-.395-.059-.059-.132-.205-.059-.147-.132-.308-.059-.16-.102-.307-.044-.162-.044-.25 0-.19.088-.351.087-.161.234-.278.146-.117.322-.176.19-.073.366-.073.19 0 .308.102.117.088.205.235l.147.322q.073.176.19.322.117.132.234.278.132.147.22.293.103.132.117.308.073.117.161.161.103.044.22.117.103.059.205.22.117.147.235.337.131.176.293.352.16.175.38.293.176 0 .308-.088t.234-.205q.118-.132.205-.264.103-.147.206-.264.117-.044.366-.22.263-.175.542-.395.278-.22.498-.44.234-.22.307-.351.118-.19.19-.322.089-.147.191-.235.103-.088.25-.117.16-.044.424-.044.293 0 .542.176.264.176.264.513zM579.486 182.834q0 .513-.352.806-.337.307-.82.454-.483.161-1.01.205-.513.044-.88.044-.483 0-.805-.088-.308-.088-.542-.19-.235-.088-.41-.176-.176-.088-.367-.088-.249 0-.498.088-.234.088-.483.088-.176 0-.293-.059-.103-.059-.176-.147-.073-.073-.146-.131-.059-.059-.147-.059-.102 0-.161.073-.059.088-.132.19-.073.103-.22.176-.131.088-.395.088-.308 0-.6-.073-.294-.058-.601-.058-.308 0-.615.102-.293.117-.557.117-.117 0-.176-.088-.058-.073-.132-.073-.249 0-.527.117-.264.118-.542.118-.147 0-.293-.044-.132-.03-.278-.03-.25 0-.498.118-.25.117-.616.117-.131 0-.586-.044-.439-.03-.908-.103-.469-.073-.85-.19-.366-.103-.366-.235 0-.38.132-.761.147-.381.147-.733v-.029q-.19 0-.22-.205.03-.059.088-.088.073-.044.146-.059.074-.029.132-.073.059-.044.059-.132v-.058q.586.058 1.142.073.572.015 1.187.015.571 0 1.26-.03.703-.043 1.289-.22.6-.175.996-.527.41-.366.41-1.01v-.337q-.073-1.612-.161-3.164-.073-1.568-.073-3.18 0-.424-.074-.82-.058-.41-.058-.82 0-.512.176-1.025.19-.513.586-.864-.015-.088-.074-.118-.058-.043-.146-.058l-.176-.03q-.073-.014-.132-.043-.088-.044-.117-.205-.03-.162-.058-.352-.015-.19-.044-.366-.015-.19-.088-.293.044-.425.146-.835.103-.41.103-.835 0-.308-.088-.483-.073-.176-.176-.293-.102-.118-.19-.206-.074-.102-.074-.249 0-.117.074-.22l-.118-.014q-.146 0-.22.073-.072.073-.146.161-.058.088-.132.162-.073.073-.205.073-.102 0-.234-.044-.25.073-.469.073-.513 0-1.025-.132-.498-.146-1.01-.146-.28 0-.543.029-.264.015-.527.015-.381 0-.762-.088-.38-.088-.674-.381v-.176q0-.776.513-1.172.527-.395 1.274-.395.513 0 1.011.132.498.131 1.01.131.28 0 .587-.058.307-.059.63-.132.322-.073.644-.132.337-.058.66-.058.497 0 .937.22.44.204.879.395l-.015.117q0 .132.059.249.073.103.16.22.089.102.147.22.073.102.073.234t-.043.264q-.03.117-.03.249 0 .322.117.615.132.293.132.63 0 .351-.088.688-.073.337-.073.689 0 .424.103.85.102.424.102.849 0 .351-.117.688-.103.337-.103.674 0 .25.06.498.072.235.16.469.088.234.147.483.073.235.073.498v.293q0 .235-.044.454-.03.206-.19.396.073.278.146.6.088.323.088.616 0 .146-.03.322-.014.161-.073.337-.043.161-.131.308-.088.131-.205.22.19.556.249 1.127.058.572.087 1.143.015.176.06.454l.087.557q.044.263.073.498.044.22.044.307 0 .25-.088.484-.088.234-.088.483 0 .19.088.41.088.205.322.205.176 0 .293-.073.132-.088.279-.176.146-.102.337-.176.205-.087.542-.087.38 0 .717.102.337.103.718.103.279 0 .557-.044.293-.059.556-.117.279-.074.557-.132.278-.059.571-.059.586 0 .982.337.41.337.41.996zm-8.408-18.237q-.059-.059-.147-.117-.073-.059-.176-.059-.073 0-.131.073-.044.059-.044.132l.073.176q.058.03.088.03.117 0 .19-.074.088-.088.147-.161zm.879 4.072q0-.117-.074-.234-.058-.132-.205-.132-.044 0-.102.015-.044.014-.073.029v.63q.117.058.175.058.147 0 .205-.117.074-.132.074-.249zM597.474 182.673q0 .264-.176.557-.16.293-.424.527-.25.249-.542.41-.293.161-.557.161-.454 0-.894-.073t-.908-.073q-.22 0-.513-.03-.278-.029-.395-.146-.337-.059-.498-.264-.161-.19-.293-.424-.117-.235-.264-.455-.132-.22-.41-.307-.835.366-1.48.703-.63.337-1.26.586-.614.264-1.332.41-.703.161-1.685.161-.425 0-.615-.044-.176-.044-.278-.146-.088-.088-.176-.25-.073-.16-.293-.395-.117-.117-.234-.132-.103-.029-.205-.029h-.074q-.131 0-.249-.044-.102-.058-.16-.293-.045-.176-.177-.395-.131-.235-.307-.469-.161-.234-.337-.425-.176-.19-.322-.293l-.015-1.45q-.015-1.465.088-2.9.102-1.436.102-2.9 0-.22-.014-.601-.015-.396-.073-.791-.044-.396-.176-.703-.117-.323-.337-.381-.337-.074-.689-.059-.337 0-.673-.015-.337-.014-.66-.102-.307-.088-.586-.381-.16-.161-.307-.396-.132-.234-.132-.483 0-.366.308-.615.322-.264.761-.425.44-.161.894-.234.454-.074.732-.074.806 0 1.524.25.732.234 1.333.776.029.03.029.058 0 .015-.015.03.03.425.118.85.087.41.087.834 0 .235-.073.44-.058.205-.058.454 0 .249.058.498.059.249.059.498 0 .161-.03.322-.029.161-.029.322 0 .455.103.894.102.425.102.879 0 .395-.088.776-.087.367-.205.747-.102.381-.19.762-.088.366-.088.762 0 .542.22 1.01.22.47.586.82.366.338.835.543.483.19 1.01.19.454 0 .733-.088.293-.102.469-.22.175-.117.278-.204.117-.103.234-.103t.205.03q.103.014.205.014.205 0 .337-.088.132-.088.235-.205l.22-.22q.117-.117.292-.16.337-.074.586-.191.25-.132.25-.528 0-.073.014-.132.03-.058.146-.058.074 0 .103.044.044.03.117.058.073-.058.103-.16.029-.103.058-.177.073-.263.264-.468.205-.205.234-.469.03-.293.147-.542.117-.249.117-.527 0-.25-.132-.44t-.132-.454q0-.293.103-.586.117-.293.117-.586-.088-.117-.176-.263-.073-.147-.073-.293 0-.25.088-.323.088-.088.088-.175 0-.132-.073-.264-.059-.147-.147-.278-.088-.132-.161-.264-.059-.132-.059-.278 0-.147.044-.279.059-.146.059-.307 0-.235-.117-.41-.103-.191-.279-.308-.16-.132-.38-.19-.205-.074-.41-.103-.367-.044-.63-.044-.264 0-.47-.059-.19-.073-.365-.249-.162-.175-.337-.57-.103-.235-.103-.396 0-.352.308-.557.322-.22.747-.322.425-.118.85-.147.439-.044.688-.044.234 0 .454.044.234.03.469.03.249 0 .483-.088.25-.103.498-.103.352 0 .571.205.22.19.337.513.132.307.176.718.044.395.044.805 0 .542-.044 1.026-.03.483-.03.776 0 .63.118 1.187.132.542.132 1.01 0 .147-.073.293-.059.147-.132.293l-.147.293q-.058.147-.058.293 0 .117.044.205l.102.85q-.073.058-.088.146-.014.088-.014.161 0 .235.044.47.058.219.058.468 0 .278-.058.557-.06.263-.06.542 0 .673.455 1.04.469.351 1.099.351.351 0 .703-.117.102.22.278.395.19.162.366.323.176.16.293.366.132.205.132.498zM612.562 178.396q0 .468-.102.893-.103.41-.235.82-.132.396-.278.82-.132.41-.205.85-.132.733-.528 1.216-.395.484-.952.762-.556.293-1.245.425-.674.146-1.391.22-.718.073-1.421.102-.689.03-1.275.103-.22-.162-.366-.352-.146-.19-.278-.366-.132-.161-.293-.279-.161-.102-.425-.102-.088 0-.147-.234-.043-.25-.087-.542-.044-.308-.103-.542-.044-.25-.132-.25-.337 0-.542-.146-.19-.146-.307-.366-.103-.235-.147-.513-.03-.278-.03-.542 0-.205-.087-.38-.088-.177-.19-.338-.103-.175-.191-.351-.088-.176-.088-.366 0-.22.015-.542.03-.337.044-.689.029-.351.044-.688.029-.337.029-.557 0-.264.058-.44.074-.175.162-.307.088-.132.146-.234.073-.103.073-.235 0-.176-.088-.293-.073-.117-.073-.234 0-.161.103-.308.102-.16.146-.322.161-.645.161-1.274 0-.132-.014-.25 0-.131-.015-.249-.337-.278-.747-.351-.41-.088-.82-.117-.41-.044-.791-.103-.381-.058-.645-.307-.22-.205-.395-.455-.176-.263-.47-.351-.204-.073-.35-.19-.133-.132-.133-.367 0-.351.206-.527.22-.19.512-.293.293-.117.6-.19.323-.088.543-.25.22-.16.527-.16.132 0 .25.014h.263q.366 0 .6-.117.25-.132.381-.337.147-.22.19-.498.06-.278.06-.6 0-.47-.06-.909-.058-.44-.058-.908 0-.542.147-.996.146-.454.556-.835.088-.074.19-.19.103-.118.22-.22.118-.118.235-.19.132-.074.263-.074.088 0 .147.044.073.03.146.088.323.322.41.483.103.147.103.352 0 .117-.014.263v.352q0 .469.117.923.117.454.117.776 0 .279-.117.542-.103.25-.103.528 0 .205.088.38.103.162.22.323.132.16.234.337.103.16.103.38.146.103.659.19.513.074 1.142.133.63.044 1.275.073.644.03 1.07.03.38 0 .585.058.205.058.337.132.147.058.264.131.117.074.307.088.235.03.396.132.176.088.176.366 0 .352-.19.557-.177.205-.455.308-.264.102-.571.132-.308.014-.571.014-.425 0-.85-.03-.425-.028-.85-.028-.703 0-1.274.131-.571.132-.996.44-.41.308-.645.82-.22.498-.22 1.26 0 .747.088 1.465.103.718.103 1.465 0 .703.015 1.128.029.424.175.717.19.425.308.967.117.542.293 1.026.19.483.513.82.337.322.981.322.22 0 .586-.058.366-.06.732-.176.367-.132.63-.323.264-.205.264-.498 0-.249-.146-.498-.147-.263-.147-.556 0-.205.088-.352.102-.16.249-.278.161-.132.322-.22.176-.102.337-.176.264-.337.63-.556.38-.235.806-.235.293 0 .556.103.279.102.513.264.044.263.044.542zM630.038 181.032q0 .25-.088.469-.088.22-.161.454-.059.205-.088.337-.015.132-.059.234-.044.088-.146.176-.088.074-.293.176-.44.234-.938.483-.483.235-.981.235-.425 0-.806-.19-.366-.206-.688-.44-.308-.25-.572-.454-.249-.205-.425-.205-.19 0-.336.102l-.279.22q-.132.117-.307.22-.162.102-.41.102-.206 0-.425.073-.22.074-.44.176-.22.088-.454.19-.22.089-.41.147-.66.176-1.333.205-.66.03-1.333.03-.176 0-.542-.015-.366 0-.747-.073-.366-.059-.66-.205-.278-.147-.278-.41 0-.06.015-.103-.103.117-.234.19-.132.074-.293.074-.235 0-.572-.323-.337-.322-.644-.747-.308-.425-.528-.835-.22-.425-.22-.63 0-.16.089-.293.102-.131.102-.293 0-.205-.058-.38-.044-.19-.044-.396 0-.264.102-.557.103-.307.25-.6.146-.308.307-.586.161-.293.293-.542.146-.293.41-.469t.557-.307l.586-.264q.293-.132.512-.352.22.25.572.25.366 0 .717-.103.352-.117.718-.117.293 0 .557.058.278.059.571.059.322 0 .469-.073.16-.088.395-.293.235-.205.586-.308.366-.117.747-.176.396-.073.777-.146.395-.074.703-.205.307-.147.498-.381.19-.25.19-.674 0-.469-.278-.981-.264-.528-.689-.953-.424-.439-.937-.717-.513-.279-.981-.279-.06 0-.118.015-.058.015-.102.015-.352.058-.791.088-.44.014-.82.131-.381.103-.645.367-.264.249-.264.747 0 .293.044.586.059.278.059.57 0 .44-.22.733-.205.293-.542.469-.322.176-.718.25-.395.058-.761.058-.44 0-.762-.118-.322-.117-.528-.542-.16-.307-.351-.659-.176-.366-.176-.732 0-.396.132-.733.146-.351.322-.673.176-.337.337-.66.176-.336.25-.717.102-.059.277-.118.19-.058.396-.117.22-.058.41-.102.205-.059.337-.103.352-.102.674-.234.337-.147.674-.264.351-.117.688-.205.352-.088.718-.102l.454-.015q.63 0 1.29.117.658.103 1.288.337.63.234 1.187.586.571.337 1.01.806.323.351.528.835.22.468.337.996.132.527.176 1.069.058.527.058.981 0 .616-.044 1.216-.03.586-.03 1.201 0 .586.06 1.172.073.572.16 1.158.089.57.147 1.157.073.571.073 1.142.03.352.088.44.073.073.147.073.322 0 .512-.19.205-.205.367-.44.16-.249.351-.454.19-.205.484-.205.131 0 .263.015.147.014.264.073.117.044.19.146.074.088.074.25zm-4.82-3.647q0-.088-.014-.308 0-.22-.03-.44-.029-.234-.102-.41-.059-.175-.19-.175-.03 0-.074.03-.044.014-.073.014-.557.307-.952.512-.396.19-.791.323-.381.117-.82.16-.44.045-1.1.045-.087 0-.483.073-.395.073-.864.176-.469.088-.879.19-.41.088-.513.117-.19.074-.278.147-.073.073-.117.16-.044.089-.088.191-.044.088-.161.19-.147.118-.322.191-.161.073-.308.22-.22.22-.41.586-.19.351-.19.674 0 .395.205.703.205.307.542.527.336.22.761.381t.85.25q.44.087.835.13.41.045.703.045.351 0 .835-.044.483-.059.967-.161.483-.117.908-.308.425-.19.674-.483.102-.117.146-.205.044-.103.088-.19l.117-.206q.073-.102.22-.22.337-.278.513-.615.19-.337.278-.703.088-.366.103-.762.014-.395.014-.805zm-5.01-10.327q0-.161.191-.396.205-.234.469-.469.263-.234.527-.424.278-.19.425-.264.556-.293.82-.44.278-.146.484-.292.205-.162.439-.381l.747-.66q.19-.16.293-.41.117-.263.278-.38.19-.132.498-.19.323-.074.528-.074.22 0 .366.102.161.088.264.235.102.146.146.337.059.19.059.38 0 .176-.044.381-.03.205-.117.41-.074.191-.19.367-.103.176-.25.278-.176.103-.38.147-.206.043-.425.073-.22.014-.425.058-.205.03-.381.118-.425.22-.63.336-.19.103-.352.206-.146.087-.336.205-.176.102-.572.322-.102.044-.176.176-.073.132-.19.22-.117.087-.278.131-.147.044-.264.132-.205.19-.366.38-.147.191-.44.191-.131 0-.263-.073-.118-.088-.22-.205-.103-.117-.176-.249-.058-.146-.058-.278z" style="-inkscape-font-specification:'Special Elite'"/></g><g style="line-height:125%;-inkscape-font-specification:'Cronos Pro'" font-weight="400" font-size="30" font-family="Special Elite" letter-spacing="0" word-spacing="0" fill="#000" stroke-linecap="butt"><path d="M52.6 174.219q0 .293-.03.6-.014.293-.087.586-.059.25-.162.469-.087.205-.117.454-.029.146-.058.322-.03.161-.22.161l-.117-.014q-.235 0-.352.19-.117.176-.19.44-.059.249-.103.512-.029.264-.073.425-.044.161-.059.293 0 .117-.014.22 0 .088-.059.19-.058.103-.205.22-.234.176-.454.337-.22.161-.395.38-.132.162-.176.279-.044.117-.088.22-.044.102-.147.19-.088.073-.307.147-.337.117-.645.263-.307.147-.63.264-.38.147-.717.337-.337.176-.689.337-.351.161-.732.264-.367.117-.791.117-.381 0-.762-.117-.366-.118-.689-.323-.307-.029-.468-.22-.161-.19-.264-.454-.088-.205-.176-.293-.073-.087-.176-.117-.087-.044-.205-.073-.117-.03-.278-.132-.66-.425-1.201-1.054-.542-.645-1.01-1.29-.103-.146-.162-.336-.044-.205-.088-.396-.044-.205-.102-.38-.044-.191-.147-.294-.19-.19-.337-.205-.146-.014-.249-.058-.088-.059-.146-.25-.044-.205-.044-.747 0-.336-.059-.703-.058-.366-.146-.747-.074-.395-.132-.79-.059-.41-.059-.806 0-.425.044-.85.059-.425.132-.85.073-.424.146-.835.074-.424.103-.85.03-.395.03-.805l.029-.82q.029-.41.088-.806.058-.395.205-.776.146-.41.366-.777.234-.366.454-.732t.41-.747q.19-.38.293-.82.059-.279.366-.513.308-.25.762-.454.454-.22.981-.381.542-.176 1.07-.293.527-.132.967-.19.454-.074.732-.074.732 0 1.377.19.644.176 1.304.47.293.131.63.22.351.072.659.072.307 0 .454-.102.16-.117.249-.264.088-.161.146-.293.059-.146.176-.22l-.044.015q.03-.03.103-.03.073-.014.16-.014.118.015.28.059.175.044.35.102.176.059.323.132.161.059.234.117.044.03.147.19.102.162.205.352.117.19.19.352.088.161.088.205 0 .366.103.689.117.322.117.688 0 .38-.117.747-.103.366-.103.747 0 .469.015.923.03.44.03.908 0 .425-.045.85-.03.41-.117.82-.03.117-.059.278-.029.162-.087.308-.044.147-.132.25-.074.102-.205.102-.132 0-.235-.044-.073.014-.132.03h-.131q-.132 0-.162-.045-.029-.044-.029-.102 0-.074-.03-.147-.014-.088-.146-.161-.088-.059-.234-.073l-.293-.03q-.132-.029-.234-.087-.103-.074-.103-.22 0-.161.059-.161.073-.015.16.044.103.058.22.117.118.044.22 0-.205-.234-.366-.483-.146-.264-.308-.528-.146-.263-.307-.527t-.366-.484q-.176-.19-.293-.439l-.235-.498q-.102-.264-.234-.483-.117-.235-.308-.381-.674-.513-1.494-.894-.806-.395-1.684-.395-.616 0-1.143.19-.513.176-1.025.483-.205.118-.396.206-.176.087-.351.205-.162.102-.293.263-.118.147-.176.41-.073.264-.073.542.014.279-.132.513-.074.117-.235.19-.146.074-.19.22-.117.337-.147.703l-.029.747q0 .381-.015.777-.014.38-.117.732-.088.293-.132.586-.029.293-.029.586 0 .557.03 1.099.043.527.043 1.07 0 .658.059 1.288.073.63.249 1.26.132.469.366.908.235.425.352.894.058.249.205.527.161.278.366.513.22.234.483.395.264.147.542.147.206 0 .396-.044.19-.059.395-.059.22 0 .44.044.22.03.44.03.395 0 .82-.103.44-.103.732-.41.205-.22.469-.308t.527-.146q.279-.06.528-.147.249-.103.439-.352.117-.16.234-.498.132-.336.264-.703.132-.366.264-.659.146-.307.293-.38.132-.074.16-.367.045-.308.045-.718v-.674q0-.293.014-.57.015-.28.059-.499.059-.22.161-.351.103-.132.278-.132.162 0 .25.117.102.102.249.102.146 0 .278-.087.146-.103.307-.103.22 0 .396.19.19.19.337.425.161.235.249.44.102.19.146.205.147.03.162.249.029.205.029.337zM49.597 155.6q0 .059-.088.235-.073.176-.176.366-.102.176-.205.337-.102.161-.161.205-.176.132-.41.176-.22.044-.396.176-.117.073-.19.175-.073.103-.147.22-.058.117-.131.22-.059.102-.162.176-.293.16-.615.527-.322.366-.674.747-.337.38-.688.674-.337.293-.66.293-.35 0-.614-.264-.25-.264-.47-.6l-.439-.704q-.205-.351-.468-.527-.132-.205-.22-.395-.088-.206-.25-.381-.19-.25-.453-.396-.264-.161-.425-.395-.059-.059-.132-.205-.059-.147-.132-.308-.058-.161-.102-.308-.044-.16-.044-.249 0-.19.088-.351.088-.161.234-.279.146-.117.322-.175.19-.074.366-.074.19 0 .308.103.117.088.205.234l.147.323q.073.175.19.322.117.132.234.278.132.147.22.293.103.132.117.308.074.117.162.16.102.045.22.118.102.059.204.22.117.146.235.337.132.175.293.351.16.176.38.293.176 0 .308-.088t.235-.205q.117-.132.205-.263.102-.147.205-.264.117-.044.366-.22.264-.176.542-.395.278-.22.498-.44.234-.22.308-.351.117-.19.19-.323.088-.146.19-.234.103-.088.25-.117.16-.044.424-.044.293 0 .542.176.264.175.264.512zM69.123 178.98q0 .395-.132.673-.117.278-.322.498-.19.22-.454.41-.249.19-.513.41-.205.176-.366.264-.161.088-.322.147-.147.058-.322.117-.162.058-.381.161-.293.146-.498.278-.19.117-.396.22-.19.103-.425.161-.234.073-.586.117-.585.074-1.186.176-.586.103-1.172.103-.117 0-.249-.059-.117-.044-.278-.102-.161-.044-.366-.103-.19-.044-.47-.044-.292 0-.468-.088-.176-.088-.322-.205l-.279-.249q-.146-.146-.38-.249-.88-.395-1.495-.952-.615-.557-1.054-1.245-.44-.689-.733-1.494-.293-.806-.498-1.685-.16-.615-.16-1.23 0-.806.38-1.495-.146-.41-.146-.79 0-.279.16-.82.162-.558.41-1.114.264-.557.557-.996.308-.454.572-.557.205-.073.278-.117.088-.059.088-.293 0-.176.132-.293.146-.117.337-.19.205-.074.395-.132.205-.059.337-.117.542-.264 1.025-.44.499-.19.982-.308.498-.131 1.025-.19.528-.059 1.128-.059.323 0 .63.088.308.088.586.235.293.132.571.307.279.161.542.323h-.014q.22.029.41.131.205.088.425.118.205.249.527.483.337.22.645.469.322.249.542.542.234.278.234.644 0 .059-.015.117 0 .06-.014.132l.058-.073q.059.044.103.147.058.102.102.234.044.117.074.249.029.117.043.19.118.19.308.308.205.117.322.322-.146.147-.146.381 0 .25.102.498.103.235.103.484 0 .293-.03.57-.029.265-.029.558 0 .22-.175.336-.162.118-.367.206-.19.087-.351.175-.161.088-.161.25 0 .117-.147.117-.132-.015-.22-.015-.644 0-1.289-.161-.63-.161-1.26-.161-.688 0-1.362.102-.673.088-1.362.088-.513 0-1.025-.03-.498-.029-1.011-.029-.132 0-.498.059-.366.044-.777.132-.395.073-.761.19-.366.103-.513.205-.015.074-.015.205 0 .689.396 1.421.41.733 1.07 1.333.658.6 1.479.996.82.396 1.655.396.483 0 .952.044.484.03.938.205.395-.19.717-.44.337-.249.645-.527t.6-.571q.294-.293.601-.586.059-.059.278-.103.235-.058.499-.088.263-.044.498-.058.249-.03.336-.03.337 0 .63.103.088.337.088.66zm-2.197-5.948q0-.22-.073-.425t-.117-.425q-.074-.41-.074-.79 0-.396-.117-.792h-.015q0 .088-.058.176-.059.073-.161.073-.176 0-.337-.088-.161-.087-.278-.22-.557-.248-1.011-.468-.44-.22-.894-.38-.44-.177-.952-.265-.498-.102-1.157-.102-.059 0-.117.015-.044 0-.088.043l.073.162-.117.029q-.396.073-.66.146-.248.059-.453.176-.206.117-.41.293-.191.161-.499.425-.146.132-.322.205-.161.059-.337.117-.161.044-.322.103-.147.058-.25.19-.102.366-.307.718-.19.337-.19.718 0 .22.176.395.19.161.468.279.293.117.63.205.352.087.689.131.337.044.615.074.293.014.454.014.557 0 1.099-.102.542-.117 1.098-.117.572 0 1.143.058.571.044 1.142.044.147 0 .44-.015.293-.014.571-.073.293-.073.498-.19.22-.132.22-.337zM87.405 171.347q0 .293-.118.499-.117.205-.263.395-.132.176-.279.366-.132.19-.175.454-.132-.058-.279-.073-.132-.015-.278-.015-.352 0-.703.059-.337.044-.674.044-.396 0-.66-.234-.248-.25-.41-.601-.146-.352-.204-.747-.06-.41-.06-.733 0-.41.133-.834-.117-.044-.205-.044-.19 0-.279.117-.073.117-.22.117-.131 0-.234-.088-.102-.102-.249-.102-.22 0-.556.146-.323.132-.63.352-.308.22-.542.483-.22.249-.22.483-.308.03-.586.176-.264.132-.513.293-.19.117-.322.366-.132.25-.249.542-.102.279-.22.572-.102.293-.249.483-.249.322-.44.66-.175.321-.175.732 0 .512.161 1.04.161.527.161 1.069 0 .352-.058.703-.044.352-.044.689 0 .41.146.659.147.249.396.395.249.132.571.176.322.044.66.044.366 0 .702-.015.352-.029.645-.029.102.117.117.22.015.102-.015.22-.014.102-.058.22-.03.102-.03.248 0 .059.03.147.22 0 .38-.103.162-.102.235-.322.103.03.176.088.088.058.088.176 0 .088-.044.175-.044.074-.103.147-.058.073-.102.161-.044.073-.044.176 0 .058.014.132.015.058.044.102-.073.117-.205.161-.131.044-.263.044-.235 0-.396-.073-.146-.073-.278-.161-.117-.088-.22-.161-.102-.073-.249-.073-.058 0-.176.029-.117.03-.234.073-.117.044-.205.117-.088.059-.088.117 0 .118.073.206.088.087.088.205 0 .102-.073.16-.073.06-.176.074-.102.03-.22.03-.102.014-.175.014-.572 0-1.143-.132-.557-.117-1.128-.117-.264 0-.527.117-.264.117-.557.117-.161 0-.249-.073-.073-.059-.132-.146-.058-.088-.132-.162-.073-.058-.22-.058-.278 0-.556.058-.264.06-.542.118-.264.073-.542.117-.264.058-.542.058-.146 0-.352-.043-.205-.03-.395-.118-.19-.088-.322-.22-.132-.131-.132-.322 0-.117.132-.307.146-.19.322-.366.176-.19.352-.323.175-.132.263-.132.235 0 .454.015.235.015.484.015.395 0 .79-.118.41-.131.733-.366.337-.234.542-.586.205-.351.205-.79 0-.191-.03-.367-.028-.19-.028-.38 0-.382.088-.762.087-.381.087-.762 0-.513-.117-1.04-.102-.542-.102-1.084 0-.484.014-.952.03-.484.03-.967 0-.22-.015-.645-.015-.425-.103-.85-.073-.424-.249-.746-.16-.323-.454-.323-.322 0-.644.074-.322.073-.66.073-.248 0-.585-.03-.337-.043-.645-.146-.307-.117-.527-.322-.22-.205-.22-.542 0-.367.103-.586.102-.235.263-.352.176-.117.396-.16.234-.045.498-.045.234 0 .483.015.25.014.484.014.468 0 .922-.043.47-.059.938-.059.322 0 .644.03.323.029.63.131.279.088.41.337.132.234.235.483.117.25.264.455.146.19.468.19.147 0 .264-.073.132-.088.249-.19.117-.103.234-.191.118-.088.279-.117.322-.044.586-.205.278-.162.542-.323.263-.16.527-.293.278-.131.6-.131.191 0 .47-.044.292-.044.57-.118.294-.087.543-.205.263-.117.41-.263.395.029.923.19.542.161 1.025.44.498.263.864.63.366.366.425.82.044.278.161.527l.235.498q.131.235.234.498.102.25.102.528zM106.081 168.681q-.029.498-.307.82-.264.323-.66.513-.395.19-.864.279-.454.073-.85.088-.541.029-.761.234-.22.205-.366.703-.074.235-.205.571-.132.337-.308.689-.161.337-.337.644-.176.308-.352.47.015.16.074.321.058.162.058.323 0 .19-.132.395-.16.264-.22.469-.058.19-.072.38-.015.177-.03.382-.014.19-.102.44-.147.395-.367.76-.22.367-.468.704-.132.615-.293 1.26-.147.644-.366 1.274-.22.615-.513 1.201-.293.572-.703 1.07l-.22-.015h-.088q-.395 0-.776.117-.381.132-.762.132-.22 0-.352-.088-.117-.073-.205-.205-.088-.117-.16-.278-.06-.147-.162-.293v-.41q-.073-.059-.161-.059-.088-.015-.176-.015-.088-.014-.16-.029-.074-.03-.118-.117-.088-.147-.117-.352l-.03-.454q0-.234-.029-.468-.015-.235-.102-.455-.088-.205-.176-.38-.088-.19-.176-.396-.103-.22-.146-.469l-.06-.498q-.028-.249-.072-.483-.044-.25-.161-.469-.118-.19-.22-.337l-.205-.293q-.088-.146-.176-.307-.073-.162-.117-.396-.308-1.406-.762-2.74-.454-1.347-1.216-2.563-.176.088-.38.132-.191.03-.396.03-.41 0-.85-.118-.337-.073-.586-.132-.234-.073-.395-.19-.161-.132-.25-.366-.072-.235-.072-.645 0-.395.175-.63.19-.249.47-.38.277-.147.614-.19.352-.06.66-.06.512 0 .98.118.484.102.968.102.483 0 .952-.044.483-.058.967-.058.102 0 .395.044.308.044.63.16.337.103.6.294.279.19.323.468 0 .308-.088.645-.088.322-.308.527-.102.103-.322.162-.205.043-.425.087-.205.044-.366.088t-.176.103q-.058.278-.102.6-.03.323-.03.616 0 .22.044.337.059.117.118.175.073.059.117.103.058.03.073.102l.059.352.058.322q.015.147.132.352t.25.41q.13.205.233.395.103.19.103.293 0 .03-.161.074t-.161.088q0 .029.073.073.073.03.161.073.103.03.176.059.088.014.117.014v.22q0 .527.147.996.146.469.322.923.19.44.366.893.176.44.22.938l.19.015h.073q.323 0 .499-.19.175-.191.307-.426.147-.234.322-.424.176-.206.484-.22.014-.073.014-.205 0-.19-.058-.366-.044-.19-.044-.381 0-.25.073-.367.073-.131.161-.249.088-.131.161-.307.074-.19.074-.571 0-.118.058-.25.059-.131.147-.263t.176-.25q.102-.131.16-.234.22-.322.323-.79.117-.484.161-.982.059-.498.059-.952.014-.469.014-.777 0-.336-.278-.468-.264-.132-.6-.19-.323-.074-.601-.147-.264-.088-.264-.322 0-.103.044-.176.044-.088.103-.161.058-.088.102-.162.044-.087.044-.175 0-.103-.059-.176-.043-.088-.043-.19 0-.235.19-.367.19-.146.454-.22.264-.073.527-.087.279-.03.44-.03.264 0 .469.074.205.058.38.146.19.073.367.147.175.058.351.058.147 0 .205-.102.161-.22.22-.323.059-.117.132-.16.073-.045.205-.045.132-.014.44-.029l.512-.015q.41-.014.835.03.44.029.85.146.424.117.79.337.382.22.645.571zm-3.34-.424q-.205-.03-.322-.19-.117-.177-.307-.22-.03.043-.03.146 0 .161.132.322.147.161.308.161.102 0 .146-.058.044-.073.073-.161zM121.037 178.98q0 .395-.132.673-.117.278-.322.498-.19.22-.454.41-.249.19-.513.41-.205.176-.366.264-.16.088-.322.147-.147.058-.322.117-.161.058-.381.161-.293.146-.498.278-.19.117-.396.22-.19.103-.425.161-.234.073-.585.117-.586.074-1.187.176-.586.103-1.172.103-.117 0-.249-.059-.117-.044-.278-.102-.161-.044-.366-.103-.19-.044-.47-.044-.292 0-.468-.088-.176-.088-.322-.205l-.279-.249q-.146-.146-.38-.249-.88-.395-1.495-.952-.615-.557-1.054-1.245-.44-.689-.733-1.494-.293-.806-.498-1.685-.16-.615-.16-1.23 0-.806.38-1.495-.146-.41-.146-.79 0-.279.16-.82.162-.558.41-1.114.265-.557.557-.996.308-.454.572-.557.205-.073.278-.117.088-.059.088-.293 0-.176.132-.293.146-.117.337-.19.205-.074.395-.132.205-.059.337-.117.542-.264 1.026-.44.498-.19.981-.308.498-.131 1.025-.19.528-.059 1.128-.059.323 0 .63.088.308.088.586.235.293.132.571.307.279.161.542.323h-.014q.22.029.41.131.205.088.425.118.205.249.527.483.337.22.645.469.322.249.542.542.234.278.234.644 0 .059-.015.117 0 .06-.014.132l.058-.073q.059.044.103.147.058.102.102.234.044.117.074.249.029.117.044.19.117.19.307.308.205.117.322.322-.146.147-.146.381 0 .25.102.498.103.235.103.484 0 .293-.03.57-.029.265-.029.558 0 .22-.175.336-.162.118-.367.206-.19.087-.351.175-.161.088-.161.25 0 .117-.147.117-.132-.015-.22-.015-.644 0-1.289-.161-.63-.161-1.26-.161-.688 0-1.362.102-.673.088-1.362.088-.513 0-1.025-.03-.498-.029-1.011-.029-.132 0-.498.059-.366.044-.776.132-.396.073-.762.19-.366.103-.513.205-.015.074-.015.205 0 .689.396 1.421.41.733 1.07 1.333.658.6 1.479.996.82.396 1.655.396.483 0 .952.044.484.03.938.205.395-.19.717-.44.337-.249.645-.527t.6-.571q.294-.293.601-.586.059-.059.279-.103.234-.058.498-.088.263-.044.498-.058.249-.03.337-.03.336 0 .63.103.087.337.087.66zm-2.197-5.948q0-.22-.073-.425t-.117-.425q-.074-.41-.074-.79 0-.396-.117-.792h-.014q0 .088-.059.176-.059.073-.161.073-.176 0-.337-.088-.161-.087-.278-.22-.557-.248-1.011-.468-.44-.22-.894-.38-.44-.177-.952-.265-.498-.102-1.157-.102-.059 0-.117.015-.044 0-.088.043l.073.162-.117.029q-.396.073-.66.146-.248.059-.453.176-.205.117-.41.293-.191.161-.499.425-.146.132-.322.205-.161.059-.337.117-.16.044-.322.103-.147.058-.25.19-.102.366-.307.718-.19.337-.19.718 0 .22.176.395.19.161.468.279.293.117.63.205.352.087.689.131.337.044.615.074.293.014.454.014.557 0 1.099-.102.542-.117 1.098-.117.572 0 1.143.058.571.044 1.143.044.146 0 .439-.015.293-.014.571-.073.293-.073.498-.19.22-.132.22-.337zM140.696 181.66q0 .205-.103.337-.103.132-.264.205-.146.073-.337.088-.175.03-.337.03-.22 0-.439-.03l-.44-.059q-.292.103-.703.205-.395.118-.717.118-.088 0-.176-.03-.073-.03-.147-.03-.249 0-.512.089-.25.102-.498.102-.425 0-.82-.117-.382-.102-.806-.132-.689-.058-1.07-.527-.366-.483-.395-1.143.454-.278.952-.38.513-.103 1.025-.103.293 0 .572.015.293.014.586.044-.044-1.099-.19-2.198-.147-1.098-.147-2.212 0-.38.014-.761.03-.381.103-.762.073-.38.19-.747.118-.381.118-.762 0-.249-.074-.454-.073-.22-.19-.44-.103-.175-.132-.395-.03-.22-.073-.44-.044-.234-.132-.453-.088-.22-.293-.396-.19-.176-.542-.278-.352-.103-.923-.103-.176 0-.527.059-.337.044-.703.132-.352.073-.674.19-.308.103-.425.22-.073.073-.19.205-.103.132-.235.278-.117.132-.234.25-.117.102-.205.116-.22.044-.337.074-.103.029-.176.088-.059.058-.102.175-.044.103-.147.308l-.117.234q-.088.162-.176.162-.073 0-.102-.06-.03-.058-.103-.058-.03 0-.088.044-.044.03-.073.059v.41q-.103.117-.19.132-.074 0-.132.015-.044.014-.074.073-.014.058-.014.278 0 .161-.074.293-.073.132-.16.264-.074.132-.147.278-.073.132-.073.308 0 .293.073.571.088.264.088.557 0 .19-.059.322-.058.132-.146.249-.074.102-.132.205-.059.103-.059.249 0 .205.073.38.088.162.176.338.088.176.161.366.088.19.088.41 0 .25-.058.513-.059.249-.059.513 0 .307.088.483.103.161.249.249.161.088.366.132.205.044.41.132.22.073.44.22.22.131.41.41l.088-.015q.249 0 .366.205.117.205.117.425 0 .205-.088.366-.088.146-.088.395 0 .176-.38.293-.381.118-.865.176-.483.073-.937.088-.44.03-.586.03-.176 0-.542-.015-.352 0-.806-.03-.44-.014-.923-.058-.483-.044-.893-.132-.41-.073-.703-.205-.279-.117-.352-.293-.073-.176-.146-.38-.074-.22-.074-.426 0-.22.103-.395.117-.176.278-.322.22-.206.484-.235.263-.044.512-.044.264-.014.498-.044.25-.044.425-.234.19-.19.293-.6.117-.41.117-1.158 0-.19-.029-.38-.03-.206-.073-.382-.044-.19-.073-.336-.03-.147-.03-.22 0-.088.044-.19l.117-.206q.074-.117.118-.249.058-.132.058-.293 0-.249-.102-.483-.088-.234-.088-.483 0-.206.073-.396.073-.19.073-.395 0-.162-.088-.308-.087-.147-.087-.322 0-.161.058-.323.059-.175.059-.351 0-.381-.088-.777-.088-.41-.161-.79-.088-.455-.337-.674-.235-.235-.542-.352-.308-.117-.645-.19-.337-.074-.615-.22-.278-.161-.469-.44-.176-.293-.176-.85 0-.38.22-.585.235-.205.557-.293.322-.103.674-.117.366-.015.63-.015.424 0 .835.132.424.117.85.146.19.015.365.132.176.103.323.264.146.146.234.337.088.19.103.38 0 .089.058.323.059.22.132.454.088.234.176.425.102.176.205.176.088-.074.117-.161.044-.103.073-.19.015-.089.19-.235.191-.147.41-.308.235-.161.44-.307.22-.147.308-.235.088-.102.132-.205l.102-.205q.059-.103.132-.161.088-.059.264-.059h.073q.161 0 .308-.132.146-.146.38-.322.235-.176.616-.307.38-.147 1.01-.147.542 0 1.084.03.542.014 1.026.146.498.132.923.41.44.278.761.776.25.396.41.586.162.19.264.367.103.175.132.424.044.25.044.747 0 .205.073.381.074.176.161.366.103.176.176.381.073.205.073.47 0 .512-.058 1.024-.059.499-.059 1.011 0 .366-.146.718-.132.352-.132.718 0 .176.088.337.088.16.088.366 0 .249-.059.513-.058.249-.058.498 0 .234.102.41.117.176.117.395 0 .117-.058.19-.044.074-.118.147-.058.073-.117.161-.044.074-.044.19 0 .22.103.455.117.22.293.41.176.176.395.293.22.103.44.103.19 0 .322-.074.147-.088.308-.088.205 0 .366.176.176.161.293.396.132.234.19.483.074.249.074.41zm-3.165-5.522q0-.147-.102-.279-.088-.146-.25-.146-.16 0-.219.16-.058.147-.058.28 0 .16.058.307.059.146.235.146.146 0 .22-.088.087-.102.116-.351v-.03zm.25 2.812q0-.103-.088-.161-.074-.073-.162-.117-.029.088-.102.175-.073.088-.147.19l-.146.206q-.059.103-.059.205 0 .117.074.176.073.058.175.102.015-.088.088-.175.088-.088.161-.19.074-.103.132-.191.073-.103.073-.22zm-9.742-3.15q0-.102-.044-.248-.029-.147-.102-.279-.059-.146-.161-.234-.088-.103-.22-.103-.161 0-.278.103-.118.088-.293.088h-.059q-.044.16-.044.307l.015.088.014-.044q.044.162.176.25.132.087.278.16l.323.118q.16.058.278.16.117-.131.117-.365zM158.156 179.477q0 .25-.087.47-.088.219-.162.453-.058.205-.087.337-.015.132-.059.234-.044.088-.147.176-.087.073-.293.176-.439.234-.937.483-.483.235-.981.235-.425 0-.806-.19-.366-.206-.689-.44-.307-.25-.57-.454-.25-.205-.426-.205-.19 0-.337.102l-.278.22q-.132.117-.308.22-.16.102-.41.102-.205 0-.424.073-.22.074-.44.176-.22.088-.454.19-.22.089-.41.147-.66.176-1.333.205-.66.03-1.333.03-.176 0-.542-.015-.366 0-.747-.073-.366-.059-.66-.205-.278-.147-.278-.41 0-.06.015-.103-.103.117-.235.19-.131.074-.292.074-.235 0-.572-.323-.337-.322-.644-.747-.308-.424-.528-.835-.22-.424-.22-.63 0-.16.089-.292.102-.132.102-.293 0-.205-.059-.381-.043-.19-.043-.396 0-.263.102-.556.103-.308.25-.601.146-.308.307-.586.16-.293.293-.542.146-.293.41-.469.263-.175.556-.307l.586-.264q.293-.132.513-.352.22.25.571.25.367 0 .718-.103.352-.117.718-.117.293 0 .557.058.278.059.57.059.323 0 .47-.073.16-.088.395-.293.234-.205.586-.308.366-.117.747-.176.396-.073.776-.146.396-.073.704-.205.307-.147.498-.381.19-.25.19-.674 0-.469-.278-.981-.264-.528-.689-.952-.425-.44-.937-.718-.513-.279-.982-.279-.058 0-.117.015-.058.015-.102.015-.352.058-.791.088-.44.014-.82.131-.382.103-.645.367-.264.249-.264.747 0 .293.044.586.059.278.059.571 0 .44-.22.732-.205.293-.542.47-.322.175-.718.248-.395.059-.762.059-.439 0-.761-.117-.323-.118-.528-.542-.16-.308-.351-.66-.176-.366-.176-.732 0-.395.132-.732.146-.352.322-.674.176-.337.337-.66.176-.336.25-.717.102-.059.277-.117.19-.059.396-.118.22-.058.41-.102.205-.059.337-.103.352-.102.674-.234.337-.147.674-.264.351-.117.688-.205.352-.088.718-.102l.454-.015q.63 0 1.289.117.66.103 1.29.337.629.235 1.186.586.57.337 1.01.806.323.351.528.835.22.469.337.996.131.527.175 1.07.059.527.059.98 0 .616-.044 1.216-.03.586-.03 1.202 0 .586.06 1.171.073.572.16 1.158.088.571.147 1.157.073.571.073 1.143.03.351.088.439.073.073.147.073.322 0 .512-.19.205-.205.366-.44.162-.249.352-.454.19-.205.483-.205.132 0 .264.015.147.014.264.073.117.044.19.146.073.088.073.25zm-4.819-3.647q0-.088-.015-.308 0-.22-.029-.44-.03-.234-.102-.41-.059-.175-.19-.175-.03 0-.074.03-.044.014-.073.014-.557.307-.952.512-.396.19-.791.323-.381.117-.82.16-.44.045-1.1.045-.087 0-.483.073-.395.073-.864.176-.469.088-.879.19-.41.088-.513.117-.19.074-.278.147-.073.073-.117.161-.044.088-.088.19-.044.088-.161.19-.147.118-.322.191-.162.074-.308.22-.22.22-.41.586-.19.351-.19.674 0 .395.204.703.206.308.542.527.337.22.762.381t.85.25q.44.087.835.13.41.045.703.045.351 0 .835-.044.483-.059.967-.161.483-.117.908-.308.425-.19.674-.483.102-.117.146-.205.044-.103.088-.19l.117-.206q.073-.102.22-.22.337-.278.513-.615.19-.337.278-.703.088-.366.102-.762.015-.395.015-.805zm-5.01-10.327q0-.161.19-.396.206-.234.47-.469.263-.234.527-.424.278-.19.425-.264.556-.293.82-.44.278-.146.483-.292.205-.162.44-.381l.747-.66q.19-.16.293-.41.117-.263.278-.38.19-.132.498-.19.323-.074.528-.074.22 0 .366.102.16.088.263.235.103.146.147.337.059.19.059.38 0 .176-.044.381-.03.206-.118.41-.073.191-.19.367-.103.176-.249.278-.176.103-.38.147-.206.044-.426.073-.22.015-.425.058-.205.03-.38.118-.425.22-.63.337-.19.102-.352.205-.146.087-.337.205-.176.102-.571.322-.103.044-.176.176t-.19.22q-.117.087-.279.131-.146.044-.263.132-.205.19-.366.381-.147.19-.44.19-.132 0-.264-.073-.117-.088-.22-.205-.102-.117-.175-.249-.059-.146-.059-.278z" style="-inkscape-font-specification:'Special Elite'"/></g><g style="line-height:125%;-inkscape-font-specification:'Cronos Pro'" font-weight="400" font-size="30" font-family="Special Elite" letter-spacing="0" word-spacing="0" fill="#000" stroke-linecap="butt"><path d="M72.71 256.675q0 .249-.102.468-.088.22-.088.47 0 .277.088.541.088.25.088.527 0 .235-.088.425-.088.176-.205.337-.102.147-.19.293-.088.132-.088.279 0 .087.014.146.03.044.06.103.028.043.043.146.03.088.03.264v.468q0 .176-.015.367 0 .19-.015.351-.015.161-.03.19-.116.176-.131.352t-.059.337q-.029.147-.146.25-.103.087-.396.087-.337 0-.674-.044-.322-.059-.659-.059-.556 0-1.113.147-.542.132-1.113.132-.791 0-1.582-.073-.791-.088-1.582-.088-.176 0-.337-.059-.161-.073-.337-.073-.22 0-.498.161-.279.161-.674.161-.249 0-.483-.073l-.47-.147q-.234-.087-.468-.16-.234-.074-.498-.074-.571 0-1.128.117-.557.103-1.128.103-.38-.117-.513-.381-.131-.278-.131-.615 0-.337.044-.703.058-.367.044-.674-.015-.279-.06-.381-.043-.103-.087-.147-.044-.043-.088-.073t-.044-.16q-.176-.294-.205-.63.161 0 .22-.074.058-.088.058-.234 0-.235.162-.557.16-.337.424-.688.279-.367.616-.718.351-.366.703-.645.351-.278.674-.454.336-.176.6-.176h.088q.03-.117.03-.19 0-.147-.103-.19-.088-.06-.205-.074l-.205-.058q-.088-.03-.088-.147 0-.176.132-.38.131-.22.322-.425.19-.206.395-.367.205-.175.352-.263v-.118q0-.322.161-.673.161-.352.396-.674.234-.337.512-.63.279-.308.513-.527.146-.147.249-.367.103-.234.19-.468.088-.235.19-.425.118-.205.294-.293l.322-.161q.088-.059.117-.103.044-.058.059-.161.03-.117.117-.352.088-.22.161-.22.088-.014.132-.014.059-.015.088-.102.044-.088.044-.454 0-.22.03-.352.028-.147.087-.25.059-.116.147-.219.102-.117.234-.278.132-.147.278-.352.147-.205.264-.424.117-.22.19-.455.088-.234.088-.44 0-.395-.249-.526-.234-.132-.556-.162l-.645-.087q-.322-.059-.483-.308-.176 0-.337.102-.147.103-.293.22l-.293.205q-.132.088-.293.088-.161 0-.366-.117-.19-.117-.484-.117-.263 0-.527.03-.25.014-.513.014-.249 0-.483-.059-.235-.058-.484-.058-.293 0-.468.175-.176.176-.279.425-.088.25-.117.542-.03.293-.03.513 0 .337.03.688.03.352.03.703 0 .176-.015.513-.015.322-.088.66-.059.322-.205.57-.147.25-.396.25-.102 0-.19-.03-.088-.044-.161-.088-.381-.22-.469-.498-.088-.278-.088-.615v-.205q.015-.117.015-.234 0-.059-.03-.337-.029-.293-.058-.616-.03-.336-.073-.6-.03-.264-.03-.293-.029.03-.073.059-.03.029-.073.029-.044 0-.073-.073-.03-.074-.044-.176-.015-.103-.03-.19v-.132q0-.337.044-.645.044-.322.044-.66 0-.248.088-.41.103-.16.234-.292l.264-.264q.147-.146.25-.337.087-.044.175-.044.176 0 .337.073.161.06.337.06.073 0 .16-.074.103-.088.25-.19.146-.103.337-.176.205-.088.483-.088.557 0 1.084.16.542.162 1.099.162.44 0 .762-.205.366-.22.703-.293.351-.073.776-.073.38 0 .762.044.395.029.79.029.587 0 1.158-.073.571-.088 1.157-.088.22 0 .454.014.235.015.454.074.147.044.19.102.045.044.06.118.029.058.043.131.03.059.118.132.131.103.307.132.176.03.337.147.176.117.293.41.117.293.117.923 0 .19-.175.454-.162.263-.25.44-.117.248-.19.512-.059.249-.19.498-.074.132-.19.278-.103.147-.22.293-.103.147-.19.308-.074.16-.074.322v.044q.014.014.014.044-.322 0-.527.22-.19.205-.337.498-.132.278-.249.556-.102.279-.234.396-.22.19-.44.366t-.512.249q-.088.278-.25.542-.146.249-.307.513-.161.249-.308.512-.131.25-.175.528-.03.175-.103.22-.073.043-.146.073-.059.014-.118.102-.044.073-.044.322 0 .118-.073.162-.073.029-.176.043-.102.015-.22.03-.102.014-.16.088.014.073.014.131.015.06.015.132 0 .22-.103.41-.088.19-.249.352-.146.147-.351.264-.19.117-.381.175l.015.176q0 .22-.132.396-.132.16-.293.337-.147.16-.279.351-.131.19-.131.469 0 .117-.074.22-.073.088-.175.175-.103.088-.22.162-.103.073-.176.131-.205.162-.278.293-.074.132-.117.25-.044.117-.088.263-.03.132-.132.322-.088.147-.235.323-.146.175-.278.366-.132.19-.234.38-.103.191-.103.352 0 .161.088.279.103.117.234.205.132.073.293.117.162.044.293.044.264 0 .528-.059.263-.073.542-.073.835 0 1.64.117.82.103 1.656.103.307 0 .79-.059.484-.073.938-.22.469-.16.806-.425.337-.278.337-.673 0-.074-.015-.132v-.147q0-.249.03-.556.043-.323.073-.586.044-.264.073-.425.044-.161.044-.103 0-.102-.088-.16-.073-.074-.073-.191 0-.161.073-.352.088-.205.088-.351 0-.103-.015-.205v-.264q0-.161.059-.234.058-.088.132-.132.087-.044.146-.088t.059-.132q0-.117-.088-.22-.073-.102-.073-.234 0-.176.175-.22.176-.044.308-.044.308 0 .425.103.132.088.176.22.058.131.087.293.044.16.176.292.088.103.205.147l.264.059q.132.014.264.043.131.03.22.132-.06.161-.06.367 0 .307.118.6.132.293.132.6zm-13.403-10.078q0-.132-.117-.19-.117-.06-.234-.074-.03.073-.03.146v.132q0 .073.015.19.03.103.117.103.103 0 .176-.102.073-.103.073-.205zm11.558 13.725q0-.088-.073-.146-.059-.074-.147-.074-.146 0-.19.162-.03.16-.03.278.118 0 .279-.03.161-.043.161-.19zM88.985 260.19q0 .396-.132.674-.117.278-.322.498-.19.22-.454.41-.249.19-.513.41-.205.176-.366.264-.161.088-.322.147-.147.058-.322.117-.162.058-.381.16-.293.147-.498.28-.19.116-.396.219-.19.103-.425.161-.234.073-.586.117-.586.074-1.186.176-.586.103-1.172.103-.117 0-.249-.059l-.278-.103q-.161-.043-.367-.102-.19-.044-.468-.044-.293 0-.47-.088-.175-.088-.321-.205l-.279-.249q-.146-.146-.38-.249-.88-.395-1.495-.952-.615-.557-1.054-1.245-.44-.689-.733-1.494-.293-.806-.498-1.685-.16-.615-.16-1.23 0-.806.38-1.495-.147-.41-.147-.79 0-.279.162-.82.16-.558.41-1.114.263-.557.556-.996.308-.454.572-.557.205-.073.278-.117.088-.059.088-.293 0-.176.132-.293.146-.117.337-.19.205-.074.395-.132.205-.059.337-.117.542-.264 1.025-.44.498-.19.982-.308.498-.131 1.025-.19.528-.059 1.128-.059.322 0 .63.088t.586.235q.293.132.571.307.279.161.542.323h-.014q.22.029.41.131.205.088.425.118.205.249.527.483.337.22.644.469.323.249.542.542.235.278.235.644 0 .059-.015.117 0 .06-.014.132l.058-.073q.059.044.103.147.058.102.102.234.044.117.073.249.03.117.044.19.118.19.308.308.205.117.322.322-.146.147-.146.381 0 .25.102.498.103.235.103.484 0 .293-.03.57-.029.265-.029.558 0 .22-.175.336-.162.118-.367.206-.19.087-.351.175-.161.088-.161.25 0 .117-.147.117-.132-.015-.22-.015-.644 0-1.289-.161-.63-.161-1.26-.161-.688 0-1.362.102-.674.088-1.362.088-.513 0-1.025-.03-.498-.029-1.011-.029-.132 0-.498.059-.366.044-.777.132-.395.073-.761.19-.367.103-.513.205-.015.074-.015.205 0 .689.396 1.421.41.733 1.07 1.333.658.6 1.479.996.82.396 1.655.396.483 0 .952.044.483.03.938.205.395-.19.717-.44.337-.249.645-.527t.6-.571q.293-.293.601-.586.059-.059.278-.103.235-.058.498-.088.264-.043.498-.058.25-.03.337-.03.337 0 .63.103.088.337.088.66zm-2.197-5.947q0-.22-.073-.425-.074-.205-.118-.425-.073-.41-.073-.79 0-.396-.117-.792h-.015q0 .088-.058.176-.059.073-.161.073-.176 0-.337-.088-.161-.087-.279-.22-.556-.248-1.01-.468-.44-.22-.894-.38-.44-.177-.952-.265-.498-.102-1.157-.102-.059 0-.117.015-.044 0-.088.044l.073.16-.117.03q-.396.073-.66.146-.248.059-.454.176-.205.117-.41.293l-.498.425q-.146.132-.322.205-.161.059-.337.117-.161.044-.322.103-.147.058-.25.19-.102.366-.307.718-.19.337-.19.718 0 .22.176.395.19.161.468.279.293.117.63.205.352.088.689.132.337.043.615.073.293.014.454.014.557 0 1.099-.102.542-.117 1.098-.117.572 0 1.143.058.571.044 1.142.044.147 0 .44-.015.293-.014.571-.073.293-.073.498-.19.22-.132.22-.337zM106.431 262.49q0 .513-.351.806-.337.307-.82.454-.484.161-1.011.205-.513.044-.879.044-.483 0-.806-.088-.307-.088-.542-.19-.234-.088-.41-.176-.176-.088-.366-.088-.25 0-.498.088-.234.088-.484.088-.175 0-.292-.059-.103-.059-.176-.146-.074-.074-.147-.132-.058-.059-.146-.059-.103 0-.161.073-.059.088-.132.19-.073.103-.22.177-.132.087-.395.087-.308 0-.601-.073-.293-.058-.6-.058-.308 0-.616.102-.293.117-.556.117-.118 0-.176-.088-.059-.073-.132-.073-.25 0-.527.117-.264.118-.542.118-.147 0-.293-.044-.132-.03-.279-.03-.249 0-.498.118-.249.117-.615.117-.132 0-.586-.044-.44-.03-.908-.103-.469-.073-.85-.19-.366-.103-.366-.234 0-.381.132-.762.146-.381.146-.733v-.029q-.19 0-.22-.205.03-.059.089-.088.073-.044.146-.058.073-.03.132-.074.058-.044.058-.131v-.06q.586.06 1.143.074.571.015 1.187.015.57 0 1.26-.03.702-.043 1.288-.22.6-.175.996-.527.41-.366.41-1.01v-.337q-.073-1.612-.16-3.164-.074-1.568-.074-3.179 0-.425-.073-.82-.059-.41-.059-.82 0-.513.176-1.026.19-.513.586-.864-.015-.088-.073-.117-.059-.044-.147-.06l-.175-.028q-.074-.015-.132-.044-.088-.044-.117-.205-.03-.161-.059-.352-.015-.19-.044-.366-.015-.19-.088-.293.044-.425.147-.835.102-.41.102-.835 0-.308-.088-.483-.073-.176-.175-.293-.103-.118-.19-.205-.074-.103-.074-.25 0-.117.073-.22l-.117-.014q-.147 0-.22.073-.073.074-.146.162-.059.087-.132.16-.073.074-.205.074-.103 0-.235-.044-.249.073-.468.073-.513 0-1.026-.132-.498-.146-1.01-.146-.279 0-.542.03-.264.014-.528.014-.38 0-.762-.088-.38-.088-.673-.381v-.176q0-.776.512-1.172.528-.395 1.275-.395.512 0 1.01.132.499.132 1.011.132.279 0 .586-.06.308-.058.63-.13.322-.074.645-.133.336-.058.659-.058.498 0 .937.22.44.204.88.395l-.015.117q0 .132.058.25.073.102.161.219.088.102.147.22.073.102.073.234t-.044.264q-.03.117-.03.249 0 .322.118.615.132.293.132.63 0 .351-.088.688-.073.337-.073.689 0 .424.102.85.103.424.103.849 0 .351-.118.688-.102.337-.102.674 0 .25.059.498.073.235.16.469.089.234.147.483.073.235.073.498v.293q0 .235-.044.455-.029.205-.19.395.073.278.147.6.087.323.087.616 0 .146-.029.322-.015.161-.073.337-.044.161-.132.308-.088.131-.205.22.19.556.249 1.127.059.572.088 1.143.015.176.058.454l.088.557q.044.263.074.498.044.22.044.307 0 .25-.088.484-.088.234-.088.483 0 .19.088.41.088.205.322.205.176 0 .293-.073.132-.088.278-.176.147-.102.337-.175.205-.088.542-.088.381 0 .718.102.337.103.718.103.278 0 .556-.044.293-.059.557-.117.278-.074.557-.132.278-.059.57-.059.587 0 .982.337.41.337.41.996zm-8.408-18.237q-.058-.059-.146-.117-.073-.059-.176-.059-.073 0-.132.073-.044.059-.044.132l.073.176q.06.03.088.03.118 0 .19-.074.089-.088.147-.161zm.88 4.072q0-.117-.074-.234-.059-.132-.205-.132-.044 0-.103.014-.044.015-.073.03v.63q.117.058.176.058.146 0 .205-.117.073-.132.073-.249zM121.563 260.19q0 .396-.132.674-.117.278-.322.498-.19.22-.454.41-.249.19-.513.41-.205.176-.366.264-.16.088-.322.147-.147.058-.322.117-.161.058-.381.16-.293.147-.498.28-.19.116-.396.219-.19.103-.425.161-.234.073-.585.117-.586.074-1.187.176-.586.103-1.172.103-.117 0-.249-.059l-.278-.103q-.161-.043-.366-.102-.19-.044-.47-.044-.292 0-.468-.088-.176-.088-.322-.205l-.279-.249q-.146-.146-.38-.249-.88-.395-1.495-.952-.615-.557-1.054-1.245-.44-.689-.733-1.494-.293-.806-.498-1.685-.16-.615-.16-1.23 0-.806.38-1.495-.146-.41-.146-.79 0-.279.16-.82.162-.558.41-1.114.265-.557.557-.996.308-.454.572-.557.205-.073.278-.117.088-.059.088-.293 0-.176.132-.293.146-.117.337-.19.205-.074.395-.132.205-.059.337-.117.542-.264 1.026-.44.498-.19.981-.308.498-.131 1.025-.19.528-.059 1.128-.059.323 0 .63.088.308.088.586.235.293.132.571.307.279.161.542.323h-.014q.22.029.41.131.205.088.425.118.205.249.527.483.337.22.645.469.322.249.542.542.234.278.234.644 0 .059-.015.117 0 .06-.014.132l.058-.073q.059.044.103.147.058.102.102.234.044.117.074.249.029.117.044.19.117.19.307.308.205.117.322.322-.146.147-.146.381 0 .25.102.498.103.235.103.484 0 .293-.03.57-.029.265-.029.558 0 .22-.175.336-.162.118-.367.206-.19.087-.351.175-.161.088-.161.25 0 .117-.147.117-.132-.015-.22-.015-.644 0-1.289-.161-.63-.161-1.26-.161-.688 0-1.362.102-.673.088-1.362.088-.513 0-1.025-.03-.498-.029-1.011-.029-.132 0-.498.059-.366.044-.776.132-.396.073-.762.19-.366.103-.513.205-.015.074-.015.205 0 .689.396 1.421.41.733 1.07 1.333.658.6 1.479.996.82.396 1.655.396.483 0 .952.044.484.03.938.205.395-.19.717-.44.337-.249.645-.527t.6-.571q.294-.293.601-.586.059-.059.279-.103.234-.058.498-.088.263-.043.498-.058.249-.03.337-.03.336 0 .63.103.087.337.087.66zm-2.197-5.947q0-.22-.073-.425t-.117-.425q-.074-.41-.074-.79 0-.396-.117-.792h-.014q0 .088-.059.176-.059.073-.161.073-.176 0-.337-.088-.161-.087-.278-.22-.557-.248-1.011-.468-.44-.22-.894-.38-.44-.177-.952-.265-.498-.102-1.157-.102-.059 0-.117.015-.044 0-.088.044l.073.16-.117.03q-.396.073-.66.146-.248.059-.453.176-.205.117-.41.293-.191.161-.499.425-.146.132-.322.205-.161.059-.337.117-.16.044-.322.103-.147.058-.25.19-.102.366-.307.718-.19.337-.19.718 0 .22.176.395.19.161.468.279.293.117.63.205.352.088.689.132.337.043.615.073.293.014.454.014.557 0 1.099-.102.542-.117 1.098-.117.572 0 1.143.058.571.044 1.143.044.146 0 .439-.015.293-.014.571-.073.293-.073.498-.19.22-.132.22-.337zM141.222 262.87q0 .206-.103.338-.103.132-.264.205-.146.073-.337.088-.175.03-.337.03-.22 0-.439-.03l-.44-.059q-.292.103-.703.205-.395.118-.717.118-.088 0-.176-.03-.073-.03-.147-.03-.249 0-.512.089-.25.102-.498.102-.425 0-.82-.117-.382-.102-.806-.132-.689-.058-1.07-.527-.366-.483-.395-1.143.454-.278.952-.38.513-.103 1.025-.103.293 0 .572.015.293.014.586.044-.044-1.099-.19-2.198-.147-1.098-.147-2.212 0-.38.014-.761.03-.381.103-.762.073-.38.19-.747.118-.38.118-.762 0-.249-.074-.454-.073-.22-.19-.44-.103-.175-.132-.395-.03-.22-.073-.44-.044-.234-.132-.453-.088-.22-.293-.396-.19-.176-.542-.278-.352-.103-.923-.103-.176 0-.527.059-.337.044-.703.132-.352.073-.674.19-.308.103-.425.22-.073.073-.19.205-.103.132-.235.278-.117.132-.234.25-.117.102-.205.116-.22.044-.337.074-.103.029-.176.088-.059.058-.102.175-.044.103-.147.308l-.117.234q-.088.161-.176.161-.073 0-.102-.058-.03-.059-.103-.059-.03 0-.088.044-.044.03-.073.059v.41q-.103.117-.19.132-.074 0-.132.014-.044.015-.074.074-.014.058-.014.278 0 .161-.074.293-.073.132-.16.263-.074.132-.147.279-.073.132-.073.307 0 .293.073.572.088.263.088.556 0 .19-.059.323-.058.131-.146.249-.074.102-.132.205-.059.102-.059.249 0 .205.073.38.088.162.176.338.088.175.161.366.088.19.088.41 0 .249-.058.513-.059.249-.059.512 0 .308.088.484.103.16.249.249.161.088.366.132.205.043.41.131.22.074.44.22.22.132.41.41l.088-.014q.249 0 .366.205.117.205.117.424 0 .206-.088.367-.088.146-.088.395 0 .176-.38.293-.381.117-.865.176-.483.073-.937.088-.44.03-.586.03-.176 0-.542-.015-.352 0-.806-.03-.44-.014-.923-.058-.483-.044-.893-.132-.41-.073-.703-.205-.279-.117-.352-.293-.073-.176-.146-.381-.074-.22-.074-.425 0-.22.103-.395.117-.176.278-.323.22-.205.484-.234.263-.044.512-.044.264-.015.498-.044.25-.044.425-.234.19-.19.293-.6.117-.411.117-1.158 0-.19-.029-.38-.03-.206-.073-.382-.044-.19-.073-.337-.03-.146-.03-.22 0-.087.044-.19l.117-.205q.074-.117.118-.249.058-.132.058-.293 0-.249-.102-.483-.088-.235-.088-.484 0-.205.073-.395.073-.19.073-.396 0-.16-.088-.307-.087-.147-.087-.323 0-.16.058-.322.059-.176.059-.351 0-.381-.088-.777-.088-.41-.161-.79-.088-.455-.337-.675-.235-.234-.542-.351-.308-.117-.645-.19-.337-.074-.615-.22-.278-.162-.469-.44-.176-.293-.176-.85 0-.38.22-.585.235-.205.557-.293.322-.103.674-.118.366-.014.63-.014.424 0 .835.132.424.117.85.146.19.015.365.132.176.103.323.264.146.146.234.337.088.19.103.38 0 .088.058.323.059.22.132.454.088.234.176.425.102.175.205.175.088-.073.117-.16.044-.103.073-.191.015-.088.19-.235.191-.146.41-.307.235-.161.44-.308.22-.146.308-.234.088-.103.132-.205l.102-.205q.059-.103.132-.161.088-.059.264-.059h.073q.161 0 .308-.132.146-.146.38-.322.235-.176.616-.308.38-.146 1.01-.146.542 0 1.084.03.542.014 1.026.146.498.131.923.41.44.278.761.776.25.396.41.586.162.19.264.366.103.176.132.425.044.25.044.747 0 .205.073.381.073.176.161.366.103.176.176.381.073.205.073.469 0 .512-.058 1.025-.059.498-.059 1.01 0 .367-.146.719-.132.351-.132.717 0 .176.088.337.088.162.088.367 0 .249-.059.512-.058.25-.058.498 0 .235.102.41.117.176.117.396 0 .117-.058.19-.044.074-.118.147-.058.073-.117.161-.044.073-.044.19 0 .22.103.455.117.22.293.41.176.176.395.293.22.102.44.102.19 0 .322-.073.147-.088.308-.088.205 0 .366.176.176.161.293.395.132.235.19.484.074.249.074.41zm-3.165-5.522q0-.146-.102-.278-.088-.146-.25-.146-.16 0-.219.16-.058.147-.058.28 0 .16.058.307.059.146.235.146.146 0 .22-.088.087-.102.116-.351v-.03zm.25 2.813q0-.103-.088-.161-.074-.073-.162-.117-.029.088-.102.175-.073.088-.147.19l-.146.206q-.059.102-.059.205 0 .117.074.176.073.058.175.102.015-.088.088-.175.088-.088.161-.19.074-.103.132-.191.073-.103.073-.22zm-9.742-3.15q0-.102-.044-.248-.029-.147-.102-.279-.059-.146-.161-.234-.088-.103-.22-.103-.161 0-.278.103-.118.088-.293.088h-.059q-.044.16-.044.307l.015.088.014-.044q.044.161.176.25.132.087.279.16.16.06.322.118.16.058.278.16.117-.131.117-.365zM158.682 260.688q0 .25-.087.47-.088.219-.162.453-.058.205-.087.337-.015.132-.059.234-.044.088-.147.176-.087.073-.292.176-.44.234-.938.483-.483.235-.981.235-.425 0-.806-.19-.366-.206-.689-.44-.307-.25-.57-.454-.25-.205-.426-.205-.19 0-.337.102l-.278.22q-.132.117-.308.22-.16.102-.41.102-.205 0-.424.073-.22.074-.44.176-.22.088-.454.19-.22.089-.41.147-.66.176-1.333.205-.66.03-1.333.03-.176 0-.542-.015-.366 0-.747-.073-.366-.059-.66-.205-.278-.147-.278-.41 0-.06.015-.103-.103.117-.235.19-.131.074-.292.074-.235 0-.572-.323-.337-.322-.644-.747-.308-.425-.528-.835-.22-.425-.22-.63 0-.16.089-.293.102-.131.102-.293 0-.205-.059-.38-.043-.19-.043-.396 0-.264.102-.557.103-.307.25-.6.146-.308.307-.586.16-.293.293-.542.146-.293.41-.469t.556-.307l.586-.264q.293-.132.513-.352.22.25.571.25.367 0 .718-.103.352-.117.718-.117.293 0 .557.058.278.059.57.059.323 0 .47-.073.16-.088.395-.293.235-.205.586-.308.366-.117.747-.176.396-.073.777-.146.395-.073.703-.205.307-.147.498-.381.19-.25.19-.674 0-.469-.278-.981-.264-.528-.689-.953-.424-.439-.937-.717-.513-.279-.982-.279-.058 0-.117.015-.058.015-.102.015-.352.058-.791.088-.44.014-.82.131-.382.103-.645.367-.264.249-.264.747 0 .293.044.586.059.278.059.57 0 .44-.22.733-.205.293-.542.47-.322.175-.718.248-.395.059-.762.059-.439 0-.761-.118-.323-.117-.528-.542-.16-.307-.351-.659-.176-.366-.176-.732 0-.396.132-.733.146-.351.322-.673.176-.337.337-.66.176-.336.25-.717.102-.059.277-.118.19-.058.396-.117.22-.058.41-.102.205-.059.337-.103.352-.102.674-.234.337-.147.674-.264.351-.117.688-.205.352-.088.718-.102l.454-.015q.63 0 1.289.117.66.103 1.29.337.629.234 1.186.586.57.337 1.01.806.323.351.528.835.22.468.337.996.131.527.175 1.07.059.526.059.98 0 .616-.044 1.216-.03.586-.03 1.201 0 .586.06 1.172.073.572.16 1.158.088.57.147 1.157.073.571.073 1.142.03.352.088.44.073.073.147.073.322 0 .512-.19.205-.205.366-.44.162-.249.352-.454.19-.205.483-.205.132 0 .264.015.147.014.264.073.117.044.19.146.073.088.073.25zm-4.819-3.647q0-.088-.015-.308 0-.22-.029-.44-.03-.234-.102-.41-.059-.175-.19-.175-.03 0-.074.03-.044.014-.073.014-.557.307-.952.512-.396.19-.791.323-.381.117-.82.16-.44.045-1.1.045-.087 0-.483.073-.395.073-.864.176-.469.088-.879.19-.41.088-.513.117-.19.074-.278.147-.073.073-.117.161-.044.088-.088.19-.044.088-.161.19-.147.118-.322.191-.162.073-.308.22-.22.22-.41.586-.19.351-.19.674 0 .395.204.703.206.307.542.527.337.22.762.381t.85.25q.44.087.835.13.41.045.703.045.351 0 .835-.044.483-.059.967-.161.483-.117.908-.308.425-.19.674-.483.102-.117.146-.205.044-.103.088-.19l.117-.206q.073-.102.22-.22.337-.278.513-.615.19-.337.278-.703.088-.366.102-.762.015-.395.015-.805zm-5.01-10.327q0-.161.19-.396.206-.234.47-.469.263-.234.527-.424.278-.19.425-.264.556-.293.82-.44.278-.146.483-.292.205-.162.44-.381l.747-.66q.19-.16.293-.41.117-.263.278-.38.19-.132.498-.19.323-.074.528-.074.22 0 .366.102.16.088.263.235.103.146.147.337.059.19.059.38 0 .176-.044.381-.03.205-.118.41-.073.191-.19.367-.103.176-.249.278-.176.103-.38.147-.206.043-.426.073-.22.014-.425.058-.205.03-.38.118-.425.22-.63.336-.19.103-.352.206-.146.087-.337.205-.176.102-.571.322-.103.044-.176.176t-.19.22q-.117.087-.279.131-.146.044-.263.132-.205.19-.366.381-.147.19-.44.19-.132 0-.264-.073-.117-.088-.22-.205-.102-.117-.175-.249-.059-.146-.059-.278z" style="-inkscape-font-specification:'Special Elite'"/></g></svg>