<svg xmlns="http://www.w3.org/2000/svg" viewBox="0 0 700 348" stroke-miterlimit="10" width="700" height="348" fill="none" stroke-linecap="square"><clipPath id="a"><path d="M0 0h700v348H0V0z"/></clipPath><g clip-path="url(#a)" transform="translate(-2.248)"><path d="M23.795 1.16h700v348h-700z" fill="none"/><path d="M170.154 1.16h357.292v347.97H170.154z" fill="#fff"/><path d="M181.233 6.937h336.914v337.669H181.233z" fill="none"/><path d="M181.233 6.937h336.914v337.669H181.233z" stroke="#000" stroke-width="2" stroke-linecap="butt" stroke-linejoin="round"/><path d="M458.889 41.715c0-8.376 6.966-15.166 15.559-15.166 4.126 0 8.084 1.598 11.002 4.442 2.918 2.844 4.557 6.702 4.557 10.724 0 8.375-6.966 15.165-15.56 15.165-8.592 0-15.558-6.79-15.558-15.165z" fill="#fff"/><path d="M458.889 41.715c0-8.376 6.966-15.166 15.559-15.166 4.126 0 8.084 1.598 11.002 4.442 2.918 2.844 4.557 6.702 4.557 10.724 0 8.375-6.966 15.165-15.56 15.165-8.592 0-15.558-6.79-15.558-15.165z" stroke="#000" stroke-width="2" stroke-linecap="butt" stroke-linejoin="round"/><path d="M297.417 123.205l52.567-52.567 52.567 52.567-52.567 52.567z" fill="none"/><path d="M297.417 123.205l52.567-52.567 52.567 52.567-52.567 52.567z" stroke="#000" stroke-width="2" stroke-linecap="butt" stroke-linejoin="round"/><path d="M244.556 176.226l52.567-52.567 52.567 52.567-52.567 52.567z" fill="none"/><path d="M244.556 176.226l52.567-52.567 52.567 52.567-52.567 52.567z" stroke="#000" stroke-width="2" stroke-linecap="butt" stroke-linejoin="round"/><path d="M297.417 228.34l52.567-52.568 52.567 52.567-52.567 52.567z" fill="none"/><path d="M297.417 228.34l52.567-52.568 52.567 52.567-52.567 52.567z" stroke="#000" stroke-width="2" stroke-linecap="butt" stroke-linejoin="round"/><path d="M349.69 176.226l52.567-52.567 52.567 52.567-52.567 52.567z" fill="none"/><path d="M349.69 176.226l52.567-52.567 52.567 52.567-52.567 52.567z" stroke="#000" stroke-width="2" stroke-linecap="butt" stroke-linejoin="round"/><path d="M502.446 62.053h95.874v61.606h-95.874zM502.446 144.97h140.346v61.605H502.446zM26.02 143.533h105.134v65.386H26.021zM18.795 224.793h113.354v65.386H18.795zM164.15 257.486h154.645" fill="none"/><path d="M164.15 257.486h142.645" stroke="#000" stroke-width="2" stroke-linecap="butt" stroke-linejoin="round"/><path d="M306.795 260.79l9.076-3.304-9.076-3.303z" fill="#000" fill-rule="evenodd" stroke="#000" stroke-width="2" stroke-linecap="butt"/><path d="M534.446 92.856H388.02" fill="none"/><path d="M534.446 92.856H400.02" stroke="#000" stroke-width="2" stroke-linecap="butt" stroke-linejoin="round"/><path d="M400.02 89.553l-9.076 3.303 9.077 3.304z" fill="#000" fill-rule="evenodd" stroke="#000" stroke-width="2" stroke-linecap="butt"/><path d="M534.446 175.772h-68.473" fill="none"/><path d="M534.446 175.772h-56.473" stroke="#000" stroke-width="2" stroke-linecap="butt" stroke-linejoin="round"/><path d="M477.973 172.469l-9.076 3.303 9.076 3.304z" fill="#000" fill-rule="evenodd" stroke="#000" stroke-width="2" stroke-linecap="butt"/><path d="M163.154 176.226h72.19" fill="none"/><path d="M163.154 176.226h60.19" stroke="#000" stroke-width="2" stroke-linecap="butt" stroke-linejoin="round"/><path d="M223.343 179.53l9.077-3.304-9.077-3.303z" fill="#000" fill-rule="evenodd" stroke="#000" stroke-width="2" stroke-linecap="butt"/><text style="line-height:100%;-inkscape-font-specification:'Special Elite, Normal';text-align:start" x="5.065" y="186.079" font-weight="400" font-size="35" font-family="Special Elite" letter-spacing="0" word-spacing="0" fill="#000" stroke-linecap="butt"><tspan x="5.065" y="186.079" style="line-height:100%;-inkscape-font-specification:sans-serif;text-align:start" font-family="sans-serif">Красный</tspan></text><text style="line-height:125%" x="7.528" y="268.25" font-weight="400" font-size="40" font-family="sans-serif" letter-spacing="0" word-spacing="0" fill="#000" stroke-linecap="butt"><tspan x="7.528" y="268.25" style="-inkscape-font-specification:sans-serif" font-size="35">Зеленый</tspan></text><text style="line-height:125%" x="544.437" y="186.56" font-weight="400" font-size="40" font-family="sans-serif" letter-spacing="0" word-spacing="0" fill="#000" stroke-linecap="butt"><tspan x="544.437" y="186.56" style="-inkscape-font-specification:sans-serif" font-size="35">Желтый</tspan></text><text style="line-height:125%" x="544.061" y="103.14" font-weight="400" font-size="40" font-family="sans-serif" letter-spacing="0" word-spacing="0" fill="#000" stroke-linecap="butt"><tspan x="544.061" y="103.14" style="-inkscape-font-specification:sans-serif" font-size="35">Синий</tspan></text></g></svg>