<svg viewBox="0 0 806 464" xmlns="http://www.w3.org/2000/svg" fill-rule="evenodd" clip-rule="evenodd" stroke-linejoin="round" stroke-miterlimit="10"><g transform="scale(1.33333)"><clipPath id="a"><path d="M0 0h604v348H0z"/></clipPath><g clip-path="url(#a)"><path d="M0 0h604v348H0V0z" fill="none"/><text x="536.469" y="145.985" font-family="'SpecialElite-Regular','Special Elite'" font-size="30" transform="translate(-50.836 38.247)">Gelb</text><path d="M114.36 0h357.291v347.969H114.36V0z" fill="#fff" fill-rule="nonzero"/><path d="M125.438 5.776h336.914v337.669H125.438V5.776z" fill="none"/><path d="M125.438 5.776h336.914v337.669H125.438V5.776z" fill="none" stroke="#000" stroke-width="2"/><path d="M403.094 40.554c0-8.376 6.966-15.165 15.559-15.165 4.127 0 8.084 1.597 11.002 4.441 2.918 2.844 4.557 6.702 4.557 10.724 0 8.376-6.966 15.165-15.559 15.165s-15.559-6.789-15.559-15.165z" fill="#fff" fill-rule="nonzero"/><path d="M403.094 40.554c0-8.376 6.966-15.165 15.559-15.165 4.127 0 8.084 1.597 11.002 4.441 2.918 2.844 4.557 6.702 4.557 10.724 0 8.376-6.966 15.165-15.559 15.165s-15.559-6.789-15.559-15.165z" fill="none" stroke="#000" stroke-width="2"/><path d="M241.622 122.045l52.567-52.567 52.567 52.567-52.567 52.567-52.567-52.567z" fill="none"/><path d="M241.622 122.045l52.567-52.567 52.567 52.567-52.567 52.567-52.567-52.567z" fill="none" stroke="#000" stroke-width="2"/><path d="M188.761 175.066l52.567-52.567 52.567 52.567-52.567 52.567-52.567-52.567z" fill="none"/><path d="M188.761 175.066l52.567-52.567 52.567 52.567-52.567 52.567-52.567-52.567z" fill="none" stroke="#000" stroke-width="2"/><path d="M241.622 227.178l52.567-52.566 52.567 52.566-52.567 52.567-52.567-52.567z" fill="none"/><path d="M241.622 227.178l52.567-52.566 52.567 52.566-52.567 52.567-52.567-52.567z" fill="none" stroke="#000" stroke-width="2"/><path d="M293.895 175.066l52.567-52.567 52.567 52.567-52.567 52.567-52.567-52.567z" fill="none"/><path d="M293.895 175.066l52.567-52.567 52.567 52.567-52.567 52.567-52.567-52.567z" fill="none" stroke="#000" stroke-width="2"/><path d="M478.651 60.892h95.874v61.607h-95.874V60.892z" fill="none"/><text x="509.231" y="78.128" font-family="'SpecialElite-Regular','Special Elite'" font-size="30" transform="translate(-23.1 22.457)">Blau</text><path d="M2.226 142.373H107.36v65.386H2.226v-65.386zM-5 223.633h113.354v65.385H-5v-65.385zm113.354 32.692H263" fill="none"/><path d="M108.354 256.325H251" fill="none" stroke="#000" stroke-width="2"/><path d="M251 259.629l9.076-3.304-9.076-3.303v6.607z" stroke="#000" stroke-width="2" stroke-linejoin="miter"/><path d="M478.651 91.696H332.226" fill="none"/><path d="M478.651 91.696H344.226" fill="none" stroke="#000" stroke-width="2"/><path d="M344.226 88.392l-9.076 3.304 9.076 3.303v-6.607z" stroke="#000" stroke-width="2" stroke-linejoin="miter"/><path d="M478.651 174.612h-68.473" fill="none"/><path d="M478.651 174.612h-56.473" fill="none" stroke="#000" stroke-width="2"/><path d="M422.178 171.308l-9.076 3.304 9.076 3.303v-6.607z" stroke="#000" stroke-width="2" stroke-linejoin="miter"/><path d="M107.36 175.066h72.189" fill="none"/><path d="M107.36 175.066h60.189" fill="none" stroke="#000" stroke-width="2"/><path d="M167.549 178.369l9.076-3.303-9.076-3.304v6.607z" stroke="#000" stroke-width="2" stroke-linejoin="miter"/><text x="38.098" y="50.724" font-family="'SpecialElite-Regular','Special Elite'" font-size="30" transform="translate(9.515 130.972)">Rot</text><text x="26.54" y="232.131" font-family="'SpecialElite-Regular','Special Elite'" font-size="30" transform="translate(-1.031 30.534)">Grün</text></g></g></svg>
