<svg xmlns="http://www.w3.org/2000/svg" viewBox="0 0 604 348" fill="none" stroke-linecap="square" stroke-miterlimit="10"><clipPath id="a"><path d="M0 0h604v348H0V0z"/></clipPath><g clip-path="url(#a)"><path fill="none" d="M0 0h604v348H0z"/><path fill="#fff" d="M114.36 0h357.29v347.97H114.36z"/><path fill="none" d="M125.44 5.78h336.91v337.67H125.44z"/><path stroke="#000" stroke-width="2" stroke-linejoin="round" stroke-linecap="butt" d="M125.44 5.78h336.91v337.67H125.44z"/><path fill="#fff" d="M403.09 40.55c0-8.38 6.97-15.17 15.56-15.17 4.13 0 8.08 1.6 11 4.44 2.92 2.84 4.56 6.7 4.56 10.72 0 8.38-6.97 15.17-15.56 15.17s-15.56-6.79-15.56-15.17z"/><path stroke="#000" stroke-width="2" stroke-linejoin="round" stroke-linecap="butt" d="M403.09 40.55c0-8.38 6.97-15.17 15.56-15.17 4.13 0 8.08 1.6 11 4.44 2.92 2.84 4.56 6.7 4.56 10.72 0 8.38-6.97 15.17-15.56 15.17s-15.56-6.79-15.56-15.17z"/><path fill="none" d="M241.62 122.04l52.57-52.57 52.57 52.57-52.57 52.57z"/><path stroke="#000" stroke-width="2" stroke-linejoin="round" stroke-linecap="butt" d="M241.62 122.04l52.57-52.57 52.57 52.57-52.57 52.57z"/><path fill="none" d="M188.76 175.07l52.57-52.57 52.57 52.57-52.57 52.57z"/><path stroke="#000" stroke-width="2" stroke-linejoin="round" stroke-linecap="butt" d="M188.76 175.07l52.57-52.57 52.57 52.57-52.57 52.57z"/><path fill="none" d="M241.62 227.18l52.57-52.57 52.57 52.57-52.57 52.57z"/><path stroke="#000" stroke-width="2" stroke-linejoin="round" stroke-linecap="butt" d="M241.62 227.18l52.57-52.57 52.57 52.57-52.57 52.57z"/><path fill="none" d="M293.9 175.07l52.57-52.57 52.57 52.57-52.57 52.57z"/><path stroke="#000" stroke-width="2" stroke-linejoin="round" stroke-linecap="butt" d="M293.9 175.07l52.57-52.57 52.57 52.57-52.57 52.57z"/><path fill="none" d="M478.65 60.89h95.87v61.61h-95.87zM478.65 143.81H619v61.61H478.65zM2.23 142.37h105.13v65.39H2.23zM-5 223.63h113.35v65.39H-5zM108.35 256.33H263"/><path stroke="#000" stroke-width="2" stroke-linejoin="round" stroke-linecap="butt" d="M108.35 256.33H251"/><path fill="#000" stroke="#000" stroke-width="2" stroke-linecap="butt" d="M251 259.63l9.08-3.3-9.08-3.3z" fill-rule="evenodd"/><path fill="none" d="M478.65 91.7H332.22"/><path stroke="#000" stroke-width="2" stroke-linejoin="round" stroke-linecap="butt" d="M478.65 91.7H344.22"/><path fill="#000" stroke="#000" stroke-width="2" stroke-linecap="butt" d="M344.23 88.39l-9.08 3.3 9.08 3.3z" fill-rule="evenodd"/><path fill="none" d="M478.65 174.61h-68.47"/><path stroke="#000" stroke-width="2" stroke-linejoin="round" stroke-linecap="butt" d="M478.65 174.61h-56.47"/><path fill="#000" stroke="#000" stroke-width="2" stroke-linecap="butt" d="M422.18 171.31l-9.08 3.3 9.08 3.3z" fill-rule="evenodd"/><path fill="none" d="M107.36 175.07h72.19"/><path stroke="#000" stroke-width="2" stroke-linejoin="round" stroke-linecap="butt" d="M107.36 175.07h60.19"/><path fill="#000" stroke="#000" stroke-width="2" stroke-linecap="butt" d="M167.55 178.37l9.08-3.3-9.08-3.3z" fill-rule="evenodd"/></g><g fill="#000" font-family="special elite" font-size="32.5" letter-spacing="0" word-spacing="0"><g style="line-height:125"><path d="M505 93.42v.3q.02.17 0 .36 0 .17-.03.33-.02.14-.08.21-.14.14-.3.19-.16.03-.33.05-.16 0-.33.03-.16.02-.32.11.03.16.14.21.13.03.25.06.14.02.24.1.11.06.11.27 0 .33-.11.56-.1.21-.24.38l-.29.33q-.14.17-.22.44-.1.29-.24.41-.14.13-.32.21-.16.06-.33.14-.17.08-.33.29-.17.19-.29.19-.05 0-.11-.02t-.16-.02q-.08 0-.16.06-.06.05-.06.13 0 .03.03.03t.02.02q-.19.17-.68.41-.49.22-1.13.43-.63.19-1.33.33-.68.13-1.3.13-1.08 0-2.14-.06-1.05-.05-2.14-.05h-2.11q-.05 0-.14.1-.08.1-.19.1-.17 0-.46-.05-.27-.05-.54-.16t-.48-.27q-.19-.17-.19-.4 0-.08.02-.13.02-.06.03-.14.14-.44.4-.67.25-.24.54-.4.3-.17.6-.35.32-.17.56-.49.25-.32.41-.86.16-.54.16-1.44 0-.83-.11-1.63-.1-.81-.1-1.63.02-1.52.06-3.02.06-1.49.08-3.02l.02-2.49q0-.4-.03-.92-.02-.52-.16-1-.13-.49-.43-.83-.29-.35-.83-.4-.27-.02-.62-.14-.35-.13-.67-.33-.3-.22-.52-.49-.22-.27-.22-.59 0-.27.16-.44.16-.19.38-.3.22-.13.48-.17.27-.06.49-.06.51 0 1 .11.49.1 1.02.1.65 0 1.3-.06.67-.06 1.32-.14.65-.1 1.3-.16.67-.06 1.33-.06.56 0 1.11.05l1.11.06q.1.13.33.21.24.08.51.14.29.06.56.11.27.03.41.06.38.08.65.17.29.08.48.24.21.14.35.38.16.24.29.62.02.05.14.14.14.1.32.19.17.1.33.19.16.1.22.16.21.21.41.63.22.41.4.89.17.48.29.94.11.46.11.75 0 .59-.17 1.17-.16.59-.33 1.14-.11.33-.33.63-.21.3-.41.62-.21.3-.36.62-.14.32-.14.67 0 .49.21.98t.48.9q.11.19.25.36.16.17.3.35.16.16.29.35.13.17.22.4.21.51.27 1.06.06.54.06 1.08zm-3-9.7q0-.17-.05-.41-.05-.24-.11-.48-.06-.25-.13-.49-.06-.25-.1-.44-.05-.24-.14-.38-.1-.16-.22-.25-.13-.11-.29-.21-.16-.11-.32-.25-.4-.35-.76-.56-.36-.21-.76-.32-.4-.11-.84-.14-.44-.05-.98-.05-.35 0-.73.02-.36.02-.67.1-.06.03-.08.08-.02.05-.08.1-.05.05-.19.1-.14.03-.44.03-.46 0-.76.13-.29.13-.46.36-.16.22-.22.56-.06.32-.08.73-.02.52-.03 1.08 0 .56-.05 1.11-.05.54-.17 1.06-.11.52-.36 1.02.89.22 1.81.35.92.13 1.81.13.62 0 1.24-.05.63-.05 1.24-.16.22-.05.59-.17.38-.13.73-.32.36-.19.63-.43.29-.24.32-.49.03-.19.13-.35.11-.16.22-.3.13-.16.22-.32.1-.16.1-.36zm.52 10.6q0-.41-.11-.83-.1-.41-.16-.83-.05-.38-.1-.6-.03-.22-.13-.38-.08-.17-.24-.33-.16-.16-.46-.41-.08-.35-.17-.41-.08-.06-.17-.06-.08 0-.17.02h-.16l-.22-.44q-.3-.21-.54-.32-.22-.11-.59-.14-.32-.03-.63-.13-.3-.1-.63-.1-.14 0-.22.11-.08.11-.13.11-.1 0-.22-.03-.13-.05-.27-.08-.14-.05-.3-.08-.14-.05-.27-.05-.71 0-1.4.16-.67.14-1.35.32-.13.33-.25.73-.11.4-.21.81-.1.41-.16.83-.06.4-.06.75 0 .17.03.29.03.1.08.17.05.08.08.16t.03.19q0 .63-.14 1.25-.13.6-.13 1.24 0 .41.11.79.11.38.38.7.32 0 .6.13.29.11.6.11.22 0 .43-.11.22-.11.35-.11.13 0 .19.11.08.11.25.11h.06q.05-.08.17-.13.13-.06.29-.08.17-.03.36-.03.19-.02.37-.02.33 0 .51.02.19.02.43.02.67-.14 1.27-.35.51-.17 1.03-.44.54-.27.84-.63.16-.16.35-.4.21-.24.36-.49.17-.27.29-.54.13-.29.13-.56zM524.03 99.16q0 .56-.38.87-.36.33-.89.49-.52.17-1.09.22-.56.05-.95.05-.52 0-.87-.1-.33-.1-.59-.21-.25-.1-.44-.19-.19-.1-.4-.1-.27 0-.54.1-.25.1-.52.1-.19 0-.32-.06-.11-.06-.19-.16-.08-.08-.16-.14-.06-.06-.16-.06-.11 0-.17.08-.06.1-.14.21-.08.11-.24.19-.14.1-.43.1-.33 0-.65-.08-.32-.06-.65-.06t-.67.11q-.32.13-.6.13-.13 0-.19-.1-.06-.08-.14-.08-.27 0-.57.13-.29.13-.59.13-.16 0-.32-.05-.14-.03-.3-.03-.27 0-.54.13t-.67.13q-.14 0-.63-.05-.48-.03-.98-.11-.51-.08-.92-.21-.4-.11-.4-.25 0-.41.14-.83.16-.41.16-.79v-.03q-.21 0-.24-.22.03-.06.1-.1.08-.05.16-.06.08-.03.14-.08.06-.05.06-.14v-.06q.63.06 1.24.08.62.02 1.29.02.62 0 1.36-.03.76-.05 1.4-.24.65-.19 1.08-.57.44-.4.44-1.09v-.36q-.08-1.75-.17-3.43-.08-1.7-.08-3.44 0-.46-.08-.89-.06-.44-.06-.89 0-.56.19-1.11.21-.56.63-.94-.02-.1-.08-.13-.06-.05-.16-.06-.1-.02-.19-.03-.08-.02-.14-.05-.1-.05-.13-.22-.03-.17-.06-.38-.02-.21-.05-.4-.02-.21-.1-.32.05-.46.16-.9t.11-.9q0-.33-.1-.52-.08-.19-.19-.32t-.21-.22q-.08-.11-.08-.27 0-.13.08-.24l-.13-.02q-.16 0-.24.08-.08.08-.16.17-.06.1-.14.17-.08.08-.22.08-.11 0-.25-.05-.27.08-.51.08-.56 0-1.11-.14-.54-.16-1.09-.16-.3 0-.59.03-.29.02-.57.02-.41 0-.83-.1-.41-.1-.73-.41v-.19q0-.84.56-1.27.57-.43 1.38-.43.56 0 1.09.14.54.14 1.09.14.3 0 .63-.06t.68-.14q.35-.08.7-.14.36-.06.71-.06.54 0 1.02.24.48.22.95.43l-.02.13q0 .14.06.27.08.11.17.24.1.11.16.24.08.11.08.25t-.05.29q-.03.13-.03.27 0 .35.13.67.14.32.14.68 0 .38-.1.75-.08.36-.08.75 0 .46.11.92t.11.92q0 .38-.13.75-.11.36-.11.73 0 .27.06.54.08.25.17.51.1.25.16.52.08.25.08.54v.32q0 .25-.05.49-.03.22-.21.43.08.3.16.65.1.35.1.67 0 .16-.03.35-.02.17-.08.36-.05.17-.14.33-.1.14-.22.24.21.6.27 1.22.06.62.1 1.24.02.19.06.49l.1.6q.05.29.08.54.05.24.05.33 0 .27-.1.52t-.1.52q0 .21.1.44.1.22.35.22.19 0 .32-.08.14-.1.3-.19.16-.11.36-.19.22-.1.59-.1.41 0 .78.11.36.11.78.11.3 0 .6-.05.32-.06.6-.13.3-.08.6-.14.3-.06.62-.06.63 0 1.06.36.44.36.44 1.08zm-9.11-19.76q-.06-.06-.16-.13-.08-.06-.19-.06-.08 0-.14.08-.05.06-.05.14l.08.19q.06.03.1.03.13 0 .21-.08.1-.1.16-.17zm.95 4.41q0-.13-.08-.25-.06-.14-.22-.14-.05 0-.11.02-.05.02-.08.03v.68q.13.06.19.06.16 0 .22-.13.08-.14.08-.27zM543.51 98.99q0 .29-.19.6-.17.32-.46.57-.27.27-.59.44-.32.17-.6.17-.49 0-.97-.08t-.98-.08q-.24 0-.56-.03-.3-.03-.43-.16-.36-.06-.54-.29-.17-.21-.32-.46-.13-.25-.29-.49-.14-.24-.44-.33-.9.4-1.6.76-.68.36-1.36.63-.67.29-1.44.44-.76.17-1.82.17-.46 0-.67-.05-.19-.05-.3-.16-.1-.1-.19-.27-.08-.17-.32-.43-.13-.13-.25-.14-.11-.03-.22-.03h-.08q-.14 0-.27-.05-.11-.06-.17-.32-.05-.19-.19-.43-.14-.25-.33-.51-.17-.25-.36-.46-.19-.21-.35-.32l-.02-1.57q-.02-1.59.1-3.14.11-1.56.11-3.14 0-.24-.02-.65-.02-.43-.08-.86-.05-.43-.19-.76-.13-.35-.36-.41-.36-.08-.75-.06-.36 0-.73-.02-.36-.02-.71-.11-.33-.1-.63-.41-.17-.17-.33-.43-.14-.25-.14-.52 0-.4.33-.67.35-.29.83-.46.48-.17.97-.25.49-.08.79-.08.87 0 1.65.27.79.25 1.44.84.03.03.03.06 0 .02-.02.03.03.46.13.92.1.44.1.9 0 .25-.08.48-.06.22-.06.49t.06.54.06.54q0 .17-.03.35-.03.17-.03.35 0 .49.11.97.11.46.11.95 0 .43-.1.84-.1.4-.22.81-.11.41-.21.83-.1.4-.1.83 0 .59.24 1.09.24.51.63.89.4.36.9.59.52.21 1.09.21.49 0 .79-.1.32-.11.51-.24t.3-.22q.13-.11.25-.11.13 0 .22.03.11.02.22.02.22 0 .36-.1.14-.1.25-.22l.24-.24q.13-.13.32-.17.36-.08.63-.21.27-.14.27-.57 0-.08.02-.14.03-.06.16-.06.08 0 .11.05.05.03.13.06.08-.06.11-.17.03-.11.06-.19.08-.29.29-.51.22-.22.25-.51.03-.32.16-.59.13-.27.13-.57 0-.27-.14-.48-.14-.21-.14-.49 0-.32.11-.63.13-.32.13-.63-.1-.13-.19-.29-.08-.16-.08-.32 0-.27.1-.35.1-.1.1-.19 0-.14-.08-.29-.06-.16-.16-.3-.1-.14-.17-.29-.06-.14-.06-.3 0-.16.05-.3.06-.16.06-.33 0-.25-.13-.44-.11-.21-.3-.33-.17-.14-.41-.21-.22-.08-.44-.11-.4-.05-.68-.05-.29 0-.51-.06-.21-.08-.4-.27-.17-.19-.36-.62-.11-.25-.11-.43 0-.38.33-.6.35-.24.81-.35.46-.13.92-.16.48-.05.75-.05.25 0 .49.05.25.03.51.03.27 0 .52-.1.27-.11.54-.11.38 0 .62.22.24.21.36.56.14.33.19.78.05.43.05.87 0 .59-.05 1.11-.03.52-.03.84 0 .68.13 1.29.14.59.14 1.09 0 .16-.08.32-.06.16-.14.32l-.16.32q-.06.16-.06.32 0 .13.05.22l.11.92q-.08.06-.1.16-.02.1-.02.17 0 .25.05.51.06.24.06.51 0 .3-.06.6-.06.29-.06.59 0 .73.49 1.13.51.38 1.19.38.38 0 .76-.13.11.24.3.43.21.17.4.35.19.17.32.4.14.22.14.54z" style="-inkscape-font-specification:'special elite'"/></g><g style="line-height:125"><path d="M507.74 172.28q0 .1-.03.29-.03.17-.1.35-.06.17-.16.32-.1.13-.22.13-.06 0-.11-.02t-.11-.02q-.11 0-.21.11l-.19.24q-.1.13-.24.24-.13.1-.33.1-.08 0-.24-.03.06.32.1.63.03.32.03.63 0 .51-.06 1-.06.48-.14.97-.08.49-.14.98-.06.49-.06.98 0 .59.08 1.16.1.57.1 1.16 0 .25-.05.54-.05.27-.17.51-.11.24-.32.4-.21.16-.51.16-.44 0-.7-.27-.24-.29-.41-.6-.16-.33-.3-.6-.13-.29-.35-.29-.11 0-.29.13-.16.11-.36.27-.21.16-.46.3-.24.14-.49.19-.3.06-.41.17l-.22.22q-.11.1-.33.17-.21.08-.73.08-.35 0-.7-.03-.33-.03-.68-.03-.25 0-.51.03-.24.03-.49.03-.4 0-.65-.06-.25-.08-.46-.19-.19-.11-.41-.22-.21-.13-.54-.22l-.41-.13q-.16-.06-.29-.13-.13-.08-.25-.17-.13-.11-.33-.29-.13-.1-.29-.19-.16-.1-.3-.19-.14-.11-.25-.24-.1-.13-.11-.32-.02-.14-.05-.21-.03-.06-.1-.1-.05-.03-.13-.05-.06-.03-.17-.1-.19-.29-.29-.59-.1-.3-.19-.59-.1-.3-.24-.57-.14-.29-.43-.52.05-.16.05-.35 0-.33-.13-.63-.13-.32-.29-.62-.14-.32-.27-.63-.13-.33-.13-.7 0-.22.03-.44.05-.22.05-.44 0-.3-.08-.59-.06-.29-.14-.56-.08-.29-.16-.57-.06-.29-.06-.59v-.19q.02-.11.03-.21.1-.57.14-1.16l.1-1.16q.05-.59.11-1.16.06-.59.19-1.16.13-.56.22-1.09.11-.54.11-1.09.13-.17.33-.36.22-.19.43-.38.22-.21.38-.41.17-.22.22-.43.05-.21.25-.51.22-.3.49-.6.29-.3.57-.52.3-.22.51-.25.1-.02.21-.02.13 0 .22-.03.11-.03.19-.1.08-.06.08-.21 0-.11-.05-.24.86-.08 1.7-.27t1.7-.19q.19 0 .6.02t.83.11q.43.08.75.25.32.16.32.44v.08q.05-.02.1-.02h.11q.25 0 .49.1t.49.1q.25 0 .52-.02.29-.03.56-.1.29-.08.51-.21.24-.13.4-.32.35 0 .57.35.22.33.35.79.13.46.17.94.06.46.06.71 0 .38-.06.76-.05.38-.19.75.03.21.13.36l.22.32q.13.14.22.32.1.16.1.36-.11.29-.14.83-.02.52-.1 1.06-.06.52-.27.92-.19.38-.65.38-.32 0-.54-.21-.22-.22-.33-.49l.03.02q.21 0 .21-.19 0-.05-.11-.13-.1-.08-.22-.16-.13-.1-.25-.17-.13-.1-.19-.17-.13-.16-.24-.41-.11-.25-.19-.54-.08-.3-.13-.59-.05-.3-.05-.56v-.14q0-.06.02-.13l-.02.02q-.05-.02-.21-.21-.14-.19-.33-.41-.17-.24-.35-.44-.16-.22-.22-.3-.32-.32-.68-.57-.36-.25-.68-.57-.13.08-.27.14-.13.05-.27.05-.13 0-.21-.05-.08-.06-.16-.13-.08-.08-.17-.14-.1-.06-.25-.06-.35 0-.68.08-.32.08-.67.08-.36 0-.73-.14-.35-.14-.73-.14-.03 0-.1.02-.05.02-.08.03.02.14.08.27t.06.27q0 .22-.19.43-.17.21-.43.4-.24.19-.49.38-.24.17-.36.33-.17.22-.29.48-.1.25-.19.51-.1.24-.25.46-.14.22-.41.36.13.33.13.63 0 .22-.03.43-.03.19-.03.41 0 .51.08 1.02.08.49.08 1 0 .41-.08.83-.06.4-.16.81-.1.4-.17.81-.06.4-.06.81 0 .36.08.7.1.33.21.65.11.32.19.6.1.29.1.54 0 .17-.03.35-.03.17-.03.35 0 .68.3 1.16.3.46.68.87.4.41.76.84.36.41.49 1 .24-.05.46-.05.29 0 .57.06.29.06.56.16.27.08.56.14.29.06.57.06.6 0 1.22-.24.63-.25 1.16-.67.54-.41.94-.95.4-.54.54-1.13.13-.57.36-1.08.1-.19.19-.24.1-.05.17-.06.08-.02.13-.03.05-.02.05-.11 0-.1-.11-.17-.1-.08-.1-.21 0-.05.06-.11.06-.08.14-.17.1-.1.16-.22.06-.14.06-.3 0-.33-.19-.54-.19-.21-.48-.35-.29-.16-.62-.27-.32-.13-.6-.3-.29-.17-.48-.43-.19-.27-.19-.7 0-.35.17-.57.19-.24.46-.38.29-.14.6-.21.32-.08.6-.13.19-.03.41-.11.22-.1.44-.17.22-.1.41-.16.21-.08.36-.08.22 0 .44.1.22.08.44.11.3.05.75.13.46.08.87.24.41.16.7.43.3.25.3.68zM519.45 163.11q0 .46-.16.95-.14.48-.43.89-.29.4-.7.67-.4.25-.89.25-.33 0-.83-.1-.49-.11-.95-.3-.44-.21-.78-.52-.32-.32-.32-.75 0-.38.08-.78.1-.41.11-.83.16-.08.32-.29.16-.21.3-.41.16-.22.3-.4.16-.17.32-.19l-.08.03q.22-.1.46-.16.25-.06.51-.06.33 0 .79.17.48.16.9.43.43.27.73.63t.3.75zm7.68 19.31q0 .27-.11.51-.1.24-.29.41-.17.19-.41.3-.24.11-.52.11-.11 0-.14-.03l-.11-.11q-.22-.24-.54-.29-.32-.03-.67-.08-.33-.03-.65-.17-.3-.13-.49-.54-.13-.27-.27-.35-.14-.08-.44-.08-.7 0-1.33.22-.63.22-1.25.51-.62.27-1.27.49-.63.22-1.32.22-.38 0-.76-.08-.36-.06-.71-.22-.08.08-.19.11-.1.03-.22.03-.11 0-.22-.02-.1-.02-.17-.02-.02 0-.17.05-.16.06-.19.08l.1.16q-.1.14-.43.27-.33.14-.73.24-.38.1-.75.16-.36.06-.56.06-.51 0-.84-.17-.32-.16-.63-.57-.11-.16-.29-.32l-.32-.32q-.14-.17-.25-.36-.1-.19-.1-.4 0-.24.25-.4.25-.16.6-.25.35-.11.7-.14.35-.05.54-.05.38 0 .76.11.38.1.76.1.35 0 .67-.1.32-.1.67-.1.3 0 .59.05.3.03.6.03.38 0 .73-.13.37-.14.68-.36.13-.78.17-1.56.06-.78.06-1.57 0-.78-.13-1.56t-.13-1.54q0-.06.03-.06.03-.02.06-.02.05-.02.08-.03.03-.03.03-.13 0-.33-.1-.65t-.1-.65q0-.41.11-.81.11-.4.11-.81 0-.29-.13-.57-.13-.29-.33-.51-.21-.22-.48-.35-.27-.14-.57-.14-.33 0-.67.08-.32.08-.67.19-.35.1-.71.17-.35.08-.75.08-.46 0-.9-.06t-.9-.14q-.22-.03-.51-.06-.27-.03-.52-.11t-.43-.24q-.17-.16-.17-.46 0-.56.19-.84.21-.3.49-.44.3-.14.67-.17l.7-.06q.6-.05 1.19-.08.6-.05 1.21-.05.75 0 1.46.1.73.08 1.48.08.52 0 1 .16t.83.49q.36.32.57.81.21.49.21 1.14 0 .43-.19.84-.17.4-.46.71.11.21.22.29.11.06.21.13.1.05.16.14.06.08.06.32 0 .13.03.3.05.16.22.17 0 .86-.02 1.7-.02.83-.02 1.67v1.43q.02.71.13 1.43.06.44.25.68.19.24.68.24.71 0 1.41-.14.7-.16 1.41-.16.41 0 .78.21.38.21.71.44.35.24.67.44.32.21.6.21.13 0 .21.1.08.08.11.21.05.11.05.24.02.13.02.22zM545.38 180.25q0 .27-.1.51t-.17.49q-.06.22-.1.36-.02.14-.06.25-.05.1-.16.19-.1.08-.32.19-.48.25-1.02.52-.52.25-1.06.25-.46 0-.87-.21-.4-.22-.75-.48-.33-.27-.62-.49-.27-.22-.46-.22-.21 0-.36.11-.14.11-.3.24-.14.13-.33.24-.17.11-.44.11-.22 0-.46.08-.24.08-.48.19-.24.1-.49.21-.24.1-.44.16-.71.19-1.44.22-.71.03-1.44.03-.19 0-.59-.02-.4 0-.81-.08-.4-.06-.71-.22-.3-.16-.3-.44 0-.06.02-.11-.11.13-.25.21-.14.08-.32.08-.25 0-.62-.35-.36-.35-.7-.81-.33-.46-.57-.9-.24-.46-.24-.68 0-.17.1-.32.11-.14.11-.32 0-.22-.06-.41-.05-.21-.05-.43 0-.29.11-.6.11-.33.27-.65.16-.33.33-.63.17-.32.32-.59.16-.32.44-.51.29-.19.6-.33.32-.14.63-.29.32-.14.56-.38.24.27.62.27.4 0 .78-.11.38-.13.78-.13.32 0 .6.06.3.06.62.06.35 0 .51-.08.17-.1.43-.32.25-.22.63-.33.4-.13.81-.19.43-.08.84-.16.43-.08.76-.22.33-.16.54-.41.21-.27.21-.73 0-.51-.3-1.06-.29-.57-.75-1.03-.46-.48-1.02-.78-.56-.3-1.06-.3-.06 0-.13.02-.06.02-.11.02-.38.06-.86.1-.48.02-.89.14-.41.11-.7.4-.29.27-.29.81 0 .32.05.63.06.3.06.62 0 .48-.24.79-.22.32-.59.51-.35.19-.78.27-.43.06-.83.06-.48 0-.83-.13t-.57-.59q-.17-.33-.38-.71-.19-.4-.19-.79 0-.43.14-.79.16-.38.35-.73.19-.36.36-.71.19-.36.27-.78.11-.06.3-.13.21-.06.43-.13l.44-.11q.22-.06.36-.11.38-.11.73-.25.36-.16.73-.29.38-.13.75-.22.38-.1.78-.11l.49-.02q.68 0 1.4.13.71.11 1.4.36.68.25 1.29.63.62.36 1.09.87.35.38.57.9.24.51.36 1.08.14.57.19 1.16.06.57.06 1.06 0 .67-.05 1.32-.03.63-.03 1.3 0 .63.06 1.27.08.62.17 1.25.1.62.16 1.25.08.62.08 1.24.03.38.1.48.08.08.16.08.35 0 .56-.21.22-.22.4-.48.17-.27.38-.49.21-.22.52-.22.14 0 .29.02.16.02.29.08.13.05.21.16.08.1.08.27zm-5.22-3.95q0-.1-.02-.33 0-.24-.03-.48-.03-.25-.11-.44-.06-.19-.21-.19-.03 0-.08.03-.05.02-.08.02-.6.33-1.03.56-.43.21-.86.35-.41.13-.89.17-.48.05-1.19.05-.1 0-.52.08-.43.08-.94.19-.51.1-.95.21-.44.1-.56.13-.21.08-.3.16-.08.08-.13.17-.05.1-.1.21-.05.1-.17.21-.16.13-.35.21-.17.08-.33.24-.24.24-.44.63-.21.38-.21.73 0 .43.22.76t.59.57q.36.24.83.41.46.17.92.27.48.1.9.14.44.05.76.05.38 0 .9-.05.52-.06 1.05-.17.52-.13.98-.33.46-.21.73-.52.11-.13.16-.22.05-.11.1-.21.06-.11.13-.22.08-.11.24-.24.36-.3.56-.67.21-.36.3-.76.1-.4.11-.83.02-.43.02-.87zM563.04 182.2q0 .56-.38.87-.36.33-.89.49-.52.17-1.09.22-.56.05-.95.05-.52 0-.87-.1-.33-.1-.59-.21-.25-.1-.44-.19-.19-.1-.4-.1-.27 0-.54.1-.25.1-.52.1-.19 0-.32-.06-.11-.06-.19-.16-.08-.08-.16-.14-.06-.06-.16-.06-.11 0-.17.08-.06.1-.14.21-.08.11-.24.19-.14.1-.43.1-.33 0-.65-.08-.32-.06-.65-.06t-.67.11q-.32.13-.6.13-.13 0-.19-.1-.06-.08-.14-.08-.27 0-.57.13-.29.13-.59.13-.16 0-.32-.05-.14-.03-.3-.03-.27 0-.54.13t-.67.13q-.14 0-.63-.05-.48-.03-.98-.11-.51-.08-.92-.21-.4-.11-.4-.25 0-.41.14-.83.16-.41.16-.79v-.03q-.21 0-.24-.22.03-.06.1-.1.08-.05.16-.06.08-.03.14-.08.06-.05.06-.14v-.06q.63.06 1.24.08.62.02 1.29.02.62 0 1.36-.03.76-.05 1.4-.24.65-.19 1.08-.57.44-.4.44-1.09v-.36q-.08-1.75-.17-3.43-.08-1.7-.08-3.44 0-.46-.08-.89-.06-.44-.06-.89 0-.56.19-1.11.21-.56.63-.94-.02-.1-.08-.13-.06-.05-.16-.06-.1-.02-.19-.03-.08-.02-.14-.05-.1-.05-.13-.22-.03-.17-.06-.38-.02-.21-.05-.4-.02-.21-.1-.32.05-.46.16-.9t.11-.9q0-.33-.1-.52-.08-.19-.19-.32t-.21-.22q-.08-.11-.08-.27 0-.13.08-.24l-.13-.02q-.16 0-.24.08-.08.08-.16.17-.06.1-.14.17-.08.08-.22.08-.11 0-.25-.05-.27.08-.51.08-.56 0-1.11-.14-.54-.16-1.09-.16-.3 0-.59.03-.29.02-.57.02-.41 0-.83-.1-.41-.1-.73-.41v-.19q0-.84.56-1.27.57-.43 1.38-.43.56 0 1.09.14.54.14 1.09.14.3 0 .63-.06t.68-.14q.35-.08.7-.14.36-.06.71-.06.54 0 1.02.24.48.22.95.43l-.02.13q0 .14.06.27.08.11.17.24.1.11.16.24.08.11.08.25t-.05.29q-.03.13-.03.27 0 .35.13.67.14.32.14.68 0 .38-.1.75-.08.36-.08.75 0 .46.11.92t.11.92q0 .38-.13.75-.11.36-.11.73 0 .27.06.54.08.25.17.51.1.25.16.52.08.25.08.54v.32q0 .25-.05.49-.03.22-.21.43.08.3.16.65.1.35.1.67 0 .16-.03.35-.02.17-.08.36-.05.17-.14.33-.1.14-.22.24.21.6.27 1.22.06.62.1 1.24.02.19.06.49l.1.6q.05.29.08.54.05.24.05.33 0 .27-.1.52t-.1.52q0 .21.1.44.1.22.35.22.19 0 .32-.08.14-.1.3-.19.16-.11.36-.19.22-.1.59-.1.41 0 .78.11.36.11.78.11.3 0 .6-.05.32-.06.6-.13.3-.08.6-.14.3-.06.62-.06.63 0 1.06.36.44.36.44 1.08zm-9.11-19.76q-.06-.06-.16-.13-.08-.06-.19-.06-.08 0-.14.08-.05.06-.05.14l.08.19q.06.03.1.03.13 0 .21-.08.1-.1.16-.17zm.95 4.41q0-.13-.08-.25-.06-.14-.22-.14-.05 0-.11.02-.05.02-.08.03v.68q.13.06.19.06.16 0 .22-.13.08-.14.08-.27zM580.62 182.2q0 .56-.38.87-.36.33-.89.49-.52.17-1.09.22-.56.05-.95.05-.52 0-.87-.1-.33-.1-.59-.21-.25-.1-.44-.19-.19-.1-.4-.1-.27 0-.54.1-.25.1-.52.1-.19 0-.32-.06-.11-.06-.19-.16-.08-.08-.16-.14-.06-.06-.16-.06-.11 0-.17.08-.06.1-.14.21-.08.11-.24.19-.14.1-.43.1-.33 0-.65-.08-.32-.06-.65-.06t-.67.11q-.32.13-.6.13-.13 0-.19-.1-.06-.08-.14-.08-.27 0-.57.13-.29.13-.59.13-.16 0-.32-.05-.14-.03-.3-.03-.27 0-.54.13t-.67.13q-.14 0-.63-.05-.48-.03-.98-.11-.51-.08-.92-.21-.4-.11-.4-.25 0-.41.14-.83.16-.41.16-.79v-.03q-.21 0-.24-.22.03-.06.1-.1.08-.05.16-.06.08-.03.14-.08.06-.05.06-.14v-.06q.63.06 1.24.08.62.02 1.29.02.62 0 1.36-.03.76-.05 1.4-.24.65-.19 1.08-.57.44-.4.44-1.09v-.36q-.08-1.75-.17-3.43-.08-1.7-.08-3.44 0-.46-.08-.89-.06-.44-.06-.89 0-.56.19-1.11.21-.56.63-.94-.02-.1-.08-.13-.06-.05-.16-.06-.1-.02-.19-.03-.08-.02-.14-.05-.1-.05-.13-.22-.03-.17-.06-.38-.02-.21-.05-.4-.02-.21-.1-.32.05-.46.16-.9t.11-.9q0-.33-.1-.52-.08-.19-.19-.32t-.21-.22q-.08-.11-.08-.27 0-.13.08-.24l-.13-.02q-.16 0-.24.08-.08.08-.16.17-.06.1-.14.17-.08.08-.22.08-.11 0-.25-.05-.27.08-.51.08-.56 0-1.11-.14-.54-.16-1.09-.16-.3 0-.59.03-.29.02-.57.02-.41 0-.83-.1-.41-.1-.73-.41v-.19q0-.84.56-1.27.57-.43 1.38-.43.56 0 1.09.14.54.14 1.09.14.3 0 .63-.06t.68-.14q.35-.08.7-.14.36-.06.71-.06.54 0 1.02.24.48.22.95.43l-.02.13q0 .14.06.27.08.11.17.24.1.11.16.24.08.11.08.25t-.05.29q-.03.13-.03.27 0 .35.13.67.14.32.14.68 0 .38-.1.75-.08.36-.08.75 0 .46.11.92t.11.92q0 .38-.13.75-.11.36-.11.73 0 .27.06.54.08.25.17.51.1.25.16.52.08.25.08.54v.32q0 .25-.05.49-.03.22-.21.43.08.3.16.65.1.35.1.67 0 .16-.03.35-.02.17-.08.36-.05.17-.14.33-.1.14-.22.24.21.6.27 1.22.06.62.1 1.24.02.19.06.49l.1.6q.05.29.08.54.05.24.05.33 0 .27-.1.52t-.1.52q0 .21.1.44.1.22.35.22.19 0 .32-.08.14-.1.3-.19.16-.11.36-.19.22-.1.59-.1.41 0 .78.11.36.11.78.11.3 0 .6-.05.32-.06.6-.13.3-.08.6-.14.3-.06.62-.06.63 0 1.06.36.44.36.44 1.08zm-9.11-19.76q-.06-.06-.16-.13-.08-.06-.19-.06-.08 0-.14.08-.05.06-.05.14l.08.19q.06.03.1.03.13 0 .21-.08.1-.1.16-.17zm.95 4.41q0-.13-.08-.25-.06-.14-.22-.14-.05 0-.11.02-.05.02-.08.03v.68q.13.06.19.06.16 0 .22-.13.08-.14.08-.27zM598.38 176.08q0 .22-.08.43-.06.19-.16.33-.08.14-.16.24-.06.1-.06.11 0 .16.1.33.11.17.11.38 0 .1-.08.13-.06.03-.14.03-.14 0-.24-.03.02.3.05.59.05.29.05.59 0 .46-.1.6-.08.13-.17.16-.1.03-.19.08-.08.03-.08.29 0 .14-.21.36-.19.22-.48.44-.27.22-.57.38-.29.16-.46.16-.05 0-.11-.03 0 .13.02.27t.02.27q0 .21-.13.29-.13.06-.29.13-.24.11-.49.33-.25.21-.52.43t-.56.38q-.27.17-.57.17-.25 0-.48-.13-.21-.13-.49-.13-.25 0-.43.06-.17.08-.33.16-.14.1-.3.16-.16.08-.36.08-.41 0-.83-.22-.41-.21-.79-.33-.22-.08-.48-.13-.25-.03-.49-.08t-.46-.16q-.21-.1-.36-.29-.33-.41-.78-.68-.44-.27-.9-.51t-.89-.49q-.43-.27-.75-.7-.24-.33-.54-.71-.3-.4-.57-.83-.25-.43-.43-.87-.17-.44-.17-.87 0-.32.06-.62t.13-.6q.08-.32.14-.62.06-.3.06-.62v-.17q0-.06-.05-.14-.05-.08-.11-.14-.05-.08-.11-.13-.05-.06-.06-.06-.03 0-.03.02.02-.14.08-.43.08-.3.17-.6.1-.32.19-.57.1-.27.17-.35.1-.08.17-.16.1-.1.1-.24 0-.14-.02-.27-.02-.14-.02-.29 0-.19.05-.22.05-.05.13-.05t.16-.02q.08-.03.16-.17.14-.29.27-.52.14-.25.3-.46.16-.21.36-.38.21-.17.51-.33.25-.14.49-.35.25-.21.51-.41.25-.21.51-.35.27-.14.57-.14.43 0 .83-.14.41-.16.83-.24.65-.1 1.29-.17.65-.1 1.32-.1.36 0 .89.13.52.11 1.06.3.56.19 1.03.43.49.24.78.48v.05q0 .22-.08.46-.08.22-.08.44v.06q0 .03.03.03.27 0 .51-.06.25-.08.52-.08.03.27.24.36.21.1.41.17.19.1.35.35.17.24.32.56.14.3.27.6.14.3.27.49t.22.46q.11.25.17.54.08.29.11.57.03.27.03.51 0 .32-.13.54-.11.21-.25.38-.14.16-.27.32-.11.14-.11.33 0 .11.05.21.05.1.13.17.03-.02.13-.03.11-.02.11-.1v-.02q0-.13-.11-.24-.1-.11-.1-.27 0-.03.03-.1.03-.08.08-.08.1 0 .19.13.1.11.17.25.1.13.14.22.05.1.05.06l-.02-.02q.02.08.02.14.02.05.02.11zm-1.59.13q0-.25-.19-.3-.19-.06-.43-.08-.24-.02-.48-.05-.22-.03-.3-.24v-.16q0-.35-.1-.81-.08-.48-.21-.95-.13-.49-.27-.95-.14-.48-.27-.84t-.21-.59l-.08-.22q-.13.03-.21.03-.27 0-.48-.11-.19-.11-.44-.24-.24-.13-.6-.24-.35-.11-.94-.11-.65 0-1.29-.08-.63-.1-1.29-.1-.89 0-1.67.41-.78.4-1.36 1.06-.59.65-.92 1.48-.33.83-.33 1.67 0 .35.02.83.02.46.08.94.06.46.21.87.14.4.4.6v.44q.06.06.16.08h.21q.11 0 .19.03.08.02.13.13.21.59.54.9.33.3.71.52.38.21.76.43.38.21.7.62.13-.02.27-.02.14-.02.27-.02.51 0 .98.08.49.06.98.06.52 0 .94-.27.43-.27.73-.68.19-.27.35-.46.16-.19.32-.35.17-.17.36-.32.21-.16.48-.35.1-.06.22-.16.14-.1.27-.21.14-.13.24-.24.1-.13.1-.24 0-.14-.05-.29-.03-.14-.03-.29 0-.16.05-.38t.14-.43q.11-.21.25-.33.16-.14.38-.14.17 0 .35.08.17.08.32.19.03-.16.03-.24z" style="-inkscape-font-specification:'special elite'"/></g><g style="line-height:125"><path d="M26.41 179.76q0 .14-.02.38t-.16.32q-.16.08-.21.27-.03.19-.03.38t-.02.35q-.02.14-.13.14-.08 0-.13-.03-.05-.05-.13-.05t-.16.08q-.08.08-.08.16t.05.13q.06.03.06.11 0 .06-.24.16-.24.08-.54.16-.3.1-.59.14-.29.06-.38.06-.57 0-1.14-.21t-1.11-.38q-.65-.22-.97-.73-.3-.51-.44-1.14-.14-.63-.22-1.3-.06-.67-.25-1.19-.08-.24-.08-.4 0-.16.03-.25.05-.11.1-.17.06-.08.1-.13.05-.06.05-.13 0-.19-.11-.38t-.11-.51v-.33q.02-.17.02-.35 0-.59-.11-.97-.1-.38-.29-.7-.17-.32-.43-.63-.24-.32-.54-.76-.14.03-.3.03h-.3q-.32 0-.63-.03-.3-.03-.62-.03-.33 0-.68.06-.33.06-.68.06-.22 0-.44-.06-.22-.08-.44-.08-.27 0-.54.11-.27.1-.49.29-.22.17-.36.43-.13.24-.13.52v.51q0 1.38-.24 2.71l-.06.41q-.03.19-.03.41 0 .65.25 1.05.27.4.65.65.38.24.84.4.46.16.84.33.38.16.63.4.27.24.27.65 0 .16-.06.3-.05.13-.13.25-.21.33-.4.51-.17.16-.4.25-.21.1-.46.14-.25.05-.6.13-.27.06-.57.08-.29.03-.57.03-.44 0-.87-.11-.43-.1-.87-.1-.33 0-.68.06-.33.05-.67.11-.33.08-.67.13-.33.06-.67.06-.22 0-.49-.05-.25-.05-.48-.17-.22-.11-.38-.3-.14-.19-.14-.46 0-.22.11-.4.11-.17.29-.3.19-.13.4-.21.21-.08.4-.1.17-.02.29-.02.13 0 .21-.03.1-.03.19-.1.1-.06.22-.19.08-.08.14-.13.08-.05.19-.05.08 0 .16.02t.16.02q.13 0 .25-.08.33-.19.48-.49.14-.3.19-.65.05-.36.05-.75.02-.38.1-.7.08-.35.08-.65 0-.56-.14-1.09-.13-.54-.13-1.09 0-.67.1-1.33.1-.67.1-1.33 0-.17-.02-.33v-.33q0-1.14.14-2.25t.14-2.25q0-.32-.02-.62t-.05-.62q-.03-.25-.06-.62-.03-.38-.1-.78-.06-.4-.17-.79-.1-.4-.29-.7-.17-.32-.44-.51-.25-.21-.62-.21-.08 0-.17.02-.08.02-.16.02-.17 0-.29-.1-.11-.11-.17-.25-.06-.16-.1-.33-.02-.17-.02-.3 0-.54.27-.79.29-.25.68-.35.41-.1.87-.08.48 0 .84-.03.41-.03.81-.14.41-.11.84-.11.62 0 1.22.16t1.22.16q.51 0 .98-.08.48-.1.95-.25.24-.08.43-.08.62 0 1.22.16t1.21.19q.41.03.86.16.44.11.83.33.4.21.68.54.29.33.36.78.05.27.22.52.17.24.36.44.21.19.35.36.16.16.16.27 0 .11-.11.17-.1.05-.1.17 0 .08.1.17l.24.22q.13.13.22.29.11.14.11.32 0 .24-.16.43-.14.17-.14.41l.03.05.22-.06.03.03q.06.25.05.54v.49q0 .3-.02.67-.02.36-.08.71t-.19.65q-.13.3-.36.48-.14.11-.3.17-.14.05-.29.13-.14.06-.25.17-.11.11-.17.3-.08.27-.27.51t-.4.48q-.19.22-.35.46-.14.24-.14.52 0 .46.21.86.22.4.4.81.17.43.25.87.08.43.11.87.05.44.06.89.03.44.1.89.03.19.14.63.13.43.3.87.17.44.4.78.22.33.46.33.21 0 .33-.22.13-.22.24-.51.13-.29.27-.56.16-.27.41-.36.49.05.81.19.33.14.51.4.17.24.24.6.08.35.08.83zm-4.74-14.6q0-.22-.1-.51-.1-.3-.24-.6-.14-.3-.32-.57-.16-.27-.32-.44-.33 0-.44-.05-.11-.05-.14-.11-.03-.08-.08-.17-.03-.1-.22-.19-.56-.27-1-.41-.44-.14-1.06-.14-.17 0-.35.1-.16.1-.29.1-.36 0-.71-.08-.35-.1-.71-.1-.52 0-1.08.13-.36.1-.73.17-.36.08-.65.24-.29.16-.48.43-.17.27-.17.75 0 .49.1.97.11.48.11.97 0 .24-.08.46-.06.22-.14.44-.08.21-.16.43-.06.22-.06.46 0 .29.05.59.06.29.21.52.14.22.36.36.24.14.59.14.33 0 .63-.13.3-.14.63-.14.17 0 .33.1.16.08.32.17.16.1.33.19.17.08.38.08.16 0 .3-.03.14-.05.27-.11.6-.27 1.27-.48.68-.22 1.35-.22.17 0 .41-.19.24-.21.49-.51.25-.32.51-.68.25-.38.44-.75.21-.38.32-.68.13-.32.13-.49zM44.48 175.31q0 .22-.08.43-.06.19-.16.33-.08.14-.16.24-.06.1-.06.11 0 .16.1.33.11.17.11.38 0 .1-.08.13-.06.03-.14.03-.14 0-.24-.03.02.3.05.59.05.29.05.59 0 .46-.1.6-.08.13-.17.16-.1.03-.19.08-.08.03-.08.29 0 .14-.21.36-.19.22-.48.44-.27.22-.57.38-.29.16-.46.16-.05 0-.11-.03 0 .13.02.27t.02.27q0 .21-.13.29-.13.06-.29.13-.24.11-.49.33-.25.21-.52.43t-.56.38q-.27.17-.57.17-.25 0-.48-.13-.21-.13-.49-.13-.25 0-.43.06-.17.08-.33.16-.14.1-.3.16-.16.08-.36.08-.41 0-.83-.22-.41-.21-.79-.33-.22-.08-.48-.13-.25-.03-.49-.08t-.46-.16q-.21-.1-.36-.29-.33-.41-.78-.68-.44-.27-.9-.51t-.89-.49q-.43-.27-.75-.7-.24-.33-.54-.71-.3-.4-.57-.83-.25-.43-.43-.87-.17-.44-.17-.87 0-.32.06-.62t.13-.6q.08-.32.14-.62.06-.3.06-.62v-.17q0-.06-.05-.14-.05-.08-.11-.14-.05-.08-.11-.13-.05-.06-.06-.06-.03 0-.03.02.02-.14.08-.43.08-.3.17-.6.1-.32.19-.57.1-.27.17-.35.1-.08.17-.16.1-.1.1-.24 0-.14-.02-.27-.02-.14-.02-.29 0-.19.05-.22.05-.05.13-.05t.16-.02q.08-.03.16-.17.14-.29.27-.52.14-.25.3-.46.16-.21.36-.38.21-.17.51-.33.25-.14.49-.35.25-.21.51-.41.25-.21.51-.35.27-.14.57-.14.43 0 .83-.14.41-.16.83-.24.65-.1 1.29-.17.65-.1 1.32-.1.36 0 .89.13.52.11 1.06.3.56.19 1.03.43.49.24.78.48v.05q0 .22-.08.46-.08.22-.08.44v.06q0 .03.03.03.27 0 .51-.06.25-.08.52-.08.03.27.24.36.21.1.41.17.19.1.35.35.17.24.32.56.14.3.27.6.14.3.27.49t.22.46q.11.25.17.54.08.29.11.57.03.27.03.51 0 .32-.13.54-.11.21-.25.38-.14.16-.27.32-.11.14-.11.33 0 .11.05.21.05.1.13.17.03-.02.13-.03.11-.02.11-.1v-.02q0-.13-.11-.24-.1-.11-.1-.27 0-.03.03-.1.03-.08.08-.08.1 0 .19.13.1.11.17.25.1.13.14.22.05.1.05.06l-.02-.02q.02.08.02.14.02.05.02.11zm-1.59.13q0-.25-.19-.3-.19-.06-.43-.08-.24-.02-.48-.05-.22-.03-.3-.24v-.16q0-.35-.1-.81-.08-.48-.21-.95-.13-.49-.27-.95-.14-.48-.27-.84t-.21-.59l-.08-.22q-.13.03-.21.03-.27 0-.48-.11-.19-.11-.44-.24-.24-.13-.6-.24-.35-.11-.94-.11-.65 0-1.29-.08-.63-.1-1.29-.1-.89 0-1.67.41-.78.4-1.36 1.06-.59.65-.92 1.48-.33.83-.33 1.67 0 .35.02.83.02.46.08.94.06.46.21.87.14.4.4.6v.44q.06.06.16.08h.21q.11 0 .19.03.08.02.13.13.21.59.54.9.33.3.71.52.38.21.76.43.38.21.7.62.13-.02.27-.02.14-.02.27-.02.51 0 .98.08.49.06.98.06.52 0 .94-.27.43-.27.73-.68.19-.27.35-.46.16-.19.32-.35.17-.17.36-.32.21-.16.48-.35.1-.06.22-.16.14-.1.27-.21.14-.13.24-.24.1-.13.1-.24 0-.14-.05-.29-.03-.14-.03-.29 0-.16.05-.38t.14-.43q.11-.21.25-.33.16-.14.38-.14.17 0 .35.08.17.08.32.19.03-.16.03-.24zM61.43 177.41q0 .21-.08.41-.06.19-.16.4-.1.19-.19.38-.08.19-.11.4-.08.43-.33.78-.24.33-.56.63-.32.3-.67.59-.35.27-.62.56-.24.24-.51.24-.16 0-.3-.03-.14-.03-.3-.03-.22 0-.36.08-.13.08-.25.17-.11.08-.29.16-.16.08-.44.08-.21 0-.4.11-.19.11-.38.11-.27 0-.63-.16-.35-.16-.78-.16-.27 0-.54.03-.27.02-.54.02-.24 0-.48-.06l-.44-.16q-.21-.1-.43-.16-.22-.08-.46-.08-.48 0-.81.24-.33.24-.6.52-.25.3-.52.54-.25.24-.59.24-.3 0-.41-.11-.1-.1-.13-.24-.02-.14-.03-.32-.02-.16-.14-.29-.24-.25-.32-.46-.08-.22-.08-.57 0-.76.13-1.48.14-.73.14-1.49 0-.27-.06-.52t-.16-.46q-.08-.21-.14-.35-.06-.14-.06-.21 0-.14.08-.3.08-.16.17-.29.11-.14.22-.22.13-.1.21-.1.16 0 .27.08.13.08.24.17.13.08.24.16.13.08.3.08h.05q.02-.02.05-.02.22.36.35.79.13.41.25.83.14.4.33.78.21.36.57.65.1.08.22.17l.25.19q.14.1.27.16.14.06.25.06.17 0 .33-.03.17-.03.35-.03.24 0 .24.16 0 .03-.03.13h.3q.6 0 1.21-.14.6-.14 1.22-.14.29 0 .57.06.3.05.54.22.3-.14.51-.36l.41-.43q.21-.22.46-.38.25-.17.65-.19.08-.1.08-.22.02-.13.02-.24 0-.13.02-.24.03-.11.13-.21.16-.14.24-.29.1-.16.1-.38 0-.43-.24-.79-.24-.38-.62-.68-.36-.32-.86-.56-.48-.25-.98-.43-.49-.17-.95-.25-.46-.1-.81-.1-.4 0-.79.08-.38.06-.75.24 0-.35-.16-.46-.16-.11-.38-.16t-.46-.13q-.22-.1-.35-.4-.27.35-.68.51-.4.16-.81.16-.41 0-.76-.16-.35-.16-.63-.43-.27-.27-.44-.62-.16-.35-.17-.75-.02-.27-.11-.48-.1-.21-.21-.4-.11-.19-.21-.4-.08-.21-.08-.49 0-.71.06-1.11.08-.41.19-.62.11-.22.24-.3.14-.1.29-.17.14-.1.27-.25.13-.16.21-.51.05-.24.14-.32.1-.08.33-.11.21-.03.27-.1.06-.06.08-.14l.06-.16q.03-.1.16-.17.33-.22.65-.27.33-.06.68-.06.21 0 .4.02h.41q.67 0 1.3-.06t1.3-.06q.51 0 .92.11.43.1.75.22.32.13.54.24.24.1.38.1.27 0 .51-.1.25-.11.52-.13.13.11.29.21.17.08.35.08.13 0 .19-.08t.08-.21q.22.06.43.22t.36.38q.17.21.27.46.1.24.1.46 0 .59-.1 1.17-.08.57-.08 1.16 0 .6.16 1.13-.22.17-.49.32-.25.13-.43.36l-.02-.02q-.11-.1-.29-.24-.16-.16-.35-.3-.17-.14-.35-.24-.17-.11-.32-.11h-.03q-.08-.05-.14-.11-.05-.06-.05-.16 0-.16.1-.29.1-.13.1-.29 0-.05-.14-.22-.14-.17-.33-.35-.17-.19-.35-.33-.17-.16-.25-.17-.16-.03-.33-.11t-.35-.16q-.17-.08-.33-.14-.14-.06-.24-.06-.21 0-.41.06-.21.05-.43.06h.02l-.71-.08q-.52-.06-1.03-.25t-1.05-.19q-.48 0-.7.22-.22.22-.36.51-.14.27-.29.49-.14.22-.48.22-.1 0-.14-.02.16.51.29.86.14.35.33.63.19.27.48.52.29.24.73.52.05.03.13.11.1.08.19.17.1.08.17.14.1.06.14.06.27 0 .51-.13.25-.13.52-.13.19 0 .35.1.17.08.36.08.19 0 .36-.06.17-.08.38-.08.08 0 .16.02.1.02.17.03.48.13.95.13.48-.02.97 0 .35 0 .7.13.36.13.7.33.33.19.62.44t.49.52q.16.22.35.4.19.17.36.36.19.17.33.38t.21.48q.08.32.21.7.14.38.14.68zM78.31 177.41q0 .21-.08.41-.06.19-.16.4-.1.19-.19.38-.08.19-.11.4-.08.43-.33.78-.24.33-.56.63-.32.3-.67.59-.35.27-.62.56-.24.24-.51.24-.16 0-.3-.03-.14-.03-.3-.03-.22 0-.36.08-.13.08-.25.17-.11.08-.29.16-.16.08-.44.08-.21 0-.4.11-.19.11-.38.11-.27 0-.63-.16-.35-.16-.78-.16-.27 0-.54.03-.27.02-.54.02-.24 0-.48-.06l-.44-.16q-.21-.1-.43-.16-.22-.08-.46-.08-.48 0-.81.24-.33.24-.6.52-.25.3-.52.54-.25.24-.59.24-.3 0-.41-.11-.1-.1-.13-.24-.02-.14-.03-.32-.02-.16-.14-.29-.24-.25-.32-.46-.08-.22-.08-.57 0-.76.13-1.48.14-.73.14-1.49 0-.27-.06-.52t-.16-.46q-.08-.21-.14-.35-.06-.14-.06-.21 0-.14.08-.3.08-.16.17-.29.11-.14.22-.22.13-.1.21-.1.16 0 .27.08.13.08.24.17.13.08.24.16.13.08.3.08h.05q.02-.02.05-.02.22.36.35.79.13.41.25.83.14.4.33.78.21.36.57.65.1.08.22.17l.25.19q.14.1.27.16.14.06.25.06.17 0 .33-.03.17-.03.35-.03.24 0 .24.16 0 .03-.03.13h.3q.6 0 1.21-.14.6-.14 1.22-.14.29 0 .57.06.3.05.54.22.3-.14.51-.36l.41-.43q.21-.22.46-.38.25-.17.65-.19.08-.1.08-.22.02-.13.02-.24 0-.13.02-.24.03-.11.13-.21.16-.14.24-.29.1-.16.1-.38 0-.43-.24-.79-.24-.38-.62-.68-.36-.32-.86-.56-.48-.25-.98-.43-.49-.17-.95-.25-.46-.1-.81-.1-.4 0-.79.08-.38.06-.75.24 0-.35-.16-.46-.16-.11-.38-.16t-.46-.13q-.22-.1-.35-.4-.27.35-.68.51-.4.16-.81.16-.41 0-.76-.16-.35-.16-.63-.43-.27-.27-.44-.62-.16-.35-.17-.75-.02-.27-.11-.48-.1-.21-.21-.4-.11-.19-.21-.4-.08-.21-.08-.49 0-.71.06-1.11.08-.41.19-.62.11-.22.24-.3.14-.1.29-.17.14-.1.27-.25.13-.16.21-.51.05-.24.14-.32.1-.08.33-.11.21-.03.27-.1.06-.06.08-.14l.06-.16q.03-.1.16-.17.33-.22.65-.27.33-.06.68-.06.21 0 .4.02h.41q.67 0 1.3-.06t1.3-.06q.51 0 .92.11.43.1.75.22.32.13.54.24.24.1.38.1.27 0 .51-.1.25-.11.52-.13.13.11.29.21.17.08.35.08.13 0 .19-.08t.08-.21q.22.06.43.22t.36.38q.17.21.27.46.1.24.1.46 0 .59-.1 1.17-.08.57-.08 1.16 0 .6.16 1.13-.22.17-.49.32-.25.13-.43.36l-.02-.02q-.11-.1-.29-.24-.16-.16-.35-.3-.17-.14-.35-.24-.17-.11-.32-.11h-.03q-.08-.05-.14-.11-.05-.06-.05-.16 0-.16.1-.29.1-.13.1-.29 0-.05-.14-.22-.14-.17-.33-.35-.17-.19-.35-.33-.17-.16-.25-.17-.16-.03-.33-.11t-.35-.16q-.17-.08-.33-.14-.14-.06-.24-.06-.21 0-.41.06-.21.05-.43.06h.02l-.71-.08q-.52-.06-1.03-.25t-1.05-.19q-.48 0-.7.22-.22.22-.36.51-.14.27-.29.49-.14.22-.48.22-.1 0-.14-.02.16.51.29.86.14.35.33.63.19.27.48.52.29.24.73.52.05.03.13.11.1.08.19.17.1.08.17.14.1.06.14.06.27 0 .51-.13.25-.13.52-.13.19 0 .35.1.17.08.36.08.19 0 .36-.06.17-.08.38-.08.08 0 .16.02.1.02.17.03.48.13.95.13.48-.02.97 0 .35 0 .7.13.36.13.7.33.33.19.62.44t.49.52q.16.22.35.4.19.17.36.36.19.17.33.38t.21.48q.08.32.21.7.14.38.14.68zM97.23 175.31q0 .22-.08.43-.06.19-.16.33-.08.14-.16.24-.06.1-.06.11 0 .16.1.33.11.17.11.38 0 .1-.08.13-.06.03-.14.03-.14 0-.24-.03.02.3.05.59.05.29.05.59 0 .46-.1.6-.08.13-.17.16-.1.03-.19.08-.08.03-.08.29 0 .14-.21.36-.19.22-.48.44-.27.22-.57.38-.29.16-.46.16-.05 0-.11-.03 0 .13.02.27t.02.27q0 .21-.13.29-.13.06-.29.13-.24.11-.49.33-.25.21-.52.43t-.56.38q-.27.17-.57.17-.25 0-.48-.13-.21-.13-.49-.13-.25 0-.43.06-.17.08-.33.16-.14.1-.3.16-.16.08-.36.08-.41 0-.83-.22-.41-.21-.79-.33-.22-.08-.48-.13-.25-.03-.49-.08t-.46-.16q-.21-.1-.36-.29-.33-.41-.78-.68-.44-.27-.9-.51t-.89-.49q-.43-.27-.75-.7-.24-.33-.54-.71-.3-.4-.57-.83-.25-.43-.43-.87-.17-.44-.17-.87 0-.32.06-.62t.13-.6q.08-.32.14-.62.06-.3.06-.62v-.17q0-.06-.05-.14-.05-.08-.11-.14-.05-.08-.11-.13-.05-.06-.06-.06-.03 0-.03.02.02-.14.08-.43.08-.3.17-.6.1-.32.19-.57.1-.27.17-.35.1-.08.17-.16.1-.1.1-.24 0-.14-.02-.27-.02-.14-.02-.29 0-.19.05-.22.05-.05.13-.05t.16-.02q.08-.03.16-.17.14-.29.27-.52.14-.25.3-.46.16-.21.36-.38.21-.17.51-.33.25-.14.49-.35.25-.21.51-.41.25-.21.51-.35.27-.14.57-.14.43 0 .83-.14.41-.16.83-.24.65-.1 1.29-.17.65-.1 1.32-.1.36 0 .89.13.52.11 1.06.3.56.19 1.03.43.49.24.78.48v.05q0 .22-.08.46-.08.22-.08.44v.06q0 .03.03.03.27 0 .51-.06.25-.08.52-.08.03.27.24.36.21.1.41.17.19.1.35.35.17.24.32.56.14.3.27.6.14.3.27.49t.22.46q.11.25.17.54.08.29.11.57.03.27.03.51 0 .32-.13.54-.11.21-.25.38-.14.16-.27.32-.11.14-.11.33 0 .11.05.21.05.1.13.17.03-.02.13-.03.11-.02.11-.1v-.02q0-.13-.11-.24-.1-.11-.1-.27 0-.03.03-.1.03-.08.08-.08.1 0 .19.13.1.11.17.25.1.13.14.22.05.1.05.06l-.02-.02q.02.08.02.14.02.05.02.11zm-1.59.13q0-.25-.19-.3-.19-.06-.43-.08-.24-.02-.48-.05-.22-.03-.3-.24v-.16q0-.35-.1-.81-.08-.48-.21-.95-.13-.49-.27-.95-.14-.48-.27-.84t-.21-.59l-.08-.22q-.13.03-.21.03-.27 0-.48-.11-.19-.11-.44-.24-.24-.13-.6-.24-.35-.11-.94-.11-.65 0-1.29-.08-.63-.1-1.29-.1-.89 0-1.67.41-.78.4-1.36 1.06-.59.65-.92 1.48-.33.83-.33 1.67 0 .35.02.83.02.46.08.94.06.46.21.87.14.4.4.6v.44q.06.06.16.08h.21q.11 0 .19.03.08.02.13.13.21.59.54.9.33.3.71.52.38.21.76.43.38.21.7.62.13-.02.27-.02.14-.02.27-.02.51 0 .98.08.49.06.98.06.52 0 .94-.27.43-.27.73-.68.19-.27.35-.46.16-.19.32-.35.17-.17.36-.32.21-.16.48-.35.1-.06.22-.16.14-.1.27-.21.14-.13.24-.24.1-.13.1-.24 0-.14-.05-.29-.03-.14-.03-.29 0-.16.05-.38t.14-.43q.11-.21.25-.33.16-.14.38-.14.17 0 .35.08.17.08.32.19.03-.16.03-.24z" style="-inkscape-font-specification:'special elite'"/></g><g style="line-height:125"><path d="M26.69 241.36q0 .57-.19.9-.17.32-.48.52-.29.19-.67.32-.38.11-.78.25-.38.13-.76.35-.38.21-.68.59-.27.35-.41.78-.14.41-.25.86-.11.44-.25.89-.13.43-.41.81-.08.11-.14.22-.05.1-.05.24 0 .19.05.38.05.17.05.35 0 .16-.06.56-.05.38-.14.87-.1.48-.24 1-.13.52-.29.97-.14.44-.32.75-.16.3-.32.35.25.71.25 1.56 0 .51-.05.7-.03.17-.11.24-.06.06-.16.13-.08.06-.16.32-.19.6-.44 1.19-.24.59-.24 1.22 0 .16-.08.48-.06.3-.19.62t-.29.56q-.16.24-.35.24.02.16.08.3.08.14.16.29.1.13.16.29.08.14.08.3 0 .05-.1.29-.08.24-.22.52-.14.29-.32.56-.17.27-.36.38-.13.08-.32.16-.17.1-.36.16-.19.08-.4.13-.19.05-.35.05-.08 0-.33-.1-.24-.08-.52-.21-.27-.11-.52-.22-.24-.13-.29-.17-.13-.13-.27-.51-.13-.4-.27-.86-.13-.48-.24-.9-.11-.44-.19-.67-.21-.56-.4-1.09-.19-.56-.35-1.11-.08-.25-.14-.49-.06-.25-.17-.48v-.1q0-.24.08-.44.1-.22.1-.46 0-.16-.08-.35-.19-.6-.35-1.21-.16-.6-.33-1.21-.08-.29-.22-.59-.13-.3-.25-.6-.13-.32-.22-.62-.08-.32-.08-.6 0-.46.24-.84-.14-.38-.3-.75-.14-.38-.25-.78-.16-.59-.21-1.14-.05-.56-.13-1.09-.06-.54-.22-1.06-.14-.54-.51-1.08-.25-.36-.46-.52-.21-.17-.43-.24-.22-.08-.49-.1-.27-.02-.65-.08-.52-.1-.95-.43-.43-.33-.43-.92 0-.3.19-.49.21-.19.52-.3.32-.11.71-.16.4-.06.78-.1.38-.05.71-.08.33-.03.52-.11.24-.08.46-.14.24-.06.51-.06.33 0 .65.05t.65.08q.38.03.73.06.36.03.67.14.32.11.56.35.24.22.36.65.08.24.08.44 0 .33-.19.57-.17.22-.44.4-.25.16-.56.3-.3.13-.54.25l.02.14q0 .29-.1.56-.1.27-.36.43.27.17.33.46.06.27.06.59.02.32.05.65.03.32.24.57.27.33.33.7.08.36.08.76v.59q0 .27.02.54.03.25.13.51.05.14.11.29.06.13.06.29 0 .14-.08.24-.08.1-.21.16.17.41.35.87.17.44.56.71-.02.08-.02.17v.17q0 .22.03.48.03.25.08.51.06.25.14.49.08.24.19.43l.03.02v.08q0 .21-.13.38-.11.16-.11.36 0 .16.1.36.11.19.25.4.14.19.3.38.16.17.25.29h.1q.35 0 .59-.14.24-.16.38-.4.16-.24.24-.54.1-.3.17-.6.05-.16.13-.62.08-.46.21-.95.13-.49.29-.87.17-.4.36-.4h.03q-.03-.14-.11-.27t-.17-.25q-.08-.14-.14-.27-.06-.13-.06-.27 0-.13.03-.24.05-.13.11-.24.19-.41.3-.7.13-.3.19-.57.08-.29.13-.59.05-.32.1-.76.02-.13.14-.48.13-.36.29-.75.17-.4.33-.73.16-.35.24-.46v.02q.02-.08.02-.13.02-.06.02-.14 0-.1-.05-.19-.03-.1-.03-.19 0-.22.14-.38.14-.17.14-.4 0-.22-.13-.43-.13-.22-.3-.41-.17-.19-.38-.36-.19-.17-.33-.32h-.46q-.17-.21-.27-.44-.08-.25-.25-.46-.1-.1-.19-.21-.1-.11-.1-.25 0-.17.08-.4.1-.22.14-.4.06-.27.11-.38.06-.13.14-.17.1-.06.22-.08.14-.03.38-.11.25-.1.51-.1.14 0 .27.02.14.02.27.02.17 0 .43-.06.25-.08.54-.16.3-.1.63-.16.33-.08.67-.08.38 0 .73.13t.73.13q.13 0 .25-.02.14-.02.27-.02.22 0 .41.06.21.06.4.16.24.11.49.19.25.06.51.14.27.06.52.16t.48.24v.27zM41.25 260.16q0 .43-.14.73-.13.3-.35.54-.21.24-.49.44-.27.21-.56.44-.22.19-.4.29-.17.1-.35.16l-.35.13q-.17.06-.41.17-.32.16-.54.3-.21.13-.43.24-.21.11-.46.17-.25.08-.63.13-.63.08-1.29.19-.63.11-1.27.11-.13 0-.27-.06-.13-.05-.3-.11-.17-.05-.4-.11-.21-.05-.51-.05-.32 0-.51-.1t-.35-.22q-.14-.13-.3-.27-.16-.16-.41-.27-.95-.43-1.62-1.03-.67-.6-1.14-1.35-.48-.75-.79-1.62-.32-.87-.54-1.82-.17-.67-.17-1.33 0-.87.41-1.62-.16-.44-.16-.86 0-.3.17-.89.17-.6.44-1.21.29-.6.6-1.08.33-.49.62-.6.22-.08.3-.13.1-.06.1-.32 0-.19.14-.32.16-.13.36-.21.22-.08.43-.14.22-.06.36-.13.59-.29 1.11-.48.54-.21 1.06-.33.54-.14 1.11-.21.57-.06 1.22-.06.35 0 .68.1.33.1.63.25.32.14.62.33.3.17.59.35h-.02q.24.03.44.14.22.1.46.13.22.27.57.52.36.24.7.51.35.27.59.59.25.3.25.7 0 .06-.02.13 0 .06-.02.14l.06-.08q.06.05.11.16.06.11.11.25.05.13.08.27l.05.21q.13.21.33.33.22.13.35.35-.16.16-.16.41 0 .27.11.54.11.25.11.52 0 .32-.03.62-.03.29-.03.6 0 .24-.19.36-.17.13-.4.22-.21.1-.38.19-.17.1-.17.27 0 .13-.16.13-.14-.02-.24-.02-.7 0-1.4-.17-.68-.17-1.36-.17-.75 0-1.48.11-.73.1-1.48.1-.56 0-1.11-.03-.54-.03-1.09-.03-.14 0-.54.06-.4.05-.84.14-.43.08-.83.21-.4.11-.56.22-.02.08-.02.22 0 .75.43 1.54.44.79 1.16 1.44.71.65 1.6 1.08.89.43 1.79.43.52 0 1.03.05.52.03 1.02.22.43-.21.78-.48.36-.27.7-.57.33-.3.65-.62t.65-.63q.06-.06.3-.11.25-.06.54-.1.29-.05.54-.06.27-.03.36-.03.36 0 .68.11.1.36.1.71zm-2.38-6.44q0-.24-.08-.46-.08-.22-.13-.46-.08-.44-.08-.86 0-.43-.13-.86h-.02q0 .1-.06.19-.06.08-.17.08-.19 0-.36-.1-.17-.1-.3-.24-.6-.27-1.09-.51-.48-.24-.97-.41-.48-.19-1.03-.29-.54-.11-1.25-.11-.06 0-.13.02-.05 0-.1.05l.08.17-.13.03q-.43.08-.71.16-.27.06-.49.19-.22.13-.44.32-.21.17-.54.46-.16.14-.35.22-.17.06-.36.13-.17.05-.35.11-.16.06-.27.21-.11.4-.33.78-.21.36-.21.78 0 .24.19.43.21.17.51.3.32.13.68.22.38.1.75.14.36.05.67.08.32.02.49.02.6 0 1.19-.11.59-.13 1.19-.13.62 0 1.24.06.62.05 1.24.05.16 0 .48-.02.32-.02.62-.08.32-.08.54-.21.24-.14.24-.36zM61.06 251.89q0 .32-.13.54-.13.22-.29.43-.14.19-.3.4-.14.21-.19.49-.14-.06-.3-.08-.14-.02-.3-.02-.38 0-.76.06-.36.05-.73.05-.43 0-.71-.25-.27-.27-.44-.65-.16-.38-.22-.81-.06-.44-.06-.79 0-.44.14-.9-.13-.05-.22-.05-.21 0-.3.13-.08.13-.24.13-.14 0-.25-.1-.11-.11-.27-.11-.24 0-.6.16-.35.14-.68.38-.33.24-.59.52-.24.27-.24.52-.33.03-.63.19-.29.14-.56.32-.21.13-.35.4-.14.27-.27.59-.11.3-.24.62-.11.32-.27.52-.27.35-.48.71-.19.35-.19.79 0 .56.17 1.13.17.57.17 1.16 0 .38-.06.76-.05.38-.05.75 0 .44.16.71.16.27.43.43.27.14.62.19.35.05.71.05.4 0 .76-.02.38-.03.7-.03.11.13.13.24.02.11-.02.24-.02.11-.06.24-.03.11-.03.27 0 .06.03.16.24 0 .41-.11.17-.11.25-.35.11.03.19.1.1.06.1.19 0 .1-.05.19-.05.08-.11.16t-.11.17q-.05.08-.05.19 0 .06.02.14.02.06.05.11-.08.13-.22.17-.14.05-.29.05-.25 0-.43-.08-.16-.08-.3-.17-.13-.1-.24-.17-.11-.08-.27-.08-.06 0-.19.03t-.25.08q-.13.05-.22.13-.1.06-.1.13 0 .13.08.22.1.1.1.22 0 .11-.08.17-.08.06-.19.08-.11.03-.24.03-.11.02-.19.02-.62 0-1.24-.14-.6-.13-1.22-.13-.29 0-.57.13-.29.13-.6.13-.17 0-.27-.08-.08-.06-.14-.16-.06-.1-.14-.17-.08-.06-.24-.06-.3 0-.6.06-.29.06-.59.13-.29.08-.59.13-.29.06-.59.06-.16 0-.38-.05-.22-.03-.43-.13t-.35-.24q-.14-.14-.14-.35 0-.13.14-.33.16-.21.35-.4.19-.21.38-.35.19-.14.29-.14.25 0 .49.02.25.02.52.02.43 0 .86-.13.44-.14.79-.4.36-.25.59-.63.22-.38.22-.86 0-.21-.03-.4-.03-.21-.03-.41 0-.41.1-.83.1-.41.1-.83 0-.56-.13-1.13-.11-.59-.11-1.17 0-.52.02-1.03.03-.52.03-1.05 0-.24-.02-.7-.02-.46-.11-.92-.08-.46-.27-.81-.17-.35-.49-.35-.35 0-.7.08t-.71.08q-.27 0-.63-.03-.36-.05-.7-.16-.33-.13-.57-.35-.24-.22-.24-.59 0-.4.11-.63.11-.25.29-.38.19-.13.43-.17.25-.05.54-.05.25 0 .52.02t.52.02q.51 0 1-.05.51-.06 1.02-.06.35 0 .7.03t.68.14q.3.1.44.36.14.25.25.52.13.27.29.49.16.21.51.21.16 0 .29-.08.14-.1.27-.21l.25-.21q.13-.1.3-.13.35-.05.63-.22.3-.17.59-.35.29-.17.57-.32.3-.14.65-.14.21 0 .51-.05.32-.05.62-.13.32-.1.59-.22.29-.13.44-.29.43.03 1 .21.59.17 1.11.48.54.29.94.68.4.4.46.89.05.3.17.57.13.27.25.54.14.25.25.54.11.27.11.57zM80.93 262.8q0 .21-.11.41-.1.21-.33.21-.17 0-.32-.03-.14-.05-.32-.05-.25 0-.27.1 0 .1-.03.21-.03.13-.24.22-.19.1-.83.1-.36 0-.73-.06-.35-.06-.71-.06-.27 0-.59.08-.13-.16-.29-.24-.14-.08-.29-.17-.13-.08-.22-.21-.1-.13-.1-.38 0-.17-.22-.17-.08 0-.16.02-.06.02-.14.02-.08 0-.14-.03-.05-.05-.05-.13 0-.03.02-.05-.33.02-.51.22-.17.21-.38.43-.14.14-.3.22-.16.06-.33.11-.16.06-.35.14-.17.08-.35.24-.14.14-.48.21-.33.08-.71.11-.36.05-.73.05-.35.02-.56.02-.48 0-.78-.08-.29-.08-.52-.21-.22-.11-.48-.25-.25-.13-.65-.25-.43-.13-1.03-.48-.6-.35-1.16-.81-.54-.46-.92-.98-.38-.54-.38-1.03 0-.22-.11-.44-.1-.24-.25-.44-.14-.22-.3-.43-.16-.22-.25-.41-.3-.6-.4-1.27-.08-.67-.08-1.33 0-.62.1-1.17.1-.57.24-1.11.14-.56.29-1.09.16-.54.29-1.13.08-.41.22-.62.14-.22.32-.38.19-.16.4-.3.22-.14.44-.41.1-.11.11-.19.03-.1.05-.14.03-.06.1-.08.08-.03.29-.03.13 0 .19-.08.08-.08.14-.19.06-.11.11-.22.06-.13.16-.19t.24-.1q.14-.03.3-.05.16-.02.3-.03.16-.02.29-.06.33-.14.54-.25.22-.11.41-.19.21-.1.46-.14.25-.05.67-.05.54 0 1.06.14.54.13 1.06.29.52.16 1.05.3.52.13 1.08.13.44 0 .7-.19.27-.19.4-.49.14-.3.17-.67.05-.36.05-.71 0-.62-.08-1.22-.08-.62-.11-1.22l-.14.06q-.16 0-.29-.08-.13-.1-.24-.19-.11-.11-.24-.19-.13-.1-.29-.1-.17 0-.22.1-.05.08-.16.16-.17.02-.36.03H71.9q-.22 0-.51-.13-.27-.14-.52-.35-.25-.22-.43-.46-.16-.25-.16-.49 0-.21.13-.43.14-.24.33-.43.21-.19.44-.3.24-.13.46-.13.21 0 .38.11.17.1.38.1.35 0 .67-.11.33-.11.7-.11.36 0 .68.13.33.11.7.11.27 0 .54-.02.29-.02.56-.02.29 0 .57.05.3.05.56.19v.1q0 .22.05.44.06.21.13.43.08.21.13.41.06.21.06.43 0 .29-.14.56-.13.25-.13.56 0 .56.13 1.11.13.54.13 1.09 0 1.4-.02 2.79-.02 1.38-.02 2.79 0 1.43-.1 2.84-.1 1.4-.1 2.82 0 .52.05 1.19.05.65.25 1.24.21.57.6.97.41.4 1.13.4.14 0 .27-.02.14-.03.29-.03.21 0 .36.11.16.11.27.29.11.17.16.38.06.21.06.38zm-5.76-7.87q0-.59-.11-1.25-.1-.67-.36-1.24-.25-.59-.71-.98-.44-.4-1.13-.43-.14-.02-.35-.13-.19-.11-.4-.24-.21-.13-.41-.22-.19-.11-.35-.11-.14 0-.27.06-.13.05-.25.13-.13.06-.25.13-.13.05-.29.05-.27 0-.52-.03-.24-.03-.51-.03-.79 0-1.44.48-.63.48-1.09 1.19-.46.7-.71 1.52-.25.81-.25 1.49 0 .29.03.57.05.29.05.57 0 .19-.11.32-.1.11-.24.24-.13.11-.24.25-.1.13-.1.32h.13q.41 0 .63.16.24.14.35.4.13.24.19.56.08.32.17.65.1.32.27.62.19.3.54.54l.56.38q.32.21.65.38.35.17.68.3.35.11.67.11.51 0 1-.14.49-.16 1-.16.19 0 .41.05.36-.57.84-1.08.49-.52 1.19-.73l-.02-.35q0-.52.11-1.02.13-.51.27-1.03t.25-1.08q.13-.56.13-1.21zM97.43 260.16q0 .43-.14.73-.13.3-.35.54-.21.24-.49.44-.27.21-.56.44-.22.19-.4.29-.17.1-.35.16l-.35.13q-.17.06-.41.17-.32.16-.54.3-.21.13-.43.24-.21.11-.46.17-.25.08-.63.13-.63.08-1.29.19-.63.11-1.27.11-.13 0-.27-.06-.13-.05-.3-.11-.17-.05-.4-.11-.21-.05-.51-.05-.32 0-.51-.1t-.35-.22q-.14-.13-.3-.27-.16-.16-.41-.27-.95-.43-1.62-1.03-.67-.6-1.14-1.35-.48-.75-.79-1.62-.32-.87-.54-1.82-.17-.67-.17-1.33 0-.87.41-1.62-.16-.44-.16-.86 0-.3.17-.89.17-.6.44-1.21.29-.6.6-1.08.33-.49.62-.6.22-.08.3-.13.1-.06.1-.32 0-.19.14-.32.16-.13.36-.21.22-.08.43-.14.22-.06.36-.13.59-.29 1.11-.48.54-.21 1.06-.33.54-.14 1.11-.21.57-.06 1.22-.06.35 0 .68.1.33.1.63.25.32.14.62.33.3.17.59.35h-.02q.24.03.44.14.22.1.46.13.22.27.57.52.36.24.7.51.35.27.59.59.25.3.25.7 0 .06-.02.13 0 .06-.02.14l.06-.08q.06.05.11.16.06.11.11.25.05.13.08.27l.05.21q.13.21.33.33.22.13.35.35-.16.16-.16.41 0 .27.11.54.11.25.11.52 0 .32-.03.62-.03.29-.03.6 0 .24-.19.36-.17.13-.4.22-.21.1-.38.19-.17.1-.17.27 0 .13-.16.13-.14-.02-.24-.02-.7 0-1.4-.17-.68-.17-1.36-.17-.75 0-1.48.11-.73.1-1.48.1-.56 0-1.11-.03-.54-.03-1.09-.03-.14 0-.54.06-.4.05-.84.14-.43.08-.83.21-.4.11-.56.22-.02.08-.02.22 0 .75.43 1.54.44.79 1.16 1.44.71.65 1.6 1.08.89.43 1.79.43.52 0 1.03.05.52.03 1.02.22.43-.21.78-.48.36-.27.7-.57.33-.3.65-.62t.65-.63q.06-.06.3-.11.25-.06.54-.1.29-.05.54-.06.27-.03.36-.03.36 0 .68.11.1.36.1.71zm-2.38-6.44q0-.24-.08-.46-.08-.22-.13-.46-.08-.44-.08-.86 0-.43-.13-.86h-.02q0 .1-.06.19-.06.08-.17.08-.19 0-.36-.1-.17-.1-.3-.24-.6-.27-1.09-.51-.48-.24-.97-.41-.48-.19-1.03-.29-.54-.11-1.25-.11-.06 0-.13.02-.05 0-.1.05l.08.17-.13.03q-.43.08-.71.16-.27.06-.49.19-.22.13-.44.32-.21.17-.54.46-.16.14-.35.22-.17.06-.36.13-.17.05-.35.11-.16.06-.27.21-.11.4-.33.78-.21.36-.21.78 0 .24.19.43.21.17.51.3.32.13.68.22.38.1.75.14.36.05.67.08.32.02.49.02.6 0 1.19-.11.59-.13 1.19-.13.62 0 1.24.06.62.05 1.24.05.16 0 .48-.02.32-.02.62-.08.32-.08.54-.21.24-.14.24-.36z" style="-inkscape-font-specification:'special elite'"/></g></g></svg>