<svg viewBox="0.0 0.0 348.0 456.0" fill="none" stroke-linecap="square" stroke-miterlimit="10" xmlns="http://www.w3.org/2000/svg"><clipPath id="a"><path d="M0 0h348v456H0V0z"/></clipPath><g clip-path="url(#a)"><path d="M0 0h348v456H0z"/><path fill="#fff" d="M-6 108.016h348v347.968H-6z"/><path fill="#fff" d="M-6.001 108.03h348V456h-348z"/><path d="M5.077 113.806h336.914v337.67H5.077z"/><path stroke="#000" stroke-width="2" stroke-linejoin="round" stroke-linecap="butt" d="M5.077 113.806h336.914v337.67H5.077z"/><path fill="#fff" d="M21.44 206.59h304.19v208.032H21.44z"/><path stroke="#000" stroke-width="2" stroke-linejoin="round" stroke-linecap="butt" d="M21.44 206.59h304.19v208.032H21.44z"/><path d="M29.202 217.948H317.99v181.638H29.202z"/><path fill="#000" d="M54.346 330.647l11.812-1q1.313 8.625 6.094 12.969 4.781 4.343 11.531 4.343 8.125 0 13.75-6.125t5.625-16.25q0-9.625-5.406-15.187-5.406-5.563-14.156-5.563-5.438 0-9.813 2.469-4.375 2.469-6.875 6.406l-10.562-1.375 8.875-47.062h45.562v10.75H74.221l-4.938 24.625q8.25-5.75 17.313-5.75 12 0 20.25 8.312 8.25 8.313 8.25 21.375 0 12.438-7.25 21.5-8.813 11.125-24.063 11.125-12.5 0-20.406-7-7.906-7-9.031-18.562zm77.437-29.563v-12.812h12.813v12.812h-12.813zm0 53.563v-12.813h12.813v12.813h-12.813zm29.313-45.188q0-16.25 3.344-26.156 3.343-9.906 9.937-15.281 6.594-5.375 16.594-5.375 7.375 0 12.937 2.969 5.563 2.968 9.188 8.562 3.625 5.594 5.687 13.625 2.063 8.031 2.063 21.656 0 16.125-3.313 26.032-3.312 9.906-9.906 15.312-6.594 5.406-16.656 5.406-13.25 0-20.813-9.5-9.062-11.437-9.062-37.25zm11.562 0q0 22.563 5.282 30.032 5.28 7.468 13.03 7.468 7.75 0 13.032-7.5 5.281-7.5 5.281-30 0-22.625-5.281-30.062-5.281-7.438-13.156-7.438-7.75 0-12.375 6.563-5.813 8.375-5.813 30.937zm59.625 0q0-16.25 3.344-26.156 3.344-9.906 9.938-15.281 6.593-5.375 16.593-5.375 7.375 0 12.938 2.969 5.562 2.968 9.187 8.562 3.625 5.594 5.688 13.625 2.062 8.031 2.062 21.656 0 16.125-3.312 26.032-3.313 9.906-9.906 15.312-6.594 5.406-16.657 5.406-13.25 0-20.812-9.5-9.063-11.437-9.063-37.25zm11.563 0q0 22.563 5.281 30.032 5.281 7.468 13.031 7.468 7.75 0 13.032-7.5 5.28-7.5 5.28-30 0-22.625-5.28-30.062-5.282-7.438-13.157-7.438-7.75 0-12.375 6.563-5.812 8.375-5.812 30.937z"/><path d="M123.682 133.38h106.646v63.402H123.682z"/><path stroke="#000" stroke-width="16" stroke-linejoin="round" stroke-linecap="butt" d="M123.682 133.38h106.646v63.402H123.682z"/><path d="M247.942 165.081c0-17.507 15.067-31.7 33.654-31.7 8.925 0 17.485 3.34 23.796 9.285 6.312 5.945 9.857 14.008 9.857 22.415 0 17.508-15.067 31.701-33.653 31.701-18.587 0-33.654-14.193-33.654-31.7z"/><path stroke="#000" stroke-width="2" stroke-linejoin="round" stroke-linecap="butt" d="M247.942 165.081c0-17.507 15.067-31.7 33.654-31.7 8.925 0 17.485 3.34 23.796 9.285 6.312 5.945 9.857 14.008 9.857 22.415 0 17.508-15.067 31.701-33.653 31.701-18.587 0-33.654-14.193-33.654-31.7z"/><path d="M177.005 8v113.354"/><path stroke="#000" stroke-width="8" stroke-linejoin="round" stroke-linecap="butt" d="M177.005 8v65.354"/><path fill="#000" stroke="#000" stroke-width="8" stroke-linecap="butt" d="M163.791 73.354l13.214 36.305 13.214-36.305z" fill-rule="evenodd"/><path d="M131.803 111.75h56.347v98.331h-56.347z"/><path fill="#000" d="M141.272 182.19l12.125-17.25-11.219-15.937h7.031l5.094 7.781q1.438 2.22 2.313 3.72 1.375-2.063 2.53-3.657l5.595-7.844h6.718l-11.468 15.625 12.343 17.563h-6.906l-6.812-10.313-1.813-2.781-8.719 13.094h-6.812z"/></g></svg>