<svg viewBox="0.0 0.0 348.0 348.0" fill="none" stroke-linecap="square" stroke-miterlimit="10" xmlns="http://www.w3.org/2000/svg"><clipPath id="a"><path d="M0 0h348v348H0V0z"/></clipPath><g clip-path="url(#a)"><path d="M0 0h348v348H0z"/><path fill="#fff" d="M-6 0h348v347.969H-6z"/><path d="M5.543 5.164h336.914v337.67H5.543z"/><path stroke="#000" stroke-width="2" stroke-linejoin="round" stroke-linecap="butt" d="M5.543 5.164h336.914v337.67H5.543z"/><path fill="#fff" d="M282.734 40.554c0-8.376 6.966-15.165 15.56-15.165 4.126 0 8.084 1.597 11.001 4.441 2.918 2.844 4.558 6.702 4.558 10.724 0 8.376-6.966 15.165-15.56 15.165-8.593 0-15.559-6.79-15.559-15.165z"/><path stroke="#000" stroke-width="2" stroke-linejoin="round" stroke-linecap="butt" d="M282.734 40.554c0-8.376 6.966-15.165 15.56-15.165 4.126 0 8.084 1.597 11.001 4.441 2.918 2.844 4.558 6.702 4.558 10.724 0 8.376-6.966 15.165-15.56 15.165-8.593 0-15.559-6.79-15.559-15.165z"/><path d="M253.95 28.824V57.99H28.218V28.824z"/><path stroke="#000" stroke-width="2" stroke-linejoin="round" stroke-linecap="butt" d="M253.95 28.824V57.99H28.218V28.824z"/><path d="M187.684 35.17c4.992 0 9.04 3.688 9.04 8.237 0 2.184-.953 4.28-2.648 5.824-1.696 1.544-3.995 2.412-6.392 2.412-4.993 0-9.04-3.687-9.04-8.236 0-4.549 4.047-8.236 9.04-8.236z"/><path stroke="#000" stroke-width="2" stroke-linejoin="round" stroke-linecap="butt" d="M187.684 35.17c4.992 0 9.04 3.688 9.04 8.237 0 2.184-.953 4.28-2.648 5.824-1.696 1.544-3.995 2.412-6.392 2.412-4.993 0-9.04-3.687-9.04-8.236 0-4.549 4.047-8.236 9.04-8.236z"/><path d="M153.84 35.17c4.992 0 9.04 3.688 9.04 8.237 0 2.184-.953 4.28-2.648 5.824-1.696 1.544-3.995 2.412-6.392 2.412-4.992 0-9.04-3.687-9.04-8.236 0-4.549 4.048-8.236 9.04-8.236z"/><path stroke="#000" stroke-width="2" stroke-linejoin="round" stroke-linecap="butt" d="M153.84 35.17c4.992 0 9.04 3.688 9.04 8.237 0 2.184-.953 4.28-2.648 5.824-1.696 1.544-3.995 2.412-6.392 2.412-4.992 0-9.04-3.687-9.04-8.236 0-4.549 4.048-8.236 9.04-8.236z"/><path d="M119.996 35.17c4.992 0 9.04 3.688 9.04 8.237 0 2.184-.953 4.28-2.648 5.824-1.695 1.544-3.995 2.412-6.392 2.412-4.992 0-9.04-3.687-9.04-8.236 0-4.549 4.048-8.236 9.04-8.236z"/><path stroke="#000" stroke-width="2" stroke-linejoin="round" stroke-linecap="butt" d="M119.996 35.17c4.992 0 9.04 3.688 9.04 8.237 0 2.184-.953 4.28-2.648 5.824-1.695 1.544-3.995 2.412-6.392 2.412-4.992 0-9.04-3.687-9.04-8.236 0-4.549 4.048-8.236 9.04-8.236z"/><path d="M52.308 35.17c4.993 0 9.04 3.688 9.04 8.237 0 2.184-.953 4.28-2.648 5.824-1.695 1.544-3.994 2.412-6.392 2.412-4.992 0-9.039-3.687-9.039-8.236 0-4.549 4.047-8.236 9.04-8.236z"/><path stroke="#000" stroke-width="2" stroke-linejoin="round" stroke-linecap="butt" d="M52.308 35.17c4.993 0 9.04 3.688 9.04 8.237 0 2.184-.953 4.28-2.648 5.824-1.695 1.544-3.994 2.412-6.392 2.412-4.992 0-9.039-3.687-9.039-8.236 0-4.549 4.047-8.236 9.04-8.236z"/><path d="M86.152 35.17c4.993 0 9.04 3.688 9.04 8.237 0 2.184-.953 4.28-2.648 5.824-1.695 1.544-3.994 2.412-6.392 2.412-4.992 0-9.04-3.687-9.04-8.236 0-4.549 4.048-8.236 9.04-8.236z"/><path stroke="#000" stroke-width="2" stroke-linejoin="round" stroke-linecap="butt" d="M86.152 35.17c4.993 0 9.04 3.688 9.04 8.237 0 2.184-.953 4.28-2.648 5.824-1.695 1.544-3.994 2.412-6.392 2.412-4.992 0-9.04-3.687-9.04-8.236 0-4.549 4.048-8.236 9.04-8.236z"/><path d="M221.528 35.17c4.992 0 9.039 3.688 9.039 8.237 0 2.184-.952 4.28-2.648 5.824-1.695 1.544-3.994 2.412-6.391 2.412-4.993 0-9.04-3.687-9.04-8.236 0-4.549 4.047-8.236 9.04-8.236z"/><path stroke="#000" stroke-width="2" stroke-linejoin="round" stroke-linecap="butt" d="M221.528 35.17c4.992 0 9.039 3.688 9.039 8.237 0 2.184-.952 4.28-2.648 5.824-1.695 1.544-3.994 2.412-6.391 2.412-4.993 0-9.04-3.687-9.04-8.236 0-4.549 4.047-8.236 9.04-8.236z"/><path d="M253.95 57.99v29.165H28.218V57.99z"/><path stroke="#000" stroke-width="2" stroke-linejoin="round" stroke-linecap="butt" d="M253.95 57.99v29.165H28.218V57.99z"/><path d="M302.383 249.869v29.165H28.21V249.87z"/><path stroke="#000" stroke-width="2" stroke-linejoin="round" stroke-linecap="butt" d="M302.383 249.869v29.165H28.21V249.87z"/><path d="M302.383 279.034v43.811H28.21v-43.81z"/><path stroke="#000" stroke-width="2" stroke-linejoin="round" stroke-linecap="butt" d="M302.383 279.034v43.811H28.21v-43.81z"/><path d="M33.56 282.404h31.51l5.654 5.654v28.267H39.213l-5.654-5.653v-28.268z"/><path stroke="#000" stroke-width="2" stroke-linejoin="round" stroke-linecap="butt" d="M33.56 282.404h31.51l5.654 5.654v28.267H39.213l-5.654-5.653v-28.268z"/><path d="M80.032 282.404h31.511l5.654 5.654v28.267H85.685l-5.653-5.653v-28.268z"/><path stroke="#000" stroke-width="2" stroke-linejoin="round" stroke-linecap="butt" d="M80.032 282.404h31.511l5.654 5.654v28.267H85.685l-5.653-5.653v-28.268z"/><path d="M126.504 282.404h32.551l5.654 5.654v28.267h-32.551l-5.654-5.653v-28.268z"/><path stroke="#000" stroke-width="2" stroke-linejoin="round" stroke-linecap="butt" d="M126.504 282.404h32.551l5.654 5.654v28.267h-32.551l-5.654-5.653v-28.268z"/><path d="M172.973 282.404h32.552l5.653 5.654v28.267h-32.55l-5.655-5.653v-28.268z"/><path stroke="#000" stroke-width="2" stroke-linejoin="round" stroke-linecap="butt" d="M172.973 282.404h32.552l5.653 5.654v28.267h-32.55l-5.655-5.653v-28.268z"/><path d="M219.446 282.404h32.551l5.654 5.654v28.267H225.1l-5.654-5.653v-28.268z"/><path stroke="#000" stroke-width="2" stroke-linejoin="round" stroke-linecap="butt" d="M219.446 282.404h32.551l5.654 5.654v28.267H225.1l-5.654-5.653v-28.268z"/><path d="M52.2 73.362c1.76 17.587-6.113 34.995-6.113 52.67 0 21.018.614 42.865 7.994 62.545 2.144 5.717 8.529 9.898 8.935 15.99 1.312 19.698-10.347 38.573-10.347 58.315"/><path stroke="#000" stroke-width="2" stroke-linejoin="round" stroke-linecap="butt" d="M52.2 73.362c1.76 17.587-6.113 34.995-6.113 52.67 0 21.018.614 42.865 7.994 62.545 2.144 5.717 8.529 9.898 8.935 15.99 1.312 19.698-10.347 38.573-10.347 58.315"/><path d="M85.117 72.423c18.781 7.51.369 40.515-1.409 60.664-2.582 29.265 20.188 58.257 14.108 87-2.25 10.63-13.745 18.323-14.578 29.157-.433 5.637 6.976 9.658 12.226 11.756"/><path stroke="#000" stroke-width="2" stroke-linejoin="round" stroke-linecap="butt" d="M85.117 72.423c18.781 7.51.369 40.515-1.409 60.664-2.582 29.265 20.188 58.257 14.108 87-2.25 10.63-13.745 18.323-14.578 29.157-.433 5.637 6.976 9.658 12.226 11.756"/><path d="M120.858 70.072c21.048-1.752 15.186 41.102 12.698 62.076-2.511 21.172 22.013 38.876 21.633 60.194-.446 25.016-22.602 55.552-6.583 74.772"/><path stroke="#000" stroke-width="2" stroke-linejoin="round" stroke-linecap="butt" d="M120.858 70.072c21.048-1.752 15.186 41.102 12.698 62.076-2.511 21.172 22.013 38.876 21.633 60.194-.446 25.016-22.602 55.552-6.583 74.772"/><path d="M153.307 74.774c13.079 12.306 12.281 33.987 15.05 51.73 3.914 25.081 11.756 49.857 11.756 75.241 0 22.118-7.528 46.522 2.352 66.31"/><path stroke="#000" stroke-width="2" stroke-linejoin="round" stroke-linecap="butt" d="M153.307 74.774c13.079 12.306 12.281 33.987 15.05 51.73 3.914 25.081 11.756 49.857 11.756 75.241 0 22.118-7.528 46.522 2.352 66.31"/><path d="M193.75 77.596c18.193 40.628 36.226 82.756 41.384 126.97 2.436 20.886-2.822 41.99-2.822 63.017"/><path stroke="#000" stroke-width="2" stroke-linejoin="round" stroke-linecap="butt" d="M193.75 77.596c18.193 40.628 36.226 82.756 41.384 126.97 2.436 20.886-2.822 41.99-2.822 63.017"/><path d="M216.325 65.367c10.929 15.305 27.313 26.698 36.21 43.266 15.073 28.065 7.97 63.264 14.108 94.524 4.19 21.341 18.123 41.956 15.05 63.486"/><path stroke="#000" stroke-width="2" stroke-linejoin="round" stroke-linecap="butt" d="M216.325 65.367c10.929 15.305 27.313 26.698 36.21 43.266 15.073 28.065 7.97 63.264 14.108 94.524 4.19 21.341 18.123 41.956 15.05 63.486"/><path d="M262.659 282.404h28.74l5.653 5.654v28.267h-28.74l-5.653-5.653v-28.268z"/><path stroke="#000" stroke-width="2" stroke-linejoin="round" stroke-linecap="butt" d="M262.659 282.404h28.74l5.653 5.654v28.267h-28.74l-5.653-5.653v-28.268z"/><path d="M32.52 275.535h38.204v43.811H32.52z"/><path fill="#fff" d="M41.52 286.95h24v24h-24v-24z"/><path fill="#222" d="M42.738 296.42h8.157l2.53-8.063 2.532 8.062h8.156l-6.656 4.594 2.438 7.781-6.47-4.781-6.468 4.781 2.438-7.781-6.657-4.594z"/><path d="M79.512 275.433h38.205v43.811H79.512z"/><path fill="#fff" d="M88.512 286.848h24v24h-24v-24z"/><path fill="#222" d="M89.73 296.317h8.157l2.531-8.063 2.531 8.063h8.157l-6.657 4.594 2.438 7.78-6.469-4.78-6.469 4.78 2.438-7.78-6.656-4.594z"/><path d="M126.243 275.433h38.205v43.811h-38.205z"/><path fill="#fff" d="M135.243 286.848h24v24h-24v-24z"/><path fill="#222" d="M136.462 296.317h8.156l2.531-8.063 2.531 8.063h8.157l-6.657 4.594 2.438 7.78-6.469-4.78-6.469 4.78 2.438-7.78-6.656-4.594z"/><path d="M172.845 275.433h38.205v43.811h-38.205z"/><path fill="#fff" d="M181.845 286.848h24v24h-24v-24z"/><path fill="#222" d="M183.064 296.317h8.156l2.531-8.063 2.532 8.063h8.156l-6.656 4.594 2.437 7.78-6.469-4.78-6.468 4.78 2.437-7.78-6.656-4.594z"/><path d="M215.248 274.021h38.205v43.811h-38.205z"/><path fill="#fff" d="M224.248 285.436h24v24h-24v-24z"/><path fill="#222" d="M225.467 294.905h8.156l2.531-8.063 2.532 8.063h8.156l-6.656 4.594 2.437 7.78-6.469-4.78-6.468 4.78 2.437-7.78-6.656-4.594z"/><path d="M257.65 275.535h38.206v43.811H257.65z"/><path fill="#fff" d="M266.65 286.95h24v24h-24v-24z"/><path fill="#222" d="M267.87 296.42h8.156l2.531-8.063 2.531 8.062h8.157l-6.657 4.594 2.438 7.781-6.469-4.781-6.469 4.781 2.438-7.781-6.656-4.594z"/></g></svg>