<svg viewBox="0 0 464 464" xmlns="http://www.w3.org/2000/svg" fill-rule="evenodd" clip-rule="evenodd" stroke-linejoin="round" stroke-miterlimit="10"><g transform="scale(1.33333)"><clipPath id="a"><path d="M0 0h348v348H0z"/></clipPath><g clip-path="url(#a)"><path d="M0 0h348v348H0V0z" fill="none"/><path d="M-6 0h348v347.969H-6V0z" fill="#fff" fill-rule="nonzero"/><path d="M5.079 5.776h336.913v337.669H5.079V5.776z" fill="none"/><path d="M5.079 5.776h336.913v337.669H5.079V5.776z" fill="none" stroke="#000" stroke-width="2"/><path d="M282.734 40.554c0-8.376 6.966-15.165 15.559-15.165 4.127 0 8.085 1.597 11.002 4.441 2.918 2.844 4.558 6.702 4.558 10.724 0 8.376-6.966 15.165-15.56 15.165-8.593 0-15.559-6.789-15.559-15.165z" fill="#fff" fill-rule="nonzero"/><path d="M282.734 40.554c0-8.376 6.966-15.165 15.559-15.165 4.127 0 8.085 1.597 11.002 4.441 2.918 2.844 4.558 6.702 4.558 10.724 0 8.376-6.966 15.165-15.56 15.165-8.593 0-15.559-6.789-15.559-15.165z" fill="none" stroke="#000" stroke-width="2"/><path d="M34.772 25.39h232.409v67.559H34.772V25.39z" fill-rule="nonzero"/><path d="M34.772 25.39h232.409v67.559H34.772V25.39z" fill="none" stroke="#000" stroke-width="2"/><path d="M34.772 202.318h106.645v44.819H34.772v-44.819z" fill="none"/><path d="M34.772 202.318h106.645v44.819H34.772v-44.819z" fill="none" stroke="#000"/><path d="M55.185 235.429v-17.375h3.672v1.375h-2.016v14.609h2.016v1.391h-3.672zm13.992-3.782v-12h-4.469v-1.593h10.766v1.593h-4.5v12h-1.797zm7.974 0v-13.593h9.844v1.593h-8.047v4.172h7.531v1.594h-7.531v4.625h8.359v1.609H77.151zm11.022 0l5.265-7.093-4.64-6.5h2.14l2.469 3.484c.521.719.885 1.276 1.094 1.672.302-.5.661-1.016 1.078-1.547l2.734-3.609h1.969l-4.781 6.406 5.14 7.187h-2.218l-3.422-4.859a11.5 11.5 0 0 1-.594-.906c-.302.5-.521.844-.656 1.031l-3.407 4.734h-2.171zm17.287 0v-12h-4.469v-1.593h10.766v1.593h-4.5v12h-1.797zm15.704 3.782h-3.687v-1.391h2.015v-14.609h-2.015v-1.375h3.687v17.375z" fill-rule="nonzero"/><path d="M34.772 125.226h106.645v44.819H34.772v-44.819z" fill="none"/><path d="M34.772 125.226h106.645v44.819H34.772v-44.819z" fill="none" stroke="#000"/><path d="M55.185 158.337v-17.375h3.672v1.375h-2.016v14.609h2.016v1.391h-3.672zm13.992-3.781v-12h-4.469v-1.594h10.766v1.594h-4.5v12h-1.797zm7.974 0v-13.594h9.844v1.594h-8.047v4.172h7.531v1.593h-7.531v4.625h8.359v1.61H77.151zm11.022 0l5.265-7.094-4.64-6.5h2.14l2.469 3.484c.521.719.885 1.276 1.094 1.672.302-.5.661-1.015 1.078-1.547l2.734-3.609h1.969l-4.781 6.406 5.14 7.188h-2.218l-3.422-4.86a11.14 11.14 0 0 1-.594-.906c-.302.5-.521.844-.656 1.031l-3.407 4.735h-2.171zm17.287 0v-12h-4.469v-1.594h10.766v1.594h-4.5v12h-1.797zm15.704 3.781h-3.687v-1.391h2.015v-14.609h-2.015v-1.375h3.687v17.375z" fill-rule="nonzero"/><path d="M34.772 270.604h106.645v44.819H34.772v-44.819z" fill="none"/><path d="M34.772 270.604h106.645v44.819H34.772v-44.819z" fill="none" stroke="#000"/><path d="M55.185 303.715V286.34h3.672v1.375h-2.016v14.609h2.016v1.391h-3.672zm13.992-3.782v-12h-4.469v-1.593h10.766v1.593h-4.5v12h-1.797zm7.974 0V286.34h9.844v1.593h-8.047v4.172h7.531v1.594h-7.531v4.625h8.359v1.609H77.151zm11.022 0l5.265-7.093-4.64-6.5h2.14l2.469 3.484c.521.719.885 1.276 1.094 1.672.302-.5.661-1.016 1.078-1.547l2.734-3.609h1.969l-4.781 6.406 5.14 7.187h-2.218l-3.422-4.859a11.5 11.5 0 0 1-.594-.906c-.302.5-.521.844-.656 1.031l-3.407 4.734h-2.171zm17.287 0v-12h-4.469v-1.593h10.766v1.593h-4.5v12h-1.797zm15.704 3.782h-3.687v-1.391h2.015v-14.609h-2.015v-1.375h3.687v17.375z" fill-rule="nonzero"/><path d="M157.407 202.318h106.645v44.819H157.407v-44.819z" fill="none"/><path d="M157.407 202.318h106.645v44.819H157.407v-44.819z" fill="none" stroke="#000"/><path d="M177.82 235.429v-17.375h3.672v1.375h-2.015v14.609h2.015v1.391h-3.672zm13.992-3.782v-12h-4.469v-1.593h10.766v1.593h-4.5v12h-1.797zm7.974 0v-13.593h9.844v1.593h-8.047v4.172h7.531v1.594h-7.531v4.625h8.359v1.609h-10.156zm11.022 0l5.265-7.093-4.64-6.5h2.14l2.469 3.484c.521.719.886 1.276 1.094 1.672.302-.5.661-1.016 1.078-1.547l2.734-3.609h1.969l-4.781 6.406 5.141 7.187h-2.219l-3.422-4.859a11.5 11.5 0 0 1-.594-.906c-.302.5-.521.844-.656 1.031l-3.406 4.734h-2.172zm17.287 0v-12h-4.469v-1.593h10.766v1.593h-4.5v12h-1.797zm15.704 3.782h-3.687v-1.391h2.016v-14.609h-2.016v-1.375h3.687v17.375z" fill-rule="nonzero"/><path d="M157.407 125.226h106.645v44.819H157.407v-44.819z" fill="none"/><path d="M157.407 125.226h106.645v44.819H157.407v-44.819z" fill="none" stroke="#000"/><path d="M177.82 158.337v-17.375h3.672v1.375h-2.015v14.609h2.015v1.391h-3.672zm13.992-3.781v-12h-4.469v-1.594h10.766v1.594h-4.5v12h-1.797zm7.974 0v-13.594h9.844v1.594h-8.047v4.172h7.531v1.593h-7.531v4.625h8.359v1.61h-10.156zm11.022 0l5.265-7.094-4.64-6.5h2.14l2.469 3.484c.521.719.886 1.276 1.094 1.672.302-.5.661-1.015 1.078-1.547l2.734-3.609h1.969l-4.781 6.406 5.141 7.188h-2.219l-3.422-4.86a11.14 11.14 0 0 1-.594-.906c-.302.5-.521.844-.656 1.031l-3.406 4.735h-2.172zm17.287 0v-12h-4.469v-1.594h10.766v1.594h-4.5v12h-1.797zm15.704 3.781h-3.687v-1.391h2.016v-14.609h-2.016v-1.375h3.687v17.375z" fill-rule="nonzero"/><path d="M157.407 270.604h106.645v44.819H157.407v-44.819z" fill="none"/><path d="M157.407 270.604h106.645v44.819H157.407v-44.819z" fill="none" stroke="#000"/><path d="M177.82 303.715V286.34h3.672v1.375h-2.015v14.609h2.015v1.391h-3.672zm13.992-3.782v-12h-4.469v-1.593h10.766v1.593h-4.5v12h-1.797zm7.974 0V286.34h9.844v1.593h-8.047v4.172h7.531v1.594h-7.531v4.625h8.359v1.609h-10.156zm11.022 0l5.265-7.093-4.64-6.5h2.14l2.469 3.484c.521.719.886 1.276 1.094 1.672.302-.5.661-1.016 1.078-1.547l2.734-3.609h1.969l-4.781 6.406 5.141 7.187h-2.219l-3.422-4.859a11.5 11.5 0 0 1-.594-.906c-.302.5-.521.844-.656 1.031l-3.406 4.734h-2.172zm17.287 0v-12h-4.469v-1.593h10.766v1.593h-4.5v12h-1.797zm15.704 3.782h-3.687v-1.391h2.016v-14.609h-2.016v-1.375h3.687v17.375zm33.663-197.332h52.661v209.04h-52.661v-209.04z" fill-rule="nonzero"/><path d="M277.462 106.383h52.661v209.04h-52.661v-209.04z" fill="none" stroke="#000" stroke-width="2"/><path d="M290.06 245.113h27.465v16.472H290.06v-16.472z" fill="#fff" fill-rule="nonzero"/><path d="M290.06 245.113h27.465v16.472H290.06v-16.472z" fill="none" stroke="#000" stroke-width="2"/><path d="M290.06 208.903h27.465v16.472H290.06v-16.472z" fill="#fff" fill-rule="nonzero"/><path d="M290.06 208.903h27.465v16.472H290.06v-16.472z" fill="none" stroke="#000" stroke-width="2"/><path d="M290.06 281.323h27.465v16.472H290.06v-16.472z" fill="#fff" fill-rule="nonzero"/><path d="M290.06 281.323h27.465v16.472H290.06v-16.472z" fill="none" stroke="#000" stroke-width="2"/><text x="152.612" y="111.494" font-family="'Special Elite','courier" font-size="32" fill="#fff" transform="translate(-80.807 -40.387)">[ЕКРАН]</text></g></g></svg>