<svg viewBox="0.0 0.0 348.0 348.0" fill="none" stroke-linecap="square" stroke-miterlimit="10" xmlns="http://www.w3.org/2000/svg"><clipPath id="a"><path d="M0 0h348v348H0V0z"/></clipPath><g clip-path="url(#a)"><path d="M0 0h348v348H0z"/><path fill="#fff" d="M-6 0h348v347.969H-6z"/><path d="M5.079 5.776h336.913v337.67H5.08z"/><path stroke="#000" stroke-width="2" stroke-linejoin="round" stroke-linecap="butt" d="M5.079 5.776h336.913v337.67H5.08z"/><path fill="#fff" d="M282.734 40.554c0-8.376 6.966-15.165 15.56-15.165 4.126 0 8.084 1.597 11.001 4.441 2.918 2.844 4.558 6.702 4.558 10.724 0 8.376-6.966 15.165-15.56 15.165-8.593 0-15.559-6.79-15.559-15.165z"/><path stroke="#000" stroke-width="2" stroke-linejoin="round" stroke-linecap="butt" d="M282.734 40.554c0-8.376 6.966-15.165 15.56-15.165 4.126 0 8.084 1.597 11.001 4.441 2.918 2.844 4.558 6.702 4.558 10.724 0 8.376-6.966 15.165-15.56 15.165-8.593 0-15.559-6.79-15.559-15.165z"/><path fill="#000" d="M34.772 25.39h232.41v67.559H34.771z"/><path stroke="#000" stroke-width="2" stroke-linejoin="round" stroke-linecap="butt" d="M34.772 25.39h232.41v67.559H34.771z"/><path fill="#fff" d="M67.781 77.249V47.983h6.203v2.328h-3.39v24.61h3.39v2.328h-6.203zm18.078-6.36V47.983h7.89q2.673 0 4.079.328 1.969.453 3.36 1.64 1.812 1.532 2.702 3.923.907 2.375.907 5.437 0 2.61-.61 4.625-.61 2.016-1.562 3.344-.953 1.312-2.094 2.078-1.125.75-2.734 1.14-1.594.391-3.672.391h-8.266zm3.031-2.703h4.891q2.266 0 3.547-.422 1.297-.422 2.062-1.187 1.079-1.078 1.672-2.89.61-1.829.61-4.423 0-3.593-1.188-5.515-1.172-1.938-2.86-2.594-1.218-.469-3.921-.469H88.89v17.5zm20.594 2.703V47.983h3.031v22.906h-3.03zm7.344-7.36l2.86-.25q.202 1.72.937 2.829.75 1.094 2.312 1.781 1.563.672 3.516.672 1.734 0 3.062-.515 1.329-.516 1.97-1.407.655-.906.655-1.968 0-1.079-.625-1.875-.625-.813-2.062-1.36-.922-.36-4.078-1.11-3.156-.765-4.422-1.437-1.64-.86-2.453-2.125-.797-1.281-.797-2.86 0-1.733.984-3.233.985-1.516 2.875-2.297 1.89-.782 4.203-.782 2.547 0 4.485.829 1.953.812 3 2.406t1.125 3.61l-2.906.218q-.235-2.172-1.594-3.281-1.344-1.11-3.985-1.11-2.75 0-4.015 1.016-1.25 1-1.25 2.422 0 1.234.89 2.031.875.797 4.563 1.64 3.703.829 5.078 1.454 2 .922 2.953 2.344.953 1.406.953 3.25 0 1.828-1.047 3.453-1.046 1.609-3.015 2.515-1.953.89-4.406.89-3.11 0-5.22-.905-2.093-.907-3.296-2.72-1.188-1.827-1.25-4.124zm22.375 7.36V47.983h8.64q2.282 0 3.485.219 1.687.281 2.828 1.078 1.14.781 1.828 2.203.703 1.422.703 3.125 0 2.922-1.86 4.953-1.858 2.016-6.718 2.016h-5.875v9.312h-3.031zm3.031-12.015h5.922q2.938 0 4.172-1.094 1.234-1.094 1.234-3.078 0-1.438-.734-2.453-.719-1.032-1.906-1.36-.766-.203-2.828-.203h-5.86v8.188zm18.188 12.015V47.983h3.03v20.203h11.282v2.703h-14.312zm15.406 0l8.797-22.906h3.265l9.375 22.906h-3.453l-2.672-6.937h-9.578l-2.515 6.937h-3.22zm6.61-9.406h7.765l-2.39-6.344q-1.094-2.89-1.626-4.75-.437 2.203-1.234 4.375l-2.516 6.719zm23.702 9.406v-9.703l-8.828-13.203H201l4.515 6.906q1.25 1.938 2.329 3.875 1.03-1.797 2.5-4.047l4.437-6.734h3.531l-9.14 13.203v9.703h-3.032zm28.125 6.36h-6.203V74.92h3.39V50.31h-3.39v-2.328h6.203v29.266z"/><path d="M34.772 202.318h106.645v44.819H34.772z"/><path stroke="#000" stroke-linejoin="round" stroke-linecap="butt" d="M34.772 202.318h106.645v44.819H34.772z"/><path fill="#000" d="M55.185 235.429v-17.375h3.672v1.375h-2.016v14.609h2.016v1.39h-3.672zm13.992-3.782v-12h-4.469v-1.593h10.766v1.593h-4.5v12h-1.797zm7.974 0v-13.593h9.844v1.593h-8.047v4.172h7.531v1.594h-7.531v4.625h8.36v1.61H77.15zm11.022 0l5.265-7.093-4.64-6.5h2.14l2.469 3.484q.781 1.078 1.094 1.672.453-.75 1.078-1.547l2.734-3.61h1.969l-4.781 6.407 5.14 7.187h-2.218L95 226.788q-.297-.406-.594-.906-.453.75-.656 1.031l-3.407 4.734h-2.171zm17.287 0v-12h-4.469v-1.593h10.766v1.593h-4.5v12h-1.797zm15.704 3.782h-3.687v-1.391h2.015v-14.61h-2.015v-1.374h3.687v17.375z"/><path d="M34.772 125.226h106.645v44.82H34.772z"/><path stroke="#000" stroke-linejoin="round" stroke-linecap="butt" d="M34.772 125.226h106.645v44.82H34.772z"/><path fill="#000" d="M55.185 158.337v-17.375h3.672v1.375h-2.016v14.61h2.016v1.39h-3.672zm13.992-3.781v-12h-4.469v-1.594h10.766v1.594h-4.5v12h-1.797zm7.974 0v-13.594h9.844v1.594h-8.047v4.172h7.531v1.593h-7.531v4.625h8.36v1.61H77.15zm11.022 0l5.265-7.094-4.64-6.5h2.14l2.469 3.484q.781 1.079 1.094 1.672.453-.75 1.078-1.547l2.734-3.609h1.969l-4.781 6.406 5.14 7.188h-2.218L95 149.696q-.297-.406-.594-.906-.453.75-.656 1.031l-3.407 4.735h-2.171zm17.287 0v-12h-4.469v-1.594h10.766v1.594h-4.5v12h-1.797zm15.704 3.781h-3.687v-1.39h2.015v-14.61h-2.015v-1.375h3.687v17.375z"/><path d="M34.772 270.604h106.645v44.819H34.772z"/><path stroke="#000" stroke-linejoin="round" stroke-linecap="butt" d="M34.772 270.604h106.645v44.819H34.772z"/><path fill="#000" d="M55.185 303.715V286.34h3.672v1.375h-2.016v14.61h2.016v1.39h-3.672zm13.992-3.782v-12h-4.469v-1.593h10.766v1.593h-4.5v12h-1.797zm7.974 0V286.34h9.844v1.593h-8.047v4.172h7.531v1.594h-7.531v4.625h8.36v1.61H77.15zm11.022 0l5.265-7.093-4.64-6.5h2.14l2.469 3.484q.781 1.078 1.094 1.672.453-.75 1.078-1.547l2.734-3.61h1.969l-4.781 6.407 5.14 7.187h-2.218L95 295.074q-.297-.406-.594-.906-.453.75-.656 1.031l-3.407 4.734h-2.171zm17.287 0v-12h-4.469v-1.593h10.766v1.593h-4.5v12h-1.797zm15.704 3.782h-3.687v-1.39h2.015v-14.61h-2.015v-1.375h3.687v17.375z"/><path d="M157.407 202.318h106.645v44.819H157.407z"/><path stroke="#000" stroke-linejoin="round" stroke-linecap="butt" d="M157.407 202.318h106.645v44.819H157.407z"/><path fill="#000" d="M177.82 235.429v-17.375h3.672v1.375h-2.015v14.609h2.015v1.39h-3.672zm13.992-3.782v-12h-4.469v-1.593h10.766v1.593h-4.5v12h-1.797zm7.974 0v-13.593h9.844v1.593h-8.047v4.172h7.531v1.594h-7.531v4.625h8.36v1.61h-10.157zm11.022 0l5.265-7.093-4.64-6.5h2.14l2.47 3.484q.78 1.078 1.093 1.672.453-.75 1.078-1.547l2.734-3.61h1.97l-4.782 6.407 5.14 7.187h-2.218l-3.422-4.859q-.297-.406-.594-.906-.453.75-.656 1.031l-3.406 4.734h-2.172zm17.287 0v-12h-4.469v-1.593h10.766v1.593h-4.5v12h-1.797zm15.704 3.782h-3.687v-1.391h2.016v-14.61h-2.016v-1.374h3.687v17.375z"/><path d="M157.407 125.226h106.645v44.82H157.407z"/><path stroke="#000" stroke-linejoin="round" stroke-linecap="butt" d="M157.407 125.226h106.645v44.82H157.407z"/><path fill="#000" d="M177.82 158.337v-17.375h3.672v1.375h-2.015v14.61h2.015v1.39h-3.672zm13.992-3.781v-12h-4.469v-1.594h10.766v1.594h-4.5v12h-1.797zm7.974 0v-13.594h9.844v1.594h-8.047v4.172h7.531v1.593h-7.531v4.625h8.36v1.61h-10.157zm11.022 0l5.265-7.094-4.64-6.5h2.14l2.47 3.484q.78 1.079 1.093 1.672.453-.75 1.078-1.547l2.734-3.609h1.97l-4.782 6.406 5.14 7.188h-2.218l-3.422-4.86q-.297-.406-.594-.906-.453.75-.656 1.031l-3.406 4.735h-2.172zm17.287 0v-12h-4.469v-1.594h10.766v1.594h-4.5v12h-1.797zm15.704 3.781h-3.687v-1.39h2.016v-14.61h-2.016v-1.375h3.687v17.375z"/><path d="M157.407 270.604h106.645v44.819H157.407z"/><path stroke="#000" stroke-linejoin="round" stroke-linecap="butt" d="M157.407 270.604h106.645v44.819H157.407z"/><path fill="#000" d="M177.82 303.715V286.34h3.672v1.375h-2.015v14.61h2.015v1.39h-3.672zm13.992-3.782v-12h-4.469v-1.593h10.766v1.593h-4.5v12h-1.797zm7.974 0V286.34h9.844v1.593h-8.047v4.172h7.531v1.594h-7.531v4.625h8.36v1.61h-10.157zm11.022 0l5.265-7.093-4.64-6.5h2.14l2.47 3.484q.78 1.078 1.093 1.672.453-.75 1.078-1.547l2.734-3.61h1.97l-4.782 6.407 5.14 7.187h-2.218l-3.422-4.859q-.297-.406-.594-.906-.453.75-.656 1.031l-3.406 4.734h-2.172zm17.287 0v-12h-4.469v-1.593h10.766v1.593h-4.5v12h-1.797zm15.704 3.782h-3.687v-1.39h2.016v-14.61h-2.016v-1.375h3.687v17.375zm33.663-197.332h52.661v209.04h-52.661z"/><path stroke="#000" stroke-width="2" stroke-linejoin="round" stroke-linecap="butt" d="M277.462 106.383h52.661v209.04h-52.661z"/><path fill="#fff" d="M290.06 245.113h27.465v16.472H290.06z"/><path stroke="#000" stroke-width="2" stroke-linejoin="round" stroke-linecap="butt" d="M290.06 245.113h27.465v16.472H290.06z"/><path fill="#fff" d="M290.06 208.903h27.465v16.472H290.06z"/><path stroke="#000" stroke-width="2" stroke-linejoin="round" stroke-linecap="butt" d="M290.06 208.903h27.465v16.472H290.06z"/><path fill="#fff" d="M290.06 281.323h27.465v16.472H290.06z"/><path stroke="#000" stroke-width="2" stroke-linejoin="round" stroke-linecap="butt" d="M290.06 281.323h27.465v16.472H290.06z"/></g></svg>