<?xml version="1.0" encoding="UTF-8" standalone="no"?>
<svg
   xmlns:dc="http://purl.org/dc/elements/1.1/"
   xmlns:cc="http://creativecommons.org/ns#"
   xmlns:rdf="http://www.w3.org/1999/02/22-rdf-syntax-ns#"
   xmlns:svg="http://www.w3.org/2000/svg"
   xmlns="http://www.w3.org/2000/svg"
   xmlns:sodipodi="http://sodipodi.sourceforge.net/DTD/sodipodi-0.dtd"
   xmlns:inkscape="http://www.inkscape.org/namespaces/inkscape"
   viewBox="0.0 0.0 348.0 348.0"
   fill="none"
   stroke-linecap="square"
   stroke-miterlimit="10"
   version="1.1"
   id="svg75"
   sodipodi:docname="WhosOnFirstComponent-NL.svg"
   inkscape:version="0.92.0 r15299">
  <metadata
     id="metadata81">
    <rdf:RDF>
      <cc:Work
         rdf:about="">
        <dc:format>image/svg+xml</dc:format>
        <dc:type
           rdf:resource="http://purl.org/dc/dcmitype/StillImage" />
      </cc:Work>
    </rdf:RDF>
  </metadata>
  <defs
     id="defs79" />
  <sodipodi:namedview
     pagecolor="#ffffff"
     bordercolor="#666666"
     borderopacity="1"
     objecttolerance="10"
     gridtolerance="10"
     guidetolerance="10"
     inkscape:pageopacity="0"
     inkscape:pageshadow="2"
     inkscape:window-width="1366"
     inkscape:window-height="705"
     id="namedview77"
     showgrid="false"
     inkscape:zoom="1.3563218"
     inkscape:cx="164.48151"
     inkscape:cy="151.66995"
     inkscape:window-x="-8"
     inkscape:window-y="-8"
     inkscape:window-maximized="1"
     inkscape:current-layer="g73" />
  <clipPath
     id="a">
    <path
       d="M0 0h348v348H0V0z"
       id="path2" />
  </clipPath>
  <g
     clip-path="url(#a)"
     id="g73">
    <path
       d="M0 0h348v348H0z"
       id="path5" />
    <path
       d="M -6,-0.08064089 H 342 V 347.88836 H -6 Z"
       id="path7"
       inkscape:connector-curvature="0"
       style="fill:#ffffff" />
    <path
       d="M5.079 5.776h336.913v337.67H5.08z"
       id="path9" />
    <path
       stroke="#000"
       stroke-width="2"
       stroke-linejoin="round"
       stroke-linecap="butt"
       d="M5.079 5.776h336.913v337.67H5.08z"
       id="path11" />
    <path
       fill="#fff"
       d="M282.734 40.554c0-8.376 6.966-15.165 15.56-15.165 4.126 0 8.084 1.597 11.001 4.441 2.918 2.844 4.558 6.702 4.558 10.724 0 8.376-6.966 15.165-15.56 15.165-8.593 0-15.559-6.79-15.559-15.165z"
       id="path13" />
    <path
       stroke="#000"
       stroke-width="2"
       stroke-linejoin="round"
       stroke-linecap="butt"
       d="M282.734 40.554c0-8.376 6.966-15.165 15.56-15.165 4.126 0 8.084 1.597 11.001 4.441 2.918 2.844 4.558 6.702 4.558 10.724 0 8.376-6.966 15.165-15.56 15.165-8.593 0-15.559-6.79-15.559-15.165z"
       id="path15" />
    <path
       fill="#000"
       d="M34.772 25.39h232.41v67.559H34.771z"
       id="path17" />
    <path
       stroke="#000"
       stroke-width="2"
       stroke-linejoin="round"
       stroke-linecap="butt"
       d="M34.772 25.39h232.41v67.559H34.771z"
       id="path19" />
    <path
       d="M 53.781,77.249 V 47.983 h 6.203 v 2.328 h -3.39 v 24.61 h 3.39 v 2.328 z m 194.484,0 h -6.203 V 74.92 h 3.39 V 50.31 h -3.39 v -2.328 h 6.203 v 29.266 z"
       id="path21"
       style="fill:#ffffff"
       inkscape:connector-curvature="0"
       sodipodi:nodetypes="ccccccccccccccccccc" />
    <path
       d="M34.772 202.318h106.645v44.819H34.772z"
       id="path23" />
    <path
       stroke="#000"
       stroke-linejoin="round"
       stroke-linecap="butt"
       d="M34.772 202.318h106.645v44.819H34.772z"
       id="path25" />
    <path
       d="M34.772 125.226h106.645v44.82H34.772z"
       id="path29" />
    <path
       stroke="#000"
       stroke-linejoin="round"
       stroke-linecap="butt"
       d="M34.772 125.226h106.645v44.82H34.772z"
       id="path31" />
    <path
       d="M34.772 270.604h106.645v44.819H34.772z"
       id="path35" />
    <path
       stroke="#000"
       stroke-linejoin="round"
       stroke-linecap="butt"
       d="M34.772 270.604h106.645v44.819H34.772z"
       id="path37" />
    <path
       d="M157.407 202.318h106.645v44.819H157.407z"
       id="path41" />
    <path
       stroke="#000"
       stroke-linejoin="round"
       stroke-linecap="butt"
       d="M157.407 202.318h106.645v44.819H157.407z"
       id="path43" />
    <path
       d="M157.407 125.226h106.645v44.82H157.407z"
       id="path47" />
    <path
       stroke="#000"
       stroke-linejoin="round"
       stroke-linecap="butt"
       d="M157.407 125.226h106.645v44.82H157.407z"
       id="path49" />
    <path
       d="M157.407 270.604h106.645v44.819H157.407z"
       id="path53" />
    <path
       stroke="#000"
       stroke-linejoin="round"
       stroke-linecap="butt"
       d="M157.407 270.604h106.645v44.819H157.407z"
       id="path55" />
    <path
       d="m 277.462,106.383 h 52.661 v 209.04 h -52.661 z"
       id="path57"
       inkscape:connector-curvature="0"
       style="fill:#000000"
       sodipodi:nodetypes="ccccc" />
    <path
       stroke="#000"
       stroke-width="2"
       stroke-linejoin="round"
       stroke-linecap="butt"
       d="M277.462 106.383h52.661v209.04h-52.661z"
       id="path59" />
    <path
       fill="#fff"
       d="M290.06 245.113h27.465v16.472H290.06z"
       id="path61" />
    <path
       stroke="#000"
       stroke-width="2"
       stroke-linejoin="round"
       stroke-linecap="butt"
       d="M290.06 245.113h27.465v16.472H290.06z"
       id="path63" />
    <path
       fill="#fff"
       d="M290.06 208.903h27.465v16.472H290.06z"
       id="path65" />
    <path
       stroke="#000"
       stroke-width="2"
       stroke-linejoin="round"
       stroke-linecap="butt"
       d="M290.06 208.903h27.465v16.472H290.06z"
       id="path67" />
    <path
       fill="#fff"
       d="M290.06 281.323h27.465v16.472H290.06z"
       id="path69" />
    <path
       stroke="#000"
       stroke-width="2"
       stroke-linejoin="round"
       stroke-linecap="butt"
       d="M290.06 281.323h27.465v16.472H290.06z"
       id="path71" />
    <g
       aria-label="[ TEKST ]"
       style="font-style:normal;font-variant:normal;font-weight:normal;font-stretch:normal;font-size:18.90319824px;line-height:11.82773018px;font-family:Arial;-inkscape-font-specification:Arial;letter-spacing:0px;word-spacing:0px;fill:#000000;fill-opacity:1;stroke:none;stroke-width:0.47257996"
       id="text131">
      <path
         d="m 48.772998,158.26636 v -17.28793 h 3.66434 v 1.37528 h -2.002926 v 14.53737 h 2.002926 v 1.37528 z"
         style="stroke-width:0.47257996"
         id="path133" />
      <path
         d="m 62.544274,154.50972 v -11.93449 h -4.458128 v -1.5968 h 10.72535 v 1.5968 h -4.476587 v 11.93449 z"
         style="stroke-width:0.47257996"
         id="path135" />
      <path
         d="m 70.768271,154.50972 v -13.53129 h 9.783882 v 1.5968 h -7.993247 v 4.1443 h 7.485593 v 1.58758 h -7.485593 v 4.60581 h 8.30707 v 1.5968 z"
         style="stroke-width:0.47257996"
         id="path137" />
      <path
         d="m 83.284258,154.50972 v -13.53129 h 1.790635 v 6.71026 l 6.719496,-6.71026 h 2.42751 l -5.676497,5.48266 5.925709,8.04863 h -2.3629 l -4.8181,-6.84872 -2.215218,2.15984 v 4.68888 z"
         style="stroke-width:0.47257996"
         id="path139" />
      <path
         d="m 95.375656,150.16235 1.689105,-0.14768 q 0.119991,1.01531 0.553804,1.67065 0.443044,0.6461 1.366052,1.05223 0.923007,0.39689 2.076763,0.39689 1.02454,0 1.8091,-0.30459 0.78456,-0.3046 1.16299,-0.83071 0.38766,-0.53535 0.38766,-1.16299 0,-0.63688 -0.3692,-1.10761 -0.3692,-0.47996 -1.21837,-0.80302 -0.54458,-0.21229 -2.40905,-0.65533 -1.864477,-0.45228 -2.612113,-0.84917 -0.969158,-0.50765 -1.449122,-1.25529 -0.470734,-0.75687 -0.470734,-1.6891 0,-1.02454 0.581495,-1.91063 0.581494,-0.89532 1.698334,-1.35682 1.116839,-0.46151 2.48289,-0.46151 1.5045,0 2.64903,0.4892 1.15376,0.47996 1.77218,1.42143 0.61841,0.94147 0.66456,2.13215 l -1.71679,0.12922 q -0.13845,-1.28298 -0.94147,-1.93832 -0.79379,-0.65533 -2.35367,-0.65533 -1.624492,0 -2.372129,0.59995 -0.738406,0.59073 -0.738406,1.43066 0,0.72918 0.526115,1.19991 0.516884,0.47074 2.69518,0.96916 2.18753,0.4892 2.99978,0.8584 1.18145,0.54457 1.74448,1.38451 0.56304,0.83071 0.56304,1.91986 0,1.07992 -0.61842,2.03984 -0.61841,0.9507 -1.7814,1.48605 -1.15376,0.52611 -2.60289,0.52611 -1.836781,0 -3.082841,-0.53534 -1.236831,-0.53535 -1.947546,-1.60604 -0.701486,-1.07992 -0.738407,-2.43674 z"
         style="stroke-width:0.47257996"
         id="path141" />
      <path
         d="m 112.05441,154.50972 v -11.93449 h -4.45813 v -1.5968 h 10.72535 v 1.5968 h -4.47659 v 11.93449 z"
         style="stroke-width:0.47257996"
         id="path143" />
      <path
         d="m 127.71784,158.26636 h -3.66434 v -1.37528 h 2.00293 v -14.53737 h -2.00293 v -1.37528 h 3.66434 z"
         style="stroke-width:0.47257996"
         id="path145" />
    </g>
    <g
       id="g162"
       style="font-style:normal;font-variant:normal;font-weight:normal;font-stretch:normal;font-size:18.90319824px;line-height:11.82773018px;font-family:Arial;-inkscape-font-specification:Arial;letter-spacing:0px;word-spacing:0px;fill:#000000;fill-opacity:1;stroke:none;stroke-width:0.47257996"
       aria-label="[ TEKST ]"
       transform="translate(0,77.077892)">
      <path
         id="path148"
         style="stroke-width:0.47257996"
         d="m 48.772998,158.26636 v -17.28793 h 3.66434 v 1.37528 h -2.002926 v 14.53737 h 2.002926 v 1.37528 z"
         inkscape:connector-curvature="0" />
      <path
         id="path150"
         style="stroke-width:0.47257996"
         d="m 62.544274,154.50972 v -11.93449 h -4.458128 v -1.5968 h 10.72535 v 1.5968 h -4.476587 v 11.93449 z"
         inkscape:connector-curvature="0" />
      <path
         id="path152"
         style="stroke-width:0.47257996"
         d="m 70.768271,154.50972 v -13.53129 h 9.783882 v 1.5968 h -7.993247 v 4.1443 h 7.485593 v 1.58758 h -7.485593 v 4.60581 h 8.30707 v 1.5968 z"
         inkscape:connector-curvature="0" />
      <path
         id="path154"
         style="stroke-width:0.47257996"
         d="m 83.284258,154.50972 v -13.53129 h 1.790635 v 6.71026 l 6.719496,-6.71026 h 2.42751 l -5.676497,5.48266 5.925709,8.04863 h -2.3629 l -4.8181,-6.84872 -2.215218,2.15984 v 4.68888 z"
         inkscape:connector-curvature="0" />
      <path
         id="path156"
         style="stroke-width:0.47257996"
         d="m 95.375656,150.16235 1.689105,-0.14768 q 0.119991,1.01531 0.553804,1.67065 0.443044,0.6461 1.366052,1.05223 0.923007,0.39689 2.076763,0.39689 1.02454,0 1.8091,-0.30459 0.78456,-0.3046 1.16299,-0.83071 0.38766,-0.53535 0.38766,-1.16299 0,-0.63688 -0.3692,-1.10761 -0.3692,-0.47996 -1.21837,-0.80302 -0.54458,-0.21229 -2.40905,-0.65533 -1.864477,-0.45228 -2.612113,-0.84917 -0.969158,-0.50765 -1.449122,-1.25529 -0.470734,-0.75687 -0.470734,-1.6891 0,-1.02454 0.581495,-1.91063 0.581494,-0.89532 1.698334,-1.35682 1.116839,-0.46151 2.48289,-0.46151 1.5045,0 2.64903,0.4892 1.15376,0.47996 1.77218,1.42143 0.61841,0.94147 0.66456,2.13215 l -1.71679,0.12922 q -0.13845,-1.28298 -0.94147,-1.93832 -0.79379,-0.65533 -2.35367,-0.65533 -1.624492,0 -2.372129,0.59995 -0.738406,0.59073 -0.738406,1.43066 0,0.72918 0.526115,1.19991 0.516884,0.47074 2.69518,0.96916 2.18753,0.4892 2.99978,0.8584 1.18145,0.54457 1.74448,1.38451 0.56304,0.83071 0.56304,1.91986 0,1.07992 -0.61842,2.03984 -0.61841,0.9507 -1.7814,1.48605 -1.15376,0.52611 -2.60289,0.52611 -1.836781,0 -3.082841,-0.53534 -1.236831,-0.53535 -1.947546,-1.60604 -0.701486,-1.07992 -0.738407,-2.43674 z"
         inkscape:connector-curvature="0" />
      <path
         id="path158"
         style="stroke-width:0.47257996"
         d="m 112.05441,154.50972 v -11.93449 h -4.45813 v -1.5968 h 10.72535 v 1.5968 h -4.47659 v 11.93449 z"
         inkscape:connector-curvature="0" />
      <path
         id="path160"
         style="stroke-width:0.47257996"
         d="m 127.71784,158.26636 h -3.66434 v -1.37528 h 2.00293 v -14.53737 h -2.00293 v -1.37528 h 3.66434 z"
         inkscape:connector-curvature="0" />
    </g>
    <g
       transform="translate(0,145.36873)"
       aria-label="[ TEKST ]"
       style="font-style:normal;font-variant:normal;font-weight:normal;font-stretch:normal;font-size:18.90319824px;line-height:11.82773018px;font-family:Arial;-inkscape-font-specification:Arial;letter-spacing:0px;word-spacing:0px;fill:#000000;fill-opacity:1;stroke:none;stroke-width:0.47257996"
       id="g3848">
      <path
         inkscape:connector-curvature="0"
         d="m 48.772998,158.26636 v -17.28793 h 3.66434 v 1.37528 h -2.002926 v 14.53737 h 2.002926 v 1.37528 z"
         style="stroke-width:0.47257996"
         id="path3834" />
      <path
         inkscape:connector-curvature="0"
         d="m 62.544274,154.50972 v -11.93449 h -4.458128 v -1.5968 h 10.72535 v 1.5968 h -4.476587 v 11.93449 z"
         style="stroke-width:0.47257996"
         id="path3836" />
      <path
         inkscape:connector-curvature="0"
         d="m 70.768271,154.50972 v -13.53129 h 9.783882 v 1.5968 h -7.993247 v 4.1443 h 7.485593 v 1.58758 h -7.485593 v 4.60581 h 8.30707 v 1.5968 z"
         style="stroke-width:0.47257996"
         id="path3838" />
      <path
         inkscape:connector-curvature="0"
         d="m 83.284258,154.50972 v -13.53129 h 1.790635 v 6.71026 l 6.719496,-6.71026 h 2.42751 l -5.676497,5.48266 5.925709,8.04863 h -2.3629 l -4.8181,-6.84872 -2.215218,2.15984 v 4.68888 z"
         style="stroke-width:0.47257996"
         id="path3840" />
      <path
         inkscape:connector-curvature="0"
         d="m 95.375656,150.16235 1.689105,-0.14768 q 0.119991,1.01531 0.553804,1.67065 0.443044,0.6461 1.366052,1.05223 0.923007,0.39689 2.076763,0.39689 1.02454,0 1.8091,-0.30459 0.78456,-0.3046 1.16299,-0.83071 0.38766,-0.53535 0.38766,-1.16299 0,-0.63688 -0.3692,-1.10761 -0.3692,-0.47996 -1.21837,-0.80302 -0.54458,-0.21229 -2.40905,-0.65533 -1.864477,-0.45228 -2.612113,-0.84917 -0.969158,-0.50765 -1.449122,-1.25529 -0.470734,-0.75687 -0.470734,-1.6891 0,-1.02454 0.581495,-1.91063 0.581494,-0.89532 1.698334,-1.35682 1.116839,-0.46151 2.48289,-0.46151 1.5045,0 2.64903,0.4892 1.15376,0.47996 1.77218,1.42143 0.61841,0.94147 0.66456,2.13215 l -1.71679,0.12922 q -0.13845,-1.28298 -0.94147,-1.93832 -0.79379,-0.65533 -2.35367,-0.65533 -1.624492,0 -2.372129,0.59995 -0.738406,0.59073 -0.738406,1.43066 0,0.72918 0.526115,1.19991 0.516884,0.47074 2.69518,0.96916 2.18753,0.4892 2.99978,0.8584 1.18145,0.54457 1.74448,1.38451 0.56304,0.83071 0.56304,1.91986 0,1.07992 -0.61842,2.03984 -0.61841,0.9507 -1.7814,1.48605 -1.15376,0.52611 -2.60289,0.52611 -1.836781,0 -3.082841,-0.53534 -1.236831,-0.53535 -1.947546,-1.60604 -0.701486,-1.07992 -0.738407,-2.43674 z"
         style="stroke-width:0.47257996"
         id="path3842" />
      <path
         inkscape:connector-curvature="0"
         d="m 112.05441,154.50972 v -11.93449 h -4.45813 v -1.5968 h 10.72535 v 1.5968 h -4.47659 v 11.93449 z"
         style="stroke-width:0.47257996"
         id="path3844" />
      <path
         inkscape:connector-curvature="0"
         d="m 127.71784,158.26636 h -3.66434 v -1.37528 h 2.00293 v -14.53737 h -2.00293 v -1.37528 h 3.66434 z"
         style="stroke-width:0.47257996"
         id="path3846" />
    </g>
    <g
       id="g3864"
       style="font-style:normal;font-variant:normal;font-weight:normal;font-stretch:normal;font-size:18.90319824px;line-height:11.82773018px;font-family:Arial;-inkscape-font-specification:Arial;letter-spacing:0px;word-spacing:0px;fill:#000000;fill-opacity:1;stroke:none;stroke-width:0.47257996"
       aria-label="[ TEKST ]"
       transform="translate(122.75847)">
      <path
         id="path3850"
         style="stroke-width:0.47257996"
         d="m 48.772998,158.26636 v -17.28793 h 3.66434 v 1.37528 h -2.002926 v 14.53737 h 2.002926 v 1.37528 z"
         inkscape:connector-curvature="0" />
      <path
         id="path3852"
         style="stroke-width:0.47257996"
         d="m 62.544274,154.50972 v -11.93449 h -4.458128 v -1.5968 h 10.72535 v 1.5968 h -4.476587 v 11.93449 z"
         inkscape:connector-curvature="0" />
      <path
         id="path3854"
         style="stroke-width:0.47257996"
         d="m 70.768271,154.50972 v -13.53129 h 9.783882 v 1.5968 h -7.993247 v 4.1443 h 7.485593 v 1.58758 h -7.485593 v 4.60581 h 8.30707 v 1.5968 z"
         inkscape:connector-curvature="0" />
      <path
         id="path3856"
         style="stroke-width:0.47257996"
         d="m 83.284258,154.50972 v -13.53129 h 1.790635 v 6.71026 l 6.719496,-6.71026 h 2.42751 l -5.676497,5.48266 5.925709,8.04863 h -2.3629 l -4.8181,-6.84872 -2.215218,2.15984 v 4.68888 z"
         inkscape:connector-curvature="0" />
      <path
         id="path3858"
         style="stroke-width:0.47257996"
         d="m 95.375656,150.16235 1.689105,-0.14768 q 0.119991,1.01531 0.553804,1.67065 0.443044,0.6461 1.366052,1.05223 0.923007,0.39689 2.076763,0.39689 1.02454,0 1.8091,-0.30459 0.78456,-0.3046 1.16299,-0.83071 0.38766,-0.53535 0.38766,-1.16299 0,-0.63688 -0.3692,-1.10761 -0.3692,-0.47996 -1.21837,-0.80302 -0.54458,-0.21229 -2.40905,-0.65533 -1.864477,-0.45228 -2.612113,-0.84917 -0.969158,-0.50765 -1.449122,-1.25529 -0.470734,-0.75687 -0.470734,-1.6891 0,-1.02454 0.581495,-1.91063 0.581494,-0.89532 1.698334,-1.35682 1.116839,-0.46151 2.48289,-0.46151 1.5045,0 2.64903,0.4892 1.15376,0.47996 1.77218,1.42143 0.61841,0.94147 0.66456,2.13215 l -1.71679,0.12922 q -0.13845,-1.28298 -0.94147,-1.93832 -0.79379,-0.65533 -2.35367,-0.65533 -1.624492,0 -2.372129,0.59995 -0.738406,0.59073 -0.738406,1.43066 0,0.72918 0.526115,1.19991 0.516884,0.47074 2.69518,0.96916 2.18753,0.4892 2.99978,0.8584 1.18145,0.54457 1.74448,1.38451 0.56304,0.83071 0.56304,1.91986 0,1.07992 -0.61842,2.03984 -0.61841,0.9507 -1.7814,1.48605 -1.15376,0.52611 -2.60289,0.52611 -1.836781,0 -3.082841,-0.53534 -1.236831,-0.53535 -1.947546,-1.60604 -0.701486,-1.07992 -0.738407,-2.43674 z"
         inkscape:connector-curvature="0" />
      <path
         id="path3860"
         style="stroke-width:0.47257996"
         d="m 112.05441,154.50972 v -11.93449 h -4.45813 v -1.5968 h 10.72535 v 1.5968 h -4.47659 v 11.93449 z"
         inkscape:connector-curvature="0" />
      <path
         id="path3862"
         style="stroke-width:0.47257996"
         d="m 127.71784,158.26636 h -3.66434 v -1.37528 h 2.00293 v -14.53737 h -2.00293 v -1.37528 h 3.66434 z"
         inkscape:connector-curvature="0" />
    </g>
    <g
       transform="translate(122.75847,77.077892)"
       aria-label="[ TEKST ]"
       style="font-style:normal;font-variant:normal;font-weight:normal;font-stretch:normal;font-size:18.90319824px;line-height:11.82773018px;font-family:Arial;-inkscape-font-specification:Arial;letter-spacing:0px;word-spacing:0px;fill:#000000;fill-opacity:1;stroke:none;stroke-width:0.47257996"
       id="g3880">
      <path
         inkscape:connector-curvature="0"
         d="m 48.772998,158.26636 v -17.28793 h 3.66434 v 1.37528 h -2.002926 v 14.53737 h 2.002926 v 1.37528 z"
         style="stroke-width:0.47257996"
         id="path3866" />
      <path
         inkscape:connector-curvature="0"
         d="m 62.544274,154.50972 v -11.93449 h -4.458128 v -1.5968 h 10.72535 v 1.5968 h -4.476587 v 11.93449 z"
         style="stroke-width:0.47257996"
         id="path3868" />
      <path
         inkscape:connector-curvature="0"
         d="m 70.768271,154.50972 v -13.53129 h 9.783882 v 1.5968 h -7.993247 v 4.1443 h 7.485593 v 1.58758 h -7.485593 v 4.60581 h 8.30707 v 1.5968 z"
         style="stroke-width:0.47257996"
         id="path3870" />
      <path
         inkscape:connector-curvature="0"
         d="m 83.284258,154.50972 v -13.53129 h 1.790635 v 6.71026 l 6.719496,-6.71026 h 2.42751 l -5.676497,5.48266 5.925709,8.04863 h -2.3629 l -4.8181,-6.84872 -2.215218,2.15984 v 4.68888 z"
         style="stroke-width:0.47257996"
         id="path3872" />
      <path
         inkscape:connector-curvature="0"
         d="m 95.375656,150.16235 1.689105,-0.14768 q 0.119991,1.01531 0.553804,1.67065 0.443044,0.6461 1.366052,1.05223 0.923007,0.39689 2.076763,0.39689 1.02454,0 1.8091,-0.30459 0.78456,-0.3046 1.16299,-0.83071 0.38766,-0.53535 0.38766,-1.16299 0,-0.63688 -0.3692,-1.10761 -0.3692,-0.47996 -1.21837,-0.80302 -0.54458,-0.21229 -2.40905,-0.65533 -1.864477,-0.45228 -2.612113,-0.84917 -0.969158,-0.50765 -1.449122,-1.25529 -0.470734,-0.75687 -0.470734,-1.6891 0,-1.02454 0.581495,-1.91063 0.581494,-0.89532 1.698334,-1.35682 1.116839,-0.46151 2.48289,-0.46151 1.5045,0 2.64903,0.4892 1.15376,0.47996 1.77218,1.42143 0.61841,0.94147 0.66456,2.13215 l -1.71679,0.12922 q -0.13845,-1.28298 -0.94147,-1.93832 -0.79379,-0.65533 -2.35367,-0.65533 -1.624492,0 -2.372129,0.59995 -0.738406,0.59073 -0.738406,1.43066 0,0.72918 0.526115,1.19991 0.516884,0.47074 2.69518,0.96916 2.18753,0.4892 2.99978,0.8584 1.18145,0.54457 1.74448,1.38451 0.56304,0.83071 0.56304,1.91986 0,1.07992 -0.61842,2.03984 -0.61841,0.9507 -1.7814,1.48605 -1.15376,0.52611 -2.60289,0.52611 -1.836781,0 -3.082841,-0.53534 -1.236831,-0.53535 -1.947546,-1.60604 -0.701486,-1.07992 -0.738407,-2.43674 z"
         style="stroke-width:0.47257996"
         id="path3874" />
      <path
         inkscape:connector-curvature="0"
         d="m 112.05441,154.50972 v -11.93449 h -4.45813 v -1.5968 h 10.72535 v 1.5968 h -4.47659 v 11.93449 z"
         style="stroke-width:0.47257996"
         id="path3876" />
      <path
         inkscape:connector-curvature="0"
         d="m 127.71784,158.26636 h -3.66434 v -1.37528 h 2.00293 v -14.53737 h -2.00293 v -1.37528 h 3.66434 z"
         style="stroke-width:0.47257996"
         id="path3878" />
    </g>
    <g
       id="g3896"
       style="font-style:normal;font-variant:normal;font-weight:normal;font-stretch:normal;font-size:18.90319824px;line-height:11.82773018px;font-family:Arial;-inkscape-font-specification:Arial;letter-spacing:0px;word-spacing:0px;fill:#000000;fill-opacity:1;stroke:none;stroke-width:0.47257996"
       aria-label="[ TEKST ]"
       transform="translate(122.75847,145.36873)">
      <path
         id="path3882"
         style="stroke-width:0.47257996"
         d="m 48.772998,158.26636 v -17.28793 h 3.66434 v 1.37528 h -2.002926 v 14.53737 h 2.002926 v 1.37528 z"
         inkscape:connector-curvature="0" />
      <path
         id="path3884"
         style="stroke-width:0.47257996"
         d="m 62.544274,154.50972 v -11.93449 h -4.458128 v -1.5968 h 10.72535 v 1.5968 h -4.476587 v 11.93449 z"
         inkscape:connector-curvature="0" />
      <path
         id="path3886"
         style="stroke-width:0.47257996"
         d="m 70.768271,154.50972 v -13.53129 h 9.783882 v 1.5968 h -7.993247 v 4.1443 h 7.485593 v 1.58758 h -7.485593 v 4.60581 h 8.30707 v 1.5968 z"
         inkscape:connector-curvature="0" />
      <path
         id="path3888"
         style="stroke-width:0.47257996"
         d="m 83.284258,154.50972 v -13.53129 h 1.790635 v 6.71026 l 6.719496,-6.71026 h 2.42751 l -5.676497,5.48266 5.925709,8.04863 h -2.3629 l -4.8181,-6.84872 -2.215218,2.15984 v 4.68888 z"
         inkscape:connector-curvature="0" />
      <path
         id="path3890"
         style="stroke-width:0.47257996"
         d="m 95.375656,150.16235 1.689105,-0.14768 q 0.119991,1.01531 0.553804,1.67065 0.443044,0.6461 1.366052,1.05223 0.923007,0.39689 2.076763,0.39689 1.02454,0 1.8091,-0.30459 0.78456,-0.3046 1.16299,-0.83071 0.38766,-0.53535 0.38766,-1.16299 0,-0.63688 -0.3692,-1.10761 -0.3692,-0.47996 -1.21837,-0.80302 -0.54458,-0.21229 -2.40905,-0.65533 -1.864477,-0.45228 -2.612113,-0.84917 -0.969158,-0.50765 -1.449122,-1.25529 -0.470734,-0.75687 -0.470734,-1.6891 0,-1.02454 0.581495,-1.91063 0.581494,-0.89532 1.698334,-1.35682 1.116839,-0.46151 2.48289,-0.46151 1.5045,0 2.64903,0.4892 1.15376,0.47996 1.77218,1.42143 0.61841,0.94147 0.66456,2.13215 l -1.71679,0.12922 q -0.13845,-1.28298 -0.94147,-1.93832 -0.79379,-0.65533 -2.35367,-0.65533 -1.624492,0 -2.372129,0.59995 -0.738406,0.59073 -0.738406,1.43066 0,0.72918 0.526115,1.19991 0.516884,0.47074 2.69518,0.96916 2.18753,0.4892 2.99978,0.8584 1.18145,0.54457 1.74448,1.38451 0.56304,0.83071 0.56304,1.91986 0,1.07992 -0.61842,2.03984 -0.61841,0.9507 -1.7814,1.48605 -1.15376,0.52611 -2.60289,0.52611 -1.836781,0 -3.082841,-0.53534 -1.236831,-0.53535 -1.947546,-1.60604 -0.701486,-1.07992 -0.738407,-2.43674 z"
         inkscape:connector-curvature="0" />
      <path
         id="path3892"
         style="stroke-width:0.47257996"
         d="m 112.05441,154.50972 v -11.93449 h -4.45813 v -1.5968 h 10.72535 v 1.5968 h -4.47659 v 11.93449 z"
         inkscape:connector-curvature="0" />
      <path
         id="path3894"
         style="stroke-width:0.47257996"
         d="m 127.71784,158.26636 h -3.66434 v -1.37528 h 2.00293 v -14.53737 h -2.00293 v -1.37528 h 3.66434 z"
         inkscape:connector-curvature="0" />
    </g>
  </g>
  <g
     aria-label="SCHERMPJE"
     transform="matrix(0.93222866,0,0,1.0726982,1.2627119,0)"
     style="font-style:normal;font-variant:normal;font-weight:normal;font-stretch:normal;font-size:30.24356461px;line-height:18.92339706px;font-family:Arial;-inkscape-font-specification:Arial;text-align:center;letter-spacing:0px;word-spacing:0px;text-anchor:middle;fill:#000000;fill-opacity:1;stroke:none;stroke-width:0.75608909"
     id="text85">
    <path
       d="m 69.733962,59.396591 2.702428,-0.236278 q 0.191976,1.62441 0.886042,2.672893 0.708834,1.033716 2.18557,1.68348 1.476737,0.634997 3.322658,0.634997 1.639177,0 2.894403,-0.487323 1.255226,-0.487323 1.860688,-1.329063 0.62023,-0.856507 0.62023,-1.860688 0,-1.018948 -0.590695,-1.772084 -0.590695,-0.767903 -1.949292,-1.284761 -0.871275,-0.339649 -3.854283,-1.048483 -2.983007,-0.723601 -4.179164,-1.358597 -1.550573,-0.812206 -2.318476,-2.008362 -0.753136,-1.210924 -0.753136,-2.702428 0,-1.639178 0.930344,-3.056845 0.930344,-1.432434 2.717195,-2.170802 1.786851,-0.738369 3.972421,-0.738369 2.407081,0 4.238234,0.782671 1.845921,0.767903 2.835335,2.274174 0.989413,1.506271 1.06325,3.411261 l -2.74673,0.206743 q -0.221511,-2.052663 -1.506271,-3.101146 -1.269994,-1.048483 -3.765679,-1.048483 -2.599056,0 -3.795213,0.959879 -1.181389,0.945111 -1.181389,2.288941 0,1.166622 0.84174,1.919758 0.826973,0.753135 4.312071,1.550573 3.499865,0.78267 4.799394,1.373365 1.890222,0.871275 2.791032,2.215105 0.900809,1.329063 0.900809,3.071612 0,1.727782 -0.989414,3.263588 -0.989413,1.521038 -2.850101,2.377546 -1.845921,0.841739 -4.164397,0.841739 -2.938706,0 -4.9323,-0.856507 -1.978827,-0.856507 -3.115914,-2.569521 -1.12232,-1.727782 -1.18139,-3.898585 z"
       style="text-align:center;text-anchor:middle;fill:#ffffff;stroke-width:0.75608909"
       id="path110"
       inkscape:connector-curvature="0" />
    <path
       d="m 106.35703,58.761594 2.86487,0.723601 q -0.90081,3.529401 -3.24882,5.390089 -2.33325,1.84592 -5.71497,1.84592 -3.499869,0 -5.700207,-1.417667 -2.18557,-1.432434 -3.337424,-4.134862 -1.137087,-2.702428 -1.137087,-5.803575 0,-3.381726 1.28476,-5.892179 1.299529,-2.525219 3.677074,-3.824747 2.392314,-1.314296 5.257184,-1.314296 3.24882,0 5.46392,1.653945 2.21511,1.653945 3.08638,4.65172 l -2.82056,0.664532 q -0.75314,-2.362779 -2.18557,-3.440796 -1.43244,-1.078018 -3.60324,-1.078018 -2.495686,0 -4.179165,1.196157 -1.668713,1.196156 -2.348011,3.219285 -0.679299,2.008362 -0.679299,4.14963 0,2.761497 0.797437,4.828928 0.812206,2.052664 2.510453,3.071613 1.698247,1.018948 3.677075,1.018948 2.40708,0 4.07579,-1.388133 1.66871,-1.388132 2.25941,-4.120095 z"
       style="text-align:center;text-anchor:middle;fill:#ffffff;stroke-width:0.75608909"
       id="path112"
       inkscape:connector-curvature="0" />
    <path
       d="M 112.85467,66.35202 V 44.703062 h 2.86487 v 8.889954 h 11.25273 v -8.889954 h 2.86487 V 66.35202 h -2.86487 V 56.147771 H 115.71954 V 66.35202 Z"
       style="text-align:center;text-anchor:middle;fill:#ffffff;stroke-width:0.75608909"
       id="path114"
       inkscape:connector-curvature="0" />
    <path
       d="M 134.68084,66.35202 V 44.703062 h 15.6534 v 2.554755 h -12.78853 v 6.630547 h 11.97633 v 2.539987 h -11.97633 v 7.368915 h 13.29062 v 2.554754 z"
       style="text-align:center;text-anchor:middle;fill:#ffffff;stroke-width:0.75608909"
       id="path116"
       inkscape:connector-curvature="0" />
    <path
       d="M 154.86782,66.35202 V 44.703062 h 9.59879 q 2.89441,0 4.40068,0.590695 1.50627,0.575927 2.40708,2.052664 0.90081,1.476736 0.90081,3.263588 0,2.303709 -1.49151,3.883817 -1.4915,1.580108 -4.60741,2.008361 1.13708,0.546393 1.72778,1.078018 1.25522,1.151855 2.37754,2.879636 l 3.76568,5.892179 h -3.60324 l -2.86487,-4.504046 q -1.25522,-1.949292 -2.06743,-2.983008 -0.8122,-1.033716 -1.46197,-1.447202 -0.63499,-0.413486 -1.29952,-0.575927 -0.48733,-0.103372 -1.59488,-0.103372 h -3.32266 v 9.613555 z m 2.86487,-12.094472 h 6.15799 q 1.96406,0 3.07162,-0.398719 1.10755,-0.413486 1.68348,-1.299528 0.57592,-0.900809 0.57592,-1.949292 0,-1.535806 -1.12232,-2.52522 -1.10755,-0.989413 -3.51463,-0.989413 h -6.85206 z"
       style="text-align:center;text-anchor:middle;fill:#ffffff;stroke-width:0.75608909"
       id="path118"
       inkscape:connector-curvature="0" />
    <path
       d="M 176.59062,66.35202 V 44.703062 h 4.31207 l 5.12427,15.328526 q 0.70884,2.141268 1.03372,3.204518 0.36918,-1.181389 1.15185,-3.470331 l 5.18335,-15.062713 h 3.85428 V 66.35202 h -2.7615 V 48.232463 l -6.29089,18.119557 h -2.58429 L 179.35211,47.922348 V 66.35202 Z"
       style="text-align:center;text-anchor:middle;fill:#ffffff;stroke-width:0.75608909"
       id="path120"
       inkscape:connector-curvature="0" />
    <path
       d="M 201.90188,66.35202 V 44.703062 h 8.16635 q 2.15603,0 3.29312,0.206744 1.59488,0.265812 2.6729,1.018948 1.07801,0.738368 1.72778,2.082198 0.66453,1.343831 0.66453,2.953473 0,2.761498 -1.75732,4.681255 -1.75731,1.90499 -6.34997,1.90499 h -5.55252 v 8.80135 z m 2.86487,-11.356104 h 5.59683 q 2.77626,0 3.94288,-1.033715 1.16663,-1.033716 1.16663,-2.909171 0,-1.358598 -0.69407,-2.318477 -0.6793,-0.974646 -1.80162,-1.284761 -0.7236,-0.191975 -2.67289,-0.191975 h -5.53776 z"
       style="text-align:center;text-anchor:middle;fill:#ffffff;stroke-width:0.75608909"
       id="path122"
       inkscape:connector-curvature="0" />
    <path
       d="m 218.49627,60.208796 2.58429,-0.354417 c 0.0689,1.653945 0.37903,2.78611 0.93035,3.396495 0.55132,0.610384 1.3143,0.915576 2.28894,0.915576 0.71868,0 1.33891,-0.162441 1.86069,-0.487323 0.52178,-0.334727 0.88112,-0.78267 1.07801,-1.34383 0.1969,-0.571005 0.29535,-1.476736 0.29535,-2.717195 v -14.91504 h 2.86487 v 14.752599 c 0,1.811463 -0.22151,3.214363 -0.66453,4.208699 -0.43317,0.994336 -1.12724,1.752394 -2.0822,2.274174 -0.94511,0.52178 -2.05758,0.78267 -3.33742,0.78267 -1.90007,0 -3.35712,-0.546392 -4.37114,-1.639177 -1.00418,-1.092785 -1.48659,-2.717196 -1.44721,-4.873231 z"
       style="text-align:center;text-anchor:middle;fill:#ffffff;stroke-width:0.75608909"
       id="path124"
       inkscape:connector-curvature="0"
       sodipodi:nodetypes="cccsccsccsccscc" />
    <path
       d="M 235.13909,66.35202 V 44.703062 h 15.65341 v 2.554755 h -12.78854 v 6.630547 h 11.97634 v 2.539987 h -11.97634 v 7.368915 h 13.29063 v 2.554754 z"
       style="text-align:center;text-anchor:middle;fill:#ffffff;stroke-width:0.75608909"
       id="path126"
       inkscape:connector-curvature="0"
       sodipodi:nodetypes="ccccccccccccc" />
  </g>
</svg>
