<svg viewBox="0.0 0.0 348.0 348.0" fill="none" stroke-linecap="square" stroke-miterlimit="10" xmlns="http://www.w3.org/2000/svg"><clipPath id="a"><path d="M0 0h348v348H0V0z"/></clipPath><g clip-path="url(#a)"><path d="M0 0h348v348H0z"/><path fill="#fff" d="M-6 0h348v347.969H-6z"/><path d="M68.95 75.845h196.378v201.008H68.95z"/><path stroke="#000" stroke-width="2" stroke-linejoin="round" stroke-linecap="butt" d="M68.95 75.845h196.378v201.008H68.95z"/><path d="M66.921 67.168h42.992v63.087H66.921z"/><path fill="#000" d="M90.828 114.568h-3.516V92.162q-1.266 1.218-3.328 2.437-2.063 1.203-3.703 1.797v-3.39q2.953-1.391 5.156-3.36 2.203-1.969 3.125-3.828h2.266v28.75z"/><path d="M66.921 136.803h42.992v63.087H66.921z"/><path fill="#000" d="M96.062 180.828v3.375H77.14q-.047-1.265.406-2.437.719-1.938 2.313-3.813 1.594-1.875 4.594-4.344 4.671-3.828 6.312-6.062 1.64-2.234 1.64-4.219 0-2.094-1.5-3.531-1.484-1.438-3.89-1.438-2.531 0-4.062 1.532-1.516 1.515-1.547 4.218l-3.61-.375q.375-4.046 2.797-6.156 2.422-2.125 6.5-2.125 4.125 0 6.516 2.281 2.406 2.282 2.406 5.672 0 1.719-.703 3.375-.703 1.657-2.328 3.5-1.625 1.828-5.422 5.032-3.156 2.656-4.063 3.609-.89.937-1.484 1.906h14.047z"/><path d="M66.921 208.186h42.992v63.087H66.921z"/><path fill="#000" d="M77.609 248.024l3.515-.469q.594 2.984 2.047 4.313 1.469 1.312 3.547 1.312 2.485 0 4.188-1.719 1.718-1.718 1.718-4.25 0-2.422-1.593-4-1.578-1.578-4.016-1.578-1 0-2.484.39l.39-3.077q.36.031.578.031 2.235 0 4.032-1.172 1.797-1.172 1.797-3.61 0-1.937-1.313-3.202-1.297-1.266-3.375-1.266-2.047 0-3.422 1.297-1.36 1.281-1.75 3.86l-3.515-.626q.64-3.531 2.921-5.469 2.297-1.953 5.688-1.953 2.344 0 4.312 1.016 1.985 1 3.032 2.734 1.047 1.735 1.047 3.688 0 1.86-1 3.39-1 1.516-2.954 2.407 2.547.593 3.954 2.437 1.406 1.844 1.406 4.625 0 3.75-2.735 6.36-2.734 2.609-6.921 2.609-3.766 0-6.266-2.25-2.484-2.25-2.828-5.828z"/><path d="M219.362 67.168h42.992v63.087h-42.992z"/><path fill="#000" d="M228.3 114.568l11-28.64h4.078l11.719 28.64h-4.313l-3.344-8.672h-11.968l-3.141 8.672H228.3zm8.265-11.766h9.703l-2.984-7.922q-1.36-3.609-2.031-5.937-.547 2.75-1.547 5.469l-3.14 8.39z"/><path d="M219.362 136.803h42.992v63.087h-42.992z"/><path fill="#000" d="M231.3 184.203v-28.64h10.734q3.281 0 5.266.875 1.984.875 3.11 2.687 1.124 1.797 1.124 3.766 0 1.843-1 3.468-1 1.61-3.016 2.61 2.61.765 4 2.61 1.391 1.827 1.391 4.327 0 2-.844 3.735-.843 1.734-2.093 2.672-1.25.937-3.141 1.421-1.89.47-4.625.47H231.3zm3.78-16.61h6.188q2.532 0 3.625-.327 1.438-.422 2.172-1.422.735-1 .735-2.5 0-1.422-.688-2.5-.687-1.094-1.953-1.485-1.266-.406-4.36-.406h-5.718v8.64zm0 13.235h7.126q1.844 0 2.578-.14 1.313-.235 2.188-.782.89-.547 1.453-1.593.562-1.047.562-2.407 0-1.61-.828-2.781-.812-1.187-2.266-1.656-1.453-.485-4.187-.485h-6.625v9.844z"/><path d="M219.362 208.186h42.992v63.087h-42.992z"/><path fill="#000" d="M251.878 245.54l3.797.968q-1.203 4.656-4.297 7.11-3.094 2.453-7.563 2.453-4.625 0-7.53-1.875-2.907-1.89-4.423-5.469-1.5-3.578-1.5-7.672 0-4.469 1.703-7.797 1.703-3.344 4.86-5.062 3.156-1.735 6.953-1.735 4.297 0 7.219 2.188 2.937 2.187 4.078 6.156l-3.72.875q-1-3.125-2.905-4.547-1.89-1.422-4.75-1.422-3.313 0-5.532 1.578-2.203 1.579-3.109 4.25-.89 2.657-.89 5.5 0 3.641 1.062 6.375 1.062 2.72 3.297 4.079 2.25 1.343 4.875 1.343 3.187 0 5.39-1.828 2.204-1.844 2.985-5.469z"/><path d="M5.079 5.776h336.913v337.67H5.08z"/><path stroke="#000" stroke-width="2" stroke-linejoin="round" stroke-linecap="butt" d="M5.079 5.776h336.913v337.67H5.08z"/><path fill="#fff" d="M282.734 40.554c0-8.376 6.966-15.165 15.56-15.165 4.126 0 8.084 1.597 11.001 4.441 2.918 2.844 4.558 6.702 4.558 10.724 0 8.376-6.966 15.165-15.56 15.165-8.593 0-15.559-6.79-15.559-15.165z"/><path stroke="#000" stroke-width="2" stroke-linejoin="round" stroke-linecap="butt" d="M282.734 40.554c0-8.376 6.966-15.165 15.56-15.165 4.126 0 8.084 1.597 11.001 4.441 2.918 2.844 4.558 6.702 4.558 10.724 0 8.376-6.966 15.165-15.56 15.165-8.593 0-15.559-6.79-15.559-15.165z"/><path d="M127.709 25.577h91.653V63.72H127.71z"/><path stroke="#000" stroke-width="2" stroke-linejoin="round" stroke-linecap="butt" d="M127.709 25.577h91.653V63.72H127.71z"/><path fill="#000" d="M157.11 44.648l16.425-10.015 16.426 10.015h-8.213v10.016h-16.425V44.648z"/><path d="M128.173 289.215h91.654v38.142h-91.654z"/><path stroke="#000" stroke-width="2" stroke-linejoin="round" stroke-linecap="butt" d="M128.173 289.215h91.654v38.142h-91.654z"/><path fill="#000" d="M190.425 308.286L174 318.302l-16.425-10.016h8.212V298.27h16.426v10.016z"/><path d="M115.551 101.031l105.89 141.103"/><path stroke="#000" stroke-width="2" stroke-linejoin="round" stroke-linecap="butt" d="M115.551 101.031l105.89 141.103"/><path d="M112.312 170.795l109.134-73.449"/><path stroke="#000" stroke-width="2" stroke-linejoin="round" stroke-linecap="butt" d="M112.312 170.795l109.134-73.449"/><path d="M109.913 239.73l111.937-70.583"/><path stroke="#000" stroke-width="2" stroke-linejoin="round" stroke-linecap="butt" d="M109.913 239.73l111.937-70.583"/><path d="M116.811 101.803l-6.079 4.063"/><path stroke="#000" stroke-width="2" stroke-linejoin="round" stroke-linecap="butt" d="M116.811 101.803l-6.079 4.063"/><path d="M220.239 96.937l8.094 7.685"/><path stroke="#000" stroke-width="2" stroke-linejoin="round" stroke-linecap="butt" d="M220.239 96.937l8.094 7.685"/><path d="M113.567 169.945l-6.079 8.913"/><path stroke="#000" stroke-width="2" stroke-linejoin="round" stroke-linecap="butt" d="M113.567 169.945l-6.079 8.913"/><path d="M110.727 238.084l-2.236 8.41"/><path stroke="#000" stroke-width="2" stroke-linejoin="round" stroke-linecap="butt" d="M110.727 238.084l-2.236 8.41"/><path d="M221.454 241.735l4.473 1.638"/><path stroke="#000" stroke-width="2" stroke-linejoin="round" stroke-linecap="butt" d="M221.454 241.735l4.473 1.638"/><path d="M220.643 169.538l6.488 6.079"/><path stroke="#000" stroke-width="2" stroke-linejoin="round" stroke-linecap="butt" d="M220.643 169.538l6.488 6.079"/><path fill="#000" d="M276.52 75.845h52.661v253.48H276.52z"/><path stroke="#000" stroke-width="2" stroke-linejoin="round" stroke-linecap="butt" d="M276.52 75.845h52.661v253.48H276.52z"/><path fill="#fff" d="M289.118 259.021h27.465v16.472h-27.465z"/><path stroke="#000" stroke-width="2" stroke-linejoin="round" stroke-linecap="butt" d="M289.118 259.021h27.465v16.472h-27.465z"/><path fill="#fff" d="M289.118 222.811h27.465v16.472h-27.465z"/><path stroke="#000" stroke-width="2" stroke-linejoin="round" stroke-linecap="butt" d="M289.118 222.811h27.465v16.472h-27.465z"/><path fill="#fff" d="M289.118 295.231h27.465v16.472h-27.465z"/><path stroke="#000" stroke-width="2" stroke-linejoin="round" stroke-linecap="butt" d="M289.118 295.231h27.465v16.472h-27.465z"/></g></svg>