<svg viewBox="0.0 0.0 348.0 348.0" fill="none" stroke-linecap="square" stroke-miterlimit="10" xmlns="http://www.w3.org/2000/svg"><clipPath id="a"><path d="M0 0h348v348H0V0z"/></clipPath><g clip-path="url(#a)"><path d="M0 0h348v348H0z"/><path fill="#fff" d="M-6 0h348v347.969H-6z"/><path d="M5.079 5.776h336.913v337.67H5.08z"/><path stroke="#000" stroke-width="2" stroke-linejoin="round" stroke-linecap="butt" d="M5.079 5.776h336.913v337.67H5.08z"/><path fill="#fff" d="M282.734 40.554c0-8.376 6.966-15.165 15.56-15.165 4.126 0 8.084 1.597 11.001 4.441 2.918 2.844 4.558 6.702 4.558 10.724 0 8.376-6.966 15.165-15.56 15.165-8.593 0-15.559-6.79-15.559-15.165z"/><path stroke="#000" stroke-width="2" stroke-linejoin="round" stroke-linecap="butt" d="M282.734 40.554c0-8.376 6.966-15.165 15.56-15.165 4.126 0 8.084 1.597 11.001 4.441 2.918 2.844 4.558 6.702 4.558 10.724 0 8.376-6.966 15.165-15.56 15.165-8.593 0-15.559-6.79-15.559-15.165z"/><path d="M47.026 61.745h29.166v225.733H47.026z"/><path stroke="#000" stroke-width="2" stroke-linejoin="round" stroke-linecap="butt" d="M47.026 61.745h29.166v225.733H47.026z"/><path d="M257.57 106.588h29.165v178.205H257.57z"/><path stroke="#000" stroke-width="2" stroke-linejoin="round" stroke-linecap="butt" d="M257.57 106.588h29.165v178.205H257.57z"/><path d="M61.606 94.055c10.847-2.327 19.528 12.062 30.567 13.165 24.493 2.447 49.26-2.853 73.832-1.41 11.688.688 20.135 12.746 31.51 15.52 25.01 6.102 50.696 9.06 76.183 12.696"/><path stroke="#000" stroke-width="2" stroke-linejoin="round" stroke-linecap="butt" d="M61.606 94.055c10.847-2.327 19.528 12.062 30.567 13.165 24.493 2.447 49.26-2.853 73.832-1.41 11.688.688 20.135 12.746 31.51 15.52 25.01 6.102 50.696 9.06 76.183 12.696"/><path d="M65.367 130.264c24.47-11.123 52.598 13.95 79.476 13.638 23.982-.278 49.307-7.9 71.952 0 18.928 6.603 43.668 30.634 57.843 16.46"/><path stroke="#000" stroke-width="2" stroke-linejoin="round" stroke-linecap="butt" d="M65.367 130.264c24.47-11.123 52.598 13.95 79.476 13.638 23.982-.278 49.307-7.9 71.952 0 18.928 6.603 43.668 30.634 57.843 16.46"/><path d="M62.076 163.184C75.67 161.4 90.41 153.5 102.99 158.95c8.545 3.702 7.23 21.33 16.459 22.575 30.326 4.089 61.216-1.605 91.703-4.233 21.87-1.886 43.416 7.994 65.368 7.994"/><path stroke="#000" stroke-width="2" stroke-linejoin="round" stroke-linecap="butt" d="M62.076 163.184C75.67 161.4 90.41 153.5 102.99 158.95c8.545 3.702 7.23 21.33 16.459 22.575 30.326 4.089 61.216-1.605 91.703-4.233 21.87-1.886 43.416 7.994 65.368 7.994"/><path d="M61.134 190.46c14.41-.974 29.28-5.962 43.265-2.352 11.184 2.887 21.443 9.52 32.921 10.816 22.413 2.53 45.287 2.377 67.247 7.525 11.843 2.776 21.627 5.824 29.157 6.113 13.793.53 29.04-7.587 41.384-1.41"/><path stroke="#000" stroke-width="2" stroke-linejoin="round" stroke-linecap="butt" d="M61.134 190.46c14.41-.974 29.28-5.962 43.265-2.352 11.184 2.887 21.443 9.52 32.921 10.816 22.413 2.53 45.287 2.377 67.247 7.525 11.843 2.776 21.627 5.824 29.157 6.113 13.793.53 29.04-7.587 41.384-1.41"/><path d="M61.134 262.412c9.029 12.403 31.701 12.573 45.617 6.113 10.123-4.7 17.996-16.46 29.157-16.46 9.072 0 18.351 1.414 26.806 4.701 6.322 2.459 4.524 16.402 11.286 16.932 32.746 2.566 66.422.918 98.286-7.055"/><path stroke="#000" stroke-width="2" stroke-linejoin="round" stroke-linecap="butt" d="M61.134 262.412c9.029 12.403 31.701 12.573 45.617 6.113 10.123-4.7 17.996-16.46 29.157-16.46 9.072 0 18.351 1.414 26.806 4.701 6.322 2.459 4.524 16.402 11.286 16.932 32.746 2.566 66.422.918 98.286-7.055"/><path d="M66.307 227.613c46.126-8.543 94.698 5.857 139.202 20.69 8.913 2.97 16.025-11.532 25.394-12.226 14.257-1.055 28.5 2.822 42.795 2.822"/><path stroke="#000" stroke-width="2" stroke-linejoin="round" stroke-linecap="butt" d="M66.307 227.613c46.126-8.543 94.698 5.857 139.202 20.69 8.913 2.97 16.025-11.532 25.394-12.226 14.257-1.055 28.5 2.822 42.795 2.822"/></g></svg>