<svg viewBox="0.0 0.0 203.0 100.0" fill="none" stroke-linecap="square" stroke-miterlimit="10" xmlns="http://www.w3.org/2000/svg"><clipPath id="a"><path d="M0 0h203v100H0V0z"/></clipPath><g clip-path="url(#a)"><path fill="none" d="M0 0h203.711v100H0z"/><path fill="#fff" d="M7.196 45.021a6.913 6.913 0 1 1 13.827 0 6.913 6.913 0 1 1-13.827 0z"/><path stroke="#000" stroke-width="2" stroke-linejoin="round" stroke-linecap="butt" d="M7.196 45.021a6.913 6.913 0 1 1 13.827 0 6.913 6.913 0 1 1-13.827 0z"/><path fill="#fff" d="M181.025 45.021a6.913 6.913 0 1 1 13.827 0 6.913 6.913 0 0 1-13.827 0z"/><path stroke="#000" stroke-width="2" stroke-linejoin="round" stroke-linecap="butt" d="M181.025 45.021a6.913 6.913 0 1 1 13.827 0 6.913 6.913 0 0 1-13.827 0z"/><path fill="#fff" d="M21.024 22.864l11.22 44.881H172.48l11.22-44.881z"/><path stroke="#000" stroke-width="2" stroke-linejoin="round" stroke-linecap="butt" d="M21.024 22.864l11.22 44.881H172.48l11.22-44.881z"/><path fill="#fff" d="M44.47 30.816h6.047v6.3H44.47z"/><path stroke="#000" stroke-width="2" stroke-linejoin="round" stroke-linecap="butt" d="M44.47 30.816h6.047v6.3H44.47z"/><path fill="#fff" d="M53.52 30.816h6.047v6.3H53.52z"/><path stroke="#000" stroke-width="2" stroke-linejoin="round" stroke-linecap="butt" d="M53.52 30.816h6.047v6.3H53.52z"/><path fill="#fff" d="M71.619 30.816h6.047v6.3H71.62z"/><path stroke="#000" stroke-width="2" stroke-linejoin="round" stroke-linecap="butt" d="M71.619 30.816h6.047v6.3H71.62z"/><path fill="#fff" d="M89.718 30.816h6.048v6.3h-6.048z"/><path stroke="#000" stroke-width="2" stroke-linejoin="round" stroke-linecap="butt" d="M89.718 30.816h6.048v6.3h-6.048z"/><path fill="#fff" d="M62.57 30.816h6.046v6.3H62.57z"/><path stroke="#000" stroke-width="2" stroke-linejoin="round" stroke-linecap="butt" d="M62.57 30.816h6.046v6.3H62.57z"/><path fill="#fff" d="M80.669 30.816h6.047v6.3h-6.047z"/><path stroke="#000" stroke-width="2" stroke-linejoin="round" stroke-linecap="butt" d="M80.669 30.816h6.047v6.3h-6.047z"/><path fill="#fff" d="M98.768 30.816h6.047v6.3h-6.047z"/><path stroke="#000" stroke-width="2" stroke-linejoin="round" stroke-linecap="butt" d="M98.768 30.816h6.047v6.3h-6.047z"/><path fill="#fff" d="M107.818 30.816h6.047v6.3h-6.047z"/><path stroke="#000" stroke-width="2" stroke-linejoin="round" stroke-linecap="butt" d="M107.818 30.816h6.047v6.3h-6.047z"/><path fill="#fff" d="M44.47 41.872h6.047v6.3H44.47z"/><path stroke="#000" stroke-width="2" stroke-linejoin="round" stroke-linecap="butt" d="M44.47 41.872h6.047v6.3H44.47z"/><path fill="#fff" d="M53.52 41.872h6.047v6.3H53.52z"/><path stroke="#000" stroke-width="2" stroke-linejoin="round" stroke-linecap="butt" d="M53.52 41.872h6.047v6.3H53.52z"/><path fill="#fff" d="M71.619 41.872h6.047v6.3H71.62z"/><path stroke="#000" stroke-width="2" stroke-linejoin="round" stroke-linecap="butt" d="M71.619 41.872h6.047v6.3H71.62z"/><path fill="#fff" d="M89.718 41.872h6.048v6.3h-6.048z"/><path stroke="#000" stroke-width="2" stroke-linejoin="round" stroke-linecap="butt" d="M89.718 41.872h6.048v6.3h-6.048z"/><path fill="#fff" d="M62.57 41.872h6.046v6.3H62.57z"/><path stroke="#000" stroke-width="2" stroke-linejoin="round" stroke-linecap="butt" d="M62.57 41.872h6.046v6.3H62.57z"/><path fill="#fff" d="M80.669 41.872h6.047v6.3h-6.047z"/><path stroke="#000" stroke-width="2" stroke-linejoin="round" stroke-linecap="butt" d="M80.669 41.872h6.047v6.3h-6.047z"/><path fill="#fff" d="M98.768 41.872h6.047v6.3h-6.047z"/><path stroke="#000" stroke-width="2" stroke-linejoin="round" stroke-linecap="butt" d="M98.768 41.872h6.047v6.3h-6.047z"/><path fill="#fff" d="M107.818 41.872h6.047v6.3h-6.047z"/><path stroke="#000" stroke-width="2" stroke-linejoin="round" stroke-linecap="butt" d="M107.818 41.872h6.047v6.3h-6.047z"/><path fill="#fff" d="M44.47 52.927h6.047v6.3H44.47z"/><path stroke="#000" stroke-width="2" stroke-linejoin="round" stroke-linecap="butt" d="M44.47 52.927h6.047v6.3H44.47z"/><path fill="#fff" d="M53.52 52.927h6.047v6.3H53.52z"/><path stroke="#000" stroke-width="2" stroke-linejoin="round" stroke-linecap="butt" d="M53.52 52.927h6.047v6.3H53.52z"/><path fill="#fff" d="M71.619 52.927h6.047v6.3H71.62z"/><path stroke="#000" stroke-width="2" stroke-linejoin="round" stroke-linecap="butt" d="M71.619 52.927h6.047v6.3H71.62z"/><path fill="#fff" d="M89.718 52.927h6.048v6.3h-6.048z"/><path stroke="#000" stroke-width="2" stroke-linejoin="round" stroke-linecap="butt" d="M89.718 52.927h6.048v6.3h-6.048z"/><path fill="#fff" d="M62.57 52.927h6.046v6.3H62.57z"/><path stroke="#000" stroke-width="2" stroke-linejoin="round" stroke-linecap="butt" d="M62.57 52.927h6.046v6.3H62.57z"/><path fill="#fff" d="M80.669 52.927h6.047v6.3h-6.047z"/><path stroke="#000" stroke-width="2" stroke-linejoin="round" stroke-linecap="butt" d="M80.669 52.927h6.047v6.3h-6.047z"/><path fill="#fff" d="M98.768 52.927h6.047v6.3h-6.047z"/><path stroke="#000" stroke-width="2" stroke-linejoin="round" stroke-linecap="butt" d="M98.768 52.927h6.047v6.3h-6.047z"/><path fill="#fff" d="M107.818 52.927h6.047v6.3h-6.047z"/><path stroke="#000" stroke-width="2" stroke-linejoin="round" stroke-linecap="butt" d="M107.818 52.927h6.047v6.3h-6.047z"/><path fill="none" d="M123.024 28.677V59.45"/><path stroke="#000" stroke-width="2" stroke-linejoin="round" stroke-linecap="butt" d="M123.024 28.677V59.45"/><path fill="none" d="M147.131 44.472h19.937"/><path stroke="#000" stroke-width="2" stroke-linejoin="round" stroke-linecap="butt" d="M147.131 44.472h19.937"/></g></svg>