<svg viewBox="0.0 0.0 322.0 100.0" fill="none" stroke-linecap="square" stroke-miterlimit="10" xmlns="http://www.w3.org/2000/svg"><clipPath id="a"><path d="M0 0h322v100H0V0z"/></clipPath><g clip-path="url(#a)"><path fill="none" d="M0 0h322.522v100H0z"/><path fill="#fff" d="M39.844 36.17a5.339 5.339 0 1 1 10.677 0 5.339 5.339 0 1 1-10.677 0z"/><path stroke="#000" stroke-width="2" stroke-linejoin="round" stroke-linecap="butt" d="M39.844 36.17a5.339 5.339 0 1 1 10.677 0 5.339 5.339 0 1 1-10.677 0z"/><path fill="#fff" d="M59.466 36.17a5.339 5.339 0 1 1 10.677 0 5.339 5.339 0 1 1-10.677 0z"/><path stroke="#000" stroke-width="2" stroke-linejoin="round" stroke-linecap="butt" d="M59.466 36.17a5.339 5.339 0 1 1 10.677 0 5.339 5.339 0 1 1-10.677 0z"/><path fill="#fff" d="M79.089 36.17a5.339 5.339 0 1 1 10.677 0 5.339 5.339 0 1 1-10.677 0z"/><path stroke="#000" stroke-width="2" stroke-linejoin="round" stroke-linecap="butt" d="M79.089 36.17a5.339 5.339 0 1 1 10.677 0 5.339 5.339 0 1 1-10.677 0z"/><path fill="#fff" d="M98.711 36.17a5.339 5.339 0 1 1 10.677 0 5.339 5.339 0 1 1-10.677 0z"/><path stroke="#000" stroke-width="2" stroke-linejoin="round" stroke-linecap="butt" d="M98.711 36.17a5.339 5.339 0 1 1 10.677 0 5.339 5.339 0 1 1-10.677 0z"/><path fill="#fff" d="M118.334 36.17a5.339 5.339 0 1 1 10.677 0 5.339 5.339 0 1 1-10.677 0z"/><path stroke="#000" stroke-width="2" stroke-linejoin="round" stroke-linecap="butt" d="M118.334 36.17a5.339 5.339 0 1 1 10.677 0 5.339 5.339 0 1 1-10.677 0z"/><path fill="#fff" d="M137.956 36.17a5.339 5.339 0 1 1 10.677 0 5.339 5.339 0 1 1-10.677 0z"/><path stroke="#000" stroke-width="2" stroke-linejoin="round" stroke-linecap="butt" d="M137.956 36.17a5.339 5.339 0 1 1 10.677 0 5.339 5.339 0 1 1-10.677 0z"/><path fill="#fff" d="M157.579 36.17a5.339 5.339 0 1 1 10.677 0 5.339 5.339 0 0 1-10.677 0z"/><path stroke="#000" stroke-width="2" stroke-linejoin="round" stroke-linecap="butt" d="M157.579 36.17a5.339 5.339 0 1 1 10.677 0 5.339 5.339 0 0 1-10.677 0z"/><path fill="#fff" d="M177.201 36.17a5.339 5.339 0 1 1 10.677 0 5.339 5.339 0 1 1-10.677 0z"/><path stroke="#000" stroke-width="2" stroke-linejoin="round" stroke-linecap="butt" d="M177.201 36.17a5.339 5.339 0 1 1 10.677 0 5.339 5.339 0 1 1-10.677 0z"/><path fill="#fff" d="M196.824 36.17a5.339 5.339 0 1 1 10.677 0 5.339 5.339 0 1 1-10.677 0z"/><path stroke="#000" stroke-width="2" stroke-linejoin="round" stroke-linecap="butt" d="M196.824 36.17a5.339 5.339 0 1 1 10.677 0 5.339 5.339 0 1 1-10.677 0z"/><path fill="#fff" d="M216.446 36.17a5.339 5.339 0 1 1 10.677 0 5.339 5.339 0 0 1-10.677 0z"/><path stroke="#000" stroke-width="2" stroke-linejoin="round" stroke-linecap="butt" d="M216.446 36.17a5.339 5.339 0 1 1 10.677 0 5.339 5.339 0 0 1-10.677 0z"/><path fill="#fff" d="M236.069 36.17a5.339 5.339 0 1 1 10.677 0 5.339 5.339 0 0 1-10.677 0z"/><path stroke="#000" stroke-width="2" stroke-linejoin="round" stroke-linecap="butt" d="M236.069 36.17a5.339 5.339 0 1 1 10.677 0 5.339 5.339 0 0 1-10.677 0z"/><path fill="#fff" d="M255.691 36.17a5.338 5.338 0 1 1 10.677 0 5.339 5.339 0 1 1-10.677 0z"/><path stroke="#000" stroke-width="2" stroke-linejoin="round" stroke-linecap="butt" d="M255.691 36.17a5.338 5.338 0 1 1 10.677 0 5.339 5.339 0 1 1-10.677 0z"/><path fill="#fff" d="M275.314 36.17a5.339 5.339 0 1 1 10.677 0 5.339 5.339 0 0 1-10.677 0z"/><path stroke="#000" stroke-width="2" stroke-linejoin="round" stroke-linecap="butt" d="M275.314 36.17a5.339 5.339 0 1 1 10.677 0 5.339 5.339 0 0 1-10.677 0z"/><path fill="#fff" d="M49.181 58.74a5.339 5.339 0 1 1 10.677 0 5.339 5.339 0 0 1-10.677 0z"/><path stroke="#000" stroke-width="2" stroke-linejoin="round" stroke-linecap="butt" d="M49.181 58.74a5.339 5.339 0 1 1 10.677 0 5.339 5.339 0 0 1-10.677 0z"/><path fill="#fff" d="M68.804 58.74a5.339 5.339 0 1 1 10.677 0 5.339 5.339 0 1 1-10.677 0z"/><path stroke="#000" stroke-width="2" stroke-linejoin="round" stroke-linecap="butt" d="M68.804 58.74a5.339 5.339 0 1 1 10.677 0 5.339 5.339 0 1 1-10.677 0z"/><path fill="#fff" d="M88.426 58.74a5.339 5.339 0 1 1 10.677 0 5.339 5.339 0 1 1-10.677 0z"/><path stroke="#000" stroke-width="2" stroke-linejoin="round" stroke-linecap="butt" d="M88.426 58.74a5.339 5.339 0 1 1 10.677 0 5.339 5.339 0 1 1-10.677 0z"/><path fill="#fff" d="M108.049 58.74a5.339 5.339 0 1 1 10.677 0 5.339 5.339 0 0 1-10.677 0z"/><path stroke="#000" stroke-width="2" stroke-linejoin="round" stroke-linecap="butt" d="M108.049 58.74a5.339 5.339 0 1 1 10.677 0 5.339 5.339 0 0 1-10.677 0z"/><path fill="#fff" d="M127.671 58.74a5.339 5.339 0 1 1 10.677 0 5.339 5.339 0 0 1-10.677 0z"/><path stroke="#000" stroke-width="2" stroke-linejoin="round" stroke-linecap="butt" d="M127.671 58.74a5.339 5.339 0 1 1 10.677 0 5.339 5.339 0 0 1-10.677 0z"/><path fill="#fff" d="M147.294 58.74a5.339 5.339 0 1 1 10.677 0 5.339 5.339 0 0 1-10.677 0z"/><path stroke="#000" stroke-width="2" stroke-linejoin="round" stroke-linecap="butt" d="M147.294 58.74a5.339 5.339 0 1 1 10.677 0 5.339 5.339 0 0 1-10.677 0z"/><path fill="#fff" d="M166.916 58.74a5.339 5.339 0 1 1 10.677 0 5.339 5.339 0 0 1-10.677 0z"/><path stroke="#000" stroke-width="2" stroke-linejoin="round" stroke-linecap="butt" d="M166.916 58.74a5.339 5.339 0 1 1 10.677 0 5.339 5.339 0 0 1-10.677 0z"/><path fill="#fff" d="M186.538 58.74a5.339 5.339 0 1 1 10.677 0 5.339 5.339 0 0 1-10.677 0z"/><path stroke="#000" stroke-width="2" stroke-linejoin="round" stroke-linecap="butt" d="M186.538 58.74a5.339 5.339 0 1 1 10.677 0 5.339 5.339 0 0 1-10.677 0z"/><path fill="#fff" d="M206.161 58.74a5.339 5.339 0 1 1 10.677 0 5.339 5.339 0 0 1-10.677 0z"/><path stroke="#000" stroke-width="2" stroke-linejoin="round" stroke-linecap="butt" d="M206.161 58.74a5.339 5.339 0 1 1 10.677 0 5.339 5.339 0 0 1-10.677 0z"/><path fill="#fff" d="M225.783 58.74a5.339 5.339 0 1 1 10.677 0 5.339 5.339 0 0 1-10.677 0z"/><path stroke="#000" stroke-width="2" stroke-linejoin="round" stroke-linecap="butt" d="M225.783 58.74a5.339 5.339 0 1 1 10.677 0 5.339 5.339 0 0 1-10.677 0z"/><path fill="#fff" d="M245.406 58.74a5.339 5.339 0 1 1 10.677 0 5.339 5.339 0 0 1-10.677 0z"/><path stroke="#000" stroke-width="2" stroke-linejoin="round" stroke-linecap="butt" d="M245.406 58.74a5.339 5.339 0 1 1 10.677 0 5.339 5.339 0 0 1-10.677 0z"/><path fill="#fff" d="M265.028 58.74a5.339 5.339 0 1 1 10.677 0 5.339 5.339 0 0 1-10.677 0z"/><path stroke="#000" stroke-width="2" stroke-linejoin="round" stroke-linecap="butt" d="M265.028 58.74a5.339 5.339 0 1 1 10.677 0 5.339 5.339 0 0 1-10.677 0z"/><path fill="#fff" d="M7.196 38.373a6.913 6.913 0 1 1 13.827 0 6.913 6.913 0 0 1-13.827 0z"/><path stroke="#000" stroke-width="2" stroke-linejoin="round" stroke-linecap="butt" d="M7.196 38.373a6.913 6.913 0 1 1 13.827 0 6.913 6.913 0 0 1-13.827 0z"/><path fill="#fff" d="M301.5 38.373a6.913 6.913 0 1 1 13.827 0 6.913 6.913 0 1 1-13.827 0z"/><path stroke="#000" stroke-width="2" stroke-linejoin="round" stroke-linecap="butt" d="M301.5 38.373a6.913 6.913 0 1 1 13.827 0 6.913 6.913 0 1 1-13.827 0z"/><path fill="none" d="M35.173 18.94H290.04"/><path stroke="#000" stroke-width="2" stroke-linejoin="round" stroke-linecap="butt" d="M35.173 18.94H290.04"/><path fill="none" d="M297.652 26.516l-7.81 29.102"/><path stroke="#000" stroke-width="2" stroke-linejoin="round" stroke-linecap="butt" d="M297.652 26.516l-7.81 29.102"/><path fill="none" d="M275.315 72.514l14.583-17.385"/><path stroke="#000" stroke-width="2" stroke-linejoin="round" stroke-linecap="butt" d="M275.315 72.514l14.583-17.385"/><path fill="none" d="M289.131 18.895l9.071 8.787"/><path stroke="#000" stroke-width="2" stroke-linejoin="round" stroke-linecap="butt" d="M289.131 18.895l9.071 8.787"/><path fill="none" d="M48.404 72.735l227.59-.22"/><path stroke="#000" stroke-width="2" stroke-linejoin="round" stroke-linecap="butt" d="M48.404 72.735l227.59-.22"/><path fill="none" d="M26.844 26.516l7.81 29.102"/><path stroke="#000" stroke-width="2" stroke-linejoin="round" stroke-linecap="butt" d="M26.844 26.516l7.81 29.102"/><path fill="none" d="M49.181 72.514L34.598 55.13"/><path stroke="#000" stroke-width="2" stroke-linejoin="round" stroke-linecap="butt" d="M49.181 72.514L34.598 55.13"/><path fill="none" d="M35.365 18.895l-9.071 8.787"/><path stroke="#000" stroke-width="2" stroke-linejoin="round" stroke-linecap="butt" d="M35.365 18.895l-9.071 8.787"/><path fill="none" d="M26.844 26.56l7.81 29.103"/><path stroke="#000" stroke-width="2" stroke-linejoin="round" stroke-linecap="butt" d="M26.844 26.56l7.81 29.103"/><path fill="none" d="M35.365 18.94l-9.071 8.787"/><path stroke="#000" stroke-width="2" stroke-linejoin="round" stroke-linecap="butt" d="M35.365 18.94l-9.071 8.787"/><path fill="none" d="M49.181 72.559L34.598 55.173"/><path stroke="#000" stroke-width="2" stroke-linejoin="round" stroke-linecap="butt" d="M49.181 72.559L34.598 55.173"/></g></svg>