<svg viewBox="0.0 0.0 111.0 100.0" fill="none" stroke-linecap="square" stroke-miterlimit="10" xmlns="http://www.w3.org/2000/svg"><clipPath id="a"><path d="M0 0h111v100H0V0z"/></clipPath><g clip-path="url(#a)"><path fill="none" d="M0 0h111.562v100H0z"/><path fill="#fff" d="M21.96 50c0-16.499 14.546-29.874 32.488-29.874 17.943 0 32.489 13.375 32.489 29.874S72.39 79.874 54.448 79.874C36.506 79.874 21.96 66.499 21.96 50z"/><path stroke="#000" stroke-width="2" stroke-linejoin="round" stroke-linecap="butt" d="M21.96 50c0-16.499 14.546-29.874 32.488-29.874 17.943 0 32.489 13.375 32.489 29.874S72.39 79.874 54.448 79.874C36.506 79.874 21.96 66.499 21.96 50z"/><path fill="#fff" d="M28.323 50c0-13.264 11.697-24.016 26.126-24.016 14.429 0 26.126 10.752 26.126 24.016 0 13.264-11.697 24.016-26.126 24.016-14.43 0-26.126-10.752-26.126-24.016z"/><path stroke="#000" stroke-width="2" stroke-linejoin="round" stroke-linecap="butt" d="M28.323 50c0-13.264 11.697-24.016 26.126-24.016 14.429 0 26.126 10.752 26.126 24.016 0 13.264-11.697 24.016-26.126 24.016-14.43 0-26.126-10.752-26.126-24.016z"/><path fill="#000" d="M43.41 39.64a2.74 2.74 0 1 1 5.48 0 2.74 2.74 0 0 1-5.48 0z"/><path stroke="#000" stroke-width="2" stroke-linejoin="round" stroke-linecap="butt" d="M43.41 39.64a2.74 2.74 0 1 1 5.48 0 2.74 2.74 0 0 1-5.48 0z"/><path fill="#000" d="M37.93 49.727a2.74 2.74 0 1 1 5.48 0 2.74 2.74 0 1 1-5.48 0z"/><path stroke="#000" stroke-width="2" stroke-linejoin="round" stroke-linecap="butt" d="M37.93 49.727a2.74 2.74 0 1 1 5.48 0 2.74 2.74 0 1 1-5.48 0z"/><path fill="#000" d="M43.41 59.031a2.74 2.74 0 1 1 5.48 0 2.74 2.74 0 0 1-5.48 0z"/><path stroke="#000" stroke-width="2" stroke-linejoin="round" stroke-linecap="butt" d="M43.41 59.031a2.74 2.74 0 1 1 5.48 0 2.74 2.74 0 0 1-5.48 0z"/><path fill="#000" d="M59.955 59.031a2.74 2.74 0 1 1 5.48 0 2.74 2.74 0 0 1-5.48 0z"/><path stroke="#000" stroke-width="2" stroke-linejoin="round" stroke-linecap="butt" d="M59.955 59.031a2.74 2.74 0 1 1 5.48 0 2.74 2.74 0 0 1-5.48 0z"/><path fill="#000" d="M63.93 49.727a2.74 2.74 0 1 1 5.48 0 2.74 2.74 0 1 1-5.48 0z"/><path stroke="#000" stroke-width="2" stroke-linejoin="round" stroke-linecap="butt" d="M63.93 49.727a2.74 2.74 0 1 1 5.48 0 2.74 2.74 0 1 1-5.48 0z"/><path fill="#000" d="M59.955 39.64a2.74 2.74 0 1 1 5.48 0 2.74 2.74 0 0 1-5.48 0z"/><path stroke="#000" stroke-width="2" stroke-linejoin="round" stroke-linecap="butt" d="M59.955 39.64a2.74 2.74 0 1 1 5.48 0 2.74 2.74 0 0 1-5.48 0z"/><path fill="#000" d="M50.457 27.197h6.425v3.275h-6.425z"/><path stroke="#000" stroke-width="2" stroke-linejoin="round" stroke-linecap="butt" d="M50.457 27.197h6.425v3.275h-6.425z"/><path fill="#000" d="M36.772 66.15a2.74 2.74 0 1 1 5.48 0 2.74 2.74 0 1 1-5.48 0z"/><path stroke="#000" stroke-width="2" stroke-linejoin="round" stroke-linecap="butt" d="M36.772 66.15a2.74 2.74 0 1 1 5.48 0 2.74 2.74 0 1 1-5.48 0z"/><path fill="#000" d="M66.215 66.969a2.74 2.74 0 1 1 5.48 0 2.74 2.74 0 1 1-5.48 0z"/><path stroke="#000" stroke-width="2" stroke-linejoin="round" stroke-linecap="butt" d="M66.215 66.969a2.74 2.74 0 1 1 5.48 0 2.74 2.74 0 1 1-5.48 0z"/><path fill="#000" d="M49.677 44.75l2.402 9.953h4.803l2.401-9.952z"/><path stroke="#000" stroke-width="2" stroke-linejoin="round" stroke-linecap="butt" d="M49.677 44.75l2.402 9.953h4.803l2.401-9.952z"/></g></svg>