<svg viewBox="0.0 0.0 167.0 100.0" fill="none" stroke-linecap="square" stroke-miterlimit="10" xmlns="http://www.w3.org/2000/svg"><clipPath id="a"><path d="M0 0h167v100H0V0z"/></clipPath><g clip-path="url(#a)"><path fill="none" d="M0 0h167.472v100H0z"/><path fill="#fff" d="M13.705 37.446a6.913 6.913 0 1 1 13.827 0 6.913 6.913 0 0 1-13.827 0z"/><path stroke="#000" stroke-width="2" stroke-linejoin="round" stroke-linecap="butt" d="M13.705 37.446a6.913 6.913 0 1 1 13.827 0 6.913 6.913 0 0 1-13.827 0z"/><path fill="#fff" d="M134.398 37.446a6.913 6.913 0 1 1 13.827 0 6.913 6.913 0 1 1-13.827 0z"/><path stroke="#000" stroke-width="2" stroke-linejoin="round" stroke-linecap="butt" d="M134.398 37.446a6.913 6.913 0 1 1 13.827 0 6.913 6.913 0 1 1-13.827 0z"/><path fill="#fff" d="M40.816 31.156c0-.997.809-1.806 1.806-1.806h7.223a1.806 1.806 0 0 1 1.806 1.806v7.223c0 .998-.809 1.806-1.806 1.806h-7.223a1.806 1.806 0 0 1-1.806-1.806z"/><path stroke="#000" stroke-width="2" stroke-linejoin="round" stroke-linecap="butt" d="M40.816 31.156c0-.997.809-1.806 1.806-1.806h7.223a1.806 1.806 0 0 1 1.806 1.806v7.223c0 .998-.809 1.806-1.806 1.806h-7.223a1.806 1.806 0 0 1-1.806-1.806z"/><path fill="#fff" d="M58.182 31.156c0-.997.809-1.806 1.806-1.806h7.223a1.806 1.806 0 0 1 1.806 1.806v7.223c0 .998-.808 1.806-1.806 1.806h-7.223a1.806 1.806 0 0 1-1.806-1.806z"/><path stroke="#000" stroke-width="2" stroke-linejoin="round" stroke-linecap="butt" d="M58.182 31.156c0-.997.809-1.806 1.806-1.806h7.223a1.806 1.806 0 0 1 1.806 1.806v7.223c0 .998-.808 1.806-1.806 1.806h-7.223a1.806 1.806 0 0 1-1.806-1.806z"/><path fill="#fff" d="M75.549 31.156c0-.997.808-1.806 1.805-1.806h7.223a1.806 1.806 0 0 1 1.806 1.806v7.223c0 .998-.808 1.806-1.806 1.806h-7.223a1.806 1.806 0 0 1-1.805-1.806z"/><path stroke="#000" stroke-width="2" stroke-linejoin="round" stroke-linecap="butt" d="M75.549 31.156c0-.997.808-1.806 1.805-1.806h7.223a1.806 1.806 0 0 1 1.806 1.806v7.223c0 .998-.808 1.806-1.806 1.806h-7.223a1.806 1.806 0 0 1-1.805-1.806z"/><path fill="#fff" d="M92.915 31.156c0-.997.808-1.806 1.806-1.806h7.223a1.806 1.806 0 0 1 1.805 1.806v7.223c0 .998-.808 1.806-1.805 1.806H94.72a1.806 1.806 0 0 1-1.806-1.806z"/><path stroke="#000" stroke-width="2" stroke-linejoin="round" stroke-linecap="butt" d="M92.915 31.156c0-.997.808-1.806 1.806-1.806h7.223a1.806 1.806 0 0 1 1.805 1.806v7.223c0 .998-.808 1.806-1.805 1.806H94.72a1.806 1.806 0 0 1-1.806-1.806z"/><path fill="#fff" d="M110.28 31.156c0-.997.81-1.806 1.807-1.806h7.223a1.806 1.806 0 0 1 1.805 1.806v7.223c0 .998-.808 1.806-1.805 1.806h-7.223a1.806 1.806 0 0 1-1.806-1.806z"/><path stroke="#000" stroke-width="2" stroke-linejoin="round" stroke-linecap="butt" d="M110.28 31.156c0-.997.81-1.806 1.807-1.806h7.223a1.806 1.806 0 0 1 1.805 1.806v7.223c0 .998-.808 1.806-1.805 1.806h-7.223a1.806 1.806 0 0 1-1.806-1.806z"/><path fill="#fff" d="M47.453 53.074c0-.998.808-1.806 1.806-1.806h7.223a1.806 1.806 0 0 1 1.805 1.806v7.223c0 .997-.808 1.805-1.805 1.805h-7.223a1.806 1.806 0 0 1-1.806-1.805z"/><path stroke="#000" stroke-width="2" stroke-linejoin="round" stroke-linecap="butt" d="M47.453 53.074c0-.998.808-1.806 1.806-1.806h7.223a1.806 1.806 0 0 1 1.805 1.806v7.223c0 .997-.808 1.805-1.805 1.805h-7.223a1.806 1.806 0 0 1-1.806-1.805z"/><path fill="#fff" d="M64.819 53.074c0-.998.808-1.806 1.806-1.806h7.223a1.806 1.806 0 0 1 1.806 1.806v7.223c0 .997-.809 1.805-1.806 1.805h-7.223a1.806 1.806 0 0 1-1.806-1.805z"/><path stroke="#000" stroke-width="2" stroke-linejoin="round" stroke-linecap="butt" d="M64.819 53.074c0-.998.808-1.806 1.806-1.806h7.223a1.806 1.806 0 0 1 1.806 1.806v7.223c0 .997-.809 1.805-1.806 1.805h-7.223a1.806 1.806 0 0 1-1.806-1.805z"/><path fill="#fff" d="M82.185 53.074c0-.998.809-1.806 1.806-1.806h7.223a1.806 1.806 0 0 1 1.806 1.806v7.223c0 .997-.809 1.805-1.806 1.805H83.99a1.806 1.806 0 0 1-1.806-1.805z"/><path stroke="#000" stroke-width="2" stroke-linejoin="round" stroke-linecap="butt" d="M82.185 53.074c0-.998.809-1.806 1.806-1.806h7.223a1.806 1.806 0 0 1 1.806 1.806v7.223c0 .997-.809 1.805-1.806 1.805H83.99a1.806 1.806 0 0 1-1.806-1.805z"/><path fill="#fff" d="M99.551 53.074c0-.998.809-1.806 1.806-1.806h7.223a1.806 1.806 0 0 1 1.806 1.806v7.223c0 .997-.809 1.805-1.806 1.805h-7.223a1.806 1.806 0 0 1-1.806-1.805z"/><path stroke="#000" stroke-width="2" stroke-linejoin="round" stroke-linecap="butt" d="M99.551 53.074c0-.998.809-1.806 1.806-1.806h7.223a1.806 1.806 0 0 1 1.806 1.806v7.223c0 .997-.809 1.805-1.806 1.805h-7.223a1.806 1.806 0 0 1-1.806-1.805z"/><path fill="none" d="M37.668 20.969h86.971l8.024 8.026-8.234 30.727-13.522 13.522H52.16L36.765 57.848l-7.496-27.98z"/><path stroke="#000" stroke-width="2" stroke-linejoin="round" stroke-linecap="butt" d="M37.668 20.969h86.971l8.024 8.026-8.234 30.727-13.522 13.522H52.16L36.765 57.848l-7.496-27.98z"/></g></svg>