<svg viewBox="0.0 0.0 100.0 100.0" fill="none" stroke-linecap="square" stroke-miterlimit="10" xmlns="http://www.w3.org/2000/svg"><clipPath id="a"><path d="M0 0h100v100H0V0z"/></clipPath><g clip-path="url(#a)"><path fill="none" d="M0 0h100v100H0z"/><path fill="#fff" d="M21.968 25.921c0-9.54 8.405-17.275 18.772-17.275 10.367 0 18.772 7.734 18.772 17.275 0 9.541-8.405 17.276-18.772 17.276-10.367 0-18.772-7.735-18.772-17.276z"/><path stroke="#000" stroke-width="2" stroke-linejoin="round" stroke-linecap="butt" d="M21.968 25.921c0-9.54 8.405-17.275 18.772-17.275 10.367 0 18.772 7.734 18.772 17.275 0 9.541-8.405 17.276-18.772 17.276-10.367 0-18.772-7.735-18.772-17.276z"/><path fill="#fff" d="M27.897 25.907c0-6.514 5.753-11.795 12.85-11.795 7.098 0 12.85 5.281 12.85 11.795 0 6.515-5.752 11.796-12.85 11.796-7.097 0-12.85-5.281-12.85-11.796z"/><path stroke="#000" stroke-width="2" stroke-linejoin="round" stroke-linecap="butt" d="M27.897 25.907c0-6.514 5.753-11.795 12.85-11.795 7.098 0 12.85 5.281 12.85 11.795 0 6.515-5.752 11.796-12.85 11.796-7.097 0-12.85-5.281-12.85-11.796z"/><path fill="#000" d="M31.83 25.916c0-4.523 3.99-8.19 8.913-8.19 4.922 0 8.913 3.667 8.913 8.19 0 4.522-3.99 8.189-8.913 8.189s-8.914-3.667-8.914-8.19z"/><path stroke="#000" stroke-width="2" stroke-linejoin="round" stroke-linecap="butt" d="M31.83 25.916c0-4.523 3.99-8.19 8.913-8.19 4.922 0 8.913 3.667 8.913 8.19 0 4.522-3.99 8.189-8.913 8.189s-8.914-3.667-8.914-8.19z"/><path fill="#fff" d="M21.968 74.173c0-9.54 8.405-17.275 18.772-17.275 10.367 0 18.772 7.734 18.772 17.275 0 9.541-8.405 17.276-18.772 17.276-10.367 0-18.772-7.735-18.772-17.276z"/><path stroke="#000" stroke-width="2" stroke-linejoin="round" stroke-linecap="butt" d="M21.968 74.173c0-9.54 8.405-17.275 18.772-17.275 10.367 0 18.772 7.734 18.772 17.275 0 9.541-8.405 17.276-18.772 17.276-10.367 0-18.772-7.735-18.772-17.276z"/><path fill="#fff" d="M27.897 74.16c0-6.515 5.753-11.796 12.85-11.796 7.098 0 12.85 5.281 12.85 11.795 0 6.515-5.752 11.796-12.85 11.796-7.097 0-12.85-5.281-12.85-11.796z"/><path stroke="#000" stroke-width="2" stroke-linejoin="round" stroke-linecap="butt" d="M27.897 74.16c0-6.515 5.753-11.796 12.85-11.796 7.098 0 12.85 5.281 12.85 11.795 0 6.515-5.752 11.796-12.85 11.796-7.097 0-12.85-5.281-12.85-11.796z"/><path fill="#000" d="M31.83 74.168c0-4.523 3.99-8.19 8.913-8.19 4.922 0 8.913 3.667 8.913 8.19 0 4.522-3.99 8.189-8.913 8.189s-8.914-3.667-8.914-8.19z"/><path stroke="#000" stroke-width="2" stroke-linejoin="round" stroke-linecap="butt" d="M31.83 74.168c0-4.523 3.99-8.19 8.913-8.19 4.922 0 8.913 3.667 8.913 8.19 0 4.522-3.99 8.189-8.913 8.189s-8.914-3.667-8.914-8.19z"/></g></svg>