<?xml version="1.0" encoding="UTF-8" standalone="no"?>
<svg
   xmlns:dc="http://purl.org/dc/elements/1.1/"
   xmlns:cc="http://creativecommons.org/ns#"
   xmlns:rdf="http://www.w3.org/1999/02/22-rdf-syntax-ns#"
   xmlns:svg="http://www.w3.org/2000/svg"
   xmlns="http://www.w3.org/2000/svg"
   xmlns:sodipodi="http://sodipodi.sourceforge.net/DTD/sodipodi-0.dtd"
   xmlns:inkscape="http://www.inkscape.org/namespaces/inkscape"
   version="1.1"
   viewBox="0.0 0.0 604.0 348.0"
   fill="none"
   stroke="none"
   stroke-linecap="square"
   stroke-miterlimit="10"
   id="svg2"
   inkscape:version="0.91 r13725"
   sodipodi:docname="SimonComponent_ColourLegend.svg">
  <metadata
     id="metadata81">
    <rdf:RDF>
      <cc:Work
         rdf:about="">
        <dc:format>image/svg+xml</dc:format>
        <dc:type
           rdf:resource="http://purl.org/dc/dcmitype/StillImage" />
      </cc:Work>
    </rdf:RDF>
  </metadata>
  <defs
     id="defs79" />
  <sodipodi:namedview
     pagecolor="#ffffff"
     bordercolor="#666666"
     borderopacity="1"
     objecttolerance="10"
     gridtolerance="10"
     guidetolerance="10"
     inkscape:pageopacity="0"
     inkscape:pageshadow="2"
     inkscape:window-width="1920"
     inkscape:window-height="1017"
     id="namedview77"
     showgrid="false"
     inkscape:zoom="0.95364238"
     inkscape:cx="52.108496"
     inkscape:cy="53.298627"
     inkscape:window-x="-8"
     inkscape:window-y="-8"
     inkscape:window-maximized="1"
     inkscape:current-layer="g7" />
  <clipPath
     id="p.0">
    <path
       d="m0 0l604.0 0l0 348.0l-604.0 0l0 -348.0z"
       clip-rule="nonzero"
       id="path5" />
  </clipPath>
  <g
     clip-path="url(#p.0)"
     id="g7">
    <path
       fill="#000000"
       fill-opacity="0.0"
       d="m0 0l604.0 0l0 348.0l-604.0 0z"
       fill-rule="nonzero"
       id="path9" />
    <path
       fill="#ffffff"
       d="m114.35958 0l357.29132 0l0 347.9685l-357.29132 0z"
       fill-rule="nonzero"
       id="path11" />
    <path
       fill="#000000"
       fill-opacity="0.0"
       d="m125.438324 5.7758217l336.9134 0l0 337.66928l-336.9134 0z"
       fill-rule="nonzero"
       id="path13" />
    <path
       stroke="#000000"
       stroke-width="2.0"
       stroke-linejoin="round"
       stroke-linecap="butt"
       d="m125.438324 5.7758217l336.9134 0l0 337.66928l-336.9134 0z"
       fill-rule="nonzero"
       id="path15" />
    <path
       fill="#ffffff"
       d="m403.09402 40.553925l0 0c0 -8.375591 6.9660034 -15.165352 15.5590515 -15.165352l0 0c4.126526 0 8.084015 1.5977726 11.001923 4.441828c2.9178772 2.844057 4.557129 6.7014256 4.557129 10.723524l0 0c0 8.375595 -6.966034 15.165356 -15.5590515 15.165356l0 0c-8.593048 0 -15.5590515 -6.7897606 -15.5590515 -15.165356z"
       fill-rule="nonzero"
       id="path17" />
    <path
       stroke="#000000"
       stroke-width="2.0"
       stroke-linejoin="round"
       stroke-linecap="butt"
       d="m403.09402 40.553925l0 0c0 -8.375591 6.9660034 -15.165352 15.5590515 -15.165352l0 0c4.126526 0 8.084015 1.5977726 11.001923 4.441828c2.9178772 2.844057 4.557129 6.7014256 4.557129 10.723524l0 0c0 8.375595 -6.966034 15.165356 -15.5590515 15.165356l0 0c-8.593048 0 -15.5590515 -6.7897606 -15.5590515 -15.165356z"
       fill-rule="nonzero"
       id="path19" />
    <path
       fill="#000000"
       fill-opacity="0.0"
       d="m241.62204 122.04462l52.566925 -52.566925l52.566956 52.566925l-52.566956 52.566925z"
       fill-rule="nonzero"
       id="path21" />
    <path
       stroke="#000000"
       stroke-width="2.0"
       stroke-linejoin="round"
       stroke-linecap="butt"
       d="m241.62204 122.04462l52.566925 -52.566925l52.566956 52.566925l-52.566956 52.566925z"
       fill-rule="nonzero"
       id="path23" />
    <path
       fill="#000000"
       fill-opacity="0.0"
       d="m188.76115 175.06561l52.566925 -52.566925l52.56694 52.566925l-52.56694 52.56694z"
       fill-rule="nonzero"
       id="path25" />
    <path
       stroke="#000000"
       stroke-width="2.0"
       stroke-linejoin="round"
       stroke-linecap="butt"
       d="m188.76115 175.06561l52.566925 -52.566925l52.56694 52.566925l-52.56694 52.56694z"
       fill-rule="nonzero"
       id="path27" />
    <path
       fill="#000000"
       fill-opacity="0.0"
       d="m241.62204 227.17848l52.566925 -52.56694l52.566956 52.56694l-52.566956 52.56691z"
       fill-rule="nonzero"
       id="path29" />
    <path
       stroke="#000000"
       stroke-width="2.0"
       stroke-linejoin="round"
       stroke-linecap="butt"
       d="m241.62204 227.17848l52.566925 -52.56694l52.566956 52.56694l-52.566956 52.56691z"
       fill-rule="nonzero"
       id="path31" />
    <path
       fill="#000000"
       fill-opacity="0.0"
       d="m293.89502 175.06561l52.566925 -52.566925l52.566925 52.566925l-52.566925 52.56694z"
       fill-rule="nonzero"
       id="path33" />
    <path
       stroke="#000000"
       stroke-width="2.0"
       stroke-linejoin="round"
       stroke-linecap="butt"
       d="m293.89502 175.06561l52.566925 -52.566925l52.566925 52.566925l-52.566925 52.56694z"
       fill-rule="nonzero"
       id="path35" />
    <path
       fill="#000000"
       fill-opacity="0.0"
       d="m478.6509 60.892387l95.874054 0l0 61.6063l-95.874054 0z"
       fill-rule="nonzero"
       id="path37" />
    <path
       fill="#000000"
       fill-opacity="0.0"
       d="m478.6509 143.8084l140.34647 0l0 61.606308l-140.34647 0z"
       fill-rule="nonzero"
       id="path41" />
    <path
       fill="#000000"
       fill-opacity="0.0"
       d="m2.2257218 142.3727l105.13386 0l0 65.38583l-105.13386 0z"
       fill-rule="nonzero"
       id="path45" />
    <path
       fill="#000000"
       fill-opacity="0.0"
       d="m-5.0 223.63255l113.35433 0l0 65.38582l-113.35433 0z"
       fill-rule="nonzero"
       id="path49" />
    <path
       fill="#000000"
       fill-opacity="0.0"
       d="m108.35433 256.32547l154.64566 0"
       fill-rule="nonzero"
       id="path53" />
    <path
       stroke="#000000"
       stroke-width="2.0"
       stroke-linejoin="round"
       stroke-linecap="butt"
       d="m108.35433 256.32547l142.64566 0"
       fill-rule="evenodd"
       id="path55" />
    <path
       fill="#000000"
       stroke="#000000"
       stroke-width="2.0"
       stroke-linecap="butt"
       d="m251.0 259.62894l9.076202 -3.3034668l-9.076202 -3.303482z"
       fill-rule="evenodd"
       id="path57" />
    <path
       fill="#000000"
       fill-opacity="0.0"
       d="m478.6509 91.69554l-146.4252 0"
       fill-rule="nonzero"
       id="path59" />
    <path
       stroke="#000000"
       stroke-width="2.0"
       stroke-linejoin="round"
       stroke-linecap="butt"
       d="m478.6509 91.69554l-134.4252 0"
       fill-rule="evenodd"
       id="path61" />
    <path
       fill="#000000"
       stroke="#000000"
       stroke-width="2.0"
       stroke-linecap="butt"
       d="m344.2257 88.392075l-9.076172 3.3034668l9.076172 3.3034592z"
       fill-rule="evenodd"
       id="path63" />
    <path
       fill="#000000"
       fill-opacity="0.0"
       d="m478.6509 174.61154l-68.47244 0"
       fill-rule="nonzero"
       id="path65" />
    <path
       stroke="#000000"
       stroke-width="2.0"
       stroke-linejoin="round"
       stroke-linecap="butt"
       d="m478.6509 174.61154l-56.472443 0"
       fill-rule="evenodd"
       id="path67" />
    <path
       fill="#000000"
       stroke="#000000"
       stroke-width="2.0"
       stroke-linecap="butt"
       d="m422.17847 171.30809l-9.076172 3.3034515l9.076172 3.3034668z"
       fill-rule="evenodd"
       id="path69" />
    <path
       fill="#000000"
       fill-opacity="0.0"
       d="m107.35958 175.06561l72.18897 0"
       fill-rule="nonzero"
       id="path71" />
    <path
       stroke="#000000"
       stroke-width="2.0"
       stroke-linejoin="round"
       stroke-linecap="butt"
       d="m107.35958 175.06561l60.188972 0"
       fill-rule="evenodd"
       id="path73" />
    <path
       fill="#000000"
       stroke="#000000"
       stroke-width="2.0"
       stroke-linecap="butt"
       d="m167.54855 178.36908l9.076202 -3.3034668l-9.076202 -3.3034668z"
       fill-rule="evenodd"
       id="path75" />
    <text
       xml:space="preserve"
       style="font-style:normal;font-weight:normal;font-size:31.01088142px;line-height:125%;font-family:sans-serif;letter-spacing:0px;word-spacing:0px;fill:#000000;fill-opacity:1;stroke:none;stroke-width:1px;stroke-linecap:butt;stroke-linejoin:miter;stroke-opacity:1"
       x="485.89972"
       y="101.81074"
       id="text3409"
       sodipodi:linespacing="125%"><tspan
         sodipodi:role="line"
         id="tspan3411"
         x="485.89972"
         y="101.81074"
         style="font-style:normal;font-variant:normal;font-weight:normal;font-stretch:normal;font-size:31.25px;font-family:'Special Elite';-inkscape-font-specification:'Special Elite'">Blauw</tspan></text>
    <text
       xml:space="preserve"
       style="font-style:normal;font-weight:normal;font-size:31.25px;line-height:125%;font-family:sans-serif;letter-spacing:0px;word-spacing:0px;fill:#000000;fill-opacity:1;stroke:none;stroke-width:1px;stroke-linecap:butt;stroke-linejoin:miter;stroke-opacity:1"
       x="485.38092"
       y="185.24512"
       id="text3413"
       sodipodi:linespacing="125%"><tspan
         sodipodi:role="line"
         id="tspan3415"
         x="485.38092"
         y="185.24512"
         style="font-style:normal;font-variant:normal;font-weight:normal;font-stretch:normal;font-size:31.25px;font-family:'Special Elite';-inkscape-font-specification:'Special Elite'">Geel</tspan></text>
    <text
       xml:space="preserve"
       style="font-style:normal;font-weight:normal;font-size:40px;line-height:125%;font-family:sans-serif;letter-spacing:0px;word-spacing:0px;fill:#000000;fill-opacity:1;stroke:none;stroke-width:1px;stroke-linecap:butt;stroke-linejoin:miter;stroke-opacity:1"
       x="24.982878"
       y="184.87439"
       id="text3417"
       sodipodi:linespacing="125%"><tspan
         sodipodi:role="line"
         id="tspan3419"
         x="24.982878"
         y="184.87439"
         style="font-style:normal;font-variant:normal;font-weight:normal;font-stretch:normal;font-size:31.25px;font-family:'Special Elite';-inkscape-font-specification:'Special Elite'">Rood</tspan></text>
    <text
       xml:space="preserve"
       style="font-style:normal;font-weight:normal;font-size:40px;line-height:125%;font-family:sans-serif;letter-spacing:0px;word-spacing:0px;fill:#000000;fill-opacity:1;stroke:none;stroke-width:1px;stroke-linecap:butt;stroke-linejoin:miter;stroke-opacity:1"
       x="8.2897615"
       y="265.32498"
       id="text3421"
       sodipodi:linespacing="125%"><tspan
         sodipodi:role="line"
         id="tspan3423"
         x="8.2897615"
         y="265.32498"
         style="font-style:normal;font-variant:normal;font-weight:normal;font-stretch:normal;font-size:31.25px;font-family:'Special Elite';-inkscape-font-specification:'Special Elite'">Groen</tspan></text>
  </g>
</svg>
